%TF.GenerationSoftware,KiCad,Pcbnew,5.1.6-c6e7f7d~87~ubuntu20.04.1*%
%TF.CreationDate,2022-04-29T16:14:20+02:00*%
%TF.ProjectId,i2c_display,6932635f-6469-4737-906c-61792e6b6963,rev?*%
%TF.SameCoordinates,PXa03a458PY706ce10*%
%TF.FileFunction,Legend,Bot*%
%TF.FilePolarity,Positive*%
%FSLAX46Y46*%
G04 Gerber Fmt 4.6, Leading zero omitted, Abs format (unit mm)*
G04 Created by KiCad (PCBNEW 5.1.6-c6e7f7d~87~ubuntu20.04.1) date 2022-04-29 16:14:20*
%MOMM*%
%LPD*%
G01*
G04 APERTURE LIST*
%ADD10C,0.300000*%
%ADD11C,0.120000*%
%ADD12C,0.150000*%
G04 APERTURE END LIST*
D10*
X18783771Y16616738D02*
X17783771Y16616738D01*
X17283771Y16616738D02*
X17355200Y16688166D01*
X17426628Y16616738D01*
X17355200Y16545309D01*
X17283771Y16616738D01*
X17426628Y16616738D01*
X17426628Y15973880D02*
X17355200Y15902452D01*
X17283771Y15759595D01*
X17283771Y15402452D01*
X17355200Y15259595D01*
X17426628Y15188166D01*
X17569485Y15116738D01*
X17712342Y15116738D01*
X17926628Y15188166D01*
X18783771Y16045309D01*
X18783771Y15116738D01*
X18712342Y13831023D02*
X18783771Y13973880D01*
X18783771Y14259595D01*
X18712342Y14402452D01*
X18640914Y14473880D01*
X18498057Y14545309D01*
X18069485Y14545309D01*
X17926628Y14473880D01*
X17855200Y14402452D01*
X17783771Y14259595D01*
X17783771Y13973880D01*
X17855200Y13831023D01*
X18926628Y13545309D02*
X18926628Y12402452D01*
X18783771Y11402452D02*
X17283771Y11402452D01*
X18712342Y11402452D02*
X18783771Y11545309D01*
X18783771Y11831023D01*
X18712342Y11973880D01*
X18640914Y12045309D01*
X18498057Y12116738D01*
X18069485Y12116738D01*
X17926628Y12045309D01*
X17855200Y11973880D01*
X17783771Y11831023D01*
X17783771Y11545309D01*
X17855200Y11402452D01*
X18783771Y10688166D02*
X17783771Y10688166D01*
X17283771Y10688166D02*
X17355200Y10759595D01*
X17426628Y10688166D01*
X17355200Y10616738D01*
X17283771Y10688166D01*
X17426628Y10688166D01*
X18712342Y10045309D02*
X18783771Y9902452D01*
X18783771Y9616738D01*
X18712342Y9473880D01*
X18569485Y9402452D01*
X18498057Y9402452D01*
X18355200Y9473880D01*
X18283771Y9616738D01*
X18283771Y9831023D01*
X18212342Y9973880D01*
X18069485Y10045309D01*
X17998057Y10045309D01*
X17855200Y9973880D01*
X17783771Y9831023D01*
X17783771Y9616738D01*
X17855200Y9473880D01*
X17783771Y8759595D02*
X19283771Y8759595D01*
X17855200Y8759595D02*
X17783771Y8616738D01*
X17783771Y8331023D01*
X17855200Y8188166D01*
X17926628Y8116738D01*
X18069485Y8045309D01*
X18498057Y8045309D01*
X18640914Y8116738D01*
X18712342Y8188166D01*
X18783771Y8331023D01*
X18783771Y8616738D01*
X18712342Y8759595D01*
X18783771Y7188166D02*
X18712342Y7331023D01*
X18569485Y7402452D01*
X17283771Y7402452D01*
X18783771Y5973880D02*
X17998057Y5973880D01*
X17855200Y6045309D01*
X17783771Y6188166D01*
X17783771Y6473880D01*
X17855200Y6616738D01*
X18712342Y5973880D02*
X18783771Y6116738D01*
X18783771Y6473880D01*
X18712342Y6616738D01*
X18569485Y6688166D01*
X18426628Y6688166D01*
X18283771Y6616738D01*
X18212342Y6473880D01*
X18212342Y6116738D01*
X18140914Y5973880D01*
X17783771Y5402452D02*
X18783771Y5045309D01*
X17783771Y4688166D02*
X18783771Y5045309D01*
X19140914Y5188166D01*
X19212342Y5259595D01*
X19283771Y5402452D01*
X21476628Y15116738D02*
X21405200Y15259595D01*
X21262342Y15402452D01*
X21048057Y15616738D01*
X20976628Y15759595D01*
X20976628Y15902452D01*
X21333771Y15831023D02*
X21262342Y15973880D01*
X21119485Y16116738D01*
X20833771Y16188166D01*
X20333771Y16188166D01*
X20048057Y16116738D01*
X19905200Y15973880D01*
X19833771Y15831023D01*
X19833771Y15545309D01*
X19905200Y15402452D01*
X20048057Y15259595D01*
X20333771Y15188166D01*
X20833771Y15188166D01*
X21119485Y15259595D01*
X21262342Y15402452D01*
X21333771Y15545309D01*
X21333771Y15831023D01*
X20333771Y13902452D02*
X21333771Y13902452D01*
X20333771Y14545309D02*
X21119485Y14545309D01*
X21262342Y14473880D01*
X21333771Y14331023D01*
X21333771Y14116738D01*
X21262342Y13973880D01*
X21190914Y13902452D01*
X21262342Y12616738D02*
X21333771Y12759595D01*
X21333771Y13045309D01*
X21262342Y13188166D01*
X21119485Y13259595D01*
X20548057Y13259595D01*
X20405200Y13188166D01*
X20333771Y13045309D01*
X20333771Y12759595D01*
X20405200Y12616738D01*
X20548057Y12545309D01*
X20690914Y12545309D01*
X20833771Y13259595D01*
X20333771Y12116738D02*
X20333771Y11545309D01*
X19833771Y11902452D02*
X21119485Y11902452D01*
X21262342Y11831023D01*
X21333771Y11688166D01*
X21333771Y11545309D01*
X20333771Y11188166D02*
X20333771Y10402452D01*
X21333771Y11188166D01*
X21333771Y10402452D01*
X21333771Y9831023D02*
X19833771Y9831023D01*
X21333771Y9188166D02*
X20548057Y9188166D01*
X20405200Y9259595D01*
X20333771Y9402452D01*
X20333771Y9616738D01*
X20405200Y9759595D01*
X20476628Y9831023D01*
X21333771Y7831023D02*
X20548057Y7831023D01*
X20405200Y7902452D01*
X20333771Y8045309D01*
X20333771Y8331023D01*
X20405200Y8473880D01*
X21262342Y7831023D02*
X21333771Y7973880D01*
X21333771Y8331023D01*
X21262342Y8473880D01*
X21119485Y8545309D01*
X20976628Y8545309D01*
X20833771Y8473880D01*
X20762342Y8331023D01*
X20762342Y7973880D01*
X20690914Y7831023D01*
X21262342Y6473880D02*
X21333771Y6616738D01*
X21333771Y6902452D01*
X21262342Y7045309D01*
X21190914Y7116738D01*
X21048057Y7188166D01*
X20619485Y7188166D01*
X20476628Y7116738D01*
X20405200Y7045309D01*
X20333771Y6902452D01*
X20333771Y6616738D01*
X20405200Y6473880D01*
X21333771Y5831023D02*
X19833771Y5831023D01*
X20762342Y5688166D02*
X21333771Y5259595D01*
X20333771Y5259595D02*
X20905200Y5831023D01*
D11*
%TO.C,J2*%
X25379160Y-23520D02*
X25379160Y2476480D01*
X27879160Y-23520D02*
X25379160Y-23520D01*
X27179160Y19496480D02*
X25679160Y19496480D01*
X27179160Y20496480D02*
X27179160Y19496480D01*
X27179160Y1276480D02*
X25679160Y1276480D01*
X27179160Y276480D02*
X27179160Y1276480D01*
X27989160Y19996480D02*
X27989160Y20496480D01*
X29199160Y19996480D02*
X27989160Y19996480D01*
X29199160Y776480D02*
X29199160Y19996480D01*
X27989160Y776480D02*
X29199160Y776480D01*
X27989160Y276480D02*
X27989160Y776480D01*
X29699160Y20496480D02*
X29699160Y276480D01*
X25679160Y20496480D02*
X29699160Y20496480D01*
X25679160Y276480D02*
X25679160Y20496480D01*
X29699160Y276480D02*
X25679160Y276480D01*
D12*
X24735299Y19459187D02*
X24021013Y19459187D01*
X23878156Y19411568D01*
X23782918Y19316330D01*
X23735299Y19173473D01*
X23735299Y19078235D01*
X24640060Y19887759D02*
X24687680Y19935378D01*
X24735299Y20030616D01*
X24735299Y20268711D01*
X24687680Y20363949D01*
X24640060Y20411568D01*
X24544822Y20459187D01*
X24449584Y20459187D01*
X24306727Y20411568D01*
X23735299Y19840140D01*
X23735299Y20459187D01*
%TD*%
M02*
