%TF.GenerationSoftware,KiCad,Pcbnew,5.1.6-c6e7f7d~87~ubuntu20.04.1*%
%TF.CreationDate,2022-04-29T16:14:20+02:00*%
%TF.ProjectId,i2c_display,6932635f-6469-4737-906c-61792e6b6963,rev?*%
%TF.SameCoordinates,PXa03a458PY706ce10*%
%TF.FileFunction,Copper,L2,Bot*%
%TF.FilePolarity,Positive*%
%FSLAX46Y46*%
G04 Gerber Fmt 4.6, Leading zero omitted, Abs format (unit mm)*
G04 Created by KiCad (PCBNEW 5.1.6-c6e7f7d~87~ubuntu20.04.1) date 2022-04-29 16:14:20*
%MOMM*%
%LPD*%
G01*
G04 APERTURE LIST*
%TA.AperFunction,ComponentPad*%
%ADD10R,1.700000X1.700000*%
%TD*%
%TA.AperFunction,ComponentPad*%
%ADD11O,1.700000X1.700000*%
%TD*%
%TA.AperFunction,ComponentPad*%
%ADD12O,1.950000X1.700000*%
%TD*%
%TA.AperFunction,Conductor*%
%ADD13C,0.254000*%
%TD*%
G04 APERTURE END LIST*
D10*
%TO.P,J1,1*%
%TO.N,1*%
X1989160Y2886480D03*
D11*
%TO.P,J1,2*%
%TO.N,2*%
X1989160Y5426480D03*
%TO.P,J1,3*%
%TO.N,3*%
X1989160Y7966480D03*
%TO.P,J1,4*%
%TO.N,4*%
X1989160Y10506480D03*
%TO.P,J1,5*%
%TO.N,5*%
X1989160Y13046480D03*
%TO.P,J1,6*%
%TO.N,6*%
X1989160Y15586480D03*
%TO.P,J1,7*%
%TO.N,7*%
X1989160Y18126480D03*
%TD*%
%TO.P,J2,1*%
%TO.N,1*%
%TA.AperFunction,ComponentPad*%
G36*
G01*
X28714160Y2036480D02*
X27264160Y2036480D01*
G75*
G02*
X27014160Y2286480I0J250000D01*
G01*
X27014160Y3486480D01*
G75*
G02*
X27264160Y3736480I250000J0D01*
G01*
X28714160Y3736480D01*
G75*
G02*
X28964160Y3486480I0J-250000D01*
G01*
X28964160Y2286480D01*
G75*
G02*
X28714160Y2036480I-250000J0D01*
G01*
G37*
%TD.AperFunction*%
D12*
%TO.P,J2,2*%
%TO.N,2*%
X27989160Y5386480D03*
%TO.P,J2,3*%
%TO.N,3*%
X27989160Y7886480D03*
%TO.P,J2,4*%
%TO.N,4*%
X27989160Y10386480D03*
%TO.P,J2,5*%
%TO.N,5*%
X27989160Y12886480D03*
%TO.P,J2,6*%
%TO.N,6*%
X27989160Y15386480D03*
%TO.P,J2,7*%
%TO.N,7*%
X27989160Y17886480D03*
%TD*%
D13*
%TO.N,1*%
G36*
X29329160Y18746817D02*
G01*
X29169294Y18941614D01*
X28943174Y19127186D01*
X28685194Y19265079D01*
X28405271Y19349993D01*
X28187110Y19371480D01*
X27791210Y19371480D01*
X27573049Y19349993D01*
X27293126Y19265079D01*
X27035146Y19127186D01*
X26809026Y18941614D01*
X26623454Y18715494D01*
X26485561Y18457514D01*
X26400647Y18177591D01*
X26371975Y17886480D01*
X26400647Y17595369D01*
X26485561Y17315446D01*
X26623454Y17057466D01*
X26809026Y16831346D01*
X27035146Y16645774D01*
X27052534Y16636480D01*
X27035146Y16627186D01*
X26809026Y16441614D01*
X26623454Y16215494D01*
X26485561Y15957514D01*
X26400647Y15677591D01*
X26371975Y15386480D01*
X26400647Y15095369D01*
X26485561Y14815446D01*
X26623454Y14557466D01*
X26809026Y14331346D01*
X27035146Y14145774D01*
X27052534Y14136480D01*
X27035146Y14127186D01*
X26809026Y13941614D01*
X26623454Y13715494D01*
X26485561Y13457514D01*
X26400647Y13177591D01*
X26371975Y12886480D01*
X26400647Y12595369D01*
X26485561Y12315446D01*
X26623454Y12057466D01*
X26809026Y11831346D01*
X27035146Y11645774D01*
X27052534Y11636480D01*
X27035146Y11627186D01*
X26809026Y11441614D01*
X26623454Y11215494D01*
X26485561Y10957514D01*
X26400647Y10677591D01*
X26371975Y10386480D01*
X26400647Y10095369D01*
X26485561Y9815446D01*
X26623454Y9557466D01*
X26809026Y9331346D01*
X27035146Y9145774D01*
X27052534Y9136480D01*
X27035146Y9127186D01*
X26809026Y8941614D01*
X26623454Y8715494D01*
X26485561Y8457514D01*
X26400647Y8177591D01*
X26371975Y7886480D01*
X26400647Y7595369D01*
X26485561Y7315446D01*
X26623454Y7057466D01*
X26809026Y6831346D01*
X27035146Y6645774D01*
X27052534Y6636480D01*
X27035146Y6627186D01*
X26809026Y6441614D01*
X26623454Y6215494D01*
X26485561Y5957514D01*
X26400647Y5677591D01*
X26371975Y5386480D01*
X26400647Y5095369D01*
X26485561Y4815446D01*
X26623454Y4557466D01*
X26804768Y4336535D01*
X26769980Y4325982D01*
X26659666Y4267017D01*
X26562975Y4187665D01*
X26483623Y4090974D01*
X26424658Y3980660D01*
X26388348Y3860962D01*
X26376088Y3736480D01*
X26379160Y3172230D01*
X26537910Y3013480D01*
X27862160Y3013480D01*
X27862160Y3033480D01*
X28116160Y3033480D01*
X28116160Y3013480D01*
X28136160Y3013480D01*
X28136160Y2759480D01*
X28116160Y2759480D01*
X28116160Y1560230D01*
X28274910Y1401480D01*
X28964160Y1398408D01*
X29088642Y1410668D01*
X29208340Y1446978D01*
X29318654Y1505943D01*
X29329161Y1514566D01*
X29329161Y546480D01*
X649160Y546480D01*
X649160Y1632591D01*
X687975Y1585295D01*
X784666Y1505943D01*
X894980Y1446978D01*
X1014678Y1410668D01*
X1139160Y1398408D01*
X1703410Y1401480D01*
X1862160Y1560230D01*
X1862160Y2759480D01*
X2116160Y2759480D01*
X2116160Y1560230D01*
X2274910Y1401480D01*
X2839160Y1398408D01*
X2963642Y1410668D01*
X3083340Y1446978D01*
X3193654Y1505943D01*
X3290345Y1585295D01*
X3369697Y1681986D01*
X3428662Y1792300D01*
X3464972Y1911998D01*
X3477232Y2036480D01*
X26376088Y2036480D01*
X26388348Y1911998D01*
X26424658Y1792300D01*
X26483623Y1681986D01*
X26562975Y1585295D01*
X26659666Y1505943D01*
X26769980Y1446978D01*
X26889678Y1410668D01*
X27014160Y1398408D01*
X27703410Y1401480D01*
X27862160Y1560230D01*
X27862160Y2759480D01*
X26537910Y2759480D01*
X26379160Y2600730D01*
X26376088Y2036480D01*
X3477232Y2036480D01*
X3474160Y2600730D01*
X3315410Y2759480D01*
X2116160Y2759480D01*
X1862160Y2759480D01*
X1842160Y2759480D01*
X1842160Y3013480D01*
X1862160Y3013480D01*
X1862160Y3033480D01*
X2116160Y3033480D01*
X2116160Y3013480D01*
X3315410Y3013480D01*
X3474160Y3172230D01*
X3477232Y3736480D01*
X3464972Y3860962D01*
X3428662Y3980660D01*
X3369697Y4090974D01*
X3290345Y4187665D01*
X3193654Y4267017D01*
X3083340Y4325982D01*
X3010780Y4347993D01*
X3142635Y4479848D01*
X3305150Y4723069D01*
X3417092Y4993322D01*
X3474160Y5280220D01*
X3474160Y5572740D01*
X3456851Y5659761D01*
X8720620Y5659761D01*
X8720620Y5193199D01*
X8811642Y4735602D01*
X8990187Y4304556D01*
X9249395Y3916624D01*
X9579304Y3586715D01*
X9967236Y3327507D01*
X10398282Y3148962D01*
X10855879Y3057940D01*
X11322441Y3057940D01*
X11780038Y3148962D01*
X12211084Y3327507D01*
X12599016Y3586715D01*
X12928925Y3916624D01*
X13188133Y4304556D01*
X13366678Y4735602D01*
X13457700Y5193199D01*
X13457700Y5659761D01*
X13366678Y6117358D01*
X13188133Y6548404D01*
X12928925Y6936336D01*
X12599016Y7266245D01*
X12211084Y7525453D01*
X11780038Y7703998D01*
X11322441Y7795020D01*
X10855879Y7795020D01*
X10398282Y7703998D01*
X9967236Y7525453D01*
X9579304Y7266245D01*
X9249395Y6936336D01*
X8990187Y6548404D01*
X8811642Y6117358D01*
X8720620Y5659761D01*
X3456851Y5659761D01*
X3417092Y5859638D01*
X3305150Y6129891D01*
X3142635Y6373112D01*
X2935792Y6579955D01*
X2761400Y6696480D01*
X2935792Y6813005D01*
X3142635Y7019848D01*
X3305150Y7263069D01*
X3417092Y7533322D01*
X3474160Y7820220D01*
X3474160Y8112740D01*
X3417092Y8399638D01*
X3305150Y8669891D01*
X3142635Y8913112D01*
X2935792Y9119955D01*
X2761400Y9236480D01*
X2935792Y9353005D01*
X3142635Y9559848D01*
X3305150Y9803069D01*
X3417092Y10073322D01*
X3474160Y10360220D01*
X3474160Y10652740D01*
X3417092Y10939638D01*
X3305150Y11209891D01*
X3142635Y11453112D01*
X2935792Y11659955D01*
X2761400Y11776480D01*
X2935792Y11893005D01*
X3142635Y12099848D01*
X3305150Y12343069D01*
X3417092Y12613322D01*
X3474160Y12900220D01*
X3474160Y13192740D01*
X3417092Y13479638D01*
X3305150Y13749891D01*
X3142635Y13993112D01*
X2935792Y14199955D01*
X2761400Y14316480D01*
X2935792Y14433005D01*
X3142635Y14639848D01*
X3305150Y14883069D01*
X3417092Y15153322D01*
X3474160Y15440220D01*
X3474160Y15732740D01*
X3456851Y15819761D01*
X8720620Y15819761D01*
X8720620Y15353199D01*
X8811642Y14895602D01*
X8990187Y14464556D01*
X9249395Y14076624D01*
X9579304Y13746715D01*
X9967236Y13487507D01*
X10398282Y13308962D01*
X10855879Y13217940D01*
X11322441Y13217940D01*
X11780038Y13308962D01*
X12211084Y13487507D01*
X12599016Y13746715D01*
X12928925Y14076624D01*
X13188133Y14464556D01*
X13366678Y14895602D01*
X13457700Y15353199D01*
X13457700Y15819761D01*
X13366678Y16277358D01*
X13188133Y16708404D01*
X12928925Y17096336D01*
X12599016Y17426245D01*
X12211084Y17685453D01*
X11780038Y17863998D01*
X11322441Y17955020D01*
X10855879Y17955020D01*
X10398282Y17863998D01*
X9967236Y17685453D01*
X9579304Y17426245D01*
X9249395Y17096336D01*
X8990187Y16708404D01*
X8811642Y16277358D01*
X8720620Y15819761D01*
X3456851Y15819761D01*
X3417092Y16019638D01*
X3305150Y16289891D01*
X3142635Y16533112D01*
X2935792Y16739955D01*
X2761400Y16856480D01*
X2935792Y16973005D01*
X3142635Y17179848D01*
X3305150Y17423069D01*
X3417092Y17693322D01*
X3474160Y17980220D01*
X3474160Y18272740D01*
X3417092Y18559638D01*
X3305150Y18829891D01*
X3142635Y19073112D01*
X2935792Y19279955D01*
X2692571Y19442470D01*
X2422318Y19554412D01*
X2135420Y19611480D01*
X1842900Y19611480D01*
X1556002Y19554412D01*
X1285749Y19442470D01*
X1042528Y19279955D01*
X835685Y19073112D01*
X673170Y18829891D01*
X649160Y18771925D01*
X649160Y20526480D01*
X29329160Y20526480D01*
X29329160Y18746817D01*
G37*
X29329160Y18746817D02*
X29169294Y18941614D01*
X28943174Y19127186D01*
X28685194Y19265079D01*
X28405271Y19349993D01*
X28187110Y19371480D01*
X27791210Y19371480D01*
X27573049Y19349993D01*
X27293126Y19265079D01*
X27035146Y19127186D01*
X26809026Y18941614D01*
X26623454Y18715494D01*
X26485561Y18457514D01*
X26400647Y18177591D01*
X26371975Y17886480D01*
X26400647Y17595369D01*
X26485561Y17315446D01*
X26623454Y17057466D01*
X26809026Y16831346D01*
X27035146Y16645774D01*
X27052534Y16636480D01*
X27035146Y16627186D01*
X26809026Y16441614D01*
X26623454Y16215494D01*
X26485561Y15957514D01*
X26400647Y15677591D01*
X26371975Y15386480D01*
X26400647Y15095369D01*
X26485561Y14815446D01*
X26623454Y14557466D01*
X26809026Y14331346D01*
X27035146Y14145774D01*
X27052534Y14136480D01*
X27035146Y14127186D01*
X26809026Y13941614D01*
X26623454Y13715494D01*
X26485561Y13457514D01*
X26400647Y13177591D01*
X26371975Y12886480D01*
X26400647Y12595369D01*
X26485561Y12315446D01*
X26623454Y12057466D01*
X26809026Y11831346D01*
X27035146Y11645774D01*
X27052534Y11636480D01*
X27035146Y11627186D01*
X26809026Y11441614D01*
X26623454Y11215494D01*
X26485561Y10957514D01*
X26400647Y10677591D01*
X26371975Y10386480D01*
X26400647Y10095369D01*
X26485561Y9815446D01*
X26623454Y9557466D01*
X26809026Y9331346D01*
X27035146Y9145774D01*
X27052534Y9136480D01*
X27035146Y9127186D01*
X26809026Y8941614D01*
X26623454Y8715494D01*
X26485561Y8457514D01*
X26400647Y8177591D01*
X26371975Y7886480D01*
X26400647Y7595369D01*
X26485561Y7315446D01*
X26623454Y7057466D01*
X26809026Y6831346D01*
X27035146Y6645774D01*
X27052534Y6636480D01*
X27035146Y6627186D01*
X26809026Y6441614D01*
X26623454Y6215494D01*
X26485561Y5957514D01*
X26400647Y5677591D01*
X26371975Y5386480D01*
X26400647Y5095369D01*
X26485561Y4815446D01*
X26623454Y4557466D01*
X26804768Y4336535D01*
X26769980Y4325982D01*
X26659666Y4267017D01*
X26562975Y4187665D01*
X26483623Y4090974D01*
X26424658Y3980660D01*
X26388348Y3860962D01*
X26376088Y3736480D01*
X26379160Y3172230D01*
X26537910Y3013480D01*
X27862160Y3013480D01*
X27862160Y3033480D01*
X28116160Y3033480D01*
X28116160Y3013480D01*
X28136160Y3013480D01*
X28136160Y2759480D01*
X28116160Y2759480D01*
X28116160Y1560230D01*
X28274910Y1401480D01*
X28964160Y1398408D01*
X29088642Y1410668D01*
X29208340Y1446978D01*
X29318654Y1505943D01*
X29329161Y1514566D01*
X29329161Y546480D01*
X649160Y546480D01*
X649160Y1632591D01*
X687975Y1585295D01*
X784666Y1505943D01*
X894980Y1446978D01*
X1014678Y1410668D01*
X1139160Y1398408D01*
X1703410Y1401480D01*
X1862160Y1560230D01*
X1862160Y2759480D01*
X2116160Y2759480D01*
X2116160Y1560230D01*
X2274910Y1401480D01*
X2839160Y1398408D01*
X2963642Y1410668D01*
X3083340Y1446978D01*
X3193654Y1505943D01*
X3290345Y1585295D01*
X3369697Y1681986D01*
X3428662Y1792300D01*
X3464972Y1911998D01*
X3477232Y2036480D01*
X26376088Y2036480D01*
X26388348Y1911998D01*
X26424658Y1792300D01*
X26483623Y1681986D01*
X26562975Y1585295D01*
X26659666Y1505943D01*
X26769980Y1446978D01*
X26889678Y1410668D01*
X27014160Y1398408D01*
X27703410Y1401480D01*
X27862160Y1560230D01*
X27862160Y2759480D01*
X26537910Y2759480D01*
X26379160Y2600730D01*
X26376088Y2036480D01*
X3477232Y2036480D01*
X3474160Y2600730D01*
X3315410Y2759480D01*
X2116160Y2759480D01*
X1862160Y2759480D01*
X1842160Y2759480D01*
X1842160Y3013480D01*
X1862160Y3013480D01*
X1862160Y3033480D01*
X2116160Y3033480D01*
X2116160Y3013480D01*
X3315410Y3013480D01*
X3474160Y3172230D01*
X3477232Y3736480D01*
X3464972Y3860962D01*
X3428662Y3980660D01*
X3369697Y4090974D01*
X3290345Y4187665D01*
X3193654Y4267017D01*
X3083340Y4325982D01*
X3010780Y4347993D01*
X3142635Y4479848D01*
X3305150Y4723069D01*
X3417092Y4993322D01*
X3474160Y5280220D01*
X3474160Y5572740D01*
X3456851Y5659761D01*
X8720620Y5659761D01*
X8720620Y5193199D01*
X8811642Y4735602D01*
X8990187Y4304556D01*
X9249395Y3916624D01*
X9579304Y3586715D01*
X9967236Y3327507D01*
X10398282Y3148962D01*
X10855879Y3057940D01*
X11322441Y3057940D01*
X11780038Y3148962D01*
X12211084Y3327507D01*
X12599016Y3586715D01*
X12928925Y3916624D01*
X13188133Y4304556D01*
X13366678Y4735602D01*
X13457700Y5193199D01*
X13457700Y5659761D01*
X13366678Y6117358D01*
X13188133Y6548404D01*
X12928925Y6936336D01*
X12599016Y7266245D01*
X12211084Y7525453D01*
X11780038Y7703998D01*
X11322441Y7795020D01*
X10855879Y7795020D01*
X10398282Y7703998D01*
X9967236Y7525453D01*
X9579304Y7266245D01*
X9249395Y6936336D01*
X8990187Y6548404D01*
X8811642Y6117358D01*
X8720620Y5659761D01*
X3456851Y5659761D01*
X3417092Y5859638D01*
X3305150Y6129891D01*
X3142635Y6373112D01*
X2935792Y6579955D01*
X2761400Y6696480D01*
X2935792Y6813005D01*
X3142635Y7019848D01*
X3305150Y7263069D01*
X3417092Y7533322D01*
X3474160Y7820220D01*
X3474160Y8112740D01*
X3417092Y8399638D01*
X3305150Y8669891D01*
X3142635Y8913112D01*
X2935792Y9119955D01*
X2761400Y9236480D01*
X2935792Y9353005D01*
X3142635Y9559848D01*
X3305150Y9803069D01*
X3417092Y10073322D01*
X3474160Y10360220D01*
X3474160Y10652740D01*
X3417092Y10939638D01*
X3305150Y11209891D01*
X3142635Y11453112D01*
X2935792Y11659955D01*
X2761400Y11776480D01*
X2935792Y11893005D01*
X3142635Y12099848D01*
X3305150Y12343069D01*
X3417092Y12613322D01*
X3474160Y12900220D01*
X3474160Y13192740D01*
X3417092Y13479638D01*
X3305150Y13749891D01*
X3142635Y13993112D01*
X2935792Y14199955D01*
X2761400Y14316480D01*
X2935792Y14433005D01*
X3142635Y14639848D01*
X3305150Y14883069D01*
X3417092Y15153322D01*
X3474160Y15440220D01*
X3474160Y15732740D01*
X3456851Y15819761D01*
X8720620Y15819761D01*
X8720620Y15353199D01*
X8811642Y14895602D01*
X8990187Y14464556D01*
X9249395Y14076624D01*
X9579304Y13746715D01*
X9967236Y13487507D01*
X10398282Y13308962D01*
X10855879Y13217940D01*
X11322441Y13217940D01*
X11780038Y13308962D01*
X12211084Y13487507D01*
X12599016Y13746715D01*
X12928925Y14076624D01*
X13188133Y14464556D01*
X13366678Y14895602D01*
X13457700Y15353199D01*
X13457700Y15819761D01*
X13366678Y16277358D01*
X13188133Y16708404D01*
X12928925Y17096336D01*
X12599016Y17426245D01*
X12211084Y17685453D01*
X11780038Y17863998D01*
X11322441Y17955020D01*
X10855879Y17955020D01*
X10398282Y17863998D01*
X9967236Y17685453D01*
X9579304Y17426245D01*
X9249395Y17096336D01*
X8990187Y16708404D01*
X8811642Y16277358D01*
X8720620Y15819761D01*
X3456851Y15819761D01*
X3417092Y16019638D01*
X3305150Y16289891D01*
X3142635Y16533112D01*
X2935792Y16739955D01*
X2761400Y16856480D01*
X2935792Y16973005D01*
X3142635Y17179848D01*
X3305150Y17423069D01*
X3417092Y17693322D01*
X3474160Y17980220D01*
X3474160Y18272740D01*
X3417092Y18559638D01*
X3305150Y18829891D01*
X3142635Y19073112D01*
X2935792Y19279955D01*
X2692571Y19442470D01*
X2422318Y19554412D01*
X2135420Y19611480D01*
X1842900Y19611480D01*
X1556002Y19554412D01*
X1285749Y19442470D01*
X1042528Y19279955D01*
X835685Y19073112D01*
X673170Y18829891D01*
X649160Y18771925D01*
X649160Y20526480D01*
X29329160Y20526480D01*
X29329160Y18746817D01*
%TD*%
M02*
