M48
; DRILL file {KiCad 5.1.6-c6e7f7d~87~ubuntu20.04.1} date Thu May 26 15:44:52 2022
; FORMAT={-:-/ absolute / metric / decimal}
; #@! TF.CreationDate,2022-05-26T15:44:52+02:00
; #@! TF.GenerationSoftware,Kicad,Pcbnew,5.1.6-c6e7f7d~87~ubuntu20.04.1
; #@! TF.FileFunction,Plated,1,2,PTH
FMAT,2
METRIC
T1C0.500
T2C1.000
T3C2.000
%
G90
G05
T1
X36.08Y13.593
X36.1Y15.993
X36.1Y14.793
X36.1Y12.393
X36.1Y11.193
X36.1Y8.893
X36.1Y7.793
X36.1Y6.693
X36.1Y5.593
X36.1Y4.493
X36.1Y3.293
X36.1Y2.093
X36.106Y9.993
X37.887Y16.0
X37.887Y14.8
X37.887Y13.6
X37.887Y12.4
X37.887Y11.2
X37.887Y10.0
X37.887Y8.8
X37.887Y7.6
X37.887Y6.4
X37.887Y5.2
X37.887Y4.0
X37.887Y2.8
T2
X11.0Y1.732
X16.0Y1.732
X21.0Y1.732
T3
X4.0Y15.783
X4.0Y3.783
X26.0Y15.783
X26.0Y3.783
X31.29Y15.783
X31.29Y3.783
X42.71Y15.783
X42.79Y3.783
T0
M30
