%TF.GenerationSoftware,KiCad,Pcbnew,5.1.6-c6e7f7d~87~ubuntu20.04.1*%
%TF.CreationDate,2022-05-26T15:44:46+02:00*%
%TF.ProjectId,interface_down_left_side_arm,696e7465-7266-4616-9365-5f646f776e5f,rev?*%
%TF.SameCoordinates,PX5f5e038PY7086ec8*%
%TF.FileFunction,Soldermask,Top*%
%TF.FilePolarity,Negative*%
%FSLAX46Y46*%
G04 Gerber Fmt 4.6, Leading zero omitted, Abs format (unit mm)*
G04 Created by KiCad (PCBNEW 5.1.6-c6e7f7d~87~ubuntu20.04.1) date 2022-05-26 15:44:46*
%MOMM*%
%LPD*%
G01*
G04 APERTURE LIST*
%ADD10C,1.600000*%
%ADD11R,3.100000X0.900000*%
%ADD12C,2.100000*%
G04 APERTURE END LIST*
D10*
%TO.C,J2*%
X22240200Y5153160D03*
X19700200Y5153160D03*
X17160200Y5153160D03*
X14620200Y5153160D03*
X12080200Y5153160D03*
X9540200Y5153160D03*
X7000200Y5153160D03*
X22240200Y7693160D03*
X19700200Y7693160D03*
X17160200Y7693160D03*
X14620200Y7693160D03*
X12080200Y7693160D03*
X9540200Y7693160D03*
X7000200Y7693160D03*
%TD*%
%TO.C,J3*%
X7000200Y14693160D03*
X9540200Y14693160D03*
X12080200Y14693160D03*
X14620200Y14693160D03*
X17160200Y14693160D03*
X19700200Y14693160D03*
X22240200Y14693160D03*
X7000200Y12153160D03*
X9540200Y12153160D03*
X12080200Y12153160D03*
X14620200Y12153160D03*
X17160200Y12153160D03*
X19700200Y12153160D03*
X22240200Y12153160D03*
%TD*%
D11*
%TO.C,J4*%
X35100200Y14793160D03*
X35100200Y15993160D03*
X35100200Y12393160D03*
X35080200Y13593160D03*
X35100200Y11193160D03*
X35106000Y9993160D03*
X35100200Y6693160D03*
X35100200Y3293160D03*
X35100200Y5593160D03*
X35100200Y7793160D03*
X35100200Y4493160D03*
X35100200Y8893160D03*
X35100200Y2093160D03*
X38886540Y16000400D03*
X38886540Y14800400D03*
X38886540Y13600400D03*
X38886540Y12400400D03*
X38886540Y11200400D03*
X38886540Y10000400D03*
X38886540Y8800400D03*
X38886540Y7600400D03*
X38886540Y6400400D03*
X38886540Y5200400D03*
X38886540Y4000400D03*
X38886540Y2800400D03*
%TD*%
D12*
%TO.C,J1*%
X11000200Y1732280D03*
X16000200Y1732280D03*
X21000200Y1732280D03*
%TD*%
M02*
