%TF.GenerationSoftware,KiCad,Pcbnew,5.1.6-c6e7f7d~87~ubuntu20.04.1*%
%TF.CreationDate,2021-12-05T16:45:17+01:00*%
%TF.ProjectId,sb-cnc-shield,73622d63-6e63-42d7-9368-69656c642e6b,rev?*%
%TF.SameCoordinates,Original*%
%TF.FileFunction,Legend,Top*%
%TF.FilePolarity,Positive*%
%FSLAX46Y46*%
G04 Gerber Fmt 4.6, Leading zero omitted, Abs format (unit mm)*
G04 Created by KiCad (PCBNEW 5.1.6-c6e7f7d~87~ubuntu20.04.1) date 2021-12-05 16:45:17*
%MOMM*%
%LPD*%
G01*
G04 APERTURE LIST*
%ADD10C,0.175000*%
%ADD11C,0.200000*%
%ADD12C,0.300000*%
%ADD13C,0.250000*%
%ADD14C,0.120000*%
%ADD15C,0.150000*%
%ADD16C,0.125000*%
%ADD17C,1.700000*%
%ADD18O,3.500000X3.500000*%
%ADD19R,2.000000X1.905000*%
%ADD20O,2.000000X1.905000*%
%ADD21O,2.000000X1.700000*%
%ADD22C,1.610000*%
%ADD23C,2.250000*%
%ADD24C,1.510000*%
%ADD25R,1.300000X0.700000*%
%ADD26R,0.700000X1.300000*%
%ADD27R,3.500000X3.500000*%
%ADD28C,1.600000*%
%ADD29O,1.700000X2.000000*%
%ADD30R,1.700000X1.700000*%
%ADD31O,1.700000X1.700000*%
%ADD32C,1.524000*%
%ADD33C,1.800000*%
%ADD34R,1.800000X1.800000*%
G04 APERTURE END LIST*
D10*
X158973586Y-114229400D02*
X158906920Y-114196066D01*
X158806920Y-114196066D01*
X158706920Y-114229400D01*
X158640253Y-114296066D01*
X158606920Y-114362733D01*
X158573586Y-114496066D01*
X158573586Y-114596066D01*
X158606920Y-114729400D01*
X158640253Y-114796066D01*
X158706920Y-114862733D01*
X158806920Y-114896066D01*
X158873586Y-114896066D01*
X158973586Y-114862733D01*
X159006920Y-114829400D01*
X159006920Y-114596066D01*
X158873586Y-114596066D01*
X159306920Y-114896066D02*
X159306920Y-114196066D01*
X159706920Y-114896066D01*
X159706920Y-114196066D01*
X160040253Y-114896066D02*
X160040253Y-114196066D01*
X160206920Y-114196066D01*
X160306920Y-114229400D01*
X160373586Y-114296066D01*
X160406920Y-114362733D01*
X160440253Y-114496066D01*
X160440253Y-114596066D01*
X160406920Y-114729400D01*
X160373586Y-114796066D01*
X160306920Y-114862733D01*
X160206920Y-114896066D01*
X160040253Y-114896066D01*
X126554453Y-94631040D02*
X126787786Y-94631040D01*
X126887786Y-94997706D02*
X126554453Y-94997706D01*
X126554453Y-94297706D01*
X126887786Y-94297706D01*
X127187786Y-94997706D02*
X127187786Y-94297706D01*
X127587786Y-94997706D01*
X127587786Y-94297706D01*
X129409413Y-71852320D02*
X129642746Y-71852320D01*
X129742746Y-72218986D02*
X129409413Y-72218986D01*
X129409413Y-71518986D01*
X129742746Y-71518986D01*
X130042746Y-72218986D02*
X130042746Y-71518986D01*
X130442746Y-72218986D01*
X130442746Y-71518986D01*
X146148013Y-71852320D02*
X146381346Y-71852320D01*
X146481346Y-72218986D02*
X146148013Y-72218986D01*
X146148013Y-71518986D01*
X146481346Y-71518986D01*
X146781346Y-72218986D02*
X146781346Y-71518986D01*
X147181346Y-72218986D01*
X147181346Y-71518986D01*
D11*
X145983960Y-93355160D02*
X151698960Y-93355160D01*
X129143760Y-93278960D02*
X134985760Y-93278960D01*
D12*
X119239114Y-108768342D02*
X120381971Y-108768342D01*
X124524828Y-108768342D02*
X125667685Y-108768342D01*
X125096257Y-109339771D02*
X125096257Y-108196914D01*
D13*
X124249609Y-45105580D02*
X124249609Y-44105580D01*
X124487704Y-44105580D01*
X124630561Y-44153200D01*
X124725800Y-44248438D01*
X124773419Y-44343676D01*
X124821038Y-44534152D01*
X124821038Y-44677009D01*
X124773419Y-44867485D01*
X124725800Y-44962723D01*
X124630561Y-45057961D01*
X124487704Y-45105580D01*
X124249609Y-45105580D01*
X125678180Y-44438914D02*
X125678180Y-45105580D01*
X125249609Y-44438914D02*
X125249609Y-44962723D01*
X125297228Y-45057961D01*
X125392466Y-45105580D01*
X125535323Y-45105580D01*
X125630561Y-45057961D01*
X125678180Y-45010342D01*
X126154371Y-45105580D02*
X126154371Y-44438914D01*
X126154371Y-44105580D02*
X126106752Y-44153200D01*
X126154371Y-44200819D01*
X126201990Y-44153200D01*
X126154371Y-44105580D01*
X126154371Y-44200819D01*
X126630561Y-44438914D02*
X126630561Y-45105580D01*
X126630561Y-44534152D02*
X126678180Y-44486533D01*
X126773419Y-44438914D01*
X126916276Y-44438914D01*
X127011514Y-44486533D01*
X127059133Y-44581771D01*
X127059133Y-45105580D01*
X127678180Y-45105580D02*
X127582942Y-45057961D01*
X127535323Y-45010342D01*
X127487704Y-44915104D01*
X127487704Y-44629390D01*
X127535323Y-44534152D01*
X127582942Y-44486533D01*
X127678180Y-44438914D01*
X127821038Y-44438914D01*
X127916276Y-44486533D01*
X127963895Y-44534152D01*
X128011514Y-44629390D01*
X128011514Y-44915104D01*
X127963895Y-45010342D01*
X127916276Y-45057961D01*
X127821038Y-45105580D01*
X127678180Y-45105580D01*
X128440085Y-45105580D02*
X128440085Y-44105580D01*
X128821038Y-44105580D01*
X128916276Y-44153200D01*
X128963895Y-44200819D01*
X129011514Y-44296057D01*
X129011514Y-44438914D01*
X128963895Y-44534152D01*
X128916276Y-44581771D01*
X128821038Y-44629390D01*
X128440085Y-44629390D01*
X129440085Y-44438914D02*
X129440085Y-45105580D01*
X129440085Y-44534152D02*
X129487704Y-44486533D01*
X129582942Y-44438914D01*
X129725800Y-44438914D01*
X129821038Y-44486533D01*
X129868657Y-44581771D01*
X129868657Y-45105580D01*
X130344847Y-45105580D02*
X130344847Y-44105580D01*
X130725800Y-44105580D01*
X130821038Y-44153200D01*
X130868657Y-44200819D01*
X130916276Y-44296057D01*
X130916276Y-44438914D01*
X130868657Y-44534152D01*
X130821038Y-44581771D01*
X130725800Y-44629390D01*
X130344847Y-44629390D01*
X132011514Y-44438914D02*
X132249609Y-45105580D01*
X132487704Y-44438914D01*
X133392466Y-45105580D02*
X132821038Y-45105580D01*
X133106752Y-45105580D02*
X133106752Y-44105580D01*
X133011514Y-44248438D01*
X132916276Y-44343676D01*
X132821038Y-44391295D01*
X133821038Y-45010342D02*
X133868657Y-45057961D01*
X133821038Y-45105580D01*
X133773419Y-45057961D01*
X133821038Y-45010342D01*
X133821038Y-45105580D01*
X134487704Y-44105580D02*
X134582942Y-44105580D01*
X134678180Y-44153200D01*
X134725800Y-44200819D01*
X134773419Y-44296057D01*
X134821038Y-44486533D01*
X134821038Y-44724628D01*
X134773419Y-44915104D01*
X134725800Y-45010342D01*
X134678180Y-45057961D01*
X134582942Y-45105580D01*
X134487704Y-45105580D01*
X134392466Y-45057961D01*
X134344847Y-45010342D01*
X134297228Y-44915104D01*
X134249609Y-44724628D01*
X134249609Y-44486533D01*
X134297228Y-44296057D01*
X134344847Y-44200819D01*
X134392466Y-44153200D01*
X134487704Y-44105580D01*
X135249609Y-45010342D02*
X135297228Y-45057961D01*
X135249609Y-45105580D01*
X135201990Y-45057961D01*
X135249609Y-45010342D01*
X135249609Y-45105580D01*
X136249609Y-45105580D02*
X135678180Y-45105580D01*
X135963895Y-45105580D02*
X135963895Y-44105580D01*
X135868657Y-44248438D01*
X135773419Y-44343676D01*
X135678180Y-44391295D01*
D14*
%TO.C,conn26_0*%
X173453000Y-73790000D02*
X182573000Y-73790000D01*
X182573000Y-73790000D02*
X182573000Y-114690000D01*
X182573000Y-114690000D02*
X173453000Y-114690000D01*
X173453000Y-114690000D02*
X173453000Y-73790000D01*
X173453000Y-92190000D02*
X174763000Y-92190000D01*
X174763000Y-92190000D02*
X174763000Y-75090000D01*
X174763000Y-75090000D02*
X181263000Y-75090000D01*
X181263000Y-75090000D02*
X181263000Y-113390000D01*
X181263000Y-113390000D02*
X174763000Y-113390000D01*
X174763000Y-113390000D02*
X174763000Y-96290000D01*
X174763000Y-96290000D02*
X174763000Y-96290000D01*
X174763000Y-96290000D02*
X173453000Y-96290000D01*
%TO.C,conn26_1*%
X163050000Y-96290000D02*
X161740000Y-96290000D01*
X163050000Y-96290000D02*
X163050000Y-96290000D01*
X163050000Y-113390000D02*
X163050000Y-96290000D01*
X169550000Y-113390000D02*
X163050000Y-113390000D01*
X169550000Y-75090000D02*
X169550000Y-113390000D01*
X163050000Y-75090000D02*
X169550000Y-75090000D01*
X163050000Y-92190000D02*
X163050000Y-75090000D01*
X161740000Y-92190000D02*
X163050000Y-92190000D01*
X161740000Y-114690000D02*
X161740000Y-73790000D01*
X170860000Y-114690000D02*
X161740000Y-114690000D01*
X170860000Y-73790000D02*
X170860000Y-114690000D01*
X161740000Y-73790000D02*
X170860000Y-73790000D01*
%TO.C,Q0*%
X169690000Y-60847600D02*
X169690000Y-50607600D01*
X153800000Y-60847600D02*
X153800000Y-50607600D01*
X153800000Y-60847600D02*
X169690000Y-60847600D01*
X153800000Y-50607600D02*
X169690000Y-50607600D01*
X169690000Y-58267600D02*
X172230000Y-58267600D01*
X169690000Y-55727600D02*
X172230000Y-55727600D01*
X169690000Y-53187600D02*
X172230000Y-53187600D01*
%TO.C,pi_5V1*%
X116450000Y-51390000D02*
X118650000Y-51390000D01*
X118650000Y-51390000D02*
X118650000Y-52610000D01*
X118650000Y-52610000D02*
X110230000Y-52610000D01*
X110230000Y-52610000D02*
X110230000Y-44890000D01*
X110230000Y-44890000D02*
X118650000Y-44890000D01*
X118650000Y-44890000D02*
X118650000Y-46110000D01*
X118650000Y-46110000D02*
X116450000Y-46110000D01*
X111450000Y-52610000D02*
X111450000Y-51390000D01*
X111450000Y-51390000D02*
X116450000Y-51390000D01*
X116450000Y-51390000D02*
X116450000Y-52610000D01*
X111450000Y-44890000D02*
X111450000Y-46110000D01*
X111450000Y-46110000D02*
X116450000Y-46110000D01*
X116450000Y-46110000D02*
X116450000Y-44890000D01*
X115450000Y-51390000D02*
X115450000Y-46110000D01*
X115450000Y-50000000D02*
X115450000Y-50320000D01*
X115450000Y-50320000D02*
X112030000Y-50320000D01*
X112030000Y-50320000D02*
X111950000Y-50000000D01*
X111950000Y-50000000D02*
X112030000Y-49680000D01*
X112030000Y-49680000D02*
X115450000Y-49680000D01*
X115450000Y-49680000D02*
X115450000Y-50000000D01*
X116450000Y-48830000D02*
X116450000Y-48670000D01*
X115450000Y-47500000D02*
X115450000Y-47820000D01*
X115450000Y-47820000D02*
X112030000Y-47820000D01*
X112030000Y-47820000D02*
X111950000Y-47500000D01*
X111950000Y-47500000D02*
X112030000Y-47180000D01*
X112030000Y-47180000D02*
X115450000Y-47180000D01*
X115450000Y-47180000D02*
X115450000Y-47500000D01*
X118540000Y-50000000D02*
X119140000Y-50300000D01*
X119140000Y-50300000D02*
X119140000Y-49700000D01*
X119140000Y-49700000D02*
X118540000Y-50000000D01*
D15*
%TO.C,SW1*%
X119773000Y-85731000D02*
X123273000Y-85731000D01*
X119773000Y-90231000D02*
X123273000Y-90231000D01*
X121273000Y-90231000D02*
X121273000Y-89231000D01*
X121273000Y-89231000D02*
X120273000Y-88231000D01*
X121273000Y-87731000D02*
X121273000Y-85731000D01*
%TO.C,R1*%
X131698000Y-75464000D02*
X131698000Y-74264000D01*
X133448000Y-74264000D02*
X133448000Y-75464000D01*
%TO.C,R2*%
X148335000Y-75540200D02*
X148335000Y-74340200D01*
X150085000Y-74340200D02*
X150085000Y-75540200D01*
%TO.C,R3*%
X131698000Y-95784000D02*
X131698000Y-94584000D01*
X133448000Y-94584000D02*
X133448000Y-95784000D01*
%TO.C,R4*%
X148411000Y-95860200D02*
X148411000Y-94660200D01*
X150161000Y-94660200D02*
X150161000Y-95860200D01*
%TO.C,R5*%
X142205000Y-117766000D02*
X141005000Y-117766000D01*
X141005000Y-116016000D02*
X142205000Y-116016000D01*
D14*
%TO.C,P8*%
X123338000Y-106820000D02*
X123338000Y-109420000D01*
X108638000Y-106820000D02*
X123338000Y-106820000D01*
X123338000Y-116020000D02*
X121438000Y-116020000D01*
X123338000Y-113320000D02*
X123338000Y-116020000D01*
X108638000Y-116020000D02*
X108638000Y-106820000D01*
X117438000Y-116020000D02*
X108638000Y-116020000D01*
X122488000Y-106620000D02*
X123538000Y-106620000D01*
X123538000Y-107670000D02*
X123538000Y-106620000D01*
%TO.C,C1*%
X139576000Y-73980100D02*
G75*
G03*
X139576000Y-73980100I-2620000J0D01*
G01*
%TO.C,C2*%
X156609000Y-74051200D02*
G75*
G03*
X156609000Y-74051200I-2620000J0D01*
G01*
%TO.C,C3*%
X139672000Y-95778400D02*
G75*
G03*
X139672000Y-95778400I-2620000J0D01*
G01*
%TO.C,C4*%
X156253000Y-95778400D02*
G75*
G03*
X156253000Y-95778400I-2620000J0D01*
G01*
%TO.C,R6*%
X168753422Y-48639800D02*
X169270578Y-48639800D01*
X168753422Y-47219800D02*
X169270578Y-47219800D01*
%TO.C,R7*%
X164104422Y-47219800D02*
X164621578Y-47219800D01*
X164104422Y-48639800D02*
X164621578Y-48639800D01*
%TO.C,l_pwr1*%
X175480000Y-52394000D02*
X179500000Y-52394000D01*
X179500000Y-52394000D02*
X179500000Y-44674000D01*
X179500000Y-44674000D02*
X175480000Y-44674000D01*
X175480000Y-44674000D02*
X175480000Y-52394000D01*
X177190000Y-52394000D02*
X177190000Y-51894000D01*
X177190000Y-51894000D02*
X175980000Y-51894000D01*
X175980000Y-51894000D02*
X175980000Y-45174000D01*
X175980000Y-45174000D02*
X177190000Y-45174000D01*
X177190000Y-45174000D02*
X177190000Y-44674000D01*
X178000000Y-52394000D02*
X178000000Y-51394000D01*
X178000000Y-51394000D02*
X179500000Y-51394000D01*
X178000000Y-44674000D02*
X178000000Y-45674000D01*
X178000000Y-45674000D02*
X179500000Y-45674000D01*
X177300000Y-52694000D02*
X179800000Y-52694000D01*
X179800000Y-52694000D02*
X179800000Y-50194000D01*
%TO.C,Pump1*%
X171740000Y-66135400D02*
X174240000Y-66135400D01*
X171740000Y-63635400D02*
X171740000Y-66135400D01*
X178760000Y-64335400D02*
X178760000Y-65835400D01*
X179760000Y-64335400D02*
X178760000Y-64335400D01*
X173040000Y-64335400D02*
X173040000Y-65835400D01*
X172040000Y-64335400D02*
X173040000Y-64335400D01*
X179260000Y-63525400D02*
X179760000Y-63525400D01*
X179260000Y-62315400D02*
X179260000Y-63525400D01*
X172540000Y-62315400D02*
X179260000Y-62315400D01*
X172540000Y-63525400D02*
X172540000Y-62315400D01*
X172040000Y-63525400D02*
X172540000Y-63525400D01*
X179760000Y-61815400D02*
X172040000Y-61815400D01*
X179760000Y-65835400D02*
X179760000Y-61815400D01*
X172040000Y-65835400D02*
X179760000Y-65835400D01*
X172040000Y-61815400D02*
X172040000Y-65835400D01*
%TO.C,MSA1*%
X156890000Y-112973000D02*
X156890000Y-107773000D01*
X151750000Y-112973000D02*
X156890000Y-112973000D01*
X149150000Y-107773000D02*
X156890000Y-107773000D01*
X151750000Y-112973000D02*
X151750000Y-110373000D01*
X151750000Y-110373000D02*
X149150000Y-110373000D01*
X149150000Y-110373000D02*
X149150000Y-107773000D01*
X150480000Y-112973000D02*
X149150000Y-112973000D01*
X149150000Y-112973000D02*
X149150000Y-111643000D01*
%TO.C,MSY1*%
X157245000Y-92475400D02*
X157245000Y-87275400D01*
X152105000Y-92475400D02*
X157245000Y-92475400D01*
X149505000Y-87275400D02*
X157245000Y-87275400D01*
X152105000Y-92475400D02*
X152105000Y-89875400D01*
X152105000Y-89875400D02*
X149505000Y-89875400D01*
X149505000Y-89875400D02*
X149505000Y-87275400D01*
X150835000Y-92475400D02*
X149505000Y-92475400D01*
X149505000Y-92475400D02*
X149505000Y-91145400D01*
%TO.C,MSZ1*%
X132513000Y-112999000D02*
X132513000Y-111669000D01*
X133843000Y-112999000D02*
X132513000Y-112999000D01*
X132513000Y-110399000D02*
X132513000Y-107799000D01*
X135113000Y-110399000D02*
X132513000Y-110399000D01*
X135113000Y-112999000D02*
X135113000Y-110399000D01*
X132513000Y-107799000D02*
X140253000Y-107799000D01*
X135113000Y-112999000D02*
X140253000Y-112999000D01*
X140253000Y-112999000D02*
X140253000Y-107799000D01*
%TO.C,MSX1*%
X140355000Y-92475400D02*
X140355000Y-87275400D01*
X135215000Y-92475400D02*
X140355000Y-92475400D01*
X132615000Y-87275400D02*
X140355000Y-87275400D01*
X135215000Y-92475400D02*
X135215000Y-89875400D01*
X135215000Y-89875400D02*
X132615000Y-89875400D01*
X132615000Y-89875400D02*
X132615000Y-87275400D01*
X133945000Y-92475400D02*
X132615000Y-92475400D01*
X132615000Y-92475400D02*
X132615000Y-91145400D01*
%TO.C,Pled1*%
X111607000Y-77830000D02*
G75*
G02*
X111607000Y-74710000I0J1560000D01*
G01*
X115467000Y-74710000D02*
X111607000Y-74710000D01*
X115467000Y-77830000D02*
X111607000Y-77830000D01*
X115467000Y-74710000D02*
X115467000Y-77830000D01*
X115467000Y-78230000D02*
X114347000Y-78230000D01*
X114347000Y-78230000D02*
X114347000Y-77830000D01*
X114347000Y-77830000D02*
X115467000Y-77830000D01*
X115467000Y-77830000D02*
X115467000Y-78230000D01*
X115597000Y-75000000D02*
X115467000Y-75000000D01*
X115467000Y-75000000D02*
X115467000Y-75000000D01*
X115467000Y-75000000D02*
X115597000Y-75000000D01*
X115597000Y-75000000D02*
X115597000Y-75000000D01*
X115597000Y-77540000D02*
X115467000Y-77540000D01*
X115467000Y-77540000D02*
X115467000Y-77540000D01*
X115467000Y-77540000D02*
X115597000Y-77540000D01*
X115597000Y-77540000D02*
X115597000Y-77540000D01*
%TO.C,Vled1*%
X115186000Y-97540000D02*
X115186000Y-97540000D01*
X115056000Y-97540000D02*
X115186000Y-97540000D01*
X115056000Y-97540000D02*
X115056000Y-97540000D01*
X115186000Y-97540000D02*
X115056000Y-97540000D01*
X115186000Y-95000000D02*
X115186000Y-95000000D01*
X115056000Y-95000000D02*
X115186000Y-95000000D01*
X115056000Y-95000000D02*
X115056000Y-95000000D01*
X115186000Y-95000000D02*
X115056000Y-95000000D01*
X115056000Y-97830000D02*
X115056000Y-98230000D01*
X113936000Y-97830000D02*
X115056000Y-97830000D01*
X113936000Y-98230000D02*
X113936000Y-97830000D01*
X115056000Y-98230000D02*
X113936000Y-98230000D01*
X115056000Y-94710000D02*
X115056000Y-97830000D01*
X115056000Y-97830000D02*
X111196000Y-97830000D01*
X115056000Y-94710000D02*
X111196000Y-94710000D01*
X111196000Y-97830000D02*
G75*
G02*
X111196000Y-94710000I0J1560000D01*
G01*
%TO.C,ledA1*%
X111607000Y-72830000D02*
G75*
G02*
X111607000Y-69710000I0J1560000D01*
G01*
X115467000Y-69710000D02*
X111607000Y-69710000D01*
X115467000Y-72830000D02*
X111607000Y-72830000D01*
X115467000Y-69710000D02*
X115467000Y-72830000D01*
X115467000Y-73230000D02*
X114347000Y-73230000D01*
X114347000Y-73230000D02*
X114347000Y-72830000D01*
X114347000Y-72830000D02*
X115467000Y-72830000D01*
X115467000Y-72830000D02*
X115467000Y-73230000D01*
X115597000Y-70000000D02*
X115467000Y-70000000D01*
X115467000Y-70000000D02*
X115467000Y-70000000D01*
X115467000Y-70000000D02*
X115597000Y-70000000D01*
X115597000Y-70000000D02*
X115597000Y-70000000D01*
X115597000Y-72540000D02*
X115467000Y-72540000D01*
X115467000Y-72540000D02*
X115467000Y-72540000D01*
X115467000Y-72540000D02*
X115597000Y-72540000D01*
X115597000Y-72540000D02*
X115597000Y-72540000D01*
%TO.C,V_led1*%
X115211000Y-102540000D02*
X115211000Y-102540000D01*
X115081000Y-102540000D02*
X115211000Y-102540000D01*
X115081000Y-102540000D02*
X115081000Y-102540000D01*
X115211000Y-102540000D02*
X115081000Y-102540000D01*
X115211000Y-100000000D02*
X115211000Y-100000000D01*
X115081000Y-100000000D02*
X115211000Y-100000000D01*
X115081000Y-100000000D02*
X115081000Y-100000000D01*
X115211000Y-100000000D02*
X115081000Y-100000000D01*
X115081000Y-102830000D02*
X115081000Y-103230000D01*
X113961000Y-102830000D02*
X115081000Y-102830000D01*
X113961000Y-103230000D02*
X113961000Y-102830000D01*
X115081000Y-103230000D02*
X113961000Y-103230000D01*
X115081000Y-99710000D02*
X115081000Y-102830000D01*
X115081000Y-102830000D02*
X111221000Y-102830000D01*
X115081000Y-99710000D02*
X111221000Y-99710000D01*
X111221000Y-102830000D02*
G75*
G02*
X111221000Y-99710000I0J1560000D01*
G01*
%TO.C,Rp1*%
X154823422Y-64047400D02*
X155340578Y-64047400D01*
X154823422Y-62627400D02*
X155340578Y-62627400D01*
%TO.C,Rpwr1*%
X148503578Y-58804900D02*
X147986422Y-58804900D01*
X148503578Y-57384900D02*
X147986422Y-57384900D01*
%TO.C,Rpwr_1*%
X122305000Y-102438422D02*
X122305000Y-102955578D01*
X120885000Y-102438422D02*
X120885000Y-102955578D01*
%TO.C,RstpA1*%
X126537000Y-67754278D02*
X126537000Y-67237122D01*
X125117000Y-67754278D02*
X125117000Y-67237122D01*
%TO.C,ledX1*%
X111673000Y-57830000D02*
G75*
G02*
X111673000Y-54710000I0J1560000D01*
G01*
X115533000Y-54710000D02*
X111673000Y-54710000D01*
X115533000Y-57830000D02*
X111673000Y-57830000D01*
X115533000Y-54710000D02*
X115533000Y-57830000D01*
X115533000Y-58230000D02*
X114413000Y-58230000D01*
X114413000Y-58230000D02*
X114413000Y-57830000D01*
X114413000Y-57830000D02*
X115533000Y-57830000D01*
X115533000Y-57830000D02*
X115533000Y-58230000D01*
X115663000Y-55000000D02*
X115533000Y-55000000D01*
X115533000Y-55000000D02*
X115533000Y-55000000D01*
X115533000Y-55000000D02*
X115663000Y-55000000D01*
X115663000Y-55000000D02*
X115663000Y-55000000D01*
X115663000Y-57540000D02*
X115533000Y-57540000D01*
X115533000Y-57540000D02*
X115533000Y-57540000D01*
X115533000Y-57540000D02*
X115663000Y-57540000D01*
X115663000Y-57540000D02*
X115663000Y-57540000D01*
%TO.C,ledY1*%
X115597000Y-62540000D02*
X115597000Y-62540000D01*
X115467000Y-62540000D02*
X115597000Y-62540000D01*
X115467000Y-62540000D02*
X115467000Y-62540000D01*
X115597000Y-62540000D02*
X115467000Y-62540000D01*
X115597000Y-60000000D02*
X115597000Y-60000000D01*
X115467000Y-60000000D02*
X115597000Y-60000000D01*
X115467000Y-60000000D02*
X115467000Y-60000000D01*
X115597000Y-60000000D02*
X115467000Y-60000000D01*
X115467000Y-62830000D02*
X115467000Y-63230000D01*
X114347000Y-62830000D02*
X115467000Y-62830000D01*
X114347000Y-63230000D02*
X114347000Y-62830000D01*
X115467000Y-63230000D02*
X114347000Y-63230000D01*
X115467000Y-59710000D02*
X115467000Y-62830000D01*
X115467000Y-62830000D02*
X111607000Y-62830000D01*
X115467000Y-59710000D02*
X111607000Y-59710000D01*
X111607000Y-62830000D02*
G75*
G02*
X111607000Y-59710000I0J1560000D01*
G01*
%TO.C,ledZ1*%
X115597000Y-67540000D02*
X115597000Y-67540000D01*
X115467000Y-67540000D02*
X115597000Y-67540000D01*
X115467000Y-67540000D02*
X115467000Y-67540000D01*
X115597000Y-67540000D02*
X115467000Y-67540000D01*
X115597000Y-65000000D02*
X115597000Y-65000000D01*
X115467000Y-65000000D02*
X115597000Y-65000000D01*
X115467000Y-65000000D02*
X115467000Y-65000000D01*
X115597000Y-65000000D02*
X115467000Y-65000000D01*
X115467000Y-67830000D02*
X115467000Y-68230000D01*
X114347000Y-67830000D02*
X115467000Y-67830000D01*
X114347000Y-68230000D02*
X114347000Y-67830000D01*
X115467000Y-68230000D02*
X114347000Y-68230000D01*
X115467000Y-64710000D02*
X115467000Y-67830000D01*
X115467000Y-67830000D02*
X111607000Y-67830000D01*
X115467000Y-64710000D02*
X111607000Y-64710000D01*
X111607000Y-67830000D02*
G75*
G02*
X111607000Y-64710000I0J1560000D01*
G01*
%TO.C,RstpX1*%
X147901422Y-52370900D02*
X148418578Y-52370900D01*
X147901422Y-53790900D02*
X148418578Y-53790900D01*
%TO.C,RstpY1*%
X148442578Y-62627400D02*
X147925422Y-62627400D01*
X148442578Y-64047400D02*
X147925422Y-64047400D01*
%TO.C,RstpZ1*%
X126730000Y-73395378D02*
X126730000Y-72878222D01*
X125310000Y-73395378D02*
X125310000Y-72878222D01*
%TO.C,P10*%
X157012000Y-45269000D02*
X154512000Y-45269000D01*
X157012000Y-47769000D02*
X157012000Y-45269000D01*
X149992000Y-47069000D02*
X149992000Y-45569000D01*
X148992000Y-47069000D02*
X149992000Y-47069000D01*
X155712000Y-47069000D02*
X155712000Y-45569000D01*
X156712000Y-47069000D02*
X155712000Y-47069000D01*
X149492000Y-47879000D02*
X148992000Y-47879000D01*
X149492000Y-49089000D02*
X149492000Y-47879000D01*
X156212000Y-49089000D02*
X149492000Y-49089000D01*
X156212000Y-47879000D02*
X156212000Y-49089000D01*
X156712000Y-47879000D02*
X156212000Y-47879000D01*
X148992000Y-49589000D02*
X156712000Y-49589000D01*
X148992000Y-45569000D02*
X148992000Y-49589000D01*
X156712000Y-45569000D02*
X148992000Y-45569000D01*
X156712000Y-49589000D02*
X156712000Y-45569000D01*
%TO.C,conn26_0*%
D15*
X175084428Y-73304761D02*
X174989190Y-73352380D01*
X174798714Y-73352380D01*
X174703476Y-73304761D01*
X174655857Y-73257142D01*
X174608238Y-73161904D01*
X174608238Y-72876190D01*
X174655857Y-72780952D01*
X174703476Y-72733333D01*
X174798714Y-72685714D01*
X174989190Y-72685714D01*
X175084428Y-72733333D01*
X175655857Y-73352380D02*
X175560619Y-73304761D01*
X175513000Y-73257142D01*
X175465380Y-73161904D01*
X175465380Y-72876190D01*
X175513000Y-72780952D01*
X175560619Y-72733333D01*
X175655857Y-72685714D01*
X175798714Y-72685714D01*
X175893952Y-72733333D01*
X175941571Y-72780952D01*
X175989190Y-72876190D01*
X175989190Y-73161904D01*
X175941571Y-73257142D01*
X175893952Y-73304761D01*
X175798714Y-73352380D01*
X175655857Y-73352380D01*
X176417761Y-72685714D02*
X176417761Y-73352380D01*
X176417761Y-72780952D02*
X176465380Y-72733333D01*
X176560619Y-72685714D01*
X176703476Y-72685714D01*
X176798714Y-72733333D01*
X176846333Y-72828571D01*
X176846333Y-73352380D01*
X177322523Y-72685714D02*
X177322523Y-73352380D01*
X177322523Y-72780952D02*
X177370142Y-72733333D01*
X177465380Y-72685714D01*
X177608238Y-72685714D01*
X177703476Y-72733333D01*
X177751095Y-72828571D01*
X177751095Y-73352380D01*
X178179666Y-72447619D02*
X178227285Y-72400000D01*
X178322523Y-72352380D01*
X178560619Y-72352380D01*
X178655857Y-72400000D01*
X178703476Y-72447619D01*
X178751095Y-72542857D01*
X178751095Y-72638095D01*
X178703476Y-72780952D01*
X178132047Y-73352380D01*
X178751095Y-73352380D01*
X179608238Y-72352380D02*
X179417761Y-72352380D01*
X179322523Y-72400000D01*
X179274904Y-72447619D01*
X179179666Y-72590476D01*
X179132047Y-72780952D01*
X179132047Y-73161904D01*
X179179666Y-73257142D01*
X179227285Y-73304761D01*
X179322523Y-73352380D01*
X179513000Y-73352380D01*
X179608238Y-73304761D01*
X179655857Y-73257142D01*
X179703476Y-73161904D01*
X179703476Y-72923809D01*
X179655857Y-72828571D01*
X179608238Y-72780952D01*
X179513000Y-72733333D01*
X179322523Y-72733333D01*
X179227285Y-72780952D01*
X179179666Y-72828571D01*
X179132047Y-72923809D01*
X179893952Y-73447619D02*
X180655857Y-73447619D01*
X181084428Y-72352380D02*
X181179666Y-72352380D01*
X181274904Y-72400000D01*
X181322523Y-72447619D01*
X181370142Y-72542857D01*
X181417761Y-72733333D01*
X181417761Y-72971428D01*
X181370142Y-73161904D01*
X181322523Y-73257142D01*
X181274904Y-73304761D01*
X181179666Y-73352380D01*
X181084428Y-73352380D01*
X180989190Y-73304761D01*
X180941571Y-73257142D01*
X180893952Y-73161904D01*
X180846333Y-72971428D01*
X180846333Y-72733333D01*
X180893952Y-72542857D01*
X180941571Y-72447619D01*
X180989190Y-72400000D01*
X181084428Y-72352380D01*
%TO.C,conn26_1*%
X163371428Y-73304761D02*
X163276190Y-73352380D01*
X163085714Y-73352380D01*
X162990476Y-73304761D01*
X162942857Y-73257142D01*
X162895238Y-73161904D01*
X162895238Y-72876190D01*
X162942857Y-72780952D01*
X162990476Y-72733333D01*
X163085714Y-72685714D01*
X163276190Y-72685714D01*
X163371428Y-72733333D01*
X163942857Y-73352380D02*
X163847619Y-73304761D01*
X163800000Y-73257142D01*
X163752380Y-73161904D01*
X163752380Y-72876190D01*
X163800000Y-72780952D01*
X163847619Y-72733333D01*
X163942857Y-72685714D01*
X164085714Y-72685714D01*
X164180952Y-72733333D01*
X164228571Y-72780952D01*
X164276190Y-72876190D01*
X164276190Y-73161904D01*
X164228571Y-73257142D01*
X164180952Y-73304761D01*
X164085714Y-73352380D01*
X163942857Y-73352380D01*
X164704761Y-72685714D02*
X164704761Y-73352380D01*
X164704761Y-72780952D02*
X164752380Y-72733333D01*
X164847619Y-72685714D01*
X164990476Y-72685714D01*
X165085714Y-72733333D01*
X165133333Y-72828571D01*
X165133333Y-73352380D01*
X165609523Y-72685714D02*
X165609523Y-73352380D01*
X165609523Y-72780952D02*
X165657142Y-72733333D01*
X165752380Y-72685714D01*
X165895238Y-72685714D01*
X165990476Y-72733333D01*
X166038095Y-72828571D01*
X166038095Y-73352380D01*
X166466666Y-72447619D02*
X166514285Y-72400000D01*
X166609523Y-72352380D01*
X166847619Y-72352380D01*
X166942857Y-72400000D01*
X166990476Y-72447619D01*
X167038095Y-72542857D01*
X167038095Y-72638095D01*
X166990476Y-72780952D01*
X166419047Y-73352380D01*
X167038095Y-73352380D01*
X167895238Y-72352380D02*
X167704761Y-72352380D01*
X167609523Y-72400000D01*
X167561904Y-72447619D01*
X167466666Y-72590476D01*
X167419047Y-72780952D01*
X167419047Y-73161904D01*
X167466666Y-73257142D01*
X167514285Y-73304761D01*
X167609523Y-73352380D01*
X167800000Y-73352380D01*
X167895238Y-73304761D01*
X167942857Y-73257142D01*
X167990476Y-73161904D01*
X167990476Y-72923809D01*
X167942857Y-72828571D01*
X167895238Y-72780952D01*
X167800000Y-72733333D01*
X167609523Y-72733333D01*
X167514285Y-72780952D01*
X167466666Y-72828571D01*
X167419047Y-72923809D01*
X168180952Y-73447619D02*
X168942857Y-73447619D01*
X169704761Y-73352380D02*
X169133333Y-73352380D01*
X169419047Y-73352380D02*
X169419047Y-72352380D01*
X169323809Y-72495238D01*
X169228571Y-72590476D01*
X169133333Y-72638095D01*
%TO.C,Q0*%
X153347619Y-55822838D02*
X153300000Y-55918076D01*
X153204761Y-56013314D01*
X153061904Y-56156171D01*
X153014285Y-56251409D01*
X153014285Y-56346647D01*
X153252380Y-56299028D02*
X153204761Y-56394266D01*
X153109523Y-56489504D01*
X152919047Y-56537123D01*
X152585714Y-56537123D01*
X152395238Y-56489504D01*
X152300000Y-56394266D01*
X152252380Y-56299028D01*
X152252380Y-56108552D01*
X152300000Y-56013314D01*
X152395238Y-55918076D01*
X152585714Y-55870457D01*
X152919047Y-55870457D01*
X153109523Y-55918076D01*
X153204761Y-56013314D01*
X153252380Y-56108552D01*
X153252380Y-56299028D01*
X152252380Y-55251409D02*
X152252380Y-55156171D01*
X152300000Y-55060933D01*
X152347619Y-55013314D01*
X152442857Y-54965695D01*
X152633333Y-54918076D01*
X152871428Y-54918076D01*
X153061904Y-54965695D01*
X153157142Y-55013314D01*
X153204761Y-55060933D01*
X153252380Y-55156171D01*
X153252380Y-55251409D01*
X153204761Y-55346647D01*
X153157142Y-55394266D01*
X153061904Y-55441885D01*
X152871428Y-55489504D01*
X152633333Y-55489504D01*
X152442857Y-55441885D01*
X152347619Y-55394266D01*
X152300000Y-55346647D01*
X152252380Y-55251409D01*
%TO.C,pi_5V1*%
X121146914Y-51523405D02*
X122146914Y-51523405D01*
X121194533Y-51523405D02*
X121146914Y-51428167D01*
X121146914Y-51237691D01*
X121194533Y-51142453D01*
X121242152Y-51094834D01*
X121337390Y-51047215D01*
X121623104Y-51047215D01*
X121718342Y-51094834D01*
X121765961Y-51142453D01*
X121813580Y-51237691D01*
X121813580Y-51428167D01*
X121765961Y-51523405D01*
X121813580Y-50618643D02*
X121146914Y-50618643D01*
X120813580Y-50618643D02*
X120861200Y-50666262D01*
X120908819Y-50618643D01*
X120861200Y-50571024D01*
X120813580Y-50618643D01*
X120908819Y-50618643D01*
X121908819Y-50380548D02*
X121908819Y-49618643D01*
X120813580Y-48904358D02*
X120813580Y-49380548D01*
X121289771Y-49428167D01*
X121242152Y-49380548D01*
X121194533Y-49285310D01*
X121194533Y-49047215D01*
X121242152Y-48951977D01*
X121289771Y-48904358D01*
X121385009Y-48856739D01*
X121623104Y-48856739D01*
X121718342Y-48904358D01*
X121765961Y-48951977D01*
X121813580Y-49047215D01*
X121813580Y-49285310D01*
X121765961Y-49380548D01*
X121718342Y-49428167D01*
X120813580Y-48571024D02*
X121813580Y-48237691D01*
X120813580Y-47904358D01*
X121813580Y-47047215D02*
X121813580Y-47618643D01*
X121813580Y-47332929D02*
X120813580Y-47332929D01*
X120956438Y-47428167D01*
X121051676Y-47523405D01*
X121099295Y-47618643D01*
%TO.C,SW1*%
X120186119Y-84396880D02*
X119852785Y-83920690D01*
X119614690Y-84396880D02*
X119614690Y-83396880D01*
X119995642Y-83396880D01*
X120090880Y-83444500D01*
X120138500Y-83492119D01*
X120186119Y-83587357D01*
X120186119Y-83730214D01*
X120138500Y-83825452D01*
X120090880Y-83873071D01*
X119995642Y-83920690D01*
X119614690Y-83920690D01*
X120614690Y-83873071D02*
X120948023Y-83873071D01*
X121090880Y-84396880D02*
X120614690Y-84396880D01*
X120614690Y-83396880D01*
X121090880Y-83396880D01*
X121471833Y-84349261D02*
X121614690Y-84396880D01*
X121852785Y-84396880D01*
X121948023Y-84349261D01*
X121995642Y-84301642D01*
X122043261Y-84206404D01*
X122043261Y-84111166D01*
X121995642Y-84015928D01*
X121948023Y-83968309D01*
X121852785Y-83920690D01*
X121662309Y-83873071D01*
X121567071Y-83825452D01*
X121519452Y-83777833D01*
X121471833Y-83682595D01*
X121471833Y-83587357D01*
X121519452Y-83492119D01*
X121567071Y-83444500D01*
X121662309Y-83396880D01*
X121900404Y-83396880D01*
X122043261Y-83444500D01*
X122471833Y-83873071D02*
X122805166Y-83873071D01*
X122948023Y-84396880D02*
X122471833Y-84396880D01*
X122471833Y-83396880D01*
X122948023Y-83396880D01*
X123233738Y-83396880D02*
X123805166Y-83396880D01*
X123519452Y-84396880D02*
X123519452Y-83396880D01*
%TO.C,R1*%
X133025380Y-77951666D02*
X132549190Y-78285000D01*
X133025380Y-78523095D02*
X132025380Y-78523095D01*
X132025380Y-78142142D01*
X132073000Y-78046904D01*
X132120619Y-77999285D01*
X132215857Y-77951666D01*
X132358714Y-77951666D01*
X132453952Y-77999285D01*
X132501571Y-78046904D01*
X132549190Y-78142142D01*
X132549190Y-78523095D01*
X133025380Y-76999285D02*
X133025380Y-77570714D01*
X133025380Y-77285000D02*
X132025380Y-77285000D01*
X132168238Y-77380238D01*
X132263476Y-77475476D01*
X132311095Y-77570714D01*
%TO.C,R2*%
X149789380Y-78154866D02*
X149313190Y-78488200D01*
X149789380Y-78726295D02*
X148789380Y-78726295D01*
X148789380Y-78345342D01*
X148837000Y-78250104D01*
X148884619Y-78202485D01*
X148979857Y-78154866D01*
X149122714Y-78154866D01*
X149217952Y-78202485D01*
X149265571Y-78250104D01*
X149313190Y-78345342D01*
X149313190Y-78726295D01*
X148884619Y-77773914D02*
X148837000Y-77726295D01*
X148789380Y-77631057D01*
X148789380Y-77392961D01*
X148837000Y-77297723D01*
X148884619Y-77250104D01*
X148979857Y-77202485D01*
X149075095Y-77202485D01*
X149217952Y-77250104D01*
X149789380Y-77821533D01*
X149789380Y-77202485D01*
%TO.C,R3*%
X133152380Y-98398666D02*
X132676190Y-98732000D01*
X133152380Y-98970095D02*
X132152380Y-98970095D01*
X132152380Y-98589142D01*
X132200000Y-98493904D01*
X132247619Y-98446285D01*
X132342857Y-98398666D01*
X132485714Y-98398666D01*
X132580952Y-98446285D01*
X132628571Y-98493904D01*
X132676190Y-98589142D01*
X132676190Y-98970095D01*
X132152380Y-98065333D02*
X132152380Y-97446285D01*
X132533333Y-97779619D01*
X132533333Y-97636761D01*
X132580952Y-97541523D01*
X132628571Y-97493904D01*
X132723809Y-97446285D01*
X132961904Y-97446285D01*
X133057142Y-97493904D01*
X133104761Y-97541523D01*
X133152380Y-97636761D01*
X133152380Y-97922476D01*
X133104761Y-98017714D01*
X133057142Y-98065333D01*
%TO.C,R4*%
X149865380Y-98474866D02*
X149389190Y-98808200D01*
X149865380Y-99046295D02*
X148865380Y-99046295D01*
X148865380Y-98665342D01*
X148913000Y-98570104D01*
X148960619Y-98522485D01*
X149055857Y-98474866D01*
X149198714Y-98474866D01*
X149293952Y-98522485D01*
X149341571Y-98570104D01*
X149389190Y-98665342D01*
X149389190Y-99046295D01*
X149198714Y-97617723D02*
X149865380Y-97617723D01*
X148817761Y-97855819D02*
X149532047Y-98093914D01*
X149532047Y-97474866D01*
%TO.C,R5*%
X141438333Y-115501880D02*
X141105000Y-115025690D01*
X140866904Y-115501880D02*
X140866904Y-114501880D01*
X141247857Y-114501880D01*
X141343095Y-114549500D01*
X141390714Y-114597119D01*
X141438333Y-114692357D01*
X141438333Y-114835214D01*
X141390714Y-114930452D01*
X141343095Y-114978071D01*
X141247857Y-115025690D01*
X140866904Y-115025690D01*
X142343095Y-114501880D02*
X141866904Y-114501880D01*
X141819285Y-114978071D01*
X141866904Y-114930452D01*
X141962142Y-114882833D01*
X142200238Y-114882833D01*
X142295476Y-114930452D01*
X142343095Y-114978071D01*
X142390714Y-115073309D01*
X142390714Y-115311404D01*
X142343095Y-115406642D01*
X142295476Y-115454261D01*
X142200238Y-115501880D01*
X141962142Y-115501880D01*
X141866904Y-115454261D01*
X141819285Y-115406642D01*
X144533880Y-117581476D02*
X144533880Y-118152904D01*
X144533880Y-117867190D02*
X143533880Y-117867190D01*
X143676738Y-117962428D01*
X143771976Y-118057666D01*
X143819595Y-118152904D01*
X143533880Y-116962428D02*
X143533880Y-116867190D01*
X143581500Y-116771952D01*
X143629119Y-116724333D01*
X143724357Y-116676714D01*
X143914833Y-116629095D01*
X144152928Y-116629095D01*
X144343404Y-116676714D01*
X144438642Y-116724333D01*
X144486261Y-116771952D01*
X144533880Y-116867190D01*
X144533880Y-116962428D01*
X144486261Y-117057666D01*
X144438642Y-117105285D01*
X144343404Y-117152904D01*
X144152928Y-117200523D01*
X143914833Y-117200523D01*
X143724357Y-117152904D01*
X143629119Y-117105285D01*
X143581500Y-117057666D01*
X143533880Y-116962428D01*
X144533880Y-116200523D02*
X143533880Y-116200523D01*
X144533880Y-115629095D02*
X143962452Y-116057666D01*
X143533880Y-115629095D02*
X144105309Y-116200523D01*
%TO.C,P8*%
X113249904Y-117622380D02*
X113249904Y-116622380D01*
X113630857Y-116622380D01*
X113726095Y-116670000D01*
X113773714Y-116717619D01*
X113821333Y-116812857D01*
X113821333Y-116955714D01*
X113773714Y-117050952D01*
X113726095Y-117098571D01*
X113630857Y-117146190D01*
X113249904Y-117146190D01*
X114392761Y-117050952D02*
X114297523Y-117003333D01*
X114249904Y-116955714D01*
X114202285Y-116860476D01*
X114202285Y-116812857D01*
X114249904Y-116717619D01*
X114297523Y-116670000D01*
X114392761Y-116622380D01*
X114583238Y-116622380D01*
X114678476Y-116670000D01*
X114726095Y-116717619D01*
X114773714Y-116812857D01*
X114773714Y-116860476D01*
X114726095Y-116955714D01*
X114678476Y-117003333D01*
X114583238Y-117050952D01*
X114392761Y-117050952D01*
X114297523Y-117098571D01*
X114249904Y-117146190D01*
X114202285Y-117241428D01*
X114202285Y-117431904D01*
X114249904Y-117527142D01*
X114297523Y-117574761D01*
X114392761Y-117622380D01*
X114583238Y-117622380D01*
X114678476Y-117574761D01*
X114726095Y-117527142D01*
X114773714Y-117431904D01*
X114773714Y-117241428D01*
X114726095Y-117146190D01*
X114678476Y-117098571D01*
X114583238Y-117050952D01*
%TO.C,C1*%
X136780213Y-72620182D02*
X136732594Y-72667801D01*
X136589737Y-72715420D01*
X136494499Y-72715420D01*
X136351641Y-72667801D01*
X136256403Y-72572563D01*
X136208784Y-72477325D01*
X136161165Y-72286849D01*
X136161165Y-72143992D01*
X136208784Y-71953516D01*
X136256403Y-71858278D01*
X136351641Y-71763040D01*
X136494499Y-71715420D01*
X136589737Y-71715420D01*
X136732594Y-71763040D01*
X136780213Y-71810659D01*
X137732594Y-72715420D02*
X137161165Y-72715420D01*
X137446880Y-72715420D02*
X137446880Y-71715420D01*
X137351641Y-71858278D01*
X137256403Y-71953516D01*
X137161165Y-72001135D01*
%TO.C,C2*%
X153914653Y-72574462D02*
X153867034Y-72622081D01*
X153724177Y-72669700D01*
X153628939Y-72669700D01*
X153486081Y-72622081D01*
X153390843Y-72526843D01*
X153343224Y-72431605D01*
X153295605Y-72241129D01*
X153295605Y-72098272D01*
X153343224Y-71907796D01*
X153390843Y-71812558D01*
X153486081Y-71717320D01*
X153628939Y-71669700D01*
X153724177Y-71669700D01*
X153867034Y-71717320D01*
X153914653Y-71764939D01*
X154295605Y-71764939D02*
X154343224Y-71717320D01*
X154438462Y-71669700D01*
X154676558Y-71669700D01*
X154771796Y-71717320D01*
X154819415Y-71764939D01*
X154867034Y-71860177D01*
X154867034Y-71955415D01*
X154819415Y-72098272D01*
X154247986Y-72669700D01*
X154867034Y-72669700D01*
%TO.C,C3*%
X136912293Y-94245742D02*
X136864674Y-94293361D01*
X136721817Y-94340980D01*
X136626579Y-94340980D01*
X136483721Y-94293361D01*
X136388483Y-94198123D01*
X136340864Y-94102885D01*
X136293245Y-93912409D01*
X136293245Y-93769552D01*
X136340864Y-93579076D01*
X136388483Y-93483838D01*
X136483721Y-93388600D01*
X136626579Y-93340980D01*
X136721817Y-93340980D01*
X136864674Y-93388600D01*
X136912293Y-93436219D01*
X137245626Y-93340980D02*
X137864674Y-93340980D01*
X137531340Y-93721933D01*
X137674198Y-93721933D01*
X137769436Y-93769552D01*
X137817055Y-93817171D01*
X137864674Y-93912409D01*
X137864674Y-94150504D01*
X137817055Y-94245742D01*
X137769436Y-94293361D01*
X137674198Y-94340980D01*
X137388483Y-94340980D01*
X137293245Y-94293361D01*
X137245626Y-94245742D01*
%TO.C,C4*%
X153528573Y-94159382D02*
X153480954Y-94207001D01*
X153338097Y-94254620D01*
X153242859Y-94254620D01*
X153100001Y-94207001D01*
X153004763Y-94111763D01*
X152957144Y-94016525D01*
X152909525Y-93826049D01*
X152909525Y-93683192D01*
X152957144Y-93492716D01*
X153004763Y-93397478D01*
X153100001Y-93302240D01*
X153242859Y-93254620D01*
X153338097Y-93254620D01*
X153480954Y-93302240D01*
X153528573Y-93349859D01*
X154385716Y-93587954D02*
X154385716Y-94254620D01*
X154147620Y-93207001D02*
X153909525Y-93921287D01*
X154528573Y-93921287D01*
%TO.C,R6*%
X168845333Y-46732180D02*
X168512000Y-46255990D01*
X168273904Y-46732180D02*
X168273904Y-45732180D01*
X168654857Y-45732180D01*
X168750095Y-45779800D01*
X168797714Y-45827419D01*
X168845333Y-45922657D01*
X168845333Y-46065514D01*
X168797714Y-46160752D01*
X168750095Y-46208371D01*
X168654857Y-46255990D01*
X168273904Y-46255990D01*
X169702476Y-45732180D02*
X169512000Y-45732180D01*
X169416761Y-45779800D01*
X169369142Y-45827419D01*
X169273904Y-45970276D01*
X169226285Y-46160752D01*
X169226285Y-46541704D01*
X169273904Y-46636942D01*
X169321523Y-46684561D01*
X169416761Y-46732180D01*
X169607238Y-46732180D01*
X169702476Y-46684561D01*
X169750095Y-46636942D01*
X169797714Y-46541704D01*
X169797714Y-46303609D01*
X169750095Y-46208371D01*
X169702476Y-46160752D01*
X169607238Y-46113133D01*
X169416761Y-46113133D01*
X169321523Y-46160752D01*
X169273904Y-46208371D01*
X169226285Y-46303609D01*
%TO.C,R7*%
X164196333Y-46732180D02*
X163863000Y-46255990D01*
X163624904Y-46732180D02*
X163624904Y-45732180D01*
X164005857Y-45732180D01*
X164101095Y-45779800D01*
X164148714Y-45827419D01*
X164196333Y-45922657D01*
X164196333Y-46065514D01*
X164148714Y-46160752D01*
X164101095Y-46208371D01*
X164005857Y-46255990D01*
X163624904Y-46255990D01*
X164529666Y-45732180D02*
X165196333Y-45732180D01*
X164767761Y-46732180D01*
%TO.C,l_pwr1*%
X173919140Y-50553049D02*
X173871521Y-50648287D01*
X173776283Y-50695906D01*
X172919140Y-50695906D01*
X174014379Y-50410192D02*
X174014379Y-49648287D01*
X173252474Y-49410192D02*
X174252474Y-49410192D01*
X173300093Y-49410192D02*
X173252474Y-49314954D01*
X173252474Y-49124478D01*
X173300093Y-49029240D01*
X173347712Y-48981620D01*
X173442950Y-48934001D01*
X173728664Y-48934001D01*
X173823902Y-48981620D01*
X173871521Y-49029240D01*
X173919140Y-49124478D01*
X173919140Y-49314954D01*
X173871521Y-49410192D01*
X173252474Y-48600668D02*
X173919140Y-48410192D01*
X173442950Y-48219716D01*
X173919140Y-48029240D01*
X173252474Y-47838763D01*
X173919140Y-47457811D02*
X173252474Y-47457811D01*
X173442950Y-47457811D02*
X173347712Y-47410192D01*
X173300093Y-47362573D01*
X173252474Y-47267335D01*
X173252474Y-47172097D01*
X173919140Y-46314954D02*
X173919140Y-46886382D01*
X173919140Y-46600668D02*
X172919140Y-46600668D01*
X173061998Y-46695906D01*
X173157236Y-46791144D01*
X173204855Y-46886382D01*
%TO.C,Pump1*%
X175272036Y-59548020D02*
X175272036Y-58548020D01*
X175652988Y-58548020D01*
X175748226Y-58595640D01*
X175795845Y-58643259D01*
X175843464Y-58738497D01*
X175843464Y-58881354D01*
X175795845Y-58976592D01*
X175748226Y-59024211D01*
X175652988Y-59071830D01*
X175272036Y-59071830D01*
X176700607Y-58881354D02*
X176700607Y-59548020D01*
X176272036Y-58881354D02*
X176272036Y-59405163D01*
X176319655Y-59500401D01*
X176414893Y-59548020D01*
X176557750Y-59548020D01*
X176652988Y-59500401D01*
X176700607Y-59452782D01*
X177176798Y-59548020D02*
X177176798Y-58881354D01*
X177176798Y-58976592D02*
X177224417Y-58928973D01*
X177319655Y-58881354D01*
X177462512Y-58881354D01*
X177557750Y-58928973D01*
X177605369Y-59024211D01*
X177605369Y-59548020D01*
X177605369Y-59024211D02*
X177652988Y-58928973D01*
X177748226Y-58881354D01*
X177891083Y-58881354D01*
X177986321Y-58928973D01*
X178033940Y-59024211D01*
X178033940Y-59548020D01*
X178510131Y-58881354D02*
X178510131Y-59881354D01*
X178510131Y-58928973D02*
X178605369Y-58881354D01*
X178795845Y-58881354D01*
X178891083Y-58928973D01*
X178938702Y-58976592D01*
X178986321Y-59071830D01*
X178986321Y-59357544D01*
X178938702Y-59452782D01*
X178891083Y-59500401D01*
X178795845Y-59548020D01*
X178605369Y-59548020D01*
X178510131Y-59500401D01*
X179938702Y-59548020D02*
X179367274Y-59548020D01*
X179652988Y-59548020D02*
X179652988Y-58548020D01*
X179557750Y-58690878D01*
X179462512Y-58786116D01*
X179367274Y-58833735D01*
%TO.C,MSA1*%
X151673571Y-107422944D02*
X151673571Y-106622944D01*
X151940238Y-107194373D01*
X152206904Y-106622944D01*
X152206904Y-107422944D01*
X152549761Y-107384849D02*
X152664047Y-107422944D01*
X152854523Y-107422944D01*
X152930714Y-107384849D01*
X152968809Y-107346754D01*
X153006904Y-107270563D01*
X153006904Y-107194373D01*
X152968809Y-107118182D01*
X152930714Y-107080087D01*
X152854523Y-107041992D01*
X152702142Y-107003897D01*
X152625952Y-106965801D01*
X152587857Y-106927706D01*
X152549761Y-106851516D01*
X152549761Y-106775325D01*
X152587857Y-106699135D01*
X152625952Y-106661040D01*
X152702142Y-106622944D01*
X152892619Y-106622944D01*
X153006904Y-106661040D01*
X153311666Y-107194373D02*
X153692619Y-107194373D01*
X153235476Y-107422944D02*
X153502142Y-106622944D01*
X153768809Y-107422944D01*
X154454523Y-107422944D02*
X153997380Y-107422944D01*
X154225952Y-107422944D02*
X154225952Y-106622944D01*
X154149761Y-106737230D01*
X154073571Y-106813420D01*
X153997380Y-106851516D01*
%TO.C,MSY1*%
X151805651Y-87067384D02*
X151805651Y-86267384D01*
X152072318Y-86838813D01*
X152338984Y-86267384D01*
X152338984Y-87067384D01*
X152681841Y-87029289D02*
X152796127Y-87067384D01*
X152986603Y-87067384D01*
X153062794Y-87029289D01*
X153100889Y-86991194D01*
X153138984Y-86915003D01*
X153138984Y-86838813D01*
X153100889Y-86762622D01*
X153062794Y-86724527D01*
X152986603Y-86686432D01*
X152834222Y-86648337D01*
X152758032Y-86610241D01*
X152719937Y-86572146D01*
X152681841Y-86495956D01*
X152681841Y-86419765D01*
X152719937Y-86343575D01*
X152758032Y-86305480D01*
X152834222Y-86267384D01*
X153024699Y-86267384D01*
X153138984Y-86305480D01*
X153634222Y-86686432D02*
X153634222Y-87067384D01*
X153367556Y-86267384D02*
X153634222Y-86686432D01*
X153900889Y-86267384D01*
X154586603Y-87067384D02*
X154129460Y-87067384D01*
X154358032Y-87067384D02*
X154358032Y-86267384D01*
X154281841Y-86381670D01*
X154205651Y-86457860D01*
X154129460Y-86495956D01*
%TO.C,MSZ1*%
X134805836Y-107509304D02*
X134805836Y-106709304D01*
X135072502Y-107280733D01*
X135339169Y-106709304D01*
X135339169Y-107509304D01*
X135682026Y-107471209D02*
X135796312Y-107509304D01*
X135986788Y-107509304D01*
X136062979Y-107471209D01*
X136101074Y-107433114D01*
X136139169Y-107356923D01*
X136139169Y-107280733D01*
X136101074Y-107204542D01*
X136062979Y-107166447D01*
X135986788Y-107128352D01*
X135834407Y-107090257D01*
X135758217Y-107052161D01*
X135720121Y-107014066D01*
X135682026Y-106937876D01*
X135682026Y-106861685D01*
X135720121Y-106785495D01*
X135758217Y-106747400D01*
X135834407Y-106709304D01*
X136024883Y-106709304D01*
X136139169Y-106747400D01*
X136405836Y-106709304D02*
X136939169Y-106709304D01*
X136405836Y-107509304D01*
X136939169Y-107509304D01*
X137662979Y-107509304D02*
X137205836Y-107509304D01*
X137434407Y-107509304D02*
X137434407Y-106709304D01*
X137358217Y-106823590D01*
X137282026Y-106899780D01*
X137205836Y-106937876D01*
%TO.C,MSX1*%
X134155596Y-87026744D02*
X134155596Y-86226744D01*
X134422262Y-86798173D01*
X134688929Y-86226744D01*
X134688929Y-87026744D01*
X135031786Y-86988649D02*
X135146072Y-87026744D01*
X135336548Y-87026744D01*
X135412739Y-86988649D01*
X135450834Y-86950554D01*
X135488929Y-86874363D01*
X135488929Y-86798173D01*
X135450834Y-86721982D01*
X135412739Y-86683887D01*
X135336548Y-86645792D01*
X135184167Y-86607697D01*
X135107977Y-86569601D01*
X135069881Y-86531506D01*
X135031786Y-86455316D01*
X135031786Y-86379125D01*
X135069881Y-86302935D01*
X135107977Y-86264840D01*
X135184167Y-86226744D01*
X135374643Y-86226744D01*
X135488929Y-86264840D01*
X135755596Y-86226744D02*
X136288929Y-87026744D01*
X136288929Y-86226744D02*
X135755596Y-87026744D01*
X137012739Y-87026744D02*
X136555596Y-87026744D01*
X136784167Y-87026744D02*
X136784167Y-86226744D01*
X136707977Y-86341030D01*
X136631786Y-86417220D01*
X136555596Y-86455316D01*
%TO.C,MP1584EN_DC-DC1*%
D16*
X130440761Y-55166390D02*
X130440761Y-54666390D01*
X130607428Y-55023533D01*
X130774095Y-54666390D01*
X130774095Y-55166390D01*
X131012190Y-55166390D02*
X131012190Y-54666390D01*
X131202666Y-54666390D01*
X131250285Y-54690200D01*
X131274095Y-54714009D01*
X131297904Y-54761628D01*
X131297904Y-54833057D01*
X131274095Y-54880676D01*
X131250285Y-54904485D01*
X131202666Y-54928295D01*
X131012190Y-54928295D01*
X131774095Y-55166390D02*
X131488380Y-55166390D01*
X131631238Y-55166390D02*
X131631238Y-54666390D01*
X131583619Y-54737819D01*
X131536000Y-54785438D01*
X131488380Y-54809247D01*
X132226476Y-54666390D02*
X131988380Y-54666390D01*
X131964571Y-54904485D01*
X131988380Y-54880676D01*
X132036000Y-54856866D01*
X132155047Y-54856866D01*
X132202666Y-54880676D01*
X132226476Y-54904485D01*
X132250285Y-54952104D01*
X132250285Y-55071152D01*
X132226476Y-55118771D01*
X132202666Y-55142580D01*
X132155047Y-55166390D01*
X132036000Y-55166390D01*
X131988380Y-55142580D01*
X131964571Y-55118771D01*
X132536000Y-54880676D02*
X132488380Y-54856866D01*
X132464571Y-54833057D01*
X132440761Y-54785438D01*
X132440761Y-54761628D01*
X132464571Y-54714009D01*
X132488380Y-54690200D01*
X132536000Y-54666390D01*
X132631238Y-54666390D01*
X132678857Y-54690200D01*
X132702666Y-54714009D01*
X132726476Y-54761628D01*
X132726476Y-54785438D01*
X132702666Y-54833057D01*
X132678857Y-54856866D01*
X132631238Y-54880676D01*
X132536000Y-54880676D01*
X132488380Y-54904485D01*
X132464571Y-54928295D01*
X132440761Y-54975914D01*
X132440761Y-55071152D01*
X132464571Y-55118771D01*
X132488380Y-55142580D01*
X132536000Y-55166390D01*
X132631238Y-55166390D01*
X132678857Y-55142580D01*
X132702666Y-55118771D01*
X132726476Y-55071152D01*
X132726476Y-54975914D01*
X132702666Y-54928295D01*
X132678857Y-54904485D01*
X132631238Y-54880676D01*
X133155047Y-54833057D02*
X133155047Y-55166390D01*
X133036000Y-54642580D02*
X132916952Y-54999723D01*
X133226476Y-54999723D01*
X133416952Y-54904485D02*
X133583619Y-54904485D01*
X133655047Y-55166390D02*
X133416952Y-55166390D01*
X133416952Y-54666390D01*
X133655047Y-54666390D01*
X133869333Y-55166390D02*
X133869333Y-54666390D01*
X134155047Y-55166390D01*
X134155047Y-54666390D01*
X134274095Y-55214009D02*
X134655047Y-55214009D01*
X134774095Y-55166390D02*
X134774095Y-54666390D01*
X134893142Y-54666390D01*
X134964571Y-54690200D01*
X135012190Y-54737819D01*
X135036000Y-54785438D01*
X135059809Y-54880676D01*
X135059809Y-54952104D01*
X135036000Y-55047342D01*
X135012190Y-55094961D01*
X134964571Y-55142580D01*
X134893142Y-55166390D01*
X134774095Y-55166390D01*
X135559809Y-55118771D02*
X135536000Y-55142580D01*
X135464571Y-55166390D01*
X135416952Y-55166390D01*
X135345523Y-55142580D01*
X135297904Y-55094961D01*
X135274095Y-55047342D01*
X135250285Y-54952104D01*
X135250285Y-54880676D01*
X135274095Y-54785438D01*
X135297904Y-54737819D01*
X135345523Y-54690200D01*
X135416952Y-54666390D01*
X135464571Y-54666390D01*
X135536000Y-54690200D01*
X135559809Y-54714009D01*
X135774095Y-54975914D02*
X136155047Y-54975914D01*
X136393142Y-55166390D02*
X136393142Y-54666390D01*
X136512190Y-54666390D01*
X136583619Y-54690200D01*
X136631238Y-54737819D01*
X136655047Y-54785438D01*
X136678857Y-54880676D01*
X136678857Y-54952104D01*
X136655047Y-55047342D01*
X136631238Y-55094961D01*
X136583619Y-55142580D01*
X136512190Y-55166390D01*
X136393142Y-55166390D01*
X137178857Y-55118771D02*
X137155047Y-55142580D01*
X137083619Y-55166390D01*
X137036000Y-55166390D01*
X136964571Y-55142580D01*
X136916952Y-55094961D01*
X136893142Y-55047342D01*
X136869333Y-54952104D01*
X136869333Y-54880676D01*
X136893142Y-54785438D01*
X136916952Y-54737819D01*
X136964571Y-54690200D01*
X137036000Y-54666390D01*
X137083619Y-54666390D01*
X137155047Y-54690200D01*
X137178857Y-54714009D01*
X137655047Y-55166390D02*
X137369333Y-55166390D01*
X137512190Y-55166390D02*
X137512190Y-54666390D01*
X137464571Y-54737819D01*
X137416952Y-54785438D01*
X137369333Y-54809247D01*
%TO.C,Pled1*%
D15*
X119089380Y-78150952D02*
X118089380Y-78150952D01*
X118089380Y-77770000D01*
X118137000Y-77674761D01*
X118184619Y-77627142D01*
X118279857Y-77579523D01*
X118422714Y-77579523D01*
X118517952Y-77627142D01*
X118565571Y-77674761D01*
X118613190Y-77770000D01*
X118613190Y-78150952D01*
X119089380Y-77008095D02*
X119041761Y-77103333D01*
X118946523Y-77150952D01*
X118089380Y-77150952D01*
X119041761Y-76246190D02*
X119089380Y-76341428D01*
X119089380Y-76531904D01*
X119041761Y-76627142D01*
X118946523Y-76674761D01*
X118565571Y-76674761D01*
X118470333Y-76627142D01*
X118422714Y-76531904D01*
X118422714Y-76341428D01*
X118470333Y-76246190D01*
X118565571Y-76198571D01*
X118660809Y-76198571D01*
X118756047Y-76674761D01*
X119089380Y-75341428D02*
X118089380Y-75341428D01*
X119041761Y-75341428D02*
X119089380Y-75436666D01*
X119089380Y-75627142D01*
X119041761Y-75722380D01*
X118994142Y-75770000D01*
X118898904Y-75817619D01*
X118613190Y-75817619D01*
X118517952Y-75770000D01*
X118470333Y-75722380D01*
X118422714Y-75627142D01*
X118422714Y-75436666D01*
X118470333Y-75341428D01*
X119089380Y-74341428D02*
X119089380Y-74912857D01*
X119089380Y-74627142D02*
X118089380Y-74627142D01*
X118232238Y-74722380D01*
X118327476Y-74817619D01*
X118375095Y-74912857D01*
%TO.C,Vled1*%
X117678380Y-98222380D02*
X118678380Y-97889047D01*
X117678380Y-97555714D01*
X118678380Y-97079523D02*
X118630761Y-97174761D01*
X118535523Y-97222380D01*
X117678380Y-97222380D01*
X118630761Y-96317619D02*
X118678380Y-96412857D01*
X118678380Y-96603333D01*
X118630761Y-96698571D01*
X118535523Y-96746190D01*
X118154571Y-96746190D01*
X118059333Y-96698571D01*
X118011714Y-96603333D01*
X118011714Y-96412857D01*
X118059333Y-96317619D01*
X118154571Y-96270000D01*
X118249809Y-96270000D01*
X118345047Y-96746190D01*
X118678380Y-95412857D02*
X117678380Y-95412857D01*
X118630761Y-95412857D02*
X118678380Y-95508095D01*
X118678380Y-95698571D01*
X118630761Y-95793809D01*
X118583142Y-95841428D01*
X118487904Y-95889047D01*
X118202190Y-95889047D01*
X118106952Y-95841428D01*
X118059333Y-95793809D01*
X118011714Y-95698571D01*
X118011714Y-95508095D01*
X118059333Y-95412857D01*
X118678380Y-94412857D02*
X118678380Y-94984285D01*
X118678380Y-94698571D02*
X117678380Y-94698571D01*
X117821238Y-94793809D01*
X117916476Y-94889047D01*
X117964095Y-94984285D01*
%TO.C,ledA1*%
X119089380Y-72936666D02*
X119041761Y-73031904D01*
X118946523Y-73079523D01*
X118089380Y-73079523D01*
X119041761Y-72174761D02*
X119089380Y-72270000D01*
X119089380Y-72460476D01*
X119041761Y-72555714D01*
X118946523Y-72603333D01*
X118565571Y-72603333D01*
X118470333Y-72555714D01*
X118422714Y-72460476D01*
X118422714Y-72270000D01*
X118470333Y-72174761D01*
X118565571Y-72127142D01*
X118660809Y-72127142D01*
X118756047Y-72603333D01*
X119089380Y-71270000D02*
X118089380Y-71270000D01*
X119041761Y-71270000D02*
X119089380Y-71365238D01*
X119089380Y-71555714D01*
X119041761Y-71650952D01*
X118994142Y-71698571D01*
X118898904Y-71746190D01*
X118613190Y-71746190D01*
X118517952Y-71698571D01*
X118470333Y-71650952D01*
X118422714Y-71555714D01*
X118422714Y-71365238D01*
X118470333Y-71270000D01*
X118803666Y-70841428D02*
X118803666Y-70365238D01*
X119089380Y-70936666D02*
X118089380Y-70603333D01*
X119089380Y-70270000D01*
X119089380Y-69412857D02*
X119089380Y-69984285D01*
X119089380Y-69698571D02*
X118089380Y-69698571D01*
X118232238Y-69793809D01*
X118327476Y-69889047D01*
X118375095Y-69984285D01*
%TO.C,V_led1*%
X117703380Y-103603333D02*
X118703380Y-103270000D01*
X117703380Y-102936666D01*
X118798619Y-102841428D02*
X118798619Y-102079523D01*
X118703380Y-101698571D02*
X118655761Y-101793809D01*
X118560523Y-101841428D01*
X117703380Y-101841428D01*
X118655761Y-100936666D02*
X118703380Y-101031904D01*
X118703380Y-101222380D01*
X118655761Y-101317619D01*
X118560523Y-101365238D01*
X118179571Y-101365238D01*
X118084333Y-101317619D01*
X118036714Y-101222380D01*
X118036714Y-101031904D01*
X118084333Y-100936666D01*
X118179571Y-100889047D01*
X118274809Y-100889047D01*
X118370047Y-101365238D01*
X118703380Y-100031904D02*
X117703380Y-100031904D01*
X118655761Y-100031904D02*
X118703380Y-100127142D01*
X118703380Y-100317619D01*
X118655761Y-100412857D01*
X118608142Y-100460476D01*
X118512904Y-100508095D01*
X118227190Y-100508095D01*
X118131952Y-100460476D01*
X118084333Y-100412857D01*
X118036714Y-100317619D01*
X118036714Y-100127142D01*
X118084333Y-100031904D01*
X118703380Y-99031904D02*
X118703380Y-99603333D01*
X118703380Y-99317619D02*
X117703380Y-99317619D01*
X117846238Y-99412857D01*
X117941476Y-99508095D01*
X117989095Y-99603333D01*
%TO.C,Rp1*%
X154462952Y-62139780D02*
X154129619Y-61663590D01*
X153891523Y-62139780D02*
X153891523Y-61139780D01*
X154272476Y-61139780D01*
X154367714Y-61187400D01*
X154415333Y-61235019D01*
X154462952Y-61330257D01*
X154462952Y-61473114D01*
X154415333Y-61568352D01*
X154367714Y-61615971D01*
X154272476Y-61663590D01*
X153891523Y-61663590D01*
X154891523Y-61473114D02*
X154891523Y-62473114D01*
X154891523Y-61520733D02*
X154986761Y-61473114D01*
X155177238Y-61473114D01*
X155272476Y-61520733D01*
X155320095Y-61568352D01*
X155367714Y-61663590D01*
X155367714Y-61949304D01*
X155320095Y-62044542D01*
X155272476Y-62092161D01*
X155177238Y-62139780D01*
X154986761Y-62139780D01*
X154891523Y-62092161D01*
X156320095Y-62139780D02*
X155748666Y-62139780D01*
X156034380Y-62139780D02*
X156034380Y-61139780D01*
X155939142Y-61282638D01*
X155843904Y-61377876D01*
X155748666Y-61425495D01*
%TO.C,Rpwr1*%
X146792619Y-60197280D02*
X146459285Y-59721090D01*
X146221190Y-60197280D02*
X146221190Y-59197280D01*
X146602142Y-59197280D01*
X146697380Y-59244900D01*
X146745000Y-59292519D01*
X146792619Y-59387757D01*
X146792619Y-59530614D01*
X146745000Y-59625852D01*
X146697380Y-59673471D01*
X146602142Y-59721090D01*
X146221190Y-59721090D01*
X147221190Y-59530614D02*
X147221190Y-60530614D01*
X147221190Y-59578233D02*
X147316428Y-59530614D01*
X147506904Y-59530614D01*
X147602142Y-59578233D01*
X147649761Y-59625852D01*
X147697380Y-59721090D01*
X147697380Y-60006804D01*
X147649761Y-60102042D01*
X147602142Y-60149661D01*
X147506904Y-60197280D01*
X147316428Y-60197280D01*
X147221190Y-60149661D01*
X148030714Y-59530614D02*
X148221190Y-60197280D01*
X148411666Y-59721090D01*
X148602142Y-60197280D01*
X148792619Y-59530614D01*
X149173571Y-60197280D02*
X149173571Y-59530614D01*
X149173571Y-59721090D02*
X149221190Y-59625852D01*
X149268809Y-59578233D01*
X149364047Y-59530614D01*
X149459285Y-59530614D01*
X150316428Y-60197280D02*
X149745000Y-60197280D01*
X150030714Y-60197280D02*
X150030714Y-59197280D01*
X149935476Y-59340138D01*
X149840238Y-59435376D01*
X149745000Y-59482995D01*
%TO.C,Rpwr_1*%
X123697380Y-104530333D02*
X123221190Y-104863666D01*
X123697380Y-105101761D02*
X122697380Y-105101761D01*
X122697380Y-104720809D01*
X122745000Y-104625571D01*
X122792619Y-104577952D01*
X122887857Y-104530333D01*
X123030714Y-104530333D01*
X123125952Y-104577952D01*
X123173571Y-104625571D01*
X123221190Y-104720809D01*
X123221190Y-105101761D01*
X123030714Y-104101761D02*
X124030714Y-104101761D01*
X123078333Y-104101761D02*
X123030714Y-104006523D01*
X123030714Y-103816047D01*
X123078333Y-103720809D01*
X123125952Y-103673190D01*
X123221190Y-103625571D01*
X123506904Y-103625571D01*
X123602142Y-103673190D01*
X123649761Y-103720809D01*
X123697380Y-103816047D01*
X123697380Y-104006523D01*
X123649761Y-104101761D01*
X123030714Y-103292238D02*
X123697380Y-103101761D01*
X123221190Y-102911285D01*
X123697380Y-102720809D01*
X123030714Y-102530333D01*
X123697380Y-102149380D02*
X123030714Y-102149380D01*
X123221190Y-102149380D02*
X123125952Y-102101761D01*
X123078333Y-102054142D01*
X123030714Y-101958904D01*
X123030714Y-101863666D01*
X123792619Y-101768428D02*
X123792619Y-101006523D01*
X123697380Y-100244619D02*
X123697380Y-100816047D01*
X123697380Y-100530333D02*
X122697380Y-100530333D01*
X122840238Y-100625571D01*
X122935476Y-100720809D01*
X122983095Y-100816047D01*
%TO.C,RstpA1*%
X124629380Y-69233795D02*
X124153190Y-69567128D01*
X124629380Y-69805223D02*
X123629380Y-69805223D01*
X123629380Y-69424271D01*
X123677000Y-69329033D01*
X123724619Y-69281414D01*
X123819857Y-69233795D01*
X123962714Y-69233795D01*
X124057952Y-69281414D01*
X124105571Y-69329033D01*
X124153190Y-69424271D01*
X124153190Y-69805223D01*
X124581761Y-68852842D02*
X124629380Y-68757604D01*
X124629380Y-68567128D01*
X124581761Y-68471890D01*
X124486523Y-68424271D01*
X124438904Y-68424271D01*
X124343666Y-68471890D01*
X124296047Y-68567128D01*
X124296047Y-68709985D01*
X124248428Y-68805223D01*
X124153190Y-68852842D01*
X124105571Y-68852842D01*
X124010333Y-68805223D01*
X123962714Y-68709985D01*
X123962714Y-68567128D01*
X124010333Y-68471890D01*
X123962714Y-68138557D02*
X123962714Y-67757604D01*
X123629380Y-67995700D02*
X124486523Y-67995700D01*
X124581761Y-67948080D01*
X124629380Y-67852842D01*
X124629380Y-67757604D01*
X123962714Y-67424271D02*
X124962714Y-67424271D01*
X124010333Y-67424271D02*
X123962714Y-67329033D01*
X123962714Y-67138557D01*
X124010333Y-67043319D01*
X124057952Y-66995700D01*
X124153190Y-66948080D01*
X124438904Y-66948080D01*
X124534142Y-66995700D01*
X124581761Y-67043319D01*
X124629380Y-67138557D01*
X124629380Y-67329033D01*
X124581761Y-67424271D01*
X124343666Y-66567128D02*
X124343666Y-66090938D01*
X124629380Y-66662366D02*
X123629380Y-66329033D01*
X124629380Y-65995700D01*
X124629380Y-65138557D02*
X124629380Y-65709985D01*
X124629380Y-65424271D02*
X123629380Y-65424271D01*
X123772238Y-65519509D01*
X123867476Y-65614747D01*
X123915095Y-65709985D01*
%TO.C,ledX1*%
X119155380Y-57984285D02*
X119107761Y-58079523D01*
X119012523Y-58127142D01*
X118155380Y-58127142D01*
X119107761Y-57222380D02*
X119155380Y-57317619D01*
X119155380Y-57508095D01*
X119107761Y-57603333D01*
X119012523Y-57650952D01*
X118631571Y-57650952D01*
X118536333Y-57603333D01*
X118488714Y-57508095D01*
X118488714Y-57317619D01*
X118536333Y-57222380D01*
X118631571Y-57174761D01*
X118726809Y-57174761D01*
X118822047Y-57650952D01*
X119155380Y-56317619D02*
X118155380Y-56317619D01*
X119107761Y-56317619D02*
X119155380Y-56412857D01*
X119155380Y-56603333D01*
X119107761Y-56698571D01*
X119060142Y-56746190D01*
X118964904Y-56793809D01*
X118679190Y-56793809D01*
X118583952Y-56746190D01*
X118536333Y-56698571D01*
X118488714Y-56603333D01*
X118488714Y-56412857D01*
X118536333Y-56317619D01*
X118155380Y-55936666D02*
X119155380Y-55270000D01*
X118155380Y-55270000D02*
X119155380Y-55936666D01*
X119155380Y-54365238D02*
X119155380Y-54936666D01*
X119155380Y-54650952D02*
X118155380Y-54650952D01*
X118298238Y-54746190D01*
X118393476Y-54841428D01*
X118441095Y-54936666D01*
%TO.C,ledY1*%
X119089380Y-62936666D02*
X119041761Y-63031904D01*
X118946523Y-63079523D01*
X118089380Y-63079523D01*
X119041761Y-62174761D02*
X119089380Y-62270000D01*
X119089380Y-62460476D01*
X119041761Y-62555714D01*
X118946523Y-62603333D01*
X118565571Y-62603333D01*
X118470333Y-62555714D01*
X118422714Y-62460476D01*
X118422714Y-62270000D01*
X118470333Y-62174761D01*
X118565571Y-62127142D01*
X118660809Y-62127142D01*
X118756047Y-62603333D01*
X119089380Y-61270000D02*
X118089380Y-61270000D01*
X119041761Y-61270000D02*
X119089380Y-61365238D01*
X119089380Y-61555714D01*
X119041761Y-61650952D01*
X118994142Y-61698571D01*
X118898904Y-61746190D01*
X118613190Y-61746190D01*
X118517952Y-61698571D01*
X118470333Y-61650952D01*
X118422714Y-61555714D01*
X118422714Y-61365238D01*
X118470333Y-61270000D01*
X118613190Y-60603333D02*
X119089380Y-60603333D01*
X118089380Y-60936666D02*
X118613190Y-60603333D01*
X118089380Y-60270000D01*
X119089380Y-59412857D02*
X119089380Y-59984285D01*
X119089380Y-59698571D02*
X118089380Y-59698571D01*
X118232238Y-59793809D01*
X118327476Y-59889047D01*
X118375095Y-59984285D01*
%TO.C,ledZ1*%
X119089380Y-67984285D02*
X119041761Y-68079523D01*
X118946523Y-68127142D01*
X118089380Y-68127142D01*
X119041761Y-67222380D02*
X119089380Y-67317619D01*
X119089380Y-67508095D01*
X119041761Y-67603333D01*
X118946523Y-67650952D01*
X118565571Y-67650952D01*
X118470333Y-67603333D01*
X118422714Y-67508095D01*
X118422714Y-67317619D01*
X118470333Y-67222380D01*
X118565571Y-67174761D01*
X118660809Y-67174761D01*
X118756047Y-67650952D01*
X119089380Y-66317619D02*
X118089380Y-66317619D01*
X119041761Y-66317619D02*
X119089380Y-66412857D01*
X119089380Y-66603333D01*
X119041761Y-66698571D01*
X118994142Y-66746190D01*
X118898904Y-66793809D01*
X118613190Y-66793809D01*
X118517952Y-66746190D01*
X118470333Y-66698571D01*
X118422714Y-66603333D01*
X118422714Y-66412857D01*
X118470333Y-66317619D01*
X118089380Y-65936666D02*
X118089380Y-65270000D01*
X119089380Y-65936666D01*
X119089380Y-65270000D01*
X119089380Y-64365238D02*
X119089380Y-64936666D01*
X119089380Y-64650952D02*
X118089380Y-64650952D01*
X118232238Y-64746190D01*
X118327476Y-64841428D01*
X118375095Y-64936666D01*
%TO.C,RstpX1*%
X146374285Y-51883280D02*
X146040952Y-51407090D01*
X145802857Y-51883280D02*
X145802857Y-50883280D01*
X146183809Y-50883280D01*
X146279047Y-50930900D01*
X146326666Y-50978519D01*
X146374285Y-51073757D01*
X146374285Y-51216614D01*
X146326666Y-51311852D01*
X146279047Y-51359471D01*
X146183809Y-51407090D01*
X145802857Y-51407090D01*
X146755238Y-51835661D02*
X146850476Y-51883280D01*
X147040952Y-51883280D01*
X147136190Y-51835661D01*
X147183809Y-51740423D01*
X147183809Y-51692804D01*
X147136190Y-51597566D01*
X147040952Y-51549947D01*
X146898095Y-51549947D01*
X146802857Y-51502328D01*
X146755238Y-51407090D01*
X146755238Y-51359471D01*
X146802857Y-51264233D01*
X146898095Y-51216614D01*
X147040952Y-51216614D01*
X147136190Y-51264233D01*
X147469523Y-51216614D02*
X147850476Y-51216614D01*
X147612380Y-50883280D02*
X147612380Y-51740423D01*
X147660000Y-51835661D01*
X147755238Y-51883280D01*
X147850476Y-51883280D01*
X148183809Y-51216614D02*
X148183809Y-52216614D01*
X148183809Y-51264233D02*
X148279047Y-51216614D01*
X148469523Y-51216614D01*
X148564761Y-51264233D01*
X148612380Y-51311852D01*
X148660000Y-51407090D01*
X148660000Y-51692804D01*
X148612380Y-51788042D01*
X148564761Y-51835661D01*
X148469523Y-51883280D01*
X148279047Y-51883280D01*
X148183809Y-51835661D01*
X148993333Y-50883280D02*
X149660000Y-51883280D01*
X149660000Y-50883280D02*
X148993333Y-51883280D01*
X150564761Y-51883280D02*
X149993333Y-51883280D01*
X150279047Y-51883280D02*
X150279047Y-50883280D01*
X150183809Y-51026138D01*
X150088571Y-51121376D01*
X149993333Y-51168995D01*
%TO.C,RstpY1*%
X146445904Y-65439780D02*
X146112571Y-64963590D01*
X145874476Y-65439780D02*
X145874476Y-64439780D01*
X146255428Y-64439780D01*
X146350666Y-64487400D01*
X146398285Y-64535019D01*
X146445904Y-64630257D01*
X146445904Y-64773114D01*
X146398285Y-64868352D01*
X146350666Y-64915971D01*
X146255428Y-64963590D01*
X145874476Y-64963590D01*
X146826857Y-65392161D02*
X146922095Y-65439780D01*
X147112571Y-65439780D01*
X147207809Y-65392161D01*
X147255428Y-65296923D01*
X147255428Y-65249304D01*
X147207809Y-65154066D01*
X147112571Y-65106447D01*
X146969714Y-65106447D01*
X146874476Y-65058828D01*
X146826857Y-64963590D01*
X146826857Y-64915971D01*
X146874476Y-64820733D01*
X146969714Y-64773114D01*
X147112571Y-64773114D01*
X147207809Y-64820733D01*
X147541142Y-64773114D02*
X147922095Y-64773114D01*
X147684000Y-64439780D02*
X147684000Y-65296923D01*
X147731619Y-65392161D01*
X147826857Y-65439780D01*
X147922095Y-65439780D01*
X148255428Y-64773114D02*
X148255428Y-65773114D01*
X148255428Y-64820733D02*
X148350666Y-64773114D01*
X148541142Y-64773114D01*
X148636380Y-64820733D01*
X148684000Y-64868352D01*
X148731619Y-64963590D01*
X148731619Y-65249304D01*
X148684000Y-65344542D01*
X148636380Y-65392161D01*
X148541142Y-65439780D01*
X148350666Y-65439780D01*
X148255428Y-65392161D01*
X149350666Y-64963590D02*
X149350666Y-65439780D01*
X149017333Y-64439780D02*
X149350666Y-64963590D01*
X149684000Y-64439780D01*
X150541142Y-65439780D02*
X149969714Y-65439780D01*
X150255428Y-65439780D02*
X150255428Y-64439780D01*
X150160190Y-64582638D01*
X150064952Y-64677876D01*
X149969714Y-64725495D01*
%TO.C,RstpZ1*%
X124822380Y-74922514D02*
X124346190Y-75255847D01*
X124822380Y-75493942D02*
X123822380Y-75493942D01*
X123822380Y-75112990D01*
X123870000Y-75017752D01*
X123917619Y-74970133D01*
X124012857Y-74922514D01*
X124155714Y-74922514D01*
X124250952Y-74970133D01*
X124298571Y-75017752D01*
X124346190Y-75112990D01*
X124346190Y-75493942D01*
X124774761Y-74541561D02*
X124822380Y-74446323D01*
X124822380Y-74255847D01*
X124774761Y-74160609D01*
X124679523Y-74112990D01*
X124631904Y-74112990D01*
X124536666Y-74160609D01*
X124489047Y-74255847D01*
X124489047Y-74398704D01*
X124441428Y-74493942D01*
X124346190Y-74541561D01*
X124298571Y-74541561D01*
X124203333Y-74493942D01*
X124155714Y-74398704D01*
X124155714Y-74255847D01*
X124203333Y-74160609D01*
X124155714Y-73827276D02*
X124155714Y-73446323D01*
X123822380Y-73684419D02*
X124679523Y-73684419D01*
X124774761Y-73636800D01*
X124822380Y-73541561D01*
X124822380Y-73446323D01*
X124155714Y-73112990D02*
X125155714Y-73112990D01*
X124203333Y-73112990D02*
X124155714Y-73017752D01*
X124155714Y-72827276D01*
X124203333Y-72732038D01*
X124250952Y-72684419D01*
X124346190Y-72636800D01*
X124631904Y-72636800D01*
X124727142Y-72684419D01*
X124774761Y-72732038D01*
X124822380Y-72827276D01*
X124822380Y-73017752D01*
X124774761Y-73112990D01*
X123822380Y-72303466D02*
X123822380Y-71636800D01*
X124822380Y-72303466D01*
X124822380Y-71636800D01*
X124822380Y-70732038D02*
X124822380Y-71303466D01*
X124822380Y-71017752D02*
X123822380Y-71017752D01*
X123965238Y-71112990D01*
X124060476Y-71208228D01*
X124108095Y-71303466D01*
%TO.C,P10*%
X145285714Y-46952380D02*
X145285714Y-45952380D01*
X145666666Y-45952380D01*
X145761904Y-46000000D01*
X145809523Y-46047619D01*
X145857142Y-46142857D01*
X145857142Y-46285714D01*
X145809523Y-46380952D01*
X145761904Y-46428571D01*
X145666666Y-46476190D01*
X145285714Y-46476190D01*
X146809523Y-46952380D02*
X146238095Y-46952380D01*
X146523809Y-46952380D02*
X146523809Y-45952380D01*
X146428571Y-46095238D01*
X146333333Y-46190476D01*
X146238095Y-46238095D01*
X147428571Y-45952380D02*
X147523809Y-45952380D01*
X147619047Y-46000000D01*
X147666666Y-46047619D01*
X147714285Y-46142857D01*
X147761904Y-46333333D01*
X147761904Y-46571428D01*
X147714285Y-46761904D01*
X147666666Y-46857142D01*
X147619047Y-46904761D01*
X147523809Y-46952380D01*
X147428571Y-46952380D01*
X147333333Y-46904761D01*
X147285714Y-46857142D01*
X147238095Y-46761904D01*
X147190476Y-46571428D01*
X147190476Y-46333333D01*
X147238095Y-46142857D01*
X147285714Y-46047619D01*
X147333333Y-46000000D01*
X147428571Y-45952380D01*
%TD*%
%LPC*%
D17*
%TO.C,conn26_0*%
X179283000Y-109480000D03*
X179283000Y-106940000D03*
X179283000Y-104400000D03*
X179283000Y-101860000D03*
X179283000Y-99320000D03*
X179283000Y-96780000D03*
X179283000Y-94240000D03*
X179283000Y-91700000D03*
X179283000Y-89160000D03*
X179283000Y-86620000D03*
X179283000Y-84080000D03*
X179283000Y-81540000D03*
X179283000Y-79000000D03*
X176743000Y-109480000D03*
X176743000Y-106940000D03*
X176743000Y-104400000D03*
X176743000Y-101860000D03*
X176743000Y-99320000D03*
X176743000Y-96780000D03*
X176743000Y-94240000D03*
X176743000Y-91700000D03*
X176743000Y-89160000D03*
X176743000Y-86620000D03*
X176743000Y-84080000D03*
X176743000Y-81540000D03*
G36*
G01*
X175893000Y-79600000D02*
X175893000Y-78400000D01*
G75*
G02*
X176143000Y-78150000I250000J0D01*
G01*
X177343000Y-78150000D01*
G75*
G02*
X177593000Y-78400000I0J-250000D01*
G01*
X177593000Y-79600000D01*
G75*
G02*
X177343000Y-79850000I-250000J0D01*
G01*
X176143000Y-79850000D01*
G75*
G02*
X175893000Y-79600000I0J250000D01*
G01*
G37*
%TD*%
%TO.C,conn26_1*%
G36*
G01*
X164180000Y-79600000D02*
X164180000Y-78400000D01*
G75*
G02*
X164430000Y-78150000I250000J0D01*
G01*
X165630000Y-78150000D01*
G75*
G02*
X165880000Y-78400000I0J-250000D01*
G01*
X165880000Y-79600000D01*
G75*
G02*
X165630000Y-79850000I-250000J0D01*
G01*
X164430000Y-79850000D01*
G75*
G02*
X164180000Y-79600000I0J250000D01*
G01*
G37*
X165030000Y-81540000D03*
X165030000Y-84080000D03*
X165030000Y-86620000D03*
X165030000Y-89160000D03*
X165030000Y-91700000D03*
X165030000Y-94240000D03*
X165030000Y-96780000D03*
X165030000Y-99320000D03*
X165030000Y-101860000D03*
X165030000Y-104400000D03*
X165030000Y-106940000D03*
X165030000Y-109480000D03*
X167570000Y-79000000D03*
X167570000Y-81540000D03*
X167570000Y-84080000D03*
X167570000Y-86620000D03*
X167570000Y-89160000D03*
X167570000Y-91700000D03*
X167570000Y-94240000D03*
X167570000Y-96780000D03*
X167570000Y-99320000D03*
X167570000Y-101860000D03*
X167570000Y-104400000D03*
X167570000Y-106940000D03*
X167570000Y-109480000D03*
%TD*%
D18*
%TO.C,Q0*%
X156720000Y-55727600D03*
D19*
X173380000Y-58267600D03*
D20*
X173380000Y-55727600D03*
X173380000Y-53187600D03*
%TD*%
%TO.C,pi_5V1*%
G36*
G01*
X117790000Y-50850000D02*
X116290000Y-50850000D01*
G75*
G02*
X116040000Y-50600000I0J250000D01*
G01*
X116040000Y-49400000D01*
G75*
G02*
X116290000Y-49150000I250000J0D01*
G01*
X117790000Y-49150000D01*
G75*
G02*
X118040000Y-49400000I0J-250000D01*
G01*
X118040000Y-50600000D01*
G75*
G02*
X117790000Y-50850000I-250000J0D01*
G01*
G37*
D21*
X117040000Y-47500000D03*
%TD*%
D22*
%TO.C,U1*%
X177358000Y-117180000D03*
X174818000Y-117180000D03*
X172278000Y-117180000D03*
X164658000Y-117180000D03*
X167198000Y-117180000D03*
X169738000Y-117180000D03*
X159578000Y-117180000D03*
X157038000Y-117180000D03*
X154498000Y-117180000D03*
X149418000Y-117180000D03*
X146878000Y-117180000D03*
X177358000Y-68920000D03*
X174818000Y-68920000D03*
X172278000Y-68920000D03*
X169738000Y-68920000D03*
X167198000Y-68920000D03*
X164658000Y-68920000D03*
X162118000Y-68920000D03*
X159578000Y-68920000D03*
X155514000Y-68920000D03*
X152974000Y-68920000D03*
X150434000Y-68920000D03*
X147894000Y-68920000D03*
X145354000Y-68920000D03*
X142814000Y-68920000D03*
X140274000Y-68920000D03*
X137734000Y-68920000D03*
X151958000Y-117180000D03*
X135194000Y-68920000D03*
X132654000Y-68920000D03*
%TD*%
D23*
%TO.C,SW1*%
X118273000Y-90231000D03*
X124773000Y-90231000D03*
X118273000Y-85731000D03*
X124773000Y-85731000D03*
%TD*%
D24*
%TO.C,U2*%
X130033000Y-74229000D03*
X130033000Y-76769000D03*
X130033000Y-79309000D03*
X130033000Y-81849000D03*
X130033000Y-84389000D03*
X130033000Y-86929000D03*
X130033000Y-89469000D03*
X130033000Y-92009000D03*
X142733000Y-92009000D03*
X142733000Y-89469000D03*
X142733000Y-86929000D03*
X142733000Y-84389000D03*
X142733000Y-81849000D03*
X142733000Y-79309000D03*
X142733000Y-76769000D03*
X142733000Y-74229000D03*
%TD*%
%TO.C,U4*%
X130033000Y-94549000D03*
X130033000Y-97089000D03*
X130033000Y-99629000D03*
X130033000Y-102169000D03*
X130033000Y-104709000D03*
X130033000Y-107249000D03*
X130033000Y-109789000D03*
X130033000Y-112329000D03*
X142733000Y-112329000D03*
X142733000Y-109789000D03*
X142733000Y-107249000D03*
X142733000Y-104709000D03*
X142733000Y-102169000D03*
X142733000Y-99629000D03*
X142733000Y-97089000D03*
X142733000Y-94549000D03*
%TD*%
%TO.C,U5*%
X146746000Y-94625200D03*
X146746000Y-97165200D03*
X146746000Y-99705200D03*
X146746000Y-102245200D03*
X146746000Y-104785200D03*
X146746000Y-107325200D03*
X146746000Y-109865200D03*
X146746000Y-112405200D03*
X159446000Y-112405200D03*
X159446000Y-109865200D03*
X159446000Y-107325200D03*
X159446000Y-104785200D03*
X159446000Y-102245200D03*
X159446000Y-99705200D03*
X159446000Y-97165200D03*
X159446000Y-94625200D03*
%TD*%
%TO.C,U3*%
X146670000Y-74305200D03*
X146670000Y-76845200D03*
X146670000Y-79385200D03*
X146670000Y-81925200D03*
X146670000Y-84465200D03*
X146670000Y-87005200D03*
X146670000Y-89545200D03*
X146670000Y-92085200D03*
X159370000Y-92085200D03*
X159370000Y-89545200D03*
X159370000Y-87005200D03*
X159370000Y-84465200D03*
X159370000Y-81925200D03*
X159370000Y-79385200D03*
X159370000Y-76845200D03*
X159370000Y-74305200D03*
%TD*%
D25*
%TO.C,R1*%
X132573000Y-75814000D03*
X132573000Y-73914000D03*
%TD*%
%TO.C,R2*%
X149210000Y-75890200D03*
X149210000Y-73990200D03*
%TD*%
%TO.C,R3*%
X132573000Y-96134000D03*
X132573000Y-94234000D03*
%TD*%
%TO.C,R4*%
X149286000Y-96210200D03*
X149286000Y-94310200D03*
%TD*%
D26*
%TO.C,R5*%
X142555000Y-116891000D03*
X140655000Y-116891000D03*
%TD*%
D27*
%TO.C,P8*%
X122438000Y-111420000D03*
G36*
G01*
X114938000Y-112420000D02*
X114938000Y-110420000D01*
G75*
G02*
X115688000Y-109670000I750000J0D01*
G01*
X117188000Y-109670000D01*
G75*
G02*
X117938000Y-110420000I0J-750000D01*
G01*
X117938000Y-112420000D01*
G75*
G02*
X117188000Y-113170000I-750000J0D01*
G01*
X115688000Y-113170000D01*
G75*
G02*
X114938000Y-112420000I0J750000D01*
G01*
G37*
G36*
G01*
X117688000Y-116995000D02*
X117688000Y-115245000D01*
G75*
G02*
X118563000Y-114370000I875000J0D01*
G01*
X120313000Y-114370000D01*
G75*
G02*
X121188000Y-115245000I0J-875000D01*
G01*
X121188000Y-116995000D01*
G75*
G02*
X120313000Y-117870000I-875000J0D01*
G01*
X118563000Y-117870000D01*
G75*
G02*
X117688000Y-116995000I0J875000D01*
G01*
G37*
%TD*%
D28*
%TO.C,C1*%
X135956000Y-73980100D03*
X137956000Y-73980100D03*
%TD*%
%TO.C,C2*%
X154989000Y-74051200D03*
X152989000Y-74051200D03*
%TD*%
%TO.C,C3*%
X136052000Y-95778400D03*
X138052000Y-95778400D03*
%TD*%
%TO.C,C4*%
X154633000Y-95778400D03*
X152633000Y-95778400D03*
%TD*%
%TO.C,R6*%
G36*
G01*
X169462000Y-48386050D02*
X169462000Y-47473550D01*
G75*
G02*
X169705750Y-47229800I243750J0D01*
G01*
X170193250Y-47229800D01*
G75*
G02*
X170437000Y-47473550I0J-243750D01*
G01*
X170437000Y-48386050D01*
G75*
G02*
X170193250Y-48629800I-243750J0D01*
G01*
X169705750Y-48629800D01*
G75*
G02*
X169462000Y-48386050I0J243750D01*
G01*
G37*
G36*
G01*
X167587000Y-48386050D02*
X167587000Y-47473550D01*
G75*
G02*
X167830750Y-47229800I243750J0D01*
G01*
X168318250Y-47229800D01*
G75*
G02*
X168562000Y-47473550I0J-243750D01*
G01*
X168562000Y-48386050D01*
G75*
G02*
X168318250Y-48629800I-243750J0D01*
G01*
X167830750Y-48629800D01*
G75*
G02*
X167587000Y-48386050I0J243750D01*
G01*
G37*
%TD*%
%TO.C,R7*%
G36*
G01*
X162938000Y-48386050D02*
X162938000Y-47473550D01*
G75*
G02*
X163181750Y-47229800I243750J0D01*
G01*
X163669250Y-47229800D01*
G75*
G02*
X163913000Y-47473550I0J-243750D01*
G01*
X163913000Y-48386050D01*
G75*
G02*
X163669250Y-48629800I-243750J0D01*
G01*
X163181750Y-48629800D01*
G75*
G02*
X162938000Y-48386050I0J243750D01*
G01*
G37*
G36*
G01*
X164813000Y-48386050D02*
X164813000Y-47473550D01*
G75*
G02*
X165056750Y-47229800I243750J0D01*
G01*
X165544250Y-47229800D01*
G75*
G02*
X165788000Y-47473550I0J-243750D01*
G01*
X165788000Y-48386050D01*
G75*
G02*
X165544250Y-48629800I-243750J0D01*
G01*
X165056750Y-48629800D01*
G75*
G02*
X164813000Y-48386050I0J243750D01*
G01*
G37*
%TD*%
%TO.C,l_pwr1*%
G36*
G01*
X177940000Y-50634000D02*
X176440000Y-50634000D01*
G75*
G02*
X176190000Y-50384000I0J250000D01*
G01*
X176190000Y-49184000D01*
G75*
G02*
X176440000Y-48934000I250000J0D01*
G01*
X177940000Y-48934000D01*
G75*
G02*
X178190000Y-49184000I0J-250000D01*
G01*
X178190000Y-50384000D01*
G75*
G02*
X177940000Y-50634000I-250000J0D01*
G01*
G37*
D21*
X177190000Y-47284000D03*
%TD*%
D29*
%TO.C,Pump1*%
X177150000Y-63525400D03*
G36*
G01*
X173800000Y-64275400D02*
X173800000Y-62775400D01*
G75*
G02*
X174050000Y-62525400I250000J0D01*
G01*
X175250000Y-62525400D01*
G75*
G02*
X175500000Y-62775400I0J-250000D01*
G01*
X175500000Y-64275400D01*
G75*
G02*
X175250000Y-64525400I-250000J0D01*
G01*
X174050000Y-64525400D01*
G75*
G02*
X173800000Y-64275400I0J250000D01*
G01*
G37*
%TD*%
D30*
%TO.C,MSA1*%
X150480000Y-111643000D03*
D31*
X150480000Y-109103000D03*
X153020000Y-111643000D03*
X153020000Y-109103000D03*
X155560000Y-111643000D03*
X155560000Y-109103000D03*
%TD*%
D30*
%TO.C,MSY1*%
X150835000Y-91145400D03*
D31*
X150835000Y-88605400D03*
X153375000Y-91145400D03*
X153375000Y-88605400D03*
X155915000Y-91145400D03*
X155915000Y-88605400D03*
%TD*%
%TO.C,MSZ1*%
X138923000Y-109129000D03*
X138923000Y-111669000D03*
X136383000Y-109129000D03*
X136383000Y-111669000D03*
X133843000Y-109129000D03*
D30*
X133843000Y-111669000D03*
%TD*%
%TO.C,MSX1*%
X133945000Y-91145400D03*
D31*
X133945000Y-88605400D03*
X136485000Y-91145400D03*
X136485000Y-88605400D03*
X139025000Y-91145400D03*
X139025000Y-88605400D03*
%TD*%
D32*
%TO.C,MP1584EN_DC-DC1*%
X143036000Y-47384200D03*
X143036000Y-49924200D03*
X143036000Y-57924200D03*
X143036000Y-60464200D03*
X125036000Y-57924200D03*
X125036000Y-60464200D03*
X125036000Y-49924200D03*
X125036000Y-47384200D03*
%TD*%
D33*
%TO.C,Pled1*%
X116677000Y-77540000D03*
D34*
X116677000Y-75000000D03*
%TD*%
%TO.C,Vled1*%
X116266000Y-95000000D03*
D33*
X116266000Y-97540000D03*
%TD*%
%TO.C,ledA1*%
X116677000Y-72540000D03*
D34*
X116677000Y-70000000D03*
%TD*%
%TO.C,V_led1*%
X116291000Y-100000000D03*
D33*
X116291000Y-102540000D03*
%TD*%
%TO.C,Rp1*%
G36*
G01*
X153657000Y-63793650D02*
X153657000Y-62881150D01*
G75*
G02*
X153900750Y-62637400I243750J0D01*
G01*
X154388250Y-62637400D01*
G75*
G02*
X154632000Y-62881150I0J-243750D01*
G01*
X154632000Y-63793650D01*
G75*
G02*
X154388250Y-64037400I-243750J0D01*
G01*
X153900750Y-64037400D01*
G75*
G02*
X153657000Y-63793650I0J243750D01*
G01*
G37*
G36*
G01*
X155532000Y-63793650D02*
X155532000Y-62881150D01*
G75*
G02*
X155775750Y-62637400I243750J0D01*
G01*
X156263250Y-62637400D01*
G75*
G02*
X156507000Y-62881150I0J-243750D01*
G01*
X156507000Y-63793650D01*
G75*
G02*
X156263250Y-64037400I-243750J0D01*
G01*
X155775750Y-64037400D01*
G75*
G02*
X155532000Y-63793650I0J243750D01*
G01*
G37*
%TD*%
%TO.C,Rpwr1*%
G36*
G01*
X147795000Y-57638650D02*
X147795000Y-58551150D01*
G75*
G02*
X147551250Y-58794900I-243750J0D01*
G01*
X147063750Y-58794900D01*
G75*
G02*
X146820000Y-58551150I0J243750D01*
G01*
X146820000Y-57638650D01*
G75*
G02*
X147063750Y-57394900I243750J0D01*
G01*
X147551250Y-57394900D01*
G75*
G02*
X147795000Y-57638650I0J-243750D01*
G01*
G37*
G36*
G01*
X149670000Y-57638650D02*
X149670000Y-58551150D01*
G75*
G02*
X149426250Y-58794900I-243750J0D01*
G01*
X148938750Y-58794900D01*
G75*
G02*
X148695000Y-58551150I0J243750D01*
G01*
X148695000Y-57638650D01*
G75*
G02*
X148938750Y-57394900I243750J0D01*
G01*
X149426250Y-57394900D01*
G75*
G02*
X149670000Y-57638650I0J-243750D01*
G01*
G37*
%TD*%
%TO.C,Rpwr_1*%
G36*
G01*
X121138750Y-103147000D02*
X122051250Y-103147000D01*
G75*
G02*
X122295000Y-103390750I0J-243750D01*
G01*
X122295000Y-103878250D01*
G75*
G02*
X122051250Y-104122000I-243750J0D01*
G01*
X121138750Y-104122000D01*
G75*
G02*
X120895000Y-103878250I0J243750D01*
G01*
X120895000Y-103390750D01*
G75*
G02*
X121138750Y-103147000I243750J0D01*
G01*
G37*
G36*
G01*
X121138750Y-101272000D02*
X122051250Y-101272000D01*
G75*
G02*
X122295000Y-101515750I0J-243750D01*
G01*
X122295000Y-102003250D01*
G75*
G02*
X122051250Y-102247000I-243750J0D01*
G01*
X121138750Y-102247000D01*
G75*
G02*
X120895000Y-102003250I0J243750D01*
G01*
X120895000Y-101515750D01*
G75*
G02*
X121138750Y-101272000I243750J0D01*
G01*
G37*
%TD*%
%TO.C,RstpA1*%
G36*
G01*
X126283250Y-68920700D02*
X125370750Y-68920700D01*
G75*
G02*
X125127000Y-68676950I0J243750D01*
G01*
X125127000Y-68189450D01*
G75*
G02*
X125370750Y-67945700I243750J0D01*
G01*
X126283250Y-67945700D01*
G75*
G02*
X126527000Y-68189450I0J-243750D01*
G01*
X126527000Y-68676950D01*
G75*
G02*
X126283250Y-68920700I-243750J0D01*
G01*
G37*
G36*
G01*
X126283250Y-67045700D02*
X125370750Y-67045700D01*
G75*
G02*
X125127000Y-66801950I0J243750D01*
G01*
X125127000Y-66314450D01*
G75*
G02*
X125370750Y-66070700I243750J0D01*
G01*
X126283250Y-66070700D01*
G75*
G02*
X126527000Y-66314450I0J-243750D01*
G01*
X126527000Y-66801950D01*
G75*
G02*
X126283250Y-67045700I-243750J0D01*
G01*
G37*
%TD*%
%TO.C,ledX1*%
X116743000Y-57540000D03*
D34*
X116743000Y-55000000D03*
%TD*%
%TO.C,ledY1*%
X116677000Y-60000000D03*
D33*
X116677000Y-62540000D03*
%TD*%
D34*
%TO.C,ledZ1*%
X116677000Y-65000000D03*
D33*
X116677000Y-67540000D03*
%TD*%
%TO.C,RstpX1*%
G36*
G01*
X148610000Y-53537150D02*
X148610000Y-52624650D01*
G75*
G02*
X148853750Y-52380900I243750J0D01*
G01*
X149341250Y-52380900D01*
G75*
G02*
X149585000Y-52624650I0J-243750D01*
G01*
X149585000Y-53537150D01*
G75*
G02*
X149341250Y-53780900I-243750J0D01*
G01*
X148853750Y-53780900D01*
G75*
G02*
X148610000Y-53537150I0J243750D01*
G01*
G37*
G36*
G01*
X146735000Y-53537150D02*
X146735000Y-52624650D01*
G75*
G02*
X146978750Y-52380900I243750J0D01*
G01*
X147466250Y-52380900D01*
G75*
G02*
X147710000Y-52624650I0J-243750D01*
G01*
X147710000Y-53537150D01*
G75*
G02*
X147466250Y-53780900I-243750J0D01*
G01*
X146978750Y-53780900D01*
G75*
G02*
X146735000Y-53537150I0J243750D01*
G01*
G37*
%TD*%
%TO.C,RstpY1*%
G36*
G01*
X149609000Y-62881150D02*
X149609000Y-63793650D01*
G75*
G02*
X149365250Y-64037400I-243750J0D01*
G01*
X148877750Y-64037400D01*
G75*
G02*
X148634000Y-63793650I0J243750D01*
G01*
X148634000Y-62881150D01*
G75*
G02*
X148877750Y-62637400I243750J0D01*
G01*
X149365250Y-62637400D01*
G75*
G02*
X149609000Y-62881150I0J-243750D01*
G01*
G37*
G36*
G01*
X147734000Y-62881150D02*
X147734000Y-63793650D01*
G75*
G02*
X147490250Y-64037400I-243750J0D01*
G01*
X147002750Y-64037400D01*
G75*
G02*
X146759000Y-63793650I0J243750D01*
G01*
X146759000Y-62881150D01*
G75*
G02*
X147002750Y-62637400I243750J0D01*
G01*
X147490250Y-62637400D01*
G75*
G02*
X147734000Y-62881150I0J-243750D01*
G01*
G37*
%TD*%
%TO.C,RstpZ1*%
G36*
G01*
X126476250Y-74561800D02*
X125563750Y-74561800D01*
G75*
G02*
X125320000Y-74318050I0J243750D01*
G01*
X125320000Y-73830550D01*
G75*
G02*
X125563750Y-73586800I243750J0D01*
G01*
X126476250Y-73586800D01*
G75*
G02*
X126720000Y-73830550I0J-243750D01*
G01*
X126720000Y-74318050D01*
G75*
G02*
X126476250Y-74561800I-243750J0D01*
G01*
G37*
G36*
G01*
X126476250Y-72686800D02*
X125563750Y-72686800D01*
G75*
G02*
X125320000Y-72443050I0J243750D01*
G01*
X125320000Y-71955550D01*
G75*
G02*
X125563750Y-71711800I243750J0D01*
G01*
X126476250Y-71711800D01*
G75*
G02*
X126720000Y-71955550I0J-243750D01*
G01*
X126720000Y-72443050D01*
G75*
G02*
X126476250Y-72686800I-243750J0D01*
G01*
G37*
%TD*%
%TO.C,P10*%
G36*
G01*
X154952000Y-47129000D02*
X154952000Y-48629000D01*
G75*
G02*
X154702000Y-48879000I-250000J0D01*
G01*
X153502000Y-48879000D01*
G75*
G02*
X153252000Y-48629000I0J250000D01*
G01*
X153252000Y-47129000D01*
G75*
G02*
X153502000Y-46879000I250000J0D01*
G01*
X154702000Y-46879000D01*
G75*
G02*
X154952000Y-47129000I0J-250000D01*
G01*
G37*
D29*
X151602000Y-47879000D03*
%TD*%
M02*
