%TF.GenerationSoftware,KiCad,Pcbnew,5.1.6-c6e7f7d~87~ubuntu20.04.1*%
%TF.CreationDate,2021-12-05T16:45:17+01:00*%
%TF.ProjectId,sb-cnc-shield,73622d63-6e63-42d7-9368-69656c642e6b,rev?*%
%TF.SameCoordinates,Original*%
%TF.FileFunction,Paste,Top*%
%TF.FilePolarity,Positive*%
%FSLAX46Y46*%
G04 Gerber Fmt 4.6, Leading zero omitted, Abs format (unit mm)*
G04 Created by KiCad (PCBNEW 5.1.6-c6e7f7d~87~ubuntu20.04.1) date 2021-12-05 16:45:17*
%MOMM*%
%LPD*%
G01*
G04 APERTURE LIST*
%ADD10R,1.300000X0.700000*%
%ADD11R,0.700000X1.300000*%
G04 APERTURE END LIST*
D10*
%TO.C,R1*%
X132573000Y-75814000D03*
X132573000Y-73914000D03*
%TD*%
%TO.C,R2*%
X149210000Y-75890200D03*
X149210000Y-73990200D03*
%TD*%
%TO.C,R3*%
X132573000Y-96134000D03*
X132573000Y-94234000D03*
%TD*%
%TO.C,R4*%
X149286000Y-96210200D03*
X149286000Y-94310200D03*
%TD*%
D11*
%TO.C,R5*%
X142555000Y-116891000D03*
X140655000Y-116891000D03*
%TD*%
%TO.C,R6*%
G36*
G01*
X169462000Y-48386050D02*
X169462000Y-47473550D01*
G75*
G02*
X169705750Y-47229800I243750J0D01*
G01*
X170193250Y-47229800D01*
G75*
G02*
X170437000Y-47473550I0J-243750D01*
G01*
X170437000Y-48386050D01*
G75*
G02*
X170193250Y-48629800I-243750J0D01*
G01*
X169705750Y-48629800D01*
G75*
G02*
X169462000Y-48386050I0J243750D01*
G01*
G37*
G36*
G01*
X167587000Y-48386050D02*
X167587000Y-47473550D01*
G75*
G02*
X167830750Y-47229800I243750J0D01*
G01*
X168318250Y-47229800D01*
G75*
G02*
X168562000Y-47473550I0J-243750D01*
G01*
X168562000Y-48386050D01*
G75*
G02*
X168318250Y-48629800I-243750J0D01*
G01*
X167830750Y-48629800D01*
G75*
G02*
X167587000Y-48386050I0J243750D01*
G01*
G37*
%TD*%
%TO.C,R7*%
G36*
G01*
X162938000Y-48386050D02*
X162938000Y-47473550D01*
G75*
G02*
X163181750Y-47229800I243750J0D01*
G01*
X163669250Y-47229800D01*
G75*
G02*
X163913000Y-47473550I0J-243750D01*
G01*
X163913000Y-48386050D01*
G75*
G02*
X163669250Y-48629800I-243750J0D01*
G01*
X163181750Y-48629800D01*
G75*
G02*
X162938000Y-48386050I0J243750D01*
G01*
G37*
G36*
G01*
X164813000Y-48386050D02*
X164813000Y-47473550D01*
G75*
G02*
X165056750Y-47229800I243750J0D01*
G01*
X165544250Y-47229800D01*
G75*
G02*
X165788000Y-47473550I0J-243750D01*
G01*
X165788000Y-48386050D01*
G75*
G02*
X165544250Y-48629800I-243750J0D01*
G01*
X165056750Y-48629800D01*
G75*
G02*
X164813000Y-48386050I0J243750D01*
G01*
G37*
%TD*%
%TO.C,Rp1*%
G36*
G01*
X153657000Y-63793650D02*
X153657000Y-62881150D01*
G75*
G02*
X153900750Y-62637400I243750J0D01*
G01*
X154388250Y-62637400D01*
G75*
G02*
X154632000Y-62881150I0J-243750D01*
G01*
X154632000Y-63793650D01*
G75*
G02*
X154388250Y-64037400I-243750J0D01*
G01*
X153900750Y-64037400D01*
G75*
G02*
X153657000Y-63793650I0J243750D01*
G01*
G37*
G36*
G01*
X155532000Y-63793650D02*
X155532000Y-62881150D01*
G75*
G02*
X155775750Y-62637400I243750J0D01*
G01*
X156263250Y-62637400D01*
G75*
G02*
X156507000Y-62881150I0J-243750D01*
G01*
X156507000Y-63793650D01*
G75*
G02*
X156263250Y-64037400I-243750J0D01*
G01*
X155775750Y-64037400D01*
G75*
G02*
X155532000Y-63793650I0J243750D01*
G01*
G37*
%TD*%
%TO.C,Rpwr1*%
G36*
G01*
X147795000Y-57638650D02*
X147795000Y-58551150D01*
G75*
G02*
X147551250Y-58794900I-243750J0D01*
G01*
X147063750Y-58794900D01*
G75*
G02*
X146820000Y-58551150I0J243750D01*
G01*
X146820000Y-57638650D01*
G75*
G02*
X147063750Y-57394900I243750J0D01*
G01*
X147551250Y-57394900D01*
G75*
G02*
X147795000Y-57638650I0J-243750D01*
G01*
G37*
G36*
G01*
X149670000Y-57638650D02*
X149670000Y-58551150D01*
G75*
G02*
X149426250Y-58794900I-243750J0D01*
G01*
X148938750Y-58794900D01*
G75*
G02*
X148695000Y-58551150I0J243750D01*
G01*
X148695000Y-57638650D01*
G75*
G02*
X148938750Y-57394900I243750J0D01*
G01*
X149426250Y-57394900D01*
G75*
G02*
X149670000Y-57638650I0J-243750D01*
G01*
G37*
%TD*%
%TO.C,Rpwr_1*%
G36*
G01*
X121138750Y-103147000D02*
X122051250Y-103147000D01*
G75*
G02*
X122295000Y-103390750I0J-243750D01*
G01*
X122295000Y-103878250D01*
G75*
G02*
X122051250Y-104122000I-243750J0D01*
G01*
X121138750Y-104122000D01*
G75*
G02*
X120895000Y-103878250I0J243750D01*
G01*
X120895000Y-103390750D01*
G75*
G02*
X121138750Y-103147000I243750J0D01*
G01*
G37*
G36*
G01*
X121138750Y-101272000D02*
X122051250Y-101272000D01*
G75*
G02*
X122295000Y-101515750I0J-243750D01*
G01*
X122295000Y-102003250D01*
G75*
G02*
X122051250Y-102247000I-243750J0D01*
G01*
X121138750Y-102247000D01*
G75*
G02*
X120895000Y-102003250I0J243750D01*
G01*
X120895000Y-101515750D01*
G75*
G02*
X121138750Y-101272000I243750J0D01*
G01*
G37*
%TD*%
%TO.C,RstpA1*%
G36*
G01*
X126283250Y-68920700D02*
X125370750Y-68920700D01*
G75*
G02*
X125127000Y-68676950I0J243750D01*
G01*
X125127000Y-68189450D01*
G75*
G02*
X125370750Y-67945700I243750J0D01*
G01*
X126283250Y-67945700D01*
G75*
G02*
X126527000Y-68189450I0J-243750D01*
G01*
X126527000Y-68676950D01*
G75*
G02*
X126283250Y-68920700I-243750J0D01*
G01*
G37*
G36*
G01*
X126283250Y-67045700D02*
X125370750Y-67045700D01*
G75*
G02*
X125127000Y-66801950I0J243750D01*
G01*
X125127000Y-66314450D01*
G75*
G02*
X125370750Y-66070700I243750J0D01*
G01*
X126283250Y-66070700D01*
G75*
G02*
X126527000Y-66314450I0J-243750D01*
G01*
X126527000Y-66801950D01*
G75*
G02*
X126283250Y-67045700I-243750J0D01*
G01*
G37*
%TD*%
%TO.C,RstpX1*%
G36*
G01*
X148610000Y-53537150D02*
X148610000Y-52624650D01*
G75*
G02*
X148853750Y-52380900I243750J0D01*
G01*
X149341250Y-52380900D01*
G75*
G02*
X149585000Y-52624650I0J-243750D01*
G01*
X149585000Y-53537150D01*
G75*
G02*
X149341250Y-53780900I-243750J0D01*
G01*
X148853750Y-53780900D01*
G75*
G02*
X148610000Y-53537150I0J243750D01*
G01*
G37*
G36*
G01*
X146735000Y-53537150D02*
X146735000Y-52624650D01*
G75*
G02*
X146978750Y-52380900I243750J0D01*
G01*
X147466250Y-52380900D01*
G75*
G02*
X147710000Y-52624650I0J-243750D01*
G01*
X147710000Y-53537150D01*
G75*
G02*
X147466250Y-53780900I-243750J0D01*
G01*
X146978750Y-53780900D01*
G75*
G02*
X146735000Y-53537150I0J243750D01*
G01*
G37*
%TD*%
%TO.C,RstpY1*%
G36*
G01*
X149609000Y-62881150D02*
X149609000Y-63793650D01*
G75*
G02*
X149365250Y-64037400I-243750J0D01*
G01*
X148877750Y-64037400D01*
G75*
G02*
X148634000Y-63793650I0J243750D01*
G01*
X148634000Y-62881150D01*
G75*
G02*
X148877750Y-62637400I243750J0D01*
G01*
X149365250Y-62637400D01*
G75*
G02*
X149609000Y-62881150I0J-243750D01*
G01*
G37*
G36*
G01*
X147734000Y-62881150D02*
X147734000Y-63793650D01*
G75*
G02*
X147490250Y-64037400I-243750J0D01*
G01*
X147002750Y-64037400D01*
G75*
G02*
X146759000Y-63793650I0J243750D01*
G01*
X146759000Y-62881150D01*
G75*
G02*
X147002750Y-62637400I243750J0D01*
G01*
X147490250Y-62637400D01*
G75*
G02*
X147734000Y-62881150I0J-243750D01*
G01*
G37*
%TD*%
%TO.C,RstpZ1*%
G36*
G01*
X126476250Y-74561800D02*
X125563750Y-74561800D01*
G75*
G02*
X125320000Y-74318050I0J243750D01*
G01*
X125320000Y-73830550D01*
G75*
G02*
X125563750Y-73586800I243750J0D01*
G01*
X126476250Y-73586800D01*
G75*
G02*
X126720000Y-73830550I0J-243750D01*
G01*
X126720000Y-74318050D01*
G75*
G02*
X126476250Y-74561800I-243750J0D01*
G01*
G37*
G36*
G01*
X126476250Y-72686800D02*
X125563750Y-72686800D01*
G75*
G02*
X125320000Y-72443050I0J243750D01*
G01*
X125320000Y-71955550D01*
G75*
G02*
X125563750Y-71711800I243750J0D01*
G01*
X126476250Y-71711800D01*
G75*
G02*
X126720000Y-71955550I0J-243750D01*
G01*
X126720000Y-72443050D01*
G75*
G02*
X126476250Y-72686800I-243750J0D01*
G01*
G37*
%TD*%
M02*
