%TF.GenerationSoftware,KiCad,Pcbnew,5.1.6-c6e7f7d~87~ubuntu20.04.1*%
%TF.CreationDate,2021-10-31T15:52:52+01:00*%
%TF.ProjectId,sb-cnc-shield,73622d63-6e63-42d7-9368-69656c642e6b,rev?*%
%TF.SameCoordinates,Original*%
%TF.FileFunction,Legend,Top*%
%TF.FilePolarity,Positive*%
%FSLAX46Y46*%
G04 Gerber Fmt 4.6, Leading zero omitted, Abs format (unit mm)*
G04 Created by KiCad (PCBNEW 5.1.6-c6e7f7d~87~ubuntu20.04.1) date 2021-10-31 15:52:52*
%MOMM*%
%LPD*%
G01*
G04 APERTURE LIST*
%ADD10C,0.175000*%
%ADD11C,0.200000*%
%ADD12C,0.300000*%
%ADD13C,0.250000*%
%ADD14C,0.120000*%
%ADD15C,0.150000*%
%ADD16C,0.125000*%
%ADD17C,1.700000*%
%ADD18O,3.500000X3.500000*%
%ADD19R,2.000000X1.905000*%
%ADD20O,2.000000X1.905000*%
%ADD21O,2.000000X1.700000*%
%ADD22C,1.610000*%
%ADD23C,2.250000*%
%ADD24C,1.510000*%
%ADD25R,1.300000X0.700000*%
%ADD26R,0.700000X1.300000*%
%ADD27R,3.500000X3.500000*%
%ADD28C,1.600000*%
%ADD29R,1.700000X1.700000*%
%ADD30O,1.700000X1.700000*%
%ADD31O,1.700000X2.000000*%
%ADD32C,1.524000*%
G04 APERTURE END LIST*
D10*
X158973586Y-114229400D02*
X158906920Y-114196066D01*
X158806920Y-114196066D01*
X158706920Y-114229400D01*
X158640253Y-114296066D01*
X158606920Y-114362733D01*
X158573586Y-114496066D01*
X158573586Y-114596066D01*
X158606920Y-114729400D01*
X158640253Y-114796066D01*
X158706920Y-114862733D01*
X158806920Y-114896066D01*
X158873586Y-114896066D01*
X158973586Y-114862733D01*
X159006920Y-114829400D01*
X159006920Y-114596066D01*
X158873586Y-114596066D01*
X159306920Y-114896066D02*
X159306920Y-114196066D01*
X159706920Y-114896066D01*
X159706920Y-114196066D01*
X160040253Y-114896066D02*
X160040253Y-114196066D01*
X160206920Y-114196066D01*
X160306920Y-114229400D01*
X160373586Y-114296066D01*
X160406920Y-114362733D01*
X160440253Y-114496066D01*
X160440253Y-114596066D01*
X160406920Y-114729400D01*
X160373586Y-114796066D01*
X160306920Y-114862733D01*
X160206920Y-114896066D01*
X160040253Y-114896066D01*
X126554453Y-94631040D02*
X126787786Y-94631040D01*
X126887786Y-94997706D02*
X126554453Y-94997706D01*
X126554453Y-94297706D01*
X126887786Y-94297706D01*
X127187786Y-94997706D02*
X127187786Y-94297706D01*
X127587786Y-94997706D01*
X127587786Y-94297706D01*
X129409413Y-71852320D02*
X129642746Y-71852320D01*
X129742746Y-72218986D02*
X129409413Y-72218986D01*
X129409413Y-71518986D01*
X129742746Y-71518986D01*
X130042746Y-72218986D02*
X130042746Y-71518986D01*
X130442746Y-72218986D01*
X130442746Y-71518986D01*
X146148013Y-71852320D02*
X146381346Y-71852320D01*
X146481346Y-72218986D02*
X146148013Y-72218986D01*
X146148013Y-71518986D01*
X146481346Y-71518986D01*
X146781346Y-72218986D02*
X146781346Y-71518986D01*
X147181346Y-72218986D01*
X147181346Y-71518986D01*
D11*
X145983960Y-93355160D02*
X151698960Y-93355160D01*
X129143760Y-93278960D02*
X134985760Y-93278960D01*
D12*
X119239114Y-108768342D02*
X120381971Y-108768342D01*
X124524828Y-108768342D02*
X125667685Y-108768342D01*
X125096257Y-109339771D02*
X125096257Y-108196914D01*
D13*
X125678180Y-45105580D02*
X125678180Y-44105580D01*
X125916276Y-44105580D01*
X126059133Y-44153200D01*
X126154371Y-44248438D01*
X126201990Y-44343676D01*
X126249609Y-44534152D01*
X126249609Y-44677009D01*
X126201990Y-44867485D01*
X126154371Y-44962723D01*
X126059133Y-45057961D01*
X125916276Y-45105580D01*
X125678180Y-45105580D01*
X127106752Y-44438914D02*
X127106752Y-45105580D01*
X126678180Y-44438914D02*
X126678180Y-44962723D01*
X126725800Y-45057961D01*
X126821038Y-45105580D01*
X126963895Y-45105580D01*
X127059133Y-45057961D01*
X127106752Y-45010342D01*
X127582942Y-45105580D02*
X127582942Y-44438914D01*
X127582942Y-44105580D02*
X127535323Y-44153200D01*
X127582942Y-44200819D01*
X127630561Y-44153200D01*
X127582942Y-44105580D01*
X127582942Y-44200819D01*
X128059133Y-44438914D02*
X128059133Y-45105580D01*
X128059133Y-44534152D02*
X128106752Y-44486533D01*
X128201990Y-44438914D01*
X128344847Y-44438914D01*
X128440085Y-44486533D01*
X128487704Y-44581771D01*
X128487704Y-45105580D01*
X129106752Y-45105580D02*
X129011514Y-45057961D01*
X128963895Y-45010342D01*
X128916276Y-44915104D01*
X128916276Y-44629390D01*
X128963895Y-44534152D01*
X129011514Y-44486533D01*
X129106752Y-44438914D01*
X129249609Y-44438914D01*
X129344847Y-44486533D01*
X129392466Y-44534152D01*
X129440085Y-44629390D01*
X129440085Y-44915104D01*
X129392466Y-45010342D01*
X129344847Y-45057961D01*
X129249609Y-45105580D01*
X129106752Y-45105580D01*
X129868657Y-45105580D02*
X129868657Y-44105580D01*
X130249609Y-44105580D01*
X130344847Y-44153200D01*
X130392466Y-44200819D01*
X130440085Y-44296057D01*
X130440085Y-44438914D01*
X130392466Y-44534152D01*
X130344847Y-44581771D01*
X130249609Y-44629390D01*
X129868657Y-44629390D01*
X130868657Y-44438914D02*
X130868657Y-45105580D01*
X130868657Y-44534152D02*
X130916276Y-44486533D01*
X131011514Y-44438914D01*
X131154371Y-44438914D01*
X131249609Y-44486533D01*
X131297228Y-44581771D01*
X131297228Y-45105580D01*
X131773419Y-45105580D02*
X131773419Y-44105580D01*
X132154371Y-44105580D01*
X132249609Y-44153200D01*
X132297228Y-44200819D01*
X132344847Y-44296057D01*
X132344847Y-44438914D01*
X132297228Y-44534152D01*
X132249609Y-44581771D01*
X132154371Y-44629390D01*
X131773419Y-44629390D01*
X133440085Y-44438914D02*
X133678180Y-45105580D01*
X133916276Y-44438914D01*
X134821038Y-45105580D02*
X134249609Y-45105580D01*
X134535323Y-45105580D02*
X134535323Y-44105580D01*
X134440085Y-44248438D01*
X134344847Y-44343676D01*
X134249609Y-44391295D01*
D14*
%TO.C,conn26_0*%
X173453000Y-73790000D02*
X182573000Y-73790000D01*
X182573000Y-73790000D02*
X182573000Y-114690000D01*
X182573000Y-114690000D02*
X173453000Y-114690000D01*
X173453000Y-114690000D02*
X173453000Y-73790000D01*
X173453000Y-92190000D02*
X174763000Y-92190000D01*
X174763000Y-92190000D02*
X174763000Y-75090000D01*
X174763000Y-75090000D02*
X181263000Y-75090000D01*
X181263000Y-75090000D02*
X181263000Y-113390000D01*
X181263000Y-113390000D02*
X174763000Y-113390000D01*
X174763000Y-113390000D02*
X174763000Y-96290000D01*
X174763000Y-96290000D02*
X174763000Y-96290000D01*
X174763000Y-96290000D02*
X173453000Y-96290000D01*
%TO.C,conn26_1*%
X163050000Y-96290000D02*
X161740000Y-96290000D01*
X163050000Y-96290000D02*
X163050000Y-96290000D01*
X163050000Y-113390000D02*
X163050000Y-96290000D01*
X169550000Y-113390000D02*
X163050000Y-113390000D01*
X169550000Y-75090000D02*
X169550000Y-113390000D01*
X163050000Y-75090000D02*
X169550000Y-75090000D01*
X163050000Y-92190000D02*
X163050000Y-75090000D01*
X161740000Y-92190000D02*
X163050000Y-92190000D01*
X161740000Y-114690000D02*
X161740000Y-73790000D01*
X170860000Y-114690000D02*
X161740000Y-114690000D01*
X170860000Y-73790000D02*
X170860000Y-114690000D01*
X161740000Y-73790000D02*
X170860000Y-73790000D01*
%TO.C,Q0*%
X169690000Y-60847600D02*
X169690000Y-50607600D01*
X153800000Y-60847600D02*
X153800000Y-50607600D01*
X153800000Y-60847600D02*
X169690000Y-60847600D01*
X153800000Y-50607600D02*
X169690000Y-50607600D01*
X169690000Y-58267600D02*
X172230000Y-58267600D01*
X169690000Y-55727600D02*
X172230000Y-55727600D01*
X169690000Y-53187600D02*
X172230000Y-53187600D01*
%TO.C,pi_5V1*%
X119450000Y-51123200D02*
X121650000Y-51123200D01*
X121650000Y-51123200D02*
X121650000Y-52343200D01*
X121650000Y-52343200D02*
X113230000Y-52343200D01*
X113230000Y-52343200D02*
X113230000Y-44623200D01*
X113230000Y-44623200D02*
X121650000Y-44623200D01*
X121650000Y-44623200D02*
X121650000Y-45843200D01*
X121650000Y-45843200D02*
X119450000Y-45843200D01*
X114450000Y-52343200D02*
X114450000Y-51123200D01*
X114450000Y-51123200D02*
X119450000Y-51123200D01*
X119450000Y-51123200D02*
X119450000Y-52343200D01*
X114450000Y-44623200D02*
X114450000Y-45843200D01*
X114450000Y-45843200D02*
X119450000Y-45843200D01*
X119450000Y-45843200D02*
X119450000Y-44623200D01*
X118450000Y-51123200D02*
X118450000Y-45843200D01*
X118450000Y-49733200D02*
X118450000Y-50053200D01*
X118450000Y-50053200D02*
X115030000Y-50053200D01*
X115030000Y-50053200D02*
X114950000Y-49733200D01*
X114950000Y-49733200D02*
X115030000Y-49413200D01*
X115030000Y-49413200D02*
X118450000Y-49413200D01*
X118450000Y-49413200D02*
X118450000Y-49733200D01*
X119450000Y-48563200D02*
X119450000Y-48403200D01*
X118450000Y-47233200D02*
X118450000Y-47553200D01*
X118450000Y-47553200D02*
X115030000Y-47553200D01*
X115030000Y-47553200D02*
X114950000Y-47233200D01*
X114950000Y-47233200D02*
X115030000Y-46913200D01*
X115030000Y-46913200D02*
X118450000Y-46913200D01*
X118450000Y-46913200D02*
X118450000Y-47233200D01*
X121540000Y-49733200D02*
X122140000Y-50033200D01*
X122140000Y-50033200D02*
X122140000Y-49433200D01*
X122140000Y-49433200D02*
X121540000Y-49733200D01*
D15*
%TO.C,SW1*%
X118848000Y-69189600D02*
X122348000Y-69189600D01*
X118848000Y-73689600D02*
X122348000Y-73689600D01*
X120348000Y-73689600D02*
X120348000Y-72689600D01*
X120348000Y-72689600D02*
X119348000Y-71689600D01*
X120348000Y-71189600D02*
X120348000Y-69189600D01*
%TO.C,R1*%
X131698000Y-75464000D02*
X131698000Y-74264000D01*
X133448000Y-74264000D02*
X133448000Y-75464000D01*
%TO.C,R2*%
X148335000Y-75540200D02*
X148335000Y-74340200D01*
X150085000Y-74340200D02*
X150085000Y-75540200D01*
%TO.C,R3*%
X131698000Y-95784000D02*
X131698000Y-94584000D01*
X133448000Y-94584000D02*
X133448000Y-95784000D01*
%TO.C,R4*%
X148411000Y-95860200D02*
X148411000Y-94660200D01*
X150161000Y-94660200D02*
X150161000Y-95860200D01*
%TO.C,R5*%
X142205000Y-117766000D02*
X141005000Y-117766000D01*
X141005000Y-116016000D02*
X142205000Y-116016000D01*
D14*
%TO.C,P8*%
X125838000Y-106820000D02*
X125838000Y-109420000D01*
X111138000Y-106820000D02*
X125838000Y-106820000D01*
X125838000Y-116020000D02*
X123938000Y-116020000D01*
X125838000Y-113320000D02*
X125838000Y-116020000D01*
X111138000Y-116020000D02*
X111138000Y-106820000D01*
X119938000Y-116020000D02*
X111138000Y-116020000D01*
X124988000Y-106620000D02*
X126038000Y-106620000D01*
X126038000Y-107670000D02*
X126038000Y-106620000D01*
%TO.C,C1*%
X139576000Y-73980100D02*
G75*
G03*
X139576000Y-73980100I-2620000J0D01*
G01*
%TO.C,C2*%
X156609000Y-74051200D02*
G75*
G03*
X156609000Y-74051200I-2620000J0D01*
G01*
%TO.C,C3*%
X139672000Y-95778400D02*
G75*
G03*
X139672000Y-95778400I-2620000J0D01*
G01*
%TO.C,C4*%
X156253000Y-95778400D02*
G75*
G03*
X156253000Y-95778400I-2620000J0D01*
G01*
%TO.C,P10*%
X155432000Y-44009000D02*
X152772000Y-44009000D01*
X155432000Y-46609000D02*
X155432000Y-44009000D01*
X152772000Y-46609000D02*
X152772000Y-44009000D01*
X155432000Y-46609000D02*
X152772000Y-46609000D01*
X155432000Y-47879000D02*
X155432000Y-49209000D01*
X155432000Y-49209000D02*
X154102000Y-49209000D01*
%TO.C,R6*%
X168753422Y-48639800D02*
X169270578Y-48639800D01*
X168753422Y-47219800D02*
X169270578Y-47219800D01*
%TO.C,R7*%
X164104422Y-47219800D02*
X164621578Y-47219800D01*
X164104422Y-48639800D02*
X164621578Y-48639800D01*
%TO.C,l_pwr1*%
X175480000Y-52394000D02*
X179500000Y-52394000D01*
X179500000Y-52394000D02*
X179500000Y-44674000D01*
X179500000Y-44674000D02*
X175480000Y-44674000D01*
X175480000Y-44674000D02*
X175480000Y-52394000D01*
X177190000Y-52394000D02*
X177190000Y-51894000D01*
X177190000Y-51894000D02*
X175980000Y-51894000D01*
X175980000Y-51894000D02*
X175980000Y-45174000D01*
X175980000Y-45174000D02*
X177190000Y-45174000D01*
X177190000Y-45174000D02*
X177190000Y-44674000D01*
X178000000Y-52394000D02*
X178000000Y-51394000D01*
X178000000Y-51394000D02*
X179500000Y-51394000D01*
X178000000Y-44674000D02*
X178000000Y-45674000D01*
X178000000Y-45674000D02*
X179500000Y-45674000D01*
X177300000Y-52694000D02*
X179800000Y-52694000D01*
X179800000Y-52694000D02*
X179800000Y-50194000D01*
%TO.C,Pump1*%
X171740000Y-66135400D02*
X174240000Y-66135400D01*
X171740000Y-63635400D02*
X171740000Y-66135400D01*
X178760000Y-64335400D02*
X178760000Y-65835400D01*
X179760000Y-64335400D02*
X178760000Y-64335400D01*
X173040000Y-64335400D02*
X173040000Y-65835400D01*
X172040000Y-64335400D02*
X173040000Y-64335400D01*
X179260000Y-63525400D02*
X179760000Y-63525400D01*
X179260000Y-62315400D02*
X179260000Y-63525400D01*
X172540000Y-62315400D02*
X179260000Y-62315400D01*
X172540000Y-63525400D02*
X172540000Y-62315400D01*
X172040000Y-63525400D02*
X172540000Y-63525400D01*
X179760000Y-61815400D02*
X172040000Y-61815400D01*
X179760000Y-65835400D02*
X179760000Y-61815400D01*
X172040000Y-65835400D02*
X179760000Y-65835400D01*
X172040000Y-61815400D02*
X172040000Y-65835400D01*
%TO.C,MSA1*%
X156890000Y-112973000D02*
X156890000Y-107773000D01*
X151750000Y-112973000D02*
X156890000Y-112973000D01*
X149150000Y-107773000D02*
X156890000Y-107773000D01*
X151750000Y-112973000D02*
X151750000Y-110373000D01*
X151750000Y-110373000D02*
X149150000Y-110373000D01*
X149150000Y-110373000D02*
X149150000Y-107773000D01*
X150480000Y-112973000D02*
X149150000Y-112973000D01*
X149150000Y-112973000D02*
X149150000Y-111643000D01*
%TO.C,MSY1*%
X157245000Y-92475400D02*
X157245000Y-87275400D01*
X152105000Y-92475400D02*
X157245000Y-92475400D01*
X149505000Y-87275400D02*
X157245000Y-87275400D01*
X152105000Y-92475400D02*
X152105000Y-89875400D01*
X152105000Y-89875400D02*
X149505000Y-89875400D01*
X149505000Y-89875400D02*
X149505000Y-87275400D01*
X150835000Y-92475400D02*
X149505000Y-92475400D01*
X149505000Y-92475400D02*
X149505000Y-91145400D01*
%TO.C,MSZ1*%
X132513000Y-112999000D02*
X132513000Y-111669000D01*
X133843000Y-112999000D02*
X132513000Y-112999000D01*
X132513000Y-110399000D02*
X132513000Y-107799000D01*
X135113000Y-110399000D02*
X132513000Y-110399000D01*
X135113000Y-112999000D02*
X135113000Y-110399000D01*
X132513000Y-107799000D02*
X140253000Y-107799000D01*
X135113000Y-112999000D02*
X140253000Y-112999000D01*
X140253000Y-112999000D02*
X140253000Y-107799000D01*
%TO.C,MSX1*%
X140355000Y-92475400D02*
X140355000Y-87275400D01*
X135215000Y-92475400D02*
X140355000Y-92475400D01*
X132615000Y-87275400D02*
X140355000Y-87275400D01*
X135215000Y-92475400D02*
X135215000Y-89875400D01*
X135215000Y-89875400D02*
X132615000Y-89875400D01*
X132615000Y-89875400D02*
X132615000Y-87275400D01*
X133945000Y-92475400D02*
X132615000Y-92475400D01*
X132615000Y-92475400D02*
X132615000Y-91145400D01*
%TO.C,fan1*%
X117025000Y-81676400D02*
X117025000Y-79796400D01*
X120145000Y-78626400D02*
X120145000Y-79676400D01*
X118995000Y-78626400D02*
X120145000Y-78626400D01*
X120145000Y-81796400D02*
X121135000Y-81796400D01*
X120145000Y-82846400D02*
X120145000Y-81796400D01*
X118995000Y-82846400D02*
X120145000Y-82846400D01*
%TO.C,conn26_0*%
D15*
X175084428Y-73304761D02*
X174989190Y-73352380D01*
X174798714Y-73352380D01*
X174703476Y-73304761D01*
X174655857Y-73257142D01*
X174608238Y-73161904D01*
X174608238Y-72876190D01*
X174655857Y-72780952D01*
X174703476Y-72733333D01*
X174798714Y-72685714D01*
X174989190Y-72685714D01*
X175084428Y-72733333D01*
X175655857Y-73352380D02*
X175560619Y-73304761D01*
X175513000Y-73257142D01*
X175465380Y-73161904D01*
X175465380Y-72876190D01*
X175513000Y-72780952D01*
X175560619Y-72733333D01*
X175655857Y-72685714D01*
X175798714Y-72685714D01*
X175893952Y-72733333D01*
X175941571Y-72780952D01*
X175989190Y-72876190D01*
X175989190Y-73161904D01*
X175941571Y-73257142D01*
X175893952Y-73304761D01*
X175798714Y-73352380D01*
X175655857Y-73352380D01*
X176417761Y-72685714D02*
X176417761Y-73352380D01*
X176417761Y-72780952D02*
X176465380Y-72733333D01*
X176560619Y-72685714D01*
X176703476Y-72685714D01*
X176798714Y-72733333D01*
X176846333Y-72828571D01*
X176846333Y-73352380D01*
X177322523Y-72685714D02*
X177322523Y-73352380D01*
X177322523Y-72780952D02*
X177370142Y-72733333D01*
X177465380Y-72685714D01*
X177608238Y-72685714D01*
X177703476Y-72733333D01*
X177751095Y-72828571D01*
X177751095Y-73352380D01*
X178179666Y-72447619D02*
X178227285Y-72400000D01*
X178322523Y-72352380D01*
X178560619Y-72352380D01*
X178655857Y-72400000D01*
X178703476Y-72447619D01*
X178751095Y-72542857D01*
X178751095Y-72638095D01*
X178703476Y-72780952D01*
X178132047Y-73352380D01*
X178751095Y-73352380D01*
X179608238Y-72352380D02*
X179417761Y-72352380D01*
X179322523Y-72400000D01*
X179274904Y-72447619D01*
X179179666Y-72590476D01*
X179132047Y-72780952D01*
X179132047Y-73161904D01*
X179179666Y-73257142D01*
X179227285Y-73304761D01*
X179322523Y-73352380D01*
X179513000Y-73352380D01*
X179608238Y-73304761D01*
X179655857Y-73257142D01*
X179703476Y-73161904D01*
X179703476Y-72923809D01*
X179655857Y-72828571D01*
X179608238Y-72780952D01*
X179513000Y-72733333D01*
X179322523Y-72733333D01*
X179227285Y-72780952D01*
X179179666Y-72828571D01*
X179132047Y-72923809D01*
X179893952Y-73447619D02*
X180655857Y-73447619D01*
X181084428Y-72352380D02*
X181179666Y-72352380D01*
X181274904Y-72400000D01*
X181322523Y-72447619D01*
X181370142Y-72542857D01*
X181417761Y-72733333D01*
X181417761Y-72971428D01*
X181370142Y-73161904D01*
X181322523Y-73257142D01*
X181274904Y-73304761D01*
X181179666Y-73352380D01*
X181084428Y-73352380D01*
X180989190Y-73304761D01*
X180941571Y-73257142D01*
X180893952Y-73161904D01*
X180846333Y-72971428D01*
X180846333Y-72733333D01*
X180893952Y-72542857D01*
X180941571Y-72447619D01*
X180989190Y-72400000D01*
X181084428Y-72352380D01*
%TO.C,conn26_1*%
X163371428Y-73304761D02*
X163276190Y-73352380D01*
X163085714Y-73352380D01*
X162990476Y-73304761D01*
X162942857Y-73257142D01*
X162895238Y-73161904D01*
X162895238Y-72876190D01*
X162942857Y-72780952D01*
X162990476Y-72733333D01*
X163085714Y-72685714D01*
X163276190Y-72685714D01*
X163371428Y-72733333D01*
X163942857Y-73352380D02*
X163847619Y-73304761D01*
X163800000Y-73257142D01*
X163752380Y-73161904D01*
X163752380Y-72876190D01*
X163800000Y-72780952D01*
X163847619Y-72733333D01*
X163942857Y-72685714D01*
X164085714Y-72685714D01*
X164180952Y-72733333D01*
X164228571Y-72780952D01*
X164276190Y-72876190D01*
X164276190Y-73161904D01*
X164228571Y-73257142D01*
X164180952Y-73304761D01*
X164085714Y-73352380D01*
X163942857Y-73352380D01*
X164704761Y-72685714D02*
X164704761Y-73352380D01*
X164704761Y-72780952D02*
X164752380Y-72733333D01*
X164847619Y-72685714D01*
X164990476Y-72685714D01*
X165085714Y-72733333D01*
X165133333Y-72828571D01*
X165133333Y-73352380D01*
X165609523Y-72685714D02*
X165609523Y-73352380D01*
X165609523Y-72780952D02*
X165657142Y-72733333D01*
X165752380Y-72685714D01*
X165895238Y-72685714D01*
X165990476Y-72733333D01*
X166038095Y-72828571D01*
X166038095Y-73352380D01*
X166466666Y-72447619D02*
X166514285Y-72400000D01*
X166609523Y-72352380D01*
X166847619Y-72352380D01*
X166942857Y-72400000D01*
X166990476Y-72447619D01*
X167038095Y-72542857D01*
X167038095Y-72638095D01*
X166990476Y-72780952D01*
X166419047Y-73352380D01*
X167038095Y-73352380D01*
X167895238Y-72352380D02*
X167704761Y-72352380D01*
X167609523Y-72400000D01*
X167561904Y-72447619D01*
X167466666Y-72590476D01*
X167419047Y-72780952D01*
X167419047Y-73161904D01*
X167466666Y-73257142D01*
X167514285Y-73304761D01*
X167609523Y-73352380D01*
X167800000Y-73352380D01*
X167895238Y-73304761D01*
X167942857Y-73257142D01*
X167990476Y-73161904D01*
X167990476Y-72923809D01*
X167942857Y-72828571D01*
X167895238Y-72780952D01*
X167800000Y-72733333D01*
X167609523Y-72733333D01*
X167514285Y-72780952D01*
X167466666Y-72828571D01*
X167419047Y-72923809D01*
X168180952Y-73447619D02*
X168942857Y-73447619D01*
X169704761Y-73352380D02*
X169133333Y-73352380D01*
X169419047Y-73352380D02*
X169419047Y-72352380D01*
X169323809Y-72495238D01*
X169228571Y-72590476D01*
X169133333Y-72638095D01*
%TO.C,Q0*%
X153347619Y-55822838D02*
X153300000Y-55918076D01*
X153204761Y-56013314D01*
X153061904Y-56156171D01*
X153014285Y-56251409D01*
X153014285Y-56346647D01*
X153252380Y-56299028D02*
X153204761Y-56394266D01*
X153109523Y-56489504D01*
X152919047Y-56537123D01*
X152585714Y-56537123D01*
X152395238Y-56489504D01*
X152300000Y-56394266D01*
X152252380Y-56299028D01*
X152252380Y-56108552D01*
X152300000Y-56013314D01*
X152395238Y-55918076D01*
X152585714Y-55870457D01*
X152919047Y-55870457D01*
X153109523Y-55918076D01*
X153204761Y-56013314D01*
X153252380Y-56108552D01*
X153252380Y-56299028D01*
X152252380Y-55251409D02*
X152252380Y-55156171D01*
X152300000Y-55060933D01*
X152347619Y-55013314D01*
X152442857Y-54965695D01*
X152633333Y-54918076D01*
X152871428Y-54918076D01*
X153061904Y-54965695D01*
X153157142Y-55013314D01*
X153204761Y-55060933D01*
X153252380Y-55156171D01*
X153252380Y-55251409D01*
X153204761Y-55346647D01*
X153157142Y-55394266D01*
X153061904Y-55441885D01*
X152871428Y-55489504D01*
X152633333Y-55489504D01*
X152442857Y-55441885D01*
X152347619Y-55394266D01*
X152300000Y-55346647D01*
X152252380Y-55251409D01*
%TO.C,pi_5V1*%
X115285714Y-53328914D02*
X115285714Y-54328914D01*
X115285714Y-53376533D02*
X115380952Y-53328914D01*
X115571428Y-53328914D01*
X115666666Y-53376533D01*
X115714285Y-53424152D01*
X115761904Y-53519390D01*
X115761904Y-53805104D01*
X115714285Y-53900342D01*
X115666666Y-53947961D01*
X115571428Y-53995580D01*
X115380952Y-53995580D01*
X115285714Y-53947961D01*
X116190476Y-53995580D02*
X116190476Y-53328914D01*
X116190476Y-52995580D02*
X116142857Y-53043200D01*
X116190476Y-53090819D01*
X116238095Y-53043200D01*
X116190476Y-52995580D01*
X116190476Y-53090819D01*
X116428571Y-54090819D02*
X117190476Y-54090819D01*
X117904761Y-52995580D02*
X117428571Y-52995580D01*
X117380952Y-53471771D01*
X117428571Y-53424152D01*
X117523809Y-53376533D01*
X117761904Y-53376533D01*
X117857142Y-53424152D01*
X117904761Y-53471771D01*
X117952380Y-53567009D01*
X117952380Y-53805104D01*
X117904761Y-53900342D01*
X117857142Y-53947961D01*
X117761904Y-53995580D01*
X117523809Y-53995580D01*
X117428571Y-53947961D01*
X117380952Y-53900342D01*
X118238095Y-52995580D02*
X118571428Y-53995580D01*
X118904761Y-52995580D01*
X119761904Y-53995580D02*
X119190476Y-53995580D01*
X119476190Y-53995580D02*
X119476190Y-52995580D01*
X119380952Y-53138438D01*
X119285714Y-53233676D01*
X119190476Y-53281295D01*
%TO.C,SW1*%
X119261119Y-67855480D02*
X118927785Y-67379290D01*
X118689690Y-67855480D02*
X118689690Y-66855480D01*
X119070642Y-66855480D01*
X119165880Y-66903100D01*
X119213500Y-66950719D01*
X119261119Y-67045957D01*
X119261119Y-67188814D01*
X119213500Y-67284052D01*
X119165880Y-67331671D01*
X119070642Y-67379290D01*
X118689690Y-67379290D01*
X119689690Y-67331671D02*
X120023023Y-67331671D01*
X120165880Y-67855480D02*
X119689690Y-67855480D01*
X119689690Y-66855480D01*
X120165880Y-66855480D01*
X120546833Y-67807861D02*
X120689690Y-67855480D01*
X120927785Y-67855480D01*
X121023023Y-67807861D01*
X121070642Y-67760242D01*
X121118261Y-67665004D01*
X121118261Y-67569766D01*
X121070642Y-67474528D01*
X121023023Y-67426909D01*
X120927785Y-67379290D01*
X120737309Y-67331671D01*
X120642071Y-67284052D01*
X120594452Y-67236433D01*
X120546833Y-67141195D01*
X120546833Y-67045957D01*
X120594452Y-66950719D01*
X120642071Y-66903100D01*
X120737309Y-66855480D01*
X120975404Y-66855480D01*
X121118261Y-66903100D01*
X121546833Y-67331671D02*
X121880166Y-67331671D01*
X122023023Y-67855480D02*
X121546833Y-67855480D01*
X121546833Y-66855480D01*
X122023023Y-66855480D01*
X122308738Y-66855480D02*
X122880166Y-66855480D01*
X122594452Y-67855480D02*
X122594452Y-66855480D01*
%TO.C,R1*%
X133025380Y-77951666D02*
X132549190Y-78285000D01*
X133025380Y-78523095D02*
X132025380Y-78523095D01*
X132025380Y-78142142D01*
X132073000Y-78046904D01*
X132120619Y-77999285D01*
X132215857Y-77951666D01*
X132358714Y-77951666D01*
X132453952Y-77999285D01*
X132501571Y-78046904D01*
X132549190Y-78142142D01*
X132549190Y-78523095D01*
X133025380Y-76999285D02*
X133025380Y-77570714D01*
X133025380Y-77285000D02*
X132025380Y-77285000D01*
X132168238Y-77380238D01*
X132263476Y-77475476D01*
X132311095Y-77570714D01*
%TO.C,R2*%
X149789380Y-78154866D02*
X149313190Y-78488200D01*
X149789380Y-78726295D02*
X148789380Y-78726295D01*
X148789380Y-78345342D01*
X148837000Y-78250104D01*
X148884619Y-78202485D01*
X148979857Y-78154866D01*
X149122714Y-78154866D01*
X149217952Y-78202485D01*
X149265571Y-78250104D01*
X149313190Y-78345342D01*
X149313190Y-78726295D01*
X148884619Y-77773914D02*
X148837000Y-77726295D01*
X148789380Y-77631057D01*
X148789380Y-77392961D01*
X148837000Y-77297723D01*
X148884619Y-77250104D01*
X148979857Y-77202485D01*
X149075095Y-77202485D01*
X149217952Y-77250104D01*
X149789380Y-77821533D01*
X149789380Y-77202485D01*
%TO.C,R3*%
X133152380Y-98398666D02*
X132676190Y-98732000D01*
X133152380Y-98970095D02*
X132152380Y-98970095D01*
X132152380Y-98589142D01*
X132200000Y-98493904D01*
X132247619Y-98446285D01*
X132342857Y-98398666D01*
X132485714Y-98398666D01*
X132580952Y-98446285D01*
X132628571Y-98493904D01*
X132676190Y-98589142D01*
X132676190Y-98970095D01*
X132152380Y-98065333D02*
X132152380Y-97446285D01*
X132533333Y-97779619D01*
X132533333Y-97636761D01*
X132580952Y-97541523D01*
X132628571Y-97493904D01*
X132723809Y-97446285D01*
X132961904Y-97446285D01*
X133057142Y-97493904D01*
X133104761Y-97541523D01*
X133152380Y-97636761D01*
X133152380Y-97922476D01*
X133104761Y-98017714D01*
X133057142Y-98065333D01*
%TO.C,R4*%
X149865380Y-98474866D02*
X149389190Y-98808200D01*
X149865380Y-99046295D02*
X148865380Y-99046295D01*
X148865380Y-98665342D01*
X148913000Y-98570104D01*
X148960619Y-98522485D01*
X149055857Y-98474866D01*
X149198714Y-98474866D01*
X149293952Y-98522485D01*
X149341571Y-98570104D01*
X149389190Y-98665342D01*
X149389190Y-99046295D01*
X149198714Y-97617723D02*
X149865380Y-97617723D01*
X148817761Y-97855819D02*
X149532047Y-98093914D01*
X149532047Y-97474866D01*
%TO.C,R5*%
X141438333Y-115501880D02*
X141105000Y-115025690D01*
X140866904Y-115501880D02*
X140866904Y-114501880D01*
X141247857Y-114501880D01*
X141343095Y-114549500D01*
X141390714Y-114597119D01*
X141438333Y-114692357D01*
X141438333Y-114835214D01*
X141390714Y-114930452D01*
X141343095Y-114978071D01*
X141247857Y-115025690D01*
X140866904Y-115025690D01*
X142343095Y-114501880D02*
X141866904Y-114501880D01*
X141819285Y-114978071D01*
X141866904Y-114930452D01*
X141962142Y-114882833D01*
X142200238Y-114882833D01*
X142295476Y-114930452D01*
X142343095Y-114978071D01*
X142390714Y-115073309D01*
X142390714Y-115311404D01*
X142343095Y-115406642D01*
X142295476Y-115454261D01*
X142200238Y-115501880D01*
X141962142Y-115501880D01*
X141866904Y-115454261D01*
X141819285Y-115406642D01*
X144533880Y-117581476D02*
X144533880Y-118152904D01*
X144533880Y-117867190D02*
X143533880Y-117867190D01*
X143676738Y-117962428D01*
X143771976Y-118057666D01*
X143819595Y-118152904D01*
X143533880Y-116962428D02*
X143533880Y-116867190D01*
X143581500Y-116771952D01*
X143629119Y-116724333D01*
X143724357Y-116676714D01*
X143914833Y-116629095D01*
X144152928Y-116629095D01*
X144343404Y-116676714D01*
X144438642Y-116724333D01*
X144486261Y-116771952D01*
X144533880Y-116867190D01*
X144533880Y-116962428D01*
X144486261Y-117057666D01*
X144438642Y-117105285D01*
X144343404Y-117152904D01*
X144152928Y-117200523D01*
X143914833Y-117200523D01*
X143724357Y-117152904D01*
X143629119Y-117105285D01*
X143581500Y-117057666D01*
X143533880Y-116962428D01*
X144533880Y-116200523D02*
X143533880Y-116200523D01*
X144533880Y-115629095D02*
X143962452Y-116057666D01*
X143533880Y-115629095D02*
X144105309Y-116200523D01*
%TO.C,P8*%
X115749904Y-117622380D02*
X115749904Y-116622380D01*
X116130857Y-116622380D01*
X116226095Y-116670000D01*
X116273714Y-116717619D01*
X116321333Y-116812857D01*
X116321333Y-116955714D01*
X116273714Y-117050952D01*
X116226095Y-117098571D01*
X116130857Y-117146190D01*
X115749904Y-117146190D01*
X116892761Y-117050952D02*
X116797523Y-117003333D01*
X116749904Y-116955714D01*
X116702285Y-116860476D01*
X116702285Y-116812857D01*
X116749904Y-116717619D01*
X116797523Y-116670000D01*
X116892761Y-116622380D01*
X117083238Y-116622380D01*
X117178476Y-116670000D01*
X117226095Y-116717619D01*
X117273714Y-116812857D01*
X117273714Y-116860476D01*
X117226095Y-116955714D01*
X117178476Y-117003333D01*
X117083238Y-117050952D01*
X116892761Y-117050952D01*
X116797523Y-117098571D01*
X116749904Y-117146190D01*
X116702285Y-117241428D01*
X116702285Y-117431904D01*
X116749904Y-117527142D01*
X116797523Y-117574761D01*
X116892761Y-117622380D01*
X117083238Y-117622380D01*
X117178476Y-117574761D01*
X117226095Y-117527142D01*
X117273714Y-117431904D01*
X117273714Y-117241428D01*
X117226095Y-117146190D01*
X117178476Y-117098571D01*
X117083238Y-117050952D01*
%TO.C,C1*%
X136780213Y-72620182D02*
X136732594Y-72667801D01*
X136589737Y-72715420D01*
X136494499Y-72715420D01*
X136351641Y-72667801D01*
X136256403Y-72572563D01*
X136208784Y-72477325D01*
X136161165Y-72286849D01*
X136161165Y-72143992D01*
X136208784Y-71953516D01*
X136256403Y-71858278D01*
X136351641Y-71763040D01*
X136494499Y-71715420D01*
X136589737Y-71715420D01*
X136732594Y-71763040D01*
X136780213Y-71810659D01*
X137732594Y-72715420D02*
X137161165Y-72715420D01*
X137446880Y-72715420D02*
X137446880Y-71715420D01*
X137351641Y-71858278D01*
X137256403Y-71953516D01*
X137161165Y-72001135D01*
%TO.C,C2*%
X153914653Y-72574462D02*
X153867034Y-72622081D01*
X153724177Y-72669700D01*
X153628939Y-72669700D01*
X153486081Y-72622081D01*
X153390843Y-72526843D01*
X153343224Y-72431605D01*
X153295605Y-72241129D01*
X153295605Y-72098272D01*
X153343224Y-71907796D01*
X153390843Y-71812558D01*
X153486081Y-71717320D01*
X153628939Y-71669700D01*
X153724177Y-71669700D01*
X153867034Y-71717320D01*
X153914653Y-71764939D01*
X154295605Y-71764939D02*
X154343224Y-71717320D01*
X154438462Y-71669700D01*
X154676558Y-71669700D01*
X154771796Y-71717320D01*
X154819415Y-71764939D01*
X154867034Y-71860177D01*
X154867034Y-71955415D01*
X154819415Y-72098272D01*
X154247986Y-72669700D01*
X154867034Y-72669700D01*
%TO.C,C3*%
X136912293Y-94245742D02*
X136864674Y-94293361D01*
X136721817Y-94340980D01*
X136626579Y-94340980D01*
X136483721Y-94293361D01*
X136388483Y-94198123D01*
X136340864Y-94102885D01*
X136293245Y-93912409D01*
X136293245Y-93769552D01*
X136340864Y-93579076D01*
X136388483Y-93483838D01*
X136483721Y-93388600D01*
X136626579Y-93340980D01*
X136721817Y-93340980D01*
X136864674Y-93388600D01*
X136912293Y-93436219D01*
X137245626Y-93340980D02*
X137864674Y-93340980D01*
X137531340Y-93721933D01*
X137674198Y-93721933D01*
X137769436Y-93769552D01*
X137817055Y-93817171D01*
X137864674Y-93912409D01*
X137864674Y-94150504D01*
X137817055Y-94245742D01*
X137769436Y-94293361D01*
X137674198Y-94340980D01*
X137388483Y-94340980D01*
X137293245Y-94293361D01*
X137245626Y-94245742D01*
%TO.C,C4*%
X153528573Y-94159382D02*
X153480954Y-94207001D01*
X153338097Y-94254620D01*
X153242859Y-94254620D01*
X153100001Y-94207001D01*
X153004763Y-94111763D01*
X152957144Y-94016525D01*
X152909525Y-93826049D01*
X152909525Y-93683192D01*
X152957144Y-93492716D01*
X153004763Y-93397478D01*
X153100001Y-93302240D01*
X153242859Y-93254620D01*
X153338097Y-93254620D01*
X153480954Y-93302240D01*
X153528573Y-93349859D01*
X154385716Y-93587954D02*
X154385716Y-94254620D01*
X154147620Y-93207001D02*
X153909525Y-93921287D01*
X154528573Y-93921287D01*
%TO.C,P10*%
X151805900Y-49128845D02*
X150805900Y-49128845D01*
X150805900Y-48747893D01*
X150853520Y-48652655D01*
X150901139Y-48605036D01*
X150996377Y-48557417D01*
X151139234Y-48557417D01*
X151234472Y-48605036D01*
X151282091Y-48652655D01*
X151329710Y-48747893D01*
X151329710Y-49128845D01*
X151805900Y-47605036D02*
X151805900Y-48176464D01*
X151805900Y-47890750D02*
X150805900Y-47890750D01*
X150948758Y-47985988D01*
X151043996Y-48081226D01*
X151091615Y-48176464D01*
X150805900Y-46985988D02*
X150805900Y-46890750D01*
X150853520Y-46795512D01*
X150901139Y-46747893D01*
X150996377Y-46700274D01*
X151186853Y-46652655D01*
X151424948Y-46652655D01*
X151615424Y-46700274D01*
X151710662Y-46747893D01*
X151758281Y-46795512D01*
X151805900Y-46890750D01*
X151805900Y-46985988D01*
X151758281Y-47081226D01*
X151710662Y-47128845D01*
X151615424Y-47176464D01*
X151424948Y-47224083D01*
X151186853Y-47224083D01*
X150996377Y-47176464D01*
X150901139Y-47128845D01*
X150853520Y-47081226D01*
X150805900Y-46985988D01*
%TO.C,R6*%
X168845333Y-46732180D02*
X168512000Y-46255990D01*
X168273904Y-46732180D02*
X168273904Y-45732180D01*
X168654857Y-45732180D01*
X168750095Y-45779800D01*
X168797714Y-45827419D01*
X168845333Y-45922657D01*
X168845333Y-46065514D01*
X168797714Y-46160752D01*
X168750095Y-46208371D01*
X168654857Y-46255990D01*
X168273904Y-46255990D01*
X169702476Y-45732180D02*
X169512000Y-45732180D01*
X169416761Y-45779800D01*
X169369142Y-45827419D01*
X169273904Y-45970276D01*
X169226285Y-46160752D01*
X169226285Y-46541704D01*
X169273904Y-46636942D01*
X169321523Y-46684561D01*
X169416761Y-46732180D01*
X169607238Y-46732180D01*
X169702476Y-46684561D01*
X169750095Y-46636942D01*
X169797714Y-46541704D01*
X169797714Y-46303609D01*
X169750095Y-46208371D01*
X169702476Y-46160752D01*
X169607238Y-46113133D01*
X169416761Y-46113133D01*
X169321523Y-46160752D01*
X169273904Y-46208371D01*
X169226285Y-46303609D01*
%TO.C,R7*%
X164196333Y-46732180D02*
X163863000Y-46255990D01*
X163624904Y-46732180D02*
X163624904Y-45732180D01*
X164005857Y-45732180D01*
X164101095Y-45779800D01*
X164148714Y-45827419D01*
X164196333Y-45922657D01*
X164196333Y-46065514D01*
X164148714Y-46160752D01*
X164101095Y-46208371D01*
X164005857Y-46255990D01*
X163624904Y-46255990D01*
X164529666Y-45732180D02*
X165196333Y-45732180D01*
X164767761Y-46732180D01*
%TO.C,l_pwr1*%
X174842380Y-50557809D02*
X174794761Y-50653047D01*
X174699523Y-50700666D01*
X173842380Y-50700666D01*
X174937619Y-50414952D02*
X174937619Y-49653047D01*
X174175714Y-49414952D02*
X175175714Y-49414952D01*
X174223333Y-49414952D02*
X174175714Y-49319714D01*
X174175714Y-49129238D01*
X174223333Y-49034000D01*
X174270952Y-48986380D01*
X174366190Y-48938761D01*
X174651904Y-48938761D01*
X174747142Y-48986380D01*
X174794761Y-49034000D01*
X174842380Y-49129238D01*
X174842380Y-49319714D01*
X174794761Y-49414952D01*
X174175714Y-48605428D02*
X174842380Y-48414952D01*
X174366190Y-48224476D01*
X174842380Y-48034000D01*
X174175714Y-47843523D01*
X174842380Y-47462571D02*
X174175714Y-47462571D01*
X174366190Y-47462571D02*
X174270952Y-47414952D01*
X174223333Y-47367333D01*
X174175714Y-47272095D01*
X174175714Y-47176857D01*
X174842380Y-46319714D02*
X174842380Y-46891142D01*
X174842380Y-46605428D02*
X173842380Y-46605428D01*
X173985238Y-46700666D01*
X174080476Y-46795904D01*
X174128095Y-46891142D01*
%TO.C,Pump1*%
X173590476Y-61177780D02*
X173590476Y-60177780D01*
X173971428Y-60177780D01*
X174066666Y-60225400D01*
X174114285Y-60273019D01*
X174161904Y-60368257D01*
X174161904Y-60511114D01*
X174114285Y-60606352D01*
X174066666Y-60653971D01*
X173971428Y-60701590D01*
X173590476Y-60701590D01*
X175019047Y-60511114D02*
X175019047Y-61177780D01*
X174590476Y-60511114D02*
X174590476Y-61034923D01*
X174638095Y-61130161D01*
X174733333Y-61177780D01*
X174876190Y-61177780D01*
X174971428Y-61130161D01*
X175019047Y-61082542D01*
X175495238Y-61177780D02*
X175495238Y-60511114D01*
X175495238Y-60606352D02*
X175542857Y-60558733D01*
X175638095Y-60511114D01*
X175780952Y-60511114D01*
X175876190Y-60558733D01*
X175923809Y-60653971D01*
X175923809Y-61177780D01*
X175923809Y-60653971D02*
X175971428Y-60558733D01*
X176066666Y-60511114D01*
X176209523Y-60511114D01*
X176304761Y-60558733D01*
X176352380Y-60653971D01*
X176352380Y-61177780D01*
X176828571Y-60511114D02*
X176828571Y-61511114D01*
X176828571Y-60558733D02*
X176923809Y-60511114D01*
X177114285Y-60511114D01*
X177209523Y-60558733D01*
X177257142Y-60606352D01*
X177304761Y-60701590D01*
X177304761Y-60987304D01*
X177257142Y-61082542D01*
X177209523Y-61130161D01*
X177114285Y-61177780D01*
X176923809Y-61177780D01*
X176828571Y-61130161D01*
X178257142Y-61177780D02*
X177685714Y-61177780D01*
X177971428Y-61177780D02*
X177971428Y-60177780D01*
X177876190Y-60320638D01*
X177780952Y-60415876D01*
X177685714Y-60463495D01*
%TO.C,MSA1*%
X151673571Y-107422944D02*
X151673571Y-106622944D01*
X151940238Y-107194373D01*
X152206904Y-106622944D01*
X152206904Y-107422944D01*
X152549761Y-107384849D02*
X152664047Y-107422944D01*
X152854523Y-107422944D01*
X152930714Y-107384849D01*
X152968809Y-107346754D01*
X153006904Y-107270563D01*
X153006904Y-107194373D01*
X152968809Y-107118182D01*
X152930714Y-107080087D01*
X152854523Y-107041992D01*
X152702142Y-107003897D01*
X152625952Y-106965801D01*
X152587857Y-106927706D01*
X152549761Y-106851516D01*
X152549761Y-106775325D01*
X152587857Y-106699135D01*
X152625952Y-106661040D01*
X152702142Y-106622944D01*
X152892619Y-106622944D01*
X153006904Y-106661040D01*
X153311666Y-107194373D02*
X153692619Y-107194373D01*
X153235476Y-107422944D02*
X153502142Y-106622944D01*
X153768809Y-107422944D01*
X154454523Y-107422944D02*
X153997380Y-107422944D01*
X154225952Y-107422944D02*
X154225952Y-106622944D01*
X154149761Y-106737230D01*
X154073571Y-106813420D01*
X153997380Y-106851516D01*
%TO.C,MSY1*%
X151805651Y-87067384D02*
X151805651Y-86267384D01*
X152072318Y-86838813D01*
X152338984Y-86267384D01*
X152338984Y-87067384D01*
X152681841Y-87029289D02*
X152796127Y-87067384D01*
X152986603Y-87067384D01*
X153062794Y-87029289D01*
X153100889Y-86991194D01*
X153138984Y-86915003D01*
X153138984Y-86838813D01*
X153100889Y-86762622D01*
X153062794Y-86724527D01*
X152986603Y-86686432D01*
X152834222Y-86648337D01*
X152758032Y-86610241D01*
X152719937Y-86572146D01*
X152681841Y-86495956D01*
X152681841Y-86419765D01*
X152719937Y-86343575D01*
X152758032Y-86305480D01*
X152834222Y-86267384D01*
X153024699Y-86267384D01*
X153138984Y-86305480D01*
X153634222Y-86686432D02*
X153634222Y-87067384D01*
X153367556Y-86267384D02*
X153634222Y-86686432D01*
X153900889Y-86267384D01*
X154586603Y-87067384D02*
X154129460Y-87067384D01*
X154358032Y-87067384D02*
X154358032Y-86267384D01*
X154281841Y-86381670D01*
X154205651Y-86457860D01*
X154129460Y-86495956D01*
%TO.C,MSZ1*%
X134805836Y-107509304D02*
X134805836Y-106709304D01*
X135072502Y-107280733D01*
X135339169Y-106709304D01*
X135339169Y-107509304D01*
X135682026Y-107471209D02*
X135796312Y-107509304D01*
X135986788Y-107509304D01*
X136062979Y-107471209D01*
X136101074Y-107433114D01*
X136139169Y-107356923D01*
X136139169Y-107280733D01*
X136101074Y-107204542D01*
X136062979Y-107166447D01*
X135986788Y-107128352D01*
X135834407Y-107090257D01*
X135758217Y-107052161D01*
X135720121Y-107014066D01*
X135682026Y-106937876D01*
X135682026Y-106861685D01*
X135720121Y-106785495D01*
X135758217Y-106747400D01*
X135834407Y-106709304D01*
X136024883Y-106709304D01*
X136139169Y-106747400D01*
X136405836Y-106709304D02*
X136939169Y-106709304D01*
X136405836Y-107509304D01*
X136939169Y-107509304D01*
X137662979Y-107509304D02*
X137205836Y-107509304D01*
X137434407Y-107509304D02*
X137434407Y-106709304D01*
X137358217Y-106823590D01*
X137282026Y-106899780D01*
X137205836Y-106937876D01*
%TO.C,MSX1*%
X134155596Y-87026744D02*
X134155596Y-86226744D01*
X134422262Y-86798173D01*
X134688929Y-86226744D01*
X134688929Y-87026744D01*
X135031786Y-86988649D02*
X135146072Y-87026744D01*
X135336548Y-87026744D01*
X135412739Y-86988649D01*
X135450834Y-86950554D01*
X135488929Y-86874363D01*
X135488929Y-86798173D01*
X135450834Y-86721982D01*
X135412739Y-86683887D01*
X135336548Y-86645792D01*
X135184167Y-86607697D01*
X135107977Y-86569601D01*
X135069881Y-86531506D01*
X135031786Y-86455316D01*
X135031786Y-86379125D01*
X135069881Y-86302935D01*
X135107977Y-86264840D01*
X135184167Y-86226744D01*
X135374643Y-86226744D01*
X135488929Y-86264840D01*
X135755596Y-86226744D02*
X136288929Y-87026744D01*
X136288929Y-86226744D02*
X135755596Y-87026744D01*
X137012739Y-87026744D02*
X136555596Y-87026744D01*
X136784167Y-87026744D02*
X136784167Y-86226744D01*
X136707977Y-86341030D01*
X136631786Y-86417220D01*
X136555596Y-86455316D01*
%TO.C,MP1584EN_DC-DC1*%
D16*
X130440761Y-55166390D02*
X130440761Y-54666390D01*
X130607428Y-55023533D01*
X130774095Y-54666390D01*
X130774095Y-55166390D01*
X131012190Y-55166390D02*
X131012190Y-54666390D01*
X131202666Y-54666390D01*
X131250285Y-54690200D01*
X131274095Y-54714009D01*
X131297904Y-54761628D01*
X131297904Y-54833057D01*
X131274095Y-54880676D01*
X131250285Y-54904485D01*
X131202666Y-54928295D01*
X131012190Y-54928295D01*
X131774095Y-55166390D02*
X131488380Y-55166390D01*
X131631238Y-55166390D02*
X131631238Y-54666390D01*
X131583619Y-54737819D01*
X131536000Y-54785438D01*
X131488380Y-54809247D01*
X132226476Y-54666390D02*
X131988380Y-54666390D01*
X131964571Y-54904485D01*
X131988380Y-54880676D01*
X132036000Y-54856866D01*
X132155047Y-54856866D01*
X132202666Y-54880676D01*
X132226476Y-54904485D01*
X132250285Y-54952104D01*
X132250285Y-55071152D01*
X132226476Y-55118771D01*
X132202666Y-55142580D01*
X132155047Y-55166390D01*
X132036000Y-55166390D01*
X131988380Y-55142580D01*
X131964571Y-55118771D01*
X132536000Y-54880676D02*
X132488380Y-54856866D01*
X132464571Y-54833057D01*
X132440761Y-54785438D01*
X132440761Y-54761628D01*
X132464571Y-54714009D01*
X132488380Y-54690200D01*
X132536000Y-54666390D01*
X132631238Y-54666390D01*
X132678857Y-54690200D01*
X132702666Y-54714009D01*
X132726476Y-54761628D01*
X132726476Y-54785438D01*
X132702666Y-54833057D01*
X132678857Y-54856866D01*
X132631238Y-54880676D01*
X132536000Y-54880676D01*
X132488380Y-54904485D01*
X132464571Y-54928295D01*
X132440761Y-54975914D01*
X132440761Y-55071152D01*
X132464571Y-55118771D01*
X132488380Y-55142580D01*
X132536000Y-55166390D01*
X132631238Y-55166390D01*
X132678857Y-55142580D01*
X132702666Y-55118771D01*
X132726476Y-55071152D01*
X132726476Y-54975914D01*
X132702666Y-54928295D01*
X132678857Y-54904485D01*
X132631238Y-54880676D01*
X133155047Y-54833057D02*
X133155047Y-55166390D01*
X133036000Y-54642580D02*
X132916952Y-54999723D01*
X133226476Y-54999723D01*
X133416952Y-54904485D02*
X133583619Y-54904485D01*
X133655047Y-55166390D02*
X133416952Y-55166390D01*
X133416952Y-54666390D01*
X133655047Y-54666390D01*
X133869333Y-55166390D02*
X133869333Y-54666390D01*
X134155047Y-55166390D01*
X134155047Y-54666390D01*
X134274095Y-55214009D02*
X134655047Y-55214009D01*
X134774095Y-55166390D02*
X134774095Y-54666390D01*
X134893142Y-54666390D01*
X134964571Y-54690200D01*
X135012190Y-54737819D01*
X135036000Y-54785438D01*
X135059809Y-54880676D01*
X135059809Y-54952104D01*
X135036000Y-55047342D01*
X135012190Y-55094961D01*
X134964571Y-55142580D01*
X134893142Y-55166390D01*
X134774095Y-55166390D01*
X135559809Y-55118771D02*
X135536000Y-55142580D01*
X135464571Y-55166390D01*
X135416952Y-55166390D01*
X135345523Y-55142580D01*
X135297904Y-55094961D01*
X135274095Y-55047342D01*
X135250285Y-54952104D01*
X135250285Y-54880676D01*
X135274095Y-54785438D01*
X135297904Y-54737819D01*
X135345523Y-54690200D01*
X135416952Y-54666390D01*
X135464571Y-54666390D01*
X135536000Y-54690200D01*
X135559809Y-54714009D01*
X135774095Y-54975914D02*
X136155047Y-54975914D01*
X136393142Y-55166390D02*
X136393142Y-54666390D01*
X136512190Y-54666390D01*
X136583619Y-54690200D01*
X136631238Y-54737819D01*
X136655047Y-54785438D01*
X136678857Y-54880676D01*
X136678857Y-54952104D01*
X136655047Y-55047342D01*
X136631238Y-55094961D01*
X136583619Y-55142580D01*
X136512190Y-55166390D01*
X136393142Y-55166390D01*
X137178857Y-55118771D02*
X137155047Y-55142580D01*
X137083619Y-55166390D01*
X137036000Y-55166390D01*
X136964571Y-55142580D01*
X136916952Y-55094961D01*
X136893142Y-55047342D01*
X136869333Y-54952104D01*
X136869333Y-54880676D01*
X136893142Y-54785438D01*
X136916952Y-54737819D01*
X136964571Y-54690200D01*
X137036000Y-54666390D01*
X137083619Y-54666390D01*
X137155047Y-54690200D01*
X137178857Y-54714009D01*
X137655047Y-55166390D02*
X137369333Y-55166390D01*
X137512190Y-55166390D02*
X137512190Y-54666390D01*
X137464571Y-54737819D01*
X137416952Y-54785438D01*
X137369333Y-54809247D01*
%TO.C,fan1*%
D15*
X115520714Y-82307828D02*
X115520714Y-81926876D01*
X116187380Y-82164971D02*
X115330238Y-82164971D01*
X115235000Y-82117352D01*
X115187380Y-82022114D01*
X115187380Y-81926876D01*
X116187380Y-81164971D02*
X115663571Y-81164971D01*
X115568333Y-81212590D01*
X115520714Y-81307828D01*
X115520714Y-81498304D01*
X115568333Y-81593542D01*
X116139761Y-81164971D02*
X116187380Y-81260209D01*
X116187380Y-81498304D01*
X116139761Y-81593542D01*
X116044523Y-81641161D01*
X115949285Y-81641161D01*
X115854047Y-81593542D01*
X115806428Y-81498304D01*
X115806428Y-81260209D01*
X115758809Y-81164971D01*
X115520714Y-80688780D02*
X116187380Y-80688780D01*
X115615952Y-80688780D02*
X115568333Y-80641161D01*
X115520714Y-80545923D01*
X115520714Y-80403066D01*
X115568333Y-80307828D01*
X115663571Y-80260209D01*
X116187380Y-80260209D01*
X116187380Y-79260209D02*
X116187380Y-79831638D01*
X116187380Y-79545923D02*
X115187380Y-79545923D01*
X115330238Y-79641161D01*
X115425476Y-79736400D01*
X115473095Y-79831638D01*
%TD*%
%LPC*%
D17*
%TO.C,conn26_0*%
X179283000Y-109480000D03*
X179283000Y-106940000D03*
X179283000Y-104400000D03*
X179283000Y-101860000D03*
X179283000Y-99320000D03*
X179283000Y-96780000D03*
X179283000Y-94240000D03*
X179283000Y-91700000D03*
X179283000Y-89160000D03*
X179283000Y-86620000D03*
X179283000Y-84080000D03*
X179283000Y-81540000D03*
X179283000Y-79000000D03*
X176743000Y-109480000D03*
X176743000Y-106940000D03*
X176743000Y-104400000D03*
X176743000Y-101860000D03*
X176743000Y-99320000D03*
X176743000Y-96780000D03*
X176743000Y-94240000D03*
X176743000Y-91700000D03*
X176743000Y-89160000D03*
X176743000Y-86620000D03*
X176743000Y-84080000D03*
X176743000Y-81540000D03*
G36*
G01*
X175893000Y-79600000D02*
X175893000Y-78400000D01*
G75*
G02*
X176143000Y-78150000I250000J0D01*
G01*
X177343000Y-78150000D01*
G75*
G02*
X177593000Y-78400000I0J-250000D01*
G01*
X177593000Y-79600000D01*
G75*
G02*
X177343000Y-79850000I-250000J0D01*
G01*
X176143000Y-79850000D01*
G75*
G02*
X175893000Y-79600000I0J250000D01*
G01*
G37*
%TD*%
%TO.C,conn26_1*%
G36*
G01*
X164180000Y-79600000D02*
X164180000Y-78400000D01*
G75*
G02*
X164430000Y-78150000I250000J0D01*
G01*
X165630000Y-78150000D01*
G75*
G02*
X165880000Y-78400000I0J-250000D01*
G01*
X165880000Y-79600000D01*
G75*
G02*
X165630000Y-79850000I-250000J0D01*
G01*
X164430000Y-79850000D01*
G75*
G02*
X164180000Y-79600000I0J250000D01*
G01*
G37*
X165030000Y-81540000D03*
X165030000Y-84080000D03*
X165030000Y-86620000D03*
X165030000Y-89160000D03*
X165030000Y-91700000D03*
X165030000Y-94240000D03*
X165030000Y-96780000D03*
X165030000Y-99320000D03*
X165030000Y-101860000D03*
X165030000Y-104400000D03*
X165030000Y-106940000D03*
X165030000Y-109480000D03*
X167570000Y-79000000D03*
X167570000Y-81540000D03*
X167570000Y-84080000D03*
X167570000Y-86620000D03*
X167570000Y-89160000D03*
X167570000Y-91700000D03*
X167570000Y-94240000D03*
X167570000Y-96780000D03*
X167570000Y-99320000D03*
X167570000Y-101860000D03*
X167570000Y-104400000D03*
X167570000Y-106940000D03*
X167570000Y-109480000D03*
%TD*%
D18*
%TO.C,Q0*%
X156720000Y-55727600D03*
D19*
X173380000Y-58267600D03*
D20*
X173380000Y-55727600D03*
X173380000Y-53187600D03*
%TD*%
%TO.C,pi_5V1*%
G36*
G01*
X120790000Y-50583200D02*
X119290000Y-50583200D01*
G75*
G02*
X119040000Y-50333200I0J250000D01*
G01*
X119040000Y-49133200D01*
G75*
G02*
X119290000Y-48883200I250000J0D01*
G01*
X120790000Y-48883200D01*
G75*
G02*
X121040000Y-49133200I0J-250000D01*
G01*
X121040000Y-50333200D01*
G75*
G02*
X120790000Y-50583200I-250000J0D01*
G01*
G37*
D21*
X120040000Y-47233200D03*
%TD*%
D22*
%TO.C,U1*%
X177358000Y-117180000D03*
X174818000Y-117180000D03*
X172278000Y-117180000D03*
X164658000Y-117180000D03*
X167198000Y-117180000D03*
X169738000Y-117180000D03*
X159578000Y-117180000D03*
X157038000Y-117180000D03*
X154498000Y-117180000D03*
X149418000Y-117180000D03*
X146878000Y-117180000D03*
X177358000Y-68920000D03*
X174818000Y-68920000D03*
X172278000Y-68920000D03*
X169738000Y-68920000D03*
X167198000Y-68920000D03*
X164658000Y-68920000D03*
X162118000Y-68920000D03*
X159578000Y-68920000D03*
X155514000Y-68920000D03*
X152974000Y-68920000D03*
X150434000Y-68920000D03*
X147894000Y-68920000D03*
X145354000Y-68920000D03*
X142814000Y-68920000D03*
X140274000Y-68920000D03*
X137734000Y-68920000D03*
X151958000Y-117180000D03*
X135194000Y-68920000D03*
X132654000Y-68920000D03*
%TD*%
D23*
%TO.C,SW1*%
X117348000Y-73689600D03*
X123848000Y-73689600D03*
X117348000Y-69189600D03*
X123848000Y-69189600D03*
%TD*%
D24*
%TO.C,U2*%
X130033000Y-74229000D03*
X130033000Y-76769000D03*
X130033000Y-79309000D03*
X130033000Y-81849000D03*
X130033000Y-84389000D03*
X130033000Y-86929000D03*
X130033000Y-89469000D03*
X130033000Y-92009000D03*
X142733000Y-92009000D03*
X142733000Y-89469000D03*
X142733000Y-86929000D03*
X142733000Y-84389000D03*
X142733000Y-81849000D03*
X142733000Y-79309000D03*
X142733000Y-76769000D03*
X142733000Y-74229000D03*
%TD*%
%TO.C,U4*%
X130033000Y-94549000D03*
X130033000Y-97089000D03*
X130033000Y-99629000D03*
X130033000Y-102169000D03*
X130033000Y-104709000D03*
X130033000Y-107249000D03*
X130033000Y-109789000D03*
X130033000Y-112329000D03*
X142733000Y-112329000D03*
X142733000Y-109789000D03*
X142733000Y-107249000D03*
X142733000Y-104709000D03*
X142733000Y-102169000D03*
X142733000Y-99629000D03*
X142733000Y-97089000D03*
X142733000Y-94549000D03*
%TD*%
%TO.C,U5*%
X146746000Y-94625200D03*
X146746000Y-97165200D03*
X146746000Y-99705200D03*
X146746000Y-102245200D03*
X146746000Y-104785200D03*
X146746000Y-107325200D03*
X146746000Y-109865200D03*
X146746000Y-112405200D03*
X159446000Y-112405200D03*
X159446000Y-109865200D03*
X159446000Y-107325200D03*
X159446000Y-104785200D03*
X159446000Y-102245200D03*
X159446000Y-99705200D03*
X159446000Y-97165200D03*
X159446000Y-94625200D03*
%TD*%
%TO.C,U3*%
X146670000Y-74305200D03*
X146670000Y-76845200D03*
X146670000Y-79385200D03*
X146670000Y-81925200D03*
X146670000Y-84465200D03*
X146670000Y-87005200D03*
X146670000Y-89545200D03*
X146670000Y-92085200D03*
X159370000Y-92085200D03*
X159370000Y-89545200D03*
X159370000Y-87005200D03*
X159370000Y-84465200D03*
X159370000Y-81925200D03*
X159370000Y-79385200D03*
X159370000Y-76845200D03*
X159370000Y-74305200D03*
%TD*%
D25*
%TO.C,R1*%
X132573000Y-75814000D03*
X132573000Y-73914000D03*
%TD*%
%TO.C,R2*%
X149210000Y-75890200D03*
X149210000Y-73990200D03*
%TD*%
%TO.C,R3*%
X132573000Y-96134000D03*
X132573000Y-94234000D03*
%TD*%
%TO.C,R4*%
X149286000Y-96210200D03*
X149286000Y-94310200D03*
%TD*%
D26*
%TO.C,R5*%
X142555000Y-116891000D03*
X140655000Y-116891000D03*
%TD*%
D27*
%TO.C,P8*%
X124938000Y-111420000D03*
G36*
G01*
X117438000Y-112420000D02*
X117438000Y-110420000D01*
G75*
G02*
X118188000Y-109670000I750000J0D01*
G01*
X119688000Y-109670000D01*
G75*
G02*
X120438000Y-110420000I0J-750000D01*
G01*
X120438000Y-112420000D01*
G75*
G02*
X119688000Y-113170000I-750000J0D01*
G01*
X118188000Y-113170000D01*
G75*
G02*
X117438000Y-112420000I0J750000D01*
G01*
G37*
G36*
G01*
X120188000Y-116995000D02*
X120188000Y-115245000D01*
G75*
G02*
X121063000Y-114370000I875000J0D01*
G01*
X122813000Y-114370000D01*
G75*
G02*
X123688000Y-115245000I0J-875000D01*
G01*
X123688000Y-116995000D01*
G75*
G02*
X122813000Y-117870000I-875000J0D01*
G01*
X121063000Y-117870000D01*
G75*
G02*
X120188000Y-116995000I0J875000D01*
G01*
G37*
%TD*%
D28*
%TO.C,C1*%
X135956000Y-73980100D03*
X137956000Y-73980100D03*
%TD*%
%TO.C,C2*%
X154989000Y-74051200D03*
X152989000Y-74051200D03*
%TD*%
%TO.C,C3*%
X136052000Y-95778400D03*
X138052000Y-95778400D03*
%TD*%
%TO.C,C4*%
X154633000Y-95778400D03*
X152633000Y-95778400D03*
%TD*%
D29*
%TO.C,P10*%
X154102000Y-47879000D03*
D30*
X154102000Y-45339000D03*
%TD*%
%TO.C,R6*%
G36*
G01*
X169462000Y-48386050D02*
X169462000Y-47473550D01*
G75*
G02*
X169705750Y-47229800I243750J0D01*
G01*
X170193250Y-47229800D01*
G75*
G02*
X170437000Y-47473550I0J-243750D01*
G01*
X170437000Y-48386050D01*
G75*
G02*
X170193250Y-48629800I-243750J0D01*
G01*
X169705750Y-48629800D01*
G75*
G02*
X169462000Y-48386050I0J243750D01*
G01*
G37*
G36*
G01*
X167587000Y-48386050D02*
X167587000Y-47473550D01*
G75*
G02*
X167830750Y-47229800I243750J0D01*
G01*
X168318250Y-47229800D01*
G75*
G02*
X168562000Y-47473550I0J-243750D01*
G01*
X168562000Y-48386050D01*
G75*
G02*
X168318250Y-48629800I-243750J0D01*
G01*
X167830750Y-48629800D01*
G75*
G02*
X167587000Y-48386050I0J243750D01*
G01*
G37*
%TD*%
%TO.C,R7*%
G36*
G01*
X162938000Y-48386050D02*
X162938000Y-47473550D01*
G75*
G02*
X163181750Y-47229800I243750J0D01*
G01*
X163669250Y-47229800D01*
G75*
G02*
X163913000Y-47473550I0J-243750D01*
G01*
X163913000Y-48386050D01*
G75*
G02*
X163669250Y-48629800I-243750J0D01*
G01*
X163181750Y-48629800D01*
G75*
G02*
X162938000Y-48386050I0J243750D01*
G01*
G37*
G36*
G01*
X164813000Y-48386050D02*
X164813000Y-47473550D01*
G75*
G02*
X165056750Y-47229800I243750J0D01*
G01*
X165544250Y-47229800D01*
G75*
G02*
X165788000Y-47473550I0J-243750D01*
G01*
X165788000Y-48386050D01*
G75*
G02*
X165544250Y-48629800I-243750J0D01*
G01*
X165056750Y-48629800D01*
G75*
G02*
X164813000Y-48386050I0J243750D01*
G01*
G37*
%TD*%
%TO.C,l_pwr1*%
G36*
G01*
X177940000Y-50634000D02*
X176440000Y-50634000D01*
G75*
G02*
X176190000Y-50384000I0J250000D01*
G01*
X176190000Y-49184000D01*
G75*
G02*
X176440000Y-48934000I250000J0D01*
G01*
X177940000Y-48934000D01*
G75*
G02*
X178190000Y-49184000I0J-250000D01*
G01*
X178190000Y-50384000D01*
G75*
G02*
X177940000Y-50634000I-250000J0D01*
G01*
G37*
D21*
X177190000Y-47284000D03*
%TD*%
D31*
%TO.C,Pump1*%
X177150000Y-63525400D03*
G36*
G01*
X173800000Y-64275400D02*
X173800000Y-62775400D01*
G75*
G02*
X174050000Y-62525400I250000J0D01*
G01*
X175250000Y-62525400D01*
G75*
G02*
X175500000Y-62775400I0J-250000D01*
G01*
X175500000Y-64275400D01*
G75*
G02*
X175250000Y-64525400I-250000J0D01*
G01*
X174050000Y-64525400D01*
G75*
G02*
X173800000Y-64275400I0J250000D01*
G01*
G37*
%TD*%
D29*
%TO.C,MSA1*%
X150480000Y-111643000D03*
D30*
X150480000Y-109103000D03*
X153020000Y-111643000D03*
X153020000Y-109103000D03*
X155560000Y-111643000D03*
X155560000Y-109103000D03*
%TD*%
D29*
%TO.C,MSY1*%
X150835000Y-91145400D03*
D30*
X150835000Y-88605400D03*
X153375000Y-91145400D03*
X153375000Y-88605400D03*
X155915000Y-91145400D03*
X155915000Y-88605400D03*
%TD*%
%TO.C,MSZ1*%
X138923000Y-109129000D03*
X138923000Y-111669000D03*
X136383000Y-109129000D03*
X136383000Y-111669000D03*
X133843000Y-109129000D03*
D29*
X133843000Y-111669000D03*
%TD*%
%TO.C,MSX1*%
X133945000Y-91145400D03*
D30*
X133945000Y-88605400D03*
X136485000Y-91145400D03*
X136485000Y-88605400D03*
X139025000Y-91145400D03*
X139025000Y-88605400D03*
%TD*%
D32*
%TO.C,MP1584EN_DC-DC1*%
X143036000Y-47384200D03*
X143036000Y-49924200D03*
X143036000Y-57924200D03*
X143036000Y-60464200D03*
X125036000Y-57924200D03*
X125036000Y-60464200D03*
X125036000Y-49924200D03*
X125036000Y-47384200D03*
%TD*%
%TO.C,fan1*%
G36*
G01*
X120985000Y-81536400D02*
X119735000Y-81536400D01*
G75*
G02*
X119585000Y-81386400I0J150000D01*
G01*
X119585000Y-81086400D01*
G75*
G02*
X119735000Y-80936400I150000J0D01*
G01*
X120985000Y-80936400D01*
G75*
G02*
X121135000Y-81086400I0J-150000D01*
G01*
X121135000Y-81386400D01*
G75*
G02*
X120985000Y-81536400I-150000J0D01*
G01*
G37*
G36*
G01*
X120985000Y-80536400D02*
X119735000Y-80536400D01*
G75*
G02*
X119585000Y-80386400I0J150000D01*
G01*
X119585000Y-80086400D01*
G75*
G02*
X119735000Y-79936400I150000J0D01*
G01*
X120985000Y-79936400D01*
G75*
G02*
X121135000Y-80086400I0J-150000D01*
G01*
X121135000Y-80386400D01*
G75*
G02*
X120985000Y-80536400I-150000J0D01*
G01*
G37*
G36*
G01*
X118485001Y-83136400D02*
X117184999Y-83136400D01*
G75*
G02*
X116935000Y-82886401I0J249999D01*
G01*
X116935000Y-82186399D01*
G75*
G02*
X117184999Y-81936400I249999J0D01*
G01*
X118485001Y-81936400D01*
G75*
G02*
X118735000Y-82186399I0J-249999D01*
G01*
X118735000Y-82886401D01*
G75*
G02*
X118485001Y-83136400I-249999J0D01*
G01*
G37*
G36*
G01*
X118485001Y-79536400D02*
X117184999Y-79536400D01*
G75*
G02*
X116935000Y-79286401I0J249999D01*
G01*
X116935000Y-78586399D01*
G75*
G02*
X117184999Y-78336400I249999J0D01*
G01*
X118485001Y-78336400D01*
G75*
G02*
X118735000Y-78586399I0J-249999D01*
G01*
X118735000Y-79286401D01*
G75*
G02*
X118485001Y-79536400I-249999J0D01*
G01*
G37*
%TD*%
M02*
