%TF.GenerationSoftware,KiCad,Pcbnew,5.1.6-c6e7f7d~87~ubuntu20.04.1*%
%TF.CreationDate,2021-12-05T16:45:17+01:00*%
%TF.ProjectId,sb-cnc-shield,73622d63-6e63-42d7-9368-69656c642e6b,rev?*%
%TF.SameCoordinates,Original*%
%TF.FileFunction,Copper,L2,Bot*%
%TF.FilePolarity,Positive*%
%FSLAX46Y46*%
G04 Gerber Fmt 4.6, Leading zero omitted, Abs format (unit mm)*
G04 Created by KiCad (PCBNEW 5.1.6-c6e7f7d~87~ubuntu20.04.1) date 2021-12-05 16:45:17*
%MOMM*%
%LPD*%
G01*
G04 APERTURE LIST*
%TA.AperFunction,ComponentPad*%
%ADD10C,1.700000*%
%TD*%
%TA.AperFunction,ComponentPad*%
%ADD11R,2.000000X1.905000*%
%TD*%
%TA.AperFunction,ComponentPad*%
%ADD12O,2.000000X1.905000*%
%TD*%
%TA.AperFunction,ComponentPad*%
%ADD13O,2.000000X1.700000*%
%TD*%
%TA.AperFunction,ComponentPad*%
%ADD14C,1.610000*%
%TD*%
%TA.AperFunction,ComponentPad*%
%ADD15C,2.250000*%
%TD*%
%TA.AperFunction,ComponentPad*%
%ADD16C,1.510000*%
%TD*%
%TA.AperFunction,ComponentPad*%
%ADD17R,3.500000X3.500000*%
%TD*%
%TA.AperFunction,ComponentPad*%
%ADD18C,1.600000*%
%TD*%
%TA.AperFunction,ComponentPad*%
%ADD19O,1.700000X2.000000*%
%TD*%
%TA.AperFunction,ComponentPad*%
%ADD20R,1.700000X1.700000*%
%TD*%
%TA.AperFunction,ComponentPad*%
%ADD21O,1.700000X1.700000*%
%TD*%
%TA.AperFunction,ComponentPad*%
%ADD22C,1.524000*%
%TD*%
%TA.AperFunction,ComponentPad*%
%ADD23C,1.800000*%
%TD*%
%TA.AperFunction,ComponentPad*%
%ADD24R,1.800000X1.800000*%
%TD*%
%TA.AperFunction,ViaPad*%
%ADD25C,0.600000*%
%TD*%
%TA.AperFunction,Conductor*%
%ADD26C,0.250000*%
%TD*%
%TA.AperFunction,Conductor*%
%ADD27C,0.700000*%
%TD*%
%TA.AperFunction,Conductor*%
%ADD28C,0.500000*%
%TD*%
%TA.AperFunction,Conductor*%
%ADD29C,0.254000*%
%TD*%
G04 APERTURE END LIST*
D10*
%TO.P,conn26_0,26*%
%TO.N,GND*%
X179283000Y-109480000D03*
%TO.P,conn26_0,24*%
X179283000Y-106940000D03*
%TO.P,conn26_0,22*%
X179283000Y-104400000D03*
%TO.P,conn26_0,20*%
X179283000Y-101860000D03*
%TO.P,conn26_0,18*%
X179283000Y-99320000D03*
%TO.P,conn26_0,16*%
X179283000Y-96780000D03*
%TO.P,conn26_0,14*%
X179283000Y-94240000D03*
%TO.P,conn26_0,12*%
X179283000Y-91700000D03*
%TO.P,conn26_0,10*%
X179283000Y-89160000D03*
%TO.P,conn26_0,8*%
X179283000Y-86620000D03*
%TO.P,conn26_0,6*%
X179283000Y-84080000D03*
%TO.P,conn26_0,4*%
X179283000Y-81540000D03*
%TO.P,conn26_0,2*%
X179283000Y-79000000D03*
%TO.P,conn26_0,25*%
%TO.N,RESET*%
X176743000Y-109480000D03*
%TO.P,conn26_0,23*%
%TO.N,B_led*%
X176743000Y-106940000D03*
%TO.P,conn26_0,21*%
%TO.N,O_sig*%
X176743000Y-104400000D03*
%TO.P,conn26_0,19*%
%TO.N,O_led*%
X176743000Y-101860000D03*
%TO.P,conn26_0,17*%
%TO.N,up_light*%
X176743000Y-99320000D03*
%TO.P,conn26_0,15*%
%TO.N,B_sig*%
X176743000Y-96780000D03*
%TO.P,conn26_0,13*%
%TO.N,ASTEP*%
X176743000Y-94240000D03*
%TO.P,conn26_0,11*%
%TO.N,XLIMIT*%
X176743000Y-91700000D03*
%TO.P,conn26_0,9*%
X176743000Y-89160000D03*
%TO.P,conn26_0,7*%
%TO.N,YLIMIT*%
X176743000Y-86620000D03*
%TO.P,conn26_0,5*%
X176743000Y-84080000D03*
%TO.P,conn26_0,3*%
%TO.N,ZLIMIT*%
X176743000Y-81540000D03*
%TO.P,conn26_0,1*%
%TA.AperFunction,ComponentPad*%
G36*
G01*
X175893000Y-79600000D02*
X175893000Y-78400000D01*
G75*
G02*
X176143000Y-78150000I250000J0D01*
G01*
X177343000Y-78150000D01*
G75*
G02*
X177593000Y-78400000I0J-250000D01*
G01*
X177593000Y-79600000D01*
G75*
G02*
X177343000Y-79850000I-250000J0D01*
G01*
X176143000Y-79850000D01*
G75*
G02*
X175893000Y-79600000I0J250000D01*
G01*
G37*
%TD.AperFunction*%
%TD*%
%TO.P,conn26_1,1*%
%TO.N,+5V*%
%TA.AperFunction,ComponentPad*%
G36*
G01*
X164180000Y-79600000D02*
X164180000Y-78400000D01*
G75*
G02*
X164430000Y-78150000I250000J0D01*
G01*
X165630000Y-78150000D01*
G75*
G02*
X165880000Y-78400000I0J-250000D01*
G01*
X165880000Y-79600000D01*
G75*
G02*
X165630000Y-79850000I-250000J0D01*
G01*
X164430000Y-79850000D01*
G75*
G02*
X164180000Y-79600000I0J250000D01*
G01*
G37*
%TD.AperFunction*%
%TO.P,conn26_1,3*%
%TO.N,_SCL_*%
X165030000Y-81540000D03*
%TO.P,conn26_1,5*%
%TO.N,+5V*%
X165030000Y-84080000D03*
%TO.P,conn26_1,7*%
%TO.N,res*%
X165030000Y-86620000D03*
%TO.P,conn26_1,9*%
%TO.N,y2B*%
X165030000Y-89160000D03*
%TO.P,conn26_1,11*%
%TO.N,y2A*%
X165030000Y-91700000D03*
%TO.P,conn26_1,13*%
%TO.N,y1A*%
X165030000Y-94240000D03*
%TO.P,conn26_1,15*%
%TO.N,y1B*%
X165030000Y-96780000D03*
%TO.P,conn26_1,17*%
%TO.N,a2B*%
X165030000Y-99320000D03*
%TO.P,conn26_1,19*%
%TO.N,a2A*%
X165030000Y-101860000D03*
%TO.P,conn26_1,21*%
%TO.N,a1A*%
X165030000Y-104400000D03*
%TO.P,conn26_1,23*%
%TO.N,a1B*%
X165030000Y-106940000D03*
%TO.P,conn26_1,25*%
%TO.N,Net-(conn26_1-Pad25)*%
X165030000Y-109480000D03*
%TO.P,conn26_1,2*%
%TO.N,GND*%
X167570000Y-79000000D03*
%TO.P,conn26_1,4*%
%TO.N,_SDA_*%
X167570000Y-81540000D03*
%TO.P,conn26_1,6*%
%TO.N,DC*%
X167570000Y-84080000D03*
%TO.P,conn26_1,8*%
%TO.N,GND*%
X167570000Y-86620000D03*
%TO.P,conn26_1,10*%
%TO.N,x2B*%
X167570000Y-89160000D03*
%TO.P,conn26_1,12*%
%TO.N,x2A*%
X167570000Y-91700000D03*
%TO.P,conn26_1,14*%
%TO.N,x1A*%
X167570000Y-94240000D03*
%TO.P,conn26_1,16*%
%TO.N,x1B*%
X167570000Y-96780000D03*
%TO.P,conn26_1,18*%
%TO.N,z2B*%
X167570000Y-99320000D03*
%TO.P,conn26_1,20*%
%TO.N,z2A*%
X167570000Y-101860000D03*
%TO.P,conn26_1,22*%
%TO.N,z1A*%
X167570000Y-104400000D03*
%TO.P,conn26_1,24*%
%TO.N,z1B*%
X167570000Y-106940000D03*
%TO.P,conn26_1,26*%
%TO.N,Net-(conn26_1-Pad26)*%
X167570000Y-109480000D03*
%TD*%
D11*
%TO.P,Q0,2*%
%TO.N,/G*%
X173380000Y-58267600D03*
D12*
%TO.P,Q0,1*%
%TO.N,D*%
X173380000Y-55727600D03*
%TO.P,Q0,3*%
%TO.N,GND*%
X173380000Y-53187600D03*
%TD*%
%TO.P,pi_5V1,1*%
%TO.N,GND*%
%TA.AperFunction,ComponentPad*%
G36*
G01*
X117790000Y-50850000D02*
X116290000Y-50850000D01*
G75*
G02*
X116040000Y-50600000I0J250000D01*
G01*
X116040000Y-49400000D01*
G75*
G02*
X116290000Y-49150000I250000J0D01*
G01*
X117790000Y-49150000D01*
G75*
G02*
X118040000Y-49400000I0J-250000D01*
G01*
X118040000Y-50600000D01*
G75*
G02*
X117790000Y-50850000I-250000J0D01*
G01*
G37*
%TD.AperFunction*%
D13*
%TO.P,pi_5V1,2*%
%TO.N,5V_pi*%
X117040000Y-47500000D03*
%TD*%
D14*
%TO.P,U1,17*%
%TO.N,B_sig*%
X177358000Y-117180000D03*
%TO.P,U1,18*%
%TO.N,pump_ctrl*%
X174818000Y-117180000D03*
%TO.P,U1,19*%
%TO.N,up_light*%
X172278000Y-117180000D03*
%TO.P,U1,22*%
%TO.N,O_led*%
X164658000Y-117180000D03*
%TO.P,U1,21*%
%TO.N,O_sig*%
X167198000Y-117180000D03*
%TO.P,U1,20*%
%TO.N,B_led*%
X169738000Y-117180000D03*
%TO.P,U1,23*%
%TO.N,Net-(U1-Pad23)*%
X159578000Y-117180000D03*
%TO.P,U1,24*%
%TO.N,GND*%
X157038000Y-117180000D03*
%TO.P,U1,25*%
X154498000Y-117180000D03*
%TO.P,U1,27*%
%TO.N,+3V3*%
X149418000Y-117180000D03*
%TO.P,U1,28*%
%TO.N,RESET*%
X146878000Y-117180000D03*
%TO.P,U1,1*%
%TO.N,DC*%
X177358000Y-68920000D03*
%TO.P,U1,2*%
%TO.N,res*%
X174818000Y-68920000D03*
%TO.P,U1,3*%
%TO.N,XSTEP*%
X172278000Y-68920000D03*
%TO.P,U1,4*%
%TO.N,YSTEP*%
X169738000Y-68920000D03*
%TO.P,U1,5*%
%TO.N,ZSTEP*%
X167198000Y-68920000D03*
%TO.P,U1,6*%
%TO.N,XDIR*%
X164658000Y-68920000D03*
%TO.P,U1,7*%
%TO.N,YDIR*%
X162118000Y-68920000D03*
%TO.P,U1,8*%
%TO.N,ZDIR*%
X159578000Y-68920000D03*
%TO.P,U1,9*%
%TO.N,EN*%
X155514000Y-68920000D03*
%TO.P,U1,10*%
%TO.N,XLIMIT*%
X152974000Y-68920000D03*
%TO.P,U1,11*%
%TO.N,YLIMIT*%
X150434000Y-68920000D03*
%TO.P,U1,12*%
%TO.N,ASTEP*%
X147894000Y-68920000D03*
%TO.P,U1,13*%
%TO.N,ZLIMIT*%
X145354000Y-68920000D03*
%TO.P,U1,14*%
%TO.N,ADIR*%
X142814000Y-68920000D03*
%TO.P,U1,15*%
%TO.N,GND*%
X140274000Y-68920000D03*
%TO.P,U1,16*%
%TO.N,Net-(U1-Pad16)*%
X137734000Y-68920000D03*
%TO.P,U1,26*%
%TO.N,+5V*%
X151958000Y-117180000D03*
%TO.P,U1,29*%
%TO.N,_SDA_*%
X135194000Y-68920000D03*
%TO.P,U1,30*%
%TO.N,_SCL_*%
X132654000Y-68920000D03*
%TD*%
D15*
%TO.P,SW1,3*%
%TO.N,RESET*%
X118273000Y-90231000D03*
%TO.P,SW1,4*%
X124773000Y-90231000D03*
%TO.P,SW1,1*%
%TO.N,GND*%
X118273000Y-85731000D03*
%TO.P,SW1,2*%
X124773000Y-85731000D03*
%TD*%
D16*
%TO.P,U2,1*%
%TO.N,EN*%
X130033000Y-74229000D03*
%TO.P,U2,2*%
%TO.N,Net-(MSX1-Pad2)*%
X130033000Y-76769000D03*
%TO.P,U2,3*%
%TO.N,Net-(MSX1-Pad4)*%
X130033000Y-79309000D03*
%TO.P,U2,4*%
%TO.N,Net-(MSX1-Pad6)*%
X130033000Y-81849000D03*
%TO.P,U2,5*%
%TO.N,Net-(U2-Pad5)*%
X130033000Y-84389000D03*
%TO.P,U2,6*%
X130033000Y-86929000D03*
%TO.P,U2,7*%
%TO.N,XSTEP*%
X130033000Y-89469000D03*
%TO.P,U2,8*%
%TO.N,XDIR*%
X130033000Y-92009000D03*
%TO.P,U2,9*%
%TO.N,GND*%
X142733000Y-92009000D03*
%TO.P,U2,10*%
%TO.N,+5V*%
X142733000Y-89469000D03*
%TO.P,U2,11*%
%TO.N,x1B*%
X142733000Y-86929000D03*
%TO.P,U2,12*%
%TO.N,x1A*%
X142733000Y-84389000D03*
%TO.P,U2,13*%
%TO.N,x2A*%
X142733000Y-81849000D03*
%TO.P,U2,14*%
%TO.N,x2B*%
X142733000Y-79309000D03*
%TO.P,U2,15*%
%TO.N,GNDA*%
X142733000Y-76769000D03*
%TO.P,U2,16*%
%TO.N,VIN*%
X142733000Y-74229000D03*
%TD*%
%TO.P,U4,1*%
%TO.N,EN*%
X130033000Y-94549000D03*
%TO.P,U4,2*%
%TO.N,Net-(MSZ1-Pad2)*%
X130033000Y-97089000D03*
%TO.P,U4,3*%
%TO.N,Net-(MSZ1-Pad4)*%
X130033000Y-99629000D03*
%TO.P,U4,4*%
%TO.N,Net-(MSZ1-Pad6)*%
X130033000Y-102169000D03*
%TO.P,U4,5*%
%TO.N,Net-(U4-Pad5)*%
X130033000Y-104709000D03*
%TO.P,U4,6*%
X130033000Y-107249000D03*
%TO.P,U4,7*%
%TO.N,ZSTEP*%
X130033000Y-109789000D03*
%TO.P,U4,8*%
%TO.N,ZDIR*%
X130033000Y-112329000D03*
%TO.P,U4,9*%
%TO.N,GND*%
X142733000Y-112329000D03*
%TO.P,U4,10*%
%TO.N,+5V*%
X142733000Y-109789000D03*
%TO.P,U4,11*%
%TO.N,z1B*%
X142733000Y-107249000D03*
%TO.P,U4,12*%
%TO.N,z1A*%
X142733000Y-104709000D03*
%TO.P,U4,13*%
%TO.N,z2A*%
X142733000Y-102169000D03*
%TO.P,U4,14*%
%TO.N,z2B*%
X142733000Y-99629000D03*
%TO.P,U4,15*%
%TO.N,GNDA*%
X142733000Y-97089000D03*
%TO.P,U4,16*%
%TO.N,VIN*%
X142733000Y-94549000D03*
%TD*%
%TO.P,U5,1*%
%TO.N,EN*%
X146746000Y-94625200D03*
%TO.P,U5,2*%
%TO.N,Net-(MSA1-Pad2)*%
X146746000Y-97165200D03*
%TO.P,U5,3*%
%TO.N,Net-(MSA1-Pad4)*%
X146746000Y-99705200D03*
%TO.P,U5,4*%
%TO.N,Net-(MSA1-Pad6)*%
X146746000Y-102245200D03*
%TO.P,U5,5*%
%TO.N,Net-(U5-Pad5)*%
X146746000Y-104785200D03*
%TO.P,U5,6*%
X146746000Y-107325200D03*
%TO.P,U5,7*%
%TO.N,ASTEP*%
X146746000Y-109865200D03*
%TO.P,U5,8*%
%TO.N,ADIR*%
X146746000Y-112405200D03*
%TO.P,U5,9*%
%TO.N,GND*%
X159446000Y-112405200D03*
%TO.P,U5,10*%
%TO.N,+5V*%
X159446000Y-109865200D03*
%TO.P,U5,11*%
%TO.N,a1B*%
X159446000Y-107325200D03*
%TO.P,U5,12*%
%TO.N,a1A*%
X159446000Y-104785200D03*
%TO.P,U5,13*%
%TO.N,a2A*%
X159446000Y-102245200D03*
%TO.P,U5,14*%
%TO.N,a2B*%
X159446000Y-99705200D03*
%TO.P,U5,15*%
%TO.N,GNDA*%
X159446000Y-97165200D03*
%TO.P,U5,16*%
%TO.N,VIN*%
X159446000Y-94625200D03*
%TD*%
%TO.P,U3,1*%
%TO.N,EN*%
X146670000Y-74305200D03*
%TO.P,U3,2*%
%TO.N,Net-(MSY1-Pad2)*%
X146670000Y-76845200D03*
%TO.P,U3,3*%
%TO.N,Net-(MSY1-Pad4)*%
X146670000Y-79385200D03*
%TO.P,U3,4*%
%TO.N,Net-(MSY1-Pad6)*%
X146670000Y-81925200D03*
%TO.P,U3,5*%
%TO.N,Net-(U3-Pad5)*%
X146670000Y-84465200D03*
%TO.P,U3,6*%
X146670000Y-87005200D03*
%TO.P,U3,7*%
%TO.N,YSTEP*%
X146670000Y-89545200D03*
%TO.P,U3,8*%
%TO.N,YDIR*%
X146670000Y-92085200D03*
%TO.P,U3,9*%
%TO.N,GND*%
X159370000Y-92085200D03*
%TO.P,U3,10*%
%TO.N,+5V*%
X159370000Y-89545200D03*
%TO.P,U3,11*%
%TO.N,y1B*%
X159370000Y-87005200D03*
%TO.P,U3,12*%
%TO.N,y1A*%
X159370000Y-84465200D03*
%TO.P,U3,13*%
%TO.N,y2A*%
X159370000Y-81925200D03*
%TO.P,U3,14*%
%TO.N,y2B*%
X159370000Y-79385200D03*
%TO.P,U3,15*%
%TO.N,GNDA*%
X159370000Y-76845200D03*
%TO.P,U3,16*%
%TO.N,VIN*%
X159370000Y-74305200D03*
%TD*%
D17*
%TO.P,P8,1*%
%TO.N,VIN_*%
X122438000Y-111420000D03*
%TO.P,P8,2*%
%TO.N,GNDA*%
%TA.AperFunction,ComponentPad*%
G36*
G01*
X114938000Y-112420000D02*
X114938000Y-110420000D01*
G75*
G02*
X115688000Y-109670000I750000J0D01*
G01*
X117188000Y-109670000D01*
G75*
G02*
X117938000Y-110420000I0J-750000D01*
G01*
X117938000Y-112420000D01*
G75*
G02*
X117188000Y-113170000I-750000J0D01*
G01*
X115688000Y-113170000D01*
G75*
G02*
X114938000Y-112420000I0J750000D01*
G01*
G37*
%TD.AperFunction*%
%TO.P,P8,3*%
%TA.AperFunction,ComponentPad*%
G36*
G01*
X117688000Y-116995000D02*
X117688000Y-115245000D01*
G75*
G02*
X118563000Y-114370000I875000J0D01*
G01*
X120313000Y-114370000D01*
G75*
G02*
X121188000Y-115245000I0J-875000D01*
G01*
X121188000Y-116995000D01*
G75*
G02*
X120313000Y-117870000I-875000J0D01*
G01*
X118563000Y-117870000D01*
G75*
G02*
X117688000Y-116995000I0J875000D01*
G01*
G37*
%TD.AperFunction*%
%TD*%
D18*
%TO.P,C1,1*%
%TO.N,VIN*%
X135956000Y-73980100D03*
%TO.P,C1,2*%
%TO.N,GNDA*%
X137956000Y-73980100D03*
%TD*%
%TO.P,C2,2*%
%TO.N,GNDA*%
X154989000Y-74051200D03*
%TO.P,C2,1*%
%TO.N,VIN*%
X152989000Y-74051200D03*
%TD*%
%TO.P,C3,1*%
%TO.N,VIN*%
X136052000Y-95778400D03*
%TO.P,C3,2*%
%TO.N,GNDA*%
X138052000Y-95778400D03*
%TD*%
%TO.P,C4,2*%
%TO.N,GNDA*%
X154633000Y-95778400D03*
%TO.P,C4,1*%
%TO.N,VIN*%
X152633000Y-95778400D03*
%TD*%
%TO.P,l_pwr1,1*%
%TO.N,GND*%
%TA.AperFunction,ComponentPad*%
G36*
G01*
X177940000Y-50634000D02*
X176440000Y-50634000D01*
G75*
G02*
X176190000Y-50384000I0J250000D01*
G01*
X176190000Y-49184000D01*
G75*
G02*
X176440000Y-48934000I250000J0D01*
G01*
X177940000Y-48934000D01*
G75*
G02*
X178190000Y-49184000I0J-250000D01*
G01*
X178190000Y-50384000D01*
G75*
G02*
X177940000Y-50634000I-250000J0D01*
G01*
G37*
%TD.AperFunction*%
D13*
%TO.P,l_pwr1,2*%
%TO.N,VIN*%
X177190000Y-47284000D03*
%TD*%
D19*
%TO.P,Pump1,2*%
%TO.N,D*%
X177150000Y-63525400D03*
%TO.P,Pump1,1*%
%TO.N,VIN*%
%TA.AperFunction,ComponentPad*%
G36*
G01*
X173800000Y-64275400D02*
X173800000Y-62775400D01*
G75*
G02*
X174050000Y-62525400I250000J0D01*
G01*
X175250000Y-62525400D01*
G75*
G02*
X175500000Y-62775400I0J-250000D01*
G01*
X175500000Y-64275400D01*
G75*
G02*
X175250000Y-64525400I-250000J0D01*
G01*
X174050000Y-64525400D01*
G75*
G02*
X173800000Y-64275400I0J250000D01*
G01*
G37*
%TD.AperFunction*%
%TD*%
D20*
%TO.P,MSA1,1*%
%TO.N,+5V*%
X150480000Y-111643000D03*
D21*
%TO.P,MSA1,2*%
%TO.N,Net-(MSA1-Pad2)*%
X150480000Y-109103000D03*
%TO.P,MSA1,3*%
%TO.N,+5V*%
X153020000Y-111643000D03*
%TO.P,MSA1,4*%
%TO.N,Net-(MSA1-Pad4)*%
X153020000Y-109103000D03*
%TO.P,MSA1,5*%
%TO.N,+5V*%
X155560000Y-111643000D03*
%TO.P,MSA1,6*%
%TO.N,Net-(MSA1-Pad6)*%
X155560000Y-109103000D03*
%TD*%
D20*
%TO.P,MSY1,1*%
%TO.N,+5V*%
X150835000Y-91145400D03*
D21*
%TO.P,MSY1,2*%
%TO.N,Net-(MSY1-Pad2)*%
X150835000Y-88605400D03*
%TO.P,MSY1,3*%
%TO.N,+5V*%
X153375000Y-91145400D03*
%TO.P,MSY1,4*%
%TO.N,Net-(MSY1-Pad4)*%
X153375000Y-88605400D03*
%TO.P,MSY1,5*%
%TO.N,+5V*%
X155915000Y-91145400D03*
%TO.P,MSY1,6*%
%TO.N,Net-(MSY1-Pad6)*%
X155915000Y-88605400D03*
%TD*%
%TO.P,MSZ1,6*%
%TO.N,Net-(MSZ1-Pad6)*%
X138923000Y-109129000D03*
%TO.P,MSZ1,5*%
%TO.N,+5V*%
X138923000Y-111669000D03*
%TO.P,MSZ1,4*%
%TO.N,Net-(MSZ1-Pad4)*%
X136383000Y-109129000D03*
%TO.P,MSZ1,3*%
%TO.N,+5V*%
X136383000Y-111669000D03*
%TO.P,MSZ1,2*%
%TO.N,Net-(MSZ1-Pad2)*%
X133843000Y-109129000D03*
D20*
%TO.P,MSZ1,1*%
%TO.N,+5V*%
X133843000Y-111669000D03*
%TD*%
%TO.P,MSX1,1*%
%TO.N,+5V*%
X133945000Y-91145400D03*
D21*
%TO.P,MSX1,2*%
%TO.N,Net-(MSX1-Pad2)*%
X133945000Y-88605400D03*
%TO.P,MSX1,3*%
%TO.N,+5V*%
X136485000Y-91145400D03*
%TO.P,MSX1,4*%
%TO.N,Net-(MSX1-Pad4)*%
X136485000Y-88605400D03*
%TO.P,MSX1,5*%
%TO.N,+5V*%
X139025000Y-91145400D03*
%TO.P,MSX1,6*%
%TO.N,Net-(MSX1-Pad6)*%
X139025000Y-88605400D03*
%TD*%
D22*
%TO.P,MP1584EN_DC-DC1,8*%
%TO.N,GND*%
X143036000Y-47384200D03*
%TO.P,MP1584EN_DC-DC1,7*%
X143036000Y-49924200D03*
%TO.P,MP1584EN_DC-DC1,6*%
%TO.N,5V_pi*%
X143036000Y-57924200D03*
%TO.P,MP1584EN_DC-DC1,5*%
X143036000Y-60464200D03*
%TO.P,MP1584EN_DC-DC1,4*%
%TO.N,VIN*%
X125036000Y-57924200D03*
%TO.P,MP1584EN_DC-DC1,3*%
X125036000Y-60464200D03*
%TO.P,MP1584EN_DC-DC1,2*%
%TO.N,GND*%
X125036000Y-49924200D03*
%TO.P,MP1584EN_DC-DC1,1*%
X125036000Y-47384200D03*
%TD*%
D23*
%TO.P,Pled1,2*%
%TO.N,Net-(Pled1-Pad2)*%
X116677000Y-77540000D03*
D24*
%TO.P,Pled1,1*%
%TO.N,GND*%
X116677000Y-75000000D03*
%TD*%
%TO.P,Vled1,1*%
%TO.N,GND*%
X116266000Y-95000000D03*
D23*
%TO.P,Vled1,2*%
%TO.N,Net-(Rpwr1-Pad2)*%
X116266000Y-97540000D03*
%TD*%
%TO.P,ledA1,2*%
%TO.N,Net-(RstpA1-Pad2)*%
X116677000Y-72540000D03*
D24*
%TO.P,ledA1,1*%
%TO.N,GND*%
X116677000Y-70000000D03*
%TD*%
%TO.P,V_led1,1*%
%TO.N,GND*%
X116291000Y-100000000D03*
D23*
%TO.P,V_led1,2*%
%TO.N,Net-(Rpwr_1-Pad2)*%
X116291000Y-102540000D03*
%TD*%
%TO.P,ledX1,2*%
%TO.N,Net-(RstpX1-Pad2)*%
X116743000Y-57540000D03*
D24*
%TO.P,ledX1,1*%
%TO.N,GND*%
X116743000Y-55000000D03*
%TD*%
%TO.P,ledY1,1*%
%TO.N,GND*%
X116677000Y-60000000D03*
D23*
%TO.P,ledY1,2*%
%TO.N,Net-(RstpY1-Pad2)*%
X116677000Y-62540000D03*
%TD*%
D24*
%TO.P,ledZ1,1*%
%TO.N,GND*%
X116677000Y-65000000D03*
D23*
%TO.P,ledZ1,2*%
%TO.N,Net-(RstpZ1-Pad2)*%
X116677000Y-67540000D03*
%TD*%
%TO.P,P10,1*%
%TO.N,VIN*%
%TA.AperFunction,ComponentPad*%
G36*
G01*
X154952000Y-47129000D02*
X154952000Y-48629000D01*
G75*
G02*
X154702000Y-48879000I-250000J0D01*
G01*
X153502000Y-48879000D01*
G75*
G02*
X153252000Y-48629000I0J250000D01*
G01*
X153252000Y-47129000D01*
G75*
G02*
X153502000Y-46879000I250000J0D01*
G01*
X154702000Y-46879000D01*
G75*
G02*
X154952000Y-47129000I0J-250000D01*
G01*
G37*
%TD.AperFunction*%
D19*
%TO.P,P10,2*%
%TO.N,VIN_*%
X151602000Y-47879000D03*
%TD*%
D25*
%TO.N,GND*%
X134018800Y-94126800D03*
%TO.N,XSTEP*%
X132893500Y-86608500D03*
%TO.N,VIN*%
X157441000Y-92620200D03*
X141376700Y-79821000D03*
X140618700Y-76380000D03*
X157441000Y-76234200D03*
%TO.N,ZSTEP*%
X124250800Y-74018000D03*
%TO.N,ASTEP*%
X130256000Y-69248400D03*
%TO.N,GNDA*%
X141427600Y-114972900D03*
%TO.N,VIN_*%
X121417500Y-108688200D03*
%TO.N,x2B*%
X150493800Y-73789600D03*
%TO.N,x2A*%
X150053700Y-95341000D03*
X157267300Y-115187100D03*
%TO.N,x1A*%
X170260800Y-79818100D03*
X140609700Y-65222400D03*
X135334100Y-72683500D03*
%TO.N,x1B*%
X164978800Y-114436800D03*
X162696500Y-106055100D03*
X152269500Y-99690100D03*
X150391200Y-98022100D03*
%TO.N,z2B*%
X164348100Y-110740500D03*
X152269500Y-102317700D03*
%TO.N,z1B*%
X148085600Y-108530600D03*
%TO.N,Net-(RstpX1-Pad2)*%
X148214200Y-54290500D03*
%TO.N,Net-(RstpY1-Pad2)*%
X144791600Y-62280500D03*
%TD*%
D26*
%TO.N,RESET*%
X124773000Y-90231000D02*
X124773000Y-98478200D01*
X124773000Y-98478200D02*
X129733800Y-103439000D01*
X129733800Y-103439000D02*
X130292400Y-103439000D01*
X130292400Y-103439000D02*
X132667600Y-105814200D01*
X132667600Y-105814200D02*
X132667600Y-112678400D01*
X132667600Y-112678400D02*
X133398600Y-113409400D01*
X133398600Y-113409400D02*
X140850400Y-113409400D01*
X140850400Y-113409400D02*
X144621000Y-117180000D01*
X144621000Y-117180000D02*
X146878000Y-117180000D01*
X146878000Y-117180000D02*
X148037300Y-118339300D01*
X148037300Y-118339300D02*
X167680600Y-118339300D01*
X167680600Y-118339300D02*
X168328400Y-117691500D01*
X168328400Y-117691500D02*
X168328400Y-116911200D01*
X168328400Y-116911200D02*
X175759600Y-109480000D01*
X175759600Y-109480000D02*
X176743000Y-109480000D01*
D27*
%TO.N,+5V*%
X136485000Y-91145400D02*
X135345300Y-91145400D01*
X139025000Y-91145400D02*
X136485000Y-91145400D01*
X133945000Y-91145400D02*
X135345300Y-91145400D01*
X141853900Y-109789000D02*
X142733000Y-109789000D01*
X140323300Y-111669000D02*
X140323300Y-111319600D01*
X140323300Y-111319600D02*
X141853900Y-109789000D01*
X141853900Y-109789000D02*
X133118500Y-101053600D01*
X133118500Y-101053600D02*
X133118500Y-93372200D01*
X133118500Y-93372200D02*
X133945000Y-92545700D01*
X133945000Y-91145400D02*
X133945000Y-92545700D01*
X155915000Y-91145400D02*
X157769800Y-91145400D01*
X157769800Y-91145400D02*
X159370000Y-89545200D01*
X153375000Y-91145400D02*
X155915000Y-91145400D01*
X153375000Y-91145400D02*
X151974700Y-91145400D01*
X150835000Y-91845500D02*
X151274600Y-91845500D01*
X151274600Y-91845500D02*
X151974700Y-91145400D01*
X150835000Y-91845500D02*
X150835000Y-92545700D01*
X150835000Y-91145400D02*
X150835000Y-91845500D01*
X158629300Y-109974000D02*
X158738100Y-109865200D01*
X158738100Y-109865200D02*
X159446000Y-109865200D01*
X156960300Y-111643000D02*
X158629300Y-109974000D01*
X158629300Y-109974000D02*
X151282700Y-102627500D01*
X151282700Y-102627500D02*
X151282700Y-92993400D01*
X151282700Y-92993400D02*
X150835000Y-92545700D01*
X155560000Y-111643000D02*
X156960300Y-111643000D01*
X153020000Y-111643000D02*
X155560000Y-111643000D01*
X139025000Y-91145400D02*
X141056600Y-91145400D01*
X141056600Y-91145400D02*
X142733000Y-89469000D01*
X150480000Y-111643000D02*
X153020000Y-111643000D01*
X138923000Y-111669000D02*
X140323300Y-111669000D01*
X136383000Y-111669000D02*
X138923000Y-111669000D01*
X136383000Y-111669000D02*
X133843000Y-111669000D01*
%TO.N,GND*%
X142733000Y-92009000D02*
X141296800Y-93445200D01*
X141296800Y-93445200D02*
X134700400Y-93445200D01*
X134700400Y-93445200D02*
X134018800Y-94126800D01*
X116677000Y-65000000D02*
X115226600Y-66450400D01*
X115226600Y-66450400D02*
X115226600Y-68549600D01*
X115226600Y-68549600D02*
X116677000Y-70000000D01*
X116677000Y-70000000D02*
X115156000Y-71521000D01*
X115156000Y-71521000D02*
X115156000Y-73479000D01*
X115156000Y-73479000D02*
X116677000Y-75000000D01*
X177833200Y-77550200D02*
X179283000Y-79000000D01*
X167570000Y-86620000D02*
X175006500Y-79183500D01*
X175006500Y-79183500D02*
X175006500Y-78387100D01*
X175006500Y-78387100D02*
X175843400Y-77550200D01*
X175843400Y-77550200D02*
X177833200Y-77550200D01*
X174930300Y-53187600D02*
X178767200Y-57024500D01*
X178767200Y-57024500D02*
X178767200Y-76616200D01*
X178767200Y-76616200D02*
X177833200Y-77550200D01*
X174705200Y-53187600D02*
X174930300Y-53187600D01*
X173380000Y-53187600D02*
X174705200Y-53187600D01*
X174930300Y-53187600D02*
X174930300Y-52043700D01*
X174930300Y-52043700D02*
X177190000Y-49784000D01*
X118273000Y-85731000D02*
X116266000Y-87738000D01*
X116266000Y-87738000D02*
X116266000Y-95000000D01*
X116266000Y-95000000D02*
X117731600Y-96465600D01*
X117731600Y-96465600D02*
X117731600Y-98559400D01*
X117731600Y-98559400D02*
X116291000Y-100000000D01*
X154498000Y-117180000D02*
X152925300Y-115607300D01*
X152925300Y-115607300D02*
X146011300Y-115607300D01*
X146011300Y-115607300D02*
X142733000Y-112329000D01*
X157038000Y-117180000D02*
X154498000Y-117180000D01*
X116677000Y-60000000D02*
X115283800Y-58606800D01*
X115283800Y-58606800D02*
X115283800Y-56459200D01*
X115283800Y-56459200D02*
X116743000Y-55000000D01*
X117040000Y-50000000D02*
X124960200Y-50000000D01*
X124960200Y-50000000D02*
X125036000Y-49924200D01*
D26*
%TO.N,EN*%
X130033000Y-94549000D02*
X127557300Y-92073300D01*
X127557300Y-92073300D02*
X127557300Y-76704700D01*
X127557300Y-76704700D02*
X130033000Y-74229000D01*
%TO.N,XSTEP*%
X130033000Y-89469000D02*
X132893500Y-86608500D01*
%TO.N,XDIR*%
X130033000Y-92009000D02*
X128042700Y-90018700D01*
X128042700Y-90018700D02*
X128042700Y-77231400D01*
X128042700Y-77231400D02*
X129622600Y-75651500D01*
X129622600Y-75651500D02*
X130138800Y-75651500D01*
X130138800Y-75651500D02*
X131115700Y-74674600D01*
X131115700Y-74674600D02*
X131115700Y-73412000D01*
X131115700Y-73412000D02*
X131043000Y-73339300D01*
X131043000Y-73339300D02*
X131043000Y-68268600D01*
X131043000Y-68268600D02*
X131976500Y-67335100D01*
X131976500Y-67335100D02*
X145424400Y-67335100D01*
X145424400Y-67335100D02*
X146624000Y-68534700D01*
X146624000Y-68534700D02*
X146624000Y-69292600D01*
X146624000Y-69292600D02*
X147381800Y-70050400D01*
X147381800Y-70050400D02*
X163527600Y-70050400D01*
X163527600Y-70050400D02*
X164658000Y-68920000D01*
D27*
%TO.N,VIN*%
X152989000Y-74051200D02*
X151837600Y-72899800D01*
X151837600Y-72899800D02*
X144062200Y-72899800D01*
X144062200Y-72899800D02*
X142733000Y-74229000D01*
X152633000Y-95778400D02*
X155791200Y-92620200D01*
X155791200Y-92620200D02*
X157441000Y-92620200D01*
X159446000Y-94625200D02*
X157441000Y-92620200D01*
X140618700Y-76380000D02*
X140618700Y-79063000D01*
X140618700Y-79063000D02*
X141376700Y-79821000D01*
X135956000Y-73980100D02*
X138355900Y-76380000D01*
X138355900Y-76380000D02*
X140618700Y-76380000D01*
X157441000Y-76234200D02*
X155172000Y-76234200D01*
X155172000Y-76234200D02*
X152989000Y-74051200D01*
X142733000Y-94549000D02*
X142604400Y-94420400D01*
X142604400Y-94420400D02*
X137410000Y-94420400D01*
X137410000Y-94420400D02*
X136052000Y-95778400D01*
X177190000Y-47284000D02*
X175639700Y-47284000D01*
X154102000Y-47879000D02*
X175044700Y-47879000D01*
X175044700Y-47879000D02*
X175639700Y-47284000D01*
D26*
%TO.N,ZSTEP*%
X167198000Y-68920000D02*
X164259200Y-65981200D01*
X164259200Y-65981200D02*
X131412300Y-65981200D01*
X131412300Y-65981200D02*
X124250800Y-73142700D01*
X124250800Y-73142700D02*
X124250800Y-74018000D01*
X124250800Y-74018000D02*
X122860700Y-75408100D01*
X122860700Y-75408100D02*
X122860700Y-102616700D01*
X122860700Y-102616700D02*
X130033000Y-109789000D01*
%TO.N,ZDIR*%
X130033000Y-112329000D02*
X131157500Y-111204500D01*
X131157500Y-111204500D02*
X131157500Y-109314900D01*
X131157500Y-109314900D02*
X130361600Y-108519000D01*
X130361600Y-108519000D02*
X129760500Y-108519000D01*
X129760500Y-108519000D02*
X123311000Y-102069500D01*
X123311000Y-102069500D02*
X123311000Y-85095700D01*
X123311000Y-85095700D02*
X126197700Y-82209000D01*
X126197700Y-82209000D02*
X126197700Y-71832700D01*
X126197700Y-71832700D02*
X131598900Y-66431500D01*
X131598900Y-66431500D02*
X157089500Y-66431500D01*
X157089500Y-66431500D02*
X159578000Y-68920000D01*
%TO.N,ADIR*%
X146746000Y-112405200D02*
X147826400Y-111324800D01*
X147826400Y-111324800D02*
X147826400Y-109417600D01*
X147826400Y-109417600D02*
X147163300Y-108754500D01*
X147163300Y-108754500D02*
X146592300Y-108754500D01*
X146592300Y-108754500D02*
X144818600Y-106980800D01*
X144818600Y-106980800D02*
X144818600Y-90026700D01*
X144818600Y-90026700D02*
X143150200Y-88358300D01*
X143150200Y-88358300D02*
X142625300Y-88358300D01*
X142625300Y-88358300D02*
X132736900Y-78469900D01*
X132736900Y-78469900D02*
X132736900Y-70813100D01*
X132736900Y-70813100D02*
X131493400Y-69569600D01*
X131493400Y-69569600D02*
X131493400Y-68455100D01*
X131493400Y-68455100D02*
X132163000Y-67785500D01*
X132163000Y-67785500D02*
X141679500Y-67785500D01*
X141679500Y-67785500D02*
X142814000Y-68920000D01*
%TO.N,ASTEP*%
X130256000Y-69248400D02*
X130256000Y-68418700D01*
X130256000Y-68418700D02*
X131789900Y-66884800D01*
X131789900Y-66884800D02*
X145858800Y-66884800D01*
X145858800Y-66884800D02*
X147894000Y-68920000D01*
D27*
%TO.N,GNDA*%
X154989000Y-74051200D02*
X152937300Y-71999500D01*
X152937300Y-71999500D02*
X143057700Y-71999500D01*
X143057700Y-71999500D02*
X140510600Y-74546600D01*
X138052000Y-95778400D02*
X139362600Y-97089000D01*
X139362600Y-97089000D02*
X142733000Y-97089000D01*
X140510600Y-74546600D02*
X142733000Y-76769000D01*
X137956000Y-73980100D02*
X139944100Y-73980100D01*
X139944100Y-73980100D02*
X140510600Y-74546600D01*
X159370000Y-76845200D02*
X156576000Y-74051200D01*
X156576000Y-74051200D02*
X154989000Y-74051200D01*
X119729600Y-114972900D02*
X119729600Y-114711600D01*
X119729600Y-114711600D02*
X116438000Y-111420000D01*
X119438000Y-116120000D02*
X119729600Y-115828400D01*
X119729600Y-115828400D02*
X119729600Y-114972900D01*
X119729600Y-114972900D02*
X141427600Y-114972900D01*
X159446000Y-97165200D02*
X156019800Y-97165200D01*
X156019800Y-97165200D02*
X154633000Y-95778400D01*
%TO.N,VIN_*%
X152701700Y-55573000D02*
X145143900Y-63130800D01*
X145143900Y-63130800D02*
X133307600Y-63130800D01*
X133307600Y-63130800D02*
X121417500Y-75020900D01*
X121417500Y-75020900D02*
X121417500Y-108688200D01*
X122438000Y-111420000D02*
X122438000Y-109119700D01*
X121417500Y-108688200D02*
X121849000Y-109119700D01*
X121849000Y-109119700D02*
X122438000Y-109119700D01*
X152701700Y-55573000D02*
X152701700Y-51951700D01*
X151602000Y-50852000D02*
X151602000Y-47879000D01*
X152701700Y-51951700D02*
X151602000Y-50852000D01*
D26*
%TO.N,_SCL_*%
X165030000Y-81540000D02*
X163666400Y-80176400D01*
X163666400Y-80176400D02*
X163666400Y-79565900D01*
X163666400Y-79565900D02*
X159516300Y-75415800D01*
X159516300Y-75415800D02*
X158952800Y-75415800D01*
X158952800Y-75415800D02*
X154678800Y-71141800D01*
X154678800Y-71141800D02*
X134875800Y-71141800D01*
X134875800Y-71141800D02*
X132654000Y-68920000D01*
%TO.N,_SDA_*%
X167570000Y-81540000D02*
X166300500Y-80270500D01*
X166300500Y-80270500D02*
X166300500Y-78254100D01*
X166300500Y-78254100D02*
X158737900Y-70691500D01*
X158737900Y-70691500D02*
X136965500Y-70691500D01*
X136965500Y-70691500D02*
X135194000Y-68920000D01*
%TO.N,DC*%
X167570000Y-84080000D02*
X177358000Y-74292000D01*
X177358000Y-74292000D02*
X177358000Y-68920000D01*
%TO.N,res*%
X165030000Y-86620000D02*
X166394600Y-85255400D01*
X166394600Y-85255400D02*
X166394600Y-83554400D01*
X166394600Y-83554400D02*
X167044400Y-82904600D01*
X167044400Y-82904600D02*
X168058700Y-82904600D01*
X168058700Y-82904600D02*
X174818000Y-76145300D01*
X174818000Y-76145300D02*
X174818000Y-68920000D01*
%TO.N,O_sig*%
X167198000Y-117180000D02*
X175378400Y-108999600D01*
X175378400Y-108999600D02*
X175378400Y-105764600D01*
X175378400Y-105764600D02*
X176743000Y-104400000D01*
D27*
%TO.N,5V_pi*%
X117040000Y-47500000D02*
X117040000Y-46099700D01*
X143036000Y-57924200D02*
X131182200Y-46070400D01*
X131182200Y-46070400D02*
X117069300Y-46070400D01*
X117069300Y-46070400D02*
X117040000Y-46099700D01*
D28*
%TO.N,y2B*%
X159370000Y-79385200D02*
X162955300Y-82970500D01*
X162955300Y-82970500D02*
X162955300Y-87085300D01*
X162955300Y-87085300D02*
X165030000Y-89160000D01*
%TO.N,x2B*%
X142733000Y-79309000D02*
X142733000Y-79017100D01*
X142733000Y-79017100D02*
X146153600Y-75596500D01*
X146153600Y-75596500D02*
X148686900Y-75596500D01*
X148686900Y-75596500D02*
X150493800Y-73789600D01*
%TO.N,y2A*%
X165030000Y-91700000D02*
X162676300Y-89346300D01*
X162676300Y-89346300D02*
X162676300Y-87992900D01*
X162676300Y-87992900D02*
X161976000Y-87292600D01*
X161976000Y-87292600D02*
X161976000Y-84531200D01*
X161976000Y-84531200D02*
X159370000Y-81925200D01*
%TO.N,x2A*%
X167570000Y-91700000D02*
X171765700Y-95895700D01*
X171765700Y-95895700D02*
X171765700Y-111170100D01*
X171765700Y-111170100D02*
X167748700Y-115187100D01*
X167748700Y-115187100D02*
X157267300Y-115187100D01*
X142733000Y-81849000D02*
X144067600Y-83183600D01*
X144067600Y-83183600D02*
X144067600Y-86149700D01*
X144067600Y-86149700D02*
X146193100Y-88275200D01*
X146193100Y-88275200D02*
X147129900Y-88275200D01*
X147129900Y-88275200D02*
X148692300Y-89837600D01*
X148692300Y-89837600D02*
X148692300Y-93979600D01*
X148692300Y-93979600D02*
X150053700Y-95341000D01*
%TO.N,y1A*%
X165030000Y-94240000D02*
X161976000Y-91186000D01*
X161976000Y-91186000D02*
X161976000Y-88283200D01*
X161976000Y-88283200D02*
X161275700Y-87582900D01*
X161275700Y-87582900D02*
X161275700Y-86370900D01*
X161275700Y-86370900D02*
X159370000Y-84465200D01*
%TO.N,x1A*%
X170260800Y-79818100D02*
X168468000Y-78025300D01*
X168468000Y-78025300D02*
X168468000Y-68395600D01*
X168468000Y-68395600D02*
X165294800Y-65222400D01*
X165294800Y-65222400D02*
X140609700Y-65222400D01*
X142733000Y-84389000D02*
X134666400Y-76322400D01*
X134666400Y-76322400D02*
X134666400Y-73351200D01*
X134666400Y-73351200D02*
X135334100Y-72683500D01*
%TO.N,y1B*%
X159370000Y-87005200D02*
X160651400Y-88286600D01*
X160651400Y-88286600D02*
X160651400Y-92401400D01*
X160651400Y-92401400D02*
X165030000Y-96780000D01*
%TO.N,x1B*%
X164978800Y-114436800D02*
X167508500Y-114436800D01*
X167508500Y-114436800D02*
X171065400Y-110879900D01*
X171065400Y-110879900D02*
X171065400Y-100275400D01*
X171065400Y-100275400D02*
X167570000Y-96780000D01*
X142733000Y-86929000D02*
X145394000Y-89590000D01*
X145394000Y-89590000D02*
X145394000Y-92578100D01*
X145394000Y-92578100D02*
X146133100Y-93317200D01*
X146133100Y-93317200D02*
X147157900Y-93317200D01*
X147157900Y-93317200D02*
X147951400Y-94110700D01*
X147951400Y-94110700D02*
X147951400Y-95582300D01*
X147951400Y-95582300D02*
X150391200Y-98022100D01*
X162696500Y-106055100D02*
X158634500Y-106055100D01*
X158634500Y-106055100D02*
X152269500Y-99690100D01*
%TO.N,a2B*%
X159446000Y-99705200D02*
X164644800Y-99705200D01*
X164644800Y-99705200D02*
X165030000Y-99320000D01*
%TO.N,z2B*%
X152269500Y-102317700D02*
X158547000Y-108595200D01*
X158547000Y-108595200D02*
X162202800Y-108595200D01*
X162202800Y-108595200D02*
X164348100Y-110740500D01*
%TO.N,a2A*%
X159446000Y-102245200D02*
X164644800Y-102245200D01*
X164644800Y-102245200D02*
X165030000Y-101860000D01*
%TO.N,z2A*%
X142733000Y-102169000D02*
X141509700Y-103392300D01*
X141509700Y-103392300D02*
X141509700Y-107739700D01*
X141509700Y-107739700D02*
X142289000Y-108519000D01*
X142289000Y-108519000D02*
X143179700Y-108519000D01*
X143179700Y-108519000D02*
X144713100Y-110052400D01*
X144713100Y-110052400D02*
X144713100Y-113148600D01*
X144713100Y-113148600D02*
X145974300Y-114409800D01*
X145974300Y-114409800D02*
X163944400Y-114409800D01*
X163944400Y-114409800D02*
X164951600Y-113402600D01*
X164951600Y-113402600D02*
X167552200Y-113402600D01*
X167552200Y-113402600D02*
X170365100Y-110589700D01*
X170365100Y-110589700D02*
X170365100Y-104655100D01*
X170365100Y-104655100D02*
X167570000Y-101860000D01*
%TO.N,a1A*%
X159446000Y-104785200D02*
X164644800Y-104785200D01*
X164644800Y-104785200D02*
X165030000Y-104400000D01*
%TO.N,z1A*%
X142733000Y-104709000D02*
X143938300Y-105914300D01*
X143938300Y-105914300D02*
X143938300Y-106914200D01*
X143938300Y-106914200D02*
X145436200Y-108412100D01*
X145436200Y-108412100D02*
X145436200Y-112881200D01*
X145436200Y-112881200D02*
X146264500Y-113709500D01*
X146264500Y-113709500D02*
X163159200Y-113709500D01*
X163159200Y-113709500D02*
X164411500Y-112457200D01*
X164411500Y-112457200D02*
X167507100Y-112457200D01*
X167507100Y-112457200D02*
X169664800Y-110299500D01*
X169664800Y-110299500D02*
X169664800Y-106494800D01*
X169664800Y-106494800D02*
X167570000Y-104400000D01*
%TO.N,a1B*%
X165030000Y-106940000D02*
X159831200Y-106940000D01*
X159831200Y-106940000D02*
X159446000Y-107325200D01*
%TO.N,z1B*%
X167570000Y-106940000D02*
X168916600Y-108286600D01*
X168916600Y-108286600D02*
X168916600Y-110036600D01*
X168916600Y-110036600D02*
X167462400Y-111490800D01*
X167462400Y-111490800D02*
X163678200Y-111490800D01*
X163678200Y-111490800D02*
X163329200Y-111141800D01*
X163329200Y-111141800D02*
X158593400Y-111141800D01*
X158593400Y-111141800D02*
X156752500Y-112982700D01*
X156752500Y-112982700D02*
X149471500Y-112982700D01*
X149471500Y-112982700D02*
X149140400Y-112651600D01*
X149140400Y-112651600D02*
X149140400Y-109585400D01*
X149140400Y-109585400D02*
X148085600Y-108530600D01*
D26*
%TO.N,Net-(MSA1-Pad2)*%
X150480000Y-109103000D02*
X150480000Y-106953200D01*
X150480000Y-106953200D02*
X147219100Y-103692300D01*
X147219100Y-103692300D02*
X146623700Y-103692300D01*
X146623700Y-103692300D02*
X145636900Y-102705500D01*
X145636900Y-102705500D02*
X145636900Y-98274300D01*
X145636900Y-98274300D02*
X146746000Y-97165200D01*
%TO.N,Net-(MSA1-Pad6)*%
X155560000Y-109103000D02*
X154384700Y-109103000D01*
X154384700Y-109103000D02*
X154384700Y-108735700D01*
X154384700Y-108735700D02*
X147894200Y-102245200D01*
X147894200Y-102245200D02*
X146746000Y-102245200D01*
%TO.N,Net-(MSX1-Pad6)*%
X139025000Y-88605400D02*
X137849700Y-88605400D01*
X137849700Y-88605400D02*
X137849700Y-88280200D01*
X137849700Y-88280200D02*
X131418500Y-81849000D01*
X131418500Y-81849000D02*
X130033000Y-81849000D01*
%TO.N,Net-(MSX1-Pad4)*%
X136485000Y-88605400D02*
X136485000Y-88564600D01*
X136485000Y-88564600D02*
X131039400Y-83119000D01*
X131039400Y-83119000D02*
X129734300Y-83119000D01*
X129734300Y-83119000D02*
X128943500Y-82328200D01*
X128943500Y-82328200D02*
X128943500Y-80398500D01*
X128943500Y-80398500D02*
X130033000Y-79309000D01*
%TO.N,Net-(MSX1-Pad2)*%
X133945000Y-88605400D02*
X133945000Y-86661600D01*
X133945000Y-86661600D02*
X132942400Y-85659000D01*
X132942400Y-85659000D02*
X129749500Y-85659000D01*
X129749500Y-85659000D02*
X128493100Y-84402600D01*
X128493100Y-84402600D02*
X128493100Y-78308900D01*
X128493100Y-78308900D02*
X130033000Y-76769000D01*
%TO.N,Net-(MSY1-Pad2)*%
X150835000Y-88605400D02*
X149659700Y-88605400D01*
X149659700Y-88605400D02*
X149659700Y-88458500D01*
X149659700Y-88458500D02*
X146936400Y-85735200D01*
X146936400Y-85735200D02*
X146363400Y-85735200D01*
X146363400Y-85735200D02*
X145112900Y-84484700D01*
X145112900Y-84484700D02*
X145112900Y-78402300D01*
X145112900Y-78402300D02*
X146670000Y-76845200D01*
%TO.N,Net-(MSY1-Pad4)*%
X152199700Y-88605400D02*
X152199700Y-88238100D01*
X152199700Y-88238100D02*
X147156800Y-83195200D01*
X147156800Y-83195200D02*
X146398100Y-83195200D01*
X146398100Y-83195200D02*
X145566100Y-82363200D01*
X145566100Y-82363200D02*
X145566100Y-80489100D01*
X145566100Y-80489100D02*
X146670000Y-79385200D01*
X153375000Y-88605400D02*
X152199700Y-88605400D01*
%TO.N,Net-(MSY1-Pad6)*%
X155915000Y-88605400D02*
X154739700Y-88605400D01*
X154739700Y-88605400D02*
X154739700Y-88238100D01*
X154739700Y-88238100D02*
X148426800Y-81925200D01*
X148426800Y-81925200D02*
X146670000Y-81925200D01*
%TO.N,Net-(MSZ1-Pad6)*%
X138923000Y-109129000D02*
X137747700Y-109129000D01*
X137747700Y-109129000D02*
X137747700Y-109496300D01*
X137747700Y-109496300D02*
X136939600Y-110304400D01*
X136939600Y-110304400D02*
X135857400Y-110304400D01*
X135857400Y-110304400D02*
X135113000Y-109560000D01*
X135113000Y-109560000D02*
X135113000Y-107249000D01*
X135113000Y-107249000D02*
X130033000Y-102169000D01*
%TO.N,Net-(MSZ1-Pad4)*%
X136383000Y-109129000D02*
X136383000Y-107953700D01*
X130033000Y-99629000D02*
X136383000Y-105979000D01*
X136383000Y-105979000D02*
X136383000Y-107953700D01*
%TO.N,up_light*%
X172278000Y-117180000D02*
X177933600Y-111524400D01*
X177933600Y-111524400D02*
X177933600Y-100510600D01*
X177933600Y-100510600D02*
X176743000Y-99320000D01*
%TO.N,D*%
X173380000Y-55727600D02*
X177150000Y-59497600D01*
X177150000Y-59497600D02*
X177150000Y-63525400D01*
%TO.N,Net-(RstpX1-Pad2)*%
X148214200Y-54290500D02*
X143493100Y-59011600D01*
X143493100Y-59011600D02*
X118214600Y-59011600D01*
X118214600Y-59011600D02*
X116743000Y-57540000D01*
%TO.N,Net-(RstpY1-Pad2)*%
X144791600Y-62280500D02*
X116936500Y-62280500D01*
X116936500Y-62280500D02*
X116677000Y-62540000D01*
%TD*%
D29*
%TO.N,VIN*%
G36*
X135435708Y-94474797D02*
G01*
X135310486Y-94541729D01*
X135238903Y-94785698D01*
X136052000Y-95598795D01*
X136066143Y-95584653D01*
X136245748Y-95764258D01*
X136231605Y-95778400D01*
X136245748Y-95792543D01*
X136066143Y-95972148D01*
X136052000Y-95958005D01*
X135238903Y-96771102D01*
X135310486Y-97015071D01*
X135565996Y-97135971D01*
X135840184Y-97204700D01*
X136122512Y-97218617D01*
X136402130Y-97177187D01*
X136668292Y-97082003D01*
X136793514Y-97015071D01*
X136865097Y-96771104D01*
X136981370Y-96887377D01*
X137056476Y-96812272D01*
X137137241Y-96893037D01*
X137372273Y-97050080D01*
X137633426Y-97158253D01*
X137910665Y-97213400D01*
X138094000Y-97213400D01*
X138631884Y-97751284D01*
X138662730Y-97788870D01*
X138812716Y-97911960D01*
X138983833Y-98003424D01*
X139126291Y-98046638D01*
X139169505Y-98059747D01*
X139362599Y-98078765D01*
X139410979Y-98074000D01*
X141752242Y-98074000D01*
X141846926Y-98168684D01*
X142074588Y-98320802D01*
X142166806Y-98359000D01*
X142074588Y-98397198D01*
X141846926Y-98549316D01*
X141653316Y-98742926D01*
X141501198Y-98970588D01*
X141396417Y-99223552D01*
X141343000Y-99492097D01*
X141343000Y-99765903D01*
X141396417Y-100034448D01*
X141501198Y-100287412D01*
X141653316Y-100515074D01*
X141846926Y-100708684D01*
X142074588Y-100860802D01*
X142166806Y-100899000D01*
X142074588Y-100937198D01*
X141846926Y-101089316D01*
X141653316Y-101282926D01*
X141501198Y-101510588D01*
X141396417Y-101763552D01*
X141343000Y-102032097D01*
X141343000Y-102305903D01*
X141343252Y-102307170D01*
X140914656Y-102735766D01*
X140880883Y-102763483D01*
X140770289Y-102898242D01*
X140688111Y-103051988D01*
X140663087Y-103134481D01*
X140638125Y-103216768D01*
X140637505Y-103218811D01*
X140624700Y-103348824D01*
X140624700Y-103348831D01*
X140620419Y-103392300D01*
X140624700Y-103435769D01*
X140624701Y-107166801D01*
X134103500Y-100645600D01*
X134103500Y-95848912D01*
X134611783Y-95848912D01*
X134653213Y-96128530D01*
X134748397Y-96394692D01*
X134815329Y-96519914D01*
X135059298Y-96591497D01*
X135872395Y-95778400D01*
X135059298Y-94965303D01*
X134815329Y-95036886D01*
X134694429Y-95292396D01*
X134625700Y-95566584D01*
X134611783Y-95848912D01*
X134103500Y-95848912D01*
X134103500Y-95108223D01*
X134211893Y-95097547D01*
X134397566Y-95041224D01*
X134568683Y-94949759D01*
X134681090Y-94857510D01*
X135108401Y-94430200D01*
X135560414Y-94430200D01*
X135435708Y-94474797D01*
G37*
X135435708Y-94474797D02*
X135310486Y-94541729D01*
X135238903Y-94785698D01*
X136052000Y-95598795D01*
X136066143Y-95584653D01*
X136245748Y-95764258D01*
X136231605Y-95778400D01*
X136245748Y-95792543D01*
X136066143Y-95972148D01*
X136052000Y-95958005D01*
X135238903Y-96771102D01*
X135310486Y-97015071D01*
X135565996Y-97135971D01*
X135840184Y-97204700D01*
X136122512Y-97218617D01*
X136402130Y-97177187D01*
X136668292Y-97082003D01*
X136793514Y-97015071D01*
X136865097Y-96771104D01*
X136981370Y-96887377D01*
X137056476Y-96812272D01*
X137137241Y-96893037D01*
X137372273Y-97050080D01*
X137633426Y-97158253D01*
X137910665Y-97213400D01*
X138094000Y-97213400D01*
X138631884Y-97751284D01*
X138662730Y-97788870D01*
X138812716Y-97911960D01*
X138983833Y-98003424D01*
X139126291Y-98046638D01*
X139169505Y-98059747D01*
X139362599Y-98078765D01*
X139410979Y-98074000D01*
X141752242Y-98074000D01*
X141846926Y-98168684D01*
X142074588Y-98320802D01*
X142166806Y-98359000D01*
X142074588Y-98397198D01*
X141846926Y-98549316D01*
X141653316Y-98742926D01*
X141501198Y-98970588D01*
X141396417Y-99223552D01*
X141343000Y-99492097D01*
X141343000Y-99765903D01*
X141396417Y-100034448D01*
X141501198Y-100287412D01*
X141653316Y-100515074D01*
X141846926Y-100708684D01*
X142074588Y-100860802D01*
X142166806Y-100899000D01*
X142074588Y-100937198D01*
X141846926Y-101089316D01*
X141653316Y-101282926D01*
X141501198Y-101510588D01*
X141396417Y-101763552D01*
X141343000Y-102032097D01*
X141343000Y-102305903D01*
X141343252Y-102307170D01*
X140914656Y-102735766D01*
X140880883Y-102763483D01*
X140770289Y-102898242D01*
X140688111Y-103051988D01*
X140663087Y-103134481D01*
X140638125Y-103216768D01*
X140637505Y-103218811D01*
X140624700Y-103348824D01*
X140624700Y-103348831D01*
X140620419Y-103392300D01*
X140624700Y-103435769D01*
X140624701Y-107166801D01*
X134103500Y-100645600D01*
X134103500Y-95848912D01*
X134611783Y-95848912D01*
X134653213Y-96128530D01*
X134748397Y-96394692D01*
X134815329Y-96519914D01*
X135059298Y-96591497D01*
X135872395Y-95778400D01*
X135059298Y-94965303D01*
X134815329Y-95036886D01*
X134694429Y-95292396D01*
X134625700Y-95566584D01*
X134611783Y-95848912D01*
X134103500Y-95848912D01*
X134103500Y-95108223D01*
X134211893Y-95097547D01*
X134397566Y-95041224D01*
X134568683Y-94949759D01*
X134681090Y-94857510D01*
X135108401Y-94430200D01*
X135560414Y-94430200D01*
X135435708Y-94474797D01*
G36*
X157980000Y-92222103D02*
G01*
X158033417Y-92490648D01*
X158138198Y-92743612D01*
X158290316Y-92971274D01*
X158483926Y-93164884D01*
X158711588Y-93317002D01*
X158836727Y-93368836D01*
X158731171Y-93425257D01*
X158665039Y-93664634D01*
X159446000Y-94445595D01*
X160226961Y-93664634D01*
X160160829Y-93425257D01*
X159976298Y-93338588D01*
X160028412Y-93317002D01*
X160200463Y-93202042D01*
X163559461Y-96561040D01*
X163545000Y-96633740D01*
X163545000Y-96926260D01*
X163602068Y-97213158D01*
X163714010Y-97483411D01*
X163876525Y-97726632D01*
X164083368Y-97933475D01*
X164257760Y-98050000D01*
X164083368Y-98166525D01*
X163876525Y-98373368D01*
X163714010Y-98616589D01*
X163629672Y-98820200D01*
X160526402Y-98820200D01*
X160525684Y-98819126D01*
X160332074Y-98625516D01*
X160104412Y-98473398D01*
X160012194Y-98435200D01*
X160104412Y-98397002D01*
X160332074Y-98244884D01*
X160525684Y-98051274D01*
X160677802Y-97823612D01*
X160782583Y-97570648D01*
X160836000Y-97302103D01*
X160836000Y-97028297D01*
X160782583Y-96759752D01*
X160677802Y-96506788D01*
X160525684Y-96279126D01*
X160332074Y-96085516D01*
X160104412Y-95933398D01*
X160016605Y-95897027D01*
X160046579Y-95886211D01*
X160160829Y-95825143D01*
X160226961Y-95585766D01*
X159446000Y-94804805D01*
X158665039Y-95585766D01*
X158731171Y-95825143D01*
X158880086Y-95895084D01*
X158787588Y-95933398D01*
X158559926Y-96085516D01*
X158465242Y-96180200D01*
X156427800Y-96180200D01*
X156068000Y-95820400D01*
X156068000Y-95637065D01*
X156012853Y-95359826D01*
X155904680Y-95098673D01*
X155747637Y-94863641D01*
X155581490Y-94697494D01*
X158051146Y-94697494D01*
X158092052Y-94968227D01*
X158184989Y-95225779D01*
X158246057Y-95340029D01*
X158485434Y-95406161D01*
X159266395Y-94625200D01*
X159625605Y-94625200D01*
X160406566Y-95406161D01*
X160645943Y-95340029D01*
X160762342Y-95092197D01*
X160828155Y-94826418D01*
X160840854Y-94552906D01*
X160799948Y-94282173D01*
X160707011Y-94024621D01*
X160645943Y-93910371D01*
X160406566Y-93844239D01*
X159625605Y-94625200D01*
X159266395Y-94625200D01*
X158485434Y-93844239D01*
X158246057Y-93910371D01*
X158129658Y-94158203D01*
X158063845Y-94423982D01*
X158051146Y-94697494D01*
X155581490Y-94697494D01*
X155547759Y-94663763D01*
X155312727Y-94506720D01*
X155051574Y-94398547D01*
X154774335Y-94343400D01*
X154491665Y-94343400D01*
X154214426Y-94398547D01*
X153953273Y-94506720D01*
X153718241Y-94663763D01*
X153637476Y-94744529D01*
X153562370Y-94669423D01*
X153446097Y-94785696D01*
X153374514Y-94541729D01*
X153119004Y-94420829D01*
X152844816Y-94352100D01*
X152562488Y-94338183D01*
X152282870Y-94379613D01*
X152267700Y-94385038D01*
X152267700Y-93041779D01*
X152272465Y-92993399D01*
X152253447Y-92800305D01*
X152234787Y-92738793D01*
X152197124Y-92614633D01*
X152116108Y-92463062D01*
X152136185Y-92446585D01*
X152215537Y-92349894D01*
X152274502Y-92239580D01*
X152274929Y-92238171D01*
X152321297Y-92191804D01*
X152428368Y-92298875D01*
X152671589Y-92461390D01*
X152941842Y-92573332D01*
X153228740Y-92630400D01*
X153521260Y-92630400D01*
X153808158Y-92573332D01*
X154078411Y-92461390D01*
X154321632Y-92298875D01*
X154490107Y-92130400D01*
X154799893Y-92130400D01*
X154968368Y-92298875D01*
X155211589Y-92461390D01*
X155481842Y-92573332D01*
X155768740Y-92630400D01*
X156061260Y-92630400D01*
X156348158Y-92573332D01*
X156618411Y-92461390D01*
X156861632Y-92298875D01*
X157030107Y-92130400D01*
X157721420Y-92130400D01*
X157769800Y-92135165D01*
X157818180Y-92130400D01*
X157962894Y-92116147D01*
X157980000Y-92110958D01*
X157980000Y-92222103D01*
G37*
X157980000Y-92222103D02*
X158033417Y-92490648D01*
X158138198Y-92743612D01*
X158290316Y-92971274D01*
X158483926Y-93164884D01*
X158711588Y-93317002D01*
X158836727Y-93368836D01*
X158731171Y-93425257D01*
X158665039Y-93664634D01*
X159446000Y-94445595D01*
X160226961Y-93664634D01*
X160160829Y-93425257D01*
X159976298Y-93338588D01*
X160028412Y-93317002D01*
X160200463Y-93202042D01*
X163559461Y-96561040D01*
X163545000Y-96633740D01*
X163545000Y-96926260D01*
X163602068Y-97213158D01*
X163714010Y-97483411D01*
X163876525Y-97726632D01*
X164083368Y-97933475D01*
X164257760Y-98050000D01*
X164083368Y-98166525D01*
X163876525Y-98373368D01*
X163714010Y-98616589D01*
X163629672Y-98820200D01*
X160526402Y-98820200D01*
X160525684Y-98819126D01*
X160332074Y-98625516D01*
X160104412Y-98473398D01*
X160012194Y-98435200D01*
X160104412Y-98397002D01*
X160332074Y-98244884D01*
X160525684Y-98051274D01*
X160677802Y-97823612D01*
X160782583Y-97570648D01*
X160836000Y-97302103D01*
X160836000Y-97028297D01*
X160782583Y-96759752D01*
X160677802Y-96506788D01*
X160525684Y-96279126D01*
X160332074Y-96085516D01*
X160104412Y-95933398D01*
X160016605Y-95897027D01*
X160046579Y-95886211D01*
X160160829Y-95825143D01*
X160226961Y-95585766D01*
X159446000Y-94804805D01*
X158665039Y-95585766D01*
X158731171Y-95825143D01*
X158880086Y-95895084D01*
X158787588Y-95933398D01*
X158559926Y-96085516D01*
X158465242Y-96180200D01*
X156427800Y-96180200D01*
X156068000Y-95820400D01*
X156068000Y-95637065D01*
X156012853Y-95359826D01*
X155904680Y-95098673D01*
X155747637Y-94863641D01*
X155581490Y-94697494D01*
X158051146Y-94697494D01*
X158092052Y-94968227D01*
X158184989Y-95225779D01*
X158246057Y-95340029D01*
X158485434Y-95406161D01*
X159266395Y-94625200D01*
X159625605Y-94625200D01*
X160406566Y-95406161D01*
X160645943Y-95340029D01*
X160762342Y-95092197D01*
X160828155Y-94826418D01*
X160840854Y-94552906D01*
X160799948Y-94282173D01*
X160707011Y-94024621D01*
X160645943Y-93910371D01*
X160406566Y-93844239D01*
X159625605Y-94625200D01*
X159266395Y-94625200D01*
X158485434Y-93844239D01*
X158246057Y-93910371D01*
X158129658Y-94158203D01*
X158063845Y-94423982D01*
X158051146Y-94697494D01*
X155581490Y-94697494D01*
X155547759Y-94663763D01*
X155312727Y-94506720D01*
X155051574Y-94398547D01*
X154774335Y-94343400D01*
X154491665Y-94343400D01*
X154214426Y-94398547D01*
X153953273Y-94506720D01*
X153718241Y-94663763D01*
X153637476Y-94744529D01*
X153562370Y-94669423D01*
X153446097Y-94785696D01*
X153374514Y-94541729D01*
X153119004Y-94420829D01*
X152844816Y-94352100D01*
X152562488Y-94338183D01*
X152282870Y-94379613D01*
X152267700Y-94385038D01*
X152267700Y-93041779D01*
X152272465Y-92993399D01*
X152253447Y-92800305D01*
X152234787Y-92738793D01*
X152197124Y-92614633D01*
X152116108Y-92463062D01*
X152136185Y-92446585D01*
X152215537Y-92349894D01*
X152274502Y-92239580D01*
X152274929Y-92238171D01*
X152321297Y-92191804D01*
X152428368Y-92298875D01*
X152671589Y-92461390D01*
X152941842Y-92573332D01*
X153228740Y-92630400D01*
X153521260Y-92630400D01*
X153808158Y-92573332D01*
X154078411Y-92461390D01*
X154321632Y-92298875D01*
X154490107Y-92130400D01*
X154799893Y-92130400D01*
X154968368Y-92298875D01*
X155211589Y-92461390D01*
X155481842Y-92573332D01*
X155768740Y-92630400D01*
X156061260Y-92630400D01*
X156348158Y-92573332D01*
X156618411Y-92461390D01*
X156861632Y-92298875D01*
X157030107Y-92130400D01*
X157721420Y-92130400D01*
X157769800Y-92135165D01*
X157818180Y-92130400D01*
X157962894Y-92116147D01*
X157980000Y-92110958D01*
X157980000Y-92222103D01*
G36*
X144058601Y-94127416D02*
G01*
X143994011Y-93948421D01*
X143932943Y-93834171D01*
X143693566Y-93768039D01*
X142912605Y-94549000D01*
X143693566Y-95329961D01*
X143932943Y-95263829D01*
X144049342Y-95015997D01*
X144058601Y-94978607D01*
X144058601Y-96657038D01*
X143964802Y-96430588D01*
X143812684Y-96202926D01*
X143619074Y-96009316D01*
X143391412Y-95857198D01*
X143303605Y-95820827D01*
X143333579Y-95810011D01*
X143447829Y-95748943D01*
X143513961Y-95509566D01*
X142733000Y-94728605D01*
X141952039Y-95509566D01*
X142018171Y-95748943D01*
X142167086Y-95818884D01*
X142074588Y-95857198D01*
X141846926Y-96009316D01*
X141752242Y-96104000D01*
X139770600Y-96104000D01*
X139487000Y-95820400D01*
X139487000Y-95637065D01*
X139431853Y-95359826D01*
X139323680Y-95098673D01*
X139166637Y-94863641D01*
X138966759Y-94663763D01*
X138731727Y-94506720D01*
X138546991Y-94430200D01*
X141248420Y-94430200D01*
X141296800Y-94434965D01*
X141345180Y-94430200D01*
X141347027Y-94430018D01*
X141338146Y-94621294D01*
X141379052Y-94892027D01*
X141471989Y-95149579D01*
X141533057Y-95263829D01*
X141772434Y-95329961D01*
X142553395Y-94549000D01*
X142539253Y-94534858D01*
X142718858Y-94355253D01*
X142733000Y-94369395D01*
X143513961Y-93588434D01*
X143447829Y-93349057D01*
X143298914Y-93279116D01*
X143391412Y-93240802D01*
X143619074Y-93088684D01*
X143812684Y-92895074D01*
X143964802Y-92667412D01*
X144058601Y-92440961D01*
X144058601Y-94127416D01*
G37*
X144058601Y-94127416D02*
X143994011Y-93948421D01*
X143932943Y-93834171D01*
X143693566Y-93768039D01*
X142912605Y-94549000D01*
X143693566Y-95329961D01*
X143932943Y-95263829D01*
X144049342Y-95015997D01*
X144058601Y-94978607D01*
X144058601Y-96657038D01*
X143964802Y-96430588D01*
X143812684Y-96202926D01*
X143619074Y-96009316D01*
X143391412Y-95857198D01*
X143303605Y-95820827D01*
X143333579Y-95810011D01*
X143447829Y-95748943D01*
X143513961Y-95509566D01*
X142733000Y-94728605D01*
X141952039Y-95509566D01*
X142018171Y-95748943D01*
X142167086Y-95818884D01*
X142074588Y-95857198D01*
X141846926Y-96009316D01*
X141752242Y-96104000D01*
X139770600Y-96104000D01*
X139487000Y-95820400D01*
X139487000Y-95637065D01*
X139431853Y-95359826D01*
X139323680Y-95098673D01*
X139166637Y-94863641D01*
X138966759Y-94663763D01*
X138731727Y-94506720D01*
X138546991Y-94430200D01*
X141248420Y-94430200D01*
X141296800Y-94434965D01*
X141345180Y-94430200D01*
X141347027Y-94430018D01*
X141338146Y-94621294D01*
X141379052Y-94892027D01*
X141471989Y-95149579D01*
X141533057Y-95263829D01*
X141772434Y-95329961D01*
X142553395Y-94549000D01*
X142539253Y-94534858D01*
X142718858Y-94355253D01*
X142733000Y-94369395D01*
X143513961Y-93588434D01*
X143447829Y-93349057D01*
X143298914Y-93279116D01*
X143391412Y-93240802D01*
X143619074Y-93088684D01*
X143812684Y-92895074D01*
X143964802Y-92667412D01*
X144058601Y-92440961D01*
X144058601Y-94127416D01*
G36*
X152826748Y-95764258D02*
G01*
X152812605Y-95778400D01*
X152826748Y-95792543D01*
X152647143Y-95972148D01*
X152633000Y-95958005D01*
X152618858Y-95972148D01*
X152439253Y-95792543D01*
X152453395Y-95778400D01*
X152439253Y-95764258D01*
X152618858Y-95584653D01*
X152633000Y-95598795D01*
X152647143Y-95584653D01*
X152826748Y-95764258D01*
G37*
X152826748Y-95764258D02*
X152812605Y-95778400D01*
X152826748Y-95792543D01*
X152647143Y-95972148D01*
X152633000Y-95958005D01*
X152618858Y-95972148D01*
X152439253Y-95792543D01*
X152453395Y-95778400D01*
X152439253Y-95764258D01*
X152618858Y-95584653D01*
X152633000Y-95598795D01*
X152647143Y-95584653D01*
X152826748Y-95764258D01*
G36*
X137372273Y-94506720D02*
G01*
X137137241Y-94663763D01*
X137056476Y-94744529D01*
X136981370Y-94669423D01*
X136865097Y-94785696D01*
X136793514Y-94541729D01*
X136557809Y-94430200D01*
X137557009Y-94430200D01*
X137372273Y-94506720D01*
G37*
X137372273Y-94506720D02*
X137137241Y-94663763D01*
X137056476Y-94744529D01*
X136981370Y-94669423D01*
X136865097Y-94785696D01*
X136793514Y-94541729D01*
X136557809Y-94430200D01*
X137557009Y-94430200D01*
X137372273Y-94506720D01*
G36*
X152175903Y-73058498D02*
G01*
X152989000Y-73871595D01*
X153003143Y-73857453D01*
X153182748Y-74037058D01*
X153168605Y-74051200D01*
X153182748Y-74065343D01*
X153003143Y-74244948D01*
X152989000Y-74230805D01*
X152175903Y-75043902D01*
X152247486Y-75287871D01*
X152502996Y-75408771D01*
X152777184Y-75477500D01*
X153059512Y-75491417D01*
X153339130Y-75449987D01*
X153605292Y-75354803D01*
X153730514Y-75287871D01*
X153802097Y-75043904D01*
X153918370Y-75160177D01*
X153993476Y-75085072D01*
X154074241Y-75165837D01*
X154309273Y-75322880D01*
X154570426Y-75431053D01*
X154847665Y-75486200D01*
X155130335Y-75486200D01*
X155407574Y-75431053D01*
X155668727Y-75322880D01*
X155903759Y-75165837D01*
X156033396Y-75036200D01*
X156168000Y-75036200D01*
X157980000Y-76848201D01*
X157980000Y-76982103D01*
X158033417Y-77250648D01*
X158138198Y-77503612D01*
X158290316Y-77731274D01*
X158483926Y-77924884D01*
X158711588Y-78077002D01*
X158803806Y-78115200D01*
X158711588Y-78153398D01*
X158483926Y-78305516D01*
X158290316Y-78499126D01*
X158138198Y-78726788D01*
X158033417Y-78979752D01*
X157980000Y-79248297D01*
X157980000Y-79522103D01*
X158033417Y-79790648D01*
X158138198Y-80043612D01*
X158290316Y-80271274D01*
X158483926Y-80464884D01*
X158711588Y-80617002D01*
X158803806Y-80655200D01*
X158711588Y-80693398D01*
X158483926Y-80845516D01*
X158290316Y-81039126D01*
X158138198Y-81266788D01*
X158033417Y-81519752D01*
X157980000Y-81788297D01*
X157980000Y-82062103D01*
X158033417Y-82330648D01*
X158138198Y-82583612D01*
X158290316Y-82811274D01*
X158483926Y-83004884D01*
X158711588Y-83157002D01*
X158803806Y-83195200D01*
X158711588Y-83233398D01*
X158483926Y-83385516D01*
X158290316Y-83579126D01*
X158138198Y-83806788D01*
X158033417Y-84059752D01*
X157980000Y-84328297D01*
X157980000Y-84602103D01*
X158033417Y-84870648D01*
X158138198Y-85123612D01*
X158290316Y-85351274D01*
X158483926Y-85544884D01*
X158711588Y-85697002D01*
X158803806Y-85735200D01*
X158711588Y-85773398D01*
X158483926Y-85925516D01*
X158290316Y-86119126D01*
X158138198Y-86346788D01*
X158033417Y-86599752D01*
X157980000Y-86868297D01*
X157980000Y-87142103D01*
X158033417Y-87410648D01*
X158138198Y-87663612D01*
X158290316Y-87891274D01*
X158483926Y-88084884D01*
X158711588Y-88237002D01*
X158803806Y-88275200D01*
X158711588Y-88313398D01*
X158483926Y-88465516D01*
X158290316Y-88659126D01*
X158138198Y-88886788D01*
X158033417Y-89139752D01*
X157980000Y-89408297D01*
X157980000Y-89542199D01*
X157361800Y-90160400D01*
X157030107Y-90160400D01*
X156861632Y-89991925D01*
X156687240Y-89875400D01*
X156861632Y-89758875D01*
X157068475Y-89552032D01*
X157230990Y-89308811D01*
X157342932Y-89038558D01*
X157400000Y-88751660D01*
X157400000Y-88459140D01*
X157342932Y-88172242D01*
X157230990Y-87901989D01*
X157068475Y-87658768D01*
X156861632Y-87451925D01*
X156618411Y-87289410D01*
X156348158Y-87177468D01*
X156061260Y-87120400D01*
X155768740Y-87120400D01*
X155481842Y-87177468D01*
X155211589Y-87289410D01*
X155004311Y-87427909D01*
X148990604Y-81414203D01*
X148966801Y-81385199D01*
X148851076Y-81290226D01*
X148719047Y-81219654D01*
X148575786Y-81176197D01*
X148464133Y-81165200D01*
X148464122Y-81165200D01*
X148426800Y-81161524D01*
X148389478Y-81165200D01*
X147833923Y-81165200D01*
X147749684Y-81039126D01*
X147556074Y-80845516D01*
X147328412Y-80693398D01*
X147236194Y-80655200D01*
X147328412Y-80617002D01*
X147556074Y-80464884D01*
X147749684Y-80271274D01*
X147901802Y-80043612D01*
X148006583Y-79790648D01*
X148060000Y-79522103D01*
X148060000Y-79248297D01*
X148006583Y-78979752D01*
X147901802Y-78726788D01*
X147749684Y-78499126D01*
X147556074Y-78305516D01*
X147328412Y-78153398D01*
X147236194Y-78115200D01*
X147328412Y-78077002D01*
X147556074Y-77924884D01*
X147749684Y-77731274D01*
X147901802Y-77503612D01*
X148006583Y-77250648D01*
X148060000Y-76982103D01*
X148060000Y-76708297D01*
X148014887Y-76481500D01*
X148643431Y-76481500D01*
X148686900Y-76485781D01*
X148730369Y-76481500D01*
X148730377Y-76481500D01*
X148860390Y-76468695D01*
X149027213Y-76418089D01*
X149180959Y-76335911D01*
X149315717Y-76225317D01*
X149343434Y-76191544D01*
X150902724Y-74632254D01*
X150936689Y-74618186D01*
X151089828Y-74515862D01*
X151220062Y-74385628D01*
X151322386Y-74232489D01*
X151368270Y-74121712D01*
X151548783Y-74121712D01*
X151590213Y-74401330D01*
X151685397Y-74667492D01*
X151752329Y-74792714D01*
X151996298Y-74864297D01*
X152809395Y-74051200D01*
X151996298Y-73238103D01*
X151752329Y-73309686D01*
X151631429Y-73565196D01*
X151562700Y-73839384D01*
X151548783Y-74121712D01*
X151368270Y-74121712D01*
X151392868Y-74062329D01*
X151428800Y-73881689D01*
X151428800Y-73697511D01*
X151392868Y-73516871D01*
X151322386Y-73346711D01*
X151220062Y-73193572D01*
X151089828Y-73063338D01*
X150971838Y-72984500D01*
X152197615Y-72984500D01*
X152175903Y-73058498D01*
G37*
X152175903Y-73058498D02*
X152989000Y-73871595D01*
X153003143Y-73857453D01*
X153182748Y-74037058D01*
X153168605Y-74051200D01*
X153182748Y-74065343D01*
X153003143Y-74244948D01*
X152989000Y-74230805D01*
X152175903Y-75043902D01*
X152247486Y-75287871D01*
X152502996Y-75408771D01*
X152777184Y-75477500D01*
X153059512Y-75491417D01*
X153339130Y-75449987D01*
X153605292Y-75354803D01*
X153730514Y-75287871D01*
X153802097Y-75043904D01*
X153918370Y-75160177D01*
X153993476Y-75085072D01*
X154074241Y-75165837D01*
X154309273Y-75322880D01*
X154570426Y-75431053D01*
X154847665Y-75486200D01*
X155130335Y-75486200D01*
X155407574Y-75431053D01*
X155668727Y-75322880D01*
X155903759Y-75165837D01*
X156033396Y-75036200D01*
X156168000Y-75036200D01*
X157980000Y-76848201D01*
X157980000Y-76982103D01*
X158033417Y-77250648D01*
X158138198Y-77503612D01*
X158290316Y-77731274D01*
X158483926Y-77924884D01*
X158711588Y-78077002D01*
X158803806Y-78115200D01*
X158711588Y-78153398D01*
X158483926Y-78305516D01*
X158290316Y-78499126D01*
X158138198Y-78726788D01*
X158033417Y-78979752D01*
X157980000Y-79248297D01*
X157980000Y-79522103D01*
X158033417Y-79790648D01*
X158138198Y-80043612D01*
X158290316Y-80271274D01*
X158483926Y-80464884D01*
X158711588Y-80617002D01*
X158803806Y-80655200D01*
X158711588Y-80693398D01*
X158483926Y-80845516D01*
X158290316Y-81039126D01*
X158138198Y-81266788D01*
X158033417Y-81519752D01*
X157980000Y-81788297D01*
X157980000Y-82062103D01*
X158033417Y-82330648D01*
X158138198Y-82583612D01*
X158290316Y-82811274D01*
X158483926Y-83004884D01*
X158711588Y-83157002D01*
X158803806Y-83195200D01*
X158711588Y-83233398D01*
X158483926Y-83385516D01*
X158290316Y-83579126D01*
X158138198Y-83806788D01*
X158033417Y-84059752D01*
X157980000Y-84328297D01*
X157980000Y-84602103D01*
X158033417Y-84870648D01*
X158138198Y-85123612D01*
X158290316Y-85351274D01*
X158483926Y-85544884D01*
X158711588Y-85697002D01*
X158803806Y-85735200D01*
X158711588Y-85773398D01*
X158483926Y-85925516D01*
X158290316Y-86119126D01*
X158138198Y-86346788D01*
X158033417Y-86599752D01*
X157980000Y-86868297D01*
X157980000Y-87142103D01*
X158033417Y-87410648D01*
X158138198Y-87663612D01*
X158290316Y-87891274D01*
X158483926Y-88084884D01*
X158711588Y-88237002D01*
X158803806Y-88275200D01*
X158711588Y-88313398D01*
X158483926Y-88465516D01*
X158290316Y-88659126D01*
X158138198Y-88886788D01*
X158033417Y-89139752D01*
X157980000Y-89408297D01*
X157980000Y-89542199D01*
X157361800Y-90160400D01*
X157030107Y-90160400D01*
X156861632Y-89991925D01*
X156687240Y-89875400D01*
X156861632Y-89758875D01*
X157068475Y-89552032D01*
X157230990Y-89308811D01*
X157342932Y-89038558D01*
X157400000Y-88751660D01*
X157400000Y-88459140D01*
X157342932Y-88172242D01*
X157230990Y-87901989D01*
X157068475Y-87658768D01*
X156861632Y-87451925D01*
X156618411Y-87289410D01*
X156348158Y-87177468D01*
X156061260Y-87120400D01*
X155768740Y-87120400D01*
X155481842Y-87177468D01*
X155211589Y-87289410D01*
X155004311Y-87427909D01*
X148990604Y-81414203D01*
X148966801Y-81385199D01*
X148851076Y-81290226D01*
X148719047Y-81219654D01*
X148575786Y-81176197D01*
X148464133Y-81165200D01*
X148464122Y-81165200D01*
X148426800Y-81161524D01*
X148389478Y-81165200D01*
X147833923Y-81165200D01*
X147749684Y-81039126D01*
X147556074Y-80845516D01*
X147328412Y-80693398D01*
X147236194Y-80655200D01*
X147328412Y-80617002D01*
X147556074Y-80464884D01*
X147749684Y-80271274D01*
X147901802Y-80043612D01*
X148006583Y-79790648D01*
X148060000Y-79522103D01*
X148060000Y-79248297D01*
X148006583Y-78979752D01*
X147901802Y-78726788D01*
X147749684Y-78499126D01*
X147556074Y-78305516D01*
X147328412Y-78153398D01*
X147236194Y-78115200D01*
X147328412Y-78077002D01*
X147556074Y-77924884D01*
X147749684Y-77731274D01*
X147901802Y-77503612D01*
X148006583Y-77250648D01*
X148060000Y-76982103D01*
X148060000Y-76708297D01*
X148014887Y-76481500D01*
X148643431Y-76481500D01*
X148686900Y-76485781D01*
X148730369Y-76481500D01*
X148730377Y-76481500D01*
X148860390Y-76468695D01*
X149027213Y-76418089D01*
X149180959Y-76335911D01*
X149315717Y-76225317D01*
X149343434Y-76191544D01*
X150902724Y-74632254D01*
X150936689Y-74618186D01*
X151089828Y-74515862D01*
X151220062Y-74385628D01*
X151322386Y-74232489D01*
X151368270Y-74121712D01*
X151548783Y-74121712D01*
X151590213Y-74401330D01*
X151685397Y-74667492D01*
X151752329Y-74792714D01*
X151996298Y-74864297D01*
X152809395Y-74051200D01*
X151996298Y-73238103D01*
X151752329Y-73309686D01*
X151631429Y-73565196D01*
X151562700Y-73839384D01*
X151548783Y-74121712D01*
X151368270Y-74121712D01*
X151392868Y-74062329D01*
X151428800Y-73881689D01*
X151428800Y-73697511D01*
X151392868Y-73516871D01*
X151322386Y-73346711D01*
X151220062Y-73193572D01*
X151089828Y-73063338D01*
X150971838Y-72984500D01*
X152197615Y-72984500D01*
X152175903Y-73058498D01*
G36*
X139779894Y-75208894D02*
G01*
X139810731Y-75246469D01*
X139848306Y-75277306D01*
X141343000Y-76772000D01*
X141343000Y-76905903D01*
X141396417Y-77174448D01*
X141501198Y-77427412D01*
X141653316Y-77655074D01*
X141846926Y-77848684D01*
X142074588Y-78000802D01*
X142166806Y-78039000D01*
X142074588Y-78077198D01*
X141846926Y-78229316D01*
X141653316Y-78422926D01*
X141501198Y-78650588D01*
X141396417Y-78903552D01*
X141343000Y-79172097D01*
X141343000Y-79445903D01*
X141396417Y-79714448D01*
X141501198Y-79967412D01*
X141653316Y-80195074D01*
X141846926Y-80388684D01*
X142074588Y-80540802D01*
X142166806Y-80579000D01*
X142074588Y-80617198D01*
X141846926Y-80769316D01*
X141653316Y-80962926D01*
X141501198Y-81190588D01*
X141396417Y-81443552D01*
X141343000Y-81712097D01*
X141343000Y-81747421D01*
X135551400Y-75955822D01*
X135551400Y-75358076D01*
X135744184Y-75406400D01*
X136026512Y-75420317D01*
X136306130Y-75378887D01*
X136572292Y-75283703D01*
X136697514Y-75216771D01*
X136769097Y-74972804D01*
X136885370Y-75089077D01*
X136960476Y-75013972D01*
X137041241Y-75094737D01*
X137276273Y-75251780D01*
X137537426Y-75359953D01*
X137814665Y-75415100D01*
X138097335Y-75415100D01*
X138374574Y-75359953D01*
X138635727Y-75251780D01*
X138870759Y-75094737D01*
X139000396Y-74965100D01*
X139536100Y-74965100D01*
X139779894Y-75208894D01*
G37*
X139779894Y-75208894D02*
X139810731Y-75246469D01*
X139848306Y-75277306D01*
X141343000Y-76772000D01*
X141343000Y-76905903D01*
X141396417Y-77174448D01*
X141501198Y-77427412D01*
X141653316Y-77655074D01*
X141846926Y-77848684D01*
X142074588Y-78000802D01*
X142166806Y-78039000D01*
X142074588Y-78077198D01*
X141846926Y-78229316D01*
X141653316Y-78422926D01*
X141501198Y-78650588D01*
X141396417Y-78903552D01*
X141343000Y-79172097D01*
X141343000Y-79445903D01*
X141396417Y-79714448D01*
X141501198Y-79967412D01*
X141653316Y-80195074D01*
X141846926Y-80388684D01*
X142074588Y-80540802D01*
X142166806Y-80579000D01*
X142074588Y-80617198D01*
X141846926Y-80769316D01*
X141653316Y-80962926D01*
X141501198Y-81190588D01*
X141396417Y-81443552D01*
X141343000Y-81712097D01*
X141343000Y-81747421D01*
X135551400Y-75955822D01*
X135551400Y-75358076D01*
X135744184Y-75406400D01*
X136026512Y-75420317D01*
X136306130Y-75378887D01*
X136572292Y-75283703D01*
X136697514Y-75216771D01*
X136769097Y-74972804D01*
X136885370Y-75089077D01*
X136960476Y-75013972D01*
X137041241Y-75094737D01*
X137276273Y-75251780D01*
X137537426Y-75359953D01*
X137814665Y-75415100D01*
X138097335Y-75415100D01*
X138374574Y-75359953D01*
X138635727Y-75251780D01*
X138870759Y-75094737D01*
X139000396Y-74965100D01*
X139536100Y-74965100D01*
X139779894Y-75208894D01*
G36*
X146011588Y-73073398D02*
G01*
X145783926Y-73225516D01*
X145590316Y-73419126D01*
X145438198Y-73646788D01*
X145333417Y-73899752D01*
X145280000Y-74168297D01*
X145280000Y-74442103D01*
X145333417Y-74710648D01*
X145438198Y-74963612D01*
X145476935Y-75021586D01*
X144080431Y-76418090D01*
X144069583Y-76363552D01*
X143964802Y-76110588D01*
X143812684Y-75882926D01*
X143619074Y-75689316D01*
X143391412Y-75537198D01*
X143303605Y-75500827D01*
X143333579Y-75490011D01*
X143447829Y-75428943D01*
X143513961Y-75189566D01*
X142733000Y-74408605D01*
X142718858Y-74422748D01*
X142539253Y-74243143D01*
X142553395Y-74229000D01*
X142912605Y-74229000D01*
X143693566Y-75009961D01*
X143932943Y-74943829D01*
X144049342Y-74695997D01*
X144115155Y-74430218D01*
X144127854Y-74156706D01*
X144086948Y-73885973D01*
X143994011Y-73628421D01*
X143932943Y-73514171D01*
X143693566Y-73448039D01*
X142912605Y-74229000D01*
X142553395Y-74229000D01*
X142539253Y-74214858D01*
X142718858Y-74035253D01*
X142733000Y-74049395D01*
X143513961Y-73268434D01*
X143447829Y-73029057D01*
X143429671Y-73020529D01*
X143465700Y-72984500D01*
X146226207Y-72984500D01*
X146011588Y-73073398D01*
G37*
X146011588Y-73073398D02*
X145783926Y-73225516D01*
X145590316Y-73419126D01*
X145438198Y-73646788D01*
X145333417Y-73899752D01*
X145280000Y-74168297D01*
X145280000Y-74442103D01*
X145333417Y-74710648D01*
X145438198Y-74963612D01*
X145476935Y-75021586D01*
X144080431Y-76418090D01*
X144069583Y-76363552D01*
X143964802Y-76110588D01*
X143812684Y-75882926D01*
X143619074Y-75689316D01*
X143391412Y-75537198D01*
X143303605Y-75500827D01*
X143333579Y-75490011D01*
X143447829Y-75428943D01*
X143513961Y-75189566D01*
X142733000Y-74408605D01*
X142718858Y-74422748D01*
X142539253Y-74243143D01*
X142553395Y-74229000D01*
X142912605Y-74229000D01*
X143693566Y-75009961D01*
X143932943Y-74943829D01*
X144049342Y-74695997D01*
X144115155Y-74430218D01*
X144127854Y-74156706D01*
X144086948Y-73885973D01*
X143994011Y-73628421D01*
X143932943Y-73514171D01*
X143693566Y-73448039D01*
X142912605Y-74229000D01*
X142553395Y-74229000D01*
X142539253Y-74214858D01*
X142718858Y-74035253D01*
X142733000Y-74049395D01*
X143513961Y-73268434D01*
X143447829Y-73029057D01*
X143429671Y-73020529D01*
X143465700Y-72984500D01*
X146226207Y-72984500D01*
X146011588Y-73073398D01*
G36*
X160069794Y-73098196D02*
G01*
X159836997Y-72988858D01*
X159571218Y-72923045D01*
X159297706Y-72910346D01*
X159026973Y-72951252D01*
X158769421Y-73044189D01*
X158655171Y-73105257D01*
X158589039Y-73344634D01*
X159370000Y-74125595D01*
X159384143Y-74111453D01*
X159563748Y-74291058D01*
X159549605Y-74305200D01*
X159563748Y-74319343D01*
X159384143Y-74498948D01*
X159370000Y-74484805D01*
X159355858Y-74498948D01*
X159176253Y-74319343D01*
X159190395Y-74305200D01*
X158409434Y-73524239D01*
X158195221Y-73583419D01*
X156063301Y-71451500D01*
X158423099Y-71451500D01*
X160069794Y-73098196D01*
G37*
X160069794Y-73098196D02*
X159836997Y-72988858D01*
X159571218Y-72923045D01*
X159297706Y-72910346D01*
X159026973Y-72951252D01*
X158769421Y-73044189D01*
X158655171Y-73105257D01*
X158589039Y-73344634D01*
X159370000Y-74125595D01*
X159384143Y-74111453D01*
X159563748Y-74291058D01*
X159549605Y-74305200D01*
X159563748Y-74319343D01*
X159384143Y-74498948D01*
X159370000Y-74484805D01*
X159355858Y-74498948D01*
X159176253Y-74319343D01*
X159190395Y-74305200D01*
X158409434Y-73524239D01*
X158195221Y-73583419D01*
X156063301Y-71451500D01*
X158423099Y-71451500D01*
X160069794Y-73098196D01*
G36*
X136149748Y-73965958D02*
G01*
X136135605Y-73980100D01*
X136149748Y-73994243D01*
X135970143Y-74173848D01*
X135956000Y-74159705D01*
X135941858Y-74173848D01*
X135762253Y-73994243D01*
X135776395Y-73980100D01*
X135762253Y-73965958D01*
X135941858Y-73786353D01*
X135956000Y-73800495D01*
X135970143Y-73786353D01*
X136149748Y-73965958D01*
G37*
X136149748Y-73965958D02*
X136135605Y-73980100D01*
X136149748Y-73994243D01*
X135970143Y-74173848D01*
X135956000Y-74159705D01*
X135941858Y-74173848D01*
X135762253Y-73994243D01*
X135776395Y-73980100D01*
X135762253Y-73965958D01*
X135941858Y-73786353D01*
X135956000Y-73800495D01*
X135970143Y-73786353D01*
X136149748Y-73965958D01*
G36*
X179206364Y-43763305D02*
G01*
X179604901Y-44089380D01*
X179631790Y-56552500D01*
X179590160Y-56474616D01*
X179467070Y-56324630D01*
X179429484Y-56293784D01*
X175915300Y-52779600D01*
X175915300Y-52451700D01*
X177094928Y-51272072D01*
X177940000Y-51272072D01*
X178113254Y-51255008D01*
X178279850Y-51204472D01*
X178433386Y-51122405D01*
X178567962Y-51011962D01*
X178678405Y-50877386D01*
X178760472Y-50723850D01*
X178811008Y-50557254D01*
X178828072Y-50384000D01*
X178828072Y-49184000D01*
X178811008Y-49010746D01*
X178760472Y-48844150D01*
X178678405Y-48690614D01*
X178567962Y-48556038D01*
X178433386Y-48445595D01*
X178331407Y-48391086D01*
X178331795Y-48390802D01*
X178528664Y-48176046D01*
X178679854Y-47927009D01*
X178779554Y-47653261D01*
X178781476Y-47640890D01*
X178660155Y-47411000D01*
X177317000Y-47411000D01*
X177317000Y-47431000D01*
X177063000Y-47431000D01*
X177063000Y-47411000D01*
X175719845Y-47411000D01*
X175598524Y-47640890D01*
X175600446Y-47653261D01*
X175700146Y-47927009D01*
X175851336Y-48176046D01*
X176048205Y-48390802D01*
X176048593Y-48391086D01*
X175946614Y-48445595D01*
X175812038Y-48556038D01*
X175701595Y-48690614D01*
X175619528Y-48844150D01*
X175568992Y-49010746D01*
X175551928Y-49184000D01*
X175551928Y-50029072D01*
X174268011Y-51312989D01*
X174230431Y-51343830D01*
X174107341Y-51493816D01*
X174065052Y-51572933D01*
X174015876Y-51664934D01*
X174004149Y-51703592D01*
X173738704Y-51623070D01*
X173505486Y-51600100D01*
X173254514Y-51600100D01*
X173021296Y-51623070D01*
X172722051Y-51713845D01*
X172446265Y-51861255D01*
X172204537Y-52059637D01*
X172006155Y-52301365D01*
X171858745Y-52577151D01*
X171767970Y-52876396D01*
X171737319Y-53187600D01*
X171767970Y-53498804D01*
X171858745Y-53798049D01*
X172006155Y-54073835D01*
X172204537Y-54315563D01*
X172377609Y-54457600D01*
X172204537Y-54599637D01*
X172006155Y-54841365D01*
X171858745Y-55117151D01*
X171767970Y-55416396D01*
X171737319Y-55727600D01*
X171767970Y-56038804D01*
X171858745Y-56338049D01*
X172006155Y-56613835D01*
X172109446Y-56739695D01*
X172025506Y-56784563D01*
X171928815Y-56863915D01*
X171849463Y-56960606D01*
X171790498Y-57070920D01*
X171754188Y-57190618D01*
X171741928Y-57315100D01*
X171741928Y-59220100D01*
X171754188Y-59344582D01*
X171790498Y-59464280D01*
X171849463Y-59574594D01*
X171928815Y-59671285D01*
X172025506Y-59750637D01*
X172135820Y-59809602D01*
X172255518Y-59845912D01*
X172380000Y-59858172D01*
X174380000Y-59858172D01*
X174504482Y-59845912D01*
X174624180Y-59809602D01*
X174734494Y-59750637D01*
X174831185Y-59671285D01*
X174910537Y-59574594D01*
X174969502Y-59464280D01*
X175005812Y-59344582D01*
X175018072Y-59220100D01*
X175018072Y-58440474D01*
X176390000Y-59812402D01*
X176390001Y-62097805D01*
X176320986Y-62134694D01*
X176100055Y-62316008D01*
X176089502Y-62281220D01*
X176030537Y-62170906D01*
X175951185Y-62074215D01*
X175854494Y-61994863D01*
X175744180Y-61935898D01*
X175624482Y-61899588D01*
X175500000Y-61887328D01*
X174935750Y-61890400D01*
X174777000Y-62049150D01*
X174777000Y-63398400D01*
X174797000Y-63398400D01*
X174797000Y-63652400D01*
X174777000Y-63652400D01*
X174777000Y-65001650D01*
X174935750Y-65160400D01*
X175500000Y-65163472D01*
X175624482Y-65151212D01*
X175744180Y-65114902D01*
X175854494Y-65055937D01*
X175951185Y-64976585D01*
X176030537Y-64879894D01*
X176089502Y-64769580D01*
X176100055Y-64734792D01*
X176320987Y-64916106D01*
X176578967Y-65053999D01*
X176858890Y-65138913D01*
X177150000Y-65167585D01*
X177441111Y-65138913D01*
X177721034Y-65053999D01*
X177782200Y-65021305D01*
X177782201Y-67537064D01*
X177778033Y-67535338D01*
X177499828Y-67480000D01*
X177216172Y-67480000D01*
X176937967Y-67535338D01*
X176675904Y-67643888D01*
X176440053Y-67801479D01*
X176239479Y-68002053D01*
X176088000Y-68228757D01*
X175936521Y-68002053D01*
X175735947Y-67801479D01*
X175500096Y-67643888D01*
X175238033Y-67535338D01*
X174959828Y-67480000D01*
X174676172Y-67480000D01*
X174397967Y-67535338D01*
X174135904Y-67643888D01*
X173900053Y-67801479D01*
X173699479Y-68002053D01*
X173548000Y-68228757D01*
X173396521Y-68002053D01*
X173195947Y-67801479D01*
X172960096Y-67643888D01*
X172698033Y-67535338D01*
X172419828Y-67480000D01*
X172136172Y-67480000D01*
X171857967Y-67535338D01*
X171595904Y-67643888D01*
X171360053Y-67801479D01*
X171159479Y-68002053D01*
X171008000Y-68228757D01*
X170856521Y-68002053D01*
X170655947Y-67801479D01*
X170420096Y-67643888D01*
X170158033Y-67535338D01*
X169879828Y-67480000D01*
X169596172Y-67480000D01*
X169317967Y-67535338D01*
X169055904Y-67643888D01*
X169003130Y-67679151D01*
X165951334Y-64627356D01*
X165923617Y-64593583D01*
X165840537Y-64525400D01*
X173161928Y-64525400D01*
X173174188Y-64649882D01*
X173210498Y-64769580D01*
X173269463Y-64879894D01*
X173348815Y-64976585D01*
X173445506Y-65055937D01*
X173555820Y-65114902D01*
X173675518Y-65151212D01*
X173800000Y-65163472D01*
X174364250Y-65160400D01*
X174523000Y-65001650D01*
X174523000Y-63652400D01*
X173323750Y-63652400D01*
X173165000Y-63811150D01*
X173161928Y-64525400D01*
X165840537Y-64525400D01*
X165788859Y-64482989D01*
X165635113Y-64400811D01*
X165468290Y-64350205D01*
X165338277Y-64337400D01*
X165338269Y-64337400D01*
X165294800Y-64333119D01*
X165251331Y-64337400D01*
X140916392Y-64337400D01*
X140882429Y-64323332D01*
X140701789Y-64287400D01*
X140517611Y-64287400D01*
X140336971Y-64323332D01*
X140166811Y-64393814D01*
X140013672Y-64496138D01*
X139883438Y-64626372D01*
X139781114Y-64779511D01*
X139710632Y-64949671D01*
X139674700Y-65130311D01*
X139674700Y-65221200D01*
X132610201Y-65221200D01*
X133715601Y-64115800D01*
X145095520Y-64115800D01*
X145143900Y-64120565D01*
X145192280Y-64115800D01*
X145336994Y-64101547D01*
X145522667Y-64045224D01*
X145693784Y-63953760D01*
X145843770Y-63830670D01*
X145874616Y-63793084D01*
X147142300Y-62525400D01*
X173161928Y-62525400D01*
X173165000Y-63239650D01*
X173323750Y-63398400D01*
X174523000Y-63398400D01*
X174523000Y-62049150D01*
X174364250Y-61890400D01*
X173800000Y-61887328D01*
X173675518Y-61899588D01*
X173555820Y-61935898D01*
X173445506Y-61994863D01*
X173348815Y-62074215D01*
X173269463Y-62170906D01*
X173210498Y-62281220D01*
X173174188Y-62400918D01*
X173161928Y-62525400D01*
X147142300Y-62525400D01*
X153363984Y-56303716D01*
X153401570Y-56272870D01*
X153524660Y-56122884D01*
X153616124Y-55951767D01*
X153672447Y-55766094D01*
X153682671Y-55662291D01*
X153691465Y-55573001D01*
X153686700Y-55524621D01*
X153686700Y-55492698D01*
X154335000Y-55492698D01*
X154335000Y-55962502D01*
X154426654Y-56423279D01*
X154606440Y-56857321D01*
X154867450Y-57247949D01*
X155199651Y-57580150D01*
X155590279Y-57841160D01*
X156024321Y-58020946D01*
X156485098Y-58112600D01*
X156954902Y-58112600D01*
X157415679Y-58020946D01*
X157849721Y-57841160D01*
X158240349Y-57580150D01*
X158572550Y-57247949D01*
X158833560Y-56857321D01*
X159013346Y-56423279D01*
X159105000Y-55962502D01*
X159105000Y-55492698D01*
X159013346Y-55031921D01*
X158833560Y-54597879D01*
X158572550Y-54207251D01*
X158240349Y-53875050D01*
X157849721Y-53614040D01*
X157415679Y-53434254D01*
X156954902Y-53342600D01*
X156485098Y-53342600D01*
X156024321Y-53434254D01*
X155590279Y-53614040D01*
X155199651Y-53875050D01*
X154867450Y-54207251D01*
X154606440Y-54597879D01*
X154426654Y-55031921D01*
X154335000Y-55492698D01*
X153686700Y-55492698D01*
X153686700Y-52000080D01*
X153691465Y-51951700D01*
X153672447Y-51758606D01*
X153616124Y-51572933D01*
X153524660Y-51401816D01*
X153432410Y-51289409D01*
X153401570Y-51251830D01*
X153363990Y-51220989D01*
X152587000Y-50444000D01*
X152587000Y-49141691D01*
X152651945Y-49088392D01*
X152662498Y-49123180D01*
X152721463Y-49233494D01*
X152800815Y-49330185D01*
X152897506Y-49409537D01*
X153007820Y-49468502D01*
X153127518Y-49504812D01*
X153252000Y-49517072D01*
X153816250Y-49514000D01*
X153975000Y-49355250D01*
X153975000Y-48006000D01*
X154229000Y-48006000D01*
X154229000Y-49355250D01*
X154387750Y-49514000D01*
X154952000Y-49517072D01*
X155076482Y-49504812D01*
X155196180Y-49468502D01*
X155306494Y-49409537D01*
X155403185Y-49330185D01*
X155482537Y-49233494D01*
X155541502Y-49123180D01*
X155577812Y-49003482D01*
X155590072Y-48879000D01*
X155587000Y-48164750D01*
X155428250Y-48006000D01*
X154229000Y-48006000D01*
X153975000Y-48006000D01*
X153955000Y-48006000D01*
X153955000Y-47752000D01*
X153975000Y-47752000D01*
X153975000Y-46402750D01*
X154229000Y-46402750D01*
X154229000Y-47752000D01*
X155428250Y-47752000D01*
X155587000Y-47593250D01*
X155589865Y-46927110D01*
X175598524Y-46927110D01*
X175719845Y-47157000D01*
X177063000Y-47157000D01*
X177063000Y-45956768D01*
X177317000Y-45956768D01*
X177317000Y-47157000D01*
X178660155Y-47157000D01*
X178781476Y-46927110D01*
X178779554Y-46914739D01*
X178679854Y-46640991D01*
X178528664Y-46391954D01*
X178331795Y-46177198D01*
X178096812Y-46004975D01*
X177832745Y-45881904D01*
X177549742Y-45812715D01*
X177317000Y-45956768D01*
X177063000Y-45956768D01*
X176830258Y-45812715D01*
X176547255Y-45881904D01*
X176283188Y-46004975D01*
X176048205Y-46177198D01*
X175851336Y-46391954D01*
X175700146Y-46640991D01*
X175600446Y-46914739D01*
X175598524Y-46927110D01*
X155589865Y-46927110D01*
X155590072Y-46879000D01*
X155577812Y-46754518D01*
X155541502Y-46634820D01*
X155482537Y-46524506D01*
X155403185Y-46427815D01*
X155306494Y-46348463D01*
X155196180Y-46289498D01*
X155076482Y-46253188D01*
X154952000Y-46240928D01*
X154387750Y-46244000D01*
X154229000Y-46402750D01*
X153975000Y-46402750D01*
X153816250Y-46244000D01*
X153252000Y-46240928D01*
X153127518Y-46253188D01*
X153007820Y-46289498D01*
X152897506Y-46348463D01*
X152800815Y-46427815D01*
X152721463Y-46524506D01*
X152662498Y-46634820D01*
X152651945Y-46669608D01*
X152431014Y-46488294D01*
X152173034Y-46350401D01*
X151893111Y-46265487D01*
X151602000Y-46236815D01*
X151310890Y-46265487D01*
X151030967Y-46350401D01*
X150772987Y-46488294D01*
X150546866Y-46673866D01*
X150361294Y-46899986D01*
X150223401Y-47157966D01*
X150138487Y-47437889D01*
X150117000Y-47656050D01*
X150117000Y-48101949D01*
X150138487Y-48320110D01*
X150223401Y-48600033D01*
X150361294Y-48858013D01*
X150546866Y-49084134D01*
X150617001Y-49141692D01*
X150617000Y-50803620D01*
X150612235Y-50852000D01*
X150623063Y-50961935D01*
X150631253Y-51045093D01*
X150687576Y-51230766D01*
X150779040Y-51401884D01*
X150902130Y-51551870D01*
X150939715Y-51582715D01*
X151716701Y-52359702D01*
X151716700Y-55165000D01*
X145351561Y-61530139D01*
X145234489Y-61451914D01*
X145064329Y-61381432D01*
X144883689Y-61345500D01*
X144699511Y-61345500D01*
X144518871Y-61381432D01*
X144348711Y-61451914D01*
X144246065Y-61520500D01*
X143955355Y-61520500D01*
X144121120Y-61354735D01*
X144274005Y-61125927D01*
X144379314Y-60871690D01*
X144433000Y-60601792D01*
X144433000Y-60326608D01*
X144379314Y-60056710D01*
X144274005Y-59802473D01*
X144121120Y-59573665D01*
X144063478Y-59516023D01*
X148365849Y-55213653D01*
X148486929Y-55189568D01*
X148657089Y-55119086D01*
X148810228Y-55016762D01*
X148940462Y-54886528D01*
X149042786Y-54733389D01*
X149113268Y-54563229D01*
X149149200Y-54382589D01*
X149149200Y-54198411D01*
X149113268Y-54017771D01*
X149042786Y-53847611D01*
X148940462Y-53694472D01*
X148810228Y-53564238D01*
X148657089Y-53461914D01*
X148486929Y-53391432D01*
X148306289Y-53355500D01*
X148122111Y-53355500D01*
X147941471Y-53391432D01*
X147771311Y-53461914D01*
X147618172Y-53564238D01*
X147487938Y-53694472D01*
X147385614Y-53847611D01*
X147315132Y-54017771D01*
X147291047Y-54138851D01*
X144231315Y-57198583D01*
X144121120Y-57033665D01*
X143926535Y-56839080D01*
X143697727Y-56686195D01*
X143443490Y-56580886D01*
X143173592Y-56527200D01*
X143032001Y-56527200D01*
X133751409Y-47246608D01*
X141639000Y-47246608D01*
X141639000Y-47521792D01*
X141692686Y-47791690D01*
X141797995Y-48045927D01*
X141950880Y-48274735D01*
X142145465Y-48469320D01*
X142374273Y-48622205D01*
X142451515Y-48654200D01*
X142374273Y-48686195D01*
X142145465Y-48839080D01*
X141950880Y-49033665D01*
X141797995Y-49262473D01*
X141692686Y-49516710D01*
X141639000Y-49786608D01*
X141639000Y-50061792D01*
X141692686Y-50331690D01*
X141797995Y-50585927D01*
X141950880Y-50814735D01*
X142145465Y-51009320D01*
X142374273Y-51162205D01*
X142628510Y-51267514D01*
X142898408Y-51321200D01*
X143173592Y-51321200D01*
X143443490Y-51267514D01*
X143697727Y-51162205D01*
X143926535Y-51009320D01*
X144121120Y-50814735D01*
X144274005Y-50585927D01*
X144379314Y-50331690D01*
X144433000Y-50061792D01*
X144433000Y-49786608D01*
X144379314Y-49516710D01*
X144274005Y-49262473D01*
X144121120Y-49033665D01*
X143926535Y-48839080D01*
X143697727Y-48686195D01*
X143620485Y-48654200D01*
X143697727Y-48622205D01*
X143926535Y-48469320D01*
X144121120Y-48274735D01*
X144274005Y-48045927D01*
X144379314Y-47791690D01*
X144433000Y-47521792D01*
X144433000Y-47246608D01*
X144379314Y-46976710D01*
X144274005Y-46722473D01*
X144121120Y-46493665D01*
X143926535Y-46299080D01*
X143697727Y-46146195D01*
X143443490Y-46040886D01*
X143173592Y-45987200D01*
X142898408Y-45987200D01*
X142628510Y-46040886D01*
X142374273Y-46146195D01*
X142145465Y-46299080D01*
X141950880Y-46493665D01*
X141797995Y-46722473D01*
X141692686Y-46976710D01*
X141639000Y-47246608D01*
X133751409Y-47246608D01*
X131912916Y-45408116D01*
X131882070Y-45370530D01*
X131732084Y-45247440D01*
X131560967Y-45155976D01*
X131375294Y-45099653D01*
X131230580Y-45085400D01*
X131182200Y-45080635D01*
X131133820Y-45085400D01*
X117117677Y-45085400D01*
X117069299Y-45080635D01*
X117020922Y-45085400D01*
X117020920Y-45085400D01*
X116876206Y-45099653D01*
X116690533Y-45155976D01*
X116519416Y-45247440D01*
X116369430Y-45370530D01*
X116356221Y-45386625D01*
X116340131Y-45399830D01*
X116217041Y-45549816D01*
X116168152Y-45641281D01*
X116125576Y-45720934D01*
X116069253Y-45906607D01*
X116050235Y-46099700D01*
X116055001Y-46148089D01*
X116055001Y-46264206D01*
X115834866Y-46444866D01*
X115649294Y-46670986D01*
X115511401Y-46928966D01*
X115426487Y-47208889D01*
X115397815Y-47500000D01*
X115426487Y-47791111D01*
X115511401Y-48071034D01*
X115649294Y-48329014D01*
X115834866Y-48555134D01*
X115898337Y-48607223D01*
X115796614Y-48661595D01*
X115662038Y-48772038D01*
X115551595Y-48906614D01*
X115469528Y-49060150D01*
X115418992Y-49226746D01*
X115401928Y-49400000D01*
X115401928Y-50600000D01*
X115418992Y-50773254D01*
X115469528Y-50939850D01*
X115551595Y-51093386D01*
X115662038Y-51227962D01*
X115796614Y-51338405D01*
X115950150Y-51420472D01*
X116116746Y-51471008D01*
X116290000Y-51488072D01*
X117790000Y-51488072D01*
X117963254Y-51471008D01*
X118129850Y-51420472D01*
X118283386Y-51338405D01*
X118417962Y-51227962D01*
X118528405Y-51093386D01*
X118586339Y-50985000D01*
X124121145Y-50985000D01*
X124145465Y-51009320D01*
X124374273Y-51162205D01*
X124628510Y-51267514D01*
X124898408Y-51321200D01*
X125173592Y-51321200D01*
X125443490Y-51267514D01*
X125697727Y-51162205D01*
X125926535Y-51009320D01*
X126121120Y-50814735D01*
X126274005Y-50585927D01*
X126379314Y-50331690D01*
X126433000Y-50061792D01*
X126433000Y-49786608D01*
X126379314Y-49516710D01*
X126274005Y-49262473D01*
X126121120Y-49033665D01*
X125926535Y-48839080D01*
X125697727Y-48686195D01*
X125620485Y-48654200D01*
X125697727Y-48622205D01*
X125926535Y-48469320D01*
X126121120Y-48274735D01*
X126274005Y-48045927D01*
X126379314Y-47791690D01*
X126433000Y-47521792D01*
X126433000Y-47246608D01*
X126394966Y-47055400D01*
X130774200Y-47055400D01*
X141639000Y-57920201D01*
X141639000Y-58061792D01*
X141676755Y-58251600D01*
X126394125Y-58251600D01*
X126425023Y-58127065D01*
X126437910Y-57852183D01*
X126396922Y-57580067D01*
X126303636Y-57321177D01*
X126241656Y-57205220D01*
X126001565Y-57138240D01*
X125215605Y-57924200D01*
X125229748Y-57938343D01*
X125050143Y-58117948D01*
X125036000Y-58103805D01*
X125021858Y-58117948D01*
X124842253Y-57938343D01*
X124856395Y-57924200D01*
X124070435Y-57138240D01*
X123830344Y-57205220D01*
X123713244Y-57454248D01*
X123646977Y-57721335D01*
X123634090Y-57996217D01*
X123672558Y-58251600D01*
X118529402Y-58251600D01*
X118226731Y-57948930D01*
X118278000Y-57691184D01*
X118278000Y-57388816D01*
X118219011Y-57092257D01*
X118163663Y-56958635D01*
X124250040Y-56958635D01*
X125036000Y-57744595D01*
X125821960Y-56958635D01*
X125754980Y-56718544D01*
X125505952Y-56601444D01*
X125238865Y-56535177D01*
X124963983Y-56522290D01*
X124691867Y-56563278D01*
X124432977Y-56656564D01*
X124317020Y-56718544D01*
X124250040Y-56958635D01*
X118163663Y-56958635D01*
X118103299Y-56812905D01*
X117935312Y-56561495D01*
X117868873Y-56495056D01*
X117887180Y-56489502D01*
X117997494Y-56430537D01*
X118094185Y-56351185D01*
X118173537Y-56254494D01*
X118232502Y-56144180D01*
X118268812Y-56024482D01*
X118281072Y-55900000D01*
X118281072Y-54100000D01*
X118268812Y-53975518D01*
X118232502Y-53855820D01*
X118173537Y-53745506D01*
X118094185Y-53648815D01*
X117997494Y-53569463D01*
X117887180Y-53510498D01*
X117767482Y-53474188D01*
X117643000Y-53461928D01*
X115843000Y-53461928D01*
X115718518Y-53474188D01*
X115598820Y-53510498D01*
X115488506Y-53569463D01*
X115391815Y-53648815D01*
X115312463Y-53745506D01*
X115253498Y-53855820D01*
X115217188Y-53975518D01*
X115204928Y-54100000D01*
X115204928Y-55145072D01*
X114985000Y-55365000D01*
X114985000Y-43738266D01*
X179206364Y-43763305D01*
G37*
X179206364Y-43763305D02*
X179604901Y-44089380D01*
X179631790Y-56552500D01*
X179590160Y-56474616D01*
X179467070Y-56324630D01*
X179429484Y-56293784D01*
X175915300Y-52779600D01*
X175915300Y-52451700D01*
X177094928Y-51272072D01*
X177940000Y-51272072D01*
X178113254Y-51255008D01*
X178279850Y-51204472D01*
X178433386Y-51122405D01*
X178567962Y-51011962D01*
X178678405Y-50877386D01*
X178760472Y-50723850D01*
X178811008Y-50557254D01*
X178828072Y-50384000D01*
X178828072Y-49184000D01*
X178811008Y-49010746D01*
X178760472Y-48844150D01*
X178678405Y-48690614D01*
X178567962Y-48556038D01*
X178433386Y-48445595D01*
X178331407Y-48391086D01*
X178331795Y-48390802D01*
X178528664Y-48176046D01*
X178679854Y-47927009D01*
X178779554Y-47653261D01*
X178781476Y-47640890D01*
X178660155Y-47411000D01*
X177317000Y-47411000D01*
X177317000Y-47431000D01*
X177063000Y-47431000D01*
X177063000Y-47411000D01*
X175719845Y-47411000D01*
X175598524Y-47640890D01*
X175600446Y-47653261D01*
X175700146Y-47927009D01*
X175851336Y-48176046D01*
X176048205Y-48390802D01*
X176048593Y-48391086D01*
X175946614Y-48445595D01*
X175812038Y-48556038D01*
X175701595Y-48690614D01*
X175619528Y-48844150D01*
X175568992Y-49010746D01*
X175551928Y-49184000D01*
X175551928Y-50029072D01*
X174268011Y-51312989D01*
X174230431Y-51343830D01*
X174107341Y-51493816D01*
X174065052Y-51572933D01*
X174015876Y-51664934D01*
X174004149Y-51703592D01*
X173738704Y-51623070D01*
X173505486Y-51600100D01*
X173254514Y-51600100D01*
X173021296Y-51623070D01*
X172722051Y-51713845D01*
X172446265Y-51861255D01*
X172204537Y-52059637D01*
X172006155Y-52301365D01*
X171858745Y-52577151D01*
X171767970Y-52876396D01*
X171737319Y-53187600D01*
X171767970Y-53498804D01*
X171858745Y-53798049D01*
X172006155Y-54073835D01*
X172204537Y-54315563D01*
X172377609Y-54457600D01*
X172204537Y-54599637D01*
X172006155Y-54841365D01*
X171858745Y-55117151D01*
X171767970Y-55416396D01*
X171737319Y-55727600D01*
X171767970Y-56038804D01*
X171858745Y-56338049D01*
X172006155Y-56613835D01*
X172109446Y-56739695D01*
X172025506Y-56784563D01*
X171928815Y-56863915D01*
X171849463Y-56960606D01*
X171790498Y-57070920D01*
X171754188Y-57190618D01*
X171741928Y-57315100D01*
X171741928Y-59220100D01*
X171754188Y-59344582D01*
X171790498Y-59464280D01*
X171849463Y-59574594D01*
X171928815Y-59671285D01*
X172025506Y-59750637D01*
X172135820Y-59809602D01*
X172255518Y-59845912D01*
X172380000Y-59858172D01*
X174380000Y-59858172D01*
X174504482Y-59845912D01*
X174624180Y-59809602D01*
X174734494Y-59750637D01*
X174831185Y-59671285D01*
X174910537Y-59574594D01*
X174969502Y-59464280D01*
X175005812Y-59344582D01*
X175018072Y-59220100D01*
X175018072Y-58440474D01*
X176390000Y-59812402D01*
X176390001Y-62097805D01*
X176320986Y-62134694D01*
X176100055Y-62316008D01*
X176089502Y-62281220D01*
X176030537Y-62170906D01*
X175951185Y-62074215D01*
X175854494Y-61994863D01*
X175744180Y-61935898D01*
X175624482Y-61899588D01*
X175500000Y-61887328D01*
X174935750Y-61890400D01*
X174777000Y-62049150D01*
X174777000Y-63398400D01*
X174797000Y-63398400D01*
X174797000Y-63652400D01*
X174777000Y-63652400D01*
X174777000Y-65001650D01*
X174935750Y-65160400D01*
X175500000Y-65163472D01*
X175624482Y-65151212D01*
X175744180Y-65114902D01*
X175854494Y-65055937D01*
X175951185Y-64976585D01*
X176030537Y-64879894D01*
X176089502Y-64769580D01*
X176100055Y-64734792D01*
X176320987Y-64916106D01*
X176578967Y-65053999D01*
X176858890Y-65138913D01*
X177150000Y-65167585D01*
X177441111Y-65138913D01*
X177721034Y-65053999D01*
X177782200Y-65021305D01*
X177782201Y-67537064D01*
X177778033Y-67535338D01*
X177499828Y-67480000D01*
X177216172Y-67480000D01*
X176937967Y-67535338D01*
X176675904Y-67643888D01*
X176440053Y-67801479D01*
X176239479Y-68002053D01*
X176088000Y-68228757D01*
X175936521Y-68002053D01*
X175735947Y-67801479D01*
X175500096Y-67643888D01*
X175238033Y-67535338D01*
X174959828Y-67480000D01*
X174676172Y-67480000D01*
X174397967Y-67535338D01*
X174135904Y-67643888D01*
X173900053Y-67801479D01*
X173699479Y-68002053D01*
X173548000Y-68228757D01*
X173396521Y-68002053D01*
X173195947Y-67801479D01*
X172960096Y-67643888D01*
X172698033Y-67535338D01*
X172419828Y-67480000D01*
X172136172Y-67480000D01*
X171857967Y-67535338D01*
X171595904Y-67643888D01*
X171360053Y-67801479D01*
X171159479Y-68002053D01*
X171008000Y-68228757D01*
X170856521Y-68002053D01*
X170655947Y-67801479D01*
X170420096Y-67643888D01*
X170158033Y-67535338D01*
X169879828Y-67480000D01*
X169596172Y-67480000D01*
X169317967Y-67535338D01*
X169055904Y-67643888D01*
X169003130Y-67679151D01*
X165951334Y-64627356D01*
X165923617Y-64593583D01*
X165840537Y-64525400D01*
X173161928Y-64525400D01*
X173174188Y-64649882D01*
X173210498Y-64769580D01*
X173269463Y-64879894D01*
X173348815Y-64976585D01*
X173445506Y-65055937D01*
X173555820Y-65114902D01*
X173675518Y-65151212D01*
X173800000Y-65163472D01*
X174364250Y-65160400D01*
X174523000Y-65001650D01*
X174523000Y-63652400D01*
X173323750Y-63652400D01*
X173165000Y-63811150D01*
X173161928Y-64525400D01*
X165840537Y-64525400D01*
X165788859Y-64482989D01*
X165635113Y-64400811D01*
X165468290Y-64350205D01*
X165338277Y-64337400D01*
X165338269Y-64337400D01*
X165294800Y-64333119D01*
X165251331Y-64337400D01*
X140916392Y-64337400D01*
X140882429Y-64323332D01*
X140701789Y-64287400D01*
X140517611Y-64287400D01*
X140336971Y-64323332D01*
X140166811Y-64393814D01*
X140013672Y-64496138D01*
X139883438Y-64626372D01*
X139781114Y-64779511D01*
X139710632Y-64949671D01*
X139674700Y-65130311D01*
X139674700Y-65221200D01*
X132610201Y-65221200D01*
X133715601Y-64115800D01*
X145095520Y-64115800D01*
X145143900Y-64120565D01*
X145192280Y-64115800D01*
X145336994Y-64101547D01*
X145522667Y-64045224D01*
X145693784Y-63953760D01*
X145843770Y-63830670D01*
X145874616Y-63793084D01*
X147142300Y-62525400D01*
X173161928Y-62525400D01*
X173165000Y-63239650D01*
X173323750Y-63398400D01*
X174523000Y-63398400D01*
X174523000Y-62049150D01*
X174364250Y-61890400D01*
X173800000Y-61887328D01*
X173675518Y-61899588D01*
X173555820Y-61935898D01*
X173445506Y-61994863D01*
X173348815Y-62074215D01*
X173269463Y-62170906D01*
X173210498Y-62281220D01*
X173174188Y-62400918D01*
X173161928Y-62525400D01*
X147142300Y-62525400D01*
X153363984Y-56303716D01*
X153401570Y-56272870D01*
X153524660Y-56122884D01*
X153616124Y-55951767D01*
X153672447Y-55766094D01*
X153682671Y-55662291D01*
X153691465Y-55573001D01*
X153686700Y-55524621D01*
X153686700Y-55492698D01*
X154335000Y-55492698D01*
X154335000Y-55962502D01*
X154426654Y-56423279D01*
X154606440Y-56857321D01*
X154867450Y-57247949D01*
X155199651Y-57580150D01*
X155590279Y-57841160D01*
X156024321Y-58020946D01*
X156485098Y-58112600D01*
X156954902Y-58112600D01*
X157415679Y-58020946D01*
X157849721Y-57841160D01*
X158240349Y-57580150D01*
X158572550Y-57247949D01*
X158833560Y-56857321D01*
X159013346Y-56423279D01*
X159105000Y-55962502D01*
X159105000Y-55492698D01*
X159013346Y-55031921D01*
X158833560Y-54597879D01*
X158572550Y-54207251D01*
X158240349Y-53875050D01*
X157849721Y-53614040D01*
X157415679Y-53434254D01*
X156954902Y-53342600D01*
X156485098Y-53342600D01*
X156024321Y-53434254D01*
X155590279Y-53614040D01*
X155199651Y-53875050D01*
X154867450Y-54207251D01*
X154606440Y-54597879D01*
X154426654Y-55031921D01*
X154335000Y-55492698D01*
X153686700Y-55492698D01*
X153686700Y-52000080D01*
X153691465Y-51951700D01*
X153672447Y-51758606D01*
X153616124Y-51572933D01*
X153524660Y-51401816D01*
X153432410Y-51289409D01*
X153401570Y-51251830D01*
X153363990Y-51220989D01*
X152587000Y-50444000D01*
X152587000Y-49141691D01*
X152651945Y-49088392D01*
X152662498Y-49123180D01*
X152721463Y-49233494D01*
X152800815Y-49330185D01*
X152897506Y-49409537D01*
X153007820Y-49468502D01*
X153127518Y-49504812D01*
X153252000Y-49517072D01*
X153816250Y-49514000D01*
X153975000Y-49355250D01*
X153975000Y-48006000D01*
X154229000Y-48006000D01*
X154229000Y-49355250D01*
X154387750Y-49514000D01*
X154952000Y-49517072D01*
X155076482Y-49504812D01*
X155196180Y-49468502D01*
X155306494Y-49409537D01*
X155403185Y-49330185D01*
X155482537Y-49233494D01*
X155541502Y-49123180D01*
X155577812Y-49003482D01*
X155590072Y-48879000D01*
X155587000Y-48164750D01*
X155428250Y-48006000D01*
X154229000Y-48006000D01*
X153975000Y-48006000D01*
X153955000Y-48006000D01*
X153955000Y-47752000D01*
X153975000Y-47752000D01*
X153975000Y-46402750D01*
X154229000Y-46402750D01*
X154229000Y-47752000D01*
X155428250Y-47752000D01*
X155587000Y-47593250D01*
X155589865Y-46927110D01*
X175598524Y-46927110D01*
X175719845Y-47157000D01*
X177063000Y-47157000D01*
X177063000Y-45956768D01*
X177317000Y-45956768D01*
X177317000Y-47157000D01*
X178660155Y-47157000D01*
X178781476Y-46927110D01*
X178779554Y-46914739D01*
X178679854Y-46640991D01*
X178528664Y-46391954D01*
X178331795Y-46177198D01*
X178096812Y-46004975D01*
X177832745Y-45881904D01*
X177549742Y-45812715D01*
X177317000Y-45956768D01*
X177063000Y-45956768D01*
X176830258Y-45812715D01*
X176547255Y-45881904D01*
X176283188Y-46004975D01*
X176048205Y-46177198D01*
X175851336Y-46391954D01*
X175700146Y-46640991D01*
X175600446Y-46914739D01*
X175598524Y-46927110D01*
X155589865Y-46927110D01*
X155590072Y-46879000D01*
X155577812Y-46754518D01*
X155541502Y-46634820D01*
X155482537Y-46524506D01*
X155403185Y-46427815D01*
X155306494Y-46348463D01*
X155196180Y-46289498D01*
X155076482Y-46253188D01*
X154952000Y-46240928D01*
X154387750Y-46244000D01*
X154229000Y-46402750D01*
X153975000Y-46402750D01*
X153816250Y-46244000D01*
X153252000Y-46240928D01*
X153127518Y-46253188D01*
X153007820Y-46289498D01*
X152897506Y-46348463D01*
X152800815Y-46427815D01*
X152721463Y-46524506D01*
X152662498Y-46634820D01*
X152651945Y-46669608D01*
X152431014Y-46488294D01*
X152173034Y-46350401D01*
X151893111Y-46265487D01*
X151602000Y-46236815D01*
X151310890Y-46265487D01*
X151030967Y-46350401D01*
X150772987Y-46488294D01*
X150546866Y-46673866D01*
X150361294Y-46899986D01*
X150223401Y-47157966D01*
X150138487Y-47437889D01*
X150117000Y-47656050D01*
X150117000Y-48101949D01*
X150138487Y-48320110D01*
X150223401Y-48600033D01*
X150361294Y-48858013D01*
X150546866Y-49084134D01*
X150617001Y-49141692D01*
X150617000Y-50803620D01*
X150612235Y-50852000D01*
X150623063Y-50961935D01*
X150631253Y-51045093D01*
X150687576Y-51230766D01*
X150779040Y-51401884D01*
X150902130Y-51551870D01*
X150939715Y-51582715D01*
X151716701Y-52359702D01*
X151716700Y-55165000D01*
X145351561Y-61530139D01*
X145234489Y-61451914D01*
X145064329Y-61381432D01*
X144883689Y-61345500D01*
X144699511Y-61345500D01*
X144518871Y-61381432D01*
X144348711Y-61451914D01*
X144246065Y-61520500D01*
X143955355Y-61520500D01*
X144121120Y-61354735D01*
X144274005Y-61125927D01*
X144379314Y-60871690D01*
X144433000Y-60601792D01*
X144433000Y-60326608D01*
X144379314Y-60056710D01*
X144274005Y-59802473D01*
X144121120Y-59573665D01*
X144063478Y-59516023D01*
X148365849Y-55213653D01*
X148486929Y-55189568D01*
X148657089Y-55119086D01*
X148810228Y-55016762D01*
X148940462Y-54886528D01*
X149042786Y-54733389D01*
X149113268Y-54563229D01*
X149149200Y-54382589D01*
X149149200Y-54198411D01*
X149113268Y-54017771D01*
X149042786Y-53847611D01*
X148940462Y-53694472D01*
X148810228Y-53564238D01*
X148657089Y-53461914D01*
X148486929Y-53391432D01*
X148306289Y-53355500D01*
X148122111Y-53355500D01*
X147941471Y-53391432D01*
X147771311Y-53461914D01*
X147618172Y-53564238D01*
X147487938Y-53694472D01*
X147385614Y-53847611D01*
X147315132Y-54017771D01*
X147291047Y-54138851D01*
X144231315Y-57198583D01*
X144121120Y-57033665D01*
X143926535Y-56839080D01*
X143697727Y-56686195D01*
X143443490Y-56580886D01*
X143173592Y-56527200D01*
X143032001Y-56527200D01*
X133751409Y-47246608D01*
X141639000Y-47246608D01*
X141639000Y-47521792D01*
X141692686Y-47791690D01*
X141797995Y-48045927D01*
X141950880Y-48274735D01*
X142145465Y-48469320D01*
X142374273Y-48622205D01*
X142451515Y-48654200D01*
X142374273Y-48686195D01*
X142145465Y-48839080D01*
X141950880Y-49033665D01*
X141797995Y-49262473D01*
X141692686Y-49516710D01*
X141639000Y-49786608D01*
X141639000Y-50061792D01*
X141692686Y-50331690D01*
X141797995Y-50585927D01*
X141950880Y-50814735D01*
X142145465Y-51009320D01*
X142374273Y-51162205D01*
X142628510Y-51267514D01*
X142898408Y-51321200D01*
X143173592Y-51321200D01*
X143443490Y-51267514D01*
X143697727Y-51162205D01*
X143926535Y-51009320D01*
X144121120Y-50814735D01*
X144274005Y-50585927D01*
X144379314Y-50331690D01*
X144433000Y-50061792D01*
X144433000Y-49786608D01*
X144379314Y-49516710D01*
X144274005Y-49262473D01*
X144121120Y-49033665D01*
X143926535Y-48839080D01*
X143697727Y-48686195D01*
X143620485Y-48654200D01*
X143697727Y-48622205D01*
X143926535Y-48469320D01*
X144121120Y-48274735D01*
X144274005Y-48045927D01*
X144379314Y-47791690D01*
X144433000Y-47521792D01*
X144433000Y-47246608D01*
X144379314Y-46976710D01*
X144274005Y-46722473D01*
X144121120Y-46493665D01*
X143926535Y-46299080D01*
X143697727Y-46146195D01*
X143443490Y-46040886D01*
X143173592Y-45987200D01*
X142898408Y-45987200D01*
X142628510Y-46040886D01*
X142374273Y-46146195D01*
X142145465Y-46299080D01*
X141950880Y-46493665D01*
X141797995Y-46722473D01*
X141692686Y-46976710D01*
X141639000Y-47246608D01*
X133751409Y-47246608D01*
X131912916Y-45408116D01*
X131882070Y-45370530D01*
X131732084Y-45247440D01*
X131560967Y-45155976D01*
X131375294Y-45099653D01*
X131230580Y-45085400D01*
X131182200Y-45080635D01*
X131133820Y-45085400D01*
X117117677Y-45085400D01*
X117069299Y-45080635D01*
X117020922Y-45085400D01*
X117020920Y-45085400D01*
X116876206Y-45099653D01*
X116690533Y-45155976D01*
X116519416Y-45247440D01*
X116369430Y-45370530D01*
X116356221Y-45386625D01*
X116340131Y-45399830D01*
X116217041Y-45549816D01*
X116168152Y-45641281D01*
X116125576Y-45720934D01*
X116069253Y-45906607D01*
X116050235Y-46099700D01*
X116055001Y-46148089D01*
X116055001Y-46264206D01*
X115834866Y-46444866D01*
X115649294Y-46670986D01*
X115511401Y-46928966D01*
X115426487Y-47208889D01*
X115397815Y-47500000D01*
X115426487Y-47791111D01*
X115511401Y-48071034D01*
X115649294Y-48329014D01*
X115834866Y-48555134D01*
X115898337Y-48607223D01*
X115796614Y-48661595D01*
X115662038Y-48772038D01*
X115551595Y-48906614D01*
X115469528Y-49060150D01*
X115418992Y-49226746D01*
X115401928Y-49400000D01*
X115401928Y-50600000D01*
X115418992Y-50773254D01*
X115469528Y-50939850D01*
X115551595Y-51093386D01*
X115662038Y-51227962D01*
X115796614Y-51338405D01*
X115950150Y-51420472D01*
X116116746Y-51471008D01*
X116290000Y-51488072D01*
X117790000Y-51488072D01*
X117963254Y-51471008D01*
X118129850Y-51420472D01*
X118283386Y-51338405D01*
X118417962Y-51227962D01*
X118528405Y-51093386D01*
X118586339Y-50985000D01*
X124121145Y-50985000D01*
X124145465Y-51009320D01*
X124374273Y-51162205D01*
X124628510Y-51267514D01*
X124898408Y-51321200D01*
X125173592Y-51321200D01*
X125443490Y-51267514D01*
X125697727Y-51162205D01*
X125926535Y-51009320D01*
X126121120Y-50814735D01*
X126274005Y-50585927D01*
X126379314Y-50331690D01*
X126433000Y-50061792D01*
X126433000Y-49786608D01*
X126379314Y-49516710D01*
X126274005Y-49262473D01*
X126121120Y-49033665D01*
X125926535Y-48839080D01*
X125697727Y-48686195D01*
X125620485Y-48654200D01*
X125697727Y-48622205D01*
X125926535Y-48469320D01*
X126121120Y-48274735D01*
X126274005Y-48045927D01*
X126379314Y-47791690D01*
X126433000Y-47521792D01*
X126433000Y-47246608D01*
X126394966Y-47055400D01*
X130774200Y-47055400D01*
X141639000Y-57920201D01*
X141639000Y-58061792D01*
X141676755Y-58251600D01*
X126394125Y-58251600D01*
X126425023Y-58127065D01*
X126437910Y-57852183D01*
X126396922Y-57580067D01*
X126303636Y-57321177D01*
X126241656Y-57205220D01*
X126001565Y-57138240D01*
X125215605Y-57924200D01*
X125229748Y-57938343D01*
X125050143Y-58117948D01*
X125036000Y-58103805D01*
X125021858Y-58117948D01*
X124842253Y-57938343D01*
X124856395Y-57924200D01*
X124070435Y-57138240D01*
X123830344Y-57205220D01*
X123713244Y-57454248D01*
X123646977Y-57721335D01*
X123634090Y-57996217D01*
X123672558Y-58251600D01*
X118529402Y-58251600D01*
X118226731Y-57948930D01*
X118278000Y-57691184D01*
X118278000Y-57388816D01*
X118219011Y-57092257D01*
X118163663Y-56958635D01*
X124250040Y-56958635D01*
X125036000Y-57744595D01*
X125821960Y-56958635D01*
X125754980Y-56718544D01*
X125505952Y-56601444D01*
X125238865Y-56535177D01*
X124963983Y-56522290D01*
X124691867Y-56563278D01*
X124432977Y-56656564D01*
X124317020Y-56718544D01*
X124250040Y-56958635D01*
X118163663Y-56958635D01*
X118103299Y-56812905D01*
X117935312Y-56561495D01*
X117868873Y-56495056D01*
X117887180Y-56489502D01*
X117997494Y-56430537D01*
X118094185Y-56351185D01*
X118173537Y-56254494D01*
X118232502Y-56144180D01*
X118268812Y-56024482D01*
X118281072Y-55900000D01*
X118281072Y-54100000D01*
X118268812Y-53975518D01*
X118232502Y-53855820D01*
X118173537Y-53745506D01*
X118094185Y-53648815D01*
X117997494Y-53569463D01*
X117887180Y-53510498D01*
X117767482Y-53474188D01*
X117643000Y-53461928D01*
X115843000Y-53461928D01*
X115718518Y-53474188D01*
X115598820Y-53510498D01*
X115488506Y-53569463D01*
X115391815Y-53648815D01*
X115312463Y-53745506D01*
X115253498Y-53855820D01*
X115217188Y-53975518D01*
X115204928Y-54100000D01*
X115204928Y-55145072D01*
X114985000Y-55365000D01*
X114985000Y-43738266D01*
X179206364Y-43763305D01*
G36*
X123713244Y-59994248D02*
G01*
X123646977Y-60261335D01*
X123634090Y-60536217D01*
X123675078Y-60808333D01*
X123768364Y-61067223D01*
X123830344Y-61183180D01*
X124070435Y-61250160D01*
X124856395Y-60464200D01*
X124842253Y-60450058D01*
X125021858Y-60270453D01*
X125036000Y-60284595D01*
X125050143Y-60270453D01*
X125229748Y-60450058D01*
X125215605Y-60464200D01*
X126001565Y-61250160D01*
X126241656Y-61183180D01*
X126358756Y-60934152D01*
X126425023Y-60667065D01*
X126437910Y-60392183D01*
X126396922Y-60120067D01*
X126303636Y-59861177D01*
X126255756Y-59771600D01*
X141818624Y-59771600D01*
X141797995Y-59802473D01*
X141692686Y-60056710D01*
X141639000Y-60326608D01*
X141639000Y-60601792D01*
X141692686Y-60871690D01*
X141797995Y-61125927D01*
X141950880Y-61354735D01*
X142116645Y-61520500D01*
X125796647Y-61520500D01*
X125821960Y-61429765D01*
X125036000Y-60643805D01*
X124250040Y-61429765D01*
X124275353Y-61520500D01*
X117828317Y-61520500D01*
X117802873Y-61495056D01*
X117821180Y-61489502D01*
X117931494Y-61430537D01*
X118028185Y-61351185D01*
X118107537Y-61254494D01*
X118166502Y-61144180D01*
X118202812Y-61024482D01*
X118215072Y-60900000D01*
X118215072Y-59775230D01*
X118251925Y-59771600D01*
X123817939Y-59771600D01*
X123713244Y-59994248D01*
G37*
X123713244Y-59994248D02*
X123646977Y-60261335D01*
X123634090Y-60536217D01*
X123675078Y-60808333D01*
X123768364Y-61067223D01*
X123830344Y-61183180D01*
X124070435Y-61250160D01*
X124856395Y-60464200D01*
X124842253Y-60450058D01*
X125021858Y-60270453D01*
X125036000Y-60284595D01*
X125050143Y-60270453D01*
X125229748Y-60450058D01*
X125215605Y-60464200D01*
X126001565Y-61250160D01*
X126241656Y-61183180D01*
X126358756Y-60934152D01*
X126425023Y-60667065D01*
X126437910Y-60392183D01*
X126396922Y-60120067D01*
X126303636Y-59861177D01*
X126255756Y-59771600D01*
X141818624Y-59771600D01*
X141797995Y-59802473D01*
X141692686Y-60056710D01*
X141639000Y-60326608D01*
X141639000Y-60601792D01*
X141692686Y-60871690D01*
X141797995Y-61125927D01*
X141950880Y-61354735D01*
X142116645Y-61520500D01*
X125796647Y-61520500D01*
X125821960Y-61429765D01*
X125036000Y-60643805D01*
X124250040Y-61429765D01*
X124275353Y-61520500D01*
X117828317Y-61520500D01*
X117802873Y-61495056D01*
X117821180Y-61489502D01*
X117931494Y-61430537D01*
X118028185Y-61351185D01*
X118107537Y-61254494D01*
X118166502Y-61144180D01*
X118202812Y-61024482D01*
X118215072Y-60900000D01*
X118215072Y-59775230D01*
X118251925Y-59771600D01*
X123817939Y-59771600D01*
X123713244Y-59994248D01*
%TD*%
M02*
