%TF.GenerationSoftware,KiCad,Pcbnew,5.1.6-c6e7f7d~87~ubuntu20.04.1*%
%TF.CreationDate,2021-10-31T15:52:52+01:00*%
%TF.ProjectId,sb-cnc-shield,73622d63-6e63-42d7-9368-69656c642e6b,rev?*%
%TF.SameCoordinates,Original*%
%TF.FileFunction,Soldermask,Top*%
%TF.FilePolarity,Negative*%
%FSLAX46Y46*%
G04 Gerber Fmt 4.6, Leading zero omitted, Abs format (unit mm)*
G04 Created by KiCad (PCBNEW 5.1.6-c6e7f7d~87~ubuntu20.04.1) date 2021-10-31 15:52:52*
%MOMM*%
%LPD*%
G01*
G04 APERTURE LIST*
%ADD10C,1.700000*%
%ADD11O,3.500000X3.500000*%
%ADD12R,2.000000X1.905000*%
%ADD13O,2.000000X1.905000*%
%ADD14O,2.000000X1.700000*%
%ADD15C,1.610000*%
%ADD16C,2.250000*%
%ADD17C,1.510000*%
%ADD18R,1.300000X0.700000*%
%ADD19R,0.700000X1.300000*%
%ADD20R,3.500000X3.500000*%
%ADD21C,1.600000*%
%ADD22R,1.700000X1.700000*%
%ADD23O,1.700000X1.700000*%
%ADD24O,1.700000X2.000000*%
%ADD25C,1.524000*%
G04 APERTURE END LIST*
D10*
%TO.C,conn26_0*%
X179283000Y-109480000D03*
X179283000Y-106940000D03*
X179283000Y-104400000D03*
X179283000Y-101860000D03*
X179283000Y-99320000D03*
X179283000Y-96780000D03*
X179283000Y-94240000D03*
X179283000Y-91700000D03*
X179283000Y-89160000D03*
X179283000Y-86620000D03*
X179283000Y-84080000D03*
X179283000Y-81540000D03*
X179283000Y-79000000D03*
X176743000Y-109480000D03*
X176743000Y-106940000D03*
X176743000Y-104400000D03*
X176743000Y-101860000D03*
X176743000Y-99320000D03*
X176743000Y-96780000D03*
X176743000Y-94240000D03*
X176743000Y-91700000D03*
X176743000Y-89160000D03*
X176743000Y-86620000D03*
X176743000Y-84080000D03*
X176743000Y-81540000D03*
G36*
G01*
X175893000Y-79600000D02*
X175893000Y-78400000D01*
G75*
G02*
X176143000Y-78150000I250000J0D01*
G01*
X177343000Y-78150000D01*
G75*
G02*
X177593000Y-78400000I0J-250000D01*
G01*
X177593000Y-79600000D01*
G75*
G02*
X177343000Y-79850000I-250000J0D01*
G01*
X176143000Y-79850000D01*
G75*
G02*
X175893000Y-79600000I0J250000D01*
G01*
G37*
%TD*%
%TO.C,conn26_1*%
G36*
G01*
X164180000Y-79600000D02*
X164180000Y-78400000D01*
G75*
G02*
X164430000Y-78150000I250000J0D01*
G01*
X165630000Y-78150000D01*
G75*
G02*
X165880000Y-78400000I0J-250000D01*
G01*
X165880000Y-79600000D01*
G75*
G02*
X165630000Y-79850000I-250000J0D01*
G01*
X164430000Y-79850000D01*
G75*
G02*
X164180000Y-79600000I0J250000D01*
G01*
G37*
X165030000Y-81540000D03*
X165030000Y-84080000D03*
X165030000Y-86620000D03*
X165030000Y-89160000D03*
X165030000Y-91700000D03*
X165030000Y-94240000D03*
X165030000Y-96780000D03*
X165030000Y-99320000D03*
X165030000Y-101860000D03*
X165030000Y-104400000D03*
X165030000Y-106940000D03*
X165030000Y-109480000D03*
X167570000Y-79000000D03*
X167570000Y-81540000D03*
X167570000Y-84080000D03*
X167570000Y-86620000D03*
X167570000Y-89160000D03*
X167570000Y-91700000D03*
X167570000Y-94240000D03*
X167570000Y-96780000D03*
X167570000Y-99320000D03*
X167570000Y-101860000D03*
X167570000Y-104400000D03*
X167570000Y-106940000D03*
X167570000Y-109480000D03*
%TD*%
D11*
%TO.C,Q0*%
X156720000Y-55727600D03*
D12*
X173380000Y-58267600D03*
D13*
X173380000Y-55727600D03*
X173380000Y-53187600D03*
%TD*%
%TO.C,pi_5V1*%
G36*
G01*
X120790000Y-50583200D02*
X119290000Y-50583200D01*
G75*
G02*
X119040000Y-50333200I0J250000D01*
G01*
X119040000Y-49133200D01*
G75*
G02*
X119290000Y-48883200I250000J0D01*
G01*
X120790000Y-48883200D01*
G75*
G02*
X121040000Y-49133200I0J-250000D01*
G01*
X121040000Y-50333200D01*
G75*
G02*
X120790000Y-50583200I-250000J0D01*
G01*
G37*
D14*
X120040000Y-47233200D03*
%TD*%
D15*
%TO.C,U1*%
X177358000Y-117180000D03*
X174818000Y-117180000D03*
X172278000Y-117180000D03*
X164658000Y-117180000D03*
X167198000Y-117180000D03*
X169738000Y-117180000D03*
X159578000Y-117180000D03*
X157038000Y-117180000D03*
X154498000Y-117180000D03*
X149418000Y-117180000D03*
X146878000Y-117180000D03*
X177358000Y-68920000D03*
X174818000Y-68920000D03*
X172278000Y-68920000D03*
X169738000Y-68920000D03*
X167198000Y-68920000D03*
X164658000Y-68920000D03*
X162118000Y-68920000D03*
X159578000Y-68920000D03*
X155514000Y-68920000D03*
X152974000Y-68920000D03*
X150434000Y-68920000D03*
X147894000Y-68920000D03*
X145354000Y-68920000D03*
X142814000Y-68920000D03*
X140274000Y-68920000D03*
X137734000Y-68920000D03*
X151958000Y-117180000D03*
X135194000Y-68920000D03*
X132654000Y-68920000D03*
%TD*%
D16*
%TO.C,SW1*%
X117348000Y-73689600D03*
X123848000Y-73689600D03*
X117348000Y-69189600D03*
X123848000Y-69189600D03*
%TD*%
D17*
%TO.C,U2*%
X130033000Y-74229000D03*
X130033000Y-76769000D03*
X130033000Y-79309000D03*
X130033000Y-81849000D03*
X130033000Y-84389000D03*
X130033000Y-86929000D03*
X130033000Y-89469000D03*
X130033000Y-92009000D03*
X142733000Y-92009000D03*
X142733000Y-89469000D03*
X142733000Y-86929000D03*
X142733000Y-84389000D03*
X142733000Y-81849000D03*
X142733000Y-79309000D03*
X142733000Y-76769000D03*
X142733000Y-74229000D03*
%TD*%
%TO.C,U4*%
X130033000Y-94549000D03*
X130033000Y-97089000D03*
X130033000Y-99629000D03*
X130033000Y-102169000D03*
X130033000Y-104709000D03*
X130033000Y-107249000D03*
X130033000Y-109789000D03*
X130033000Y-112329000D03*
X142733000Y-112329000D03*
X142733000Y-109789000D03*
X142733000Y-107249000D03*
X142733000Y-104709000D03*
X142733000Y-102169000D03*
X142733000Y-99629000D03*
X142733000Y-97089000D03*
X142733000Y-94549000D03*
%TD*%
%TO.C,U5*%
X146746000Y-94625200D03*
X146746000Y-97165200D03*
X146746000Y-99705200D03*
X146746000Y-102245200D03*
X146746000Y-104785200D03*
X146746000Y-107325200D03*
X146746000Y-109865200D03*
X146746000Y-112405200D03*
X159446000Y-112405200D03*
X159446000Y-109865200D03*
X159446000Y-107325200D03*
X159446000Y-104785200D03*
X159446000Y-102245200D03*
X159446000Y-99705200D03*
X159446000Y-97165200D03*
X159446000Y-94625200D03*
%TD*%
%TO.C,U3*%
X146670000Y-74305200D03*
X146670000Y-76845200D03*
X146670000Y-79385200D03*
X146670000Y-81925200D03*
X146670000Y-84465200D03*
X146670000Y-87005200D03*
X146670000Y-89545200D03*
X146670000Y-92085200D03*
X159370000Y-92085200D03*
X159370000Y-89545200D03*
X159370000Y-87005200D03*
X159370000Y-84465200D03*
X159370000Y-81925200D03*
X159370000Y-79385200D03*
X159370000Y-76845200D03*
X159370000Y-74305200D03*
%TD*%
D18*
%TO.C,R1*%
X132573000Y-75814000D03*
X132573000Y-73914000D03*
%TD*%
%TO.C,R2*%
X149210000Y-75890200D03*
X149210000Y-73990200D03*
%TD*%
%TO.C,R3*%
X132573000Y-96134000D03*
X132573000Y-94234000D03*
%TD*%
%TO.C,R4*%
X149286000Y-96210200D03*
X149286000Y-94310200D03*
%TD*%
D19*
%TO.C,R5*%
X142555000Y-116891000D03*
X140655000Y-116891000D03*
%TD*%
D20*
%TO.C,P8*%
X124938000Y-111420000D03*
G36*
G01*
X117438000Y-112420000D02*
X117438000Y-110420000D01*
G75*
G02*
X118188000Y-109670000I750000J0D01*
G01*
X119688000Y-109670000D01*
G75*
G02*
X120438000Y-110420000I0J-750000D01*
G01*
X120438000Y-112420000D01*
G75*
G02*
X119688000Y-113170000I-750000J0D01*
G01*
X118188000Y-113170000D01*
G75*
G02*
X117438000Y-112420000I0J750000D01*
G01*
G37*
G36*
G01*
X120188000Y-116995000D02*
X120188000Y-115245000D01*
G75*
G02*
X121063000Y-114370000I875000J0D01*
G01*
X122813000Y-114370000D01*
G75*
G02*
X123688000Y-115245000I0J-875000D01*
G01*
X123688000Y-116995000D01*
G75*
G02*
X122813000Y-117870000I-875000J0D01*
G01*
X121063000Y-117870000D01*
G75*
G02*
X120188000Y-116995000I0J875000D01*
G01*
G37*
%TD*%
D21*
%TO.C,C1*%
X135956000Y-73980100D03*
X137956000Y-73980100D03*
%TD*%
%TO.C,C2*%
X154989000Y-74051200D03*
X152989000Y-74051200D03*
%TD*%
%TO.C,C3*%
X136052000Y-95778400D03*
X138052000Y-95778400D03*
%TD*%
%TO.C,C4*%
X154633000Y-95778400D03*
X152633000Y-95778400D03*
%TD*%
D22*
%TO.C,P10*%
X154102000Y-47879000D03*
D23*
X154102000Y-45339000D03*
%TD*%
%TO.C,R6*%
G36*
G01*
X169462000Y-48386050D02*
X169462000Y-47473550D01*
G75*
G02*
X169705750Y-47229800I243750J0D01*
G01*
X170193250Y-47229800D01*
G75*
G02*
X170437000Y-47473550I0J-243750D01*
G01*
X170437000Y-48386050D01*
G75*
G02*
X170193250Y-48629800I-243750J0D01*
G01*
X169705750Y-48629800D01*
G75*
G02*
X169462000Y-48386050I0J243750D01*
G01*
G37*
G36*
G01*
X167587000Y-48386050D02*
X167587000Y-47473550D01*
G75*
G02*
X167830750Y-47229800I243750J0D01*
G01*
X168318250Y-47229800D01*
G75*
G02*
X168562000Y-47473550I0J-243750D01*
G01*
X168562000Y-48386050D01*
G75*
G02*
X168318250Y-48629800I-243750J0D01*
G01*
X167830750Y-48629800D01*
G75*
G02*
X167587000Y-48386050I0J243750D01*
G01*
G37*
%TD*%
%TO.C,R7*%
G36*
G01*
X162938000Y-48386050D02*
X162938000Y-47473550D01*
G75*
G02*
X163181750Y-47229800I243750J0D01*
G01*
X163669250Y-47229800D01*
G75*
G02*
X163913000Y-47473550I0J-243750D01*
G01*
X163913000Y-48386050D01*
G75*
G02*
X163669250Y-48629800I-243750J0D01*
G01*
X163181750Y-48629800D01*
G75*
G02*
X162938000Y-48386050I0J243750D01*
G01*
G37*
G36*
G01*
X164813000Y-48386050D02*
X164813000Y-47473550D01*
G75*
G02*
X165056750Y-47229800I243750J0D01*
G01*
X165544250Y-47229800D01*
G75*
G02*
X165788000Y-47473550I0J-243750D01*
G01*
X165788000Y-48386050D01*
G75*
G02*
X165544250Y-48629800I-243750J0D01*
G01*
X165056750Y-48629800D01*
G75*
G02*
X164813000Y-48386050I0J243750D01*
G01*
G37*
%TD*%
%TO.C,l_pwr1*%
G36*
G01*
X177940000Y-50634000D02*
X176440000Y-50634000D01*
G75*
G02*
X176190000Y-50384000I0J250000D01*
G01*
X176190000Y-49184000D01*
G75*
G02*
X176440000Y-48934000I250000J0D01*
G01*
X177940000Y-48934000D01*
G75*
G02*
X178190000Y-49184000I0J-250000D01*
G01*
X178190000Y-50384000D01*
G75*
G02*
X177940000Y-50634000I-250000J0D01*
G01*
G37*
D14*
X177190000Y-47284000D03*
%TD*%
D24*
%TO.C,Pump1*%
X177150000Y-63525400D03*
G36*
G01*
X173800000Y-64275400D02*
X173800000Y-62775400D01*
G75*
G02*
X174050000Y-62525400I250000J0D01*
G01*
X175250000Y-62525400D01*
G75*
G02*
X175500000Y-62775400I0J-250000D01*
G01*
X175500000Y-64275400D01*
G75*
G02*
X175250000Y-64525400I-250000J0D01*
G01*
X174050000Y-64525400D01*
G75*
G02*
X173800000Y-64275400I0J250000D01*
G01*
G37*
%TD*%
D22*
%TO.C,MSA1*%
X150480000Y-111643000D03*
D23*
X150480000Y-109103000D03*
X153020000Y-111643000D03*
X153020000Y-109103000D03*
X155560000Y-111643000D03*
X155560000Y-109103000D03*
%TD*%
D22*
%TO.C,MSY1*%
X150835000Y-91145400D03*
D23*
X150835000Y-88605400D03*
X153375000Y-91145400D03*
X153375000Y-88605400D03*
X155915000Y-91145400D03*
X155915000Y-88605400D03*
%TD*%
%TO.C,MSZ1*%
X138923000Y-109129000D03*
X138923000Y-111669000D03*
X136383000Y-109129000D03*
X136383000Y-111669000D03*
X133843000Y-109129000D03*
D22*
X133843000Y-111669000D03*
%TD*%
%TO.C,MSX1*%
X133945000Y-91145400D03*
D23*
X133945000Y-88605400D03*
X136485000Y-91145400D03*
X136485000Y-88605400D03*
X139025000Y-91145400D03*
X139025000Y-88605400D03*
%TD*%
D25*
%TO.C,MP1584EN_DC-DC1*%
X143036000Y-47384200D03*
X143036000Y-49924200D03*
X143036000Y-57924200D03*
X143036000Y-60464200D03*
X125036000Y-57924200D03*
X125036000Y-60464200D03*
X125036000Y-49924200D03*
X125036000Y-47384200D03*
%TD*%
%TO.C,fan1*%
G36*
G01*
X120985000Y-81536400D02*
X119735000Y-81536400D01*
G75*
G02*
X119585000Y-81386400I0J150000D01*
G01*
X119585000Y-81086400D01*
G75*
G02*
X119735000Y-80936400I150000J0D01*
G01*
X120985000Y-80936400D01*
G75*
G02*
X121135000Y-81086400I0J-150000D01*
G01*
X121135000Y-81386400D01*
G75*
G02*
X120985000Y-81536400I-150000J0D01*
G01*
G37*
G36*
G01*
X120985000Y-80536400D02*
X119735000Y-80536400D01*
G75*
G02*
X119585000Y-80386400I0J150000D01*
G01*
X119585000Y-80086400D01*
G75*
G02*
X119735000Y-79936400I150000J0D01*
G01*
X120985000Y-79936400D01*
G75*
G02*
X121135000Y-80086400I0J-150000D01*
G01*
X121135000Y-80386400D01*
G75*
G02*
X120985000Y-80536400I-150000J0D01*
G01*
G37*
G36*
G01*
X118485001Y-83136400D02*
X117184999Y-83136400D01*
G75*
G02*
X116935000Y-82886401I0J249999D01*
G01*
X116935000Y-82186399D01*
G75*
G02*
X117184999Y-81936400I249999J0D01*
G01*
X118485001Y-81936400D01*
G75*
G02*
X118735000Y-82186399I0J-249999D01*
G01*
X118735000Y-82886401D01*
G75*
G02*
X118485001Y-83136400I-249999J0D01*
G01*
G37*
G36*
G01*
X118485001Y-79536400D02*
X117184999Y-79536400D01*
G75*
G02*
X116935000Y-79286401I0J249999D01*
G01*
X116935000Y-78586399D01*
G75*
G02*
X117184999Y-78336400I249999J0D01*
G01*
X118485001Y-78336400D01*
G75*
G02*
X118735000Y-78586399I0J-249999D01*
G01*
X118735000Y-79286401D01*
G75*
G02*
X118485001Y-79536400I-249999J0D01*
G01*
G37*
%TD*%
M02*
