M48
; DRILL file {KiCad 5.1.6-c6e7f7d~87~ubuntu20.04.1} date Sun Dec  5 16:45:19 2021
; FORMAT={-:-/ absolute / inch / decimal}
; #@! TF.CreationDate,2021-12-05T16:45:19+01:00
; #@! TF.GenerationSoftware,Kicad,Pcbnew,5.1.6-c6e7f7d~87~ubuntu20.04.1
; #@! TF.FileFunction,Plated,1,2,PTH
FMAT,2
INCH
T1C0.0157
T2C0.0300
T3C0.0315
T4C0.0354
T5C0.0394
T6C0.0433
T7C0.0591
%
G90
G05
T1
X4.7802Y-4.2791
X4.8918Y-2.9141
X5.1282Y-2.7263
X5.232Y-3.4098
X5.2763Y-3.7058
X5.3281Y-2.8616
X5.5358Y-2.5678
X5.5362Y-3.0071
X5.566Y-3.1426
X5.568Y-4.5265
X5.7005Y-2.452
X5.8301Y-4.2729
X5.8352Y-2.1374
X5.9076Y-3.7536
X5.9209Y-3.8591
X5.925Y-2.9051
X5.9949Y-3.9248
X5.9949Y-4.0283
X6.1916Y-4.5349
X6.1985Y-3.0013
X6.1985Y-3.6465
X6.4054Y-4.1754
X6.4704Y-4.3599
X6.4952Y-4.5054
X6.7032Y-3.1424
T2
X4.9227Y-1.8655
X4.9227Y-1.9655
X4.9227Y-2.2805
X4.9227Y-2.3805
X5.6313Y-1.8655
X5.6313Y-1.9655
X5.6313Y-2.2805
X5.6313Y-2.3805
T3
X5.3564Y-3.7708
X5.4351Y-3.7708
X6.0092Y-3.7708
X6.0879Y-3.7708
X6.0232Y-2.9154
X6.1019Y-2.9154
X5.3526Y-2.9126
X5.4313Y-2.9126
T4
X4.5936Y-2.5591
X4.5936Y-2.6591
X5.7774Y-3.7254
X5.7774Y-3.8254
X5.7774Y-3.9254
X5.7774Y-4.0254
X5.7774Y-4.1254
X5.7774Y-4.2254
X5.7774Y-4.3254
X5.7774Y-4.4254
X6.2774Y-3.7254
X6.2774Y-3.8254
X6.2774Y-3.9254
X6.2774Y-4.0254
X6.2774Y-4.1254
X6.2774Y-4.2254
X6.2774Y-4.3254
X6.2774Y-4.4254
X5.1194Y-3.7224
X5.1194Y-3.8224
X5.1194Y-3.9224
X5.1194Y-4.0224
X5.1194Y-4.1224
X5.1194Y-4.2224
X5.1194Y-4.3224
X5.1194Y-4.4224
X5.6194Y-3.7224
X5.6194Y-3.8224
X5.6194Y-3.9224
X5.6194Y-4.0224
X5.6194Y-4.1224
X5.6194Y-4.2224
X5.6194Y-4.3224
X5.6194Y-4.4224
X5.1194Y-2.9224
X5.1194Y-3.0224
X5.1194Y-3.1224
X5.1194Y-3.2224
X5.1194Y-3.3224
X5.1194Y-3.4224
X5.1194Y-3.5224
X5.1194Y-3.6224
X5.6194Y-2.9224
X5.6194Y-3.0224
X5.6194Y-3.1224
X5.6194Y-3.2224
X5.6194Y-3.3224
X5.6194Y-3.4224
X5.6194Y-3.5224
X5.6194Y-3.6224
X4.5936Y-2.3622
X4.5936Y-2.4622
X4.5774Y-3.7402
X4.5774Y-3.8402
X5.7744Y-2.9254
X5.7744Y-3.0254
X5.7744Y-3.1254
X5.7744Y-3.2254
X5.7744Y-3.3254
X5.7744Y-3.4254
X5.7744Y-3.5254
X5.7744Y-3.6254
X6.2744Y-2.9254
X6.2744Y-3.0254
X6.2744Y-3.1254
X6.2744Y-3.2254
X6.2744Y-3.3254
X6.2744Y-3.4254
X6.2744Y-3.5254
X6.2744Y-3.6254
X4.5962Y-2.1654
X4.5962Y-2.2654
X4.5936Y-2.7559
X4.5936Y-2.8559
X4.5936Y-2.9528
X4.5936Y-3.0528
X4.5784Y-3.937
X4.5784Y-4.037
T5
X5.2226Y-2.7134
X5.3226Y-2.7134
X5.4226Y-2.7134
X5.5226Y-2.7134
X5.6226Y-2.7134
X5.7226Y-2.7134
X5.7826Y-4.6134
X5.8226Y-2.7134
X5.8826Y-4.6134
X5.9226Y-2.7134
X5.9826Y-4.6134
X6.0226Y-2.7134
X6.0826Y-4.6134
X6.1226Y-2.7134
X6.1826Y-4.6134
X6.2826Y-2.7134
X6.2826Y-4.6134
X6.3826Y-2.7134
X6.4826Y-2.7134
X6.4826Y-4.6134
X6.5826Y-2.7134
X6.5826Y-4.6134
X6.6826Y-2.7134
X6.6826Y-4.6134
X6.7826Y-2.7134
X6.7826Y-4.6134
X6.8826Y-2.7134
X6.8826Y-4.6134
X6.9826Y-2.7134
X6.9826Y-4.6134
X5.9384Y-3.4884
X5.9384Y-3.5884
X6.0384Y-3.4884
X6.0384Y-3.5884
X6.1384Y-3.4884
X6.1384Y-3.5884
X6.876Y-2.501
X6.9744Y-2.501
X6.976Y-1.8616
X6.976Y-1.96
X6.9584Y-3.1102
X6.9584Y-3.2102
X6.9584Y-3.3102
X6.9584Y-3.4102
X6.9584Y-3.5102
X6.9584Y-3.6102
X6.9584Y-3.7102
X6.9584Y-3.8102
X6.9584Y-3.9102
X6.9584Y-4.0102
X6.9584Y-4.1102
X6.9584Y-4.2102
X6.9584Y-4.3102
X7.0584Y-3.1102
X7.0584Y-3.2102
X7.0584Y-3.3102
X7.0584Y-3.4102
X7.0584Y-3.5102
X7.0584Y-3.6102
X7.0584Y-3.7102
X7.0584Y-3.8102
X7.0584Y-3.9102
X7.0584Y-4.0102
X7.0584Y-4.1102
X7.0584Y-4.2102
X7.0584Y-4.3102
X5.9686Y-1.885
X6.067Y-1.885
X4.6079Y-1.8701
X4.6079Y-1.9685
X5.9244Y-4.2954
X5.9244Y-4.3954
X6.0244Y-4.2954
X6.0244Y-4.3954
X6.1244Y-4.2954
X6.1244Y-4.3954
X5.2734Y-3.4884
X5.2734Y-3.5884
X5.3734Y-3.4884
X5.3734Y-3.5884
X5.4734Y-3.4884
X5.4734Y-3.5884
X5.2694Y-4.2964
X5.2694Y-4.3964
X5.3694Y-4.2964
X5.3694Y-4.3964
X5.4694Y-4.2964
X5.4694Y-4.3964
X6.4972Y-3.1102
X6.4972Y-3.2102
X6.4972Y-3.3102
X6.4972Y-3.4102
X6.4972Y-3.5102
X6.4972Y-3.6102
X6.4972Y-3.7102
X6.4972Y-3.8102
X6.4972Y-3.9102
X6.4972Y-4.0102
X6.4972Y-4.1102
X6.4972Y-4.2102
X6.4972Y-4.3102
X6.5972Y-3.1102
X6.5972Y-3.2102
X6.5972Y-3.3102
X6.5972Y-3.4102
X6.5972Y-3.5102
X6.5972Y-3.6102
X6.5972Y-3.7102
X6.5972Y-3.8102
X6.5972Y-3.9102
X6.5972Y-4.0102
X6.5972Y-4.1102
X6.5972Y-4.2102
X6.5972Y-4.3102
T6
X6.826Y-2.094
X6.826Y-2.194
X6.826Y-2.294
T7
X4.6564Y-3.3752
X4.6564Y-3.5524
X4.9123Y-3.3752
X4.9123Y-3.5524
T5
G00X4.5842Y-4.3472
M15
G01X4.5842Y-4.426
M16
G05
G00X4.6629Y-4.5717
M15
G01X4.7417Y-4.5717
M16
G05
G00X4.8204Y-4.3472
M15
G01X4.8204Y-4.426
M16
G05
T0
M30
