%TF.GenerationSoftware,KiCad,Pcbnew,5.1.6-c6e7f7d~87~ubuntu20.04.1*%
%TF.CreationDate,2021-10-29T23:24:48+02:00*%
%TF.ProjectId,sb-cnc-shield,73622d63-6e63-42d7-9368-69656c642e6b,rev?*%
%TF.SameCoordinates,Original*%
%TF.FileFunction,Copper,L1,Top*%
%TF.FilePolarity,Positive*%
%FSLAX46Y46*%
G04 Gerber Fmt 4.6, Leading zero omitted, Abs format (unit mm)*
G04 Created by KiCad (PCBNEW 5.1.6-c6e7f7d~87~ubuntu20.04.1) date 2021-10-29 23:24:48*
%MOMM*%
%LPD*%
G01*
G04 APERTURE LIST*
%TA.AperFunction,ComponentPad*%
%ADD10O,2.000000X1.700000*%
%TD*%
%TA.AperFunction,ComponentPad*%
%ADD11C,1.610000*%
%TD*%
%TA.AperFunction,ComponentPad*%
%ADD12C,2.250000*%
%TD*%
%TA.AperFunction,ComponentPad*%
%ADD13C,1.510000*%
%TD*%
%TA.AperFunction,SMDPad,CuDef*%
%ADD14R,1.300000X0.700000*%
%TD*%
%TA.AperFunction,SMDPad,CuDef*%
%ADD15R,0.700000X1.300000*%
%TD*%
%TA.AperFunction,ComponentPad*%
%ADD16C,1.600000*%
%TD*%
%TA.AperFunction,ComponentPad*%
%ADD17R,1.700000X1.700000*%
%TD*%
%TA.AperFunction,ComponentPad*%
%ADD18O,1.700000X1.700000*%
%TD*%
%TA.AperFunction,ComponentPad*%
%ADD19R,2.000000X1.905000*%
%TD*%
%TA.AperFunction,ComponentPad*%
%ADD20O,2.000000X1.905000*%
%TD*%
%TA.AperFunction,ComponentPad*%
%ADD21O,1.700000X2.000000*%
%TD*%
%TA.AperFunction,ComponentPad*%
%ADD22C,1.524000*%
%TD*%
%TA.AperFunction,ViaPad*%
%ADD23C,0.600000*%
%TD*%
%TA.AperFunction,Conductor*%
%ADD24C,0.700000*%
%TD*%
%TA.AperFunction,Conductor*%
%ADD25C,0.250000*%
%TD*%
%TA.AperFunction,Conductor*%
%ADD26C,0.500000*%
%TD*%
%TA.AperFunction,NonConductor*%
%ADD27C,0.254000*%
%TD*%
G04 APERTURE END LIST*
%TO.P,pi_5V1,1*%
%TO.N,GND*%
%TA.AperFunction,ComponentPad*%
G36*
G01*
X120790000Y-50583200D02*
X119290000Y-50583200D01*
G75*
G02*
X119040000Y-50333200I0J250000D01*
G01*
X119040000Y-49133200D01*
G75*
G02*
X119290000Y-48883200I250000J0D01*
G01*
X120790000Y-48883200D01*
G75*
G02*
X121040000Y-49133200I0J-250000D01*
G01*
X121040000Y-50333200D01*
G75*
G02*
X120790000Y-50583200I-250000J0D01*
G01*
G37*
%TD.AperFunction*%
D10*
%TO.P,pi_5V1,2*%
%TO.N,5V_pi*%
X120040000Y-47233200D03*
%TD*%
D11*
%TO.P,U1,17*%
%TO.N,SCL*%
X177358000Y-117180000D03*
%TO.P,U1,18*%
%TO.N,SDA*%
X174818000Y-117180000D03*
%TO.P,U1,19*%
%TO.N,laser_cmd*%
X172278000Y-117180000D03*
%TO.P,U1,22*%
%TO.N,O_led*%
X164658000Y-117180000D03*
%TO.P,U1,21*%
%TO.N,O_sig*%
X167198000Y-117180000D03*
%TO.P,U1,20*%
%TO.N,B_led*%
X169738000Y-117180000D03*
%TO.P,U1,23*%
%TO.N,Net-(U1-Pad23)*%
X159578000Y-117180000D03*
%TO.P,U1,24*%
%TO.N,GND*%
X157038000Y-117180000D03*
%TO.P,U1,25*%
X154498000Y-117180000D03*
%TO.P,U1,27*%
%TO.N,+3V3*%
X149418000Y-117180000D03*
%TO.P,U1,28*%
%TO.N,RESET*%
X146878000Y-117180000D03*
%TO.P,U1,1*%
%TO.N,DC*%
X177358000Y-68920000D03*
%TO.P,U1,2*%
%TO.N,res*%
X174818000Y-68920000D03*
%TO.P,U1,3*%
%TO.N,XSTEP*%
X172278000Y-68920000D03*
%TO.P,U1,4*%
%TO.N,YSTEP*%
X169738000Y-68920000D03*
%TO.P,U1,5*%
%TO.N,ZSTEP*%
X167198000Y-68920000D03*
%TO.P,U1,6*%
%TO.N,XDIR*%
X164658000Y-68920000D03*
%TO.P,U1,7*%
%TO.N,YDIR*%
X162118000Y-68920000D03*
%TO.P,U1,8*%
%TO.N,ZDIR*%
X159578000Y-68920000D03*
%TO.P,U1,9*%
%TO.N,EN*%
X155514000Y-68920000D03*
%TO.P,U1,10*%
%TO.N,XLIMIT*%
X152974000Y-68920000D03*
%TO.P,U1,11*%
%TO.N,YLIMIT*%
X150434000Y-68920000D03*
%TO.P,U1,12*%
%TO.N,SPIN_EN*%
X147894000Y-68920000D03*
%TO.P,U1,13*%
%TO.N,ZLIMIT*%
X145354000Y-68920000D03*
%TO.P,U1,14*%
%TO.N,SPIN_DIR*%
X142814000Y-68920000D03*
%TO.P,U1,15*%
%TO.N,GND*%
X140274000Y-68920000D03*
%TO.P,U1,16*%
%TO.N,Net-(U1-Pad16)*%
X137734000Y-68920000D03*
%TO.P,U1,26*%
%TO.N,+5V*%
X151958000Y-117180000D03*
%TO.P,U1,29*%
%TO.N,_SDA_*%
X135194000Y-68920000D03*
%TO.P,U1,30*%
%TO.N,_SCL_*%
X132654000Y-68920000D03*
%TD*%
D12*
%TO.P,SW1,3*%
%TO.N,RESET*%
X117348000Y-73689600D03*
%TO.P,SW1,4*%
X123848000Y-73689600D03*
%TO.P,SW1,1*%
%TO.N,GND*%
X117348000Y-69189600D03*
%TO.P,SW1,2*%
X123848000Y-69189600D03*
%TD*%
D13*
%TO.P,U2,1*%
%TO.N,EN*%
X131445000Y-74295000D03*
%TO.P,U2,2*%
%TO.N,Net-(MSX1-Pad2)*%
X131445000Y-76835000D03*
%TO.P,U2,3*%
%TO.N,Net-(MSX1-Pad4)*%
X131445000Y-79375000D03*
%TO.P,U2,4*%
%TO.N,Net-(MSX1-Pad6)*%
X131445000Y-81915000D03*
%TO.P,U2,5*%
%TO.N,Net-(U2-Pad5)*%
X131445000Y-84455000D03*
%TO.P,U2,6*%
X131445000Y-86995000D03*
%TO.P,U2,7*%
%TO.N,XSTEP*%
X131445000Y-89535000D03*
%TO.P,U2,8*%
%TO.N,XDIR*%
X131445000Y-92075000D03*
%TO.P,U2,9*%
%TO.N,GND*%
X144145000Y-92075000D03*
%TO.P,U2,10*%
%TO.N,+5V*%
X144145000Y-89535000D03*
%TO.P,U2,11*%
%TO.N,x1B*%
X144145000Y-86995000D03*
%TO.P,U2,12*%
%TO.N,x1A*%
X144145000Y-84455000D03*
%TO.P,U2,13*%
%TO.N,x2A*%
X144145000Y-81915000D03*
%TO.P,U2,14*%
%TO.N,x2B*%
X144145000Y-79375000D03*
%TO.P,U2,15*%
%TO.N,GNDA*%
X144145000Y-76835000D03*
%TO.P,U2,16*%
%TO.N,VIN*%
X144145000Y-74295000D03*
%TD*%
%TO.P,U4,1*%
%TO.N,EN*%
X131445000Y-94615000D03*
%TO.P,U4,2*%
%TO.N,Net-(MSZ1-Pad2)*%
X131445000Y-97155000D03*
%TO.P,U4,3*%
%TO.N,Net-(MSZ1-Pad4)*%
X131445000Y-99695000D03*
%TO.P,U4,4*%
%TO.N,Net-(MSZ1-Pad6)*%
X131445000Y-102235000D03*
%TO.P,U4,5*%
%TO.N,Net-(U4-Pad5)*%
X131445000Y-104775000D03*
%TO.P,U4,6*%
X131445000Y-107315000D03*
%TO.P,U4,7*%
%TO.N,ZSTEP*%
X131445000Y-109855000D03*
%TO.P,U4,8*%
%TO.N,ZDIR*%
X131445000Y-112395000D03*
%TO.P,U4,9*%
%TO.N,GND*%
X144145000Y-112395000D03*
%TO.P,U4,10*%
%TO.N,+5V*%
X144145000Y-109855000D03*
%TO.P,U4,11*%
%TO.N,z1B*%
X144145000Y-107315000D03*
%TO.P,U4,12*%
%TO.N,z1A*%
X144145000Y-104775000D03*
%TO.P,U4,13*%
%TO.N,z2A*%
X144145000Y-102235000D03*
%TO.P,U4,14*%
%TO.N,z2B*%
X144145000Y-99695000D03*
%TO.P,U4,15*%
%TO.N,GNDA*%
X144145000Y-97155000D03*
%TO.P,U4,16*%
%TO.N,VIN*%
X144145000Y-94615000D03*
%TD*%
%TO.P,U5,1*%
%TO.N,EN*%
X147879000Y-94691200D03*
%TO.P,U5,2*%
%TO.N,Net-(MSA1-Pad2)*%
X147879000Y-97231200D03*
%TO.P,U5,3*%
%TO.N,Net-(MSA1-Pad4)*%
X147879000Y-99771200D03*
%TO.P,U5,4*%
%TO.N,Net-(MSA1-Pad6)*%
X147879000Y-102311200D03*
%TO.P,U5,5*%
%TO.N,Net-(U5-Pad5)*%
X147879000Y-104851200D03*
%TO.P,U5,6*%
X147879000Y-107391200D03*
%TO.P,U5,7*%
%TO.N,SPIN_EN*%
X147879000Y-109931200D03*
%TO.P,U5,8*%
%TO.N,SPIN_DIR*%
X147879000Y-112471200D03*
%TO.P,U5,9*%
%TO.N,GND*%
X160579000Y-112471200D03*
%TO.P,U5,10*%
%TO.N,+5V*%
X160579000Y-109931200D03*
%TO.P,U5,11*%
%TO.N,a1B*%
X160579000Y-107391200D03*
%TO.P,U5,12*%
%TO.N,a1A*%
X160579000Y-104851200D03*
%TO.P,U5,13*%
%TO.N,a2A*%
X160579000Y-102311200D03*
%TO.P,U5,14*%
%TO.N,a2B*%
X160579000Y-99771200D03*
%TO.P,U5,15*%
%TO.N,GNDA*%
X160579000Y-97231200D03*
%TO.P,U5,16*%
%TO.N,VIN*%
X160579000Y-94691200D03*
%TD*%
%TO.P,U3,1*%
%TO.N,EN*%
X147803000Y-74371200D03*
%TO.P,U3,2*%
%TO.N,Net-(MSY1-Pad2)*%
X147803000Y-76911200D03*
%TO.P,U3,3*%
%TO.N,Net-(MSY1-Pad4)*%
X147803000Y-79451200D03*
%TO.P,U3,4*%
%TO.N,Net-(MSY1-Pad6)*%
X147803000Y-81991200D03*
%TO.P,U3,5*%
%TO.N,Net-(U3-Pad5)*%
X147803000Y-84531200D03*
%TO.P,U3,6*%
X147803000Y-87071200D03*
%TO.P,U3,7*%
%TO.N,YSTEP*%
X147803000Y-89611200D03*
%TO.P,U3,8*%
%TO.N,YDIR*%
X147803000Y-92151200D03*
%TO.P,U3,9*%
%TO.N,GND*%
X160503000Y-92151200D03*
%TO.P,U3,10*%
%TO.N,+5V*%
X160503000Y-89611200D03*
%TO.P,U3,11*%
%TO.N,y1B*%
X160503000Y-87071200D03*
%TO.P,U3,12*%
%TO.N,y1A*%
X160503000Y-84531200D03*
%TO.P,U3,13*%
%TO.N,y2A*%
X160503000Y-81991200D03*
%TO.P,U3,14*%
%TO.N,y2B*%
X160503000Y-79451200D03*
%TO.P,U3,15*%
%TO.N,GNDA*%
X160503000Y-76911200D03*
%TO.P,U3,16*%
%TO.N,VIN*%
X160503000Y-74371200D03*
%TD*%
D14*
%TO.P,R1,1*%
%TO.N,Net-(MSX1-Pad2)*%
X133985000Y-75880000D03*
%TO.P,R1,2*%
%TO.N,GND*%
X133985000Y-73980000D03*
%TD*%
%TO.P,R2,1*%
%TO.N,Net-(MSY1-Pad2)*%
X150343000Y-75956200D03*
%TO.P,R2,2*%
%TO.N,GND*%
X150343000Y-74056200D03*
%TD*%
%TO.P,R3,1*%
%TO.N,Net-(MSZ1-Pad2)*%
X133985000Y-96200000D03*
%TO.P,R3,2*%
%TO.N,GND*%
X133985000Y-94300000D03*
%TD*%
%TO.P,R4,1*%
%TO.N,Net-(MSA1-Pad2)*%
X150419000Y-96276200D03*
%TO.P,R4,2*%
%TO.N,GND*%
X150419000Y-94376200D03*
%TD*%
D15*
%TO.P,R5,1*%
%TO.N,+5V*%
X142555000Y-116891000D03*
%TO.P,R5,2*%
%TO.N,EN*%
X140655000Y-116891000D03*
%TD*%
D16*
%TO.P,C1,1*%
%TO.N,VIN*%
X137368000Y-74046100D03*
%TO.P,C1,2*%
%TO.N,GNDA*%
X139368000Y-74046100D03*
%TD*%
%TO.P,C2,2*%
%TO.N,GNDA*%
X156122000Y-74117200D03*
%TO.P,C2,1*%
%TO.N,VIN*%
X154122000Y-74117200D03*
%TD*%
%TO.P,C3,1*%
%TO.N,VIN*%
X137464000Y-95844400D03*
%TO.P,C3,2*%
%TO.N,GNDA*%
X139464000Y-95844400D03*
%TD*%
%TO.P,C4,2*%
%TO.N,GNDA*%
X155766000Y-95844400D03*
%TO.P,C4,1*%
%TO.N,VIN*%
X153766000Y-95844400D03*
%TD*%
D17*
%TO.P,P10,1*%
%TO.N,VIN*%
X154102000Y-47879000D03*
D18*
%TO.P,P10,2*%
%TO.N,VIN_*%
X154102000Y-45339000D03*
%TD*%
D19*
%TO.P,Q0,1*%
%TO.N,/D*%
X173380000Y-58267600D03*
D20*
%TO.P,Q0,2*%
%TO.N,/G*%
X173380000Y-55727600D03*
%TO.P,Q0,3*%
%TO.N,GND*%
X173380000Y-53187600D03*
%TD*%
%TO.P,R6,2*%
%TO.N,GND*%
%TA.AperFunction,SMDPad,CuDef*%
G36*
G01*
X169462000Y-48386050D02*
X169462000Y-47473550D01*
G75*
G02*
X169705750Y-47229800I243750J0D01*
G01*
X170193250Y-47229800D01*
G75*
G02*
X170437000Y-47473550I0J-243750D01*
G01*
X170437000Y-48386050D01*
G75*
G02*
X170193250Y-48629800I-243750J0D01*
G01*
X169705750Y-48629800D01*
G75*
G02*
X169462000Y-48386050I0J243750D01*
G01*
G37*
%TD.AperFunction*%
%TO.P,R6,1*%
%TO.N,/G*%
%TA.AperFunction,SMDPad,CuDef*%
G36*
G01*
X167587000Y-48386050D02*
X167587000Y-47473550D01*
G75*
G02*
X167830750Y-47229800I243750J0D01*
G01*
X168318250Y-47229800D01*
G75*
G02*
X168562000Y-47473550I0J-243750D01*
G01*
X168562000Y-48386050D01*
G75*
G02*
X168318250Y-48629800I-243750J0D01*
G01*
X167830750Y-48629800D01*
G75*
G02*
X167587000Y-48386050I0J243750D01*
G01*
G37*
%TD.AperFunction*%
%TD*%
%TO.P,R7,1*%
%TO.N,SDA*%
%TA.AperFunction,SMDPad,CuDef*%
G36*
G01*
X162938000Y-48386050D02*
X162938000Y-47473550D01*
G75*
G02*
X163181750Y-47229800I243750J0D01*
G01*
X163669250Y-47229800D01*
G75*
G02*
X163913000Y-47473550I0J-243750D01*
G01*
X163913000Y-48386050D01*
G75*
G02*
X163669250Y-48629800I-243750J0D01*
G01*
X163181750Y-48629800D01*
G75*
G02*
X162938000Y-48386050I0J243750D01*
G01*
G37*
%TD.AperFunction*%
%TO.P,R7,2*%
%TO.N,/G*%
%TA.AperFunction,SMDPad,CuDef*%
G36*
G01*
X164813000Y-48386050D02*
X164813000Y-47473550D01*
G75*
G02*
X165056750Y-47229800I243750J0D01*
G01*
X165544250Y-47229800D01*
G75*
G02*
X165788000Y-47473550I0J-243750D01*
G01*
X165788000Y-48386050D01*
G75*
G02*
X165544250Y-48629800I-243750J0D01*
G01*
X165056750Y-48629800D01*
G75*
G02*
X164813000Y-48386050I0J243750D01*
G01*
G37*
%TD.AperFunction*%
%TD*%
%TO.P,l_pwr1,1*%
%TO.N,GND*%
%TA.AperFunction,ComponentPad*%
G36*
G01*
X177940400Y-50634000D02*
X176440400Y-50634000D01*
G75*
G02*
X176190400Y-50384000I0J250000D01*
G01*
X176190400Y-49184000D01*
G75*
G02*
X176440400Y-48934000I250000J0D01*
G01*
X177940400Y-48934000D01*
G75*
G02*
X178190400Y-49184000I0J-250000D01*
G01*
X178190400Y-50384000D01*
G75*
G02*
X177940400Y-50634000I-250000J0D01*
G01*
G37*
%TD.AperFunction*%
D10*
%TO.P,l_pwr1,2*%
%TO.N,VIN*%
X177190400Y-47284000D03*
%TD*%
D21*
%TO.P,Pump1,2*%
%TO.N,/D*%
X177150000Y-63525400D03*
%TO.P,Pump1,1*%
%TO.N,VIN*%
%TA.AperFunction,ComponentPad*%
G36*
G01*
X173800000Y-64275400D02*
X173800000Y-62775400D01*
G75*
G02*
X174050000Y-62525400I250000J0D01*
G01*
X175250000Y-62525400D01*
G75*
G02*
X175500000Y-62775400I0J-250000D01*
G01*
X175500000Y-64275400D01*
G75*
G02*
X175250000Y-64525400I-250000J0D01*
G01*
X174050000Y-64525400D01*
G75*
G02*
X173800000Y-64275400I0J250000D01*
G01*
G37*
%TD.AperFunction*%
%TD*%
D17*
%TO.P,conn26_1,1*%
%TO.N,+5V*%
X166030000Y-82651600D03*
D18*
%TO.P,conn26_1,2*%
%TO.N,GND*%
X168570000Y-82651600D03*
%TO.P,conn26_1,3*%
%TO.N,_SCL_*%
X166030000Y-85191600D03*
%TO.P,conn26_1,4*%
%TO.N,_SDA_*%
X168570000Y-85191600D03*
%TO.P,conn26_1,5*%
%TO.N,+5V*%
X166030000Y-87731600D03*
%TO.P,conn26_1,6*%
%TO.N,DC*%
X168570000Y-87731600D03*
%TO.P,conn26_1,7*%
%TO.N,res*%
X166030000Y-90271600D03*
%TO.P,conn26_1,8*%
%TO.N,GND*%
X168570000Y-90271600D03*
%TO.P,conn26_1,9*%
%TO.N,y2B*%
X166030000Y-92811600D03*
%TO.P,conn26_1,10*%
%TO.N,x2B*%
X168570000Y-92811600D03*
%TO.P,conn26_1,11*%
%TO.N,y2A*%
X166030000Y-95351600D03*
%TO.P,conn26_1,12*%
%TO.N,x2A*%
X168570000Y-95351600D03*
%TO.P,conn26_1,13*%
%TO.N,y1A*%
X166030000Y-97891600D03*
%TO.P,conn26_1,14*%
%TO.N,x1A*%
X168570000Y-97891600D03*
%TO.P,conn26_1,15*%
%TO.N,y1B*%
X166030000Y-100431600D03*
%TO.P,conn26_1,16*%
%TO.N,x1B*%
X168570000Y-100431600D03*
%TO.P,conn26_1,17*%
%TO.N,a2B*%
X166030000Y-102971600D03*
%TO.P,conn26_1,18*%
%TO.N,z2B*%
X168570000Y-102971600D03*
%TO.P,conn26_1,19*%
%TO.N,a2A*%
X166030000Y-105511600D03*
%TO.P,conn26_1,20*%
%TO.N,z2A*%
X168570000Y-105511600D03*
%TO.P,conn26_1,21*%
%TO.N,a1A*%
X166030000Y-108051600D03*
%TO.P,conn26_1,22*%
%TO.N,z1A*%
X168570000Y-108051600D03*
%TO.P,conn26_1,23*%
%TO.N,a1B*%
X166030000Y-110591600D03*
%TO.P,conn26_1,24*%
%TO.N,z1A*%
X168570000Y-110591600D03*
%TO.P,conn26_1,25*%
%TO.N,Net-(conn26_1-Pad25)*%
X166030000Y-113131600D03*
%TO.P,conn26_1,26*%
%TO.N,Net-(conn26_1-Pad26)*%
X168570000Y-113131600D03*
%TD*%
D17*
%TO.P,conn26_0,1*%
%TO.N,ZLIMIT*%
X175743000Y-82651600D03*
D18*
%TO.P,conn26_0,2*%
%TO.N,GND*%
X178283000Y-82651600D03*
%TO.P,conn26_0,3*%
%TO.N,ZLIMIT*%
X175743000Y-85191600D03*
%TO.P,conn26_0,4*%
%TO.N,GND*%
X178283000Y-85191600D03*
%TO.P,conn26_0,5*%
%TO.N,YLIMIT*%
X175743000Y-87731600D03*
%TO.P,conn26_0,6*%
%TO.N,GND*%
X178283000Y-87731600D03*
%TO.P,conn26_0,7*%
%TO.N,YLIMIT*%
X175743000Y-90271600D03*
%TO.P,conn26_0,8*%
%TO.N,GND*%
X178283000Y-90271600D03*
%TO.P,conn26_0,9*%
%TO.N,XLIMIT*%
X175743000Y-92811600D03*
%TO.P,conn26_0,10*%
%TO.N,GND*%
X178283000Y-92811600D03*
%TO.P,conn26_0,11*%
%TO.N,XLIMIT*%
X175743000Y-95351600D03*
%TO.P,conn26_0,12*%
%TO.N,GND*%
X178283000Y-95351600D03*
%TO.P,conn26_0,13*%
%TO.N,SPIN_EN*%
X175743000Y-97891600D03*
%TO.P,conn26_0,14*%
%TO.N,GND*%
X178283000Y-97891600D03*
%TO.P,conn26_0,15*%
%TO.N,SPIN_DIR*%
X175743000Y-100431600D03*
%TO.P,conn26_0,16*%
%TO.N,GND*%
X178283000Y-100431600D03*
%TO.P,conn26_0,17*%
%TO.N,laser_cmd*%
X175743000Y-102971600D03*
%TO.P,conn26_0,18*%
%TO.N,GND*%
X178283000Y-102971600D03*
%TO.P,conn26_0,19*%
%TO.N,O_led*%
X175743000Y-105511600D03*
%TO.P,conn26_0,20*%
%TO.N,GND*%
X178283000Y-105511600D03*
%TO.P,conn26_0,21*%
%TO.N,O_sig*%
X175743000Y-108051600D03*
%TO.P,conn26_0,22*%
%TO.N,GND*%
X178283000Y-108051600D03*
%TO.P,conn26_0,23*%
%TO.N,B_led*%
X175743000Y-110591600D03*
%TO.P,conn26_0,24*%
%TO.N,GND*%
X178283000Y-110591600D03*
%TO.P,conn26_0,25*%
%TO.N,RESET*%
X175743000Y-113131600D03*
%TO.P,conn26_0,26*%
%TO.N,GND*%
X178283000Y-113131600D03*
%TD*%
D17*
%TO.P,MSA1,1*%
%TO.N,+5V*%
X151613000Y-111709000D03*
D18*
%TO.P,MSA1,2*%
%TO.N,Net-(MSA1-Pad2)*%
X151613000Y-109169000D03*
%TO.P,MSA1,3*%
%TO.N,+5V*%
X154153000Y-111709000D03*
%TO.P,MSA1,4*%
%TO.N,Net-(MSA1-Pad4)*%
X154153000Y-109169000D03*
%TO.P,MSA1,5*%
%TO.N,+5V*%
X156693000Y-111709000D03*
%TO.P,MSA1,6*%
%TO.N,Net-(MSA1-Pad6)*%
X156693000Y-109169000D03*
%TD*%
D17*
%TO.P,MSY1,1*%
%TO.N,+5V*%
X151968000Y-91211400D03*
D18*
%TO.P,MSY1,2*%
%TO.N,Net-(MSY1-Pad2)*%
X151968000Y-88671400D03*
%TO.P,MSY1,3*%
%TO.N,+5V*%
X154508000Y-91211400D03*
%TO.P,MSY1,4*%
%TO.N,Net-(MSY1-Pad4)*%
X154508000Y-88671400D03*
%TO.P,MSY1,5*%
%TO.N,+5V*%
X157048000Y-91211400D03*
%TO.P,MSY1,6*%
%TO.N,Net-(MSY1-Pad6)*%
X157048000Y-88671400D03*
%TD*%
%TO.P,MSZ1,6*%
%TO.N,Net-(MSZ1-Pad6)*%
X140335000Y-109195000D03*
%TO.P,MSZ1,5*%
%TO.N,+5V*%
X140335000Y-111735000D03*
%TO.P,MSZ1,4*%
%TO.N,Net-(MSZ1-Pad4)*%
X137795000Y-109195000D03*
%TO.P,MSZ1,3*%
%TO.N,+5V*%
X137795000Y-111735000D03*
%TO.P,MSZ1,2*%
%TO.N,Net-(MSZ1-Pad2)*%
X135255000Y-109195000D03*
D17*
%TO.P,MSZ1,1*%
%TO.N,+5V*%
X135255000Y-111735000D03*
%TD*%
%TO.P,MSX1,1*%
%TO.N,+5V*%
X135357000Y-91211400D03*
D18*
%TO.P,MSX1,2*%
%TO.N,Net-(MSX1-Pad2)*%
X135357000Y-88671400D03*
%TO.P,MSX1,3*%
%TO.N,+5V*%
X137897000Y-91211400D03*
%TO.P,MSX1,4*%
%TO.N,Net-(MSX1-Pad4)*%
X137897000Y-88671400D03*
%TO.P,MSX1,5*%
%TO.N,+5V*%
X140437000Y-91211400D03*
%TO.P,MSX1,6*%
%TO.N,Net-(MSX1-Pad6)*%
X140437000Y-88671400D03*
%TD*%
D22*
%TO.P,MP1584EN_DC-DC1,8*%
%TO.N,GND*%
X143035800Y-47384200D03*
%TO.P,MP1584EN_DC-DC1,7*%
X143035800Y-49924200D03*
%TO.P,MP1584EN_DC-DC1,6*%
%TO.N,5V_pi*%
X143035800Y-57924200D03*
%TO.P,MP1584EN_DC-DC1,5*%
X143035800Y-60464200D03*
%TO.P,MP1584EN_DC-DC1,4*%
%TO.N,VIN*%
X125035800Y-57924200D03*
%TO.P,MP1584EN_DC-DC1,3*%
X125035800Y-60464200D03*
%TO.P,MP1584EN_DC-DC1,2*%
%TO.N,GND*%
X125035800Y-49924200D03*
%TO.P,MP1584EN_DC-DC1,1*%
X125035800Y-47384200D03*
%TD*%
D23*
%TO.N,GND*%
X143687600Y-51714200D03*
%TO.N,ZSTEP*%
X164514800Y-82055400D03*
%TO.N,ZDIR*%
X145138200Y-67535000D03*
%TO.N,SDA*%
X163425500Y-52551200D03*
%TO.N,VIN_*%
X128168300Y-111430000D03*
%TO.N,x2B*%
X171444000Y-82573400D03*
%TO.N,x1A*%
X165020400Y-79564200D03*
%TO.N,x1B*%
X168213000Y-81031800D03*
%TD*%
D24*
%TO.N,+5V*%
X140335000Y-111735000D02*
X140335000Y-113135300D01*
X142555000Y-116891000D02*
X141654700Y-116891000D01*
X140335000Y-113135300D02*
X141654700Y-114455000D01*
X141654700Y-114455000D02*
X141654700Y-116891000D01*
%TO.N,GND*%
X133985000Y-73980000D02*
X133985000Y-73079700D01*
X133985000Y-73079700D02*
X130094900Y-69189600D01*
X130094900Y-69189600D02*
X123848000Y-69189600D01*
X133985000Y-73980000D02*
X135214000Y-73980000D01*
X140274000Y-68920000D02*
X144315000Y-72961000D01*
X144315000Y-72961000D02*
X150148100Y-72961000D01*
X150148100Y-72961000D02*
X150343000Y-73155900D01*
X150343000Y-74056200D02*
X150343000Y-73155900D01*
X135214000Y-73980000D02*
X140274000Y-68920000D01*
X135214000Y-73980000D02*
X135214000Y-82025700D01*
X135214000Y-82025700D02*
X133927900Y-83311800D01*
X133927900Y-83311800D02*
X133927900Y-93342600D01*
X133927900Y-93342600D02*
X133985000Y-93399700D01*
X133985000Y-93849800D02*
X142370200Y-93849800D01*
X142370200Y-93849800D02*
X144145000Y-92075000D01*
X133985000Y-93849800D02*
X133985000Y-93399700D01*
X133985000Y-94300000D02*
X133985000Y-93849800D01*
X173380000Y-53187600D02*
X173380000Y-51684800D01*
X173380000Y-51684800D02*
X169949500Y-48254300D01*
X169949500Y-48254300D02*
X169949500Y-47929800D01*
X158278000Y-94376200D02*
X160503000Y-92151200D01*
X150419000Y-94376200D02*
X158278000Y-94376200D01*
X158278000Y-94376200D02*
X158278000Y-110170200D01*
X158278000Y-110170200D02*
X160579000Y-112471200D01*
D25*
%TO.N,EN*%
X140655000Y-116891000D02*
X139979700Y-116891000D01*
X139979700Y-116891000D02*
X139159600Y-116070900D01*
X139159600Y-116070900D02*
X139159600Y-111209400D01*
X139159600Y-111209400D02*
X139904000Y-110465000D01*
X139904000Y-110465000D02*
X140796900Y-110465000D01*
X140796900Y-110465000D02*
X142857100Y-108404800D01*
X142857100Y-108404800D02*
X142857100Y-104466400D01*
X142857100Y-104466400D02*
X143818500Y-103505000D01*
X143818500Y-103505000D02*
X144407600Y-103505000D01*
X144407600Y-103505000D02*
X146542600Y-101370000D01*
X146542600Y-101370000D02*
X146542600Y-96027600D01*
X146542600Y-96027600D02*
X147879000Y-94691200D01*
D24*
%TO.N,VIN*%
X160503000Y-74371200D02*
X161813600Y-75681800D01*
X161813600Y-75681800D02*
X161813600Y-93456600D01*
X161813600Y-93456600D02*
X160579000Y-94691200D01*
X144145000Y-74295000D02*
X142515600Y-72665600D01*
X142515600Y-72665600D02*
X138748500Y-72665600D01*
X138748500Y-72665600D02*
X137368000Y-74046100D01*
D25*
%TO.N,YDIR*%
X147803000Y-92151200D02*
X149997300Y-89956900D01*
X149997300Y-89956900D02*
X149997300Y-82381700D01*
X149997300Y-82381700D02*
X162118000Y-70261000D01*
X162118000Y-70261000D02*
X162118000Y-68920000D01*
%TO.N,SDA*%
X163425500Y-47929800D02*
X163425500Y-52551200D01*
D24*
%TO.N,GNDA*%
X144145000Y-76835000D02*
X145466500Y-78156500D01*
X145466500Y-78156500D02*
X145466500Y-95833500D01*
X145466500Y-95833500D02*
X144145000Y-97155000D01*
D25*
%TO.N,DC*%
X168570000Y-87731600D02*
X168570000Y-86556300D01*
X168570000Y-86556300D02*
X168202600Y-86556300D01*
X168202600Y-86556300D02*
X167394700Y-85748400D01*
X167394700Y-85748400D02*
X167394700Y-78883300D01*
X167394700Y-78883300D02*
X177358000Y-68920000D01*
%TO.N,/G*%
X168074500Y-47929800D02*
X168074500Y-50422100D01*
X168074500Y-50422100D02*
X173380000Y-55727600D01*
X168074500Y-47929800D02*
X165300500Y-47929800D01*
D26*
%TO.N,5V_pi*%
X120040000Y-47233200D02*
X122286400Y-47233200D01*
X122286400Y-47233200D02*
X124231400Y-45288200D01*
X124231400Y-45288200D02*
X129057400Y-45288200D01*
X129057400Y-45288200D02*
X132689600Y-48920400D01*
X133905000Y-48920400D02*
X142582600Y-57598000D01*
X132689600Y-48920400D02*
X133905000Y-48920400D01*
D24*
X143086600Y-60214200D02*
X143086600Y-57674200D01*
D26*
%TO.N,x1B*%
X168570000Y-100431600D02*
X169913400Y-99088200D01*
X169913400Y-99088200D02*
X169913400Y-82124300D01*
X169913400Y-82124300D02*
X168820900Y-81031800D01*
X168820900Y-81031800D02*
X168213000Y-81031800D01*
D25*
%TO.N,Net-(MSA1-Pad2)*%
X150419000Y-96276200D02*
X148834000Y-96276200D01*
X148834000Y-96276200D02*
X147879000Y-97231200D01*
%TO.N,Net-(MSX1-Pad2)*%
X133985000Y-75880000D02*
X132400000Y-75880000D01*
X132400000Y-75880000D02*
X131445000Y-76835000D01*
%TO.N,Net-(MSY1-Pad2)*%
X150343000Y-75956200D02*
X148758000Y-75956200D01*
X148758000Y-75956200D02*
X147803000Y-76911200D01*
%TO.N,Net-(MSZ1-Pad2)*%
X133985000Y-96200000D02*
X132400000Y-96200000D01*
X132400000Y-96200000D02*
X131445000Y-97155000D01*
%TD*%
D27*
G36*
X174428249Y-43761442D02*
G01*
X174534109Y-52042112D01*
X174365000Y-51903327D01*
X174365000Y-51733180D01*
X174369765Y-51684800D01*
X174350747Y-51491706D01*
X174294424Y-51306033D01*
X174202960Y-51134916D01*
X174110710Y-51022509D01*
X174079870Y-50984930D01*
X174042290Y-50954089D01*
X171075072Y-47986872D01*
X171075072Y-47473550D01*
X171058128Y-47301515D01*
X171007947Y-47136091D01*
X170926458Y-46983636D01*
X170816792Y-46850008D01*
X170683164Y-46740342D01*
X170530709Y-46658853D01*
X170365285Y-46608672D01*
X170193250Y-46591728D01*
X169705750Y-46591728D01*
X169533715Y-46608672D01*
X169368291Y-46658853D01*
X169215836Y-46740342D01*
X169082208Y-46850008D01*
X169012000Y-46935556D01*
X168941792Y-46850008D01*
X168808164Y-46740342D01*
X168655709Y-46658853D01*
X168490285Y-46608672D01*
X168318250Y-46591728D01*
X167830750Y-46591728D01*
X167658715Y-46608672D01*
X167493291Y-46658853D01*
X167340836Y-46740342D01*
X167207208Y-46850008D01*
X167097542Y-46983636D01*
X167016053Y-47136091D01*
X167005827Y-47169800D01*
X166369173Y-47169800D01*
X166358947Y-47136091D01*
X166277458Y-46983636D01*
X166167792Y-46850008D01*
X166034164Y-46740342D01*
X165881709Y-46658853D01*
X165716285Y-46608672D01*
X165544250Y-46591728D01*
X165056750Y-46591728D01*
X164884715Y-46608672D01*
X164719291Y-46658853D01*
X164566836Y-46740342D01*
X164433208Y-46850008D01*
X164363000Y-46935556D01*
X164292792Y-46850008D01*
X164159164Y-46740342D01*
X164006709Y-46658853D01*
X163841285Y-46608672D01*
X163669250Y-46591728D01*
X163181750Y-46591728D01*
X163009715Y-46608672D01*
X162844291Y-46658853D01*
X162691836Y-46740342D01*
X162558208Y-46850008D01*
X162448542Y-46983636D01*
X162367053Y-47136091D01*
X162316872Y-47301515D01*
X162299928Y-47473550D01*
X162299928Y-48386050D01*
X162316872Y-48558085D01*
X162367053Y-48723509D01*
X162448542Y-48875964D01*
X162558208Y-49009592D01*
X162665500Y-49097645D01*
X162665501Y-52005663D01*
X162596914Y-52108311D01*
X162526432Y-52278471D01*
X162490500Y-52459111D01*
X162490500Y-52643289D01*
X162526432Y-52823929D01*
X162596914Y-52994089D01*
X162699238Y-53147228D01*
X162829472Y-53277462D01*
X162982611Y-53379786D01*
X163152771Y-53450268D01*
X163333411Y-53486200D01*
X163517589Y-53486200D01*
X163698229Y-53450268D01*
X163868389Y-53379786D01*
X164021528Y-53277462D01*
X164151762Y-53147228D01*
X164254086Y-52994089D01*
X164324568Y-52823929D01*
X164360500Y-52643289D01*
X164360500Y-52459111D01*
X164324568Y-52278471D01*
X164254086Y-52108311D01*
X164185500Y-52005665D01*
X164185500Y-49097645D01*
X164292792Y-49009592D01*
X164363000Y-48924044D01*
X164433208Y-49009592D01*
X164566836Y-49119258D01*
X164719291Y-49200747D01*
X164884715Y-49250928D01*
X165056750Y-49267872D01*
X165544250Y-49267872D01*
X165716285Y-49250928D01*
X165881709Y-49200747D01*
X166034164Y-49119258D01*
X166167792Y-49009592D01*
X166277458Y-48875964D01*
X166358947Y-48723509D01*
X166369173Y-48689800D01*
X167005827Y-48689800D01*
X167016053Y-48723509D01*
X167097542Y-48875964D01*
X167207208Y-49009592D01*
X167314500Y-49097645D01*
X167314501Y-50384768D01*
X167310824Y-50422100D01*
X167325498Y-50571085D01*
X167368954Y-50714346D01*
X167439526Y-50846376D01*
X167510701Y-50933102D01*
X167534500Y-50962101D01*
X167563498Y-50985899D01*
X171820576Y-55242978D01*
X171767970Y-55416396D01*
X171737319Y-55727600D01*
X171767970Y-56038804D01*
X171858745Y-56338049D01*
X172006155Y-56613835D01*
X172109446Y-56739695D01*
X172025506Y-56784563D01*
X171928815Y-56863915D01*
X171849463Y-56960606D01*
X171790498Y-57070920D01*
X171754188Y-57190618D01*
X171741928Y-57315100D01*
X171741928Y-59220100D01*
X171754188Y-59344582D01*
X171790498Y-59464280D01*
X171849463Y-59574594D01*
X171928815Y-59671285D01*
X172025506Y-59750637D01*
X172135820Y-59809602D01*
X172255518Y-59845912D01*
X172380000Y-59858172D01*
X174380000Y-59858172D01*
X174504482Y-59845912D01*
X174624180Y-59809602D01*
X174633347Y-59804702D01*
X174648734Y-61008318D01*
X170792026Y-60934623D01*
X170767208Y-60936590D01*
X170743250Y-60943360D01*
X170721073Y-60954675D01*
X170701529Y-60970098D01*
X170685371Y-60989038D01*
X170673217Y-61010766D01*
X170665536Y-61034448D01*
X170662630Y-61064372D01*
X170786825Y-66752491D01*
X150725841Y-66953101D01*
X150825181Y-61216199D01*
X150825199Y-61214358D01*
X150841316Y-55492698D01*
X154335000Y-55492698D01*
X154335000Y-55962502D01*
X154426654Y-56423279D01*
X154606440Y-56857321D01*
X154867450Y-57247949D01*
X155199651Y-57580150D01*
X155590279Y-57841160D01*
X156024321Y-58020946D01*
X156485098Y-58112600D01*
X156954902Y-58112600D01*
X157415679Y-58020946D01*
X157849721Y-57841160D01*
X158240349Y-57580150D01*
X158572550Y-57247949D01*
X158833560Y-56857321D01*
X159013346Y-56423279D01*
X159105000Y-55962502D01*
X159105000Y-55492698D01*
X159013346Y-55031921D01*
X158833560Y-54597879D01*
X158572550Y-54207251D01*
X158240349Y-53875050D01*
X157849721Y-53614040D01*
X157415679Y-53434254D01*
X156954902Y-53342600D01*
X156485098Y-53342600D01*
X156024321Y-53434254D01*
X155590279Y-53614040D01*
X155199651Y-53875050D01*
X154867450Y-54207251D01*
X154606440Y-54597879D01*
X154426654Y-55031921D01*
X154335000Y-55492698D01*
X150841316Y-55492698D01*
X150865157Y-47029000D01*
X152613928Y-47029000D01*
X152613928Y-48729000D01*
X152626188Y-48853482D01*
X152662498Y-48973180D01*
X152721463Y-49083494D01*
X152800815Y-49180185D01*
X152897506Y-49259537D01*
X153007820Y-49318502D01*
X153127518Y-49354812D01*
X153252000Y-49367072D01*
X154952000Y-49367072D01*
X155076482Y-49354812D01*
X155196180Y-49318502D01*
X155306494Y-49259537D01*
X155403185Y-49180185D01*
X155482537Y-49083494D01*
X155541502Y-48973180D01*
X155577812Y-48853482D01*
X155590072Y-48729000D01*
X155590072Y-47029000D01*
X155577812Y-46904518D01*
X155541502Y-46784820D01*
X155482537Y-46674506D01*
X155403185Y-46577815D01*
X155306494Y-46498463D01*
X155196180Y-46439498D01*
X155123620Y-46417487D01*
X155255475Y-46285632D01*
X155417990Y-46042411D01*
X155529932Y-45772158D01*
X155587000Y-45485260D01*
X155587000Y-45192740D01*
X155529932Y-44905842D01*
X155417990Y-44635589D01*
X155255475Y-44392368D01*
X155048632Y-44185525D01*
X154805411Y-44023010D01*
X154535158Y-43911068D01*
X154248260Y-43854000D01*
X153955740Y-43854000D01*
X153668842Y-43911068D01*
X153398589Y-44023010D01*
X153155368Y-44185525D01*
X152948525Y-44392368D01*
X152786010Y-44635589D01*
X152674068Y-44905842D01*
X152617000Y-45192740D01*
X152617000Y-45485260D01*
X152674068Y-45772158D01*
X152786010Y-46042411D01*
X152948525Y-46285632D01*
X153080380Y-46417487D01*
X153007820Y-46439498D01*
X152897506Y-46498463D01*
X152800815Y-46577815D01*
X152721463Y-46674506D01*
X152662498Y-46784820D01*
X152626188Y-46904518D01*
X152613928Y-47029000D01*
X150865157Y-47029000D01*
X150874388Y-43752259D01*
X174428249Y-43761442D01*
G37*
X174428249Y-43761442D02*
X174534109Y-52042112D01*
X174365000Y-51903327D01*
X174365000Y-51733180D01*
X174369765Y-51684800D01*
X174350747Y-51491706D01*
X174294424Y-51306033D01*
X174202960Y-51134916D01*
X174110710Y-51022509D01*
X174079870Y-50984930D01*
X174042290Y-50954089D01*
X171075072Y-47986872D01*
X171075072Y-47473550D01*
X171058128Y-47301515D01*
X171007947Y-47136091D01*
X170926458Y-46983636D01*
X170816792Y-46850008D01*
X170683164Y-46740342D01*
X170530709Y-46658853D01*
X170365285Y-46608672D01*
X170193250Y-46591728D01*
X169705750Y-46591728D01*
X169533715Y-46608672D01*
X169368291Y-46658853D01*
X169215836Y-46740342D01*
X169082208Y-46850008D01*
X169012000Y-46935556D01*
X168941792Y-46850008D01*
X168808164Y-46740342D01*
X168655709Y-46658853D01*
X168490285Y-46608672D01*
X168318250Y-46591728D01*
X167830750Y-46591728D01*
X167658715Y-46608672D01*
X167493291Y-46658853D01*
X167340836Y-46740342D01*
X167207208Y-46850008D01*
X167097542Y-46983636D01*
X167016053Y-47136091D01*
X167005827Y-47169800D01*
X166369173Y-47169800D01*
X166358947Y-47136091D01*
X166277458Y-46983636D01*
X166167792Y-46850008D01*
X166034164Y-46740342D01*
X165881709Y-46658853D01*
X165716285Y-46608672D01*
X165544250Y-46591728D01*
X165056750Y-46591728D01*
X164884715Y-46608672D01*
X164719291Y-46658853D01*
X164566836Y-46740342D01*
X164433208Y-46850008D01*
X164363000Y-46935556D01*
X164292792Y-46850008D01*
X164159164Y-46740342D01*
X164006709Y-46658853D01*
X163841285Y-46608672D01*
X163669250Y-46591728D01*
X163181750Y-46591728D01*
X163009715Y-46608672D01*
X162844291Y-46658853D01*
X162691836Y-46740342D01*
X162558208Y-46850008D01*
X162448542Y-46983636D01*
X162367053Y-47136091D01*
X162316872Y-47301515D01*
X162299928Y-47473550D01*
X162299928Y-48386050D01*
X162316872Y-48558085D01*
X162367053Y-48723509D01*
X162448542Y-48875964D01*
X162558208Y-49009592D01*
X162665500Y-49097645D01*
X162665501Y-52005663D01*
X162596914Y-52108311D01*
X162526432Y-52278471D01*
X162490500Y-52459111D01*
X162490500Y-52643289D01*
X162526432Y-52823929D01*
X162596914Y-52994089D01*
X162699238Y-53147228D01*
X162829472Y-53277462D01*
X162982611Y-53379786D01*
X163152771Y-53450268D01*
X163333411Y-53486200D01*
X163517589Y-53486200D01*
X163698229Y-53450268D01*
X163868389Y-53379786D01*
X164021528Y-53277462D01*
X164151762Y-53147228D01*
X164254086Y-52994089D01*
X164324568Y-52823929D01*
X164360500Y-52643289D01*
X164360500Y-52459111D01*
X164324568Y-52278471D01*
X164254086Y-52108311D01*
X164185500Y-52005665D01*
X164185500Y-49097645D01*
X164292792Y-49009592D01*
X164363000Y-48924044D01*
X164433208Y-49009592D01*
X164566836Y-49119258D01*
X164719291Y-49200747D01*
X164884715Y-49250928D01*
X165056750Y-49267872D01*
X165544250Y-49267872D01*
X165716285Y-49250928D01*
X165881709Y-49200747D01*
X166034164Y-49119258D01*
X166167792Y-49009592D01*
X166277458Y-48875964D01*
X166358947Y-48723509D01*
X166369173Y-48689800D01*
X167005827Y-48689800D01*
X167016053Y-48723509D01*
X167097542Y-48875964D01*
X167207208Y-49009592D01*
X167314500Y-49097645D01*
X167314501Y-50384768D01*
X167310824Y-50422100D01*
X167325498Y-50571085D01*
X167368954Y-50714346D01*
X167439526Y-50846376D01*
X167510701Y-50933102D01*
X167534500Y-50962101D01*
X167563498Y-50985899D01*
X171820576Y-55242978D01*
X171767970Y-55416396D01*
X171737319Y-55727600D01*
X171767970Y-56038804D01*
X171858745Y-56338049D01*
X172006155Y-56613835D01*
X172109446Y-56739695D01*
X172025506Y-56784563D01*
X171928815Y-56863915D01*
X171849463Y-56960606D01*
X171790498Y-57070920D01*
X171754188Y-57190618D01*
X171741928Y-57315100D01*
X171741928Y-59220100D01*
X171754188Y-59344582D01*
X171790498Y-59464280D01*
X171849463Y-59574594D01*
X171928815Y-59671285D01*
X172025506Y-59750637D01*
X172135820Y-59809602D01*
X172255518Y-59845912D01*
X172380000Y-59858172D01*
X174380000Y-59858172D01*
X174504482Y-59845912D01*
X174624180Y-59809602D01*
X174633347Y-59804702D01*
X174648734Y-61008318D01*
X170792026Y-60934623D01*
X170767208Y-60936590D01*
X170743250Y-60943360D01*
X170721073Y-60954675D01*
X170701529Y-60970098D01*
X170685371Y-60989038D01*
X170673217Y-61010766D01*
X170665536Y-61034448D01*
X170662630Y-61064372D01*
X170786825Y-66752491D01*
X150725841Y-66953101D01*
X150825181Y-61216199D01*
X150825199Y-61214358D01*
X150841316Y-55492698D01*
X154335000Y-55492698D01*
X154335000Y-55962502D01*
X154426654Y-56423279D01*
X154606440Y-56857321D01*
X154867450Y-57247949D01*
X155199651Y-57580150D01*
X155590279Y-57841160D01*
X156024321Y-58020946D01*
X156485098Y-58112600D01*
X156954902Y-58112600D01*
X157415679Y-58020946D01*
X157849721Y-57841160D01*
X158240349Y-57580150D01*
X158572550Y-57247949D01*
X158833560Y-56857321D01*
X159013346Y-56423279D01*
X159105000Y-55962502D01*
X159105000Y-55492698D01*
X159013346Y-55031921D01*
X158833560Y-54597879D01*
X158572550Y-54207251D01*
X158240349Y-53875050D01*
X157849721Y-53614040D01*
X157415679Y-53434254D01*
X156954902Y-53342600D01*
X156485098Y-53342600D01*
X156024321Y-53434254D01*
X155590279Y-53614040D01*
X155199651Y-53875050D01*
X154867450Y-54207251D01*
X154606440Y-54597879D01*
X154426654Y-55031921D01*
X154335000Y-55492698D01*
X150841316Y-55492698D01*
X150865157Y-47029000D01*
X152613928Y-47029000D01*
X152613928Y-48729000D01*
X152626188Y-48853482D01*
X152662498Y-48973180D01*
X152721463Y-49083494D01*
X152800815Y-49180185D01*
X152897506Y-49259537D01*
X153007820Y-49318502D01*
X153127518Y-49354812D01*
X153252000Y-49367072D01*
X154952000Y-49367072D01*
X155076482Y-49354812D01*
X155196180Y-49318502D01*
X155306494Y-49259537D01*
X155403185Y-49180185D01*
X155482537Y-49083494D01*
X155541502Y-48973180D01*
X155577812Y-48853482D01*
X155590072Y-48729000D01*
X155590072Y-47029000D01*
X155577812Y-46904518D01*
X155541502Y-46784820D01*
X155482537Y-46674506D01*
X155403185Y-46577815D01*
X155306494Y-46498463D01*
X155196180Y-46439498D01*
X155123620Y-46417487D01*
X155255475Y-46285632D01*
X155417990Y-46042411D01*
X155529932Y-45772158D01*
X155587000Y-45485260D01*
X155587000Y-45192740D01*
X155529932Y-44905842D01*
X155417990Y-44635589D01*
X155255475Y-44392368D01*
X155048632Y-44185525D01*
X154805411Y-44023010D01*
X154535158Y-43911068D01*
X154248260Y-43854000D01*
X153955740Y-43854000D01*
X153668842Y-43911068D01*
X153398589Y-44023010D01*
X153155368Y-44185525D01*
X152948525Y-44392368D01*
X152786010Y-44635589D01*
X152674068Y-44905842D01*
X152617000Y-45192740D01*
X152617000Y-45485260D01*
X152674068Y-45772158D01*
X152786010Y-46042411D01*
X152948525Y-46285632D01*
X153080380Y-46417487D01*
X153007820Y-46439498D01*
X152897506Y-46498463D01*
X152800815Y-46577815D01*
X152721463Y-46674506D01*
X152662498Y-46784820D01*
X152626188Y-46904518D01*
X152613928Y-47029000D01*
X150865157Y-47029000D01*
X150874388Y-43752259D01*
X174428249Y-43761442D01*
G36*
X174566984Y-54613676D02*
G01*
X174555463Y-54599637D01*
X174382391Y-54457600D01*
X174555463Y-54315563D01*
X174563055Y-54306312D01*
X174566984Y-54613676D01*
G37*
X174566984Y-54613676D02*
X174555463Y-54599637D01*
X174382391Y-54457600D01*
X174555463Y-54315563D01*
X174563055Y-54306312D01*
X174566984Y-54613676D01*
G36*
X169082208Y-49009592D02*
G01*
X169215836Y-49119258D01*
X169368291Y-49200747D01*
X169533715Y-49250928D01*
X169555249Y-49253049D01*
X172290933Y-51988734D01*
X172204537Y-52059637D01*
X172006155Y-52301365D01*
X171858745Y-52577151D01*
X171767970Y-52876396D01*
X171753232Y-53026031D01*
X168834500Y-50107299D01*
X168834500Y-49097645D01*
X168941792Y-49009592D01*
X169012000Y-48924044D01*
X169082208Y-49009592D01*
G37*
X169082208Y-49009592D02*
X169215836Y-49119258D01*
X169368291Y-49200747D01*
X169533715Y-49250928D01*
X169555249Y-49253049D01*
X172290933Y-51988734D01*
X172204537Y-52059637D01*
X172006155Y-52301365D01*
X171858745Y-52577151D01*
X171767970Y-52876396D01*
X171753232Y-53026031D01*
X168834500Y-50107299D01*
X168834500Y-49097645D01*
X168941792Y-49009592D01*
X169012000Y-48924044D01*
X169082208Y-49009592D01*
M02*
