%TF.GenerationSoftware,KiCad,Pcbnew,5.1.6-c6e7f7d~87~ubuntu20.04.1*%
%TF.CreationDate,2021-10-29T23:24:48+02:00*%
%TF.ProjectId,sb-cnc-shield,73622d63-6e63-42d7-9368-69656c642e6b,rev?*%
%TF.SameCoordinates,Original*%
%TF.FileFunction,Copper,L4,Bot*%
%TF.FilePolarity,Positive*%
%FSLAX46Y46*%
G04 Gerber Fmt 4.6, Leading zero omitted, Abs format (unit mm)*
G04 Created by KiCad (PCBNEW 5.1.6-c6e7f7d~87~ubuntu20.04.1) date 2021-10-29 23:24:48*
%MOMM*%
%LPD*%
G01*
G04 APERTURE LIST*
%TA.AperFunction,ComponentPad*%
%ADD10O,2.000000X1.700000*%
%TD*%
%TA.AperFunction,ComponentPad*%
%ADD11C,1.610000*%
%TD*%
%TA.AperFunction,ComponentPad*%
%ADD12C,2.250000*%
%TD*%
%TA.AperFunction,ComponentPad*%
%ADD13C,1.510000*%
%TD*%
%TA.AperFunction,ComponentPad*%
%ADD14R,3.500000X3.500000*%
%TD*%
%TA.AperFunction,ComponentPad*%
%ADD15C,1.600000*%
%TD*%
%TA.AperFunction,ComponentPad*%
%ADD16R,1.700000X1.700000*%
%TD*%
%TA.AperFunction,ComponentPad*%
%ADD17O,1.700000X1.700000*%
%TD*%
%TA.AperFunction,ComponentPad*%
%ADD18R,2.000000X1.905000*%
%TD*%
%TA.AperFunction,ComponentPad*%
%ADD19O,2.000000X1.905000*%
%TD*%
%TA.AperFunction,ComponentPad*%
%ADD20O,1.700000X2.000000*%
%TD*%
%TA.AperFunction,ComponentPad*%
%ADD21C,1.524000*%
%TD*%
%TA.AperFunction,ViaPad*%
%ADD22C,0.600000*%
%TD*%
%TA.AperFunction,Conductor*%
%ADD23C,0.700000*%
%TD*%
%TA.AperFunction,Conductor*%
%ADD24C,0.250000*%
%TD*%
%TA.AperFunction,Conductor*%
%ADD25C,0.500000*%
%TD*%
G04 APERTURE END LIST*
%TO.P,pi_5V1,1*%
%TO.N,GND*%
%TA.AperFunction,ComponentPad*%
G36*
G01*
X120790000Y-50583200D02*
X119290000Y-50583200D01*
G75*
G02*
X119040000Y-50333200I0J250000D01*
G01*
X119040000Y-49133200D01*
G75*
G02*
X119290000Y-48883200I250000J0D01*
G01*
X120790000Y-48883200D01*
G75*
G02*
X121040000Y-49133200I0J-250000D01*
G01*
X121040000Y-50333200D01*
G75*
G02*
X120790000Y-50583200I-250000J0D01*
G01*
G37*
%TD.AperFunction*%
D10*
%TO.P,pi_5V1,2*%
%TO.N,5V_pi*%
X120040000Y-47233200D03*
%TD*%
D11*
%TO.P,U1,17*%
%TO.N,SCL*%
X177358000Y-117180000D03*
%TO.P,U1,18*%
%TO.N,SDA*%
X174818000Y-117180000D03*
%TO.P,U1,19*%
%TO.N,laser_cmd*%
X172278000Y-117180000D03*
%TO.P,U1,22*%
%TO.N,O_led*%
X164658000Y-117180000D03*
%TO.P,U1,21*%
%TO.N,O_sig*%
X167198000Y-117180000D03*
%TO.P,U1,20*%
%TO.N,B_led*%
X169738000Y-117180000D03*
%TO.P,U1,23*%
%TO.N,Net-(U1-Pad23)*%
X159578000Y-117180000D03*
%TO.P,U1,24*%
%TO.N,GND*%
X157038000Y-117180000D03*
%TO.P,U1,25*%
X154498000Y-117180000D03*
%TO.P,U1,27*%
%TO.N,+3V3*%
X149418000Y-117180000D03*
%TO.P,U1,28*%
%TO.N,RESET*%
X146878000Y-117180000D03*
%TO.P,U1,1*%
%TO.N,DC*%
X177358000Y-68920000D03*
%TO.P,U1,2*%
%TO.N,res*%
X174818000Y-68920000D03*
%TO.P,U1,3*%
%TO.N,XSTEP*%
X172278000Y-68920000D03*
%TO.P,U1,4*%
%TO.N,YSTEP*%
X169738000Y-68920000D03*
%TO.P,U1,5*%
%TO.N,ZSTEP*%
X167198000Y-68920000D03*
%TO.P,U1,6*%
%TO.N,XDIR*%
X164658000Y-68920000D03*
%TO.P,U1,7*%
%TO.N,YDIR*%
X162118000Y-68920000D03*
%TO.P,U1,8*%
%TO.N,ZDIR*%
X159578000Y-68920000D03*
%TO.P,U1,9*%
%TO.N,EN*%
X155514000Y-68920000D03*
%TO.P,U1,10*%
%TO.N,XLIMIT*%
X152974000Y-68920000D03*
%TO.P,U1,11*%
%TO.N,YLIMIT*%
X150434000Y-68920000D03*
%TO.P,U1,12*%
%TO.N,SPIN_EN*%
X147894000Y-68920000D03*
%TO.P,U1,13*%
%TO.N,ZLIMIT*%
X145354000Y-68920000D03*
%TO.P,U1,14*%
%TO.N,SPIN_DIR*%
X142814000Y-68920000D03*
%TO.P,U1,15*%
%TO.N,GND*%
X140274000Y-68920000D03*
%TO.P,U1,16*%
%TO.N,Net-(U1-Pad16)*%
X137734000Y-68920000D03*
%TO.P,U1,26*%
%TO.N,+5V*%
X151958000Y-117180000D03*
%TO.P,U1,29*%
%TO.N,_SDA_*%
X135194000Y-68920000D03*
%TO.P,U1,30*%
%TO.N,_SCL_*%
X132654000Y-68920000D03*
%TD*%
D12*
%TO.P,SW1,3*%
%TO.N,RESET*%
X117348000Y-73689600D03*
%TO.P,SW1,4*%
X123848000Y-73689600D03*
%TO.P,SW1,1*%
%TO.N,GND*%
X117348000Y-69189600D03*
%TO.P,SW1,2*%
X123848000Y-69189600D03*
%TD*%
D13*
%TO.P,U2,1*%
%TO.N,EN*%
X131445000Y-74295000D03*
%TO.P,U2,2*%
%TO.N,Net-(MSX1-Pad2)*%
X131445000Y-76835000D03*
%TO.P,U2,3*%
%TO.N,Net-(MSX1-Pad4)*%
X131445000Y-79375000D03*
%TO.P,U2,4*%
%TO.N,Net-(MSX1-Pad6)*%
X131445000Y-81915000D03*
%TO.P,U2,5*%
%TO.N,Net-(U2-Pad5)*%
X131445000Y-84455000D03*
%TO.P,U2,6*%
X131445000Y-86995000D03*
%TO.P,U2,7*%
%TO.N,XSTEP*%
X131445000Y-89535000D03*
%TO.P,U2,8*%
%TO.N,XDIR*%
X131445000Y-92075000D03*
%TO.P,U2,9*%
%TO.N,GND*%
X144145000Y-92075000D03*
%TO.P,U2,10*%
%TO.N,+5V*%
X144145000Y-89535000D03*
%TO.P,U2,11*%
%TO.N,x1B*%
X144145000Y-86995000D03*
%TO.P,U2,12*%
%TO.N,x1A*%
X144145000Y-84455000D03*
%TO.P,U2,13*%
%TO.N,x2A*%
X144145000Y-81915000D03*
%TO.P,U2,14*%
%TO.N,x2B*%
X144145000Y-79375000D03*
%TO.P,U2,15*%
%TO.N,GNDA*%
X144145000Y-76835000D03*
%TO.P,U2,16*%
%TO.N,VIN*%
X144145000Y-74295000D03*
%TD*%
%TO.P,U4,1*%
%TO.N,EN*%
X131445000Y-94615000D03*
%TO.P,U4,2*%
%TO.N,Net-(MSZ1-Pad2)*%
X131445000Y-97155000D03*
%TO.P,U4,3*%
%TO.N,Net-(MSZ1-Pad4)*%
X131445000Y-99695000D03*
%TO.P,U4,4*%
%TO.N,Net-(MSZ1-Pad6)*%
X131445000Y-102235000D03*
%TO.P,U4,5*%
%TO.N,Net-(U4-Pad5)*%
X131445000Y-104775000D03*
%TO.P,U4,6*%
X131445000Y-107315000D03*
%TO.P,U4,7*%
%TO.N,ZSTEP*%
X131445000Y-109855000D03*
%TO.P,U4,8*%
%TO.N,ZDIR*%
X131445000Y-112395000D03*
%TO.P,U4,9*%
%TO.N,GND*%
X144145000Y-112395000D03*
%TO.P,U4,10*%
%TO.N,+5V*%
X144145000Y-109855000D03*
%TO.P,U4,11*%
%TO.N,z1B*%
X144145000Y-107315000D03*
%TO.P,U4,12*%
%TO.N,z1A*%
X144145000Y-104775000D03*
%TO.P,U4,13*%
%TO.N,z2A*%
X144145000Y-102235000D03*
%TO.P,U4,14*%
%TO.N,z2B*%
X144145000Y-99695000D03*
%TO.P,U4,15*%
%TO.N,GNDA*%
X144145000Y-97155000D03*
%TO.P,U4,16*%
%TO.N,VIN*%
X144145000Y-94615000D03*
%TD*%
%TO.P,U5,1*%
%TO.N,EN*%
X147879000Y-94691200D03*
%TO.P,U5,2*%
%TO.N,Net-(MSA1-Pad2)*%
X147879000Y-97231200D03*
%TO.P,U5,3*%
%TO.N,Net-(MSA1-Pad4)*%
X147879000Y-99771200D03*
%TO.P,U5,4*%
%TO.N,Net-(MSA1-Pad6)*%
X147879000Y-102311200D03*
%TO.P,U5,5*%
%TO.N,Net-(U5-Pad5)*%
X147879000Y-104851200D03*
%TO.P,U5,6*%
X147879000Y-107391200D03*
%TO.P,U5,7*%
%TO.N,SPIN_EN*%
X147879000Y-109931200D03*
%TO.P,U5,8*%
%TO.N,SPIN_DIR*%
X147879000Y-112471200D03*
%TO.P,U5,9*%
%TO.N,GND*%
X160579000Y-112471200D03*
%TO.P,U5,10*%
%TO.N,+5V*%
X160579000Y-109931200D03*
%TO.P,U5,11*%
%TO.N,a1B*%
X160579000Y-107391200D03*
%TO.P,U5,12*%
%TO.N,a1A*%
X160579000Y-104851200D03*
%TO.P,U5,13*%
%TO.N,a2A*%
X160579000Y-102311200D03*
%TO.P,U5,14*%
%TO.N,a2B*%
X160579000Y-99771200D03*
%TO.P,U5,15*%
%TO.N,GNDA*%
X160579000Y-97231200D03*
%TO.P,U5,16*%
%TO.N,VIN*%
X160579000Y-94691200D03*
%TD*%
%TO.P,U3,1*%
%TO.N,EN*%
X147803000Y-74371200D03*
%TO.P,U3,2*%
%TO.N,Net-(MSY1-Pad2)*%
X147803000Y-76911200D03*
%TO.P,U3,3*%
%TO.N,Net-(MSY1-Pad4)*%
X147803000Y-79451200D03*
%TO.P,U3,4*%
%TO.N,Net-(MSY1-Pad6)*%
X147803000Y-81991200D03*
%TO.P,U3,5*%
%TO.N,Net-(U3-Pad5)*%
X147803000Y-84531200D03*
%TO.P,U3,6*%
X147803000Y-87071200D03*
%TO.P,U3,7*%
%TO.N,YSTEP*%
X147803000Y-89611200D03*
%TO.P,U3,8*%
%TO.N,YDIR*%
X147803000Y-92151200D03*
%TO.P,U3,9*%
%TO.N,GND*%
X160503000Y-92151200D03*
%TO.P,U3,10*%
%TO.N,+5V*%
X160503000Y-89611200D03*
%TO.P,U3,11*%
%TO.N,y1B*%
X160503000Y-87071200D03*
%TO.P,U3,12*%
%TO.N,y1A*%
X160503000Y-84531200D03*
%TO.P,U3,13*%
%TO.N,y2A*%
X160503000Y-81991200D03*
%TO.P,U3,14*%
%TO.N,y2B*%
X160503000Y-79451200D03*
%TO.P,U3,15*%
%TO.N,GNDA*%
X160503000Y-76911200D03*
%TO.P,U3,16*%
%TO.N,VIN*%
X160503000Y-74371200D03*
%TD*%
D14*
%TO.P,P8,1*%
%TO.N,VIN_*%
X125868000Y-111430000D03*
%TO.P,P8,2*%
%TO.N,GNDA*%
%TA.AperFunction,ComponentPad*%
G36*
G01*
X118368000Y-112430000D02*
X118368000Y-110430000D01*
G75*
G02*
X119118000Y-109680000I750000J0D01*
G01*
X120618000Y-109680000D01*
G75*
G02*
X121368000Y-110430000I0J-750000D01*
G01*
X121368000Y-112430000D01*
G75*
G02*
X120618000Y-113180000I-750000J0D01*
G01*
X119118000Y-113180000D01*
G75*
G02*
X118368000Y-112430000I0J750000D01*
G01*
G37*
%TD.AperFunction*%
%TO.P,P8,3*%
%TA.AperFunction,ComponentPad*%
G36*
G01*
X121118000Y-117005000D02*
X121118000Y-115255000D01*
G75*
G02*
X121993000Y-114380000I875000J0D01*
G01*
X123743000Y-114380000D01*
G75*
G02*
X124618000Y-115255000I0J-875000D01*
G01*
X124618000Y-117005000D01*
G75*
G02*
X123743000Y-117880000I-875000J0D01*
G01*
X121993000Y-117880000D01*
G75*
G02*
X121118000Y-117005000I0J875000D01*
G01*
G37*
%TD.AperFunction*%
%TD*%
D15*
%TO.P,C1,1*%
%TO.N,VIN*%
X137368000Y-74046100D03*
%TO.P,C1,2*%
%TO.N,GNDA*%
X139368000Y-74046100D03*
%TD*%
%TO.P,C2,2*%
%TO.N,GNDA*%
X156122000Y-74117200D03*
%TO.P,C2,1*%
%TO.N,VIN*%
X154122000Y-74117200D03*
%TD*%
%TO.P,C3,1*%
%TO.N,VIN*%
X137464000Y-95844400D03*
%TO.P,C3,2*%
%TO.N,GNDA*%
X139464000Y-95844400D03*
%TD*%
%TO.P,C4,2*%
%TO.N,GNDA*%
X155766000Y-95844400D03*
%TO.P,C4,1*%
%TO.N,VIN*%
X153766000Y-95844400D03*
%TD*%
D16*
%TO.P,P10,1*%
%TO.N,VIN*%
X154102000Y-47879000D03*
D17*
%TO.P,P10,2*%
%TO.N,VIN_*%
X154102000Y-45339000D03*
%TD*%
D18*
%TO.P,Q0,1*%
%TO.N,/D*%
X173380000Y-58267600D03*
D19*
%TO.P,Q0,2*%
%TO.N,/G*%
X173380000Y-55727600D03*
%TO.P,Q0,3*%
%TO.N,GND*%
X173380000Y-53187600D03*
%TD*%
%TO.P,l_pwr1,1*%
%TO.N,GND*%
%TA.AperFunction,ComponentPad*%
G36*
G01*
X177940400Y-50634000D02*
X176440400Y-50634000D01*
G75*
G02*
X176190400Y-50384000I0J250000D01*
G01*
X176190400Y-49184000D01*
G75*
G02*
X176440400Y-48934000I250000J0D01*
G01*
X177940400Y-48934000D01*
G75*
G02*
X178190400Y-49184000I0J-250000D01*
G01*
X178190400Y-50384000D01*
G75*
G02*
X177940400Y-50634000I-250000J0D01*
G01*
G37*
%TD.AperFunction*%
D10*
%TO.P,l_pwr1,2*%
%TO.N,VIN*%
X177190400Y-47284000D03*
%TD*%
D20*
%TO.P,Pump1,2*%
%TO.N,/D*%
X177150000Y-63525400D03*
%TO.P,Pump1,1*%
%TO.N,VIN*%
%TA.AperFunction,ComponentPad*%
G36*
G01*
X173800000Y-64275400D02*
X173800000Y-62775400D01*
G75*
G02*
X174050000Y-62525400I250000J0D01*
G01*
X175250000Y-62525400D01*
G75*
G02*
X175500000Y-62775400I0J-250000D01*
G01*
X175500000Y-64275400D01*
G75*
G02*
X175250000Y-64525400I-250000J0D01*
G01*
X174050000Y-64525400D01*
G75*
G02*
X173800000Y-64275400I0J250000D01*
G01*
G37*
%TD.AperFunction*%
%TD*%
D16*
%TO.P,conn26_1,1*%
%TO.N,+5V*%
X166030000Y-82651600D03*
D17*
%TO.P,conn26_1,2*%
%TO.N,GND*%
X168570000Y-82651600D03*
%TO.P,conn26_1,3*%
%TO.N,_SCL_*%
X166030000Y-85191600D03*
%TO.P,conn26_1,4*%
%TO.N,_SDA_*%
X168570000Y-85191600D03*
%TO.P,conn26_1,5*%
%TO.N,+5V*%
X166030000Y-87731600D03*
%TO.P,conn26_1,6*%
%TO.N,DC*%
X168570000Y-87731600D03*
%TO.P,conn26_1,7*%
%TO.N,res*%
X166030000Y-90271600D03*
%TO.P,conn26_1,8*%
%TO.N,GND*%
X168570000Y-90271600D03*
%TO.P,conn26_1,9*%
%TO.N,y2B*%
X166030000Y-92811600D03*
%TO.P,conn26_1,10*%
%TO.N,x2B*%
X168570000Y-92811600D03*
%TO.P,conn26_1,11*%
%TO.N,y2A*%
X166030000Y-95351600D03*
%TO.P,conn26_1,12*%
%TO.N,x2A*%
X168570000Y-95351600D03*
%TO.P,conn26_1,13*%
%TO.N,y1A*%
X166030000Y-97891600D03*
%TO.P,conn26_1,14*%
%TO.N,x1A*%
X168570000Y-97891600D03*
%TO.P,conn26_1,15*%
%TO.N,y1B*%
X166030000Y-100431600D03*
%TO.P,conn26_1,16*%
%TO.N,x1B*%
X168570000Y-100431600D03*
%TO.P,conn26_1,17*%
%TO.N,a2B*%
X166030000Y-102971600D03*
%TO.P,conn26_1,18*%
%TO.N,z2B*%
X168570000Y-102971600D03*
%TO.P,conn26_1,19*%
%TO.N,a2A*%
X166030000Y-105511600D03*
%TO.P,conn26_1,20*%
%TO.N,z2A*%
X168570000Y-105511600D03*
%TO.P,conn26_1,21*%
%TO.N,a1A*%
X166030000Y-108051600D03*
%TO.P,conn26_1,22*%
%TO.N,z1A*%
X168570000Y-108051600D03*
%TO.P,conn26_1,23*%
%TO.N,a1B*%
X166030000Y-110591600D03*
%TO.P,conn26_1,24*%
%TO.N,z1A*%
X168570000Y-110591600D03*
%TO.P,conn26_1,25*%
%TO.N,Net-(conn26_1-Pad25)*%
X166030000Y-113131600D03*
%TO.P,conn26_1,26*%
%TO.N,Net-(conn26_1-Pad26)*%
X168570000Y-113131600D03*
%TD*%
D16*
%TO.P,conn26_0,1*%
%TO.N,ZLIMIT*%
X175743000Y-82651600D03*
D17*
%TO.P,conn26_0,2*%
%TO.N,GND*%
X178283000Y-82651600D03*
%TO.P,conn26_0,3*%
%TO.N,ZLIMIT*%
X175743000Y-85191600D03*
%TO.P,conn26_0,4*%
%TO.N,GND*%
X178283000Y-85191600D03*
%TO.P,conn26_0,5*%
%TO.N,YLIMIT*%
X175743000Y-87731600D03*
%TO.P,conn26_0,6*%
%TO.N,GND*%
X178283000Y-87731600D03*
%TO.P,conn26_0,7*%
%TO.N,YLIMIT*%
X175743000Y-90271600D03*
%TO.P,conn26_0,8*%
%TO.N,GND*%
X178283000Y-90271600D03*
%TO.P,conn26_0,9*%
%TO.N,XLIMIT*%
X175743000Y-92811600D03*
%TO.P,conn26_0,10*%
%TO.N,GND*%
X178283000Y-92811600D03*
%TO.P,conn26_0,11*%
%TO.N,XLIMIT*%
X175743000Y-95351600D03*
%TO.P,conn26_0,12*%
%TO.N,GND*%
X178283000Y-95351600D03*
%TO.P,conn26_0,13*%
%TO.N,SPIN_EN*%
X175743000Y-97891600D03*
%TO.P,conn26_0,14*%
%TO.N,GND*%
X178283000Y-97891600D03*
%TO.P,conn26_0,15*%
%TO.N,SPIN_DIR*%
X175743000Y-100431600D03*
%TO.P,conn26_0,16*%
%TO.N,GND*%
X178283000Y-100431600D03*
%TO.P,conn26_0,17*%
%TO.N,laser_cmd*%
X175743000Y-102971600D03*
%TO.P,conn26_0,18*%
%TO.N,GND*%
X178283000Y-102971600D03*
%TO.P,conn26_0,19*%
%TO.N,O_led*%
X175743000Y-105511600D03*
%TO.P,conn26_0,20*%
%TO.N,GND*%
X178283000Y-105511600D03*
%TO.P,conn26_0,21*%
%TO.N,O_sig*%
X175743000Y-108051600D03*
%TO.P,conn26_0,22*%
%TO.N,GND*%
X178283000Y-108051600D03*
%TO.P,conn26_0,23*%
%TO.N,B_led*%
X175743000Y-110591600D03*
%TO.P,conn26_0,24*%
%TO.N,GND*%
X178283000Y-110591600D03*
%TO.P,conn26_0,25*%
%TO.N,RESET*%
X175743000Y-113131600D03*
%TO.P,conn26_0,26*%
%TO.N,GND*%
X178283000Y-113131600D03*
%TD*%
D16*
%TO.P,MSA1,1*%
%TO.N,+5V*%
X151613000Y-111709000D03*
D17*
%TO.P,MSA1,2*%
%TO.N,Net-(MSA1-Pad2)*%
X151613000Y-109169000D03*
%TO.P,MSA1,3*%
%TO.N,+5V*%
X154153000Y-111709000D03*
%TO.P,MSA1,4*%
%TO.N,Net-(MSA1-Pad4)*%
X154153000Y-109169000D03*
%TO.P,MSA1,5*%
%TO.N,+5V*%
X156693000Y-111709000D03*
%TO.P,MSA1,6*%
%TO.N,Net-(MSA1-Pad6)*%
X156693000Y-109169000D03*
%TD*%
D16*
%TO.P,MSY1,1*%
%TO.N,+5V*%
X151968000Y-91211400D03*
D17*
%TO.P,MSY1,2*%
%TO.N,Net-(MSY1-Pad2)*%
X151968000Y-88671400D03*
%TO.P,MSY1,3*%
%TO.N,+5V*%
X154508000Y-91211400D03*
%TO.P,MSY1,4*%
%TO.N,Net-(MSY1-Pad4)*%
X154508000Y-88671400D03*
%TO.P,MSY1,5*%
%TO.N,+5V*%
X157048000Y-91211400D03*
%TO.P,MSY1,6*%
%TO.N,Net-(MSY1-Pad6)*%
X157048000Y-88671400D03*
%TD*%
%TO.P,MSZ1,6*%
%TO.N,Net-(MSZ1-Pad6)*%
X140335000Y-109195000D03*
%TO.P,MSZ1,5*%
%TO.N,+5V*%
X140335000Y-111735000D03*
%TO.P,MSZ1,4*%
%TO.N,Net-(MSZ1-Pad4)*%
X137795000Y-109195000D03*
%TO.P,MSZ1,3*%
%TO.N,+5V*%
X137795000Y-111735000D03*
%TO.P,MSZ1,2*%
%TO.N,Net-(MSZ1-Pad2)*%
X135255000Y-109195000D03*
D16*
%TO.P,MSZ1,1*%
%TO.N,+5V*%
X135255000Y-111735000D03*
%TD*%
%TO.P,MSX1,1*%
%TO.N,+5V*%
X135357000Y-91211400D03*
D17*
%TO.P,MSX1,2*%
%TO.N,Net-(MSX1-Pad2)*%
X135357000Y-88671400D03*
%TO.P,MSX1,3*%
%TO.N,+5V*%
X137897000Y-91211400D03*
%TO.P,MSX1,4*%
%TO.N,Net-(MSX1-Pad4)*%
X137897000Y-88671400D03*
%TO.P,MSX1,5*%
%TO.N,+5V*%
X140437000Y-91211400D03*
%TO.P,MSX1,6*%
%TO.N,Net-(MSX1-Pad6)*%
X140437000Y-88671400D03*
%TD*%
D21*
%TO.P,MP1584EN_DC-DC1,8*%
%TO.N,GND*%
X143035800Y-47384200D03*
%TO.P,MP1584EN_DC-DC1,7*%
X143035800Y-49924200D03*
%TO.P,MP1584EN_DC-DC1,6*%
%TO.N,5V_pi*%
X143035800Y-57924200D03*
%TO.P,MP1584EN_DC-DC1,5*%
X143035800Y-60464200D03*
%TO.P,MP1584EN_DC-DC1,4*%
%TO.N,VIN*%
X125035800Y-57924200D03*
%TO.P,MP1584EN_DC-DC1,3*%
X125035800Y-60464200D03*
%TO.P,MP1584EN_DC-DC1,2*%
%TO.N,GND*%
X125035800Y-49924200D03*
%TO.P,MP1584EN_DC-DC1,1*%
X125035800Y-47384200D03*
%TD*%
D22*
%TO.N,GND*%
X143687600Y-51714200D03*
%TO.N,ZSTEP*%
X164514800Y-82055400D03*
%TO.N,ZDIR*%
X145138200Y-67535000D03*
%TO.N,SDA*%
X163425500Y-52551200D03*
%TO.N,VIN_*%
X128168300Y-111430000D03*
%TO.N,x2B*%
X171444000Y-82573400D03*
%TO.N,x1A*%
X165020400Y-79564200D03*
%TO.N,x1B*%
X168213000Y-81031800D03*
%TD*%
D23*
%TO.N,GND*%
X144145000Y-112395000D02*
X147554600Y-115804600D01*
X147554600Y-115804600D02*
X153122600Y-115804600D01*
X153122600Y-115804600D02*
X154498000Y-117180000D01*
D24*
%TO.N,EN*%
X155514000Y-68920000D02*
X150062800Y-74371200D01*
X150062800Y-74371200D02*
X147803000Y-74371200D01*
%TO.N,XDIR*%
X131445000Y-92075000D02*
X134015700Y-89504300D01*
X134015700Y-89504300D02*
X134015700Y-87957900D01*
X134015700Y-87957900D02*
X143917500Y-78056100D01*
X143917500Y-78056100D02*
X144451900Y-78056100D01*
X144451900Y-78056100D02*
X146866800Y-75641200D01*
X146866800Y-75641200D02*
X149992800Y-75641200D01*
X149992800Y-75641200D02*
X155373000Y-70261000D01*
X155373000Y-70261000D02*
X163317000Y-70261000D01*
X163317000Y-70261000D02*
X164658000Y-68920000D01*
D23*
%TO.N,GNDA*%
X122868000Y-114630000D02*
X131096700Y-114630000D01*
X131096700Y-114630000D02*
X133508800Y-112217900D01*
X133508800Y-112217900D02*
X133508800Y-101799600D01*
X133508800Y-101799600D02*
X139464000Y-95844400D01*
X119868000Y-111430000D02*
X119868000Y-111630000D01*
X119868000Y-111630000D02*
X122868000Y-114630000D01*
X122868000Y-116130000D02*
X122868000Y-114630000D01*
%TO.N,VIN_*%
X125868000Y-111430000D02*
X128168300Y-111430000D01*
D25*
%TO.N,x2B*%
X171444000Y-82573400D02*
X171444000Y-81096100D01*
X171444000Y-81096100D02*
X168528800Y-78180900D01*
X168528800Y-78180900D02*
X145339100Y-78180900D01*
X145339100Y-78180900D02*
X144145000Y-79375000D01*
%TO.N,x2A*%
X144145000Y-81915000D02*
X145479600Y-83249600D01*
X145479600Y-83249600D02*
X148254800Y-83249600D01*
X148254800Y-83249600D02*
X150783200Y-80721200D01*
X150783200Y-80721200D02*
X162515700Y-80721200D01*
X162515700Y-80721200D02*
X162758600Y-80478300D01*
X162758600Y-80478300D02*
X165167500Y-80478300D01*
X165167500Y-80478300D02*
X165381200Y-80264600D01*
X165381200Y-80264600D02*
X168511800Y-80264600D01*
X168511800Y-80264600D02*
X169872700Y-81625500D01*
X169872700Y-81625500D02*
X169872700Y-94048900D01*
X169872700Y-94048900D02*
X168570000Y-95351600D01*
%TO.N,x1A*%
X168570000Y-97891600D02*
X170604100Y-95857500D01*
X170604100Y-95857500D02*
X170604100Y-81246700D01*
X170604100Y-81246700D02*
X168921600Y-79564200D01*
X168921600Y-79564200D02*
X165020400Y-79564200D01*
%TO.N,x1B*%
X144145000Y-86995000D02*
X145403400Y-85736600D01*
X145403400Y-85736600D02*
X151580700Y-85736600D01*
X151580700Y-85736600D02*
X154056100Y-83261200D01*
X154056100Y-83261200D02*
X161879400Y-83261200D01*
X161879400Y-83261200D02*
X163962000Y-81178600D01*
X163962000Y-81178600D02*
X168066200Y-81178600D01*
X168066200Y-81178600D02*
X168213000Y-81031800D01*
%TO.N,z2B*%
X168570000Y-102971600D02*
X169881400Y-104283000D01*
X169881400Y-104283000D02*
X169881400Y-113675200D01*
X169881400Y-113675200D02*
X169093400Y-114463200D01*
X169093400Y-114463200D02*
X165467500Y-114463200D01*
X165467500Y-114463200D02*
X164729600Y-113725300D01*
X164729600Y-113725300D02*
X164729600Y-112377000D01*
X164729600Y-112377000D02*
X161078400Y-108725800D01*
X161078400Y-108725800D02*
X159276700Y-108725800D01*
X159276700Y-108725800D02*
X151580500Y-101029600D01*
X151580500Y-101029600D02*
X145479600Y-101029600D01*
X145479600Y-101029600D02*
X144145000Y-99695000D01*
%TD*%
M02*
