%TF.GenerationSoftware,KiCad,Pcbnew,5.1.6-c6e7f7d~87~ubuntu20.04.1*%
%TF.CreationDate,2021-10-29T23:24:48+02:00*%
%TF.ProjectId,sb-cnc-shield,73622d63-6e63-42d7-9368-69656c642e6b,rev?*%
%TF.SameCoordinates,Original*%
%TF.FileFunction,Legend,Bot*%
%TF.FilePolarity,Positive*%
%FSLAX46Y46*%
G04 Gerber Fmt 4.6, Leading zero omitted, Abs format (unit mm)*
G04 Created by KiCad (PCBNEW 5.1.6-c6e7f7d~87~ubuntu20.04.1) date 2021-10-29 23:24:48*
%MOMM*%
%LPD*%
G01*
G04 APERTURE LIST*
%ADD10O,2.000000X1.700000*%
%ADD11C,1.610000*%
%ADD12C,2.250000*%
%ADD13C,1.510000*%
%ADD14R,3.500000X3.500000*%
%ADD15C,1.600000*%
%ADD16R,1.700000X1.700000*%
%ADD17O,1.700000X1.700000*%
%ADD18O,3.500000X3.500000*%
%ADD19R,2.000000X1.905000*%
%ADD20O,2.000000X1.905000*%
%ADD21O,1.700000X2.000000*%
%ADD22C,1.524000*%
G04 APERTURE END LIST*
%LPC*%
%TO.C,pi_5V1*%
G36*
G01*
X120790000Y-50583200D02*
X119290000Y-50583200D01*
G75*
G02*
X119040000Y-50333200I0J250000D01*
G01*
X119040000Y-49133200D01*
G75*
G02*
X119290000Y-48883200I250000J0D01*
G01*
X120790000Y-48883200D01*
G75*
G02*
X121040000Y-49133200I0J-250000D01*
G01*
X121040000Y-50333200D01*
G75*
G02*
X120790000Y-50583200I-250000J0D01*
G01*
G37*
D10*
X120040000Y-47233200D03*
%TD*%
D11*
%TO.C,U1*%
X177358000Y-117180000D03*
X174818000Y-117180000D03*
X172278000Y-117180000D03*
X164658000Y-117180000D03*
X167198000Y-117180000D03*
X169738000Y-117180000D03*
X159578000Y-117180000D03*
X157038000Y-117180000D03*
X154498000Y-117180000D03*
X149418000Y-117180000D03*
X146878000Y-117180000D03*
X177358000Y-68920000D03*
X174818000Y-68920000D03*
X172278000Y-68920000D03*
X169738000Y-68920000D03*
X167198000Y-68920000D03*
X164658000Y-68920000D03*
X162118000Y-68920000D03*
X159578000Y-68920000D03*
X155514000Y-68920000D03*
X152974000Y-68920000D03*
X150434000Y-68920000D03*
X147894000Y-68920000D03*
X145354000Y-68920000D03*
X142814000Y-68920000D03*
X140274000Y-68920000D03*
X137734000Y-68920000D03*
X151958000Y-117180000D03*
X135194000Y-68920000D03*
X132654000Y-68920000D03*
%TD*%
D12*
%TO.C,SW1*%
X117348000Y-73689600D03*
X123848000Y-73689600D03*
X117348000Y-69189600D03*
X123848000Y-69189600D03*
%TD*%
D13*
%TO.C,U2*%
X131445000Y-74295000D03*
X131445000Y-76835000D03*
X131445000Y-79375000D03*
X131445000Y-81915000D03*
X131445000Y-84455000D03*
X131445000Y-86995000D03*
X131445000Y-89535000D03*
X131445000Y-92075000D03*
X144145000Y-92075000D03*
X144145000Y-89535000D03*
X144145000Y-86995000D03*
X144145000Y-84455000D03*
X144145000Y-81915000D03*
X144145000Y-79375000D03*
X144145000Y-76835000D03*
X144145000Y-74295000D03*
%TD*%
%TO.C,U4*%
X131445000Y-94615000D03*
X131445000Y-97155000D03*
X131445000Y-99695000D03*
X131445000Y-102235000D03*
X131445000Y-104775000D03*
X131445000Y-107315000D03*
X131445000Y-109855000D03*
X131445000Y-112395000D03*
X144145000Y-112395000D03*
X144145000Y-109855000D03*
X144145000Y-107315000D03*
X144145000Y-104775000D03*
X144145000Y-102235000D03*
X144145000Y-99695000D03*
X144145000Y-97155000D03*
X144145000Y-94615000D03*
%TD*%
%TO.C,U5*%
X147879000Y-94691200D03*
X147879000Y-97231200D03*
X147879000Y-99771200D03*
X147879000Y-102311200D03*
X147879000Y-104851200D03*
X147879000Y-107391200D03*
X147879000Y-109931200D03*
X147879000Y-112471200D03*
X160579000Y-112471200D03*
X160579000Y-109931200D03*
X160579000Y-107391200D03*
X160579000Y-104851200D03*
X160579000Y-102311200D03*
X160579000Y-99771200D03*
X160579000Y-97231200D03*
X160579000Y-94691200D03*
%TD*%
%TO.C,U3*%
X147803000Y-74371200D03*
X147803000Y-76911200D03*
X147803000Y-79451200D03*
X147803000Y-81991200D03*
X147803000Y-84531200D03*
X147803000Y-87071200D03*
X147803000Y-89611200D03*
X147803000Y-92151200D03*
X160503000Y-92151200D03*
X160503000Y-89611200D03*
X160503000Y-87071200D03*
X160503000Y-84531200D03*
X160503000Y-81991200D03*
X160503000Y-79451200D03*
X160503000Y-76911200D03*
X160503000Y-74371200D03*
%TD*%
D14*
%TO.C,P8*%
X125868000Y-111430000D03*
G36*
G01*
X118368000Y-112430000D02*
X118368000Y-110430000D01*
G75*
G02*
X119118000Y-109680000I750000J0D01*
G01*
X120618000Y-109680000D01*
G75*
G02*
X121368000Y-110430000I0J-750000D01*
G01*
X121368000Y-112430000D01*
G75*
G02*
X120618000Y-113180000I-750000J0D01*
G01*
X119118000Y-113180000D01*
G75*
G02*
X118368000Y-112430000I0J750000D01*
G01*
G37*
G36*
G01*
X121118000Y-117005000D02*
X121118000Y-115255000D01*
G75*
G02*
X121993000Y-114380000I875000J0D01*
G01*
X123743000Y-114380000D01*
G75*
G02*
X124618000Y-115255000I0J-875000D01*
G01*
X124618000Y-117005000D01*
G75*
G02*
X123743000Y-117880000I-875000J0D01*
G01*
X121993000Y-117880000D01*
G75*
G02*
X121118000Y-117005000I0J875000D01*
G01*
G37*
%TD*%
D15*
%TO.C,C1*%
X137368000Y-74046100D03*
X139368000Y-74046100D03*
%TD*%
%TO.C,C2*%
X156122000Y-74117200D03*
X154122000Y-74117200D03*
%TD*%
%TO.C,C3*%
X137464000Y-95844400D03*
X139464000Y-95844400D03*
%TD*%
%TO.C,C4*%
X155766000Y-95844400D03*
X153766000Y-95844400D03*
%TD*%
D16*
%TO.C,P10*%
X154102000Y-47879000D03*
D17*
X154102000Y-45339000D03*
%TD*%
D18*
%TO.C,Q0*%
X156720000Y-55727600D03*
D19*
X173380000Y-58267600D03*
D20*
X173380000Y-55727600D03*
X173380000Y-53187600D03*
%TD*%
%TO.C,l_pwr1*%
G36*
G01*
X177940400Y-50634000D02*
X176440400Y-50634000D01*
G75*
G02*
X176190400Y-50384000I0J250000D01*
G01*
X176190400Y-49184000D01*
G75*
G02*
X176440400Y-48934000I250000J0D01*
G01*
X177940400Y-48934000D01*
G75*
G02*
X178190400Y-49184000I0J-250000D01*
G01*
X178190400Y-50384000D01*
G75*
G02*
X177940400Y-50634000I-250000J0D01*
G01*
G37*
D10*
X177190400Y-47284000D03*
%TD*%
D21*
%TO.C,Pump1*%
X177150000Y-63525400D03*
G36*
G01*
X173800000Y-64275400D02*
X173800000Y-62775400D01*
G75*
G02*
X174050000Y-62525400I250000J0D01*
G01*
X175250000Y-62525400D01*
G75*
G02*
X175500000Y-62775400I0J-250000D01*
G01*
X175500000Y-64275400D01*
G75*
G02*
X175250000Y-64525400I-250000J0D01*
G01*
X174050000Y-64525400D01*
G75*
G02*
X173800000Y-64275400I0J250000D01*
G01*
G37*
%TD*%
D16*
%TO.C,conn26_1*%
X166030000Y-82651600D03*
D17*
X168570000Y-82651600D03*
X166030000Y-85191600D03*
X168570000Y-85191600D03*
X166030000Y-87731600D03*
X168570000Y-87731600D03*
X166030000Y-90271600D03*
X168570000Y-90271600D03*
X166030000Y-92811600D03*
X168570000Y-92811600D03*
X166030000Y-95351600D03*
X168570000Y-95351600D03*
X166030000Y-97891600D03*
X168570000Y-97891600D03*
X166030000Y-100431600D03*
X168570000Y-100431600D03*
X166030000Y-102971600D03*
X168570000Y-102971600D03*
X166030000Y-105511600D03*
X168570000Y-105511600D03*
X166030000Y-108051600D03*
X168570000Y-108051600D03*
X166030000Y-110591600D03*
X168570000Y-110591600D03*
X166030000Y-113131600D03*
X168570000Y-113131600D03*
%TD*%
D16*
%TO.C,conn26_0*%
X175743000Y-82651600D03*
D17*
X178283000Y-82651600D03*
X175743000Y-85191600D03*
X178283000Y-85191600D03*
X175743000Y-87731600D03*
X178283000Y-87731600D03*
X175743000Y-90271600D03*
X178283000Y-90271600D03*
X175743000Y-92811600D03*
X178283000Y-92811600D03*
X175743000Y-95351600D03*
X178283000Y-95351600D03*
X175743000Y-97891600D03*
X178283000Y-97891600D03*
X175743000Y-100431600D03*
X178283000Y-100431600D03*
X175743000Y-102971600D03*
X178283000Y-102971600D03*
X175743000Y-105511600D03*
X178283000Y-105511600D03*
X175743000Y-108051600D03*
X178283000Y-108051600D03*
X175743000Y-110591600D03*
X178283000Y-110591600D03*
X175743000Y-113131600D03*
X178283000Y-113131600D03*
%TD*%
D16*
%TO.C,MSA1*%
X151613000Y-111709000D03*
D17*
X151613000Y-109169000D03*
X154153000Y-111709000D03*
X154153000Y-109169000D03*
X156693000Y-111709000D03*
X156693000Y-109169000D03*
%TD*%
D16*
%TO.C,MSY1*%
X151968000Y-91211400D03*
D17*
X151968000Y-88671400D03*
X154508000Y-91211400D03*
X154508000Y-88671400D03*
X157048000Y-91211400D03*
X157048000Y-88671400D03*
%TD*%
%TO.C,MSZ1*%
X140335000Y-109195000D03*
X140335000Y-111735000D03*
X137795000Y-109195000D03*
X137795000Y-111735000D03*
X135255000Y-109195000D03*
D16*
X135255000Y-111735000D03*
%TD*%
%TO.C,MSX1*%
X135357000Y-91211400D03*
D17*
X135357000Y-88671400D03*
X137897000Y-91211400D03*
X137897000Y-88671400D03*
X140437000Y-91211400D03*
X140437000Y-88671400D03*
%TD*%
D22*
%TO.C,MP1584EN_DC-DC1*%
X143035800Y-47384200D03*
X143035800Y-49924200D03*
X143035800Y-57924200D03*
X143035800Y-60464200D03*
X125035800Y-57924200D03*
X125035800Y-60464200D03*
X125035800Y-49924200D03*
X125035800Y-47384200D03*
%TD*%
M02*
