M48
; DRILL file {KiCad 5.1.6-c6e7f7d~87~ubuntu20.04.1} date Mon Jun  6 22:59:35 2022
; FORMAT={-:-/ absolute / metric / decimal}
; #@! TF.CreationDate,2022-06-06T22:59:35+02:00
; #@! TF.GenerationSoftware,Kicad,Pcbnew,5.1.6-c6e7f7d~87~ubuntu20.04.1
; #@! TF.FileFunction,Plated,1,2,PTH
FMAT,2
METRIC
T1C0.900
T2C0.950
T3C1.000
T4C2.000
T5C3.200
%
G90
G05
T1
X2.672Y34.273
X3.881Y27.524
X6.155Y18.579
X8.292Y74.415
X9.493Y76.317
X12.003Y63.528
X12.244Y51.398
X18.852Y29.737
X20.656Y8.938
X21.263Y43.224
X21.758Y20.532
X22.472Y56.253
T2
X23.026Y82.481
X23.026Y79.981
X23.026Y77.481
X23.026Y74.981
T3
X9.124Y49.981
X9.124Y47.211
X9.124Y44.441
X9.124Y41.671
X9.124Y38.901
X9.124Y36.131
X9.124Y33.361
X9.124Y30.591
X9.124Y27.821
X9.124Y25.051
X9.124Y22.281
X9.124Y19.511
X9.124Y16.741
X11.964Y48.596
X11.964Y45.826
X11.964Y43.056
X11.964Y40.286
X11.964Y37.516
X11.964Y34.746
X11.964Y31.976
X11.964Y29.206
X11.964Y26.436
X11.964Y23.666
X11.964Y20.896
X11.964Y18.126
X13.026Y82.221
X13.026Y79.681
X13.026Y77.141
X13.026Y74.601
X13.026Y72.061
X13.026Y69.521
X13.026Y66.981
X15.566Y82.221
X15.566Y79.681
X15.566Y77.141
X15.566Y74.601
X15.566Y72.061
X15.566Y69.521
X15.566Y66.981
X3.026Y82.221
X3.026Y79.681
X3.026Y77.141
X3.026Y74.601
X3.026Y72.061
X3.026Y69.521
X3.026Y66.981
X5.566Y82.221
X5.566Y79.681
X5.566Y77.141
X5.566Y74.601
X5.566Y72.061
X5.566Y69.521
X5.566Y66.981
T4
X2.026Y87.981
X2.026Y1.981
X17.026Y1.981
X28.026Y87.981
T5
X10.544Y56.911
X10.544Y9.811
T0
M30
