%TF.GenerationSoftware,KiCad,Pcbnew,5.1.6-c6e7f7d~87~ubuntu20.04.1*%
%TF.CreationDate,2022-06-05T21:48:19+02:00*%
%TF.ProjectId,interface_up_left_side_arm,696e7465-7266-4616-9365-5f75705f6c65,rev?*%
%TF.SameCoordinates,PX770d850PY55ca120*%
%TF.FileFunction,Soldermask,Bot*%
%TF.FilePolarity,Negative*%
%FSLAX46Y46*%
G04 Gerber Fmt 4.6, Leading zero omitted, Abs format (unit mm)*
G04 Created by KiCad (PCBNEW 5.1.6-c6e7f7d~87~ubuntu20.04.1) date 2022-06-05 21:48:19*
%MOMM*%
%LPD*%
G01*
G04 APERTURE LIST*
%ADD10R,1.700000X1.700000*%
%ADD11C,1.700000*%
%ADD12C,4.100000*%
%ADD13R,1.800000X1.800000*%
%ADD14O,1.800000X1.800000*%
%ADD15O,1.800000X2.050000*%
G04 APERTURE END LIST*
D10*
%TO.C,J1*%
X50164080Y20858440D03*
D11*
X47394080Y20858440D03*
X44624080Y20858440D03*
X41854080Y20858440D03*
X39084080Y20858440D03*
X36314080Y20858440D03*
X33544080Y20858440D03*
X30774080Y20858440D03*
X28004080Y20858440D03*
X25234080Y20858440D03*
X22464080Y20858440D03*
X19694080Y20858440D03*
X16924080Y20858440D03*
X48779080Y18018440D03*
X46009080Y18018440D03*
X43239080Y18018440D03*
X40469080Y18018440D03*
X37699080Y18018440D03*
X34929080Y18018440D03*
X32159080Y18018440D03*
X29389080Y18018440D03*
X26619080Y18018440D03*
X23849080Y18018440D03*
X21079080Y18018440D03*
X18309080Y18018440D03*
D12*
X9994080Y19438440D03*
X57094080Y19438440D03*
%TD*%
D13*
%TO.C,J2*%
X67164080Y16956640D03*
D14*
X67164080Y14416640D03*
X69704080Y16956640D03*
X69704080Y14416640D03*
X72244080Y16956640D03*
X72244080Y14416640D03*
X74784080Y16956640D03*
X74784080Y14416640D03*
X77324080Y16956640D03*
X77324080Y14416640D03*
X79864080Y16956640D03*
X79864080Y14416640D03*
X82404080Y16956640D03*
X82404080Y14416640D03*
%TD*%
%TO.C,J3*%
X82404080Y24416640D03*
X82404080Y26956640D03*
X79864080Y24416640D03*
X79864080Y26956640D03*
X77324080Y24416640D03*
X77324080Y26956640D03*
X74784080Y24416640D03*
X74784080Y26956640D03*
X72244080Y24416640D03*
X72244080Y26956640D03*
X69704080Y24416640D03*
X69704080Y26956640D03*
X67164080Y24416640D03*
D13*
X67164080Y26956640D03*
%TD*%
%TO.C,J4*%
G36*
G01*
X74264080Y6196346D02*
X74264080Y7716934D01*
G75*
G02*
X74528786Y7981640I264706J0D01*
G01*
X75799374Y7981640D01*
G75*
G02*
X76064080Y7716934I0J-264706D01*
G01*
X76064080Y6196346D01*
G75*
G02*
X75799374Y5931640I-264706J0D01*
G01*
X74528786Y5931640D01*
G75*
G02*
X74264080Y6196346I0J264706D01*
G01*
G37*
D15*
X77664080Y6956640D03*
X80164080Y6956640D03*
X82664080Y6956640D03*
%TD*%
M02*
