%TF.GenerationSoftware,KiCad,Pcbnew,5.1.6-c6e7f7d~87~ubuntu20.04.1*%
%TF.CreationDate,2022-06-05T21:48:19+02:00*%
%TF.ProjectId,interface_up_left_side_arm,696e7465-7266-4616-9365-5f75705f6c65,rev?*%
%TF.SameCoordinates,PX770d850PY55ca120*%
%TF.FileFunction,Soldermask,Top*%
%TF.FilePolarity,Negative*%
%FSLAX46Y46*%
G04 Gerber Fmt 4.6, Leading zero omitted, Abs format (unit mm)*
G04 Created by KiCad (PCBNEW 5.1.6-c6e7f7d~87~ubuntu20.04.1) date 2022-06-05 21:48:19*
%MOMM*%
%LPD*%
G01*
G04 APERTURE LIST*
%ADD10R,1.700000X1.700000*%
%ADD11C,1.700000*%
%ADD12C,4.100000*%
%ADD13R,1.800000X1.800000*%
%ADD14O,1.800000X1.800000*%
%ADD15O,1.800000X2.050000*%
G04 APERTURE END LIST*
D10*
%TO.C,J1*%
X50164080Y20858440D03*
D11*
X47394080Y20858440D03*
X44624080Y20858440D03*
X41854080Y20858440D03*
X39084080Y20858440D03*
X36314080Y20858440D03*
X33544080Y20858440D03*
X30774080Y20858440D03*
X28004080Y20858440D03*
X25234080Y20858440D03*
X22464080Y20858440D03*
X19694080Y20858440D03*
X16924080Y20858440D03*
X48779080Y18018440D03*
X46009080Y18018440D03*
X43239080Y18018440D03*
X40469080Y18018440D03*
X37699080Y18018440D03*
X34929080Y18018440D03*
X32159080Y18018440D03*
X29389080Y18018440D03*
X26619080Y18018440D03*
X23849080Y18018440D03*
X21079080Y18018440D03*
X18309080Y18018440D03*
D12*
X9994080Y19438440D03*
X57094080Y19438440D03*
%TD*%
D13*
%TO.C,J2*%
X67164080Y16956640D03*
D14*
X67164080Y14416640D03*
X69704080Y16956640D03*
X69704080Y14416640D03*
X72244080Y16956640D03*
X72244080Y14416640D03*
X74784080Y16956640D03*
X74784080Y14416640D03*
X77324080Y16956640D03*
X77324080Y14416640D03*
X79864080Y16956640D03*
X79864080Y14416640D03*
X82404080Y16956640D03*
X82404080Y14416640D03*
%TD*%
%TO.C,J3*%
X82404080Y24416640D03*
X82404080Y26956640D03*
X79864080Y24416640D03*
X79864080Y26956640D03*
X77324080Y24416640D03*
X77324080Y26956640D03*
X74784080Y24416640D03*
X74784080Y26956640D03*
X72244080Y24416640D03*
X72244080Y26956640D03*
X69704080Y24416640D03*
X69704080Y26956640D03*
X67164080Y24416640D03*
D13*
X67164080Y26956640D03*
%TD*%
%TO.C,J4*%
G36*
G01*
X74264080Y6196346D02*
X74264080Y7716934D01*
G75*
G02*
X74528786Y7981640I264706J0D01*
G01*
X75799374Y7981640D01*
G75*
G02*
X76064080Y7716934I0J-264706D01*
G01*
X76064080Y6196346D01*
G75*
G02*
X75799374Y5931640I-264706J0D01*
G01*
X74528786Y5931640D01*
G75*
G02*
X74264080Y6196346I0J264706D01*
G01*
G37*
D15*
X77664080Y6956640D03*
X80164080Y6956640D03*
X82664080Y6956640D03*
%TD*%
%TO.C,D1*%
G36*
G01*
X4889080Y2451484D02*
X4889080Y3766396D01*
G75*
G02*
X5156624Y4033940I267544J0D01*
G01*
X6146536Y4033940D01*
G75*
G02*
X6414080Y3766396I0J-267544D01*
G01*
X6414080Y2451484D01*
G75*
G02*
X6146536Y2183940I-267544J0D01*
G01*
X5156624Y2183940D01*
G75*
G02*
X4889080Y2451484I0J267544D01*
G01*
G37*
G36*
G01*
X1914080Y2451484D02*
X1914080Y3766396D01*
G75*
G02*
X2181624Y4033940I267544J0D01*
G01*
X3171536Y4033940D01*
G75*
G02*
X3439080Y3766396I0J-267544D01*
G01*
X3439080Y2451484D01*
G75*
G02*
X3171536Y2183940I-267544J0D01*
G01*
X2181624Y2183940D01*
G75*
G02*
X1914080Y2451484I0J267544D01*
G01*
G37*
%TD*%
%TO.C,D2*%
G36*
G01*
X11889080Y2451484D02*
X11889080Y3766396D01*
G75*
G02*
X12156624Y4033940I267544J0D01*
G01*
X13146536Y4033940D01*
G75*
G02*
X13414080Y3766396I0J-267544D01*
G01*
X13414080Y2451484D01*
G75*
G02*
X13146536Y2183940I-267544J0D01*
G01*
X12156624Y2183940D01*
G75*
G02*
X11889080Y2451484I0J267544D01*
G01*
G37*
G36*
G01*
X8914080Y2451484D02*
X8914080Y3766396D01*
G75*
G02*
X9181624Y4033940I267544J0D01*
G01*
X10171536Y4033940D01*
G75*
G02*
X10439080Y3766396I0J-267544D01*
G01*
X10439080Y2451484D01*
G75*
G02*
X10171536Y2183940I-267544J0D01*
G01*
X9181624Y2183940D01*
G75*
G02*
X8914080Y2451484I0J267544D01*
G01*
G37*
%TD*%
%TO.C,D3*%
G36*
G01*
X18889080Y2451484D02*
X18889080Y3766396D01*
G75*
G02*
X19156624Y4033940I267544J0D01*
G01*
X20146536Y4033940D01*
G75*
G02*
X20414080Y3766396I0J-267544D01*
G01*
X20414080Y2451484D01*
G75*
G02*
X20146536Y2183940I-267544J0D01*
G01*
X19156624Y2183940D01*
G75*
G02*
X18889080Y2451484I0J267544D01*
G01*
G37*
G36*
G01*
X15914080Y2451484D02*
X15914080Y3766396D01*
G75*
G02*
X16181624Y4033940I267544J0D01*
G01*
X17171536Y4033940D01*
G75*
G02*
X17439080Y3766396I0J-267544D01*
G01*
X17439080Y2451484D01*
G75*
G02*
X17171536Y2183940I-267544J0D01*
G01*
X16181624Y2183940D01*
G75*
G02*
X15914080Y2451484I0J267544D01*
G01*
G37*
%TD*%
%TO.C,D4*%
G36*
G01*
X22914080Y2451484D02*
X22914080Y3766396D01*
G75*
G02*
X23181624Y4033940I267544J0D01*
G01*
X24171536Y4033940D01*
G75*
G02*
X24439080Y3766396I0J-267544D01*
G01*
X24439080Y2451484D01*
G75*
G02*
X24171536Y2183940I-267544J0D01*
G01*
X23181624Y2183940D01*
G75*
G02*
X22914080Y2451484I0J267544D01*
G01*
G37*
G36*
G01*
X25889080Y2451484D02*
X25889080Y3766396D01*
G75*
G02*
X26156624Y4033940I267544J0D01*
G01*
X27146536Y4033940D01*
G75*
G02*
X27414080Y3766396I0J-267544D01*
G01*
X27414080Y2451484D01*
G75*
G02*
X27146536Y2183940I-267544J0D01*
G01*
X26156624Y2183940D01*
G75*
G02*
X25889080Y2451484I0J267544D01*
G01*
G37*
%TD*%
%TO.C,D5*%
G36*
G01*
X29914080Y2451484D02*
X29914080Y3766396D01*
G75*
G02*
X30181624Y4033940I267544J0D01*
G01*
X31171536Y4033940D01*
G75*
G02*
X31439080Y3766396I0J-267544D01*
G01*
X31439080Y2451484D01*
G75*
G02*
X31171536Y2183940I-267544J0D01*
G01*
X30181624Y2183940D01*
G75*
G02*
X29914080Y2451484I0J267544D01*
G01*
G37*
G36*
G01*
X32889080Y2451484D02*
X32889080Y3766396D01*
G75*
G02*
X33156624Y4033940I267544J0D01*
G01*
X34146536Y4033940D01*
G75*
G02*
X34414080Y3766396I0J-267544D01*
G01*
X34414080Y2451484D01*
G75*
G02*
X34146536Y2183940I-267544J0D01*
G01*
X33156624Y2183940D01*
G75*
G02*
X32889080Y2451484I0J267544D01*
G01*
G37*
%TD*%
%TO.C,D6*%
G36*
G01*
X39889080Y2451484D02*
X39889080Y3766396D01*
G75*
G02*
X40156624Y4033940I267544J0D01*
G01*
X41146536Y4033940D01*
G75*
G02*
X41414080Y3766396I0J-267544D01*
G01*
X41414080Y2451484D01*
G75*
G02*
X41146536Y2183940I-267544J0D01*
G01*
X40156624Y2183940D01*
G75*
G02*
X39889080Y2451484I0J267544D01*
G01*
G37*
G36*
G01*
X36914080Y2451484D02*
X36914080Y3766396D01*
G75*
G02*
X37181624Y4033940I267544J0D01*
G01*
X38171536Y4033940D01*
G75*
G02*
X38439080Y3766396I0J-267544D01*
G01*
X38439080Y2451484D01*
G75*
G02*
X38171536Y2183940I-267544J0D01*
G01*
X37181624Y2183940D01*
G75*
G02*
X36914080Y2451484I0J267544D01*
G01*
G37*
%TD*%
%TO.C,D7*%
G36*
G01*
X43914080Y2451484D02*
X43914080Y3766396D01*
G75*
G02*
X44181624Y4033940I267544J0D01*
G01*
X45171536Y4033940D01*
G75*
G02*
X45439080Y3766396I0J-267544D01*
G01*
X45439080Y2451484D01*
G75*
G02*
X45171536Y2183940I-267544J0D01*
G01*
X44181624Y2183940D01*
G75*
G02*
X43914080Y2451484I0J267544D01*
G01*
G37*
G36*
G01*
X46889080Y2451484D02*
X46889080Y3766396D01*
G75*
G02*
X47156624Y4033940I267544J0D01*
G01*
X48146536Y4033940D01*
G75*
G02*
X48414080Y3766396I0J-267544D01*
G01*
X48414080Y2451484D01*
G75*
G02*
X48146536Y2183940I-267544J0D01*
G01*
X47156624Y2183940D01*
G75*
G02*
X46889080Y2451484I0J267544D01*
G01*
G37*
%TD*%
%TO.C,D8*%
G36*
G01*
X50914080Y2451484D02*
X50914080Y3766396D01*
G75*
G02*
X51181624Y4033940I267544J0D01*
G01*
X52171536Y4033940D01*
G75*
G02*
X52439080Y3766396I0J-267544D01*
G01*
X52439080Y2451484D01*
G75*
G02*
X52171536Y2183940I-267544J0D01*
G01*
X51181624Y2183940D01*
G75*
G02*
X50914080Y2451484I0J267544D01*
G01*
G37*
G36*
G01*
X53889080Y2451484D02*
X53889080Y3766396D01*
G75*
G02*
X54156624Y4033940I267544J0D01*
G01*
X55146536Y4033940D01*
G75*
G02*
X55414080Y3766396I0J-267544D01*
G01*
X55414080Y2451484D01*
G75*
G02*
X55146536Y2183940I-267544J0D01*
G01*
X54156624Y2183940D01*
G75*
G02*
X53889080Y2451484I0J267544D01*
G01*
G37*
%TD*%
%TO.C,D9*%
G36*
G01*
X60889080Y2451484D02*
X60889080Y3766396D01*
G75*
G02*
X61156624Y4033940I267544J0D01*
G01*
X62146536Y4033940D01*
G75*
G02*
X62414080Y3766396I0J-267544D01*
G01*
X62414080Y2451484D01*
G75*
G02*
X62146536Y2183940I-267544J0D01*
G01*
X61156624Y2183940D01*
G75*
G02*
X60889080Y2451484I0J267544D01*
G01*
G37*
G36*
G01*
X57914080Y2451484D02*
X57914080Y3766396D01*
G75*
G02*
X58181624Y4033940I267544J0D01*
G01*
X59171536Y4033940D01*
G75*
G02*
X59439080Y3766396I0J-267544D01*
G01*
X59439080Y2451484D01*
G75*
G02*
X59171536Y2183940I-267544J0D01*
G01*
X58181624Y2183940D01*
G75*
G02*
X57914080Y2451484I0J267544D01*
G01*
G37*
%TD*%
%TO.C,D10*%
G36*
G01*
X64914080Y2451484D02*
X64914080Y3766396D01*
G75*
G02*
X65181624Y4033940I267544J0D01*
G01*
X66171536Y4033940D01*
G75*
G02*
X66439080Y3766396I0J-267544D01*
G01*
X66439080Y2451484D01*
G75*
G02*
X66171536Y2183940I-267544J0D01*
G01*
X65181624Y2183940D01*
G75*
G02*
X64914080Y2451484I0J267544D01*
G01*
G37*
G36*
G01*
X67889080Y2451484D02*
X67889080Y3766396D01*
G75*
G02*
X68156624Y4033940I267544J0D01*
G01*
X69146536Y4033940D01*
G75*
G02*
X69414080Y3766396I0J-267544D01*
G01*
X69414080Y2451484D01*
G75*
G02*
X69146536Y2183940I-267544J0D01*
G01*
X68156624Y2183940D01*
G75*
G02*
X67889080Y2451484I0J267544D01*
G01*
G37*
%TD*%
%TO.C,R1*%
G36*
G01*
X2689080Y6441490D02*
X2689080Y7403990D01*
G75*
G02*
X2957830Y7672740I268750J0D01*
G01*
X3495330Y7672740D01*
G75*
G02*
X3764080Y7403990I0J-268750D01*
G01*
X3764080Y6441490D01*
G75*
G02*
X3495330Y6172740I-268750J0D01*
G01*
X2957830Y6172740D01*
G75*
G02*
X2689080Y6441490I0J268750D01*
G01*
G37*
G36*
G01*
X4564080Y6441490D02*
X4564080Y7403990D01*
G75*
G02*
X4832830Y7672740I268750J0D01*
G01*
X5370330Y7672740D01*
G75*
G02*
X5639080Y7403990I0J-268750D01*
G01*
X5639080Y6441490D01*
G75*
G02*
X5370330Y6172740I-268750J0D01*
G01*
X4832830Y6172740D01*
G75*
G02*
X4564080Y6441490I0J268750D01*
G01*
G37*
%TD*%
%TO.C,R2*%
G36*
G01*
X11564080Y6441490D02*
X11564080Y7403990D01*
G75*
G02*
X11832830Y7672740I268750J0D01*
G01*
X12370330Y7672740D01*
G75*
G02*
X12639080Y7403990I0J-268750D01*
G01*
X12639080Y6441490D01*
G75*
G02*
X12370330Y6172740I-268750J0D01*
G01*
X11832830Y6172740D01*
G75*
G02*
X11564080Y6441490I0J268750D01*
G01*
G37*
G36*
G01*
X9689080Y6441490D02*
X9689080Y7403990D01*
G75*
G02*
X9957830Y7672740I268750J0D01*
G01*
X10495330Y7672740D01*
G75*
G02*
X10764080Y7403990I0J-268750D01*
G01*
X10764080Y6441490D01*
G75*
G02*
X10495330Y6172740I-268750J0D01*
G01*
X9957830Y6172740D01*
G75*
G02*
X9689080Y6441490I0J268750D01*
G01*
G37*
%TD*%
%TO.C,R3*%
G36*
G01*
X18564080Y6441490D02*
X18564080Y7403990D01*
G75*
G02*
X18832830Y7672740I268750J0D01*
G01*
X19370330Y7672740D01*
G75*
G02*
X19639080Y7403990I0J-268750D01*
G01*
X19639080Y6441490D01*
G75*
G02*
X19370330Y6172740I-268750J0D01*
G01*
X18832830Y6172740D01*
G75*
G02*
X18564080Y6441490I0J268750D01*
G01*
G37*
G36*
G01*
X16689080Y6441490D02*
X16689080Y7403990D01*
G75*
G02*
X16957830Y7672740I268750J0D01*
G01*
X17495330Y7672740D01*
G75*
G02*
X17764080Y7403990I0J-268750D01*
G01*
X17764080Y6441490D01*
G75*
G02*
X17495330Y6172740I-268750J0D01*
G01*
X16957830Y6172740D01*
G75*
G02*
X16689080Y6441490I0J268750D01*
G01*
G37*
%TD*%
%TO.C,R4*%
G36*
G01*
X23689080Y6441490D02*
X23689080Y7403990D01*
G75*
G02*
X23957830Y7672740I268750J0D01*
G01*
X24495330Y7672740D01*
G75*
G02*
X24764080Y7403990I0J-268750D01*
G01*
X24764080Y6441490D01*
G75*
G02*
X24495330Y6172740I-268750J0D01*
G01*
X23957830Y6172740D01*
G75*
G02*
X23689080Y6441490I0J268750D01*
G01*
G37*
G36*
G01*
X25564080Y6441490D02*
X25564080Y7403990D01*
G75*
G02*
X25832830Y7672740I268750J0D01*
G01*
X26370330Y7672740D01*
G75*
G02*
X26639080Y7403990I0J-268750D01*
G01*
X26639080Y6441490D01*
G75*
G02*
X26370330Y6172740I-268750J0D01*
G01*
X25832830Y6172740D01*
G75*
G02*
X25564080Y6441490I0J268750D01*
G01*
G37*
%TD*%
%TO.C,R5*%
G36*
G01*
X30689080Y6441490D02*
X30689080Y7403990D01*
G75*
G02*
X30957830Y7672740I268750J0D01*
G01*
X31495330Y7672740D01*
G75*
G02*
X31764080Y7403990I0J-268750D01*
G01*
X31764080Y6441490D01*
G75*
G02*
X31495330Y6172740I-268750J0D01*
G01*
X30957830Y6172740D01*
G75*
G02*
X30689080Y6441490I0J268750D01*
G01*
G37*
G36*
G01*
X32564080Y6441490D02*
X32564080Y7403990D01*
G75*
G02*
X32832830Y7672740I268750J0D01*
G01*
X33370330Y7672740D01*
G75*
G02*
X33639080Y7403990I0J-268750D01*
G01*
X33639080Y6441490D01*
G75*
G02*
X33370330Y6172740I-268750J0D01*
G01*
X32832830Y6172740D01*
G75*
G02*
X32564080Y6441490I0J268750D01*
G01*
G37*
%TD*%
%TO.C,R6*%
G36*
G01*
X39564080Y6441490D02*
X39564080Y7403990D01*
G75*
G02*
X39832830Y7672740I268750J0D01*
G01*
X40370330Y7672740D01*
G75*
G02*
X40639080Y7403990I0J-268750D01*
G01*
X40639080Y6441490D01*
G75*
G02*
X40370330Y6172740I-268750J0D01*
G01*
X39832830Y6172740D01*
G75*
G02*
X39564080Y6441490I0J268750D01*
G01*
G37*
G36*
G01*
X37689080Y6441490D02*
X37689080Y7403990D01*
G75*
G02*
X37957830Y7672740I268750J0D01*
G01*
X38495330Y7672740D01*
G75*
G02*
X38764080Y7403990I0J-268750D01*
G01*
X38764080Y6441490D01*
G75*
G02*
X38495330Y6172740I-268750J0D01*
G01*
X37957830Y6172740D01*
G75*
G02*
X37689080Y6441490I0J268750D01*
G01*
G37*
%TD*%
%TO.C,R7*%
G36*
G01*
X44689080Y6441490D02*
X44689080Y7403990D01*
G75*
G02*
X44957830Y7672740I268750J0D01*
G01*
X45495330Y7672740D01*
G75*
G02*
X45764080Y7403990I0J-268750D01*
G01*
X45764080Y6441490D01*
G75*
G02*
X45495330Y6172740I-268750J0D01*
G01*
X44957830Y6172740D01*
G75*
G02*
X44689080Y6441490I0J268750D01*
G01*
G37*
G36*
G01*
X46564080Y6441490D02*
X46564080Y7403990D01*
G75*
G02*
X46832830Y7672740I268750J0D01*
G01*
X47370330Y7672740D01*
G75*
G02*
X47639080Y7403990I0J-268750D01*
G01*
X47639080Y6441490D01*
G75*
G02*
X47370330Y6172740I-268750J0D01*
G01*
X46832830Y6172740D01*
G75*
G02*
X46564080Y6441490I0J268750D01*
G01*
G37*
%TD*%
%TO.C,R8*%
G36*
G01*
X53564080Y6441490D02*
X53564080Y7403990D01*
G75*
G02*
X53832830Y7672740I268750J0D01*
G01*
X54370330Y7672740D01*
G75*
G02*
X54639080Y7403990I0J-268750D01*
G01*
X54639080Y6441490D01*
G75*
G02*
X54370330Y6172740I-268750J0D01*
G01*
X53832830Y6172740D01*
G75*
G02*
X53564080Y6441490I0J268750D01*
G01*
G37*
G36*
G01*
X51689080Y6441490D02*
X51689080Y7403990D01*
G75*
G02*
X51957830Y7672740I268750J0D01*
G01*
X52495330Y7672740D01*
G75*
G02*
X52764080Y7403990I0J-268750D01*
G01*
X52764080Y6441490D01*
G75*
G02*
X52495330Y6172740I-268750J0D01*
G01*
X51957830Y6172740D01*
G75*
G02*
X51689080Y6441490I0J268750D01*
G01*
G37*
%TD*%
%TO.C,R9*%
G36*
G01*
X58689080Y6441490D02*
X58689080Y7403990D01*
G75*
G02*
X58957830Y7672740I268750J0D01*
G01*
X59495330Y7672740D01*
G75*
G02*
X59764080Y7403990I0J-268750D01*
G01*
X59764080Y6441490D01*
G75*
G02*
X59495330Y6172740I-268750J0D01*
G01*
X58957830Y6172740D01*
G75*
G02*
X58689080Y6441490I0J268750D01*
G01*
G37*
G36*
G01*
X60564080Y6441490D02*
X60564080Y7403990D01*
G75*
G02*
X60832830Y7672740I268750J0D01*
G01*
X61370330Y7672740D01*
G75*
G02*
X61639080Y7403990I0J-268750D01*
G01*
X61639080Y6441490D01*
G75*
G02*
X61370330Y6172740I-268750J0D01*
G01*
X60832830Y6172740D01*
G75*
G02*
X60564080Y6441490I0J268750D01*
G01*
G37*
%TD*%
%TO.C,R10*%
G36*
G01*
X67564080Y6441490D02*
X67564080Y7403990D01*
G75*
G02*
X67832830Y7672740I268750J0D01*
G01*
X68370330Y7672740D01*
G75*
G02*
X68639080Y7403990I0J-268750D01*
G01*
X68639080Y6441490D01*
G75*
G02*
X68370330Y6172740I-268750J0D01*
G01*
X67832830Y6172740D01*
G75*
G02*
X67564080Y6441490I0J268750D01*
G01*
G37*
G36*
G01*
X65689080Y6441490D02*
X65689080Y7403990D01*
G75*
G02*
X65957830Y7672740I268750J0D01*
G01*
X66495330Y7672740D01*
G75*
G02*
X66764080Y7403990I0J-268750D01*
G01*
X66764080Y6441490D01*
G75*
G02*
X66495330Y6172740I-268750J0D01*
G01*
X65957830Y6172740D01*
G75*
G02*
X65689080Y6441490I0J268750D01*
G01*
G37*
%TD*%
M02*
