%TF.GenerationSoftware,KiCad,Pcbnew,5.1.6-c6e7f7d~87~ubuntu20.04.1*%
%TF.CreationDate,2022-06-05T21:48:19+02:00*%
%TF.ProjectId,interface_up_left_side_arm,696e7465-7266-4616-9365-5f75705f6c65,rev?*%
%TF.SameCoordinates,PX770d850PY55ca120*%
%TF.FileFunction,Paste,Top*%
%TF.FilePolarity,Positive*%
%FSLAX46Y46*%
G04 Gerber Fmt 4.6, Leading zero omitted, Abs format (unit mm)*
G04 Created by KiCad (PCBNEW 5.1.6-c6e7f7d~87~ubuntu20.04.1) date 2022-06-05 21:48:19*
%MOMM*%
%LPD*%
G01*
G04 APERTURE LIST*
G04 APERTURE END LIST*
%TO.C,D1*%
G36*
G01*
X4939080Y2483940D02*
X4939080Y3733940D01*
G75*
G02*
X5189080Y3983940I250000J0D01*
G01*
X6114080Y3983940D01*
G75*
G02*
X6364080Y3733940I0J-250000D01*
G01*
X6364080Y2483940D01*
G75*
G02*
X6114080Y2233940I-250000J0D01*
G01*
X5189080Y2233940D01*
G75*
G02*
X4939080Y2483940I0J250000D01*
G01*
G37*
G36*
G01*
X1964080Y2483940D02*
X1964080Y3733940D01*
G75*
G02*
X2214080Y3983940I250000J0D01*
G01*
X3139080Y3983940D01*
G75*
G02*
X3389080Y3733940I0J-250000D01*
G01*
X3389080Y2483940D01*
G75*
G02*
X3139080Y2233940I-250000J0D01*
G01*
X2214080Y2233940D01*
G75*
G02*
X1964080Y2483940I0J250000D01*
G01*
G37*
%TD*%
%TO.C,D2*%
G36*
G01*
X11939080Y2483940D02*
X11939080Y3733940D01*
G75*
G02*
X12189080Y3983940I250000J0D01*
G01*
X13114080Y3983940D01*
G75*
G02*
X13364080Y3733940I0J-250000D01*
G01*
X13364080Y2483940D01*
G75*
G02*
X13114080Y2233940I-250000J0D01*
G01*
X12189080Y2233940D01*
G75*
G02*
X11939080Y2483940I0J250000D01*
G01*
G37*
G36*
G01*
X8964080Y2483940D02*
X8964080Y3733940D01*
G75*
G02*
X9214080Y3983940I250000J0D01*
G01*
X10139080Y3983940D01*
G75*
G02*
X10389080Y3733940I0J-250000D01*
G01*
X10389080Y2483940D01*
G75*
G02*
X10139080Y2233940I-250000J0D01*
G01*
X9214080Y2233940D01*
G75*
G02*
X8964080Y2483940I0J250000D01*
G01*
G37*
%TD*%
%TO.C,D3*%
G36*
G01*
X18939080Y2483940D02*
X18939080Y3733940D01*
G75*
G02*
X19189080Y3983940I250000J0D01*
G01*
X20114080Y3983940D01*
G75*
G02*
X20364080Y3733940I0J-250000D01*
G01*
X20364080Y2483940D01*
G75*
G02*
X20114080Y2233940I-250000J0D01*
G01*
X19189080Y2233940D01*
G75*
G02*
X18939080Y2483940I0J250000D01*
G01*
G37*
G36*
G01*
X15964080Y2483940D02*
X15964080Y3733940D01*
G75*
G02*
X16214080Y3983940I250000J0D01*
G01*
X17139080Y3983940D01*
G75*
G02*
X17389080Y3733940I0J-250000D01*
G01*
X17389080Y2483940D01*
G75*
G02*
X17139080Y2233940I-250000J0D01*
G01*
X16214080Y2233940D01*
G75*
G02*
X15964080Y2483940I0J250000D01*
G01*
G37*
%TD*%
%TO.C,D4*%
G36*
G01*
X22964080Y2483940D02*
X22964080Y3733940D01*
G75*
G02*
X23214080Y3983940I250000J0D01*
G01*
X24139080Y3983940D01*
G75*
G02*
X24389080Y3733940I0J-250000D01*
G01*
X24389080Y2483940D01*
G75*
G02*
X24139080Y2233940I-250000J0D01*
G01*
X23214080Y2233940D01*
G75*
G02*
X22964080Y2483940I0J250000D01*
G01*
G37*
G36*
G01*
X25939080Y2483940D02*
X25939080Y3733940D01*
G75*
G02*
X26189080Y3983940I250000J0D01*
G01*
X27114080Y3983940D01*
G75*
G02*
X27364080Y3733940I0J-250000D01*
G01*
X27364080Y2483940D01*
G75*
G02*
X27114080Y2233940I-250000J0D01*
G01*
X26189080Y2233940D01*
G75*
G02*
X25939080Y2483940I0J250000D01*
G01*
G37*
%TD*%
%TO.C,D5*%
G36*
G01*
X29964080Y2483940D02*
X29964080Y3733940D01*
G75*
G02*
X30214080Y3983940I250000J0D01*
G01*
X31139080Y3983940D01*
G75*
G02*
X31389080Y3733940I0J-250000D01*
G01*
X31389080Y2483940D01*
G75*
G02*
X31139080Y2233940I-250000J0D01*
G01*
X30214080Y2233940D01*
G75*
G02*
X29964080Y2483940I0J250000D01*
G01*
G37*
G36*
G01*
X32939080Y2483940D02*
X32939080Y3733940D01*
G75*
G02*
X33189080Y3983940I250000J0D01*
G01*
X34114080Y3983940D01*
G75*
G02*
X34364080Y3733940I0J-250000D01*
G01*
X34364080Y2483940D01*
G75*
G02*
X34114080Y2233940I-250000J0D01*
G01*
X33189080Y2233940D01*
G75*
G02*
X32939080Y2483940I0J250000D01*
G01*
G37*
%TD*%
%TO.C,D6*%
G36*
G01*
X39939080Y2483940D02*
X39939080Y3733940D01*
G75*
G02*
X40189080Y3983940I250000J0D01*
G01*
X41114080Y3983940D01*
G75*
G02*
X41364080Y3733940I0J-250000D01*
G01*
X41364080Y2483940D01*
G75*
G02*
X41114080Y2233940I-250000J0D01*
G01*
X40189080Y2233940D01*
G75*
G02*
X39939080Y2483940I0J250000D01*
G01*
G37*
G36*
G01*
X36964080Y2483940D02*
X36964080Y3733940D01*
G75*
G02*
X37214080Y3983940I250000J0D01*
G01*
X38139080Y3983940D01*
G75*
G02*
X38389080Y3733940I0J-250000D01*
G01*
X38389080Y2483940D01*
G75*
G02*
X38139080Y2233940I-250000J0D01*
G01*
X37214080Y2233940D01*
G75*
G02*
X36964080Y2483940I0J250000D01*
G01*
G37*
%TD*%
%TO.C,D7*%
G36*
G01*
X43964080Y2483940D02*
X43964080Y3733940D01*
G75*
G02*
X44214080Y3983940I250000J0D01*
G01*
X45139080Y3983940D01*
G75*
G02*
X45389080Y3733940I0J-250000D01*
G01*
X45389080Y2483940D01*
G75*
G02*
X45139080Y2233940I-250000J0D01*
G01*
X44214080Y2233940D01*
G75*
G02*
X43964080Y2483940I0J250000D01*
G01*
G37*
G36*
G01*
X46939080Y2483940D02*
X46939080Y3733940D01*
G75*
G02*
X47189080Y3983940I250000J0D01*
G01*
X48114080Y3983940D01*
G75*
G02*
X48364080Y3733940I0J-250000D01*
G01*
X48364080Y2483940D01*
G75*
G02*
X48114080Y2233940I-250000J0D01*
G01*
X47189080Y2233940D01*
G75*
G02*
X46939080Y2483940I0J250000D01*
G01*
G37*
%TD*%
%TO.C,D8*%
G36*
G01*
X50964080Y2483940D02*
X50964080Y3733940D01*
G75*
G02*
X51214080Y3983940I250000J0D01*
G01*
X52139080Y3983940D01*
G75*
G02*
X52389080Y3733940I0J-250000D01*
G01*
X52389080Y2483940D01*
G75*
G02*
X52139080Y2233940I-250000J0D01*
G01*
X51214080Y2233940D01*
G75*
G02*
X50964080Y2483940I0J250000D01*
G01*
G37*
G36*
G01*
X53939080Y2483940D02*
X53939080Y3733940D01*
G75*
G02*
X54189080Y3983940I250000J0D01*
G01*
X55114080Y3983940D01*
G75*
G02*
X55364080Y3733940I0J-250000D01*
G01*
X55364080Y2483940D01*
G75*
G02*
X55114080Y2233940I-250000J0D01*
G01*
X54189080Y2233940D01*
G75*
G02*
X53939080Y2483940I0J250000D01*
G01*
G37*
%TD*%
%TO.C,D9*%
G36*
G01*
X60939080Y2483940D02*
X60939080Y3733940D01*
G75*
G02*
X61189080Y3983940I250000J0D01*
G01*
X62114080Y3983940D01*
G75*
G02*
X62364080Y3733940I0J-250000D01*
G01*
X62364080Y2483940D01*
G75*
G02*
X62114080Y2233940I-250000J0D01*
G01*
X61189080Y2233940D01*
G75*
G02*
X60939080Y2483940I0J250000D01*
G01*
G37*
G36*
G01*
X57964080Y2483940D02*
X57964080Y3733940D01*
G75*
G02*
X58214080Y3983940I250000J0D01*
G01*
X59139080Y3983940D01*
G75*
G02*
X59389080Y3733940I0J-250000D01*
G01*
X59389080Y2483940D01*
G75*
G02*
X59139080Y2233940I-250000J0D01*
G01*
X58214080Y2233940D01*
G75*
G02*
X57964080Y2483940I0J250000D01*
G01*
G37*
%TD*%
%TO.C,D10*%
G36*
G01*
X64964080Y2483940D02*
X64964080Y3733940D01*
G75*
G02*
X65214080Y3983940I250000J0D01*
G01*
X66139080Y3983940D01*
G75*
G02*
X66389080Y3733940I0J-250000D01*
G01*
X66389080Y2483940D01*
G75*
G02*
X66139080Y2233940I-250000J0D01*
G01*
X65214080Y2233940D01*
G75*
G02*
X64964080Y2483940I0J250000D01*
G01*
G37*
G36*
G01*
X67939080Y2483940D02*
X67939080Y3733940D01*
G75*
G02*
X68189080Y3983940I250000J0D01*
G01*
X69114080Y3983940D01*
G75*
G02*
X69364080Y3733940I0J-250000D01*
G01*
X69364080Y2483940D01*
G75*
G02*
X69114080Y2233940I-250000J0D01*
G01*
X68189080Y2233940D01*
G75*
G02*
X67939080Y2483940I0J250000D01*
G01*
G37*
%TD*%
%TO.C,R1*%
G36*
G01*
X2739080Y6466490D02*
X2739080Y7378990D01*
G75*
G02*
X2982830Y7622740I243750J0D01*
G01*
X3470330Y7622740D01*
G75*
G02*
X3714080Y7378990I0J-243750D01*
G01*
X3714080Y6466490D01*
G75*
G02*
X3470330Y6222740I-243750J0D01*
G01*
X2982830Y6222740D01*
G75*
G02*
X2739080Y6466490I0J243750D01*
G01*
G37*
G36*
G01*
X4614080Y6466490D02*
X4614080Y7378990D01*
G75*
G02*
X4857830Y7622740I243750J0D01*
G01*
X5345330Y7622740D01*
G75*
G02*
X5589080Y7378990I0J-243750D01*
G01*
X5589080Y6466490D01*
G75*
G02*
X5345330Y6222740I-243750J0D01*
G01*
X4857830Y6222740D01*
G75*
G02*
X4614080Y6466490I0J243750D01*
G01*
G37*
%TD*%
%TO.C,R2*%
G36*
G01*
X11614080Y6466490D02*
X11614080Y7378990D01*
G75*
G02*
X11857830Y7622740I243750J0D01*
G01*
X12345330Y7622740D01*
G75*
G02*
X12589080Y7378990I0J-243750D01*
G01*
X12589080Y6466490D01*
G75*
G02*
X12345330Y6222740I-243750J0D01*
G01*
X11857830Y6222740D01*
G75*
G02*
X11614080Y6466490I0J243750D01*
G01*
G37*
G36*
G01*
X9739080Y6466490D02*
X9739080Y7378990D01*
G75*
G02*
X9982830Y7622740I243750J0D01*
G01*
X10470330Y7622740D01*
G75*
G02*
X10714080Y7378990I0J-243750D01*
G01*
X10714080Y6466490D01*
G75*
G02*
X10470330Y6222740I-243750J0D01*
G01*
X9982830Y6222740D01*
G75*
G02*
X9739080Y6466490I0J243750D01*
G01*
G37*
%TD*%
%TO.C,R3*%
G36*
G01*
X18614080Y6466490D02*
X18614080Y7378990D01*
G75*
G02*
X18857830Y7622740I243750J0D01*
G01*
X19345330Y7622740D01*
G75*
G02*
X19589080Y7378990I0J-243750D01*
G01*
X19589080Y6466490D01*
G75*
G02*
X19345330Y6222740I-243750J0D01*
G01*
X18857830Y6222740D01*
G75*
G02*
X18614080Y6466490I0J243750D01*
G01*
G37*
G36*
G01*
X16739080Y6466490D02*
X16739080Y7378990D01*
G75*
G02*
X16982830Y7622740I243750J0D01*
G01*
X17470330Y7622740D01*
G75*
G02*
X17714080Y7378990I0J-243750D01*
G01*
X17714080Y6466490D01*
G75*
G02*
X17470330Y6222740I-243750J0D01*
G01*
X16982830Y6222740D01*
G75*
G02*
X16739080Y6466490I0J243750D01*
G01*
G37*
%TD*%
%TO.C,R4*%
G36*
G01*
X23739080Y6466490D02*
X23739080Y7378990D01*
G75*
G02*
X23982830Y7622740I243750J0D01*
G01*
X24470330Y7622740D01*
G75*
G02*
X24714080Y7378990I0J-243750D01*
G01*
X24714080Y6466490D01*
G75*
G02*
X24470330Y6222740I-243750J0D01*
G01*
X23982830Y6222740D01*
G75*
G02*
X23739080Y6466490I0J243750D01*
G01*
G37*
G36*
G01*
X25614080Y6466490D02*
X25614080Y7378990D01*
G75*
G02*
X25857830Y7622740I243750J0D01*
G01*
X26345330Y7622740D01*
G75*
G02*
X26589080Y7378990I0J-243750D01*
G01*
X26589080Y6466490D01*
G75*
G02*
X26345330Y6222740I-243750J0D01*
G01*
X25857830Y6222740D01*
G75*
G02*
X25614080Y6466490I0J243750D01*
G01*
G37*
%TD*%
%TO.C,R5*%
G36*
G01*
X30739080Y6466490D02*
X30739080Y7378990D01*
G75*
G02*
X30982830Y7622740I243750J0D01*
G01*
X31470330Y7622740D01*
G75*
G02*
X31714080Y7378990I0J-243750D01*
G01*
X31714080Y6466490D01*
G75*
G02*
X31470330Y6222740I-243750J0D01*
G01*
X30982830Y6222740D01*
G75*
G02*
X30739080Y6466490I0J243750D01*
G01*
G37*
G36*
G01*
X32614080Y6466490D02*
X32614080Y7378990D01*
G75*
G02*
X32857830Y7622740I243750J0D01*
G01*
X33345330Y7622740D01*
G75*
G02*
X33589080Y7378990I0J-243750D01*
G01*
X33589080Y6466490D01*
G75*
G02*
X33345330Y6222740I-243750J0D01*
G01*
X32857830Y6222740D01*
G75*
G02*
X32614080Y6466490I0J243750D01*
G01*
G37*
%TD*%
%TO.C,R6*%
G36*
G01*
X39614080Y6466490D02*
X39614080Y7378990D01*
G75*
G02*
X39857830Y7622740I243750J0D01*
G01*
X40345330Y7622740D01*
G75*
G02*
X40589080Y7378990I0J-243750D01*
G01*
X40589080Y6466490D01*
G75*
G02*
X40345330Y6222740I-243750J0D01*
G01*
X39857830Y6222740D01*
G75*
G02*
X39614080Y6466490I0J243750D01*
G01*
G37*
G36*
G01*
X37739080Y6466490D02*
X37739080Y7378990D01*
G75*
G02*
X37982830Y7622740I243750J0D01*
G01*
X38470330Y7622740D01*
G75*
G02*
X38714080Y7378990I0J-243750D01*
G01*
X38714080Y6466490D01*
G75*
G02*
X38470330Y6222740I-243750J0D01*
G01*
X37982830Y6222740D01*
G75*
G02*
X37739080Y6466490I0J243750D01*
G01*
G37*
%TD*%
%TO.C,R7*%
G36*
G01*
X44739080Y6466490D02*
X44739080Y7378990D01*
G75*
G02*
X44982830Y7622740I243750J0D01*
G01*
X45470330Y7622740D01*
G75*
G02*
X45714080Y7378990I0J-243750D01*
G01*
X45714080Y6466490D01*
G75*
G02*
X45470330Y6222740I-243750J0D01*
G01*
X44982830Y6222740D01*
G75*
G02*
X44739080Y6466490I0J243750D01*
G01*
G37*
G36*
G01*
X46614080Y6466490D02*
X46614080Y7378990D01*
G75*
G02*
X46857830Y7622740I243750J0D01*
G01*
X47345330Y7622740D01*
G75*
G02*
X47589080Y7378990I0J-243750D01*
G01*
X47589080Y6466490D01*
G75*
G02*
X47345330Y6222740I-243750J0D01*
G01*
X46857830Y6222740D01*
G75*
G02*
X46614080Y6466490I0J243750D01*
G01*
G37*
%TD*%
%TO.C,R8*%
G36*
G01*
X53614080Y6466490D02*
X53614080Y7378990D01*
G75*
G02*
X53857830Y7622740I243750J0D01*
G01*
X54345330Y7622740D01*
G75*
G02*
X54589080Y7378990I0J-243750D01*
G01*
X54589080Y6466490D01*
G75*
G02*
X54345330Y6222740I-243750J0D01*
G01*
X53857830Y6222740D01*
G75*
G02*
X53614080Y6466490I0J243750D01*
G01*
G37*
G36*
G01*
X51739080Y6466490D02*
X51739080Y7378990D01*
G75*
G02*
X51982830Y7622740I243750J0D01*
G01*
X52470330Y7622740D01*
G75*
G02*
X52714080Y7378990I0J-243750D01*
G01*
X52714080Y6466490D01*
G75*
G02*
X52470330Y6222740I-243750J0D01*
G01*
X51982830Y6222740D01*
G75*
G02*
X51739080Y6466490I0J243750D01*
G01*
G37*
%TD*%
%TO.C,R9*%
G36*
G01*
X58739080Y6466490D02*
X58739080Y7378990D01*
G75*
G02*
X58982830Y7622740I243750J0D01*
G01*
X59470330Y7622740D01*
G75*
G02*
X59714080Y7378990I0J-243750D01*
G01*
X59714080Y6466490D01*
G75*
G02*
X59470330Y6222740I-243750J0D01*
G01*
X58982830Y6222740D01*
G75*
G02*
X58739080Y6466490I0J243750D01*
G01*
G37*
G36*
G01*
X60614080Y6466490D02*
X60614080Y7378990D01*
G75*
G02*
X60857830Y7622740I243750J0D01*
G01*
X61345330Y7622740D01*
G75*
G02*
X61589080Y7378990I0J-243750D01*
G01*
X61589080Y6466490D01*
G75*
G02*
X61345330Y6222740I-243750J0D01*
G01*
X60857830Y6222740D01*
G75*
G02*
X60614080Y6466490I0J243750D01*
G01*
G37*
%TD*%
%TO.C,R10*%
G36*
G01*
X67614080Y6466490D02*
X67614080Y7378990D01*
G75*
G02*
X67857830Y7622740I243750J0D01*
G01*
X68345330Y7622740D01*
G75*
G02*
X68589080Y7378990I0J-243750D01*
G01*
X68589080Y6466490D01*
G75*
G02*
X68345330Y6222740I-243750J0D01*
G01*
X67857830Y6222740D01*
G75*
G02*
X67614080Y6466490I0J243750D01*
G01*
G37*
G36*
G01*
X65739080Y6466490D02*
X65739080Y7378990D01*
G75*
G02*
X65982830Y7622740I243750J0D01*
G01*
X66470330Y7622740D01*
G75*
G02*
X66714080Y7378990I0J-243750D01*
G01*
X66714080Y6466490D01*
G75*
G02*
X66470330Y6222740I-243750J0D01*
G01*
X65982830Y6222740D01*
G75*
G02*
X65739080Y6466490I0J243750D01*
G01*
G37*
%TD*%
M02*
