M48
; DRILL file {KiCad 5.1.6-c6e7f7d~87~ubuntu20.04.1} date Sun Oct 31 15:52:54 2021
; FORMAT={-:-/ absolute / inch / decimal}
; #@! TF.CreationDate,2021-10-31T15:52:54+01:00
; #@! TF.GenerationSoftware,Kicad,Pcbnew,5.1.6-c6e7f7d~87~ubuntu20.04.1
; #@! TF.FileFunction,Plated,1,2,PTH
FMAT,2
INCH
T1C0.0157
T2C0.0300
T3C0.0315
T4C0.0354
T5C0.0394
T6C0.0433
T7C0.0591
%
G90
G05
T1
X5.1762Y-2.884
X5.2516Y-4.1663
X5.5689Y-2.4053
X5.8032Y-2.523
X5.8265Y-2.9102
X5.8554Y-2.7851
X5.9294Y-2.8549
X5.966Y-2.5911
X6.1072Y-3.1402
X6.1585Y-3.0949
X6.2025Y-2.9021
X6.2057Y-3.0721
X6.3704Y-4.0754
X6.4043Y-4.1754
X6.7111Y-3.1024
X6.7368Y-2.7408
T2
X4.9227Y-1.8655
X4.9227Y-1.9655
X4.9227Y-2.2805
X4.9227Y-2.3805
X5.6313Y-1.8655
X5.6313Y-1.9655
X5.6313Y-2.2805
X5.6313Y-2.3805
T3
X5.3564Y-3.7708
X5.4351Y-3.7708
X5.3526Y-2.9126
X5.4313Y-2.9126
X6.0092Y-3.7708
X6.0879Y-3.7708
X6.0232Y-2.9154
X6.1019Y-2.9154
T4
X5.1194Y-3.7224
X5.1194Y-3.8224
X5.1194Y-3.9224
X5.1194Y-4.0224
X5.1194Y-4.1224
X5.1194Y-4.2224
X5.1194Y-4.3224
X5.1194Y-4.4224
X5.6194Y-3.7224
X5.6194Y-3.8224
X5.6194Y-3.9224
X5.6194Y-4.0224
X5.6194Y-4.1224
X5.6194Y-4.2224
X5.6194Y-4.3224
X5.6194Y-4.4224
X5.7744Y-2.9254
X5.7744Y-3.0254
X5.7744Y-3.1254
X5.7744Y-3.2254
X5.7744Y-3.3254
X5.7744Y-3.4254
X5.7744Y-3.5254
X5.7744Y-3.6254
X6.2744Y-2.9254
X6.2744Y-3.0254
X6.2744Y-3.1254
X6.2744Y-3.2254
X6.2744Y-3.3254
X6.2744Y-3.4254
X6.2744Y-3.5254
X6.2744Y-3.6254
X5.7774Y-3.7254
X5.7774Y-3.8254
X5.7774Y-3.9254
X5.7774Y-4.0254
X5.7774Y-4.1254
X5.7774Y-4.2254
X5.7774Y-4.3254
X5.7774Y-4.4254
X6.2774Y-3.7254
X6.2774Y-3.8254
X6.2774Y-3.9254
X6.2774Y-4.0254
X6.2774Y-4.1254
X6.2774Y-4.2254
X6.2774Y-4.3254
X6.2774Y-4.4254
X5.1194Y-2.9224
X5.1194Y-3.0224
X5.1194Y-3.1224
X5.1194Y-3.2224
X5.1194Y-3.3224
X5.1194Y-3.4224
X5.1194Y-3.5224
X5.1194Y-3.6224
X5.6194Y-2.9224
X5.6194Y-3.0224
X5.6194Y-3.1224
X5.6194Y-3.2224
X5.6194Y-3.3224
X5.6194Y-3.4224
X5.6194Y-3.5224
X5.6194Y-3.6224
T5
X4.726Y-1.8596
X4.726Y-1.958
X5.2226Y-2.7134
X5.3226Y-2.7134
X5.4226Y-2.7134
X5.5226Y-2.7134
X5.6226Y-2.7134
X5.7226Y-2.7134
X5.7826Y-4.6134
X5.8226Y-2.7134
X5.8826Y-4.6134
X5.9226Y-2.7134
X5.9826Y-4.6134
X6.0226Y-2.7134
X6.0826Y-4.6134
X6.1226Y-2.7134
X6.1826Y-4.6134
X6.2826Y-2.7134
X6.2826Y-4.6134
X6.3826Y-2.7134
X6.4826Y-2.7134
X6.4826Y-4.6134
X6.5826Y-2.7134
X6.5826Y-4.6134
X6.6826Y-2.7134
X6.6826Y-4.6134
X6.7826Y-2.7134
X6.7826Y-4.6134
X6.8826Y-2.7134
X6.8826Y-4.6134
X6.9826Y-2.7134
X6.9826Y-4.6134
X6.976Y-1.8616
X6.976Y-1.96
X6.876Y-2.501
X6.9744Y-2.501
X6.9584Y-3.1102
X6.9584Y-3.2102
X6.9584Y-3.3102
X6.9584Y-3.4102
X6.9584Y-3.5102
X6.9584Y-3.6102
X6.9584Y-3.7102
X6.9584Y-3.8102
X6.9584Y-3.9102
X6.9584Y-4.0102
X6.9584Y-4.1102
X6.9584Y-4.2102
X6.9584Y-4.3102
X7.0584Y-3.1102
X7.0584Y-3.2102
X7.0584Y-3.3102
X7.0584Y-3.4102
X7.0584Y-3.5102
X7.0584Y-3.6102
X7.0584Y-3.7102
X7.0584Y-3.8102
X7.0584Y-3.9102
X7.0584Y-4.0102
X7.0584Y-4.1102
X7.0584Y-4.2102
X7.0584Y-4.3102
X5.2694Y-4.2964
X5.2694Y-4.3964
X5.3694Y-4.2964
X5.3694Y-4.3964
X5.4694Y-4.2964
X5.4694Y-4.3964
X5.9384Y-3.4884
X5.9384Y-3.5884
X6.0384Y-3.4884
X6.0384Y-3.5884
X6.1384Y-3.4884
X6.1384Y-3.5884
X5.2734Y-3.4884
X5.2734Y-3.5884
X5.3734Y-3.4884
X5.3734Y-3.5884
X5.4734Y-3.4884
X5.4734Y-3.5884
X5.9244Y-4.2954
X5.9244Y-4.3954
X6.0244Y-4.2954
X6.0244Y-4.3954
X6.1244Y-4.2954
X6.1244Y-4.3954
X6.4972Y-3.1102
X6.4972Y-3.2102
X6.4972Y-3.3102
X6.4972Y-3.4102
X6.4972Y-3.5102
X6.4972Y-3.6102
X6.4972Y-3.7102
X6.4972Y-3.8102
X6.4972Y-3.9102
X6.4972Y-4.0102
X6.4972Y-4.1102
X6.4972Y-4.2102
X6.4972Y-4.3102
X6.5972Y-3.1102
X6.5972Y-3.2102
X6.5972Y-3.3102
X6.5972Y-3.4102
X6.5972Y-3.5102
X6.5972Y-3.6102
X6.5972Y-3.7102
X6.5972Y-3.8102
X6.5972Y-3.9102
X6.5972Y-4.0102
X6.5972Y-4.1102
X6.5972Y-4.2102
X6.5972Y-4.3102
X6.067Y-1.785
X6.067Y-1.885
T6
X6.826Y-2.094
X6.826Y-2.194
X6.826Y-2.294
T7
X4.62Y-2.724
X4.62Y-2.9012
X4.8759Y-2.724
X4.8759Y-2.9012
T5
G00X4.6826Y-4.3472
M15
G01X4.6826Y-4.426
M16
G05
G00X4.7613Y-4.5717
M15
G01X4.8401Y-4.5717
M16
G05
G00X4.9188Y-4.3472
M15
G01X4.9188Y-4.426
M16
G05
T0
M30
