%TF.GenerationSoftware,KiCad,Pcbnew,5.1.6-c6e7f7d~87~ubuntu20.04.1*%
%TF.CreationDate,2021-10-31T15:52:52+01:00*%
%TF.ProjectId,sb-cnc-shield,73622d63-6e63-42d7-9368-69656c642e6b,rev?*%
%TF.SameCoordinates,Original*%
%TF.FileFunction,Copper,L2,Bot*%
%TF.FilePolarity,Positive*%
%FSLAX46Y46*%
G04 Gerber Fmt 4.6, Leading zero omitted, Abs format (unit mm)*
G04 Created by KiCad (PCBNEW 5.1.6-c6e7f7d~87~ubuntu20.04.1) date 2021-10-31 15:52:52*
%MOMM*%
%LPD*%
G01*
G04 APERTURE LIST*
%TA.AperFunction,ComponentPad*%
%ADD10C,1.700000*%
%TD*%
%TA.AperFunction,ComponentPad*%
%ADD11R,2.000000X1.905000*%
%TD*%
%TA.AperFunction,ComponentPad*%
%ADD12O,2.000000X1.905000*%
%TD*%
%TA.AperFunction,ComponentPad*%
%ADD13O,2.000000X1.700000*%
%TD*%
%TA.AperFunction,ComponentPad*%
%ADD14C,1.610000*%
%TD*%
%TA.AperFunction,ComponentPad*%
%ADD15C,2.250000*%
%TD*%
%TA.AperFunction,ComponentPad*%
%ADD16C,1.510000*%
%TD*%
%TA.AperFunction,ComponentPad*%
%ADD17R,3.500000X3.500000*%
%TD*%
%TA.AperFunction,ComponentPad*%
%ADD18C,1.600000*%
%TD*%
%TA.AperFunction,ComponentPad*%
%ADD19R,1.700000X1.700000*%
%TD*%
%TA.AperFunction,ComponentPad*%
%ADD20O,1.700000X1.700000*%
%TD*%
%TA.AperFunction,ComponentPad*%
%ADD21O,1.700000X2.000000*%
%TD*%
%TA.AperFunction,ComponentPad*%
%ADD22C,1.524000*%
%TD*%
%TA.AperFunction,ViaPad*%
%ADD23C,0.600000*%
%TD*%
%TA.AperFunction,Conductor*%
%ADD24C,0.250000*%
%TD*%
%TA.AperFunction,Conductor*%
%ADD25C,0.700000*%
%TD*%
%TA.AperFunction,Conductor*%
%ADD26C,0.500000*%
%TD*%
%TA.AperFunction,Conductor*%
%ADD27C,0.254000*%
%TD*%
G04 APERTURE END LIST*
D10*
%TO.P,conn26_0,26*%
%TO.N,GND*%
X179283000Y-109480000D03*
%TO.P,conn26_0,24*%
X179283000Y-106940000D03*
%TO.P,conn26_0,22*%
X179283000Y-104400000D03*
%TO.P,conn26_0,20*%
X179283000Y-101860000D03*
%TO.P,conn26_0,18*%
X179283000Y-99320000D03*
%TO.P,conn26_0,16*%
X179283000Y-96780000D03*
%TO.P,conn26_0,14*%
X179283000Y-94240000D03*
%TO.P,conn26_0,12*%
X179283000Y-91700000D03*
%TO.P,conn26_0,10*%
X179283000Y-89160000D03*
%TO.P,conn26_0,8*%
X179283000Y-86620000D03*
%TO.P,conn26_0,6*%
X179283000Y-84080000D03*
%TO.P,conn26_0,4*%
X179283000Y-81540000D03*
%TO.P,conn26_0,2*%
X179283000Y-79000000D03*
%TO.P,conn26_0,25*%
%TO.N,RESET*%
X176743000Y-109480000D03*
%TO.P,conn26_0,23*%
%TO.N,B_led*%
X176743000Y-106940000D03*
%TO.P,conn26_0,21*%
%TO.N,O_sig*%
X176743000Y-104400000D03*
%TO.P,conn26_0,19*%
%TO.N,O_led*%
X176743000Y-101860000D03*
%TO.P,conn26_0,17*%
%TO.N,up_light*%
X176743000Y-99320000D03*
%TO.P,conn26_0,15*%
%TO.N,B_sig*%
X176743000Y-96780000D03*
%TO.P,conn26_0,13*%
%TO.N,SPIN_EN*%
X176743000Y-94240000D03*
%TO.P,conn26_0,11*%
%TO.N,XLIMIT*%
X176743000Y-91700000D03*
%TO.P,conn26_0,9*%
X176743000Y-89160000D03*
%TO.P,conn26_0,7*%
%TO.N,YLIMIT*%
X176743000Y-86620000D03*
%TO.P,conn26_0,5*%
X176743000Y-84080000D03*
%TO.P,conn26_0,3*%
%TO.N,ZLIMIT*%
X176743000Y-81540000D03*
%TO.P,conn26_0,1*%
%TA.AperFunction,ComponentPad*%
G36*
G01*
X175893000Y-79600000D02*
X175893000Y-78400000D01*
G75*
G02*
X176143000Y-78150000I250000J0D01*
G01*
X177343000Y-78150000D01*
G75*
G02*
X177593000Y-78400000I0J-250000D01*
G01*
X177593000Y-79600000D01*
G75*
G02*
X177343000Y-79850000I-250000J0D01*
G01*
X176143000Y-79850000D01*
G75*
G02*
X175893000Y-79600000I0J250000D01*
G01*
G37*
%TD.AperFunction*%
%TD*%
%TO.P,conn26_1,1*%
%TO.N,+5V*%
%TA.AperFunction,ComponentPad*%
G36*
G01*
X164180000Y-79600000D02*
X164180000Y-78400000D01*
G75*
G02*
X164430000Y-78150000I250000J0D01*
G01*
X165630000Y-78150000D01*
G75*
G02*
X165880000Y-78400000I0J-250000D01*
G01*
X165880000Y-79600000D01*
G75*
G02*
X165630000Y-79850000I-250000J0D01*
G01*
X164430000Y-79850000D01*
G75*
G02*
X164180000Y-79600000I0J250000D01*
G01*
G37*
%TD.AperFunction*%
%TO.P,conn26_1,3*%
%TO.N,_SCL_*%
X165030000Y-81540000D03*
%TO.P,conn26_1,5*%
%TO.N,+5V*%
X165030000Y-84080000D03*
%TO.P,conn26_1,7*%
%TO.N,res*%
X165030000Y-86620000D03*
%TO.P,conn26_1,9*%
%TO.N,y2B*%
X165030000Y-89160000D03*
%TO.P,conn26_1,11*%
%TO.N,y2A*%
X165030000Y-91700000D03*
%TO.P,conn26_1,13*%
%TO.N,y1A*%
X165030000Y-94240000D03*
%TO.P,conn26_1,15*%
%TO.N,y1B*%
X165030000Y-96780000D03*
%TO.P,conn26_1,17*%
%TO.N,a2B*%
X165030000Y-99320000D03*
%TO.P,conn26_1,19*%
%TO.N,a2A*%
X165030000Y-101860000D03*
%TO.P,conn26_1,21*%
%TO.N,a1A*%
X165030000Y-104400000D03*
%TO.P,conn26_1,23*%
%TO.N,a1B*%
X165030000Y-106940000D03*
%TO.P,conn26_1,25*%
%TO.N,Net-(conn26_1-Pad25)*%
X165030000Y-109480000D03*
%TO.P,conn26_1,2*%
%TO.N,GND*%
X167570000Y-79000000D03*
%TO.P,conn26_1,4*%
%TO.N,_SDA_*%
X167570000Y-81540000D03*
%TO.P,conn26_1,6*%
%TO.N,DC*%
X167570000Y-84080000D03*
%TO.P,conn26_1,8*%
%TO.N,GND*%
X167570000Y-86620000D03*
%TO.P,conn26_1,10*%
%TO.N,x2B*%
X167570000Y-89160000D03*
%TO.P,conn26_1,12*%
%TO.N,x2A*%
X167570000Y-91700000D03*
%TO.P,conn26_1,14*%
%TO.N,x1A*%
X167570000Y-94240000D03*
%TO.P,conn26_1,16*%
%TO.N,x1B*%
X167570000Y-96780000D03*
%TO.P,conn26_1,18*%
%TO.N,z2B*%
X167570000Y-99320000D03*
%TO.P,conn26_1,20*%
%TO.N,z2A*%
X167570000Y-101860000D03*
%TO.P,conn26_1,22*%
%TO.N,z1A*%
X167570000Y-104400000D03*
%TO.P,conn26_1,24*%
X167570000Y-106940000D03*
%TO.P,conn26_1,26*%
%TO.N,Net-(conn26_1-Pad26)*%
X167570000Y-109480000D03*
%TD*%
D11*
%TO.P,Q0,2*%
%TO.N,/G*%
X173380000Y-58267600D03*
D12*
%TO.P,Q0,1*%
%TO.N,/D*%
X173380000Y-55727600D03*
%TO.P,Q0,3*%
%TO.N,GND*%
X173380000Y-53187600D03*
%TD*%
%TO.P,pi_5V1,1*%
%TO.N,GND*%
%TA.AperFunction,ComponentPad*%
G36*
G01*
X120790000Y-50583200D02*
X119290000Y-50583200D01*
G75*
G02*
X119040000Y-50333200I0J250000D01*
G01*
X119040000Y-49133200D01*
G75*
G02*
X119290000Y-48883200I250000J0D01*
G01*
X120790000Y-48883200D01*
G75*
G02*
X121040000Y-49133200I0J-250000D01*
G01*
X121040000Y-50333200D01*
G75*
G02*
X120790000Y-50583200I-250000J0D01*
G01*
G37*
%TD.AperFunction*%
D13*
%TO.P,pi_5V1,2*%
%TO.N,5V_pi*%
X120040000Y-47233200D03*
%TD*%
D14*
%TO.P,U1,17*%
%TO.N,B_sig*%
X177358000Y-117180000D03*
%TO.P,U1,18*%
%TO.N,pump_ctrl*%
X174818000Y-117180000D03*
%TO.P,U1,19*%
%TO.N,up_light*%
X172278000Y-117180000D03*
%TO.P,U1,22*%
%TO.N,O_led*%
X164658000Y-117180000D03*
%TO.P,U1,21*%
%TO.N,O_sig*%
X167198000Y-117180000D03*
%TO.P,U1,20*%
%TO.N,B_led*%
X169738000Y-117180000D03*
%TO.P,U1,23*%
%TO.N,Net-(U1-Pad23)*%
X159578000Y-117180000D03*
%TO.P,U1,24*%
%TO.N,GND*%
X157038000Y-117180000D03*
%TO.P,U1,25*%
X154498000Y-117180000D03*
%TO.P,U1,27*%
%TO.N,+3V3*%
X149418000Y-117180000D03*
%TO.P,U1,28*%
%TO.N,RESET*%
X146878000Y-117180000D03*
%TO.P,U1,1*%
%TO.N,DC*%
X177358000Y-68920000D03*
%TO.P,U1,2*%
%TO.N,res*%
X174818000Y-68920000D03*
%TO.P,U1,3*%
%TO.N,XSTEP*%
X172278000Y-68920000D03*
%TO.P,U1,4*%
%TO.N,YSTEP*%
X169738000Y-68920000D03*
%TO.P,U1,5*%
%TO.N,ZSTEP*%
X167198000Y-68920000D03*
%TO.P,U1,6*%
%TO.N,XDIR*%
X164658000Y-68920000D03*
%TO.P,U1,7*%
%TO.N,YDIR*%
X162118000Y-68920000D03*
%TO.P,U1,8*%
%TO.N,ZDIR*%
X159578000Y-68920000D03*
%TO.P,U1,9*%
%TO.N,EN*%
X155514000Y-68920000D03*
%TO.P,U1,10*%
%TO.N,XLIMIT*%
X152974000Y-68920000D03*
%TO.P,U1,11*%
%TO.N,YLIMIT*%
X150434000Y-68920000D03*
%TO.P,U1,12*%
%TO.N,SPIN_EN*%
X147894000Y-68920000D03*
%TO.P,U1,13*%
%TO.N,ZLIMIT*%
X145354000Y-68920000D03*
%TO.P,U1,14*%
%TO.N,SPIN_DIR*%
X142814000Y-68920000D03*
%TO.P,U1,15*%
%TO.N,GND*%
X140274000Y-68920000D03*
%TO.P,U1,16*%
%TO.N,Net-(U1-Pad16)*%
X137734000Y-68920000D03*
%TO.P,U1,26*%
%TO.N,+5V*%
X151958000Y-117180000D03*
%TO.P,U1,29*%
%TO.N,_SDA_*%
X135194000Y-68920000D03*
%TO.P,U1,30*%
%TO.N,_SCL_*%
X132654000Y-68920000D03*
%TD*%
D15*
%TO.P,SW1,3*%
%TO.N,RESET*%
X117348000Y-73689600D03*
%TO.P,SW1,4*%
X123848000Y-73689600D03*
%TO.P,SW1,1*%
%TO.N,GND*%
X117348000Y-69189600D03*
%TO.P,SW1,2*%
X123848000Y-69189600D03*
%TD*%
D16*
%TO.P,U2,1*%
%TO.N,EN*%
X130033000Y-74229000D03*
%TO.P,U2,2*%
%TO.N,Net-(MSX1-Pad2)*%
X130033000Y-76769000D03*
%TO.P,U2,3*%
%TO.N,Net-(MSX1-Pad4)*%
X130033000Y-79309000D03*
%TO.P,U2,4*%
%TO.N,Net-(MSX1-Pad6)*%
X130033000Y-81849000D03*
%TO.P,U2,5*%
%TO.N,Net-(U2-Pad5)*%
X130033000Y-84389000D03*
%TO.P,U2,6*%
X130033000Y-86929000D03*
%TO.P,U2,7*%
%TO.N,XSTEP*%
X130033000Y-89469000D03*
%TO.P,U2,8*%
%TO.N,XDIR*%
X130033000Y-92009000D03*
%TO.P,U2,9*%
%TO.N,GND*%
X142733000Y-92009000D03*
%TO.P,U2,10*%
%TO.N,+5V*%
X142733000Y-89469000D03*
%TO.P,U2,11*%
%TO.N,x1B*%
X142733000Y-86929000D03*
%TO.P,U2,12*%
%TO.N,x1A*%
X142733000Y-84389000D03*
%TO.P,U2,13*%
%TO.N,x2A*%
X142733000Y-81849000D03*
%TO.P,U2,14*%
%TO.N,x2B*%
X142733000Y-79309000D03*
%TO.P,U2,15*%
%TO.N,GNDA*%
X142733000Y-76769000D03*
%TO.P,U2,16*%
%TO.N,VIN*%
X142733000Y-74229000D03*
%TD*%
%TO.P,U4,1*%
%TO.N,EN*%
X130033000Y-94549000D03*
%TO.P,U4,2*%
%TO.N,Net-(MSZ1-Pad2)*%
X130033000Y-97089000D03*
%TO.P,U4,3*%
%TO.N,Net-(MSZ1-Pad4)*%
X130033000Y-99629000D03*
%TO.P,U4,4*%
%TO.N,Net-(MSZ1-Pad6)*%
X130033000Y-102169000D03*
%TO.P,U4,5*%
%TO.N,Net-(U4-Pad5)*%
X130033000Y-104709000D03*
%TO.P,U4,6*%
X130033000Y-107249000D03*
%TO.P,U4,7*%
%TO.N,ZSTEP*%
X130033000Y-109789000D03*
%TO.P,U4,8*%
%TO.N,ZDIR*%
X130033000Y-112329000D03*
%TO.P,U4,9*%
%TO.N,GND*%
X142733000Y-112329000D03*
%TO.P,U4,10*%
%TO.N,+5V*%
X142733000Y-109789000D03*
%TO.P,U4,11*%
%TO.N,z1B*%
X142733000Y-107249000D03*
%TO.P,U4,12*%
%TO.N,z1A*%
X142733000Y-104709000D03*
%TO.P,U4,13*%
%TO.N,z2A*%
X142733000Y-102169000D03*
%TO.P,U4,14*%
%TO.N,z2B*%
X142733000Y-99629000D03*
%TO.P,U4,15*%
%TO.N,GNDA*%
X142733000Y-97089000D03*
%TO.P,U4,16*%
%TO.N,VIN*%
X142733000Y-94549000D03*
%TD*%
%TO.P,U5,1*%
%TO.N,EN*%
X146746000Y-94625200D03*
%TO.P,U5,2*%
%TO.N,Net-(MSA1-Pad2)*%
X146746000Y-97165200D03*
%TO.P,U5,3*%
%TO.N,Net-(MSA1-Pad4)*%
X146746000Y-99705200D03*
%TO.P,U5,4*%
%TO.N,Net-(MSA1-Pad6)*%
X146746000Y-102245200D03*
%TO.P,U5,5*%
%TO.N,Net-(U5-Pad5)*%
X146746000Y-104785200D03*
%TO.P,U5,6*%
X146746000Y-107325200D03*
%TO.P,U5,7*%
%TO.N,SPIN_EN*%
X146746000Y-109865200D03*
%TO.P,U5,8*%
%TO.N,SPIN_DIR*%
X146746000Y-112405200D03*
%TO.P,U5,9*%
%TO.N,GND*%
X159446000Y-112405200D03*
%TO.P,U5,10*%
%TO.N,+5V*%
X159446000Y-109865200D03*
%TO.P,U5,11*%
%TO.N,a1B*%
X159446000Y-107325200D03*
%TO.P,U5,12*%
%TO.N,a1A*%
X159446000Y-104785200D03*
%TO.P,U5,13*%
%TO.N,a2A*%
X159446000Y-102245200D03*
%TO.P,U5,14*%
%TO.N,a2B*%
X159446000Y-99705200D03*
%TO.P,U5,15*%
%TO.N,GNDA*%
X159446000Y-97165200D03*
%TO.P,U5,16*%
%TO.N,VIN*%
X159446000Y-94625200D03*
%TD*%
%TO.P,U3,1*%
%TO.N,EN*%
X146670000Y-74305200D03*
%TO.P,U3,2*%
%TO.N,Net-(MSY1-Pad2)*%
X146670000Y-76845200D03*
%TO.P,U3,3*%
%TO.N,Net-(MSY1-Pad4)*%
X146670000Y-79385200D03*
%TO.P,U3,4*%
%TO.N,Net-(MSY1-Pad6)*%
X146670000Y-81925200D03*
%TO.P,U3,5*%
%TO.N,Net-(U3-Pad5)*%
X146670000Y-84465200D03*
%TO.P,U3,6*%
X146670000Y-87005200D03*
%TO.P,U3,7*%
%TO.N,YSTEP*%
X146670000Y-89545200D03*
%TO.P,U3,8*%
%TO.N,YDIR*%
X146670000Y-92085200D03*
%TO.P,U3,9*%
%TO.N,GND*%
X159370000Y-92085200D03*
%TO.P,U3,10*%
%TO.N,+5V*%
X159370000Y-89545200D03*
%TO.P,U3,11*%
%TO.N,y1B*%
X159370000Y-87005200D03*
%TO.P,U3,12*%
%TO.N,y1A*%
X159370000Y-84465200D03*
%TO.P,U3,13*%
%TO.N,y2A*%
X159370000Y-81925200D03*
%TO.P,U3,14*%
%TO.N,y2B*%
X159370000Y-79385200D03*
%TO.P,U3,15*%
%TO.N,GNDA*%
X159370000Y-76845200D03*
%TO.P,U3,16*%
%TO.N,VIN*%
X159370000Y-74305200D03*
%TD*%
D17*
%TO.P,P8,1*%
%TO.N,VIN_*%
X124938000Y-111420000D03*
%TO.P,P8,2*%
%TO.N,GNDA*%
%TA.AperFunction,ComponentPad*%
G36*
G01*
X117438000Y-112420000D02*
X117438000Y-110420000D01*
G75*
G02*
X118188000Y-109670000I750000J0D01*
G01*
X119688000Y-109670000D01*
G75*
G02*
X120438000Y-110420000I0J-750000D01*
G01*
X120438000Y-112420000D01*
G75*
G02*
X119688000Y-113170000I-750000J0D01*
G01*
X118188000Y-113170000D01*
G75*
G02*
X117438000Y-112420000I0J750000D01*
G01*
G37*
%TD.AperFunction*%
%TO.P,P8,3*%
%TA.AperFunction,ComponentPad*%
G36*
G01*
X120188000Y-116995000D02*
X120188000Y-115245000D01*
G75*
G02*
X121063000Y-114370000I875000J0D01*
G01*
X122813000Y-114370000D01*
G75*
G02*
X123688000Y-115245000I0J-875000D01*
G01*
X123688000Y-116995000D01*
G75*
G02*
X122813000Y-117870000I-875000J0D01*
G01*
X121063000Y-117870000D01*
G75*
G02*
X120188000Y-116995000I0J875000D01*
G01*
G37*
%TD.AperFunction*%
%TD*%
D18*
%TO.P,C1,1*%
%TO.N,VIN*%
X135956000Y-73980100D03*
%TO.P,C1,2*%
%TO.N,GNDA*%
X137956000Y-73980100D03*
%TD*%
%TO.P,C2,2*%
%TO.N,GNDA*%
X154989000Y-74051200D03*
%TO.P,C2,1*%
%TO.N,VIN*%
X152989000Y-74051200D03*
%TD*%
%TO.P,C3,1*%
%TO.N,VIN*%
X136052000Y-95778400D03*
%TO.P,C3,2*%
%TO.N,GNDA*%
X138052000Y-95778400D03*
%TD*%
%TO.P,C4,2*%
%TO.N,GNDA*%
X154633000Y-95778400D03*
%TO.P,C4,1*%
%TO.N,VIN*%
X152633000Y-95778400D03*
%TD*%
D19*
%TO.P,P10,1*%
%TO.N,VIN*%
X154102000Y-47879000D03*
D20*
%TO.P,P10,2*%
%TO.N,VIN_*%
X154102000Y-45339000D03*
%TD*%
%TO.P,l_pwr1,1*%
%TO.N,GND*%
%TA.AperFunction,ComponentPad*%
G36*
G01*
X177940000Y-50634000D02*
X176440000Y-50634000D01*
G75*
G02*
X176190000Y-50384000I0J250000D01*
G01*
X176190000Y-49184000D01*
G75*
G02*
X176440000Y-48934000I250000J0D01*
G01*
X177940000Y-48934000D01*
G75*
G02*
X178190000Y-49184000I0J-250000D01*
G01*
X178190000Y-50384000D01*
G75*
G02*
X177940000Y-50634000I-250000J0D01*
G01*
G37*
%TD.AperFunction*%
D13*
%TO.P,l_pwr1,2*%
%TO.N,VIN*%
X177190000Y-47284000D03*
%TD*%
D21*
%TO.P,Pump1,2*%
%TO.N,/D*%
X177150000Y-63525400D03*
%TO.P,Pump1,1*%
%TO.N,VIN*%
%TA.AperFunction,ComponentPad*%
G36*
G01*
X173800000Y-64275400D02*
X173800000Y-62775400D01*
G75*
G02*
X174050000Y-62525400I250000J0D01*
G01*
X175250000Y-62525400D01*
G75*
G02*
X175500000Y-62775400I0J-250000D01*
G01*
X175500000Y-64275400D01*
G75*
G02*
X175250000Y-64525400I-250000J0D01*
G01*
X174050000Y-64525400D01*
G75*
G02*
X173800000Y-64275400I0J250000D01*
G01*
G37*
%TD.AperFunction*%
%TD*%
D19*
%TO.P,MSA1,1*%
%TO.N,+5V*%
X150480000Y-111643000D03*
D20*
%TO.P,MSA1,2*%
%TO.N,Net-(MSA1-Pad2)*%
X150480000Y-109103000D03*
%TO.P,MSA1,3*%
%TO.N,+5V*%
X153020000Y-111643000D03*
%TO.P,MSA1,4*%
%TO.N,Net-(MSA1-Pad4)*%
X153020000Y-109103000D03*
%TO.P,MSA1,5*%
%TO.N,+5V*%
X155560000Y-111643000D03*
%TO.P,MSA1,6*%
%TO.N,Net-(MSA1-Pad6)*%
X155560000Y-109103000D03*
%TD*%
D19*
%TO.P,MSY1,1*%
%TO.N,+5V*%
X150835000Y-91145400D03*
D20*
%TO.P,MSY1,2*%
%TO.N,Net-(MSY1-Pad2)*%
X150835000Y-88605400D03*
%TO.P,MSY1,3*%
%TO.N,+5V*%
X153375000Y-91145400D03*
%TO.P,MSY1,4*%
%TO.N,Net-(MSY1-Pad4)*%
X153375000Y-88605400D03*
%TO.P,MSY1,5*%
%TO.N,+5V*%
X155915000Y-91145400D03*
%TO.P,MSY1,6*%
%TO.N,Net-(MSY1-Pad6)*%
X155915000Y-88605400D03*
%TD*%
%TO.P,MSZ1,6*%
%TO.N,Net-(MSZ1-Pad6)*%
X138923000Y-109129000D03*
%TO.P,MSZ1,5*%
%TO.N,+5V*%
X138923000Y-111669000D03*
%TO.P,MSZ1,4*%
%TO.N,Net-(MSZ1-Pad4)*%
X136383000Y-109129000D03*
%TO.P,MSZ1,3*%
%TO.N,+5V*%
X136383000Y-111669000D03*
%TO.P,MSZ1,2*%
%TO.N,Net-(MSZ1-Pad2)*%
X133843000Y-109129000D03*
D19*
%TO.P,MSZ1,1*%
%TO.N,+5V*%
X133843000Y-111669000D03*
%TD*%
%TO.P,MSX1,1*%
%TO.N,+5V*%
X133945000Y-91145400D03*
D20*
%TO.P,MSX1,2*%
%TO.N,Net-(MSX1-Pad2)*%
X133945000Y-88605400D03*
%TO.P,MSX1,3*%
%TO.N,+5V*%
X136485000Y-91145400D03*
%TO.P,MSX1,4*%
%TO.N,Net-(MSX1-Pad4)*%
X136485000Y-88605400D03*
%TO.P,MSX1,5*%
%TO.N,+5V*%
X139025000Y-91145400D03*
%TO.P,MSX1,6*%
%TO.N,Net-(MSX1-Pad6)*%
X139025000Y-88605400D03*
%TD*%
D22*
%TO.P,MP1584EN_DC-DC1,8*%
%TO.N,GND*%
X143036000Y-47384200D03*
%TO.P,MP1584EN_DC-DC1,7*%
X143036000Y-49924200D03*
%TO.P,MP1584EN_DC-DC1,6*%
%TO.N,5V_pi*%
X143036000Y-57924200D03*
%TO.P,MP1584EN_DC-DC1,5*%
X143036000Y-60464200D03*
%TO.P,MP1584EN_DC-DC1,4*%
%TO.N,VIN*%
X125036000Y-57924200D03*
%TO.P,MP1584EN_DC-DC1,3*%
X125036000Y-60464200D03*
%TO.P,MP1584EN_DC-DC1,2*%
%TO.N,GND*%
X125036000Y-49924200D03*
%TO.P,MP1584EN_DC-DC1,1*%
X125036000Y-47384200D03*
%TD*%
D23*
%TO.N,XSTEP*%
X131475900Y-73252800D03*
%TO.N,VIN*%
X141449000Y-61095000D03*
%TO.N,YSTEP*%
X156427000Y-78609200D03*
%TO.N,YDIR*%
X157624500Y-78031100D03*
%TO.N,ZLIMIT*%
X151537600Y-65813400D03*
%TO.N,GNDA*%
X133390500Y-105823900D03*
X147992500Y-73919100D03*
%TO.N,_SCL_*%
X157544000Y-73713400D03*
X147400500Y-64084000D03*
%TO.N,_SDA_*%
X171115300Y-69617100D03*
%TO.N,x2B*%
X150607400Y-72513800D03*
X148728300Y-70740300D03*
%TO.N,x1A*%
X170462800Y-78801100D03*
X155122600Y-79760000D03*
%TO.N,x1B*%
X161808300Y-103515200D03*
%TO.N,z2B*%
X162668700Y-106055200D03*
%TD*%
D24*
%TO.N,RESET*%
X146878000Y-117180000D02*
X148043500Y-118345500D01*
X148043500Y-118345500D02*
X165154200Y-118345500D01*
X165154200Y-118345500D02*
X165928000Y-117571700D01*
X165928000Y-117571700D02*
X165928000Y-116803100D01*
X165928000Y-116803100D02*
X173251100Y-109480000D01*
X173251100Y-109480000D02*
X176743000Y-109480000D01*
X123848000Y-73689600D02*
X117348000Y-73689600D01*
D25*
%TO.N,+5V*%
X155915000Y-91145400D02*
X157315300Y-91145400D01*
X159370000Y-89545200D02*
X158915500Y-89545200D01*
X158915500Y-89545200D02*
X157315300Y-91145400D01*
X155560000Y-111643000D02*
X156960300Y-111643000D01*
X156960300Y-111643000D02*
X158738100Y-109865200D01*
X158738100Y-109865200D02*
X159446000Y-109865200D01*
X153020000Y-111643000D02*
X155560000Y-111643000D01*
X139025000Y-91145400D02*
X141056600Y-91145400D01*
X141056600Y-91145400D02*
X142733000Y-89469000D01*
X137885300Y-91145400D02*
X139025000Y-91145400D01*
X153375000Y-91145400D02*
X150835000Y-91145400D01*
X155915000Y-91145400D02*
X153375000Y-91145400D01*
X136485000Y-91145400D02*
X137885300Y-91145400D01*
X134673500Y-91145400D02*
X136485000Y-91145400D01*
X134645200Y-91145400D02*
X134673500Y-91145400D01*
X142203300Y-109789000D02*
X134673500Y-102259200D01*
X134673500Y-102259200D02*
X134673500Y-91145400D01*
X133945000Y-91145400D02*
X134645200Y-91145400D01*
X142203300Y-109789000D02*
X140323300Y-111669000D01*
X142733000Y-109789000D02*
X142203300Y-109789000D01*
X138923000Y-111669000D02*
X140323300Y-111669000D01*
X153020000Y-111643000D02*
X150480000Y-111643000D01*
X136383000Y-111669000D02*
X138923000Y-111669000D01*
X133843000Y-111669000D02*
X136383000Y-111669000D01*
%TO.N,GND*%
X167570000Y-79000000D02*
X167570000Y-79384600D01*
X167570000Y-79384600D02*
X168972500Y-80787100D01*
X168972500Y-80787100D02*
X168972500Y-85217500D01*
X168972500Y-85217500D02*
X167570000Y-86620000D01*
X157038000Y-117180000D02*
X154498000Y-117180000D01*
X142733000Y-112329000D02*
X145296700Y-114892700D01*
X145296700Y-114892700D02*
X152210700Y-114892700D01*
X152210700Y-114892700D02*
X154498000Y-117180000D01*
X173380000Y-53187600D02*
X179283000Y-59090600D01*
X179283000Y-59090600D02*
X179283000Y-79000000D01*
X123848000Y-69189600D02*
X117348000Y-69189600D01*
D24*
%TO.N,EN*%
X141582400Y-88351400D02*
X141582400Y-83960100D01*
X141582400Y-83960100D02*
X142313400Y-83229100D01*
X142313400Y-83229100D02*
X142891400Y-83229100D01*
X142891400Y-83229100D02*
X145484900Y-80635600D01*
X145484900Y-80635600D02*
X145484900Y-75490300D01*
X145484900Y-75490300D02*
X146670000Y-74305200D01*
X141582400Y-88351400D02*
X140058400Y-89875400D01*
X140058400Y-89875400D02*
X133008400Y-89875400D01*
X133008400Y-89875400D02*
X131989600Y-90894200D01*
X131989600Y-90894200D02*
X131989600Y-92592400D01*
X131989600Y-92592400D02*
X130033000Y-94549000D01*
X146746000Y-94625200D02*
X146624500Y-94625200D01*
X146624500Y-94625200D02*
X144073800Y-92074500D01*
X144073800Y-92074500D02*
X144073800Y-89271100D01*
X144073800Y-89271100D02*
X143154100Y-88351400D01*
X143154100Y-88351400D02*
X141582400Y-88351400D01*
%TO.N,XSTEP*%
X131475900Y-73252800D02*
X133924000Y-70804700D01*
X133924000Y-70804700D02*
X133924000Y-68550500D01*
X133924000Y-68550500D02*
X137736800Y-64737700D01*
X137736800Y-64737700D02*
X168095700Y-64737700D01*
X168095700Y-64737700D02*
X172278000Y-68920000D01*
%TO.N,XDIR*%
X164658000Y-68920000D02*
X163513000Y-70065000D01*
X163513000Y-70065000D02*
X158272500Y-70065000D01*
X158272500Y-70065000D02*
X155546900Y-67339400D01*
X155546900Y-67339400D02*
X147870900Y-67339400D01*
X147870900Y-67339400D02*
X146624000Y-68586300D01*
X146624000Y-68586300D02*
X146624000Y-69321000D01*
X146624000Y-69321000D02*
X144022800Y-71922200D01*
X144022800Y-71922200D02*
X136347900Y-71922200D01*
X136347900Y-71922200D02*
X134475200Y-73794900D01*
X134475200Y-73794900D02*
X134475200Y-76430200D01*
X134475200Y-76430200D02*
X130326400Y-80579000D01*
X130326400Y-80579000D02*
X129752400Y-80579000D01*
X129752400Y-80579000D02*
X128935400Y-81396000D01*
X128935400Y-81396000D02*
X128935400Y-90911400D01*
X128935400Y-90911400D02*
X130033000Y-92009000D01*
D25*
%TO.N,VIN*%
X152633000Y-95778400D02*
X154017700Y-94393700D01*
X154017700Y-94393700D02*
X159214500Y-94393700D01*
X159214500Y-94393700D02*
X159446000Y-94625200D01*
X125036000Y-60464200D02*
X140818200Y-60464200D01*
X140818200Y-60464200D02*
X141449000Y-61095000D01*
X135956000Y-73980100D02*
X137311400Y-72624700D01*
X137311400Y-72624700D02*
X141128700Y-72624700D01*
X141128700Y-72624700D02*
X142733000Y-74229000D01*
X177190000Y-47284000D02*
X175639700Y-47284000D01*
X175639700Y-47284000D02*
X171829600Y-51094100D01*
X171829600Y-51094100D02*
X171829600Y-60705000D01*
X171829600Y-60705000D02*
X174650000Y-63525400D01*
X136052000Y-95778400D02*
X137435700Y-94394700D01*
X137435700Y-94394700D02*
X142578700Y-94394700D01*
X142578700Y-94394700D02*
X142733000Y-94549000D01*
D24*
%TO.N,YSTEP*%
X146670000Y-89545200D02*
X146670000Y-89097000D01*
X146670000Y-89097000D02*
X155747900Y-80019100D01*
X155747900Y-80019100D02*
X155747900Y-79288300D01*
X155747900Y-79288300D02*
X156427000Y-78609200D01*
%TO.N,YDIR*%
X146670000Y-92085200D02*
X148318200Y-90437000D01*
X148318200Y-90437000D02*
X148318200Y-88085700D01*
X148318200Y-88085700D02*
X156367600Y-80036300D01*
X156367600Y-80036300D02*
X156367600Y-79583000D01*
X156367600Y-79583000D02*
X157624500Y-78326100D01*
X157624500Y-78326100D02*
X157624500Y-78031100D01*
%TO.N,ZSTEP*%
X167198000Y-68920000D02*
X164716800Y-66438800D01*
X164716800Y-66438800D02*
X138534500Y-66438800D01*
X138534500Y-66438800D02*
X136324400Y-68648900D01*
X136324400Y-68648900D02*
X136324400Y-69470100D01*
X136324400Y-69470100D02*
X130295500Y-75499000D01*
X130295500Y-75499000D02*
X129756900Y-75499000D01*
X129756900Y-75499000D02*
X128034800Y-77221100D01*
X128034800Y-77221100D02*
X128034800Y-107790800D01*
X128034800Y-107790800D02*
X130033000Y-109789000D01*
%TO.N,ZDIR*%
X159578000Y-68920000D02*
X157547100Y-66889100D01*
X157547100Y-66889100D02*
X143208100Y-66889100D01*
X143208100Y-66889100D02*
X141577200Y-68520000D01*
X141577200Y-68520000D02*
X141577200Y-69283800D01*
X141577200Y-69283800D02*
X139389200Y-71471800D01*
X139389200Y-71471800D02*
X136161400Y-71471800D01*
X136161400Y-71471800D02*
X133866000Y-73767200D01*
X133866000Y-73767200D02*
X133866000Y-74494600D01*
X133866000Y-74494600D02*
X130321600Y-78039000D01*
X130321600Y-78039000D02*
X129705700Y-78039000D01*
X129705700Y-78039000D02*
X128485100Y-79259600D01*
X128485100Y-79259600D02*
X128485100Y-107252100D01*
X128485100Y-107252100D02*
X129752000Y-108519000D01*
X129752000Y-108519000D02*
X130338700Y-108519000D01*
X130338700Y-108519000D02*
X131149600Y-109329900D01*
X131149600Y-109329900D02*
X131149600Y-111212400D01*
X131149600Y-111212400D02*
X130033000Y-112329000D01*
%TO.N,ZLIMIT*%
X176743000Y-79000000D02*
X168468000Y-70725000D01*
X168468000Y-70725000D02*
X168468000Y-68571900D01*
X168468000Y-68571900D02*
X165709500Y-65813400D01*
X165709500Y-65813400D02*
X151537600Y-65813400D01*
%TO.N,YLIMIT*%
X176743000Y-84080000D02*
X175378400Y-82715400D01*
X175378400Y-82715400D02*
X175378400Y-81558500D01*
X175378400Y-81558500D02*
X164335300Y-70515400D01*
X164335300Y-70515400D02*
X157412400Y-70515400D01*
X157412400Y-70515400D02*
X156947400Y-70050400D01*
X156947400Y-70050400D02*
X154983200Y-70050400D01*
X154983200Y-70050400D02*
X154244000Y-69311200D01*
X154244000Y-69311200D02*
X154244000Y-68585700D01*
X154244000Y-68585700D02*
X153448000Y-67789700D01*
X153448000Y-67789700D02*
X151564300Y-67789700D01*
X151564300Y-67789700D02*
X150434000Y-68920000D01*
%TO.N,XLIMIT*%
X176743000Y-89160000D02*
X173825200Y-86242200D01*
X173825200Y-86242200D02*
X173825200Y-80642200D01*
X173825200Y-80642200D02*
X164148700Y-70965700D01*
X164148700Y-70965700D02*
X157000800Y-70965700D01*
X157000800Y-70965700D02*
X156550500Y-70515400D01*
X156550500Y-70515400D02*
X154569400Y-70515400D01*
X154569400Y-70515400D02*
X152974000Y-68920000D01*
%TO.N,SPIN_EN*%
X173374800Y-94240000D02*
X173374800Y-80828700D01*
X173374800Y-80828700D02*
X163962100Y-71416000D01*
X163962100Y-71416000D02*
X156814200Y-71416000D01*
X156814200Y-71416000D02*
X156364000Y-70965800D01*
X156364000Y-70965800D02*
X149939800Y-70965800D01*
X149939800Y-70965800D02*
X147894000Y-68920000D01*
X146746000Y-109865200D02*
X147190300Y-110309500D01*
X147190300Y-110309500D02*
X156297100Y-110309500D01*
X156297100Y-110309500D02*
X158164100Y-108442500D01*
X158164100Y-108442500D02*
X161905700Y-108442500D01*
X161905700Y-108442500D02*
X162138200Y-108210000D01*
X162138200Y-108210000D02*
X165442800Y-108210000D01*
X165442800Y-108210000D02*
X166205400Y-107447400D01*
X166205400Y-107447400D02*
X166205400Y-101560400D01*
X166205400Y-101560400D02*
X167175800Y-100590000D01*
X167175800Y-100590000D02*
X167980100Y-100590000D01*
X167980100Y-100590000D02*
X173374800Y-95195300D01*
X173374800Y-95195300D02*
X173374800Y-94240000D01*
X173374800Y-94240000D02*
X176743000Y-94240000D01*
D25*
%TO.N,GNDA*%
X154633000Y-95778400D02*
X153249600Y-97161800D01*
X153249600Y-97161800D02*
X152096500Y-97161800D01*
X152096500Y-97161800D02*
X149434400Y-94499700D01*
X149434400Y-94499700D02*
X149434400Y-87924600D01*
X149434400Y-87924600D02*
X157042900Y-80316100D01*
X157042900Y-80316100D02*
X157042900Y-79862800D01*
X157042900Y-79862800D02*
X159370000Y-77535700D01*
X159370000Y-77535700D02*
X159370000Y-76845200D01*
X142733000Y-97089000D02*
X139362600Y-97089000D01*
X139362600Y-97089000D02*
X138052000Y-95778400D01*
X154633000Y-95778400D02*
X156019800Y-97165200D01*
X156019800Y-97165200D02*
X159446000Y-97165200D01*
X147992500Y-73919100D02*
X149479100Y-75405700D01*
X149479100Y-75405700D02*
X153711100Y-75405700D01*
X153711100Y-75405700D02*
X154989000Y-74127800D01*
X159370000Y-76845200D02*
X156652600Y-74127800D01*
X156652600Y-74127800D02*
X154989000Y-74127800D01*
X121938000Y-114420000D02*
X118938000Y-111420000D01*
X121938000Y-116120000D02*
X121938000Y-114420000D01*
X133390500Y-105823900D02*
X132153400Y-107061000D01*
X132153400Y-107061000D02*
X132153400Y-112055600D01*
X132153400Y-112055600D02*
X129789000Y-114420000D01*
X129789000Y-114420000D02*
X121938000Y-114420000D01*
X154989000Y-74051200D02*
X154989000Y-74127800D01*
X142733000Y-76769000D02*
X139944100Y-73980100D01*
X139944100Y-73980100D02*
X137956000Y-73980100D01*
%TO.N,VIN_*%
X124938000Y-109119700D02*
X124938000Y-75048800D01*
X124938000Y-75048800D02*
X129601000Y-70385800D01*
X129601000Y-70385800D02*
X129601000Y-70025400D01*
X129601000Y-70025400D02*
X137631100Y-61995300D01*
X137631100Y-61995300D02*
X143366100Y-61995300D01*
X143366100Y-61995300D02*
X144915600Y-60445800D01*
X144915600Y-60445800D02*
X144915600Y-54525400D01*
X144915600Y-54525400D02*
X154102000Y-45339000D01*
X124938000Y-111420000D02*
X124938000Y-109119700D01*
D24*
%TO.N,_SCL_*%
X157544000Y-73713400D02*
X157544000Y-74007000D01*
X157544000Y-74007000D02*
X158952800Y-75415800D01*
X158952800Y-75415800D02*
X159516300Y-75415800D01*
X159516300Y-75415800D02*
X163746800Y-79646300D01*
X163746800Y-79646300D02*
X163746800Y-80256800D01*
X163746800Y-80256800D02*
X165030000Y-81540000D01*
X132654000Y-68920000D02*
X137490000Y-64084000D01*
X137490000Y-64084000D02*
X147400500Y-64084000D01*
%TO.N,_SDA_*%
X135194000Y-68920000D02*
X138925900Y-65188100D01*
X138925900Y-65188100D02*
X167618200Y-65188100D01*
X167618200Y-65188100D02*
X171115300Y-68685200D01*
X171115300Y-68685200D02*
X171115300Y-69617100D01*
%TO.N,/D*%
X177150000Y-63525400D02*
X177150000Y-59497600D01*
X177150000Y-59497600D02*
X173380000Y-55727600D01*
%TO.N,O_led*%
X164658000Y-117180000D02*
X175378400Y-106459600D01*
X175378400Y-106459600D02*
X175378400Y-103224600D01*
X175378400Y-103224600D02*
X176743000Y-101860000D01*
D25*
%TO.N,5V_pi*%
X120040000Y-47233200D02*
X130731000Y-57924200D01*
X130731000Y-57924200D02*
X143036000Y-57924200D01*
D26*
%TO.N,y2B*%
X165030000Y-89160000D02*
X163171400Y-87301400D01*
X163171400Y-87301400D02*
X163171400Y-83186600D01*
X163171400Y-83186600D02*
X159370000Y-79385200D01*
%TO.N,x2B*%
X150607400Y-72513800D02*
X150785200Y-72691600D01*
X150785200Y-72691600D02*
X163116200Y-72691600D01*
X163116200Y-72691600D02*
X168875700Y-78451100D01*
X168875700Y-78451100D02*
X168875700Y-79558400D01*
X168875700Y-79558400D02*
X169804600Y-80487300D01*
X169804600Y-80487300D02*
X169804600Y-86925400D01*
X169804600Y-86925400D02*
X167570000Y-89160000D01*
X142733000Y-79309000D02*
X144209300Y-77832700D01*
X144209300Y-77832700D02*
X144209300Y-73931700D01*
X144209300Y-73931700D02*
X147400700Y-70740300D01*
X147400700Y-70740300D02*
X148728300Y-70740300D01*
%TO.N,y2A*%
X165030000Y-91700000D02*
X162471100Y-89141100D01*
X162471100Y-89141100D02*
X162471100Y-85026300D01*
X162471100Y-85026300D02*
X159370000Y-81925200D01*
%TO.N,x2A*%
X142733000Y-81849000D02*
X144909600Y-79672400D01*
X144909600Y-79672400D02*
X144909600Y-74290600D01*
X144909600Y-74290600D02*
X147505800Y-71694400D01*
X147505800Y-71694400D02*
X156278900Y-71694400D01*
X156278900Y-71694400D02*
X156575800Y-71991300D01*
X156575800Y-71991300D02*
X163406500Y-71991300D01*
X163406500Y-71991300D02*
X169576000Y-78160800D01*
X169576000Y-78160800D02*
X169576000Y-79268200D01*
X169576000Y-79268200D02*
X170504900Y-80197100D01*
X170504900Y-80197100D02*
X170504900Y-88765100D01*
X170504900Y-88765100D02*
X167570000Y-91700000D01*
%TO.N,y1A*%
X159370000Y-84465200D02*
X161770700Y-86865900D01*
X161770700Y-86865900D02*
X161770700Y-90980700D01*
X161770700Y-90980700D02*
X165030000Y-94240000D01*
%TO.N,x1A*%
X167570000Y-94240000D02*
X171236000Y-90574000D01*
X171236000Y-90574000D02*
X171236000Y-79574300D01*
X171236000Y-79574300D02*
X170462800Y-78801100D01*
X142733000Y-84389000D02*
X143926800Y-83195200D01*
X143926800Y-83195200D02*
X151687400Y-83195200D01*
X151687400Y-83195200D02*
X155122600Y-79760000D01*
%TO.N,y1B*%
X159370000Y-87005200D02*
X160822900Y-88458100D01*
X160822900Y-88458100D02*
X160822900Y-92572900D01*
X160822900Y-92572900D02*
X165030000Y-96780000D01*
%TO.N,x1B*%
X142733000Y-86929000D02*
X145228200Y-89424200D01*
X145228200Y-89424200D02*
X145228200Y-92401500D01*
X145228200Y-92401500D02*
X146146000Y-93319300D01*
X146146000Y-93319300D02*
X147186300Y-93319300D01*
X147186300Y-93319300D02*
X148042800Y-94175800D01*
X148042800Y-94175800D02*
X148042800Y-94311500D01*
X148042800Y-94311500D02*
X157246500Y-103515200D01*
X157246500Y-103515200D02*
X161808300Y-103515200D01*
%TO.N,a2B*%
X159446000Y-99705200D02*
X164644800Y-99705200D01*
X164644800Y-99705200D02*
X165030000Y-99320000D01*
%TO.N,z2B*%
X142733000Y-99629000D02*
X144064000Y-100960000D01*
X144064000Y-100960000D02*
X151449700Y-100960000D01*
X151449700Y-100960000D02*
X156544900Y-106055200D01*
X156544900Y-106055200D02*
X162668700Y-106055200D01*
%TO.N,a2A*%
X159446000Y-102245200D02*
X164644800Y-102245200D01*
X164644800Y-102245200D02*
X165030000Y-101860000D01*
%TO.N,z2A*%
X142733000Y-102169000D02*
X141486400Y-103415600D01*
X141486400Y-103415600D02*
X141486400Y-107710600D01*
X141486400Y-107710600D02*
X142294800Y-108519000D01*
X142294800Y-108519000D02*
X143236700Y-108519000D01*
X143236700Y-108519000D02*
X143938400Y-109220700D01*
X143938400Y-109220700D02*
X143938400Y-111320400D01*
X143938400Y-111320400D02*
X146357100Y-113739100D01*
X146357100Y-113739100D02*
X166168900Y-113739100D01*
X166168900Y-113739100D02*
X169594100Y-110313900D01*
X169594100Y-110313900D02*
X169594100Y-103884100D01*
X169594100Y-103884100D02*
X167570000Y-101860000D01*
%TO.N,a1A*%
X159446000Y-104785200D02*
X164644800Y-104785200D01*
X164644800Y-104785200D02*
X165030000Y-104400000D01*
%TO.N,z1A*%
X142733000Y-104709000D02*
X145264000Y-107240000D01*
X145264000Y-107240000D02*
X145264000Y-110160700D01*
X145264000Y-110160700D02*
X146238500Y-111135200D01*
X146238500Y-111135200D02*
X147220100Y-111135200D01*
X147220100Y-111135200D02*
X149067200Y-112982300D01*
X149067200Y-112982300D02*
X156752900Y-112982300D01*
X156752900Y-112982300D02*
X158559300Y-111175900D01*
X158559300Y-111175900D02*
X167714900Y-111175900D01*
X167714900Y-111175900D02*
X168893700Y-109997100D01*
X168893700Y-109997100D02*
X168893700Y-108263700D01*
X168893700Y-108263700D02*
X167570000Y-106940000D01*
%TO.N,a1B*%
X159446000Y-107325200D02*
X164644800Y-107325200D01*
X164644800Y-107325200D02*
X165030000Y-106940000D01*
D24*
%TO.N,Net-(MSA1-Pad6)*%
X155560000Y-109103000D02*
X154384700Y-109103000D01*
X154384700Y-109103000D02*
X154384700Y-108735700D01*
X154384700Y-108735700D02*
X147894200Y-102245200D01*
X147894200Y-102245200D02*
X146746000Y-102245200D01*
%TO.N,Net-(MSX1-Pad6)*%
X139025000Y-88605400D02*
X137849700Y-88605400D01*
X137849700Y-88605400D02*
X137849700Y-88238100D01*
X137849700Y-88238100D02*
X131460600Y-81849000D01*
X131460600Y-81849000D02*
X130033000Y-81849000D01*
%TO.N,Net-(MSZ1-Pad6)*%
X137747700Y-109129000D02*
X137747700Y-109496300D01*
X137747700Y-109496300D02*
X136939600Y-110304400D01*
X136939600Y-110304400D02*
X135857400Y-110304400D01*
X135857400Y-110304400D02*
X135113000Y-109560000D01*
X135113000Y-109560000D02*
X135113000Y-106591300D01*
X135113000Y-106591300D02*
X130690700Y-102169000D01*
X130690700Y-102169000D02*
X130033000Y-102169000D01*
X138923000Y-109129000D02*
X137747700Y-109129000D01*
%TO.N,Net-(MSZ1-Pad4)*%
X136383000Y-109129000D02*
X136383000Y-105979000D01*
X136383000Y-105979000D02*
X130033000Y-99629000D01*
%TO.N,B_sig*%
X177358000Y-117180000D02*
X177931100Y-116606900D01*
X177931100Y-116606900D02*
X177931100Y-97968100D01*
X177931100Y-97968100D02*
X176743000Y-96780000D01*
%TD*%
D27*
%TO.N,GND*%
G36*
X179206364Y-43763305D02*
G01*
X179291433Y-43832907D01*
X179588167Y-72736744D01*
X179590861Y-72761494D01*
X179598332Y-72785243D01*
X179610293Y-72807078D01*
X179626284Y-72826160D01*
X179645690Y-72841755D01*
X179667766Y-72853265D01*
X179691664Y-72860248D01*
X179705217Y-72862050D01*
X182497361Y-73081328D01*
X181915139Y-115055979D01*
X180907405Y-115681534D01*
X178691100Y-115671079D01*
X178691100Y-110842945D01*
X178775883Y-110883371D01*
X179059411Y-110955339D01*
X179351531Y-110970611D01*
X179641019Y-110928599D01*
X179916747Y-110830919D01*
X180054157Y-110757472D01*
X180131792Y-110508397D01*
X179283000Y-109659605D01*
X179268858Y-109673748D01*
X179089253Y-109494143D01*
X179103395Y-109480000D01*
X179462605Y-109480000D01*
X180311397Y-110328792D01*
X180560472Y-110251157D01*
X180686371Y-109987117D01*
X180758339Y-109703589D01*
X180773611Y-109411469D01*
X180731599Y-109121981D01*
X180633919Y-108846253D01*
X180560472Y-108708843D01*
X180311397Y-108631208D01*
X179462605Y-109480000D01*
X179103395Y-109480000D01*
X179089253Y-109465858D01*
X179268858Y-109286253D01*
X179283000Y-109300395D01*
X180131792Y-108451603D01*
X180056486Y-108210000D01*
X180131792Y-107968397D01*
X179283000Y-107119605D01*
X179268858Y-107133748D01*
X179089253Y-106954143D01*
X179103395Y-106940000D01*
X179462605Y-106940000D01*
X180311397Y-107788792D01*
X180560472Y-107711157D01*
X180686371Y-107447117D01*
X180758339Y-107163589D01*
X180773611Y-106871469D01*
X180731599Y-106581981D01*
X180633919Y-106306253D01*
X180560472Y-106168843D01*
X180311397Y-106091208D01*
X179462605Y-106940000D01*
X179103395Y-106940000D01*
X179089253Y-106925858D01*
X179268858Y-106746253D01*
X179283000Y-106760395D01*
X180131792Y-105911603D01*
X180056486Y-105670000D01*
X180131792Y-105428397D01*
X179283000Y-104579605D01*
X179268858Y-104593748D01*
X179089253Y-104414143D01*
X179103395Y-104400000D01*
X179462605Y-104400000D01*
X180311397Y-105248792D01*
X180560472Y-105171157D01*
X180686371Y-104907117D01*
X180758339Y-104623589D01*
X180773611Y-104331469D01*
X180731599Y-104041981D01*
X180633919Y-103766253D01*
X180560472Y-103628843D01*
X180311397Y-103551208D01*
X179462605Y-104400000D01*
X179103395Y-104400000D01*
X179089253Y-104385858D01*
X179268858Y-104206253D01*
X179283000Y-104220395D01*
X180131792Y-103371603D01*
X180056486Y-103130000D01*
X180131792Y-102888397D01*
X179283000Y-102039605D01*
X179268858Y-102053748D01*
X179089253Y-101874143D01*
X179103395Y-101860000D01*
X179462605Y-101860000D01*
X180311397Y-102708792D01*
X180560472Y-102631157D01*
X180686371Y-102367117D01*
X180758339Y-102083589D01*
X180773611Y-101791469D01*
X180731599Y-101501981D01*
X180633919Y-101226253D01*
X180560472Y-101088843D01*
X180311397Y-101011208D01*
X179462605Y-101860000D01*
X179103395Y-101860000D01*
X179089253Y-101845858D01*
X179268858Y-101666253D01*
X179283000Y-101680395D01*
X180131792Y-100831603D01*
X180056486Y-100590000D01*
X180131792Y-100348397D01*
X179283000Y-99499605D01*
X179268858Y-99513748D01*
X179089253Y-99334143D01*
X179103395Y-99320000D01*
X179462605Y-99320000D01*
X180311397Y-100168792D01*
X180560472Y-100091157D01*
X180686371Y-99827117D01*
X180758339Y-99543589D01*
X180773611Y-99251469D01*
X180731599Y-98961981D01*
X180633919Y-98686253D01*
X180560472Y-98548843D01*
X180311397Y-98471208D01*
X179462605Y-99320000D01*
X179103395Y-99320000D01*
X179089253Y-99305858D01*
X179268858Y-99126253D01*
X179283000Y-99140395D01*
X180131792Y-98291603D01*
X180056486Y-98050000D01*
X180131792Y-97808397D01*
X179283000Y-96959605D01*
X179268858Y-96973748D01*
X179089253Y-96794143D01*
X179103395Y-96780000D01*
X179462605Y-96780000D01*
X180311397Y-97628792D01*
X180560472Y-97551157D01*
X180686371Y-97287117D01*
X180758339Y-97003589D01*
X180773611Y-96711469D01*
X180731599Y-96421981D01*
X180633919Y-96146253D01*
X180560472Y-96008843D01*
X180311397Y-95931208D01*
X179462605Y-96780000D01*
X179103395Y-96780000D01*
X178254603Y-95931208D01*
X178012311Y-96006729D01*
X177896475Y-95833368D01*
X177689632Y-95626525D01*
X177515240Y-95510000D01*
X177689632Y-95393475D01*
X177814710Y-95268397D01*
X178434208Y-95268397D01*
X178509514Y-95510000D01*
X178434208Y-95751603D01*
X179283000Y-96600395D01*
X180131792Y-95751603D01*
X180056486Y-95510000D01*
X180131792Y-95268397D01*
X179283000Y-94419605D01*
X178434208Y-95268397D01*
X177814710Y-95268397D01*
X177896475Y-95186632D01*
X178012311Y-95013271D01*
X178254603Y-95088792D01*
X179103395Y-94240000D01*
X179462605Y-94240000D01*
X180311397Y-95088792D01*
X180560472Y-95011157D01*
X180686371Y-94747117D01*
X180758339Y-94463589D01*
X180773611Y-94171469D01*
X180731599Y-93881981D01*
X180633919Y-93606253D01*
X180560472Y-93468843D01*
X180311397Y-93391208D01*
X179462605Y-94240000D01*
X179103395Y-94240000D01*
X178254603Y-93391208D01*
X178012311Y-93466729D01*
X177896475Y-93293368D01*
X177689632Y-93086525D01*
X177515240Y-92970000D01*
X177689632Y-92853475D01*
X177814710Y-92728397D01*
X178434208Y-92728397D01*
X178509514Y-92970000D01*
X178434208Y-93211603D01*
X179283000Y-94060395D01*
X180131792Y-93211603D01*
X180056486Y-92970000D01*
X180131792Y-92728397D01*
X179283000Y-91879605D01*
X178434208Y-92728397D01*
X177814710Y-92728397D01*
X177896475Y-92646632D01*
X178012311Y-92473271D01*
X178254603Y-92548792D01*
X179103395Y-91700000D01*
X179462605Y-91700000D01*
X180311397Y-92548792D01*
X180560472Y-92471157D01*
X180686371Y-92207117D01*
X180758339Y-91923589D01*
X180773611Y-91631469D01*
X180731599Y-91341981D01*
X180633919Y-91066253D01*
X180560472Y-90928843D01*
X180311397Y-90851208D01*
X179462605Y-91700000D01*
X179103395Y-91700000D01*
X178254603Y-90851208D01*
X178012311Y-90926729D01*
X177896475Y-90753368D01*
X177689632Y-90546525D01*
X177515240Y-90430000D01*
X177689632Y-90313475D01*
X177814710Y-90188397D01*
X178434208Y-90188397D01*
X178509514Y-90430000D01*
X178434208Y-90671603D01*
X179283000Y-91520395D01*
X180131792Y-90671603D01*
X180056486Y-90430000D01*
X180131792Y-90188397D01*
X179283000Y-89339605D01*
X178434208Y-90188397D01*
X177814710Y-90188397D01*
X177896475Y-90106632D01*
X178012311Y-89933271D01*
X178254603Y-90008792D01*
X179103395Y-89160000D01*
X179462605Y-89160000D01*
X180311397Y-90008792D01*
X180560472Y-89931157D01*
X180686371Y-89667117D01*
X180758339Y-89383589D01*
X180773611Y-89091469D01*
X180731599Y-88801981D01*
X180633919Y-88526253D01*
X180560472Y-88388843D01*
X180311397Y-88311208D01*
X179462605Y-89160000D01*
X179103395Y-89160000D01*
X178254603Y-88311208D01*
X178012311Y-88386729D01*
X177896475Y-88213368D01*
X177689632Y-88006525D01*
X177515240Y-87890000D01*
X177689632Y-87773475D01*
X177814710Y-87648397D01*
X178434208Y-87648397D01*
X178509514Y-87890000D01*
X178434208Y-88131603D01*
X179283000Y-88980395D01*
X180131792Y-88131603D01*
X180056486Y-87890000D01*
X180131792Y-87648397D01*
X179283000Y-86799605D01*
X178434208Y-87648397D01*
X177814710Y-87648397D01*
X177896475Y-87566632D01*
X178012311Y-87393271D01*
X178254603Y-87468792D01*
X179103395Y-86620000D01*
X179462605Y-86620000D01*
X180311397Y-87468792D01*
X180560472Y-87391157D01*
X180686371Y-87127117D01*
X180758339Y-86843589D01*
X180773611Y-86551469D01*
X180731599Y-86261981D01*
X180633919Y-85986253D01*
X180560472Y-85848843D01*
X180311397Y-85771208D01*
X179462605Y-86620000D01*
X179103395Y-86620000D01*
X178254603Y-85771208D01*
X178012311Y-85846729D01*
X177896475Y-85673368D01*
X177689632Y-85466525D01*
X177515240Y-85350000D01*
X177689632Y-85233475D01*
X177814710Y-85108397D01*
X178434208Y-85108397D01*
X178509514Y-85350000D01*
X178434208Y-85591603D01*
X179283000Y-86440395D01*
X180131792Y-85591603D01*
X180056486Y-85350000D01*
X180131792Y-85108397D01*
X179283000Y-84259605D01*
X178434208Y-85108397D01*
X177814710Y-85108397D01*
X177896475Y-85026632D01*
X178012311Y-84853271D01*
X178254603Y-84928792D01*
X179103395Y-84080000D01*
X179462605Y-84080000D01*
X180311397Y-84928792D01*
X180560472Y-84851157D01*
X180686371Y-84587117D01*
X180758339Y-84303589D01*
X180773611Y-84011469D01*
X180731599Y-83721981D01*
X180633919Y-83446253D01*
X180560472Y-83308843D01*
X180311397Y-83231208D01*
X179462605Y-84080000D01*
X179103395Y-84080000D01*
X178254603Y-83231208D01*
X178012311Y-83306729D01*
X177896475Y-83133368D01*
X177689632Y-82926525D01*
X177515240Y-82810000D01*
X177689632Y-82693475D01*
X177814710Y-82568397D01*
X178434208Y-82568397D01*
X178509514Y-82810000D01*
X178434208Y-83051603D01*
X179283000Y-83900395D01*
X180131792Y-83051603D01*
X180056486Y-82810000D01*
X180131792Y-82568397D01*
X179283000Y-81719605D01*
X178434208Y-82568397D01*
X177814710Y-82568397D01*
X177896475Y-82486632D01*
X178012311Y-82313271D01*
X178254603Y-82388792D01*
X179103395Y-81540000D01*
X179462605Y-81540000D01*
X180311397Y-82388792D01*
X180560472Y-82311157D01*
X180686371Y-82047117D01*
X180758339Y-81763589D01*
X180773611Y-81471469D01*
X180731599Y-81181981D01*
X180633919Y-80906253D01*
X180560472Y-80768843D01*
X180311397Y-80691208D01*
X179462605Y-81540000D01*
X179103395Y-81540000D01*
X178254603Y-80691208D01*
X178012311Y-80766729D01*
X177896475Y-80593368D01*
X177709392Y-80406285D01*
X177836386Y-80338405D01*
X177970962Y-80227962D01*
X178081405Y-80093386D01*
X178116142Y-80028397D01*
X178434208Y-80028397D01*
X178509514Y-80270000D01*
X178434208Y-80511603D01*
X179283000Y-81360395D01*
X180131792Y-80511603D01*
X180056486Y-80270000D01*
X180131792Y-80028397D01*
X179283000Y-79179605D01*
X178434208Y-80028397D01*
X178116142Y-80028397D01*
X178163472Y-79939850D01*
X178196580Y-79830707D01*
X178254603Y-79848792D01*
X179103395Y-79000000D01*
X179462605Y-79000000D01*
X180311397Y-79848792D01*
X180560472Y-79771157D01*
X180686371Y-79507117D01*
X180758339Y-79223589D01*
X180773611Y-78931469D01*
X180731599Y-78641981D01*
X180633919Y-78366253D01*
X180560472Y-78228843D01*
X180311397Y-78151208D01*
X179462605Y-79000000D01*
X179103395Y-79000000D01*
X178254603Y-78151208D01*
X178196580Y-78169293D01*
X178163472Y-78060150D01*
X178116143Y-77971603D01*
X178434208Y-77971603D01*
X179283000Y-78820395D01*
X180131792Y-77971603D01*
X180054157Y-77722528D01*
X179790117Y-77596629D01*
X179506589Y-77524661D01*
X179214469Y-77509389D01*
X178924981Y-77551401D01*
X178649253Y-77649081D01*
X178511843Y-77722528D01*
X178434208Y-77971603D01*
X178116143Y-77971603D01*
X178081405Y-77906614D01*
X177970962Y-77772038D01*
X177836386Y-77661595D01*
X177682850Y-77579528D01*
X177516254Y-77528992D01*
X177343000Y-77511928D01*
X176329730Y-77511928D01*
X169228000Y-70410199D01*
X169228000Y-70267396D01*
X169317967Y-70304662D01*
X169596172Y-70360000D01*
X169879828Y-70360000D01*
X170158033Y-70304662D01*
X170386865Y-70209877D01*
X170389038Y-70213128D01*
X170519272Y-70343362D01*
X170672411Y-70445686D01*
X170842571Y-70516168D01*
X171023211Y-70552100D01*
X171207389Y-70552100D01*
X171388029Y-70516168D01*
X171558189Y-70445686D01*
X171711328Y-70343362D01*
X171781643Y-70273047D01*
X171857967Y-70304662D01*
X172136172Y-70360000D01*
X172419828Y-70360000D01*
X172698033Y-70304662D01*
X172960096Y-70196112D01*
X173195947Y-70038521D01*
X173396521Y-69837947D01*
X173548000Y-69611243D01*
X173699479Y-69837947D01*
X173900053Y-70038521D01*
X174135904Y-70196112D01*
X174397967Y-70304662D01*
X174676172Y-70360000D01*
X174959828Y-70360000D01*
X175238033Y-70304662D01*
X175500096Y-70196112D01*
X175735947Y-70038521D01*
X175936521Y-69837947D01*
X176088000Y-69611243D01*
X176239479Y-69837947D01*
X176440053Y-70038521D01*
X176675904Y-70196112D01*
X176937967Y-70304662D01*
X177216172Y-70360000D01*
X177499828Y-70360000D01*
X177778033Y-70304662D01*
X178040096Y-70196112D01*
X178275947Y-70038521D01*
X178476521Y-69837947D01*
X178634112Y-69602096D01*
X178742662Y-69340033D01*
X178798000Y-69061828D01*
X178798000Y-68778172D01*
X178742662Y-68499967D01*
X178634112Y-68237904D01*
X178476521Y-68002053D01*
X178275947Y-67801479D01*
X178040096Y-67643888D01*
X177778033Y-67535338D01*
X177499828Y-67480000D01*
X177216172Y-67480000D01*
X176937967Y-67535338D01*
X176675904Y-67643888D01*
X176440053Y-67801479D01*
X176239479Y-68002053D01*
X176088000Y-68228757D01*
X175936521Y-68002053D01*
X175735947Y-67801479D01*
X175500096Y-67643888D01*
X175238033Y-67535338D01*
X174959828Y-67480000D01*
X174676172Y-67480000D01*
X174397967Y-67535338D01*
X174135904Y-67643888D01*
X173900053Y-67801479D01*
X173699479Y-68002053D01*
X173548000Y-68228757D01*
X173396521Y-68002053D01*
X173195947Y-67801479D01*
X172960096Y-67643888D01*
X172698033Y-67535338D01*
X172419828Y-67480000D01*
X172136172Y-67480000D01*
X171949862Y-67517059D01*
X168659504Y-64226703D01*
X168635701Y-64197699D01*
X168519976Y-64102726D01*
X168387947Y-64032154D01*
X168244686Y-63988697D01*
X168133033Y-63977700D01*
X168133022Y-63977700D01*
X168095700Y-63974024D01*
X168058378Y-63977700D01*
X148332673Y-63977700D01*
X148299568Y-63811271D01*
X148229086Y-63641111D01*
X148126762Y-63487972D01*
X147996528Y-63357738D01*
X147843389Y-63255414D01*
X147673229Y-63184932D01*
X147492589Y-63149000D01*
X147308411Y-63149000D01*
X147127771Y-63184932D01*
X146957611Y-63255414D01*
X146854965Y-63324000D01*
X137695400Y-63324000D01*
X138039100Y-62980300D01*
X143317720Y-62980300D01*
X143366100Y-62985065D01*
X143414480Y-62980300D01*
X143559194Y-62966047D01*
X143744867Y-62909724D01*
X143915984Y-62818260D01*
X144065970Y-62695170D01*
X144096816Y-62657585D01*
X145577890Y-61176511D01*
X145615470Y-61145670D01*
X145738560Y-60995684D01*
X145830024Y-60824567D01*
X145886347Y-60638894D01*
X145900600Y-60494180D01*
X145900600Y-60494179D01*
X145905365Y-60445800D01*
X145900600Y-60397420D01*
X145900600Y-55492698D01*
X154335000Y-55492698D01*
X154335000Y-55962502D01*
X154426654Y-56423279D01*
X154606440Y-56857321D01*
X154867450Y-57247949D01*
X155199651Y-57580150D01*
X155590279Y-57841160D01*
X156024321Y-58020946D01*
X156485098Y-58112600D01*
X156954902Y-58112600D01*
X157415679Y-58020946D01*
X157849721Y-57841160D01*
X158240349Y-57580150D01*
X158572550Y-57247949D01*
X158833560Y-56857321D01*
X159013346Y-56423279D01*
X159105000Y-55962502D01*
X159105000Y-55492698D01*
X159013346Y-55031921D01*
X158833560Y-54597879D01*
X158572550Y-54207251D01*
X158240349Y-53875050D01*
X157849721Y-53614040D01*
X157415679Y-53434254D01*
X156954902Y-53342600D01*
X156485098Y-53342600D01*
X156024321Y-53434254D01*
X155590279Y-53614040D01*
X155199651Y-53875050D01*
X154867450Y-54207251D01*
X154606440Y-54597879D01*
X154426654Y-55031921D01*
X154335000Y-55492698D01*
X145900600Y-55492698D01*
X145900600Y-54933400D01*
X149739900Y-51094100D01*
X170839835Y-51094100D01*
X170844600Y-51142480D01*
X170844601Y-60656610D01*
X170839835Y-60705000D01*
X170858853Y-60898093D01*
X170915176Y-61083766D01*
X170915177Y-61083767D01*
X171006641Y-61254884D01*
X171129731Y-61404870D01*
X171167311Y-61435711D01*
X173161928Y-63430329D01*
X173161928Y-64275400D01*
X173178992Y-64448654D01*
X173229528Y-64615250D01*
X173311595Y-64768786D01*
X173422038Y-64903362D01*
X173556614Y-65013805D01*
X173710150Y-65095872D01*
X173876746Y-65146408D01*
X174050000Y-65163472D01*
X175250000Y-65163472D01*
X175423254Y-65146408D01*
X175589850Y-65095872D01*
X175743386Y-65013805D01*
X175877962Y-64903362D01*
X175988405Y-64768786D01*
X176042777Y-64667063D01*
X176094866Y-64730534D01*
X176320987Y-64916106D01*
X176578967Y-65053999D01*
X176858890Y-65138913D01*
X177150000Y-65167585D01*
X177441111Y-65138913D01*
X177721034Y-65053999D01*
X177979014Y-64916106D01*
X178205134Y-64730534D01*
X178390706Y-64504414D01*
X178528599Y-64246433D01*
X178613513Y-63966510D01*
X178635000Y-63748349D01*
X178635000Y-63302450D01*
X178613513Y-63084289D01*
X178528599Y-62804366D01*
X178390706Y-62546386D01*
X178205134Y-62320266D01*
X177979013Y-62134694D01*
X177910000Y-62097806D01*
X177910000Y-59534922D01*
X177913676Y-59497599D01*
X177910000Y-59460276D01*
X177910000Y-59460267D01*
X177899003Y-59348614D01*
X177855546Y-59205353D01*
X177810397Y-59120886D01*
X177784974Y-59073323D01*
X177713799Y-58986597D01*
X177690001Y-58957599D01*
X177661003Y-58933801D01*
X174939424Y-56212223D01*
X174992030Y-56038804D01*
X175022681Y-55727600D01*
X174992030Y-55416396D01*
X174901255Y-55117151D01*
X174753845Y-54841365D01*
X174555463Y-54599637D01*
X174376101Y-54452437D01*
X174561315Y-54297037D01*
X174755969Y-54054523D01*
X174899571Y-53778694D01*
X174970563Y-53560580D01*
X174850594Y-53314600D01*
X173507000Y-53314600D01*
X173507000Y-53334600D01*
X173253000Y-53334600D01*
X173253000Y-53314600D01*
X173233000Y-53314600D01*
X173233000Y-53060600D01*
X173253000Y-53060600D01*
X173253000Y-51762030D01*
X173507000Y-51762030D01*
X173507000Y-53060600D01*
X174850594Y-53060600D01*
X174970563Y-52814620D01*
X174899571Y-52596506D01*
X174755969Y-52320677D01*
X174561315Y-52078163D01*
X174323089Y-51878284D01*
X174050446Y-51728721D01*
X173753863Y-51635222D01*
X173507000Y-51762030D01*
X173253000Y-51762030D01*
X173006137Y-51635222D01*
X172814600Y-51695605D01*
X172814600Y-51502100D01*
X173682700Y-50634000D01*
X175551928Y-50634000D01*
X175564188Y-50758482D01*
X175600498Y-50878180D01*
X175659463Y-50988494D01*
X175738815Y-51085185D01*
X175835506Y-51164537D01*
X175945820Y-51223502D01*
X176065518Y-51259812D01*
X176190000Y-51272072D01*
X176904250Y-51269000D01*
X177063000Y-51110250D01*
X177063000Y-49911000D01*
X177317000Y-49911000D01*
X177317000Y-51110250D01*
X177475750Y-51269000D01*
X178190000Y-51272072D01*
X178314482Y-51259812D01*
X178434180Y-51223502D01*
X178544494Y-51164537D01*
X178641185Y-51085185D01*
X178720537Y-50988494D01*
X178779502Y-50878180D01*
X178815812Y-50758482D01*
X178828072Y-50634000D01*
X178825000Y-50069750D01*
X178666250Y-49911000D01*
X177317000Y-49911000D01*
X177063000Y-49911000D01*
X175713750Y-49911000D01*
X175555000Y-50069750D01*
X175551928Y-50634000D01*
X173682700Y-50634000D01*
X175589010Y-48727690D01*
X175564188Y-48809518D01*
X175551928Y-48934000D01*
X175555000Y-49498250D01*
X175713750Y-49657000D01*
X177063000Y-49657000D01*
X177063000Y-49637000D01*
X177317000Y-49637000D01*
X177317000Y-49657000D01*
X178666250Y-49657000D01*
X178825000Y-49498250D01*
X178828072Y-48934000D01*
X178815812Y-48809518D01*
X178779502Y-48689820D01*
X178720537Y-48579506D01*
X178641185Y-48482815D01*
X178544494Y-48403463D01*
X178434180Y-48344498D01*
X178399392Y-48333945D01*
X178580706Y-48113014D01*
X178718599Y-47855034D01*
X178803513Y-47575111D01*
X178832185Y-47284000D01*
X178803513Y-46992889D01*
X178718599Y-46712966D01*
X178580706Y-46454986D01*
X178395134Y-46228866D01*
X178169014Y-46043294D01*
X177911034Y-45905401D01*
X177631111Y-45820487D01*
X177412950Y-45799000D01*
X176967050Y-45799000D01*
X176748889Y-45820487D01*
X176468966Y-45905401D01*
X176210986Y-46043294D01*
X175984866Y-46228866D01*
X175927308Y-46299000D01*
X175688079Y-46299000D01*
X175639699Y-46294235D01*
X175446606Y-46313253D01*
X175260933Y-46369576D01*
X175089816Y-46461040D01*
X174939830Y-46584130D01*
X174908984Y-46621716D01*
X171167316Y-50363384D01*
X171129730Y-50394230D01*
X171006640Y-50544216D01*
X170919266Y-50707682D01*
X170915176Y-50715334D01*
X170858853Y-50901007D01*
X170839835Y-51094100D01*
X149739900Y-51094100D01*
X152613928Y-48220072D01*
X152613928Y-48729000D01*
X152626188Y-48853482D01*
X152662498Y-48973180D01*
X152721463Y-49083494D01*
X152800815Y-49180185D01*
X152897506Y-49259537D01*
X153007820Y-49318502D01*
X153127518Y-49354812D01*
X153252000Y-49367072D01*
X154952000Y-49367072D01*
X155076482Y-49354812D01*
X155196180Y-49318502D01*
X155306494Y-49259537D01*
X155403185Y-49180185D01*
X155482537Y-49083494D01*
X155541502Y-48973180D01*
X155577812Y-48853482D01*
X155590072Y-48729000D01*
X155590072Y-47029000D01*
X155577812Y-46904518D01*
X155541502Y-46784820D01*
X155482537Y-46674506D01*
X155403185Y-46577815D01*
X155306494Y-46498463D01*
X155196180Y-46439498D01*
X155123620Y-46417487D01*
X155255475Y-46285632D01*
X155417990Y-46042411D01*
X155529932Y-45772158D01*
X155587000Y-45485260D01*
X155587000Y-45192740D01*
X155529932Y-44905842D01*
X155417990Y-44635589D01*
X155255475Y-44392368D01*
X155048632Y-44185525D01*
X154805411Y-44023010D01*
X154535158Y-43911068D01*
X154248260Y-43854000D01*
X153955740Y-43854000D01*
X153668842Y-43911068D01*
X153398589Y-44023010D01*
X153155368Y-44185525D01*
X152948525Y-44392368D01*
X152786010Y-44635589D01*
X152674068Y-44905842D01*
X152617000Y-45192740D01*
X152617000Y-45431000D01*
X144253311Y-53794689D01*
X144215731Y-53825530D01*
X144092641Y-53975516D01*
X144050411Y-54054523D01*
X144001176Y-54146634D01*
X143944853Y-54332307D01*
X143925835Y-54525400D01*
X143930601Y-54573790D01*
X143930601Y-56843146D01*
X143926535Y-56839080D01*
X143697727Y-56686195D01*
X143443490Y-56580886D01*
X143173592Y-56527200D01*
X142898408Y-56527200D01*
X142628510Y-56580886D01*
X142374273Y-56686195D01*
X142145465Y-56839080D01*
X142045345Y-56939200D01*
X131139000Y-56939200D01*
X125457165Y-51257365D01*
X125639023Y-51191836D01*
X125754980Y-51129856D01*
X125821960Y-50889765D01*
X142250040Y-50889765D01*
X142317020Y-51129856D01*
X142566048Y-51246956D01*
X142833135Y-51313223D01*
X143108017Y-51326110D01*
X143380133Y-51285122D01*
X143639023Y-51191836D01*
X143754980Y-51129856D01*
X143821960Y-50889765D01*
X143036000Y-50103805D01*
X142250040Y-50889765D01*
X125821960Y-50889765D01*
X125036000Y-50103805D01*
X125021858Y-50117948D01*
X124842253Y-49938343D01*
X124856395Y-49924200D01*
X125215605Y-49924200D01*
X126001565Y-50710160D01*
X126241656Y-50643180D01*
X126358756Y-50394152D01*
X126425023Y-50127065D01*
X126431157Y-49996217D01*
X141634090Y-49996217D01*
X141675078Y-50268333D01*
X141768364Y-50527223D01*
X141830344Y-50643180D01*
X142070435Y-50710160D01*
X142856395Y-49924200D01*
X143215605Y-49924200D01*
X144001565Y-50710160D01*
X144241656Y-50643180D01*
X144358756Y-50394152D01*
X144425023Y-50127065D01*
X144437910Y-49852183D01*
X144396922Y-49580067D01*
X144303636Y-49321177D01*
X144241656Y-49205220D01*
X144001565Y-49138240D01*
X143215605Y-49924200D01*
X142856395Y-49924200D01*
X142070435Y-49138240D01*
X141830344Y-49205220D01*
X141713244Y-49454248D01*
X141646977Y-49721335D01*
X141634090Y-49996217D01*
X126431157Y-49996217D01*
X126437910Y-49852183D01*
X126396922Y-49580067D01*
X126303636Y-49321177D01*
X126241656Y-49205220D01*
X126001565Y-49138240D01*
X125215605Y-49924200D01*
X124856395Y-49924200D01*
X124070435Y-49138240D01*
X123830344Y-49205220D01*
X123713244Y-49454248D01*
X123701477Y-49501677D01*
X122549565Y-48349765D01*
X124250040Y-48349765D01*
X124317020Y-48589856D01*
X124447644Y-48651279D01*
X124432977Y-48656564D01*
X124317020Y-48718544D01*
X124250040Y-48958635D01*
X125036000Y-49744595D01*
X125821960Y-48958635D01*
X125754980Y-48718544D01*
X125624356Y-48657121D01*
X125639023Y-48651836D01*
X125754980Y-48589856D01*
X125821960Y-48349765D01*
X142250040Y-48349765D01*
X142317020Y-48589856D01*
X142447644Y-48651279D01*
X142432977Y-48656564D01*
X142317020Y-48718544D01*
X142250040Y-48958635D01*
X143036000Y-49744595D01*
X143821960Y-48958635D01*
X143754980Y-48718544D01*
X143624356Y-48657121D01*
X143639023Y-48651836D01*
X143754980Y-48589856D01*
X143821960Y-48349765D01*
X143036000Y-47563805D01*
X142250040Y-48349765D01*
X125821960Y-48349765D01*
X125036000Y-47563805D01*
X124250040Y-48349765D01*
X122549565Y-48349765D01*
X121659843Y-47460043D01*
X121660219Y-47456217D01*
X123634090Y-47456217D01*
X123675078Y-47728333D01*
X123768364Y-47987223D01*
X123830344Y-48103180D01*
X124070435Y-48170160D01*
X124856395Y-47384200D01*
X125215605Y-47384200D01*
X126001565Y-48170160D01*
X126241656Y-48103180D01*
X126358756Y-47854152D01*
X126425023Y-47587065D01*
X126431157Y-47456217D01*
X141634090Y-47456217D01*
X141675078Y-47728333D01*
X141768364Y-47987223D01*
X141830344Y-48103180D01*
X142070435Y-48170160D01*
X142856395Y-47384200D01*
X143215605Y-47384200D01*
X144001565Y-48170160D01*
X144241656Y-48103180D01*
X144358756Y-47854152D01*
X144425023Y-47587065D01*
X144437910Y-47312183D01*
X144396922Y-47040067D01*
X144303636Y-46781177D01*
X144241656Y-46665220D01*
X144001565Y-46598240D01*
X143215605Y-47384200D01*
X142856395Y-47384200D01*
X142070435Y-46598240D01*
X141830344Y-46665220D01*
X141713244Y-46914248D01*
X141646977Y-47181335D01*
X141634090Y-47456217D01*
X126431157Y-47456217D01*
X126437910Y-47312183D01*
X126396922Y-47040067D01*
X126303636Y-46781177D01*
X126241656Y-46665220D01*
X126001565Y-46598240D01*
X125215605Y-47384200D01*
X124856395Y-47384200D01*
X124070435Y-46598240D01*
X123830344Y-46665220D01*
X123713244Y-46914248D01*
X123646977Y-47181335D01*
X123634090Y-47456217D01*
X121660219Y-47456217D01*
X121682185Y-47233200D01*
X121653513Y-46942089D01*
X121568599Y-46662166D01*
X121438430Y-46418635D01*
X124250040Y-46418635D01*
X125036000Y-47204595D01*
X125821960Y-46418635D01*
X142250040Y-46418635D01*
X143036000Y-47204595D01*
X143821960Y-46418635D01*
X143754980Y-46178544D01*
X143505952Y-46061444D01*
X143238865Y-45995177D01*
X142963983Y-45982290D01*
X142691867Y-46023278D01*
X142432977Y-46116564D01*
X142317020Y-46178544D01*
X142250040Y-46418635D01*
X125821960Y-46418635D01*
X125754980Y-46178544D01*
X125505952Y-46061444D01*
X125238865Y-45995177D01*
X124963983Y-45982290D01*
X124691867Y-46023278D01*
X124432977Y-46116564D01*
X124317020Y-46178544D01*
X124250040Y-46418635D01*
X121438430Y-46418635D01*
X121430706Y-46404186D01*
X121245134Y-46178066D01*
X121019014Y-45992494D01*
X120761034Y-45854601D01*
X120481111Y-45769687D01*
X120262950Y-45748200D01*
X119817050Y-45748200D01*
X119598889Y-45769687D01*
X119318966Y-45854601D01*
X119060986Y-45992494D01*
X118834866Y-46178066D01*
X118649294Y-46404186D01*
X118511401Y-46662166D01*
X118426487Y-46942089D01*
X118397815Y-47233200D01*
X118426487Y-47524311D01*
X118511401Y-47804234D01*
X118649294Y-48062214D01*
X118830608Y-48283145D01*
X118795820Y-48293698D01*
X118685506Y-48352663D01*
X118588815Y-48432015D01*
X118509463Y-48528706D01*
X118450498Y-48639020D01*
X118414188Y-48758718D01*
X118401928Y-48883200D01*
X118405000Y-49447450D01*
X118563750Y-49606200D01*
X119913000Y-49606200D01*
X119913000Y-49586200D01*
X120167000Y-49586200D01*
X120167000Y-49606200D01*
X120187000Y-49606200D01*
X120187000Y-49860200D01*
X120167000Y-49860200D01*
X120167000Y-51059450D01*
X120325750Y-51218200D01*
X121040000Y-51221272D01*
X121164482Y-51209012D01*
X121284180Y-51172702D01*
X121394494Y-51113737D01*
X121491185Y-51034385D01*
X121570537Y-50937694D01*
X121629502Y-50827380D01*
X121665812Y-50707682D01*
X121678072Y-50583200D01*
X121676326Y-50262526D01*
X130000284Y-58586484D01*
X130031130Y-58624070D01*
X130181116Y-58747160D01*
X130352233Y-58838624D01*
X130494691Y-58881838D01*
X130537905Y-58894947D01*
X130730999Y-58913965D01*
X130779379Y-58909200D01*
X142045345Y-58909200D01*
X142145465Y-59009320D01*
X142374273Y-59162205D01*
X142451515Y-59194200D01*
X142374273Y-59226195D01*
X142145465Y-59379080D01*
X141950880Y-59573665D01*
X141797995Y-59802473D01*
X141725204Y-59978204D01*
X141548916Y-59801916D01*
X141518070Y-59764330D01*
X141368084Y-59641240D01*
X141196967Y-59549776D01*
X141011294Y-59493453D01*
X140866580Y-59479200D01*
X140818200Y-59474435D01*
X140769820Y-59479200D01*
X126026655Y-59479200D01*
X125926535Y-59379080D01*
X125697727Y-59226195D01*
X125620485Y-59194200D01*
X125697727Y-59162205D01*
X125926535Y-59009320D01*
X126121120Y-58814735D01*
X126274005Y-58585927D01*
X126379314Y-58331690D01*
X126433000Y-58061792D01*
X126433000Y-57786608D01*
X126379314Y-57516710D01*
X126274005Y-57262473D01*
X126121120Y-57033665D01*
X125926535Y-56839080D01*
X125697727Y-56686195D01*
X125443490Y-56580886D01*
X125173592Y-56527200D01*
X124898408Y-56527200D01*
X124628510Y-56580886D01*
X124374273Y-56686195D01*
X124145465Y-56839080D01*
X123950880Y-57033665D01*
X123797995Y-57262473D01*
X123692686Y-57516710D01*
X123639000Y-57786608D01*
X123639000Y-58061792D01*
X123692686Y-58331690D01*
X123797995Y-58585927D01*
X123950880Y-58814735D01*
X124145465Y-59009320D01*
X124374273Y-59162205D01*
X124451515Y-59194200D01*
X124374273Y-59226195D01*
X124145465Y-59379080D01*
X123950880Y-59573665D01*
X123797995Y-59802473D01*
X123692686Y-60056710D01*
X123639000Y-60326608D01*
X123639000Y-60601792D01*
X123692686Y-60871690D01*
X123797995Y-61125927D01*
X123950880Y-61354735D01*
X124145465Y-61549320D01*
X124374273Y-61702205D01*
X124628510Y-61807514D01*
X124898408Y-61861200D01*
X125173592Y-61861200D01*
X125443490Y-61807514D01*
X125697727Y-61702205D01*
X125926535Y-61549320D01*
X126026655Y-61449200D01*
X136784200Y-61449200D01*
X128938711Y-69294689D01*
X128901131Y-69325530D01*
X128778040Y-69475516D01*
X128686576Y-69646633D01*
X128630253Y-69832306D01*
X128623446Y-69901415D01*
X128615915Y-69977884D01*
X125504399Y-73089400D01*
X125407692Y-72855927D01*
X125215081Y-72567665D01*
X124969935Y-72322519D01*
X124681673Y-72129908D01*
X124361373Y-71997236D01*
X124021345Y-71929600D01*
X123674655Y-71929600D01*
X123334627Y-71997236D01*
X123014327Y-72129908D01*
X122726065Y-72322519D01*
X122480919Y-72567665D01*
X122288308Y-72855927D01*
X122257792Y-72929600D01*
X118938208Y-72929600D01*
X118907692Y-72855927D01*
X118715081Y-72567665D01*
X118469935Y-72322519D01*
X118181673Y-72129908D01*
X117861373Y-71997236D01*
X117521345Y-71929600D01*
X117174655Y-71929600D01*
X116834627Y-71997236D01*
X116514327Y-72129908D01*
X116226065Y-72322519D01*
X115980919Y-72567665D01*
X115788308Y-72855927D01*
X115655636Y-73176227D01*
X115588000Y-73516255D01*
X115588000Y-73862945D01*
X115655636Y-74202973D01*
X115788308Y-74523273D01*
X115980919Y-74811535D01*
X116226065Y-75056681D01*
X116514327Y-75249292D01*
X116834627Y-75381964D01*
X117174655Y-75449600D01*
X117521345Y-75449600D01*
X117861373Y-75381964D01*
X118181673Y-75249292D01*
X118469935Y-75056681D01*
X118715081Y-74811535D01*
X118907692Y-74523273D01*
X118938208Y-74449600D01*
X122257792Y-74449600D01*
X122288308Y-74523273D01*
X122480919Y-74811535D01*
X122726065Y-75056681D01*
X123014327Y-75249292D01*
X123334627Y-75381964D01*
X123674655Y-75449600D01*
X123953001Y-75449600D01*
X123953000Y-109031928D01*
X123188000Y-109031928D01*
X123063518Y-109044188D01*
X122943820Y-109080498D01*
X122833506Y-109139463D01*
X122736815Y-109218815D01*
X122657463Y-109315506D01*
X122598498Y-109425820D01*
X122562188Y-109545518D01*
X122549928Y-109670000D01*
X122549928Y-113170000D01*
X122562188Y-113294482D01*
X122598498Y-113414180D01*
X122609627Y-113435000D01*
X122346001Y-113435000D01*
X121076072Y-112165072D01*
X121076072Y-110420000D01*
X121049401Y-110149201D01*
X120970411Y-109888808D01*
X120842140Y-109648829D01*
X120669515Y-109438485D01*
X120459171Y-109265860D01*
X120219192Y-109137589D01*
X119958799Y-109058599D01*
X119688000Y-109031928D01*
X118188000Y-109031928D01*
X117917201Y-109058599D01*
X117656808Y-109137589D01*
X117416829Y-109265860D01*
X117206485Y-109438485D01*
X117033860Y-109648829D01*
X116905589Y-109888808D01*
X116826599Y-110149201D01*
X116799928Y-110420000D01*
X116799928Y-112420000D01*
X116826599Y-112690799D01*
X116905589Y-112951192D01*
X117033860Y-113191171D01*
X117206485Y-113401515D01*
X117416829Y-113574140D01*
X117656808Y-113702411D01*
X117917201Y-113781401D01*
X118188000Y-113808072D01*
X119688000Y-113808072D01*
X119911098Y-113786099D01*
X120161715Y-114036715D01*
X119993097Y-114175097D01*
X119804927Y-114404382D01*
X119665104Y-114665972D01*
X119579001Y-114949814D01*
X119549928Y-115245000D01*
X119549928Y-115392091D01*
X115391417Y-115372474D01*
X115111739Y-70414131D01*
X116303074Y-70414131D01*
X116413921Y-70691314D01*
X116724840Y-70844689D01*
X117059705Y-70934460D01*
X117405650Y-70957176D01*
X117749380Y-70911966D01*
X118077685Y-70800566D01*
X118282079Y-70691314D01*
X118392926Y-70414131D01*
X122803074Y-70414131D01*
X122913921Y-70691314D01*
X123224840Y-70844689D01*
X123559705Y-70934460D01*
X123905650Y-70957176D01*
X124249380Y-70911966D01*
X124577685Y-70800566D01*
X124782079Y-70691314D01*
X124892926Y-70414131D01*
X123848000Y-69369205D01*
X122803074Y-70414131D01*
X118392926Y-70414131D01*
X117348000Y-69369205D01*
X116303074Y-70414131D01*
X115111739Y-70414131D01*
X115104480Y-69247250D01*
X115580424Y-69247250D01*
X115625634Y-69590980D01*
X115737034Y-69919285D01*
X115846286Y-70123679D01*
X116123469Y-70234526D01*
X117168395Y-69189600D01*
X117527605Y-69189600D01*
X118572531Y-70234526D01*
X118849714Y-70123679D01*
X119003089Y-69812760D01*
X119092860Y-69477895D01*
X119108004Y-69247250D01*
X122080424Y-69247250D01*
X122125634Y-69590980D01*
X122237034Y-69919285D01*
X122346286Y-70123679D01*
X122623469Y-70234526D01*
X123668395Y-69189600D01*
X124027605Y-69189600D01*
X125072531Y-70234526D01*
X125349714Y-70123679D01*
X125503089Y-69812760D01*
X125592860Y-69477895D01*
X125615576Y-69131950D01*
X125570366Y-68788220D01*
X125458966Y-68459915D01*
X125349714Y-68255521D01*
X125072531Y-68144674D01*
X124027605Y-69189600D01*
X123668395Y-69189600D01*
X122623469Y-68144674D01*
X122346286Y-68255521D01*
X122192911Y-68566440D01*
X122103140Y-68901305D01*
X122080424Y-69247250D01*
X119108004Y-69247250D01*
X119115576Y-69131950D01*
X119070366Y-68788220D01*
X118958966Y-68459915D01*
X118849714Y-68255521D01*
X118572531Y-68144674D01*
X117527605Y-69189600D01*
X117168395Y-69189600D01*
X116123469Y-68144674D01*
X115846286Y-68255521D01*
X115692911Y-68566440D01*
X115603140Y-68901305D01*
X115580424Y-69247250D01*
X115104480Y-69247250D01*
X115096504Y-67965069D01*
X116303074Y-67965069D01*
X117348000Y-69009995D01*
X118392926Y-67965069D01*
X122803074Y-67965069D01*
X123848000Y-69009995D01*
X124892926Y-67965069D01*
X124782079Y-67687886D01*
X124471160Y-67534511D01*
X124136295Y-67444740D01*
X123790350Y-67422024D01*
X123446620Y-67467234D01*
X123118315Y-67578634D01*
X122913921Y-67687886D01*
X122803074Y-67965069D01*
X118392926Y-67965069D01*
X118282079Y-67687886D01*
X117971160Y-67534511D01*
X117636295Y-67444740D01*
X117290350Y-67422024D01*
X116946620Y-67467234D01*
X116618315Y-67578634D01*
X116413921Y-67687886D01*
X116303074Y-67965069D01*
X115096504Y-67965069D01*
X114988374Y-50583200D01*
X118401928Y-50583200D01*
X118414188Y-50707682D01*
X118450498Y-50827380D01*
X118509463Y-50937694D01*
X118588815Y-51034385D01*
X118685506Y-51113737D01*
X118795820Y-51172702D01*
X118915518Y-51209012D01*
X119040000Y-51221272D01*
X119754250Y-51218200D01*
X119913000Y-51059450D01*
X119913000Y-49860200D01*
X118563750Y-49860200D01*
X118405000Y-50018950D01*
X118401928Y-50583200D01*
X114988374Y-50583200D01*
X114985000Y-50040972D01*
X114985000Y-43763951D01*
X128617590Y-43743581D01*
X179206364Y-43763305D01*
G37*
X179206364Y-43763305D02*
X179291433Y-43832907D01*
X179588167Y-72736744D01*
X179590861Y-72761494D01*
X179598332Y-72785243D01*
X179610293Y-72807078D01*
X179626284Y-72826160D01*
X179645690Y-72841755D01*
X179667766Y-72853265D01*
X179691664Y-72860248D01*
X179705217Y-72862050D01*
X182497361Y-73081328D01*
X181915139Y-115055979D01*
X180907405Y-115681534D01*
X178691100Y-115671079D01*
X178691100Y-110842945D01*
X178775883Y-110883371D01*
X179059411Y-110955339D01*
X179351531Y-110970611D01*
X179641019Y-110928599D01*
X179916747Y-110830919D01*
X180054157Y-110757472D01*
X180131792Y-110508397D01*
X179283000Y-109659605D01*
X179268858Y-109673748D01*
X179089253Y-109494143D01*
X179103395Y-109480000D01*
X179462605Y-109480000D01*
X180311397Y-110328792D01*
X180560472Y-110251157D01*
X180686371Y-109987117D01*
X180758339Y-109703589D01*
X180773611Y-109411469D01*
X180731599Y-109121981D01*
X180633919Y-108846253D01*
X180560472Y-108708843D01*
X180311397Y-108631208D01*
X179462605Y-109480000D01*
X179103395Y-109480000D01*
X179089253Y-109465858D01*
X179268858Y-109286253D01*
X179283000Y-109300395D01*
X180131792Y-108451603D01*
X180056486Y-108210000D01*
X180131792Y-107968397D01*
X179283000Y-107119605D01*
X179268858Y-107133748D01*
X179089253Y-106954143D01*
X179103395Y-106940000D01*
X179462605Y-106940000D01*
X180311397Y-107788792D01*
X180560472Y-107711157D01*
X180686371Y-107447117D01*
X180758339Y-107163589D01*
X180773611Y-106871469D01*
X180731599Y-106581981D01*
X180633919Y-106306253D01*
X180560472Y-106168843D01*
X180311397Y-106091208D01*
X179462605Y-106940000D01*
X179103395Y-106940000D01*
X179089253Y-106925858D01*
X179268858Y-106746253D01*
X179283000Y-106760395D01*
X180131792Y-105911603D01*
X180056486Y-105670000D01*
X180131792Y-105428397D01*
X179283000Y-104579605D01*
X179268858Y-104593748D01*
X179089253Y-104414143D01*
X179103395Y-104400000D01*
X179462605Y-104400000D01*
X180311397Y-105248792D01*
X180560472Y-105171157D01*
X180686371Y-104907117D01*
X180758339Y-104623589D01*
X180773611Y-104331469D01*
X180731599Y-104041981D01*
X180633919Y-103766253D01*
X180560472Y-103628843D01*
X180311397Y-103551208D01*
X179462605Y-104400000D01*
X179103395Y-104400000D01*
X179089253Y-104385858D01*
X179268858Y-104206253D01*
X179283000Y-104220395D01*
X180131792Y-103371603D01*
X180056486Y-103130000D01*
X180131792Y-102888397D01*
X179283000Y-102039605D01*
X179268858Y-102053748D01*
X179089253Y-101874143D01*
X179103395Y-101860000D01*
X179462605Y-101860000D01*
X180311397Y-102708792D01*
X180560472Y-102631157D01*
X180686371Y-102367117D01*
X180758339Y-102083589D01*
X180773611Y-101791469D01*
X180731599Y-101501981D01*
X180633919Y-101226253D01*
X180560472Y-101088843D01*
X180311397Y-101011208D01*
X179462605Y-101860000D01*
X179103395Y-101860000D01*
X179089253Y-101845858D01*
X179268858Y-101666253D01*
X179283000Y-101680395D01*
X180131792Y-100831603D01*
X180056486Y-100590000D01*
X180131792Y-100348397D01*
X179283000Y-99499605D01*
X179268858Y-99513748D01*
X179089253Y-99334143D01*
X179103395Y-99320000D01*
X179462605Y-99320000D01*
X180311397Y-100168792D01*
X180560472Y-100091157D01*
X180686371Y-99827117D01*
X180758339Y-99543589D01*
X180773611Y-99251469D01*
X180731599Y-98961981D01*
X180633919Y-98686253D01*
X180560472Y-98548843D01*
X180311397Y-98471208D01*
X179462605Y-99320000D01*
X179103395Y-99320000D01*
X179089253Y-99305858D01*
X179268858Y-99126253D01*
X179283000Y-99140395D01*
X180131792Y-98291603D01*
X180056486Y-98050000D01*
X180131792Y-97808397D01*
X179283000Y-96959605D01*
X179268858Y-96973748D01*
X179089253Y-96794143D01*
X179103395Y-96780000D01*
X179462605Y-96780000D01*
X180311397Y-97628792D01*
X180560472Y-97551157D01*
X180686371Y-97287117D01*
X180758339Y-97003589D01*
X180773611Y-96711469D01*
X180731599Y-96421981D01*
X180633919Y-96146253D01*
X180560472Y-96008843D01*
X180311397Y-95931208D01*
X179462605Y-96780000D01*
X179103395Y-96780000D01*
X178254603Y-95931208D01*
X178012311Y-96006729D01*
X177896475Y-95833368D01*
X177689632Y-95626525D01*
X177515240Y-95510000D01*
X177689632Y-95393475D01*
X177814710Y-95268397D01*
X178434208Y-95268397D01*
X178509514Y-95510000D01*
X178434208Y-95751603D01*
X179283000Y-96600395D01*
X180131792Y-95751603D01*
X180056486Y-95510000D01*
X180131792Y-95268397D01*
X179283000Y-94419605D01*
X178434208Y-95268397D01*
X177814710Y-95268397D01*
X177896475Y-95186632D01*
X178012311Y-95013271D01*
X178254603Y-95088792D01*
X179103395Y-94240000D01*
X179462605Y-94240000D01*
X180311397Y-95088792D01*
X180560472Y-95011157D01*
X180686371Y-94747117D01*
X180758339Y-94463589D01*
X180773611Y-94171469D01*
X180731599Y-93881981D01*
X180633919Y-93606253D01*
X180560472Y-93468843D01*
X180311397Y-93391208D01*
X179462605Y-94240000D01*
X179103395Y-94240000D01*
X178254603Y-93391208D01*
X178012311Y-93466729D01*
X177896475Y-93293368D01*
X177689632Y-93086525D01*
X177515240Y-92970000D01*
X177689632Y-92853475D01*
X177814710Y-92728397D01*
X178434208Y-92728397D01*
X178509514Y-92970000D01*
X178434208Y-93211603D01*
X179283000Y-94060395D01*
X180131792Y-93211603D01*
X180056486Y-92970000D01*
X180131792Y-92728397D01*
X179283000Y-91879605D01*
X178434208Y-92728397D01*
X177814710Y-92728397D01*
X177896475Y-92646632D01*
X178012311Y-92473271D01*
X178254603Y-92548792D01*
X179103395Y-91700000D01*
X179462605Y-91700000D01*
X180311397Y-92548792D01*
X180560472Y-92471157D01*
X180686371Y-92207117D01*
X180758339Y-91923589D01*
X180773611Y-91631469D01*
X180731599Y-91341981D01*
X180633919Y-91066253D01*
X180560472Y-90928843D01*
X180311397Y-90851208D01*
X179462605Y-91700000D01*
X179103395Y-91700000D01*
X178254603Y-90851208D01*
X178012311Y-90926729D01*
X177896475Y-90753368D01*
X177689632Y-90546525D01*
X177515240Y-90430000D01*
X177689632Y-90313475D01*
X177814710Y-90188397D01*
X178434208Y-90188397D01*
X178509514Y-90430000D01*
X178434208Y-90671603D01*
X179283000Y-91520395D01*
X180131792Y-90671603D01*
X180056486Y-90430000D01*
X180131792Y-90188397D01*
X179283000Y-89339605D01*
X178434208Y-90188397D01*
X177814710Y-90188397D01*
X177896475Y-90106632D01*
X178012311Y-89933271D01*
X178254603Y-90008792D01*
X179103395Y-89160000D01*
X179462605Y-89160000D01*
X180311397Y-90008792D01*
X180560472Y-89931157D01*
X180686371Y-89667117D01*
X180758339Y-89383589D01*
X180773611Y-89091469D01*
X180731599Y-88801981D01*
X180633919Y-88526253D01*
X180560472Y-88388843D01*
X180311397Y-88311208D01*
X179462605Y-89160000D01*
X179103395Y-89160000D01*
X178254603Y-88311208D01*
X178012311Y-88386729D01*
X177896475Y-88213368D01*
X177689632Y-88006525D01*
X177515240Y-87890000D01*
X177689632Y-87773475D01*
X177814710Y-87648397D01*
X178434208Y-87648397D01*
X178509514Y-87890000D01*
X178434208Y-88131603D01*
X179283000Y-88980395D01*
X180131792Y-88131603D01*
X180056486Y-87890000D01*
X180131792Y-87648397D01*
X179283000Y-86799605D01*
X178434208Y-87648397D01*
X177814710Y-87648397D01*
X177896475Y-87566632D01*
X178012311Y-87393271D01*
X178254603Y-87468792D01*
X179103395Y-86620000D01*
X179462605Y-86620000D01*
X180311397Y-87468792D01*
X180560472Y-87391157D01*
X180686371Y-87127117D01*
X180758339Y-86843589D01*
X180773611Y-86551469D01*
X180731599Y-86261981D01*
X180633919Y-85986253D01*
X180560472Y-85848843D01*
X180311397Y-85771208D01*
X179462605Y-86620000D01*
X179103395Y-86620000D01*
X178254603Y-85771208D01*
X178012311Y-85846729D01*
X177896475Y-85673368D01*
X177689632Y-85466525D01*
X177515240Y-85350000D01*
X177689632Y-85233475D01*
X177814710Y-85108397D01*
X178434208Y-85108397D01*
X178509514Y-85350000D01*
X178434208Y-85591603D01*
X179283000Y-86440395D01*
X180131792Y-85591603D01*
X180056486Y-85350000D01*
X180131792Y-85108397D01*
X179283000Y-84259605D01*
X178434208Y-85108397D01*
X177814710Y-85108397D01*
X177896475Y-85026632D01*
X178012311Y-84853271D01*
X178254603Y-84928792D01*
X179103395Y-84080000D01*
X179462605Y-84080000D01*
X180311397Y-84928792D01*
X180560472Y-84851157D01*
X180686371Y-84587117D01*
X180758339Y-84303589D01*
X180773611Y-84011469D01*
X180731599Y-83721981D01*
X180633919Y-83446253D01*
X180560472Y-83308843D01*
X180311397Y-83231208D01*
X179462605Y-84080000D01*
X179103395Y-84080000D01*
X178254603Y-83231208D01*
X178012311Y-83306729D01*
X177896475Y-83133368D01*
X177689632Y-82926525D01*
X177515240Y-82810000D01*
X177689632Y-82693475D01*
X177814710Y-82568397D01*
X178434208Y-82568397D01*
X178509514Y-82810000D01*
X178434208Y-83051603D01*
X179283000Y-83900395D01*
X180131792Y-83051603D01*
X180056486Y-82810000D01*
X180131792Y-82568397D01*
X179283000Y-81719605D01*
X178434208Y-82568397D01*
X177814710Y-82568397D01*
X177896475Y-82486632D01*
X178012311Y-82313271D01*
X178254603Y-82388792D01*
X179103395Y-81540000D01*
X179462605Y-81540000D01*
X180311397Y-82388792D01*
X180560472Y-82311157D01*
X180686371Y-82047117D01*
X180758339Y-81763589D01*
X180773611Y-81471469D01*
X180731599Y-81181981D01*
X180633919Y-80906253D01*
X180560472Y-80768843D01*
X180311397Y-80691208D01*
X179462605Y-81540000D01*
X179103395Y-81540000D01*
X178254603Y-80691208D01*
X178012311Y-80766729D01*
X177896475Y-80593368D01*
X177709392Y-80406285D01*
X177836386Y-80338405D01*
X177970962Y-80227962D01*
X178081405Y-80093386D01*
X178116142Y-80028397D01*
X178434208Y-80028397D01*
X178509514Y-80270000D01*
X178434208Y-80511603D01*
X179283000Y-81360395D01*
X180131792Y-80511603D01*
X180056486Y-80270000D01*
X180131792Y-80028397D01*
X179283000Y-79179605D01*
X178434208Y-80028397D01*
X178116142Y-80028397D01*
X178163472Y-79939850D01*
X178196580Y-79830707D01*
X178254603Y-79848792D01*
X179103395Y-79000000D01*
X179462605Y-79000000D01*
X180311397Y-79848792D01*
X180560472Y-79771157D01*
X180686371Y-79507117D01*
X180758339Y-79223589D01*
X180773611Y-78931469D01*
X180731599Y-78641981D01*
X180633919Y-78366253D01*
X180560472Y-78228843D01*
X180311397Y-78151208D01*
X179462605Y-79000000D01*
X179103395Y-79000000D01*
X178254603Y-78151208D01*
X178196580Y-78169293D01*
X178163472Y-78060150D01*
X178116143Y-77971603D01*
X178434208Y-77971603D01*
X179283000Y-78820395D01*
X180131792Y-77971603D01*
X180054157Y-77722528D01*
X179790117Y-77596629D01*
X179506589Y-77524661D01*
X179214469Y-77509389D01*
X178924981Y-77551401D01*
X178649253Y-77649081D01*
X178511843Y-77722528D01*
X178434208Y-77971603D01*
X178116143Y-77971603D01*
X178081405Y-77906614D01*
X177970962Y-77772038D01*
X177836386Y-77661595D01*
X177682850Y-77579528D01*
X177516254Y-77528992D01*
X177343000Y-77511928D01*
X176329730Y-77511928D01*
X169228000Y-70410199D01*
X169228000Y-70267396D01*
X169317967Y-70304662D01*
X169596172Y-70360000D01*
X169879828Y-70360000D01*
X170158033Y-70304662D01*
X170386865Y-70209877D01*
X170389038Y-70213128D01*
X170519272Y-70343362D01*
X170672411Y-70445686D01*
X170842571Y-70516168D01*
X171023211Y-70552100D01*
X171207389Y-70552100D01*
X171388029Y-70516168D01*
X171558189Y-70445686D01*
X171711328Y-70343362D01*
X171781643Y-70273047D01*
X171857967Y-70304662D01*
X172136172Y-70360000D01*
X172419828Y-70360000D01*
X172698033Y-70304662D01*
X172960096Y-70196112D01*
X173195947Y-70038521D01*
X173396521Y-69837947D01*
X173548000Y-69611243D01*
X173699479Y-69837947D01*
X173900053Y-70038521D01*
X174135904Y-70196112D01*
X174397967Y-70304662D01*
X174676172Y-70360000D01*
X174959828Y-70360000D01*
X175238033Y-70304662D01*
X175500096Y-70196112D01*
X175735947Y-70038521D01*
X175936521Y-69837947D01*
X176088000Y-69611243D01*
X176239479Y-69837947D01*
X176440053Y-70038521D01*
X176675904Y-70196112D01*
X176937967Y-70304662D01*
X177216172Y-70360000D01*
X177499828Y-70360000D01*
X177778033Y-70304662D01*
X178040096Y-70196112D01*
X178275947Y-70038521D01*
X178476521Y-69837947D01*
X178634112Y-69602096D01*
X178742662Y-69340033D01*
X178798000Y-69061828D01*
X178798000Y-68778172D01*
X178742662Y-68499967D01*
X178634112Y-68237904D01*
X178476521Y-68002053D01*
X178275947Y-67801479D01*
X178040096Y-67643888D01*
X177778033Y-67535338D01*
X177499828Y-67480000D01*
X177216172Y-67480000D01*
X176937967Y-67535338D01*
X176675904Y-67643888D01*
X176440053Y-67801479D01*
X176239479Y-68002053D01*
X176088000Y-68228757D01*
X175936521Y-68002053D01*
X175735947Y-67801479D01*
X175500096Y-67643888D01*
X175238033Y-67535338D01*
X174959828Y-67480000D01*
X174676172Y-67480000D01*
X174397967Y-67535338D01*
X174135904Y-67643888D01*
X173900053Y-67801479D01*
X173699479Y-68002053D01*
X173548000Y-68228757D01*
X173396521Y-68002053D01*
X173195947Y-67801479D01*
X172960096Y-67643888D01*
X172698033Y-67535338D01*
X172419828Y-67480000D01*
X172136172Y-67480000D01*
X171949862Y-67517059D01*
X168659504Y-64226703D01*
X168635701Y-64197699D01*
X168519976Y-64102726D01*
X168387947Y-64032154D01*
X168244686Y-63988697D01*
X168133033Y-63977700D01*
X168133022Y-63977700D01*
X168095700Y-63974024D01*
X168058378Y-63977700D01*
X148332673Y-63977700D01*
X148299568Y-63811271D01*
X148229086Y-63641111D01*
X148126762Y-63487972D01*
X147996528Y-63357738D01*
X147843389Y-63255414D01*
X147673229Y-63184932D01*
X147492589Y-63149000D01*
X147308411Y-63149000D01*
X147127771Y-63184932D01*
X146957611Y-63255414D01*
X146854965Y-63324000D01*
X137695400Y-63324000D01*
X138039100Y-62980300D01*
X143317720Y-62980300D01*
X143366100Y-62985065D01*
X143414480Y-62980300D01*
X143559194Y-62966047D01*
X143744867Y-62909724D01*
X143915984Y-62818260D01*
X144065970Y-62695170D01*
X144096816Y-62657585D01*
X145577890Y-61176511D01*
X145615470Y-61145670D01*
X145738560Y-60995684D01*
X145830024Y-60824567D01*
X145886347Y-60638894D01*
X145900600Y-60494180D01*
X145900600Y-60494179D01*
X145905365Y-60445800D01*
X145900600Y-60397420D01*
X145900600Y-55492698D01*
X154335000Y-55492698D01*
X154335000Y-55962502D01*
X154426654Y-56423279D01*
X154606440Y-56857321D01*
X154867450Y-57247949D01*
X155199651Y-57580150D01*
X155590279Y-57841160D01*
X156024321Y-58020946D01*
X156485098Y-58112600D01*
X156954902Y-58112600D01*
X157415679Y-58020946D01*
X157849721Y-57841160D01*
X158240349Y-57580150D01*
X158572550Y-57247949D01*
X158833560Y-56857321D01*
X159013346Y-56423279D01*
X159105000Y-55962502D01*
X159105000Y-55492698D01*
X159013346Y-55031921D01*
X158833560Y-54597879D01*
X158572550Y-54207251D01*
X158240349Y-53875050D01*
X157849721Y-53614040D01*
X157415679Y-53434254D01*
X156954902Y-53342600D01*
X156485098Y-53342600D01*
X156024321Y-53434254D01*
X155590279Y-53614040D01*
X155199651Y-53875050D01*
X154867450Y-54207251D01*
X154606440Y-54597879D01*
X154426654Y-55031921D01*
X154335000Y-55492698D01*
X145900600Y-55492698D01*
X145900600Y-54933400D01*
X149739900Y-51094100D01*
X170839835Y-51094100D01*
X170844600Y-51142480D01*
X170844601Y-60656610D01*
X170839835Y-60705000D01*
X170858853Y-60898093D01*
X170915176Y-61083766D01*
X170915177Y-61083767D01*
X171006641Y-61254884D01*
X171129731Y-61404870D01*
X171167311Y-61435711D01*
X173161928Y-63430329D01*
X173161928Y-64275400D01*
X173178992Y-64448654D01*
X173229528Y-64615250D01*
X173311595Y-64768786D01*
X173422038Y-64903362D01*
X173556614Y-65013805D01*
X173710150Y-65095872D01*
X173876746Y-65146408D01*
X174050000Y-65163472D01*
X175250000Y-65163472D01*
X175423254Y-65146408D01*
X175589850Y-65095872D01*
X175743386Y-65013805D01*
X175877962Y-64903362D01*
X175988405Y-64768786D01*
X176042777Y-64667063D01*
X176094866Y-64730534D01*
X176320987Y-64916106D01*
X176578967Y-65053999D01*
X176858890Y-65138913D01*
X177150000Y-65167585D01*
X177441111Y-65138913D01*
X177721034Y-65053999D01*
X177979014Y-64916106D01*
X178205134Y-64730534D01*
X178390706Y-64504414D01*
X178528599Y-64246433D01*
X178613513Y-63966510D01*
X178635000Y-63748349D01*
X178635000Y-63302450D01*
X178613513Y-63084289D01*
X178528599Y-62804366D01*
X178390706Y-62546386D01*
X178205134Y-62320266D01*
X177979013Y-62134694D01*
X177910000Y-62097806D01*
X177910000Y-59534922D01*
X177913676Y-59497599D01*
X177910000Y-59460276D01*
X177910000Y-59460267D01*
X177899003Y-59348614D01*
X177855546Y-59205353D01*
X177810397Y-59120886D01*
X177784974Y-59073323D01*
X177713799Y-58986597D01*
X177690001Y-58957599D01*
X177661003Y-58933801D01*
X174939424Y-56212223D01*
X174992030Y-56038804D01*
X175022681Y-55727600D01*
X174992030Y-55416396D01*
X174901255Y-55117151D01*
X174753845Y-54841365D01*
X174555463Y-54599637D01*
X174376101Y-54452437D01*
X174561315Y-54297037D01*
X174755969Y-54054523D01*
X174899571Y-53778694D01*
X174970563Y-53560580D01*
X174850594Y-53314600D01*
X173507000Y-53314600D01*
X173507000Y-53334600D01*
X173253000Y-53334600D01*
X173253000Y-53314600D01*
X173233000Y-53314600D01*
X173233000Y-53060600D01*
X173253000Y-53060600D01*
X173253000Y-51762030D01*
X173507000Y-51762030D01*
X173507000Y-53060600D01*
X174850594Y-53060600D01*
X174970563Y-52814620D01*
X174899571Y-52596506D01*
X174755969Y-52320677D01*
X174561315Y-52078163D01*
X174323089Y-51878284D01*
X174050446Y-51728721D01*
X173753863Y-51635222D01*
X173507000Y-51762030D01*
X173253000Y-51762030D01*
X173006137Y-51635222D01*
X172814600Y-51695605D01*
X172814600Y-51502100D01*
X173682700Y-50634000D01*
X175551928Y-50634000D01*
X175564188Y-50758482D01*
X175600498Y-50878180D01*
X175659463Y-50988494D01*
X175738815Y-51085185D01*
X175835506Y-51164537D01*
X175945820Y-51223502D01*
X176065518Y-51259812D01*
X176190000Y-51272072D01*
X176904250Y-51269000D01*
X177063000Y-51110250D01*
X177063000Y-49911000D01*
X177317000Y-49911000D01*
X177317000Y-51110250D01*
X177475750Y-51269000D01*
X178190000Y-51272072D01*
X178314482Y-51259812D01*
X178434180Y-51223502D01*
X178544494Y-51164537D01*
X178641185Y-51085185D01*
X178720537Y-50988494D01*
X178779502Y-50878180D01*
X178815812Y-50758482D01*
X178828072Y-50634000D01*
X178825000Y-50069750D01*
X178666250Y-49911000D01*
X177317000Y-49911000D01*
X177063000Y-49911000D01*
X175713750Y-49911000D01*
X175555000Y-50069750D01*
X175551928Y-50634000D01*
X173682700Y-50634000D01*
X175589010Y-48727690D01*
X175564188Y-48809518D01*
X175551928Y-48934000D01*
X175555000Y-49498250D01*
X175713750Y-49657000D01*
X177063000Y-49657000D01*
X177063000Y-49637000D01*
X177317000Y-49637000D01*
X177317000Y-49657000D01*
X178666250Y-49657000D01*
X178825000Y-49498250D01*
X178828072Y-48934000D01*
X178815812Y-48809518D01*
X178779502Y-48689820D01*
X178720537Y-48579506D01*
X178641185Y-48482815D01*
X178544494Y-48403463D01*
X178434180Y-48344498D01*
X178399392Y-48333945D01*
X178580706Y-48113014D01*
X178718599Y-47855034D01*
X178803513Y-47575111D01*
X178832185Y-47284000D01*
X178803513Y-46992889D01*
X178718599Y-46712966D01*
X178580706Y-46454986D01*
X178395134Y-46228866D01*
X178169014Y-46043294D01*
X177911034Y-45905401D01*
X177631111Y-45820487D01*
X177412950Y-45799000D01*
X176967050Y-45799000D01*
X176748889Y-45820487D01*
X176468966Y-45905401D01*
X176210986Y-46043294D01*
X175984866Y-46228866D01*
X175927308Y-46299000D01*
X175688079Y-46299000D01*
X175639699Y-46294235D01*
X175446606Y-46313253D01*
X175260933Y-46369576D01*
X175089816Y-46461040D01*
X174939830Y-46584130D01*
X174908984Y-46621716D01*
X171167316Y-50363384D01*
X171129730Y-50394230D01*
X171006640Y-50544216D01*
X170919266Y-50707682D01*
X170915176Y-50715334D01*
X170858853Y-50901007D01*
X170839835Y-51094100D01*
X149739900Y-51094100D01*
X152613928Y-48220072D01*
X152613928Y-48729000D01*
X152626188Y-48853482D01*
X152662498Y-48973180D01*
X152721463Y-49083494D01*
X152800815Y-49180185D01*
X152897506Y-49259537D01*
X153007820Y-49318502D01*
X153127518Y-49354812D01*
X153252000Y-49367072D01*
X154952000Y-49367072D01*
X155076482Y-49354812D01*
X155196180Y-49318502D01*
X155306494Y-49259537D01*
X155403185Y-49180185D01*
X155482537Y-49083494D01*
X155541502Y-48973180D01*
X155577812Y-48853482D01*
X155590072Y-48729000D01*
X155590072Y-47029000D01*
X155577812Y-46904518D01*
X155541502Y-46784820D01*
X155482537Y-46674506D01*
X155403185Y-46577815D01*
X155306494Y-46498463D01*
X155196180Y-46439498D01*
X155123620Y-46417487D01*
X155255475Y-46285632D01*
X155417990Y-46042411D01*
X155529932Y-45772158D01*
X155587000Y-45485260D01*
X155587000Y-45192740D01*
X155529932Y-44905842D01*
X155417990Y-44635589D01*
X155255475Y-44392368D01*
X155048632Y-44185525D01*
X154805411Y-44023010D01*
X154535158Y-43911068D01*
X154248260Y-43854000D01*
X153955740Y-43854000D01*
X153668842Y-43911068D01*
X153398589Y-44023010D01*
X153155368Y-44185525D01*
X152948525Y-44392368D01*
X152786010Y-44635589D01*
X152674068Y-44905842D01*
X152617000Y-45192740D01*
X152617000Y-45431000D01*
X144253311Y-53794689D01*
X144215731Y-53825530D01*
X144092641Y-53975516D01*
X144050411Y-54054523D01*
X144001176Y-54146634D01*
X143944853Y-54332307D01*
X143925835Y-54525400D01*
X143930601Y-54573790D01*
X143930601Y-56843146D01*
X143926535Y-56839080D01*
X143697727Y-56686195D01*
X143443490Y-56580886D01*
X143173592Y-56527200D01*
X142898408Y-56527200D01*
X142628510Y-56580886D01*
X142374273Y-56686195D01*
X142145465Y-56839080D01*
X142045345Y-56939200D01*
X131139000Y-56939200D01*
X125457165Y-51257365D01*
X125639023Y-51191836D01*
X125754980Y-51129856D01*
X125821960Y-50889765D01*
X142250040Y-50889765D01*
X142317020Y-51129856D01*
X142566048Y-51246956D01*
X142833135Y-51313223D01*
X143108017Y-51326110D01*
X143380133Y-51285122D01*
X143639023Y-51191836D01*
X143754980Y-51129856D01*
X143821960Y-50889765D01*
X143036000Y-50103805D01*
X142250040Y-50889765D01*
X125821960Y-50889765D01*
X125036000Y-50103805D01*
X125021858Y-50117948D01*
X124842253Y-49938343D01*
X124856395Y-49924200D01*
X125215605Y-49924200D01*
X126001565Y-50710160D01*
X126241656Y-50643180D01*
X126358756Y-50394152D01*
X126425023Y-50127065D01*
X126431157Y-49996217D01*
X141634090Y-49996217D01*
X141675078Y-50268333D01*
X141768364Y-50527223D01*
X141830344Y-50643180D01*
X142070435Y-50710160D01*
X142856395Y-49924200D01*
X143215605Y-49924200D01*
X144001565Y-50710160D01*
X144241656Y-50643180D01*
X144358756Y-50394152D01*
X144425023Y-50127065D01*
X144437910Y-49852183D01*
X144396922Y-49580067D01*
X144303636Y-49321177D01*
X144241656Y-49205220D01*
X144001565Y-49138240D01*
X143215605Y-49924200D01*
X142856395Y-49924200D01*
X142070435Y-49138240D01*
X141830344Y-49205220D01*
X141713244Y-49454248D01*
X141646977Y-49721335D01*
X141634090Y-49996217D01*
X126431157Y-49996217D01*
X126437910Y-49852183D01*
X126396922Y-49580067D01*
X126303636Y-49321177D01*
X126241656Y-49205220D01*
X126001565Y-49138240D01*
X125215605Y-49924200D01*
X124856395Y-49924200D01*
X124070435Y-49138240D01*
X123830344Y-49205220D01*
X123713244Y-49454248D01*
X123701477Y-49501677D01*
X122549565Y-48349765D01*
X124250040Y-48349765D01*
X124317020Y-48589856D01*
X124447644Y-48651279D01*
X124432977Y-48656564D01*
X124317020Y-48718544D01*
X124250040Y-48958635D01*
X125036000Y-49744595D01*
X125821960Y-48958635D01*
X125754980Y-48718544D01*
X125624356Y-48657121D01*
X125639023Y-48651836D01*
X125754980Y-48589856D01*
X125821960Y-48349765D01*
X142250040Y-48349765D01*
X142317020Y-48589856D01*
X142447644Y-48651279D01*
X142432977Y-48656564D01*
X142317020Y-48718544D01*
X142250040Y-48958635D01*
X143036000Y-49744595D01*
X143821960Y-48958635D01*
X143754980Y-48718544D01*
X143624356Y-48657121D01*
X143639023Y-48651836D01*
X143754980Y-48589856D01*
X143821960Y-48349765D01*
X143036000Y-47563805D01*
X142250040Y-48349765D01*
X125821960Y-48349765D01*
X125036000Y-47563805D01*
X124250040Y-48349765D01*
X122549565Y-48349765D01*
X121659843Y-47460043D01*
X121660219Y-47456217D01*
X123634090Y-47456217D01*
X123675078Y-47728333D01*
X123768364Y-47987223D01*
X123830344Y-48103180D01*
X124070435Y-48170160D01*
X124856395Y-47384200D01*
X125215605Y-47384200D01*
X126001565Y-48170160D01*
X126241656Y-48103180D01*
X126358756Y-47854152D01*
X126425023Y-47587065D01*
X126431157Y-47456217D01*
X141634090Y-47456217D01*
X141675078Y-47728333D01*
X141768364Y-47987223D01*
X141830344Y-48103180D01*
X142070435Y-48170160D01*
X142856395Y-47384200D01*
X143215605Y-47384200D01*
X144001565Y-48170160D01*
X144241656Y-48103180D01*
X144358756Y-47854152D01*
X144425023Y-47587065D01*
X144437910Y-47312183D01*
X144396922Y-47040067D01*
X144303636Y-46781177D01*
X144241656Y-46665220D01*
X144001565Y-46598240D01*
X143215605Y-47384200D01*
X142856395Y-47384200D01*
X142070435Y-46598240D01*
X141830344Y-46665220D01*
X141713244Y-46914248D01*
X141646977Y-47181335D01*
X141634090Y-47456217D01*
X126431157Y-47456217D01*
X126437910Y-47312183D01*
X126396922Y-47040067D01*
X126303636Y-46781177D01*
X126241656Y-46665220D01*
X126001565Y-46598240D01*
X125215605Y-47384200D01*
X124856395Y-47384200D01*
X124070435Y-46598240D01*
X123830344Y-46665220D01*
X123713244Y-46914248D01*
X123646977Y-47181335D01*
X123634090Y-47456217D01*
X121660219Y-47456217D01*
X121682185Y-47233200D01*
X121653513Y-46942089D01*
X121568599Y-46662166D01*
X121438430Y-46418635D01*
X124250040Y-46418635D01*
X125036000Y-47204595D01*
X125821960Y-46418635D01*
X142250040Y-46418635D01*
X143036000Y-47204595D01*
X143821960Y-46418635D01*
X143754980Y-46178544D01*
X143505952Y-46061444D01*
X143238865Y-45995177D01*
X142963983Y-45982290D01*
X142691867Y-46023278D01*
X142432977Y-46116564D01*
X142317020Y-46178544D01*
X142250040Y-46418635D01*
X125821960Y-46418635D01*
X125754980Y-46178544D01*
X125505952Y-46061444D01*
X125238865Y-45995177D01*
X124963983Y-45982290D01*
X124691867Y-46023278D01*
X124432977Y-46116564D01*
X124317020Y-46178544D01*
X124250040Y-46418635D01*
X121438430Y-46418635D01*
X121430706Y-46404186D01*
X121245134Y-46178066D01*
X121019014Y-45992494D01*
X120761034Y-45854601D01*
X120481111Y-45769687D01*
X120262950Y-45748200D01*
X119817050Y-45748200D01*
X119598889Y-45769687D01*
X119318966Y-45854601D01*
X119060986Y-45992494D01*
X118834866Y-46178066D01*
X118649294Y-46404186D01*
X118511401Y-46662166D01*
X118426487Y-46942089D01*
X118397815Y-47233200D01*
X118426487Y-47524311D01*
X118511401Y-47804234D01*
X118649294Y-48062214D01*
X118830608Y-48283145D01*
X118795820Y-48293698D01*
X118685506Y-48352663D01*
X118588815Y-48432015D01*
X118509463Y-48528706D01*
X118450498Y-48639020D01*
X118414188Y-48758718D01*
X118401928Y-48883200D01*
X118405000Y-49447450D01*
X118563750Y-49606200D01*
X119913000Y-49606200D01*
X119913000Y-49586200D01*
X120167000Y-49586200D01*
X120167000Y-49606200D01*
X120187000Y-49606200D01*
X120187000Y-49860200D01*
X120167000Y-49860200D01*
X120167000Y-51059450D01*
X120325750Y-51218200D01*
X121040000Y-51221272D01*
X121164482Y-51209012D01*
X121284180Y-51172702D01*
X121394494Y-51113737D01*
X121491185Y-51034385D01*
X121570537Y-50937694D01*
X121629502Y-50827380D01*
X121665812Y-50707682D01*
X121678072Y-50583200D01*
X121676326Y-50262526D01*
X130000284Y-58586484D01*
X130031130Y-58624070D01*
X130181116Y-58747160D01*
X130352233Y-58838624D01*
X130494691Y-58881838D01*
X130537905Y-58894947D01*
X130730999Y-58913965D01*
X130779379Y-58909200D01*
X142045345Y-58909200D01*
X142145465Y-59009320D01*
X142374273Y-59162205D01*
X142451515Y-59194200D01*
X142374273Y-59226195D01*
X142145465Y-59379080D01*
X141950880Y-59573665D01*
X141797995Y-59802473D01*
X141725204Y-59978204D01*
X141548916Y-59801916D01*
X141518070Y-59764330D01*
X141368084Y-59641240D01*
X141196967Y-59549776D01*
X141011294Y-59493453D01*
X140866580Y-59479200D01*
X140818200Y-59474435D01*
X140769820Y-59479200D01*
X126026655Y-59479200D01*
X125926535Y-59379080D01*
X125697727Y-59226195D01*
X125620485Y-59194200D01*
X125697727Y-59162205D01*
X125926535Y-59009320D01*
X126121120Y-58814735D01*
X126274005Y-58585927D01*
X126379314Y-58331690D01*
X126433000Y-58061792D01*
X126433000Y-57786608D01*
X126379314Y-57516710D01*
X126274005Y-57262473D01*
X126121120Y-57033665D01*
X125926535Y-56839080D01*
X125697727Y-56686195D01*
X125443490Y-56580886D01*
X125173592Y-56527200D01*
X124898408Y-56527200D01*
X124628510Y-56580886D01*
X124374273Y-56686195D01*
X124145465Y-56839080D01*
X123950880Y-57033665D01*
X123797995Y-57262473D01*
X123692686Y-57516710D01*
X123639000Y-57786608D01*
X123639000Y-58061792D01*
X123692686Y-58331690D01*
X123797995Y-58585927D01*
X123950880Y-58814735D01*
X124145465Y-59009320D01*
X124374273Y-59162205D01*
X124451515Y-59194200D01*
X124374273Y-59226195D01*
X124145465Y-59379080D01*
X123950880Y-59573665D01*
X123797995Y-59802473D01*
X123692686Y-60056710D01*
X123639000Y-60326608D01*
X123639000Y-60601792D01*
X123692686Y-60871690D01*
X123797995Y-61125927D01*
X123950880Y-61354735D01*
X124145465Y-61549320D01*
X124374273Y-61702205D01*
X124628510Y-61807514D01*
X124898408Y-61861200D01*
X125173592Y-61861200D01*
X125443490Y-61807514D01*
X125697727Y-61702205D01*
X125926535Y-61549320D01*
X126026655Y-61449200D01*
X136784200Y-61449200D01*
X128938711Y-69294689D01*
X128901131Y-69325530D01*
X128778040Y-69475516D01*
X128686576Y-69646633D01*
X128630253Y-69832306D01*
X128623446Y-69901415D01*
X128615915Y-69977884D01*
X125504399Y-73089400D01*
X125407692Y-72855927D01*
X125215081Y-72567665D01*
X124969935Y-72322519D01*
X124681673Y-72129908D01*
X124361373Y-71997236D01*
X124021345Y-71929600D01*
X123674655Y-71929600D01*
X123334627Y-71997236D01*
X123014327Y-72129908D01*
X122726065Y-72322519D01*
X122480919Y-72567665D01*
X122288308Y-72855927D01*
X122257792Y-72929600D01*
X118938208Y-72929600D01*
X118907692Y-72855927D01*
X118715081Y-72567665D01*
X118469935Y-72322519D01*
X118181673Y-72129908D01*
X117861373Y-71997236D01*
X117521345Y-71929600D01*
X117174655Y-71929600D01*
X116834627Y-71997236D01*
X116514327Y-72129908D01*
X116226065Y-72322519D01*
X115980919Y-72567665D01*
X115788308Y-72855927D01*
X115655636Y-73176227D01*
X115588000Y-73516255D01*
X115588000Y-73862945D01*
X115655636Y-74202973D01*
X115788308Y-74523273D01*
X115980919Y-74811535D01*
X116226065Y-75056681D01*
X116514327Y-75249292D01*
X116834627Y-75381964D01*
X117174655Y-75449600D01*
X117521345Y-75449600D01*
X117861373Y-75381964D01*
X118181673Y-75249292D01*
X118469935Y-75056681D01*
X118715081Y-74811535D01*
X118907692Y-74523273D01*
X118938208Y-74449600D01*
X122257792Y-74449600D01*
X122288308Y-74523273D01*
X122480919Y-74811535D01*
X122726065Y-75056681D01*
X123014327Y-75249292D01*
X123334627Y-75381964D01*
X123674655Y-75449600D01*
X123953001Y-75449600D01*
X123953000Y-109031928D01*
X123188000Y-109031928D01*
X123063518Y-109044188D01*
X122943820Y-109080498D01*
X122833506Y-109139463D01*
X122736815Y-109218815D01*
X122657463Y-109315506D01*
X122598498Y-109425820D01*
X122562188Y-109545518D01*
X122549928Y-109670000D01*
X122549928Y-113170000D01*
X122562188Y-113294482D01*
X122598498Y-113414180D01*
X122609627Y-113435000D01*
X122346001Y-113435000D01*
X121076072Y-112165072D01*
X121076072Y-110420000D01*
X121049401Y-110149201D01*
X120970411Y-109888808D01*
X120842140Y-109648829D01*
X120669515Y-109438485D01*
X120459171Y-109265860D01*
X120219192Y-109137589D01*
X119958799Y-109058599D01*
X119688000Y-109031928D01*
X118188000Y-109031928D01*
X117917201Y-109058599D01*
X117656808Y-109137589D01*
X117416829Y-109265860D01*
X117206485Y-109438485D01*
X117033860Y-109648829D01*
X116905589Y-109888808D01*
X116826599Y-110149201D01*
X116799928Y-110420000D01*
X116799928Y-112420000D01*
X116826599Y-112690799D01*
X116905589Y-112951192D01*
X117033860Y-113191171D01*
X117206485Y-113401515D01*
X117416829Y-113574140D01*
X117656808Y-113702411D01*
X117917201Y-113781401D01*
X118188000Y-113808072D01*
X119688000Y-113808072D01*
X119911098Y-113786099D01*
X120161715Y-114036715D01*
X119993097Y-114175097D01*
X119804927Y-114404382D01*
X119665104Y-114665972D01*
X119579001Y-114949814D01*
X119549928Y-115245000D01*
X119549928Y-115392091D01*
X115391417Y-115372474D01*
X115111739Y-70414131D01*
X116303074Y-70414131D01*
X116413921Y-70691314D01*
X116724840Y-70844689D01*
X117059705Y-70934460D01*
X117405650Y-70957176D01*
X117749380Y-70911966D01*
X118077685Y-70800566D01*
X118282079Y-70691314D01*
X118392926Y-70414131D01*
X122803074Y-70414131D01*
X122913921Y-70691314D01*
X123224840Y-70844689D01*
X123559705Y-70934460D01*
X123905650Y-70957176D01*
X124249380Y-70911966D01*
X124577685Y-70800566D01*
X124782079Y-70691314D01*
X124892926Y-70414131D01*
X123848000Y-69369205D01*
X122803074Y-70414131D01*
X118392926Y-70414131D01*
X117348000Y-69369205D01*
X116303074Y-70414131D01*
X115111739Y-70414131D01*
X115104480Y-69247250D01*
X115580424Y-69247250D01*
X115625634Y-69590980D01*
X115737034Y-69919285D01*
X115846286Y-70123679D01*
X116123469Y-70234526D01*
X117168395Y-69189600D01*
X117527605Y-69189600D01*
X118572531Y-70234526D01*
X118849714Y-70123679D01*
X119003089Y-69812760D01*
X119092860Y-69477895D01*
X119108004Y-69247250D01*
X122080424Y-69247250D01*
X122125634Y-69590980D01*
X122237034Y-69919285D01*
X122346286Y-70123679D01*
X122623469Y-70234526D01*
X123668395Y-69189600D01*
X124027605Y-69189600D01*
X125072531Y-70234526D01*
X125349714Y-70123679D01*
X125503089Y-69812760D01*
X125592860Y-69477895D01*
X125615576Y-69131950D01*
X125570366Y-68788220D01*
X125458966Y-68459915D01*
X125349714Y-68255521D01*
X125072531Y-68144674D01*
X124027605Y-69189600D01*
X123668395Y-69189600D01*
X122623469Y-68144674D01*
X122346286Y-68255521D01*
X122192911Y-68566440D01*
X122103140Y-68901305D01*
X122080424Y-69247250D01*
X119108004Y-69247250D01*
X119115576Y-69131950D01*
X119070366Y-68788220D01*
X118958966Y-68459915D01*
X118849714Y-68255521D01*
X118572531Y-68144674D01*
X117527605Y-69189600D01*
X117168395Y-69189600D01*
X116123469Y-68144674D01*
X115846286Y-68255521D01*
X115692911Y-68566440D01*
X115603140Y-68901305D01*
X115580424Y-69247250D01*
X115104480Y-69247250D01*
X115096504Y-67965069D01*
X116303074Y-67965069D01*
X117348000Y-69009995D01*
X118392926Y-67965069D01*
X122803074Y-67965069D01*
X123848000Y-69009995D01*
X124892926Y-67965069D01*
X124782079Y-67687886D01*
X124471160Y-67534511D01*
X124136295Y-67444740D01*
X123790350Y-67422024D01*
X123446620Y-67467234D01*
X123118315Y-67578634D01*
X122913921Y-67687886D01*
X122803074Y-67965069D01*
X118392926Y-67965069D01*
X118282079Y-67687886D01*
X117971160Y-67534511D01*
X117636295Y-67444740D01*
X117290350Y-67422024D01*
X116946620Y-67467234D01*
X116618315Y-67578634D01*
X116413921Y-67687886D01*
X116303074Y-67965069D01*
X115096504Y-67965069D01*
X114988374Y-50583200D01*
X118401928Y-50583200D01*
X118414188Y-50707682D01*
X118450498Y-50827380D01*
X118509463Y-50937694D01*
X118588815Y-51034385D01*
X118685506Y-51113737D01*
X118795820Y-51172702D01*
X118915518Y-51209012D01*
X119040000Y-51221272D01*
X119754250Y-51218200D01*
X119913000Y-51059450D01*
X119913000Y-49860200D01*
X118563750Y-49860200D01*
X118405000Y-50018950D01*
X118401928Y-50583200D01*
X114988374Y-50583200D01*
X114985000Y-50040972D01*
X114985000Y-43763951D01*
X128617590Y-43743581D01*
X179206364Y-43763305D01*
G36*
X141350845Y-112127782D02*
G01*
X141338146Y-112401294D01*
X141379052Y-112672027D01*
X141471989Y-112929579D01*
X141533057Y-113043829D01*
X141772434Y-113109961D01*
X142553395Y-112329000D01*
X142539253Y-112314858D01*
X142718858Y-112135253D01*
X142733000Y-112149395D01*
X142747143Y-112135253D01*
X142926748Y-112314858D01*
X142912605Y-112329000D01*
X143693566Y-113109961D01*
X143932943Y-113043829D01*
X144049342Y-112795997D01*
X144071785Y-112705363D01*
X145700570Y-114334149D01*
X145728283Y-114367917D01*
X145762051Y-114395630D01*
X145762053Y-114395632D01*
X145833552Y-114454310D01*
X145863041Y-114478511D01*
X146016787Y-114560689D01*
X146183610Y-114611295D01*
X146313623Y-114624100D01*
X146313633Y-114624100D01*
X146357099Y-114628381D01*
X146400565Y-114624100D01*
X166125431Y-114624100D01*
X166137873Y-114625325D01*
X165155969Y-115607230D01*
X124326072Y-115414622D01*
X124326072Y-115405000D01*
X129740620Y-115405000D01*
X129789000Y-115409765D01*
X129837380Y-115405000D01*
X129982094Y-115390747D01*
X130167767Y-115334424D01*
X130338884Y-115242960D01*
X130488870Y-115119870D01*
X130519716Y-115082284D01*
X132312434Y-113289566D01*
X141952039Y-113289566D01*
X142018171Y-113528943D01*
X142266003Y-113645342D01*
X142531782Y-113711155D01*
X142805294Y-113723854D01*
X143076027Y-113682948D01*
X143333579Y-113590011D01*
X143447829Y-113528943D01*
X143513961Y-113289566D01*
X142733000Y-112508605D01*
X141952039Y-113289566D01*
X132312434Y-113289566D01*
X132591248Y-113010753D01*
X132638506Y-113049537D01*
X132748820Y-113108502D01*
X132868518Y-113144812D01*
X132993000Y-113157072D01*
X134693000Y-113157072D01*
X134817482Y-113144812D01*
X134937180Y-113108502D01*
X135047494Y-113049537D01*
X135144185Y-112970185D01*
X135223537Y-112873494D01*
X135282502Y-112763180D01*
X135304513Y-112690620D01*
X135436368Y-112822475D01*
X135679589Y-112984990D01*
X135949842Y-113096932D01*
X136236740Y-113154000D01*
X136529260Y-113154000D01*
X136816158Y-113096932D01*
X137086411Y-112984990D01*
X137329632Y-112822475D01*
X137498107Y-112654000D01*
X137807893Y-112654000D01*
X137976368Y-112822475D01*
X138219589Y-112984990D01*
X138489842Y-113096932D01*
X138776740Y-113154000D01*
X139069260Y-113154000D01*
X139356158Y-113096932D01*
X139626411Y-112984990D01*
X139869632Y-112822475D01*
X140038107Y-112654000D01*
X140274920Y-112654000D01*
X140323300Y-112658765D01*
X140371680Y-112654000D01*
X140516394Y-112639747D01*
X140702067Y-112583424D01*
X140873184Y-112491960D01*
X141023170Y-112368870D01*
X141054016Y-112331284D01*
X141381561Y-112003739D01*
X141350845Y-112127782D01*
G37*
X141350845Y-112127782D02*
X141338146Y-112401294D01*
X141379052Y-112672027D01*
X141471989Y-112929579D01*
X141533057Y-113043829D01*
X141772434Y-113109961D01*
X142553395Y-112329000D01*
X142539253Y-112314858D01*
X142718858Y-112135253D01*
X142733000Y-112149395D01*
X142747143Y-112135253D01*
X142926748Y-112314858D01*
X142912605Y-112329000D01*
X143693566Y-113109961D01*
X143932943Y-113043829D01*
X144049342Y-112795997D01*
X144071785Y-112705363D01*
X145700570Y-114334149D01*
X145728283Y-114367917D01*
X145762051Y-114395630D01*
X145762053Y-114395632D01*
X145833552Y-114454310D01*
X145863041Y-114478511D01*
X146016787Y-114560689D01*
X146183610Y-114611295D01*
X146313623Y-114624100D01*
X146313633Y-114624100D01*
X146357099Y-114628381D01*
X146400565Y-114624100D01*
X166125431Y-114624100D01*
X166137873Y-114625325D01*
X165155969Y-115607230D01*
X124326072Y-115414622D01*
X124326072Y-115405000D01*
X129740620Y-115405000D01*
X129789000Y-115409765D01*
X129837380Y-115405000D01*
X129982094Y-115390747D01*
X130167767Y-115334424D01*
X130338884Y-115242960D01*
X130488870Y-115119870D01*
X130519716Y-115082284D01*
X132312434Y-113289566D01*
X141952039Y-113289566D01*
X142018171Y-113528943D01*
X142266003Y-113645342D01*
X142531782Y-113711155D01*
X142805294Y-113723854D01*
X143076027Y-113682948D01*
X143333579Y-113590011D01*
X143447829Y-113528943D01*
X143513961Y-113289566D01*
X142733000Y-112508605D01*
X141952039Y-113289566D01*
X132312434Y-113289566D01*
X132591248Y-113010753D01*
X132638506Y-113049537D01*
X132748820Y-113108502D01*
X132868518Y-113144812D01*
X132993000Y-113157072D01*
X134693000Y-113157072D01*
X134817482Y-113144812D01*
X134937180Y-113108502D01*
X135047494Y-113049537D01*
X135144185Y-112970185D01*
X135223537Y-112873494D01*
X135282502Y-112763180D01*
X135304513Y-112690620D01*
X135436368Y-112822475D01*
X135679589Y-112984990D01*
X135949842Y-113096932D01*
X136236740Y-113154000D01*
X136529260Y-113154000D01*
X136816158Y-113096932D01*
X137086411Y-112984990D01*
X137329632Y-112822475D01*
X137498107Y-112654000D01*
X137807893Y-112654000D01*
X137976368Y-112822475D01*
X138219589Y-112984990D01*
X138489842Y-113096932D01*
X138776740Y-113154000D01*
X139069260Y-113154000D01*
X139356158Y-113096932D01*
X139626411Y-112984990D01*
X139869632Y-112822475D01*
X140038107Y-112654000D01*
X140274920Y-112654000D01*
X140323300Y-112658765D01*
X140371680Y-112654000D01*
X140516394Y-112639747D01*
X140702067Y-112583424D01*
X140873184Y-112491960D01*
X141023170Y-112368870D01*
X141054016Y-112331284D01*
X141381561Y-112003739D01*
X141350845Y-112127782D01*
G36*
X159639748Y-112391058D02*
G01*
X159625605Y-112405200D01*
X159639748Y-112419343D01*
X159460143Y-112598948D01*
X159446000Y-112584805D01*
X159431858Y-112598948D01*
X159252253Y-112419343D01*
X159266395Y-112405200D01*
X159252253Y-112391058D01*
X159431858Y-112211453D01*
X159446000Y-112225595D01*
X159460143Y-112211453D01*
X159639748Y-112391058D01*
G37*
X159639748Y-112391058D02*
X159625605Y-112405200D01*
X159639748Y-112419343D01*
X159460143Y-112598948D01*
X159446000Y-112584805D01*
X159431858Y-112598948D01*
X159252253Y-112419343D01*
X159266395Y-112405200D01*
X159252253Y-112391058D01*
X159431858Y-112211453D01*
X159446000Y-112225595D01*
X159460143Y-112211453D01*
X159639748Y-112391058D01*
G36*
X142926748Y-91994858D02*
G01*
X142912605Y-92009000D01*
X143693566Y-92789961D01*
X143709937Y-92785438D01*
X145365423Y-94440925D01*
X145356000Y-94488297D01*
X145356000Y-94762103D01*
X145409417Y-95030648D01*
X145514198Y-95283612D01*
X145666316Y-95511274D01*
X145859926Y-95704884D01*
X146087588Y-95857002D01*
X146179806Y-95895200D01*
X146087588Y-95933398D01*
X145859926Y-96085516D01*
X145666316Y-96279126D01*
X145514198Y-96506788D01*
X145409417Y-96759752D01*
X145356000Y-97028297D01*
X145356000Y-97302103D01*
X145409417Y-97570648D01*
X145514198Y-97823612D01*
X145666316Y-98051274D01*
X145859926Y-98244884D01*
X146087588Y-98397002D01*
X146179806Y-98435200D01*
X146087588Y-98473398D01*
X145859926Y-98625516D01*
X145666316Y-98819126D01*
X145514198Y-99046788D01*
X145409417Y-99299752D01*
X145356000Y-99568297D01*
X145356000Y-99842103D01*
X145402326Y-100075000D01*
X144430579Y-100075000D01*
X144122748Y-99767170D01*
X144123000Y-99765903D01*
X144123000Y-99492097D01*
X144069583Y-99223552D01*
X143964802Y-98970588D01*
X143812684Y-98742926D01*
X143619074Y-98549316D01*
X143391412Y-98397198D01*
X143299194Y-98359000D01*
X143391412Y-98320802D01*
X143619074Y-98168684D01*
X143812684Y-97975074D01*
X143964802Y-97747412D01*
X144069583Y-97494448D01*
X144123000Y-97225903D01*
X144123000Y-96952097D01*
X144069583Y-96683552D01*
X143964802Y-96430588D01*
X143812684Y-96202926D01*
X143619074Y-96009316D01*
X143391412Y-95857198D01*
X143299194Y-95819000D01*
X143391412Y-95780802D01*
X143619074Y-95628684D01*
X143812684Y-95435074D01*
X143964802Y-95207412D01*
X144069583Y-94954448D01*
X144123000Y-94685903D01*
X144123000Y-94412097D01*
X144069583Y-94143552D01*
X143964802Y-93890588D01*
X143812684Y-93662926D01*
X143619074Y-93469316D01*
X143391412Y-93317198D01*
X143303605Y-93280827D01*
X143333579Y-93270011D01*
X143447829Y-93208943D01*
X143513961Y-92969566D01*
X142733000Y-92188605D01*
X141952039Y-92969566D01*
X142018171Y-93208943D01*
X142167086Y-93278884D01*
X142074588Y-93317198D01*
X141936148Y-93409700D01*
X137484079Y-93409700D01*
X137435699Y-93404935D01*
X137242605Y-93423953D01*
X137201610Y-93436389D01*
X137056933Y-93480276D01*
X136885816Y-93571740D01*
X136735830Y-93694830D01*
X136704984Y-93732416D01*
X136094000Y-94343400D01*
X135910665Y-94343400D01*
X135658500Y-94393559D01*
X135658500Y-92379145D01*
X135781589Y-92461390D01*
X136051842Y-92573332D01*
X136338740Y-92630400D01*
X136631260Y-92630400D01*
X136918158Y-92573332D01*
X137188411Y-92461390D01*
X137431632Y-92298875D01*
X137600107Y-92130400D01*
X137909893Y-92130400D01*
X138078368Y-92298875D01*
X138321589Y-92461390D01*
X138591842Y-92573332D01*
X138878740Y-92630400D01*
X139171260Y-92630400D01*
X139458158Y-92573332D01*
X139728411Y-92461390D01*
X139971632Y-92298875D01*
X140140107Y-92130400D01*
X141008220Y-92130400D01*
X141056600Y-92135165D01*
X141104980Y-92130400D01*
X141249694Y-92116147D01*
X141339305Y-92088964D01*
X141379052Y-92352027D01*
X141471989Y-92609579D01*
X141533057Y-92723829D01*
X141772434Y-92789961D01*
X142553395Y-92009000D01*
X142539253Y-91994858D01*
X142718858Y-91815253D01*
X142733000Y-91829395D01*
X142747143Y-91815253D01*
X142926748Y-91994858D01*
G37*
X142926748Y-91994858D02*
X142912605Y-92009000D01*
X143693566Y-92789961D01*
X143709937Y-92785438D01*
X145365423Y-94440925D01*
X145356000Y-94488297D01*
X145356000Y-94762103D01*
X145409417Y-95030648D01*
X145514198Y-95283612D01*
X145666316Y-95511274D01*
X145859926Y-95704884D01*
X146087588Y-95857002D01*
X146179806Y-95895200D01*
X146087588Y-95933398D01*
X145859926Y-96085516D01*
X145666316Y-96279126D01*
X145514198Y-96506788D01*
X145409417Y-96759752D01*
X145356000Y-97028297D01*
X145356000Y-97302103D01*
X145409417Y-97570648D01*
X145514198Y-97823612D01*
X145666316Y-98051274D01*
X145859926Y-98244884D01*
X146087588Y-98397002D01*
X146179806Y-98435200D01*
X146087588Y-98473398D01*
X145859926Y-98625516D01*
X145666316Y-98819126D01*
X145514198Y-99046788D01*
X145409417Y-99299752D01*
X145356000Y-99568297D01*
X145356000Y-99842103D01*
X145402326Y-100075000D01*
X144430579Y-100075000D01*
X144122748Y-99767170D01*
X144123000Y-99765903D01*
X144123000Y-99492097D01*
X144069583Y-99223552D01*
X143964802Y-98970588D01*
X143812684Y-98742926D01*
X143619074Y-98549316D01*
X143391412Y-98397198D01*
X143299194Y-98359000D01*
X143391412Y-98320802D01*
X143619074Y-98168684D01*
X143812684Y-97975074D01*
X143964802Y-97747412D01*
X144069583Y-97494448D01*
X144123000Y-97225903D01*
X144123000Y-96952097D01*
X144069583Y-96683552D01*
X143964802Y-96430588D01*
X143812684Y-96202926D01*
X143619074Y-96009316D01*
X143391412Y-95857198D01*
X143299194Y-95819000D01*
X143391412Y-95780802D01*
X143619074Y-95628684D01*
X143812684Y-95435074D01*
X143964802Y-95207412D01*
X144069583Y-94954448D01*
X144123000Y-94685903D01*
X144123000Y-94412097D01*
X144069583Y-94143552D01*
X143964802Y-93890588D01*
X143812684Y-93662926D01*
X143619074Y-93469316D01*
X143391412Y-93317198D01*
X143303605Y-93280827D01*
X143333579Y-93270011D01*
X143447829Y-93208943D01*
X143513961Y-92969566D01*
X142733000Y-92188605D01*
X141952039Y-92969566D01*
X142018171Y-93208943D01*
X142167086Y-93278884D01*
X142074588Y-93317198D01*
X141936148Y-93409700D01*
X137484079Y-93409700D01*
X137435699Y-93404935D01*
X137242605Y-93423953D01*
X137201610Y-93436389D01*
X137056933Y-93480276D01*
X136885816Y-93571740D01*
X136735830Y-93694830D01*
X136704984Y-93732416D01*
X136094000Y-94343400D01*
X135910665Y-94343400D01*
X135658500Y-94393559D01*
X135658500Y-92379145D01*
X135781589Y-92461390D01*
X136051842Y-92573332D01*
X136338740Y-92630400D01*
X136631260Y-92630400D01*
X136918158Y-92573332D01*
X137188411Y-92461390D01*
X137431632Y-92298875D01*
X137600107Y-92130400D01*
X137909893Y-92130400D01*
X138078368Y-92298875D01*
X138321589Y-92461390D01*
X138591842Y-92573332D01*
X138878740Y-92630400D01*
X139171260Y-92630400D01*
X139458158Y-92573332D01*
X139728411Y-92461390D01*
X139971632Y-92298875D01*
X140140107Y-92130400D01*
X141008220Y-92130400D01*
X141056600Y-92135165D01*
X141104980Y-92130400D01*
X141249694Y-92116147D01*
X141339305Y-92088964D01*
X141379052Y-92352027D01*
X141471989Y-92609579D01*
X141533057Y-92723829D01*
X141772434Y-92789961D01*
X142553395Y-92009000D01*
X142539253Y-91994858D01*
X142718858Y-91815253D01*
X142733000Y-91829395D01*
X142747143Y-91815253D01*
X142926748Y-91994858D01*
G36*
X157987845Y-91883982D02*
G01*
X157975146Y-92157494D01*
X158016052Y-92428227D01*
X158108989Y-92685779D01*
X158170057Y-92800029D01*
X158409434Y-92866161D01*
X159190395Y-92085200D01*
X159176253Y-92071058D01*
X159355858Y-91891453D01*
X159370000Y-91905595D01*
X159384143Y-91891453D01*
X159563748Y-92071058D01*
X159549605Y-92085200D01*
X159563748Y-92099343D01*
X159384143Y-92278948D01*
X159370000Y-92264805D01*
X158589039Y-93045766D01*
X158655171Y-93285143D01*
X158839702Y-93371812D01*
X158787588Y-93393398D01*
X158764687Y-93408700D01*
X154066080Y-93408700D01*
X154017700Y-93403935D01*
X153969320Y-93408700D01*
X153824606Y-93422953D01*
X153638933Y-93479276D01*
X153467816Y-93570740D01*
X153317830Y-93693830D01*
X153286989Y-93731410D01*
X152674999Y-94343400D01*
X152491665Y-94343400D01*
X152214426Y-94398547D01*
X151953273Y-94506720D01*
X151718241Y-94663763D01*
X151518363Y-94863641D01*
X151387377Y-95059676D01*
X150419400Y-94091700D01*
X150419400Y-92633472D01*
X151685000Y-92633472D01*
X151809482Y-92621212D01*
X151929180Y-92584902D01*
X152039494Y-92525937D01*
X152136185Y-92446585D01*
X152215537Y-92349894D01*
X152274502Y-92239580D01*
X152296513Y-92167020D01*
X152428368Y-92298875D01*
X152671589Y-92461390D01*
X152941842Y-92573332D01*
X153228740Y-92630400D01*
X153521260Y-92630400D01*
X153808158Y-92573332D01*
X154078411Y-92461390D01*
X154321632Y-92298875D01*
X154490107Y-92130400D01*
X154799893Y-92130400D01*
X154968368Y-92298875D01*
X155211589Y-92461390D01*
X155481842Y-92573332D01*
X155768740Y-92630400D01*
X156061260Y-92630400D01*
X156348158Y-92573332D01*
X156618411Y-92461390D01*
X156861632Y-92298875D01*
X157030107Y-92130400D01*
X157266920Y-92130400D01*
X157315300Y-92135165D01*
X157363680Y-92130400D01*
X157508394Y-92116147D01*
X157694067Y-92059824D01*
X157865184Y-91968360D01*
X157992907Y-91863541D01*
X157987845Y-91883982D01*
G37*
X157987845Y-91883982D02*
X157975146Y-92157494D01*
X158016052Y-92428227D01*
X158108989Y-92685779D01*
X158170057Y-92800029D01*
X158409434Y-92866161D01*
X159190395Y-92085200D01*
X159176253Y-92071058D01*
X159355858Y-91891453D01*
X159370000Y-91905595D01*
X159384143Y-91891453D01*
X159563748Y-92071058D01*
X159549605Y-92085200D01*
X159563748Y-92099343D01*
X159384143Y-92278948D01*
X159370000Y-92264805D01*
X158589039Y-93045766D01*
X158655171Y-93285143D01*
X158839702Y-93371812D01*
X158787588Y-93393398D01*
X158764687Y-93408700D01*
X154066080Y-93408700D01*
X154017700Y-93403935D01*
X153969320Y-93408700D01*
X153824606Y-93422953D01*
X153638933Y-93479276D01*
X153467816Y-93570740D01*
X153317830Y-93693830D01*
X153286989Y-93731410D01*
X152674999Y-94343400D01*
X152491665Y-94343400D01*
X152214426Y-94398547D01*
X151953273Y-94506720D01*
X151718241Y-94663763D01*
X151518363Y-94863641D01*
X151387377Y-95059676D01*
X150419400Y-94091700D01*
X150419400Y-92633472D01*
X151685000Y-92633472D01*
X151809482Y-92621212D01*
X151929180Y-92584902D01*
X152039494Y-92525937D01*
X152136185Y-92446585D01*
X152215537Y-92349894D01*
X152274502Y-92239580D01*
X152296513Y-92167020D01*
X152428368Y-92298875D01*
X152671589Y-92461390D01*
X152941842Y-92573332D01*
X153228740Y-92630400D01*
X153521260Y-92630400D01*
X153808158Y-92573332D01*
X154078411Y-92461390D01*
X154321632Y-92298875D01*
X154490107Y-92130400D01*
X154799893Y-92130400D01*
X154968368Y-92298875D01*
X155211589Y-92461390D01*
X155481842Y-92573332D01*
X155768740Y-92630400D01*
X156061260Y-92630400D01*
X156348158Y-92573332D01*
X156618411Y-92461390D01*
X156861632Y-92298875D01*
X157030107Y-92130400D01*
X157266920Y-92130400D01*
X157315300Y-92135165D01*
X157363680Y-92130400D01*
X157508394Y-92116147D01*
X157694067Y-92059824D01*
X157865184Y-91968360D01*
X157992907Y-91863541D01*
X157987845Y-91883982D01*
G36*
X168919601Y-85983787D02*
G01*
X168847472Y-85848843D01*
X168598397Y-85771208D01*
X167749605Y-86620000D01*
X167763748Y-86634143D01*
X167584143Y-86813748D01*
X167570000Y-86799605D01*
X166721208Y-87648397D01*
X166796729Y-87890689D01*
X166623368Y-88006525D01*
X166416525Y-88213368D01*
X166300000Y-88387760D01*
X166183475Y-88213368D01*
X165976632Y-88006525D01*
X165802240Y-87890000D01*
X165976632Y-87773475D01*
X166183475Y-87566632D01*
X166299311Y-87393271D01*
X166541603Y-87468792D01*
X167390395Y-86620000D01*
X166541603Y-85771208D01*
X166299311Y-85846729D01*
X166183475Y-85673368D01*
X165976632Y-85466525D01*
X165802240Y-85350000D01*
X165976632Y-85233475D01*
X166183475Y-85026632D01*
X166300000Y-84852240D01*
X166416525Y-85026632D01*
X166623368Y-85233475D01*
X166796729Y-85349311D01*
X166721208Y-85591603D01*
X167570000Y-86440395D01*
X168418792Y-85591603D01*
X168343271Y-85349311D01*
X168516632Y-85233475D01*
X168723475Y-85026632D01*
X168885990Y-84783411D01*
X168919601Y-84702267D01*
X168919601Y-85983787D01*
G37*
X168919601Y-85983787D02*
X168847472Y-85848843D01*
X168598397Y-85771208D01*
X167749605Y-86620000D01*
X167763748Y-86634143D01*
X167584143Y-86813748D01*
X167570000Y-86799605D01*
X166721208Y-87648397D01*
X166796729Y-87890689D01*
X166623368Y-88006525D01*
X166416525Y-88213368D01*
X166300000Y-88387760D01*
X166183475Y-88213368D01*
X165976632Y-88006525D01*
X165802240Y-87890000D01*
X165976632Y-87773475D01*
X166183475Y-87566632D01*
X166299311Y-87393271D01*
X166541603Y-87468792D01*
X167390395Y-86620000D01*
X166541603Y-85771208D01*
X166299311Y-85846729D01*
X166183475Y-85673368D01*
X165976632Y-85466525D01*
X165802240Y-85350000D01*
X165976632Y-85233475D01*
X166183475Y-85026632D01*
X166300000Y-84852240D01*
X166416525Y-85026632D01*
X166623368Y-85233475D01*
X166796729Y-85349311D01*
X166721208Y-85591603D01*
X167570000Y-86440395D01*
X168418792Y-85591603D01*
X168343271Y-85349311D01*
X168516632Y-85233475D01*
X168723475Y-85026632D01*
X168885990Y-84783411D01*
X168919601Y-84702267D01*
X168919601Y-85983787D01*
G36*
X168919600Y-80853879D02*
G01*
X168919600Y-80917731D01*
X168885990Y-80836589D01*
X168853126Y-80787405D01*
X168919600Y-80853879D01*
G37*
X168919600Y-80853879D02*
X168919600Y-80917731D01*
X168885990Y-80836589D01*
X168853126Y-80787405D01*
X168919600Y-80853879D01*
G36*
X166861864Y-77688843D02*
G01*
X166798843Y-77722528D01*
X166721208Y-77971603D01*
X167570000Y-78820395D01*
X167584143Y-78806253D01*
X167763748Y-78985858D01*
X167749605Y-79000000D01*
X167763748Y-79014143D01*
X167584143Y-79193748D01*
X167570000Y-79179605D01*
X166721208Y-80028397D01*
X166796729Y-80270689D01*
X166623368Y-80386525D01*
X166416525Y-80593368D01*
X166300000Y-80767760D01*
X166183475Y-80593368D01*
X165996392Y-80406285D01*
X166123386Y-80338405D01*
X166257962Y-80227962D01*
X166368405Y-80093386D01*
X166450472Y-79939850D01*
X166483580Y-79830707D01*
X166541603Y-79848792D01*
X167390395Y-79000000D01*
X166541603Y-78151208D01*
X166483580Y-78169293D01*
X166450472Y-78060150D01*
X166368405Y-77906614D01*
X166257962Y-77772038D01*
X166123386Y-77661595D01*
X165969850Y-77579528D01*
X165803254Y-77528992D01*
X165630000Y-77511928D01*
X164430000Y-77511928D01*
X164256746Y-77528992D01*
X164090150Y-77579528D01*
X163936614Y-77661595D01*
X163802038Y-77772038D01*
X163691595Y-77906614D01*
X163609528Y-78060150D01*
X163558992Y-78226746D01*
X163544920Y-78369618D01*
X160408130Y-75232828D01*
X160449684Y-75191274D01*
X160601802Y-74963612D01*
X160706583Y-74710648D01*
X160760000Y-74442103D01*
X160760000Y-74168297D01*
X160706583Y-73899752D01*
X160601802Y-73646788D01*
X160554904Y-73576600D01*
X162749622Y-73576600D01*
X166861864Y-77688843D01*
G37*
X166861864Y-77688843D02*
X166798843Y-77722528D01*
X166721208Y-77971603D01*
X167570000Y-78820395D01*
X167584143Y-78806253D01*
X167763748Y-78985858D01*
X167749605Y-79000000D01*
X167763748Y-79014143D01*
X167584143Y-79193748D01*
X167570000Y-79179605D01*
X166721208Y-80028397D01*
X166796729Y-80270689D01*
X166623368Y-80386525D01*
X166416525Y-80593368D01*
X166300000Y-80767760D01*
X166183475Y-80593368D01*
X165996392Y-80406285D01*
X166123386Y-80338405D01*
X166257962Y-80227962D01*
X166368405Y-80093386D01*
X166450472Y-79939850D01*
X166483580Y-79830707D01*
X166541603Y-79848792D01*
X167390395Y-79000000D01*
X166541603Y-78151208D01*
X166483580Y-78169293D01*
X166450472Y-78060150D01*
X166368405Y-77906614D01*
X166257962Y-77772038D01*
X166123386Y-77661595D01*
X165969850Y-77579528D01*
X165803254Y-77528992D01*
X165630000Y-77511928D01*
X164430000Y-77511928D01*
X164256746Y-77528992D01*
X164090150Y-77579528D01*
X163936614Y-77661595D01*
X163802038Y-77772038D01*
X163691595Y-77906614D01*
X163609528Y-78060150D01*
X163558992Y-78226746D01*
X163544920Y-78369618D01*
X160408130Y-75232828D01*
X160449684Y-75191274D01*
X160601802Y-74963612D01*
X160706583Y-74710648D01*
X160760000Y-74442103D01*
X160760000Y-74168297D01*
X160706583Y-73899752D01*
X160601802Y-73646788D01*
X160554904Y-73576600D01*
X162749622Y-73576600D01*
X166861864Y-77688843D01*
G36*
X141210926Y-67811474D02*
G01*
X141206922Y-67807470D01*
X141090667Y-67923725D01*
X141018479Y-67679247D01*
X140762115Y-67557847D01*
X140486993Y-67488795D01*
X140203687Y-67474742D01*
X139923082Y-67516230D01*
X139655963Y-67611664D01*
X139529521Y-67679247D01*
X139457332Y-67923727D01*
X140274000Y-68740395D01*
X140288143Y-68726253D01*
X140467748Y-68905858D01*
X140453605Y-68920000D01*
X140467748Y-68934143D01*
X140288143Y-69113748D01*
X140274000Y-69099605D01*
X139457332Y-69916273D01*
X139529521Y-70160753D01*
X139594619Y-70191580D01*
X139074399Y-70711800D01*
X136198723Y-70711800D01*
X136161400Y-70708124D01*
X136161154Y-70708148D01*
X136824882Y-70044420D01*
X137051904Y-70196112D01*
X137313967Y-70304662D01*
X137592172Y-70360000D01*
X137875828Y-70360000D01*
X138154033Y-70304662D01*
X138416096Y-70196112D01*
X138651947Y-70038521D01*
X138852521Y-69837947D01*
X139004440Y-69610584D01*
X139033247Y-69664479D01*
X139277727Y-69736668D01*
X140094395Y-68920000D01*
X139277727Y-68103332D01*
X139033247Y-68175521D01*
X139006363Y-68232293D01*
X138852521Y-68002053D01*
X138651947Y-67801479D01*
X138416096Y-67643888D01*
X138407694Y-67640408D01*
X138849303Y-67198800D01*
X141823599Y-67198800D01*
X141210926Y-67811474D01*
G37*
X141210926Y-67811474D02*
X141206922Y-67807470D01*
X141090667Y-67923725D01*
X141018479Y-67679247D01*
X140762115Y-67557847D01*
X140486993Y-67488795D01*
X140203687Y-67474742D01*
X139923082Y-67516230D01*
X139655963Y-67611664D01*
X139529521Y-67679247D01*
X139457332Y-67923727D01*
X140274000Y-68740395D01*
X140288143Y-68726253D01*
X140467748Y-68905858D01*
X140453605Y-68920000D01*
X140467748Y-68934143D01*
X140288143Y-69113748D01*
X140274000Y-69099605D01*
X139457332Y-69916273D01*
X139529521Y-70160753D01*
X139594619Y-70191580D01*
X139074399Y-70711800D01*
X136198723Y-70711800D01*
X136161400Y-70708124D01*
X136161154Y-70708148D01*
X136824882Y-70044420D01*
X137051904Y-70196112D01*
X137313967Y-70304662D01*
X137592172Y-70360000D01*
X137875828Y-70360000D01*
X138154033Y-70304662D01*
X138416096Y-70196112D01*
X138651947Y-70038521D01*
X138852521Y-69837947D01*
X139004440Y-69610584D01*
X139033247Y-69664479D01*
X139277727Y-69736668D01*
X140094395Y-68920000D01*
X139277727Y-68103332D01*
X139033247Y-68175521D01*
X139006363Y-68232293D01*
X138852521Y-68002053D01*
X138651947Y-67801479D01*
X138416096Y-67643888D01*
X138407694Y-67640408D01*
X138849303Y-67198800D01*
X141823599Y-67198800D01*
X141210926Y-67811474D01*
%TD*%
M02*
