%TF.GenerationSoftware,KiCad,Pcbnew,5.1.6-c6e7f7d~87~ubuntu20.04.1*%
%TF.CreationDate,2021-10-31T15:52:52+01:00*%
%TF.ProjectId,sb-cnc-shield,73622d63-6e63-42d7-9368-69656c642e6b,rev?*%
%TF.SameCoordinates,Original*%
%TF.FileFunction,Copper,L1,Top*%
%TF.FilePolarity,Positive*%
%FSLAX46Y46*%
G04 Gerber Fmt 4.6, Leading zero omitted, Abs format (unit mm)*
G04 Created by KiCad (PCBNEW 5.1.6-c6e7f7d~87~ubuntu20.04.1) date 2021-10-31 15:52:52*
%MOMM*%
%LPD*%
G01*
G04 APERTURE LIST*
%TA.AperFunction,ComponentPad*%
%ADD10C,1.700000*%
%TD*%
%TA.AperFunction,ComponentPad*%
%ADD11R,2.000000X1.905000*%
%TD*%
%TA.AperFunction,ComponentPad*%
%ADD12O,2.000000X1.905000*%
%TD*%
%TA.AperFunction,ComponentPad*%
%ADD13O,2.000000X1.700000*%
%TD*%
%TA.AperFunction,ComponentPad*%
%ADD14C,1.610000*%
%TD*%
%TA.AperFunction,ComponentPad*%
%ADD15C,2.250000*%
%TD*%
%TA.AperFunction,ComponentPad*%
%ADD16C,1.510000*%
%TD*%
%TA.AperFunction,SMDPad,CuDef*%
%ADD17R,1.300000X0.700000*%
%TD*%
%TA.AperFunction,SMDPad,CuDef*%
%ADD18R,0.700000X1.300000*%
%TD*%
%TA.AperFunction,ComponentPad*%
%ADD19C,1.600000*%
%TD*%
%TA.AperFunction,ComponentPad*%
%ADD20R,1.700000X1.700000*%
%TD*%
%TA.AperFunction,ComponentPad*%
%ADD21O,1.700000X1.700000*%
%TD*%
%TA.AperFunction,ComponentPad*%
%ADD22O,1.700000X2.000000*%
%TD*%
%TA.AperFunction,ComponentPad*%
%ADD23C,1.524000*%
%TD*%
%TA.AperFunction,ViaPad*%
%ADD24C,0.600000*%
%TD*%
%TA.AperFunction,Conductor*%
%ADD25C,0.250000*%
%TD*%
%TA.AperFunction,Conductor*%
%ADD26C,0.700000*%
%TD*%
%TA.AperFunction,Conductor*%
%ADD27C,0.500000*%
%TD*%
%TA.AperFunction,NonConductor*%
%ADD28C,0.254000*%
%TD*%
%TA.AperFunction,Conductor*%
%ADD29C,0.254000*%
%TD*%
G04 APERTURE END LIST*
D10*
%TO.P,conn26_0,26*%
%TO.N,GND*%
X179283000Y-109480000D03*
%TO.P,conn26_0,24*%
X179283000Y-106940000D03*
%TO.P,conn26_0,22*%
X179283000Y-104400000D03*
%TO.P,conn26_0,20*%
X179283000Y-101860000D03*
%TO.P,conn26_0,18*%
X179283000Y-99320000D03*
%TO.P,conn26_0,16*%
X179283000Y-96780000D03*
%TO.P,conn26_0,14*%
X179283000Y-94240000D03*
%TO.P,conn26_0,12*%
X179283000Y-91700000D03*
%TO.P,conn26_0,10*%
X179283000Y-89160000D03*
%TO.P,conn26_0,8*%
X179283000Y-86620000D03*
%TO.P,conn26_0,6*%
X179283000Y-84080000D03*
%TO.P,conn26_0,4*%
X179283000Y-81540000D03*
%TO.P,conn26_0,2*%
X179283000Y-79000000D03*
%TO.P,conn26_0,25*%
%TO.N,RESET*%
X176743000Y-109480000D03*
%TO.P,conn26_0,23*%
%TO.N,B_led*%
X176743000Y-106940000D03*
%TO.P,conn26_0,21*%
%TO.N,O_sig*%
X176743000Y-104400000D03*
%TO.P,conn26_0,19*%
%TO.N,O_led*%
X176743000Y-101860000D03*
%TO.P,conn26_0,17*%
%TO.N,up_light*%
X176743000Y-99320000D03*
%TO.P,conn26_0,15*%
%TO.N,B_sig*%
X176743000Y-96780000D03*
%TO.P,conn26_0,13*%
%TO.N,SPIN_EN*%
X176743000Y-94240000D03*
%TO.P,conn26_0,11*%
%TO.N,XLIMIT*%
X176743000Y-91700000D03*
%TO.P,conn26_0,9*%
X176743000Y-89160000D03*
%TO.P,conn26_0,7*%
%TO.N,YLIMIT*%
X176743000Y-86620000D03*
%TO.P,conn26_0,5*%
X176743000Y-84080000D03*
%TO.P,conn26_0,3*%
%TO.N,ZLIMIT*%
X176743000Y-81540000D03*
%TO.P,conn26_0,1*%
%TA.AperFunction,ComponentPad*%
G36*
G01*
X175893000Y-79600000D02*
X175893000Y-78400000D01*
G75*
G02*
X176143000Y-78150000I250000J0D01*
G01*
X177343000Y-78150000D01*
G75*
G02*
X177593000Y-78400000I0J-250000D01*
G01*
X177593000Y-79600000D01*
G75*
G02*
X177343000Y-79850000I-250000J0D01*
G01*
X176143000Y-79850000D01*
G75*
G02*
X175893000Y-79600000I0J250000D01*
G01*
G37*
%TD.AperFunction*%
%TD*%
%TO.P,conn26_1,1*%
%TO.N,+5V*%
%TA.AperFunction,ComponentPad*%
G36*
G01*
X164180000Y-79600000D02*
X164180000Y-78400000D01*
G75*
G02*
X164430000Y-78150000I250000J0D01*
G01*
X165630000Y-78150000D01*
G75*
G02*
X165880000Y-78400000I0J-250000D01*
G01*
X165880000Y-79600000D01*
G75*
G02*
X165630000Y-79850000I-250000J0D01*
G01*
X164430000Y-79850000D01*
G75*
G02*
X164180000Y-79600000I0J250000D01*
G01*
G37*
%TD.AperFunction*%
%TO.P,conn26_1,3*%
%TO.N,_SCL_*%
X165030000Y-81540000D03*
%TO.P,conn26_1,5*%
%TO.N,+5V*%
X165030000Y-84080000D03*
%TO.P,conn26_1,7*%
%TO.N,res*%
X165030000Y-86620000D03*
%TO.P,conn26_1,9*%
%TO.N,y2B*%
X165030000Y-89160000D03*
%TO.P,conn26_1,11*%
%TO.N,y2A*%
X165030000Y-91700000D03*
%TO.P,conn26_1,13*%
%TO.N,y1A*%
X165030000Y-94240000D03*
%TO.P,conn26_1,15*%
%TO.N,y1B*%
X165030000Y-96780000D03*
%TO.P,conn26_1,17*%
%TO.N,a2B*%
X165030000Y-99320000D03*
%TO.P,conn26_1,19*%
%TO.N,a2A*%
X165030000Y-101860000D03*
%TO.P,conn26_1,21*%
%TO.N,a1A*%
X165030000Y-104400000D03*
%TO.P,conn26_1,23*%
%TO.N,a1B*%
X165030000Y-106940000D03*
%TO.P,conn26_1,25*%
%TO.N,Net-(conn26_1-Pad25)*%
X165030000Y-109480000D03*
%TO.P,conn26_1,2*%
%TO.N,GND*%
X167570000Y-79000000D03*
%TO.P,conn26_1,4*%
%TO.N,_SDA_*%
X167570000Y-81540000D03*
%TO.P,conn26_1,6*%
%TO.N,DC*%
X167570000Y-84080000D03*
%TO.P,conn26_1,8*%
%TO.N,GND*%
X167570000Y-86620000D03*
%TO.P,conn26_1,10*%
%TO.N,x2B*%
X167570000Y-89160000D03*
%TO.P,conn26_1,12*%
%TO.N,x2A*%
X167570000Y-91700000D03*
%TO.P,conn26_1,14*%
%TO.N,x1A*%
X167570000Y-94240000D03*
%TO.P,conn26_1,16*%
%TO.N,x1B*%
X167570000Y-96780000D03*
%TO.P,conn26_1,18*%
%TO.N,z2B*%
X167570000Y-99320000D03*
%TO.P,conn26_1,20*%
%TO.N,z2A*%
X167570000Y-101860000D03*
%TO.P,conn26_1,22*%
%TO.N,z1A*%
X167570000Y-104400000D03*
%TO.P,conn26_1,24*%
X167570000Y-106940000D03*
%TO.P,conn26_1,26*%
%TO.N,Net-(conn26_1-Pad26)*%
X167570000Y-109480000D03*
%TD*%
D11*
%TO.P,Q0,2*%
%TO.N,/G*%
X173380000Y-58267600D03*
D12*
%TO.P,Q0,1*%
%TO.N,/D*%
X173380000Y-55727600D03*
%TO.P,Q0,3*%
%TO.N,GND*%
X173380000Y-53187600D03*
%TD*%
%TO.P,pi_5V1,1*%
%TO.N,GND*%
%TA.AperFunction,ComponentPad*%
G36*
G01*
X120790000Y-50583200D02*
X119290000Y-50583200D01*
G75*
G02*
X119040000Y-50333200I0J250000D01*
G01*
X119040000Y-49133200D01*
G75*
G02*
X119290000Y-48883200I250000J0D01*
G01*
X120790000Y-48883200D01*
G75*
G02*
X121040000Y-49133200I0J-250000D01*
G01*
X121040000Y-50333200D01*
G75*
G02*
X120790000Y-50583200I-250000J0D01*
G01*
G37*
%TD.AperFunction*%
D13*
%TO.P,pi_5V1,2*%
%TO.N,5V_pi*%
X120040000Y-47233200D03*
%TD*%
D14*
%TO.P,U1,17*%
%TO.N,B_sig*%
X177358000Y-117180000D03*
%TO.P,U1,18*%
%TO.N,pump_ctrl*%
X174818000Y-117180000D03*
%TO.P,U1,19*%
%TO.N,up_light*%
X172278000Y-117180000D03*
%TO.P,U1,22*%
%TO.N,O_led*%
X164658000Y-117180000D03*
%TO.P,U1,21*%
%TO.N,O_sig*%
X167198000Y-117180000D03*
%TO.P,U1,20*%
%TO.N,B_led*%
X169738000Y-117180000D03*
%TO.P,U1,23*%
%TO.N,Net-(U1-Pad23)*%
X159578000Y-117180000D03*
%TO.P,U1,24*%
%TO.N,GND*%
X157038000Y-117180000D03*
%TO.P,U1,25*%
X154498000Y-117180000D03*
%TO.P,U1,27*%
%TO.N,+3V3*%
X149418000Y-117180000D03*
%TO.P,U1,28*%
%TO.N,RESET*%
X146878000Y-117180000D03*
%TO.P,U1,1*%
%TO.N,DC*%
X177358000Y-68920000D03*
%TO.P,U1,2*%
%TO.N,res*%
X174818000Y-68920000D03*
%TO.P,U1,3*%
%TO.N,XSTEP*%
X172278000Y-68920000D03*
%TO.P,U1,4*%
%TO.N,YSTEP*%
X169738000Y-68920000D03*
%TO.P,U1,5*%
%TO.N,ZSTEP*%
X167198000Y-68920000D03*
%TO.P,U1,6*%
%TO.N,XDIR*%
X164658000Y-68920000D03*
%TO.P,U1,7*%
%TO.N,YDIR*%
X162118000Y-68920000D03*
%TO.P,U1,8*%
%TO.N,ZDIR*%
X159578000Y-68920000D03*
%TO.P,U1,9*%
%TO.N,EN*%
X155514000Y-68920000D03*
%TO.P,U1,10*%
%TO.N,XLIMIT*%
X152974000Y-68920000D03*
%TO.P,U1,11*%
%TO.N,YLIMIT*%
X150434000Y-68920000D03*
%TO.P,U1,12*%
%TO.N,SPIN_EN*%
X147894000Y-68920000D03*
%TO.P,U1,13*%
%TO.N,ZLIMIT*%
X145354000Y-68920000D03*
%TO.P,U1,14*%
%TO.N,SPIN_DIR*%
X142814000Y-68920000D03*
%TO.P,U1,15*%
%TO.N,GND*%
X140274000Y-68920000D03*
%TO.P,U1,16*%
%TO.N,Net-(U1-Pad16)*%
X137734000Y-68920000D03*
%TO.P,U1,26*%
%TO.N,+5V*%
X151958000Y-117180000D03*
%TO.P,U1,29*%
%TO.N,_SDA_*%
X135194000Y-68920000D03*
%TO.P,U1,30*%
%TO.N,_SCL_*%
X132654000Y-68920000D03*
%TD*%
D15*
%TO.P,SW1,3*%
%TO.N,RESET*%
X117348000Y-73689600D03*
%TO.P,SW1,4*%
X123848000Y-73689600D03*
%TO.P,SW1,1*%
%TO.N,GND*%
X117348000Y-69189600D03*
%TO.P,SW1,2*%
X123848000Y-69189600D03*
%TD*%
D16*
%TO.P,U2,1*%
%TO.N,EN*%
X130033000Y-74229000D03*
%TO.P,U2,2*%
%TO.N,Net-(MSX1-Pad2)*%
X130033000Y-76769000D03*
%TO.P,U2,3*%
%TO.N,Net-(MSX1-Pad4)*%
X130033000Y-79309000D03*
%TO.P,U2,4*%
%TO.N,Net-(MSX1-Pad6)*%
X130033000Y-81849000D03*
%TO.P,U2,5*%
%TO.N,Net-(U2-Pad5)*%
X130033000Y-84389000D03*
%TO.P,U2,6*%
X130033000Y-86929000D03*
%TO.P,U2,7*%
%TO.N,XSTEP*%
X130033000Y-89469000D03*
%TO.P,U2,8*%
%TO.N,XDIR*%
X130033000Y-92009000D03*
%TO.P,U2,9*%
%TO.N,GND*%
X142733000Y-92009000D03*
%TO.P,U2,10*%
%TO.N,+5V*%
X142733000Y-89469000D03*
%TO.P,U2,11*%
%TO.N,x1B*%
X142733000Y-86929000D03*
%TO.P,U2,12*%
%TO.N,x1A*%
X142733000Y-84389000D03*
%TO.P,U2,13*%
%TO.N,x2A*%
X142733000Y-81849000D03*
%TO.P,U2,14*%
%TO.N,x2B*%
X142733000Y-79309000D03*
%TO.P,U2,15*%
%TO.N,GNDA*%
X142733000Y-76769000D03*
%TO.P,U2,16*%
%TO.N,VIN*%
X142733000Y-74229000D03*
%TD*%
%TO.P,U4,1*%
%TO.N,EN*%
X130033000Y-94549000D03*
%TO.P,U4,2*%
%TO.N,Net-(MSZ1-Pad2)*%
X130033000Y-97089000D03*
%TO.P,U4,3*%
%TO.N,Net-(MSZ1-Pad4)*%
X130033000Y-99629000D03*
%TO.P,U4,4*%
%TO.N,Net-(MSZ1-Pad6)*%
X130033000Y-102169000D03*
%TO.P,U4,5*%
%TO.N,Net-(U4-Pad5)*%
X130033000Y-104709000D03*
%TO.P,U4,6*%
X130033000Y-107249000D03*
%TO.P,U4,7*%
%TO.N,ZSTEP*%
X130033000Y-109789000D03*
%TO.P,U4,8*%
%TO.N,ZDIR*%
X130033000Y-112329000D03*
%TO.P,U4,9*%
%TO.N,GND*%
X142733000Y-112329000D03*
%TO.P,U4,10*%
%TO.N,+5V*%
X142733000Y-109789000D03*
%TO.P,U4,11*%
%TO.N,z1B*%
X142733000Y-107249000D03*
%TO.P,U4,12*%
%TO.N,z1A*%
X142733000Y-104709000D03*
%TO.P,U4,13*%
%TO.N,z2A*%
X142733000Y-102169000D03*
%TO.P,U4,14*%
%TO.N,z2B*%
X142733000Y-99629000D03*
%TO.P,U4,15*%
%TO.N,GNDA*%
X142733000Y-97089000D03*
%TO.P,U4,16*%
%TO.N,VIN*%
X142733000Y-94549000D03*
%TD*%
%TO.P,U5,1*%
%TO.N,EN*%
X146746000Y-94625200D03*
%TO.P,U5,2*%
%TO.N,Net-(MSA1-Pad2)*%
X146746000Y-97165200D03*
%TO.P,U5,3*%
%TO.N,Net-(MSA1-Pad4)*%
X146746000Y-99705200D03*
%TO.P,U5,4*%
%TO.N,Net-(MSA1-Pad6)*%
X146746000Y-102245200D03*
%TO.P,U5,5*%
%TO.N,Net-(U5-Pad5)*%
X146746000Y-104785200D03*
%TO.P,U5,6*%
X146746000Y-107325200D03*
%TO.P,U5,7*%
%TO.N,SPIN_EN*%
X146746000Y-109865200D03*
%TO.P,U5,8*%
%TO.N,SPIN_DIR*%
X146746000Y-112405200D03*
%TO.P,U5,9*%
%TO.N,GND*%
X159446000Y-112405200D03*
%TO.P,U5,10*%
%TO.N,+5V*%
X159446000Y-109865200D03*
%TO.P,U5,11*%
%TO.N,a1B*%
X159446000Y-107325200D03*
%TO.P,U5,12*%
%TO.N,a1A*%
X159446000Y-104785200D03*
%TO.P,U5,13*%
%TO.N,a2A*%
X159446000Y-102245200D03*
%TO.P,U5,14*%
%TO.N,a2B*%
X159446000Y-99705200D03*
%TO.P,U5,15*%
%TO.N,GNDA*%
X159446000Y-97165200D03*
%TO.P,U5,16*%
%TO.N,VIN*%
X159446000Y-94625200D03*
%TD*%
%TO.P,U3,1*%
%TO.N,EN*%
X146670000Y-74305200D03*
%TO.P,U3,2*%
%TO.N,Net-(MSY1-Pad2)*%
X146670000Y-76845200D03*
%TO.P,U3,3*%
%TO.N,Net-(MSY1-Pad4)*%
X146670000Y-79385200D03*
%TO.P,U3,4*%
%TO.N,Net-(MSY1-Pad6)*%
X146670000Y-81925200D03*
%TO.P,U3,5*%
%TO.N,Net-(U3-Pad5)*%
X146670000Y-84465200D03*
%TO.P,U3,6*%
X146670000Y-87005200D03*
%TO.P,U3,7*%
%TO.N,YSTEP*%
X146670000Y-89545200D03*
%TO.P,U3,8*%
%TO.N,YDIR*%
X146670000Y-92085200D03*
%TO.P,U3,9*%
%TO.N,GND*%
X159370000Y-92085200D03*
%TO.P,U3,10*%
%TO.N,+5V*%
X159370000Y-89545200D03*
%TO.P,U3,11*%
%TO.N,y1B*%
X159370000Y-87005200D03*
%TO.P,U3,12*%
%TO.N,y1A*%
X159370000Y-84465200D03*
%TO.P,U3,13*%
%TO.N,y2A*%
X159370000Y-81925200D03*
%TO.P,U3,14*%
%TO.N,y2B*%
X159370000Y-79385200D03*
%TO.P,U3,15*%
%TO.N,GNDA*%
X159370000Y-76845200D03*
%TO.P,U3,16*%
%TO.N,VIN*%
X159370000Y-74305200D03*
%TD*%
D17*
%TO.P,R1,1*%
%TO.N,Net-(MSX1-Pad2)*%
X132573000Y-75814000D03*
%TO.P,R1,2*%
%TO.N,GND*%
X132573000Y-73914000D03*
%TD*%
%TO.P,R2,1*%
%TO.N,Net-(MSY1-Pad2)*%
X149210000Y-75890200D03*
%TO.P,R2,2*%
%TO.N,GND*%
X149210000Y-73990200D03*
%TD*%
%TO.P,R3,1*%
%TO.N,Net-(MSZ1-Pad2)*%
X132573000Y-96134000D03*
%TO.P,R3,2*%
%TO.N,GND*%
X132573000Y-94234000D03*
%TD*%
%TO.P,R4,1*%
%TO.N,Net-(MSA1-Pad2)*%
X149286000Y-96210200D03*
%TO.P,R4,2*%
%TO.N,GND*%
X149286000Y-94310200D03*
%TD*%
D18*
%TO.P,R5,1*%
%TO.N,+5V*%
X142555000Y-116891000D03*
%TO.P,R5,2*%
%TO.N,EN*%
X140655000Y-116891000D03*
%TD*%
D19*
%TO.P,C1,1*%
%TO.N,VIN*%
X135956000Y-73980100D03*
%TO.P,C1,2*%
%TO.N,GNDA*%
X137956000Y-73980100D03*
%TD*%
%TO.P,C2,2*%
%TO.N,GNDA*%
X154989000Y-74051200D03*
%TO.P,C2,1*%
%TO.N,VIN*%
X152989000Y-74051200D03*
%TD*%
%TO.P,C3,1*%
%TO.N,VIN*%
X136052000Y-95778400D03*
%TO.P,C3,2*%
%TO.N,GNDA*%
X138052000Y-95778400D03*
%TD*%
%TO.P,C4,2*%
%TO.N,GNDA*%
X154633000Y-95778400D03*
%TO.P,C4,1*%
%TO.N,VIN*%
X152633000Y-95778400D03*
%TD*%
D20*
%TO.P,P10,1*%
%TO.N,VIN*%
X154102000Y-47879000D03*
D21*
%TO.P,P10,2*%
%TO.N,VIN_*%
X154102000Y-45339000D03*
%TD*%
%TO.P,R6,2*%
%TO.N,GND*%
%TA.AperFunction,SMDPad,CuDef*%
G36*
G01*
X169462000Y-48386050D02*
X169462000Y-47473550D01*
G75*
G02*
X169705750Y-47229800I243750J0D01*
G01*
X170193250Y-47229800D01*
G75*
G02*
X170437000Y-47473550I0J-243750D01*
G01*
X170437000Y-48386050D01*
G75*
G02*
X170193250Y-48629800I-243750J0D01*
G01*
X169705750Y-48629800D01*
G75*
G02*
X169462000Y-48386050I0J243750D01*
G01*
G37*
%TD.AperFunction*%
%TO.P,R6,1*%
%TO.N,/G*%
%TA.AperFunction,SMDPad,CuDef*%
G36*
G01*
X167587000Y-48386050D02*
X167587000Y-47473550D01*
G75*
G02*
X167830750Y-47229800I243750J0D01*
G01*
X168318250Y-47229800D01*
G75*
G02*
X168562000Y-47473550I0J-243750D01*
G01*
X168562000Y-48386050D01*
G75*
G02*
X168318250Y-48629800I-243750J0D01*
G01*
X167830750Y-48629800D01*
G75*
G02*
X167587000Y-48386050I0J243750D01*
G01*
G37*
%TD.AperFunction*%
%TD*%
%TO.P,R7,1*%
%TO.N,pump_ctrl*%
%TA.AperFunction,SMDPad,CuDef*%
G36*
G01*
X162938000Y-48386050D02*
X162938000Y-47473550D01*
G75*
G02*
X163181750Y-47229800I243750J0D01*
G01*
X163669250Y-47229800D01*
G75*
G02*
X163913000Y-47473550I0J-243750D01*
G01*
X163913000Y-48386050D01*
G75*
G02*
X163669250Y-48629800I-243750J0D01*
G01*
X163181750Y-48629800D01*
G75*
G02*
X162938000Y-48386050I0J243750D01*
G01*
G37*
%TD.AperFunction*%
%TO.P,R7,2*%
%TO.N,/G*%
%TA.AperFunction,SMDPad,CuDef*%
G36*
G01*
X164813000Y-48386050D02*
X164813000Y-47473550D01*
G75*
G02*
X165056750Y-47229800I243750J0D01*
G01*
X165544250Y-47229800D01*
G75*
G02*
X165788000Y-47473550I0J-243750D01*
G01*
X165788000Y-48386050D01*
G75*
G02*
X165544250Y-48629800I-243750J0D01*
G01*
X165056750Y-48629800D01*
G75*
G02*
X164813000Y-48386050I0J243750D01*
G01*
G37*
%TD.AperFunction*%
%TD*%
%TO.P,l_pwr1,1*%
%TO.N,GND*%
%TA.AperFunction,ComponentPad*%
G36*
G01*
X177940000Y-50634000D02*
X176440000Y-50634000D01*
G75*
G02*
X176190000Y-50384000I0J250000D01*
G01*
X176190000Y-49184000D01*
G75*
G02*
X176440000Y-48934000I250000J0D01*
G01*
X177940000Y-48934000D01*
G75*
G02*
X178190000Y-49184000I0J-250000D01*
G01*
X178190000Y-50384000D01*
G75*
G02*
X177940000Y-50634000I-250000J0D01*
G01*
G37*
%TD.AperFunction*%
D13*
%TO.P,l_pwr1,2*%
%TO.N,VIN*%
X177190000Y-47284000D03*
%TD*%
D22*
%TO.P,Pump1,2*%
%TO.N,/D*%
X177150000Y-63525400D03*
%TO.P,Pump1,1*%
%TO.N,VIN*%
%TA.AperFunction,ComponentPad*%
G36*
G01*
X173800000Y-64275400D02*
X173800000Y-62775400D01*
G75*
G02*
X174050000Y-62525400I250000J0D01*
G01*
X175250000Y-62525400D01*
G75*
G02*
X175500000Y-62775400I0J-250000D01*
G01*
X175500000Y-64275400D01*
G75*
G02*
X175250000Y-64525400I-250000J0D01*
G01*
X174050000Y-64525400D01*
G75*
G02*
X173800000Y-64275400I0J250000D01*
G01*
G37*
%TD.AperFunction*%
%TD*%
D20*
%TO.P,MSA1,1*%
%TO.N,+5V*%
X150480000Y-111643000D03*
D21*
%TO.P,MSA1,2*%
%TO.N,Net-(MSA1-Pad2)*%
X150480000Y-109103000D03*
%TO.P,MSA1,3*%
%TO.N,+5V*%
X153020000Y-111643000D03*
%TO.P,MSA1,4*%
%TO.N,Net-(MSA1-Pad4)*%
X153020000Y-109103000D03*
%TO.P,MSA1,5*%
%TO.N,+5V*%
X155560000Y-111643000D03*
%TO.P,MSA1,6*%
%TO.N,Net-(MSA1-Pad6)*%
X155560000Y-109103000D03*
%TD*%
D20*
%TO.P,MSY1,1*%
%TO.N,+5V*%
X150835000Y-91145400D03*
D21*
%TO.P,MSY1,2*%
%TO.N,Net-(MSY1-Pad2)*%
X150835000Y-88605400D03*
%TO.P,MSY1,3*%
%TO.N,+5V*%
X153375000Y-91145400D03*
%TO.P,MSY1,4*%
%TO.N,Net-(MSY1-Pad4)*%
X153375000Y-88605400D03*
%TO.P,MSY1,5*%
%TO.N,+5V*%
X155915000Y-91145400D03*
%TO.P,MSY1,6*%
%TO.N,Net-(MSY1-Pad6)*%
X155915000Y-88605400D03*
%TD*%
%TO.P,MSZ1,6*%
%TO.N,Net-(MSZ1-Pad6)*%
X138923000Y-109129000D03*
%TO.P,MSZ1,5*%
%TO.N,+5V*%
X138923000Y-111669000D03*
%TO.P,MSZ1,4*%
%TO.N,Net-(MSZ1-Pad4)*%
X136383000Y-109129000D03*
%TO.P,MSZ1,3*%
%TO.N,+5V*%
X136383000Y-111669000D03*
%TO.P,MSZ1,2*%
%TO.N,Net-(MSZ1-Pad2)*%
X133843000Y-109129000D03*
D20*
%TO.P,MSZ1,1*%
%TO.N,+5V*%
X133843000Y-111669000D03*
%TD*%
%TO.P,MSX1,1*%
%TO.N,+5V*%
X133945000Y-91145400D03*
D21*
%TO.P,MSX1,2*%
%TO.N,Net-(MSX1-Pad2)*%
X133945000Y-88605400D03*
%TO.P,MSX1,3*%
%TO.N,+5V*%
X136485000Y-91145400D03*
%TO.P,MSX1,4*%
%TO.N,Net-(MSX1-Pad4)*%
X136485000Y-88605400D03*
%TO.P,MSX1,5*%
%TO.N,+5V*%
X139025000Y-91145400D03*
%TO.P,MSX1,6*%
%TO.N,Net-(MSX1-Pad6)*%
X139025000Y-88605400D03*
%TD*%
D23*
%TO.P,MP1584EN_DC-DC1,8*%
%TO.N,GND*%
X143036000Y-47384200D03*
%TO.P,MP1584EN_DC-DC1,7*%
X143036000Y-49924200D03*
%TO.P,MP1584EN_DC-DC1,6*%
%TO.N,5V_pi*%
X143036000Y-57924200D03*
%TO.P,MP1584EN_DC-DC1,5*%
X143036000Y-60464200D03*
%TO.P,MP1584EN_DC-DC1,4*%
%TO.N,VIN*%
X125036000Y-57924200D03*
%TO.P,MP1584EN_DC-DC1,3*%
X125036000Y-60464200D03*
%TO.P,MP1584EN_DC-DC1,2*%
%TO.N,GND*%
X125036000Y-49924200D03*
%TO.P,MP1584EN_DC-DC1,1*%
X125036000Y-47384200D03*
%TD*%
%TO.P,fan1,1*%
%TO.N,5V_pi*%
%TA.AperFunction,SMDPad,CuDef*%
G36*
G01*
X120985000Y-81536400D02*
X119735000Y-81536400D01*
G75*
G02*
X119585000Y-81386400I0J150000D01*
G01*
X119585000Y-81086400D01*
G75*
G02*
X119735000Y-80936400I150000J0D01*
G01*
X120985000Y-80936400D01*
G75*
G02*
X121135000Y-81086400I0J-150000D01*
G01*
X121135000Y-81386400D01*
G75*
G02*
X120985000Y-81536400I-150000J0D01*
G01*
G37*
%TD.AperFunction*%
%TO.P,fan1,2*%
%TO.N,GND*%
%TA.AperFunction,SMDPad,CuDef*%
G36*
G01*
X120985000Y-80536400D02*
X119735000Y-80536400D01*
G75*
G02*
X119585000Y-80386400I0J150000D01*
G01*
X119585000Y-80086400D01*
G75*
G02*
X119735000Y-79936400I150000J0D01*
G01*
X120985000Y-79936400D01*
G75*
G02*
X121135000Y-80086400I0J-150000D01*
G01*
X121135000Y-80386400D01*
G75*
G02*
X120985000Y-80536400I-150000J0D01*
G01*
G37*
%TD.AperFunction*%
%TO.P,fan1,MP*%
%TO.N,N/C*%
%TA.AperFunction,SMDPad,CuDef*%
G36*
G01*
X118485001Y-83136400D02*
X117184999Y-83136400D01*
G75*
G02*
X116935000Y-82886401I0J249999D01*
G01*
X116935000Y-82186399D01*
G75*
G02*
X117184999Y-81936400I249999J0D01*
G01*
X118485001Y-81936400D01*
G75*
G02*
X118735000Y-82186399I0J-249999D01*
G01*
X118735000Y-82886401D01*
G75*
G02*
X118485001Y-83136400I-249999J0D01*
G01*
G37*
%TD.AperFunction*%
%TA.AperFunction,SMDPad,CuDef*%
G36*
G01*
X118485001Y-79536400D02*
X117184999Y-79536400D01*
G75*
G02*
X116935000Y-79286401I0J249999D01*
G01*
X116935000Y-78586399D01*
G75*
G02*
X117184999Y-78336400I249999J0D01*
G01*
X118485001Y-78336400D01*
G75*
G02*
X118735000Y-78586399I0J-249999D01*
G01*
X118735000Y-79286401D01*
G75*
G02*
X118485001Y-79536400I-249999J0D01*
G01*
G37*
%TD.AperFunction*%
%TD*%
D24*
%TO.N,XSTEP*%
X131475900Y-73252800D03*
%TO.N,VIN*%
X141449000Y-61095000D03*
%TO.N,YSTEP*%
X156427000Y-78609200D03*
%TO.N,YDIR*%
X157624500Y-78031100D03*
%TO.N,ZLIMIT*%
X151537600Y-65813400D03*
%TO.N,GNDA*%
X133390500Y-105823900D03*
X147992500Y-73919100D03*
%TO.N,_SCL_*%
X157544000Y-73713400D03*
X147400500Y-64084000D03*
%TO.N,_SDA_*%
X171115300Y-69617100D03*
%TO.N,x2B*%
X150607400Y-72513800D03*
X148728300Y-70740300D03*
%TO.N,x1A*%
X170462800Y-78801100D03*
X155122600Y-79760000D03*
%TO.N,x1B*%
X161808300Y-103515200D03*
%TO.N,z2B*%
X162668700Y-106055200D03*
%TD*%
D25*
%TO.N,RESET*%
X123848000Y-73689600D02*
X123848000Y-94973300D01*
X123848000Y-94973300D02*
X129773700Y-100899000D01*
X129773700Y-100899000D02*
X130359900Y-100899000D01*
X130359900Y-100899000D02*
X131113400Y-101652500D01*
X131113400Y-101652500D02*
X131113400Y-111112200D01*
X131113400Y-111112200D02*
X137882600Y-117881400D01*
X137882600Y-117881400D02*
X146176600Y-117881400D01*
X146176600Y-117881400D02*
X146878000Y-117180000D01*
%TO.N,Net-(U2-Pad5)*%
X130033000Y-86929000D02*
X130033000Y-84389000D01*
%TO.N,Net-(U3-Pad5)*%
X146670000Y-87005200D02*
X146670000Y-84465200D01*
%TO.N,Net-(U4-Pad5)*%
X130033000Y-107249000D02*
X130033000Y-104709000D01*
%TO.N,Net-(U5-Pad5)*%
X146746000Y-107325200D02*
X146746000Y-104785200D01*
D26*
%TO.N,+5V*%
X153020000Y-111643000D02*
X153020000Y-113043300D01*
X153020000Y-113043300D02*
X151958000Y-114105300D01*
X151958000Y-114105300D02*
X151958000Y-117180000D01*
X165030000Y-84080000D02*
X163628400Y-82678400D01*
X163628400Y-82678400D02*
X163628400Y-80401600D01*
X163628400Y-80401600D02*
X165030000Y-79000000D01*
X165030000Y-84080000D02*
X160753300Y-88356700D01*
X160753300Y-88356700D02*
X160753300Y-89545200D01*
X160753300Y-89545200D02*
X159370000Y-89545200D01*
X159446000Y-109865200D02*
X160753300Y-108557900D01*
X160753300Y-108557900D02*
X160753300Y-89545200D01*
X146006800Y-113744400D02*
X147328400Y-113744400D01*
X147328400Y-113744400D02*
X149079700Y-111993100D01*
X149079700Y-111993100D02*
X149079700Y-111643000D01*
X142733000Y-109789000D02*
X142733000Y-110470600D01*
X142733000Y-110470600D02*
X146006800Y-113744400D01*
X143455300Y-116891000D02*
X143455300Y-116295900D01*
X143455300Y-116295900D02*
X146006800Y-113744400D01*
X142555000Y-116891000D02*
X143455300Y-116891000D01*
X150480000Y-111643000D02*
X149079700Y-111643000D01*
%TO.N,GND*%
X156640700Y-94814500D02*
X158140600Y-96314400D01*
X158140600Y-96314400D02*
X158140600Y-111099800D01*
X158140600Y-111099800D02*
X159446000Y-112405200D01*
X159370000Y-92085200D02*
X156640700Y-94814500D01*
X149286000Y-94310200D02*
X156136400Y-94310200D01*
X156136400Y-94310200D02*
X156640700Y-94814500D01*
X157038000Y-117180000D02*
X157038000Y-114813200D01*
X157038000Y-114813200D02*
X159446000Y-112405200D01*
X142076700Y-72040900D02*
X148161000Y-72040900D01*
X148161000Y-72040900D02*
X149210000Y-73089900D01*
X140274000Y-68920000D02*
X142076700Y-70722700D01*
X142076700Y-70722700D02*
X142076700Y-72040900D01*
X142733000Y-92009000D02*
X141427700Y-90703700D01*
X141427700Y-90703700D02*
X141427700Y-72689900D01*
X141427700Y-72689900D02*
X142076700Y-72040900D01*
X143036000Y-47384200D02*
X146521200Y-43899000D01*
X146521200Y-43899000D02*
X165918700Y-43899000D01*
X165918700Y-43899000D02*
X169949500Y-47929800D01*
X143036000Y-49924200D02*
X143036000Y-47384200D01*
X117348000Y-69189600D02*
X120360000Y-72201600D01*
X120360000Y-72201600D02*
X120360000Y-80236400D01*
X140274000Y-52260800D02*
X140699400Y-52260800D01*
X140699400Y-52260800D02*
X143036000Y-49924200D01*
X127372600Y-52260800D02*
X140274000Y-52260800D01*
X140274000Y-68920000D02*
X140274000Y-52260800D01*
X142733000Y-112329000D02*
X140508000Y-110104000D01*
X140508000Y-110104000D02*
X140508000Y-94234000D01*
X140508000Y-94234000D02*
X132573000Y-94234000D01*
X142733000Y-92009000D02*
X140508000Y-94234000D01*
X179283000Y-79000000D02*
X177879800Y-77596800D01*
X177879800Y-77596800D02*
X175805900Y-77596800D01*
X175805900Y-77596800D02*
X169584200Y-83818500D01*
X169584200Y-83818500D02*
X169584200Y-84605800D01*
X169584200Y-84605800D02*
X167570000Y-86620000D01*
X125036000Y-49733200D02*
X125036000Y-49924200D01*
X125036000Y-47384200D02*
X125036000Y-49733200D01*
X125036000Y-49733200D02*
X120040000Y-49733200D01*
X123854400Y-69183200D02*
X123848000Y-69189600D01*
X132573000Y-73013700D02*
X128742500Y-69183200D01*
X128742500Y-69183200D02*
X123854400Y-69183200D01*
X123854400Y-69183200D02*
X123709100Y-69037900D01*
X123709100Y-69037900D02*
X123709100Y-55924300D01*
X123709100Y-55924300D02*
X127372600Y-52260800D01*
X125036000Y-49924200D02*
X127372600Y-52260800D01*
X179283000Y-81540000D02*
X179283000Y-79000000D01*
X179283000Y-94240000D02*
X179283000Y-96780000D01*
X132573000Y-73914000D02*
X132573000Y-73013700D01*
X177190000Y-49784000D02*
X175280800Y-49784000D01*
X175280800Y-49784000D02*
X173380000Y-51684800D01*
X173380000Y-53187600D02*
X173380000Y-51684800D01*
X173380000Y-51684800D02*
X169949500Y-48254300D01*
X169949500Y-48254300D02*
X169949500Y-47929800D01*
X179283000Y-106940000D02*
X179283000Y-109480000D01*
X179283000Y-104400000D02*
X179283000Y-106940000D01*
X179283000Y-101860000D02*
X179283000Y-104400000D01*
X179283000Y-99320000D02*
X179283000Y-101860000D01*
X179283000Y-96780000D02*
X179283000Y-99320000D01*
X179283000Y-91700000D02*
X179283000Y-94240000D01*
X179283000Y-89160000D02*
X179283000Y-91700000D01*
X179283000Y-86620000D02*
X179283000Y-89160000D01*
X179283000Y-84080000D02*
X179283000Y-86620000D01*
X179283000Y-81540000D02*
X179283000Y-84080000D01*
X149210000Y-73990200D02*
X149210000Y-73089900D01*
D25*
%TO.N,EN*%
X146670000Y-74305200D02*
X147032200Y-74667400D01*
X147032200Y-74667400D02*
X150021300Y-74667400D01*
X150021300Y-74667400D02*
X155514000Y-69174700D01*
X155514000Y-69174700D02*
X155514000Y-68920000D01*
X140655000Y-116891000D02*
X139934100Y-116891000D01*
X139934100Y-116891000D02*
X135018400Y-111975300D01*
X135018400Y-111975300D02*
X135018400Y-110637900D01*
X135018400Y-110637900D02*
X134874100Y-110493600D01*
X134874100Y-110493600D02*
X133542000Y-110493600D01*
X133542000Y-110493600D02*
X131777300Y-108728900D01*
X131777300Y-108728900D02*
X131777300Y-99779400D01*
X131777300Y-99779400D02*
X130534000Y-98536100D01*
X130534000Y-98536100D02*
X129910600Y-98536100D01*
X129910600Y-98536100D02*
X128907700Y-97533200D01*
X128907700Y-97533200D02*
X128907700Y-95674300D01*
X128907700Y-95674300D02*
X130033000Y-94549000D01*
X130033000Y-74229000D02*
X128020900Y-76241100D01*
X128020900Y-76241100D02*
X128020900Y-92536900D01*
X128020900Y-92536900D02*
X130033000Y-94549000D01*
%TO.N,XSTEP*%
X130033000Y-89469000D02*
X128471300Y-87907300D01*
X128471300Y-87907300D02*
X128471300Y-76742200D01*
X128471300Y-76742200D02*
X129887400Y-75326100D01*
X129887400Y-75326100D02*
X130483200Y-75326100D01*
X130483200Y-75326100D02*
X131475900Y-74333400D01*
X131475900Y-74333400D02*
X131475900Y-73252800D01*
D26*
%TO.N,VIN*%
X154354500Y-75416700D02*
X154272300Y-75498900D01*
X154272300Y-75498900D02*
X154272300Y-80112200D01*
X154272300Y-80112200D02*
X157339700Y-83179600D01*
X157339700Y-83179600D02*
X157339700Y-91701200D01*
X157339700Y-91701200D02*
X155631000Y-93409900D01*
X155631000Y-93409900D02*
X148408000Y-93409900D01*
X148408000Y-93409900D02*
X148085600Y-93732300D01*
X148085600Y-93732300D02*
X148085600Y-94933400D01*
X148085600Y-94933400D02*
X148362800Y-95210600D01*
X148362800Y-95210600D02*
X152065200Y-95210600D01*
X152065200Y-95210600D02*
X152633000Y-95778400D01*
X154354500Y-75416700D02*
X157437900Y-75416700D01*
X157437900Y-75416700D02*
X158655400Y-74199200D01*
X152989000Y-74051200D02*
X154354500Y-75416700D01*
X158655400Y-74199200D02*
X158655400Y-72861000D01*
X158655400Y-72861000D02*
X158209000Y-72414600D01*
X158209000Y-72414600D02*
X158209000Y-63525400D01*
X158655400Y-74199200D02*
X159264000Y-74199200D01*
X159264000Y-74199200D02*
X159370000Y-74305200D01*
X154102000Y-59470100D02*
X154102000Y-47879000D01*
X158209000Y-63525400D02*
X158157300Y-63525400D01*
X158157300Y-63525400D02*
X154102000Y-59470100D01*
X141449000Y-61095000D02*
X142158700Y-61804700D01*
X142158700Y-61804700D02*
X151767400Y-61804700D01*
X151767400Y-61804700D02*
X154102000Y-59470100D01*
X174650000Y-63525400D02*
X158209000Y-63525400D01*
X125036000Y-60464200D02*
X125036000Y-63224900D01*
X125036000Y-63224900D02*
X135791200Y-73980100D01*
X135791200Y-73980100D02*
X135956000Y-73980100D01*
X125036000Y-57924200D02*
X125036000Y-60464200D01*
X135956000Y-73980100D02*
X140425400Y-78449500D01*
X140425400Y-78449500D02*
X140425400Y-91725500D01*
X140425400Y-91725500D02*
X138817200Y-93333700D01*
X138817200Y-93333700D02*
X131695000Y-93333700D01*
X131695000Y-93333700D02*
X131372600Y-93656100D01*
X131372600Y-93656100D02*
X131372600Y-94857200D01*
X131372600Y-94857200D02*
X131649800Y-95134400D01*
X131649800Y-95134400D02*
X135408000Y-95134400D01*
X135408000Y-95134400D02*
X136052000Y-95778400D01*
D25*
%TO.N,YSTEP*%
X169738000Y-68920000D02*
X168607000Y-67789000D01*
X168607000Y-67789000D02*
X161585300Y-67789000D01*
X161585300Y-67789000D02*
X160848000Y-68526300D01*
X160848000Y-68526300D02*
X160848000Y-74373600D01*
X160848000Y-74373600D02*
X159646400Y-75575200D01*
X159646400Y-75575200D02*
X159021000Y-75575200D01*
X159021000Y-75575200D02*
X156427000Y-78169200D01*
X156427000Y-78169200D02*
X156427000Y-78609200D01*
%TO.N,YDIR*%
X162118000Y-68920000D02*
X162118000Y-75647000D01*
X162118000Y-75647000D02*
X159733900Y-78031100D01*
X159733900Y-78031100D02*
X157624500Y-78031100D01*
%TO.N,ZLIMIT*%
X145354000Y-68920000D02*
X148460600Y-65813400D01*
X148460600Y-65813400D02*
X151537600Y-65813400D01*
X176743000Y-79000000D02*
X176743000Y-81540000D01*
%TO.N,YLIMIT*%
X176743000Y-84080000D02*
X176743000Y-86620000D01*
%TO.N,XLIMIT*%
X176743000Y-89160000D02*
X176743000Y-91700000D01*
%TO.N,SPIN_DIR*%
X146746000Y-112405200D02*
X145045700Y-110704900D01*
X145045700Y-110704900D02*
X145045700Y-76853900D01*
X145045700Y-76853900D02*
X146459800Y-75439800D01*
X146459800Y-75439800D02*
X147377200Y-75439800D01*
X147377200Y-75439800D02*
X147602200Y-75214800D01*
X147602200Y-75214800D02*
X150110800Y-75214800D01*
X150110800Y-75214800D02*
X152547100Y-72778500D01*
X152547100Y-72778500D02*
X153328300Y-72778500D01*
X153328300Y-72778500D02*
X156670700Y-69436100D01*
X156670700Y-69436100D02*
X156670700Y-68471800D01*
X156670700Y-68471800D02*
X155952800Y-67753900D01*
X155952800Y-67753900D02*
X152470900Y-67753900D01*
X152470900Y-67753900D02*
X151843600Y-68381200D01*
X151843600Y-68381200D02*
X151843600Y-69112700D01*
X151843600Y-69112700D02*
X150889200Y-70067100D01*
X150889200Y-70067100D02*
X143961100Y-70067100D01*
X143961100Y-70067100D02*
X142814000Y-68920000D01*
D26*
%TO.N,GNDA*%
X138052000Y-95778400D02*
X138052000Y-101162400D01*
X138052000Y-101162400D02*
X133390500Y-105823900D01*
X142733000Y-76769000D02*
X142733000Y-76396100D01*
X142733000Y-76396100D02*
X146162800Y-72966300D01*
X146162800Y-72966300D02*
X147236200Y-72966300D01*
X147236200Y-72966300D02*
X147992500Y-73722600D01*
X147992500Y-73722600D02*
X147992500Y-73919100D01*
X142733000Y-97089000D02*
X144096900Y-95725100D01*
X144096900Y-95725100D02*
X144096900Y-78132900D01*
X144096900Y-78132900D02*
X142733000Y-76769000D01*
D25*
%TO.N,_SCL_*%
X147400500Y-64084000D02*
X152992600Y-64084000D01*
X152992600Y-64084000D02*
X157487800Y-68579200D01*
X157487800Y-68579200D02*
X157487800Y-73657200D01*
X157487800Y-73657200D02*
X157544000Y-73713400D01*
%TO.N,_SDA_*%
X167570000Y-81540000D02*
X168687500Y-81540000D01*
X168687500Y-81540000D02*
X171115300Y-79112200D01*
X171115300Y-79112200D02*
X171115300Y-69617100D01*
%TO.N,DC*%
X167570000Y-84080000D02*
X177358000Y-74292000D01*
X177358000Y-74292000D02*
X177358000Y-68920000D01*
%TO.N,res*%
X165030000Y-86620000D02*
X166300000Y-85350000D01*
X166300000Y-85350000D02*
X166300000Y-83649000D01*
X166300000Y-83649000D02*
X167044400Y-82904600D01*
X167044400Y-82904600D02*
X167985000Y-82904600D01*
X167985000Y-82904600D02*
X174818000Y-76071600D01*
X174818000Y-76071600D02*
X174818000Y-68920000D01*
%TO.N,/G*%
X168074500Y-47929800D02*
X168074500Y-52962100D01*
X168074500Y-52962100D02*
X173380000Y-58267600D01*
X165300500Y-47929800D02*
X168074500Y-47929800D01*
%TO.N,B_led*%
X169738000Y-117180000D02*
X169738000Y-113945000D01*
X169738000Y-113945000D02*
X176743000Y-106940000D01*
%TO.N,O_sig*%
X167198000Y-117180000D02*
X167198000Y-113945000D01*
X167198000Y-113945000D02*
X176743000Y-104400000D01*
D26*
%TO.N,5V_pi*%
X120360000Y-81236400D02*
X121151200Y-81236400D01*
X121151200Y-81236400D02*
X121725700Y-80661900D01*
X121725700Y-80661900D02*
X121725700Y-55460800D01*
X121725700Y-55460800D02*
X118468100Y-52203200D01*
X118468100Y-52203200D02*
X118468100Y-48805100D01*
X118468100Y-48805100D02*
X120040000Y-47233200D01*
X143036000Y-60464200D02*
X143036000Y-57924200D01*
D27*
%TO.N,x2B*%
X148728300Y-70740300D02*
X148833900Y-70740300D01*
X148833900Y-70740300D02*
X150607400Y-72513800D01*
%TO.N,x1A*%
X155122600Y-79760000D02*
X155961800Y-80599200D01*
X155961800Y-80599200D02*
X159880300Y-80599200D01*
X159880300Y-80599200D02*
X162789400Y-77690100D01*
X162789400Y-77690100D02*
X169351800Y-77690100D01*
X169351800Y-77690100D02*
X170462800Y-78801100D01*
%TO.N,x1B*%
X161808300Y-103515200D02*
X161808300Y-109159200D01*
X161808300Y-109159200D02*
X164177900Y-111528800D01*
X164177900Y-111528800D02*
X168411400Y-111528800D01*
X168411400Y-111528800D02*
X169571300Y-110368900D01*
X169571300Y-110368900D02*
X169571300Y-98781300D01*
X169571300Y-98781300D02*
X167570000Y-96780000D01*
%TO.N,z2B*%
X162668700Y-106055200D02*
X162668700Y-109029100D01*
X162668700Y-109029100D02*
X164468000Y-110828400D01*
X164468000Y-110828400D02*
X168121300Y-110828400D01*
X168121300Y-110828400D02*
X168870900Y-110078800D01*
X168870900Y-110078800D02*
X168870900Y-100620900D01*
X168870900Y-100620900D02*
X167570000Y-99320000D01*
%TO.N,z1A*%
X167570000Y-106940000D02*
X167570000Y-104400000D01*
D25*
%TO.N,Net-(MSA1-Pad2)*%
X150480000Y-109103000D02*
X150480000Y-106973000D01*
X150480000Y-106973000D02*
X147022200Y-103515200D01*
X147022200Y-103515200D02*
X146482800Y-103515200D01*
X146482800Y-103515200D02*
X145655300Y-102687700D01*
X145655300Y-102687700D02*
X145655300Y-98255900D01*
X145655300Y-98255900D02*
X146746000Y-97165200D01*
X149286000Y-96210200D02*
X147701000Y-96210200D01*
X147701000Y-96210200D02*
X146746000Y-97165200D01*
%TO.N,Net-(MSA1-Pad4)*%
X153020000Y-109103000D02*
X153020000Y-105979200D01*
X153020000Y-105979200D02*
X146746000Y-99705200D01*
%TO.N,Net-(MSX1-Pad4)*%
X136485000Y-88605400D02*
X136485000Y-85761000D01*
X136485000Y-85761000D02*
X130033000Y-79309000D01*
%TO.N,Net-(MSX1-Pad2)*%
X130033000Y-76769000D02*
X132293300Y-76769000D01*
X132293300Y-76769000D02*
X132573000Y-76489300D01*
X133945000Y-88605400D02*
X133945000Y-84233000D01*
X133945000Y-84233000D02*
X130113900Y-80401900D01*
X130113900Y-80401900D02*
X129533300Y-80401900D01*
X129533300Y-80401900D02*
X128933400Y-79802000D01*
X128933400Y-79802000D02*
X128933400Y-77868600D01*
X128933400Y-77868600D02*
X130033000Y-76769000D01*
X132573000Y-75814000D02*
X132573000Y-76489300D01*
%TO.N,Net-(MSY1-Pad2)*%
X150835000Y-88605400D02*
X150835000Y-87058400D01*
X150835000Y-87058400D02*
X146971800Y-83195200D01*
X146971800Y-83195200D02*
X146367000Y-83195200D01*
X146367000Y-83195200D02*
X145550500Y-82378700D01*
X145550500Y-82378700D02*
X145550500Y-77964700D01*
X145550500Y-77964700D02*
X146670000Y-76845200D01*
X149210000Y-75890200D02*
X147625000Y-75890200D01*
X147625000Y-75890200D02*
X146670000Y-76845200D01*
%TO.N,Net-(MSY1-Pad4)*%
X153375000Y-88605400D02*
X153375000Y-86090200D01*
X153375000Y-86090200D02*
X146670000Y-79385200D01*
%TO.N,Net-(MSY1-Pad6)*%
X154739700Y-88605400D02*
X154739700Y-88972700D01*
X154739700Y-88972700D02*
X153931600Y-89780800D01*
X153931600Y-89780800D02*
X152886000Y-89780800D01*
X152886000Y-89780800D02*
X152189300Y-89084100D01*
X152189300Y-89084100D02*
X152189300Y-87444500D01*
X152189300Y-87444500D02*
X146670000Y-81925200D01*
X155915000Y-88605400D02*
X154739700Y-88605400D01*
%TO.N,Net-(MSZ1-Pad2)*%
X132573000Y-97089000D02*
X132573000Y-96134000D01*
X133843000Y-107953700D02*
X132573000Y-106683700D01*
X132573000Y-106683700D02*
X132573000Y-97089000D01*
X132573000Y-97089000D02*
X130033000Y-97089000D01*
X133843000Y-109129000D02*
X133843000Y-107953700D01*
%TO.N,pump_ctrl*%
X163425500Y-47929800D02*
X163425500Y-50746100D01*
X163425500Y-50746100D02*
X174258500Y-61579100D01*
X174258500Y-61579100D02*
X174874300Y-61579100D01*
X174874300Y-61579100D02*
X175900500Y-62605300D01*
X175900500Y-62605300D02*
X175900500Y-65814200D01*
X175900500Y-65814200D02*
X178964800Y-68878500D01*
X178964800Y-68878500D02*
X178964800Y-71311900D01*
X178964800Y-71311900D02*
X180524000Y-72871100D01*
X180524000Y-72871100D02*
X180524000Y-111474000D01*
X180524000Y-111474000D02*
X174818000Y-117180000D01*
%TO.N,up_light*%
X172278000Y-117180000D02*
X177933600Y-111524400D01*
X177933600Y-111524400D02*
X177933600Y-100510600D01*
X177933600Y-100510600D02*
X176743000Y-99320000D01*
%TD*%
D28*
G36*
X165134932Y-44902118D02*
G01*
X165135560Y-44902120D01*
X165505720Y-44902120D01*
X166902315Y-46675574D01*
X165879267Y-46658112D01*
X165716285Y-46608672D01*
X165544250Y-46591728D01*
X165056750Y-46591728D01*
X164884715Y-46608672D01*
X164783394Y-46639408D01*
X163892477Y-46624201D01*
X163841285Y-46608672D01*
X163669250Y-46591728D01*
X163181750Y-46591728D01*
X163009715Y-46608672D01*
X163008274Y-46609109D01*
X162110047Y-46593778D01*
X162085233Y-46595796D01*
X162061289Y-46602615D01*
X162039135Y-46613975D01*
X162019623Y-46629438D01*
X162003503Y-46648411D01*
X161991394Y-46670164D01*
X161983761Y-46693861D01*
X161980960Y-46725274D01*
X162113040Y-50438754D01*
X162116360Y-50463428D01*
X162124429Y-50486981D01*
X162136938Y-50508506D01*
X162148569Y-50522425D01*
X172874085Y-61637867D01*
X172903948Y-62540400D01*
X158565300Y-62540400D01*
X157036518Y-61011618D01*
X155406076Y-59073204D01*
X155367572Y-57692352D01*
X155590279Y-57841160D01*
X156024321Y-58020946D01*
X156485098Y-58112600D01*
X156954902Y-58112600D01*
X157415679Y-58020946D01*
X157849721Y-57841160D01*
X158240349Y-57580150D01*
X158572550Y-57247949D01*
X158833560Y-56857321D01*
X159013346Y-56423279D01*
X159105000Y-55962502D01*
X159105000Y-55492698D01*
X159013346Y-55031921D01*
X158833560Y-54597879D01*
X158572550Y-54207251D01*
X158240349Y-53875050D01*
X157849721Y-53614040D01*
X157415679Y-53434254D01*
X156954902Y-53342600D01*
X156485098Y-53342600D01*
X156024321Y-53434254D01*
X155590279Y-53614040D01*
X155260006Y-53834722D01*
X155151686Y-49950075D01*
X155805151Y-49915907D01*
X155829767Y-49912176D01*
X155853181Y-49903715D01*
X155874495Y-49890848D01*
X155892889Y-49874071D01*
X155907657Y-49854027D01*
X155918230Y-49831488D01*
X155924204Y-49807319D01*
X155925502Y-49791247D01*
X156009260Y-44884000D01*
X161469066Y-44884000D01*
X165134932Y-44902118D01*
G37*
X165134932Y-44902118D02*
X165135560Y-44902120D01*
X165505720Y-44902120D01*
X166902315Y-46675574D01*
X165879267Y-46658112D01*
X165716285Y-46608672D01*
X165544250Y-46591728D01*
X165056750Y-46591728D01*
X164884715Y-46608672D01*
X164783394Y-46639408D01*
X163892477Y-46624201D01*
X163841285Y-46608672D01*
X163669250Y-46591728D01*
X163181750Y-46591728D01*
X163009715Y-46608672D01*
X163008274Y-46609109D01*
X162110047Y-46593778D01*
X162085233Y-46595796D01*
X162061289Y-46602615D01*
X162039135Y-46613975D01*
X162019623Y-46629438D01*
X162003503Y-46648411D01*
X161991394Y-46670164D01*
X161983761Y-46693861D01*
X161980960Y-46725274D01*
X162113040Y-50438754D01*
X162116360Y-50463428D01*
X162124429Y-50486981D01*
X162136938Y-50508506D01*
X162148569Y-50522425D01*
X172874085Y-61637867D01*
X172903948Y-62540400D01*
X158565300Y-62540400D01*
X157036518Y-61011618D01*
X155406076Y-59073204D01*
X155367572Y-57692352D01*
X155590279Y-57841160D01*
X156024321Y-58020946D01*
X156485098Y-58112600D01*
X156954902Y-58112600D01*
X157415679Y-58020946D01*
X157849721Y-57841160D01*
X158240349Y-57580150D01*
X158572550Y-57247949D01*
X158833560Y-56857321D01*
X159013346Y-56423279D01*
X159105000Y-55962502D01*
X159105000Y-55492698D01*
X159013346Y-55031921D01*
X158833560Y-54597879D01*
X158572550Y-54207251D01*
X158240349Y-53875050D01*
X157849721Y-53614040D01*
X157415679Y-53434254D01*
X156954902Y-53342600D01*
X156485098Y-53342600D01*
X156024321Y-53434254D01*
X155590279Y-53614040D01*
X155260006Y-53834722D01*
X155151686Y-49950075D01*
X155805151Y-49915907D01*
X155829767Y-49912176D01*
X155853181Y-49903715D01*
X155874495Y-49890848D01*
X155892889Y-49874071D01*
X155907657Y-49854027D01*
X155918230Y-49831488D01*
X155924204Y-49807319D01*
X155925502Y-49791247D01*
X156009260Y-44884000D01*
X161469066Y-44884000D01*
X165134932Y-44902118D01*
D29*
%TO.N,VIN*%
G36*
X151206700Y-95566584D02*
G01*
X151192783Y-95848912D01*
X151234213Y-96128530D01*
X151329397Y-96394692D01*
X151396329Y-96519914D01*
X151640298Y-96591497D01*
X152453395Y-95778400D01*
X152439253Y-95764258D01*
X152618858Y-95584653D01*
X152633000Y-95598795D01*
X152647143Y-95584653D01*
X152826748Y-95764258D01*
X152812605Y-95778400D01*
X152826748Y-95792543D01*
X152647143Y-95972148D01*
X152633000Y-95958005D01*
X151819903Y-96771102D01*
X151891486Y-97015071D01*
X152146996Y-97135971D01*
X152421184Y-97204700D01*
X152703512Y-97218617D01*
X152983130Y-97177187D01*
X153249292Y-97082003D01*
X153374514Y-97015071D01*
X153446097Y-96771104D01*
X153562370Y-96887377D01*
X153637476Y-96812272D01*
X153718241Y-96893037D01*
X153953273Y-97050080D01*
X154214426Y-97158253D01*
X154491665Y-97213400D01*
X154774335Y-97213400D01*
X155051574Y-97158253D01*
X155312727Y-97050080D01*
X155547759Y-96893037D01*
X155747637Y-96693159D01*
X155904680Y-96458127D01*
X156012853Y-96196974D01*
X156068000Y-95919735D01*
X156068000Y-95637065D01*
X156067438Y-95634238D01*
X157155600Y-96722401D01*
X157155601Y-111051410D01*
X157150835Y-111099800D01*
X157169853Y-111292893D01*
X157226176Y-111478566D01*
X157253027Y-111528800D01*
X157317641Y-111649684D01*
X157440731Y-111799670D01*
X157478311Y-111830511D01*
X158053000Y-112405200D01*
X156375711Y-114082489D01*
X156338131Y-114113330D01*
X156215041Y-114263316D01*
X156196292Y-114298393D01*
X156123576Y-114434434D01*
X156067253Y-114620107D01*
X156048235Y-114813200D01*
X156053001Y-114861590D01*
X156053001Y-115288939D01*
X152943000Y-115276683D01*
X152943000Y-114513300D01*
X153682290Y-113774011D01*
X153719870Y-113743170D01*
X153842960Y-113593184D01*
X153934424Y-113422067D01*
X153990747Y-113236394D01*
X153994726Y-113195997D01*
X154009765Y-113043300D01*
X154005000Y-112994920D01*
X154005000Y-112758107D01*
X154173475Y-112589632D01*
X154290000Y-112415240D01*
X154406525Y-112589632D01*
X154613368Y-112796475D01*
X154856589Y-112958990D01*
X155126842Y-113070932D01*
X155413740Y-113128000D01*
X155706260Y-113128000D01*
X155993158Y-113070932D01*
X156263411Y-112958990D01*
X156506632Y-112796475D01*
X156713475Y-112589632D01*
X156875990Y-112346411D01*
X156987932Y-112076158D01*
X157045000Y-111789260D01*
X157045000Y-111496740D01*
X156987932Y-111209842D01*
X156875990Y-110939589D01*
X156713475Y-110696368D01*
X156506632Y-110489525D01*
X156332240Y-110373000D01*
X156506632Y-110256475D01*
X156713475Y-110049632D01*
X156875990Y-109806411D01*
X156987932Y-109536158D01*
X157045000Y-109249260D01*
X157045000Y-108956740D01*
X156987932Y-108669842D01*
X156875990Y-108399589D01*
X156713475Y-108156368D01*
X156506632Y-107949525D01*
X156263411Y-107787010D01*
X155993158Y-107675068D01*
X155706260Y-107618000D01*
X155413740Y-107618000D01*
X155126842Y-107675068D01*
X154856589Y-107787010D01*
X154613368Y-107949525D01*
X154406525Y-108156368D01*
X154290000Y-108330760D01*
X154173475Y-108156368D01*
X153966632Y-107949525D01*
X153780000Y-107824822D01*
X153780000Y-106016523D01*
X153783676Y-105979200D01*
X153780000Y-105941877D01*
X153780000Y-105941867D01*
X153769003Y-105830214D01*
X153725546Y-105686953D01*
X153691902Y-105624010D01*
X153654974Y-105554923D01*
X153583799Y-105468197D01*
X153560001Y-105439199D01*
X153531003Y-105415401D01*
X148106419Y-99990818D01*
X148136000Y-99842103D01*
X148136000Y-99568297D01*
X148082583Y-99299752D01*
X147977802Y-99046788D01*
X147825684Y-98819126D01*
X147632074Y-98625516D01*
X147404412Y-98473398D01*
X147312194Y-98435200D01*
X147404412Y-98397002D01*
X147632074Y-98244884D01*
X147825684Y-98051274D01*
X147977802Y-97823612D01*
X148082583Y-97570648D01*
X148136000Y-97302103D01*
X148136000Y-97028297D01*
X148124444Y-96970200D01*
X148151015Y-96970200D01*
X148184815Y-97011385D01*
X148281506Y-97090737D01*
X148391820Y-97149702D01*
X148511518Y-97186012D01*
X148636000Y-97198272D01*
X149936000Y-97198272D01*
X150060482Y-97186012D01*
X150180180Y-97149702D01*
X150290494Y-97090737D01*
X150387185Y-97011385D01*
X150466537Y-96914694D01*
X150525502Y-96804380D01*
X150561812Y-96684682D01*
X150574072Y-96560200D01*
X150574072Y-95860200D01*
X150561812Y-95735718D01*
X150525502Y-95616020D01*
X150466537Y-95505706D01*
X150387185Y-95409015D01*
X150290494Y-95329663D01*
X150226019Y-95295200D01*
X151274726Y-95295200D01*
X151206700Y-95566584D01*
G37*
X151206700Y-95566584D02*
X151192783Y-95848912D01*
X151234213Y-96128530D01*
X151329397Y-96394692D01*
X151396329Y-96519914D01*
X151640298Y-96591497D01*
X152453395Y-95778400D01*
X152439253Y-95764258D01*
X152618858Y-95584653D01*
X152633000Y-95598795D01*
X152647143Y-95584653D01*
X152826748Y-95764258D01*
X152812605Y-95778400D01*
X152826748Y-95792543D01*
X152647143Y-95972148D01*
X152633000Y-95958005D01*
X151819903Y-96771102D01*
X151891486Y-97015071D01*
X152146996Y-97135971D01*
X152421184Y-97204700D01*
X152703512Y-97218617D01*
X152983130Y-97177187D01*
X153249292Y-97082003D01*
X153374514Y-97015071D01*
X153446097Y-96771104D01*
X153562370Y-96887377D01*
X153637476Y-96812272D01*
X153718241Y-96893037D01*
X153953273Y-97050080D01*
X154214426Y-97158253D01*
X154491665Y-97213400D01*
X154774335Y-97213400D01*
X155051574Y-97158253D01*
X155312727Y-97050080D01*
X155547759Y-96893037D01*
X155747637Y-96693159D01*
X155904680Y-96458127D01*
X156012853Y-96196974D01*
X156068000Y-95919735D01*
X156068000Y-95637065D01*
X156067438Y-95634238D01*
X157155600Y-96722401D01*
X157155601Y-111051410D01*
X157150835Y-111099800D01*
X157169853Y-111292893D01*
X157226176Y-111478566D01*
X157253027Y-111528800D01*
X157317641Y-111649684D01*
X157440731Y-111799670D01*
X157478311Y-111830511D01*
X158053000Y-112405200D01*
X156375711Y-114082489D01*
X156338131Y-114113330D01*
X156215041Y-114263316D01*
X156196292Y-114298393D01*
X156123576Y-114434434D01*
X156067253Y-114620107D01*
X156048235Y-114813200D01*
X156053001Y-114861590D01*
X156053001Y-115288939D01*
X152943000Y-115276683D01*
X152943000Y-114513300D01*
X153682290Y-113774011D01*
X153719870Y-113743170D01*
X153842960Y-113593184D01*
X153934424Y-113422067D01*
X153990747Y-113236394D01*
X153994726Y-113195997D01*
X154009765Y-113043300D01*
X154005000Y-112994920D01*
X154005000Y-112758107D01*
X154173475Y-112589632D01*
X154290000Y-112415240D01*
X154406525Y-112589632D01*
X154613368Y-112796475D01*
X154856589Y-112958990D01*
X155126842Y-113070932D01*
X155413740Y-113128000D01*
X155706260Y-113128000D01*
X155993158Y-113070932D01*
X156263411Y-112958990D01*
X156506632Y-112796475D01*
X156713475Y-112589632D01*
X156875990Y-112346411D01*
X156987932Y-112076158D01*
X157045000Y-111789260D01*
X157045000Y-111496740D01*
X156987932Y-111209842D01*
X156875990Y-110939589D01*
X156713475Y-110696368D01*
X156506632Y-110489525D01*
X156332240Y-110373000D01*
X156506632Y-110256475D01*
X156713475Y-110049632D01*
X156875990Y-109806411D01*
X156987932Y-109536158D01*
X157045000Y-109249260D01*
X157045000Y-108956740D01*
X156987932Y-108669842D01*
X156875990Y-108399589D01*
X156713475Y-108156368D01*
X156506632Y-107949525D01*
X156263411Y-107787010D01*
X155993158Y-107675068D01*
X155706260Y-107618000D01*
X155413740Y-107618000D01*
X155126842Y-107675068D01*
X154856589Y-107787010D01*
X154613368Y-107949525D01*
X154406525Y-108156368D01*
X154290000Y-108330760D01*
X154173475Y-108156368D01*
X153966632Y-107949525D01*
X153780000Y-107824822D01*
X153780000Y-106016523D01*
X153783676Y-105979200D01*
X153780000Y-105941877D01*
X153780000Y-105941867D01*
X153769003Y-105830214D01*
X153725546Y-105686953D01*
X153691902Y-105624010D01*
X153654974Y-105554923D01*
X153583799Y-105468197D01*
X153560001Y-105439199D01*
X153531003Y-105415401D01*
X148106419Y-99990818D01*
X148136000Y-99842103D01*
X148136000Y-99568297D01*
X148082583Y-99299752D01*
X147977802Y-99046788D01*
X147825684Y-98819126D01*
X147632074Y-98625516D01*
X147404412Y-98473398D01*
X147312194Y-98435200D01*
X147404412Y-98397002D01*
X147632074Y-98244884D01*
X147825684Y-98051274D01*
X147977802Y-97823612D01*
X148082583Y-97570648D01*
X148136000Y-97302103D01*
X148136000Y-97028297D01*
X148124444Y-96970200D01*
X148151015Y-96970200D01*
X148184815Y-97011385D01*
X148281506Y-97090737D01*
X148391820Y-97149702D01*
X148511518Y-97186012D01*
X148636000Y-97198272D01*
X149936000Y-97198272D01*
X150060482Y-97186012D01*
X150180180Y-97149702D01*
X150290494Y-97090737D01*
X150387185Y-97011385D01*
X150466537Y-96914694D01*
X150525502Y-96804380D01*
X150561812Y-96684682D01*
X150574072Y-96560200D01*
X150574072Y-95860200D01*
X150561812Y-95735718D01*
X150525502Y-95616020D01*
X150466537Y-95505706D01*
X150387185Y-95409015D01*
X150290494Y-95329663D01*
X150226019Y-95295200D01*
X151274726Y-95295200D01*
X151206700Y-95566584D01*
G36*
X134694429Y-95292396D02*
G01*
X134625700Y-95566584D01*
X134611783Y-95848912D01*
X134653213Y-96128530D01*
X134748397Y-96394692D01*
X134815329Y-96519914D01*
X135059298Y-96591497D01*
X135872395Y-95778400D01*
X135858253Y-95764258D01*
X136037858Y-95584653D01*
X136052000Y-95598795D01*
X136066143Y-95584653D01*
X136245748Y-95764258D01*
X136231605Y-95778400D01*
X136245748Y-95792543D01*
X136066143Y-95972148D01*
X136052000Y-95958005D01*
X135238903Y-96771102D01*
X135310486Y-97015071D01*
X135565996Y-97135971D01*
X135840184Y-97204700D01*
X136122512Y-97218617D01*
X136402130Y-97177187D01*
X136668292Y-97082003D01*
X136793514Y-97015071D01*
X136865097Y-96771104D01*
X136981370Y-96887377D01*
X137056476Y-96812272D01*
X137067000Y-96822796D01*
X137067001Y-100754398D01*
X133333000Y-104488400D01*
X133333000Y-97126332D01*
X133334501Y-97111090D01*
X133347482Y-97109812D01*
X133467180Y-97073502D01*
X133577494Y-97014537D01*
X133674185Y-96935185D01*
X133753537Y-96838494D01*
X133812502Y-96728180D01*
X133848812Y-96608482D01*
X133861072Y-96484000D01*
X133861072Y-95784000D01*
X133848812Y-95659518D01*
X133812502Y-95539820D01*
X133753537Y-95429506D01*
X133674185Y-95332815D01*
X133577494Y-95253463D01*
X133513019Y-95219000D01*
X134729158Y-95219000D01*
X134694429Y-95292396D01*
G37*
X134694429Y-95292396D02*
X134625700Y-95566584D01*
X134611783Y-95848912D01*
X134653213Y-96128530D01*
X134748397Y-96394692D01*
X134815329Y-96519914D01*
X135059298Y-96591497D01*
X135872395Y-95778400D01*
X135858253Y-95764258D01*
X136037858Y-95584653D01*
X136052000Y-95598795D01*
X136066143Y-95584653D01*
X136245748Y-95764258D01*
X136231605Y-95778400D01*
X136245748Y-95792543D01*
X136066143Y-95972148D01*
X136052000Y-95958005D01*
X135238903Y-96771102D01*
X135310486Y-97015071D01*
X135565996Y-97135971D01*
X135840184Y-97204700D01*
X136122512Y-97218617D01*
X136402130Y-97177187D01*
X136668292Y-97082003D01*
X136793514Y-97015071D01*
X136865097Y-96771104D01*
X136981370Y-96887377D01*
X137056476Y-96812272D01*
X137067000Y-96822796D01*
X137067001Y-100754398D01*
X133333000Y-104488400D01*
X133333000Y-97126332D01*
X133334501Y-97111090D01*
X133347482Y-97109812D01*
X133467180Y-97073502D01*
X133577494Y-97014537D01*
X133674185Y-96935185D01*
X133753537Y-96838494D01*
X133812502Y-96728180D01*
X133848812Y-96608482D01*
X133861072Y-96484000D01*
X133861072Y-95784000D01*
X133848812Y-95659518D01*
X133812502Y-95539820D01*
X133753537Y-95429506D01*
X133674185Y-95332815D01*
X133577494Y-95253463D01*
X133513019Y-95219000D01*
X134729158Y-95219000D01*
X134694429Y-95292396D01*
G36*
X142926748Y-94534858D02*
G01*
X142912605Y-94549000D01*
X142926748Y-94563143D01*
X142747143Y-94742748D01*
X142733000Y-94728605D01*
X141952039Y-95509566D01*
X142018171Y-95748943D01*
X142167086Y-95818884D01*
X142074588Y-95857198D01*
X141846926Y-96009316D01*
X141653316Y-96202926D01*
X141501198Y-96430588D01*
X141493000Y-96450380D01*
X141493000Y-95188888D01*
X141533057Y-95263829D01*
X141772434Y-95329961D01*
X142553395Y-94549000D01*
X142539253Y-94534858D01*
X142718858Y-94355253D01*
X142733000Y-94369395D01*
X142747143Y-94355253D01*
X142926748Y-94534858D01*
G37*
X142926748Y-94534858D02*
X142912605Y-94549000D01*
X142926748Y-94563143D01*
X142747143Y-94742748D01*
X142733000Y-94728605D01*
X141952039Y-95509566D01*
X142018171Y-95748943D01*
X142167086Y-95818884D01*
X142074588Y-95857198D01*
X141846926Y-96009316D01*
X141653316Y-96202926D01*
X141501198Y-96430588D01*
X141493000Y-96450380D01*
X141493000Y-95188888D01*
X141533057Y-95263829D01*
X141772434Y-95329961D01*
X142553395Y-94549000D01*
X142539253Y-94534858D01*
X142718858Y-94355253D01*
X142733000Y-94369395D01*
X142747143Y-94355253D01*
X142926748Y-94534858D01*
G36*
X131392463Y-94938494D02*
G01*
X131471815Y-95035185D01*
X131568506Y-95114537D01*
X131678820Y-95173502D01*
X131713427Y-95184000D01*
X131678820Y-95194498D01*
X131568506Y-95253463D01*
X131471815Y-95332815D01*
X131392463Y-95429506D01*
X131333498Y-95539820D01*
X131297188Y-95659518D01*
X131284928Y-95784000D01*
X131284928Y-96329000D01*
X131196923Y-96329000D01*
X131112684Y-96202926D01*
X130919074Y-96009316D01*
X130691412Y-95857198D01*
X130599194Y-95819000D01*
X130691412Y-95780802D01*
X130919074Y-95628684D01*
X131112684Y-95435074D01*
X131264802Y-95207412D01*
X131369583Y-94954448D01*
X131378101Y-94911625D01*
X131392463Y-94938494D01*
G37*
X131392463Y-94938494D02*
X131471815Y-95035185D01*
X131568506Y-95114537D01*
X131678820Y-95173502D01*
X131713427Y-95184000D01*
X131678820Y-95194498D01*
X131568506Y-95253463D01*
X131471815Y-95332815D01*
X131392463Y-95429506D01*
X131333498Y-95539820D01*
X131297188Y-95659518D01*
X131284928Y-95784000D01*
X131284928Y-96329000D01*
X131196923Y-96329000D01*
X131112684Y-96202926D01*
X130919074Y-96009316D01*
X130691412Y-95857198D01*
X130599194Y-95819000D01*
X130691412Y-95780802D01*
X130919074Y-95628684D01*
X131112684Y-95435074D01*
X131264802Y-95207412D01*
X131369583Y-94954448D01*
X131378101Y-94911625D01*
X131392463Y-94938494D01*
G36*
X148105463Y-95014694D02*
G01*
X148184815Y-95111385D01*
X148281506Y-95190737D01*
X148391820Y-95249702D01*
X148426427Y-95260200D01*
X148391820Y-95270698D01*
X148281506Y-95329663D01*
X148184815Y-95409015D01*
X148151015Y-95450200D01*
X147866492Y-95450200D01*
X147977802Y-95283612D01*
X148082583Y-95030648D01*
X148091101Y-94987825D01*
X148105463Y-95014694D01*
G37*
X148105463Y-95014694D02*
X148184815Y-95111385D01*
X148281506Y-95190737D01*
X148391820Y-95249702D01*
X148426427Y-95260200D01*
X148391820Y-95270698D01*
X148281506Y-95329663D01*
X148184815Y-95409015D01*
X148151015Y-95450200D01*
X147866492Y-95450200D01*
X147977802Y-95283612D01*
X148082583Y-95030648D01*
X148091101Y-94987825D01*
X148105463Y-95014694D01*
G36*
X159639748Y-94611058D02*
G01*
X159625605Y-94625200D01*
X159639748Y-94639343D01*
X159460143Y-94818948D01*
X159446000Y-94804805D01*
X159431858Y-94818948D01*
X159252253Y-94639343D01*
X159266395Y-94625200D01*
X159252253Y-94611058D01*
X159431858Y-94431453D01*
X159446000Y-94445595D01*
X159460143Y-94431453D01*
X159639748Y-94611058D01*
G37*
X159639748Y-94611058D02*
X159625605Y-94625200D01*
X159639748Y-94639343D01*
X159460143Y-94818948D01*
X159446000Y-94804805D01*
X159431858Y-94818948D01*
X159252253Y-94639343D01*
X159266395Y-94625200D01*
X159252253Y-94611058D01*
X159431858Y-94431453D01*
X159446000Y-94445595D01*
X159460143Y-94431453D01*
X159639748Y-94611058D01*
G36*
X156727801Y-73251973D02*
G01*
X156715414Y-73270511D01*
X156644932Y-73440671D01*
X156609000Y-73621311D01*
X156609000Y-73805489D01*
X156644932Y-73986129D01*
X156715414Y-74156289D01*
X156817738Y-74309428D01*
X156947972Y-74439662D01*
X157101111Y-74541986D01*
X157271271Y-74612468D01*
X157451911Y-74648400D01*
X157636089Y-74648400D01*
X157816729Y-74612468D01*
X157986889Y-74541986D01*
X157998797Y-74534029D01*
X158016052Y-74648227D01*
X158108989Y-74905779D01*
X158170057Y-75020029D01*
X158409432Y-75086160D01*
X158292996Y-75202596D01*
X158305899Y-75215499D01*
X155916003Y-77605396D01*
X155886999Y-77629199D01*
X155860413Y-77661595D01*
X155792026Y-77744924D01*
X155737719Y-77846525D01*
X155721454Y-77876954D01*
X155677997Y-78020215D01*
X155674879Y-78051873D01*
X155598414Y-78166311D01*
X155527932Y-78336471D01*
X155492000Y-78517111D01*
X155492000Y-78701289D01*
X155527932Y-78881929D01*
X155544896Y-78922884D01*
X155395329Y-78860932D01*
X155214689Y-78825000D01*
X155030511Y-78825000D01*
X154849871Y-78860932D01*
X154679711Y-78931414D01*
X154526572Y-79033738D01*
X154396338Y-79163972D01*
X154294014Y-79317111D01*
X154223532Y-79487271D01*
X154187600Y-79667911D01*
X154187600Y-79852089D01*
X154223532Y-80032729D01*
X154294014Y-80202889D01*
X154396338Y-80356028D01*
X154526572Y-80486262D01*
X154679711Y-80588586D01*
X154713677Y-80602655D01*
X155305270Y-81194249D01*
X155332983Y-81228017D01*
X155366751Y-81255730D01*
X155366753Y-81255732D01*
X155380225Y-81266788D01*
X155467741Y-81338611D01*
X155621487Y-81420789D01*
X155788310Y-81471395D01*
X155918323Y-81484200D01*
X155918333Y-81484200D01*
X155961799Y-81488481D01*
X156005266Y-81484200D01*
X158048143Y-81484200D01*
X158033417Y-81519752D01*
X157980000Y-81788297D01*
X157980000Y-82062103D01*
X158033417Y-82330648D01*
X158138198Y-82583612D01*
X158290316Y-82811274D01*
X158483926Y-83004884D01*
X158711588Y-83157002D01*
X158803806Y-83195200D01*
X158711588Y-83233398D01*
X158483926Y-83385516D01*
X158290316Y-83579126D01*
X158138198Y-83806788D01*
X158033417Y-84059752D01*
X157980000Y-84328297D01*
X157980000Y-84602103D01*
X158033417Y-84870648D01*
X158138198Y-85123612D01*
X158290316Y-85351274D01*
X158483926Y-85544884D01*
X158711588Y-85697002D01*
X158803806Y-85735200D01*
X158711588Y-85773398D01*
X158483926Y-85925516D01*
X158290316Y-86119126D01*
X158138198Y-86346788D01*
X158033417Y-86599752D01*
X157980000Y-86868297D01*
X157980000Y-87142103D01*
X158033417Y-87410648D01*
X158138198Y-87663612D01*
X158290316Y-87891274D01*
X158483926Y-88084884D01*
X158711588Y-88237002D01*
X158803806Y-88275200D01*
X158711588Y-88313398D01*
X158483926Y-88465516D01*
X158290316Y-88659126D01*
X158138198Y-88886788D01*
X158033417Y-89139752D01*
X157980000Y-89408297D01*
X157980000Y-89682103D01*
X158033417Y-89950648D01*
X158138198Y-90203612D01*
X158290316Y-90431274D01*
X158483926Y-90624884D01*
X158711588Y-90777002D01*
X158803806Y-90815200D01*
X158711588Y-90853398D01*
X158483926Y-91005516D01*
X158290316Y-91199126D01*
X158138198Y-91426788D01*
X158033417Y-91679752D01*
X157980000Y-91948297D01*
X157980000Y-92082200D01*
X156613737Y-93448463D01*
X156515167Y-93395776D01*
X156329494Y-93339453D01*
X156184780Y-93325200D01*
X156136400Y-93320435D01*
X156088020Y-93325200D01*
X149967192Y-93325200D01*
X149936000Y-93322128D01*
X148636000Y-93322128D01*
X148511518Y-93334388D01*
X148391820Y-93370698D01*
X148281506Y-93429663D01*
X148184815Y-93509015D01*
X148105463Y-93605706D01*
X148046498Y-93716020D01*
X148010188Y-93835718D01*
X147997928Y-93960200D01*
X147997928Y-94015377D01*
X147977802Y-93966788D01*
X147825684Y-93739126D01*
X147632074Y-93545516D01*
X147404412Y-93393398D01*
X147274194Y-93339460D01*
X147328412Y-93317002D01*
X147556074Y-93164884D01*
X147749684Y-92971274D01*
X147901802Y-92743612D01*
X148006583Y-92490648D01*
X148060000Y-92222103D01*
X148060000Y-91948297D01*
X148006583Y-91679752D01*
X147901802Y-91426788D01*
X147749684Y-91199126D01*
X147556074Y-91005516D01*
X147328412Y-90853398D01*
X147236194Y-90815200D01*
X147328412Y-90777002D01*
X147556074Y-90624884D01*
X147749684Y-90431274D01*
X147901802Y-90203612D01*
X148006583Y-89950648D01*
X148060000Y-89682103D01*
X148060000Y-89408297D01*
X148006583Y-89139752D01*
X147901802Y-88886788D01*
X147749684Y-88659126D01*
X147556074Y-88465516D01*
X147328412Y-88313398D01*
X147236194Y-88275200D01*
X147328412Y-88237002D01*
X147556074Y-88084884D01*
X147749684Y-87891274D01*
X147901802Y-87663612D01*
X148006583Y-87410648D01*
X148060000Y-87142103D01*
X148060000Y-86868297D01*
X148006583Y-86599752D01*
X147901802Y-86346788D01*
X147749684Y-86119126D01*
X147556074Y-85925516D01*
X147430000Y-85841277D01*
X147430000Y-85629123D01*
X147556074Y-85544884D01*
X147749684Y-85351274D01*
X147871204Y-85169405D01*
X150047437Y-87345639D01*
X149888368Y-87451925D01*
X149681525Y-87658768D01*
X149519010Y-87901989D01*
X149407068Y-88172242D01*
X149350000Y-88459140D01*
X149350000Y-88751660D01*
X149407068Y-89038558D01*
X149519010Y-89308811D01*
X149681525Y-89552032D01*
X149813380Y-89683887D01*
X149740820Y-89705898D01*
X149630506Y-89764863D01*
X149533815Y-89844215D01*
X149454463Y-89940906D01*
X149395498Y-90051220D01*
X149359188Y-90170918D01*
X149346928Y-90295400D01*
X149346928Y-91995400D01*
X149359188Y-92119882D01*
X149395498Y-92239580D01*
X149454463Y-92349894D01*
X149533815Y-92446585D01*
X149630506Y-92525937D01*
X149740820Y-92584902D01*
X149860518Y-92621212D01*
X149985000Y-92633472D01*
X151685000Y-92633472D01*
X151809482Y-92621212D01*
X151929180Y-92584902D01*
X152039494Y-92525937D01*
X152136185Y-92446585D01*
X152215537Y-92349894D01*
X152274502Y-92239580D01*
X152296513Y-92167020D01*
X152428368Y-92298875D01*
X152671589Y-92461390D01*
X152941842Y-92573332D01*
X153228740Y-92630400D01*
X153521260Y-92630400D01*
X153808158Y-92573332D01*
X154078411Y-92461390D01*
X154321632Y-92298875D01*
X154528475Y-92092032D01*
X154645000Y-91917640D01*
X154761525Y-92092032D01*
X154968368Y-92298875D01*
X155211589Y-92461390D01*
X155481842Y-92573332D01*
X155768740Y-92630400D01*
X156061260Y-92630400D01*
X156348158Y-92573332D01*
X156618411Y-92461390D01*
X156861632Y-92298875D01*
X157068475Y-92092032D01*
X157230990Y-91848811D01*
X157342932Y-91578558D01*
X157400000Y-91291660D01*
X157400000Y-90999140D01*
X157342932Y-90712242D01*
X157230990Y-90441989D01*
X157068475Y-90198768D01*
X156861632Y-89991925D01*
X156687240Y-89875400D01*
X156861632Y-89758875D01*
X157068475Y-89552032D01*
X157230990Y-89308811D01*
X157342932Y-89038558D01*
X157400000Y-88751660D01*
X157400000Y-88459140D01*
X157342932Y-88172242D01*
X157230990Y-87901989D01*
X157068475Y-87658768D01*
X156861632Y-87451925D01*
X156618411Y-87289410D01*
X156348158Y-87177468D01*
X156061260Y-87120400D01*
X155768740Y-87120400D01*
X155481842Y-87177468D01*
X155211589Y-87289410D01*
X154968368Y-87451925D01*
X154761525Y-87658768D01*
X154645000Y-87833160D01*
X154528475Y-87658768D01*
X154321632Y-87451925D01*
X154135000Y-87327222D01*
X154135000Y-86127523D01*
X154138676Y-86090200D01*
X154135000Y-86052877D01*
X154135000Y-86052867D01*
X154124003Y-85941214D01*
X154080546Y-85797953D01*
X154013953Y-85673368D01*
X154009974Y-85665923D01*
X153938799Y-85579197D01*
X153915001Y-85550199D01*
X153886003Y-85526401D01*
X148030419Y-79670818D01*
X148060000Y-79522103D01*
X148060000Y-79248297D01*
X148006583Y-78979752D01*
X147901802Y-78726788D01*
X147749684Y-78499126D01*
X147556074Y-78305516D01*
X147328412Y-78153398D01*
X147236194Y-78115200D01*
X147328412Y-78077002D01*
X147556074Y-77924884D01*
X147749684Y-77731274D01*
X147901802Y-77503612D01*
X148006583Y-77250648D01*
X148060000Y-76982103D01*
X148060000Y-76708297D01*
X148048444Y-76650200D01*
X148075015Y-76650200D01*
X148108815Y-76691385D01*
X148205506Y-76770737D01*
X148315820Y-76829702D01*
X148435518Y-76866012D01*
X148560000Y-76878272D01*
X149860000Y-76878272D01*
X149984482Y-76866012D01*
X150104180Y-76829702D01*
X150214494Y-76770737D01*
X150311185Y-76691385D01*
X150390537Y-76594694D01*
X150449502Y-76484380D01*
X150485812Y-76364682D01*
X150498072Y-76240200D01*
X150498072Y-75869553D01*
X150535076Y-75849774D01*
X150650801Y-75754801D01*
X150674604Y-75725797D01*
X151701947Y-74698455D01*
X151752329Y-74792714D01*
X151996298Y-74864297D01*
X152809395Y-74051200D01*
X152795253Y-74037058D01*
X152974858Y-73857453D01*
X152989000Y-73871595D01*
X153003143Y-73857453D01*
X153182748Y-74037058D01*
X153168605Y-74051200D01*
X153182748Y-74065343D01*
X153003143Y-74244948D01*
X152989000Y-74230805D01*
X152175903Y-75043902D01*
X152247486Y-75287871D01*
X152502996Y-75408771D01*
X152777184Y-75477500D01*
X153059512Y-75491417D01*
X153339130Y-75449987D01*
X153605292Y-75354803D01*
X153730514Y-75287871D01*
X153802097Y-75043904D01*
X153918370Y-75160177D01*
X153993476Y-75085072D01*
X154074241Y-75165837D01*
X154309273Y-75322880D01*
X154570426Y-75431053D01*
X154847665Y-75486200D01*
X155130335Y-75486200D01*
X155407574Y-75431053D01*
X155668727Y-75322880D01*
X155903759Y-75165837D01*
X156103637Y-74965959D01*
X156260680Y-74730927D01*
X156368853Y-74469774D01*
X156424000Y-74192535D01*
X156424000Y-73909865D01*
X156368853Y-73632626D01*
X156260680Y-73371473D01*
X156103637Y-73136441D01*
X155903759Y-72936563D01*
X155668727Y-72779520D01*
X155407574Y-72671347D01*
X155130335Y-72616200D01*
X154847665Y-72616200D01*
X154570426Y-72671347D01*
X154467707Y-72713895D01*
X156727800Y-70453802D01*
X156727801Y-73251973D01*
G37*
X156727801Y-73251973D02*
X156715414Y-73270511D01*
X156644932Y-73440671D01*
X156609000Y-73621311D01*
X156609000Y-73805489D01*
X156644932Y-73986129D01*
X156715414Y-74156289D01*
X156817738Y-74309428D01*
X156947972Y-74439662D01*
X157101111Y-74541986D01*
X157271271Y-74612468D01*
X157451911Y-74648400D01*
X157636089Y-74648400D01*
X157816729Y-74612468D01*
X157986889Y-74541986D01*
X157998797Y-74534029D01*
X158016052Y-74648227D01*
X158108989Y-74905779D01*
X158170057Y-75020029D01*
X158409432Y-75086160D01*
X158292996Y-75202596D01*
X158305899Y-75215499D01*
X155916003Y-77605396D01*
X155886999Y-77629199D01*
X155860413Y-77661595D01*
X155792026Y-77744924D01*
X155737719Y-77846525D01*
X155721454Y-77876954D01*
X155677997Y-78020215D01*
X155674879Y-78051873D01*
X155598414Y-78166311D01*
X155527932Y-78336471D01*
X155492000Y-78517111D01*
X155492000Y-78701289D01*
X155527932Y-78881929D01*
X155544896Y-78922884D01*
X155395329Y-78860932D01*
X155214689Y-78825000D01*
X155030511Y-78825000D01*
X154849871Y-78860932D01*
X154679711Y-78931414D01*
X154526572Y-79033738D01*
X154396338Y-79163972D01*
X154294014Y-79317111D01*
X154223532Y-79487271D01*
X154187600Y-79667911D01*
X154187600Y-79852089D01*
X154223532Y-80032729D01*
X154294014Y-80202889D01*
X154396338Y-80356028D01*
X154526572Y-80486262D01*
X154679711Y-80588586D01*
X154713677Y-80602655D01*
X155305270Y-81194249D01*
X155332983Y-81228017D01*
X155366751Y-81255730D01*
X155366753Y-81255732D01*
X155380225Y-81266788D01*
X155467741Y-81338611D01*
X155621487Y-81420789D01*
X155788310Y-81471395D01*
X155918323Y-81484200D01*
X155918333Y-81484200D01*
X155961799Y-81488481D01*
X156005266Y-81484200D01*
X158048143Y-81484200D01*
X158033417Y-81519752D01*
X157980000Y-81788297D01*
X157980000Y-82062103D01*
X158033417Y-82330648D01*
X158138198Y-82583612D01*
X158290316Y-82811274D01*
X158483926Y-83004884D01*
X158711588Y-83157002D01*
X158803806Y-83195200D01*
X158711588Y-83233398D01*
X158483926Y-83385516D01*
X158290316Y-83579126D01*
X158138198Y-83806788D01*
X158033417Y-84059752D01*
X157980000Y-84328297D01*
X157980000Y-84602103D01*
X158033417Y-84870648D01*
X158138198Y-85123612D01*
X158290316Y-85351274D01*
X158483926Y-85544884D01*
X158711588Y-85697002D01*
X158803806Y-85735200D01*
X158711588Y-85773398D01*
X158483926Y-85925516D01*
X158290316Y-86119126D01*
X158138198Y-86346788D01*
X158033417Y-86599752D01*
X157980000Y-86868297D01*
X157980000Y-87142103D01*
X158033417Y-87410648D01*
X158138198Y-87663612D01*
X158290316Y-87891274D01*
X158483926Y-88084884D01*
X158711588Y-88237002D01*
X158803806Y-88275200D01*
X158711588Y-88313398D01*
X158483926Y-88465516D01*
X158290316Y-88659126D01*
X158138198Y-88886788D01*
X158033417Y-89139752D01*
X157980000Y-89408297D01*
X157980000Y-89682103D01*
X158033417Y-89950648D01*
X158138198Y-90203612D01*
X158290316Y-90431274D01*
X158483926Y-90624884D01*
X158711588Y-90777002D01*
X158803806Y-90815200D01*
X158711588Y-90853398D01*
X158483926Y-91005516D01*
X158290316Y-91199126D01*
X158138198Y-91426788D01*
X158033417Y-91679752D01*
X157980000Y-91948297D01*
X157980000Y-92082200D01*
X156613737Y-93448463D01*
X156515167Y-93395776D01*
X156329494Y-93339453D01*
X156184780Y-93325200D01*
X156136400Y-93320435D01*
X156088020Y-93325200D01*
X149967192Y-93325200D01*
X149936000Y-93322128D01*
X148636000Y-93322128D01*
X148511518Y-93334388D01*
X148391820Y-93370698D01*
X148281506Y-93429663D01*
X148184815Y-93509015D01*
X148105463Y-93605706D01*
X148046498Y-93716020D01*
X148010188Y-93835718D01*
X147997928Y-93960200D01*
X147997928Y-94015377D01*
X147977802Y-93966788D01*
X147825684Y-93739126D01*
X147632074Y-93545516D01*
X147404412Y-93393398D01*
X147274194Y-93339460D01*
X147328412Y-93317002D01*
X147556074Y-93164884D01*
X147749684Y-92971274D01*
X147901802Y-92743612D01*
X148006583Y-92490648D01*
X148060000Y-92222103D01*
X148060000Y-91948297D01*
X148006583Y-91679752D01*
X147901802Y-91426788D01*
X147749684Y-91199126D01*
X147556074Y-91005516D01*
X147328412Y-90853398D01*
X147236194Y-90815200D01*
X147328412Y-90777002D01*
X147556074Y-90624884D01*
X147749684Y-90431274D01*
X147901802Y-90203612D01*
X148006583Y-89950648D01*
X148060000Y-89682103D01*
X148060000Y-89408297D01*
X148006583Y-89139752D01*
X147901802Y-88886788D01*
X147749684Y-88659126D01*
X147556074Y-88465516D01*
X147328412Y-88313398D01*
X147236194Y-88275200D01*
X147328412Y-88237002D01*
X147556074Y-88084884D01*
X147749684Y-87891274D01*
X147901802Y-87663612D01*
X148006583Y-87410648D01*
X148060000Y-87142103D01*
X148060000Y-86868297D01*
X148006583Y-86599752D01*
X147901802Y-86346788D01*
X147749684Y-86119126D01*
X147556074Y-85925516D01*
X147430000Y-85841277D01*
X147430000Y-85629123D01*
X147556074Y-85544884D01*
X147749684Y-85351274D01*
X147871204Y-85169405D01*
X150047437Y-87345639D01*
X149888368Y-87451925D01*
X149681525Y-87658768D01*
X149519010Y-87901989D01*
X149407068Y-88172242D01*
X149350000Y-88459140D01*
X149350000Y-88751660D01*
X149407068Y-89038558D01*
X149519010Y-89308811D01*
X149681525Y-89552032D01*
X149813380Y-89683887D01*
X149740820Y-89705898D01*
X149630506Y-89764863D01*
X149533815Y-89844215D01*
X149454463Y-89940906D01*
X149395498Y-90051220D01*
X149359188Y-90170918D01*
X149346928Y-90295400D01*
X149346928Y-91995400D01*
X149359188Y-92119882D01*
X149395498Y-92239580D01*
X149454463Y-92349894D01*
X149533815Y-92446585D01*
X149630506Y-92525937D01*
X149740820Y-92584902D01*
X149860518Y-92621212D01*
X149985000Y-92633472D01*
X151685000Y-92633472D01*
X151809482Y-92621212D01*
X151929180Y-92584902D01*
X152039494Y-92525937D01*
X152136185Y-92446585D01*
X152215537Y-92349894D01*
X152274502Y-92239580D01*
X152296513Y-92167020D01*
X152428368Y-92298875D01*
X152671589Y-92461390D01*
X152941842Y-92573332D01*
X153228740Y-92630400D01*
X153521260Y-92630400D01*
X153808158Y-92573332D01*
X154078411Y-92461390D01*
X154321632Y-92298875D01*
X154528475Y-92092032D01*
X154645000Y-91917640D01*
X154761525Y-92092032D01*
X154968368Y-92298875D01*
X155211589Y-92461390D01*
X155481842Y-92573332D01*
X155768740Y-92630400D01*
X156061260Y-92630400D01*
X156348158Y-92573332D01*
X156618411Y-92461390D01*
X156861632Y-92298875D01*
X157068475Y-92092032D01*
X157230990Y-91848811D01*
X157342932Y-91578558D01*
X157400000Y-91291660D01*
X157400000Y-90999140D01*
X157342932Y-90712242D01*
X157230990Y-90441989D01*
X157068475Y-90198768D01*
X156861632Y-89991925D01*
X156687240Y-89875400D01*
X156861632Y-89758875D01*
X157068475Y-89552032D01*
X157230990Y-89308811D01*
X157342932Y-89038558D01*
X157400000Y-88751660D01*
X157400000Y-88459140D01*
X157342932Y-88172242D01*
X157230990Y-87901989D01*
X157068475Y-87658768D01*
X156861632Y-87451925D01*
X156618411Y-87289410D01*
X156348158Y-87177468D01*
X156061260Y-87120400D01*
X155768740Y-87120400D01*
X155481842Y-87177468D01*
X155211589Y-87289410D01*
X154968368Y-87451925D01*
X154761525Y-87658768D01*
X154645000Y-87833160D01*
X154528475Y-87658768D01*
X154321632Y-87451925D01*
X154135000Y-87327222D01*
X154135000Y-86127523D01*
X154138676Y-86090200D01*
X154135000Y-86052877D01*
X154135000Y-86052867D01*
X154124003Y-85941214D01*
X154080546Y-85797953D01*
X154013953Y-85673368D01*
X154009974Y-85665923D01*
X153938799Y-85579197D01*
X153915001Y-85550199D01*
X153886003Y-85526401D01*
X148030419Y-79670818D01*
X148060000Y-79522103D01*
X148060000Y-79248297D01*
X148006583Y-78979752D01*
X147901802Y-78726788D01*
X147749684Y-78499126D01*
X147556074Y-78305516D01*
X147328412Y-78153398D01*
X147236194Y-78115200D01*
X147328412Y-78077002D01*
X147556074Y-77924884D01*
X147749684Y-77731274D01*
X147901802Y-77503612D01*
X148006583Y-77250648D01*
X148060000Y-76982103D01*
X148060000Y-76708297D01*
X148048444Y-76650200D01*
X148075015Y-76650200D01*
X148108815Y-76691385D01*
X148205506Y-76770737D01*
X148315820Y-76829702D01*
X148435518Y-76866012D01*
X148560000Y-76878272D01*
X149860000Y-76878272D01*
X149984482Y-76866012D01*
X150104180Y-76829702D01*
X150214494Y-76770737D01*
X150311185Y-76691385D01*
X150390537Y-76594694D01*
X150449502Y-76484380D01*
X150485812Y-76364682D01*
X150498072Y-76240200D01*
X150498072Y-75869553D01*
X150535076Y-75849774D01*
X150650801Y-75754801D01*
X150674604Y-75725797D01*
X151701947Y-74698455D01*
X151752329Y-74792714D01*
X151996298Y-74864297D01*
X152809395Y-74051200D01*
X152795253Y-74037058D01*
X152974858Y-73857453D01*
X152989000Y-73871595D01*
X153003143Y-73857453D01*
X153182748Y-74037058D01*
X153168605Y-74051200D01*
X153182748Y-74065343D01*
X153003143Y-74244948D01*
X152989000Y-74230805D01*
X152175903Y-75043902D01*
X152247486Y-75287871D01*
X152502996Y-75408771D01*
X152777184Y-75477500D01*
X153059512Y-75491417D01*
X153339130Y-75449987D01*
X153605292Y-75354803D01*
X153730514Y-75287871D01*
X153802097Y-75043904D01*
X153918370Y-75160177D01*
X153993476Y-75085072D01*
X154074241Y-75165837D01*
X154309273Y-75322880D01*
X154570426Y-75431053D01*
X154847665Y-75486200D01*
X155130335Y-75486200D01*
X155407574Y-75431053D01*
X155668727Y-75322880D01*
X155903759Y-75165837D01*
X156103637Y-74965959D01*
X156260680Y-74730927D01*
X156368853Y-74469774D01*
X156424000Y-74192535D01*
X156424000Y-73909865D01*
X156368853Y-73632626D01*
X156260680Y-73371473D01*
X156103637Y-73136441D01*
X155903759Y-72936563D01*
X155668727Y-72779520D01*
X155407574Y-72671347D01*
X155130335Y-72616200D01*
X154847665Y-72616200D01*
X154570426Y-72671347D01*
X154467707Y-72713895D01*
X156727800Y-70453802D01*
X156727801Y-73251973D01*
G36*
X133185001Y-84547803D02*
G01*
X133185000Y-87327221D01*
X132998368Y-87451925D01*
X132791525Y-87658768D01*
X132629010Y-87901989D01*
X132517068Y-88172242D01*
X132460000Y-88459140D01*
X132460000Y-88751660D01*
X132517068Y-89038558D01*
X132629010Y-89308811D01*
X132791525Y-89552032D01*
X132923380Y-89683887D01*
X132850820Y-89705898D01*
X132740506Y-89764863D01*
X132643815Y-89844215D01*
X132564463Y-89940906D01*
X132505498Y-90051220D01*
X132469188Y-90170918D01*
X132456928Y-90295400D01*
X132456928Y-91995400D01*
X132469188Y-92119882D01*
X132505498Y-92239580D01*
X132564463Y-92349894D01*
X132643815Y-92446585D01*
X132740506Y-92525937D01*
X132850820Y-92584902D01*
X132970518Y-92621212D01*
X133095000Y-92633472D01*
X134795000Y-92633472D01*
X134919482Y-92621212D01*
X135039180Y-92584902D01*
X135149494Y-92525937D01*
X135246185Y-92446585D01*
X135325537Y-92349894D01*
X135384502Y-92239580D01*
X135406513Y-92167020D01*
X135538368Y-92298875D01*
X135781589Y-92461390D01*
X136051842Y-92573332D01*
X136338740Y-92630400D01*
X136631260Y-92630400D01*
X136918158Y-92573332D01*
X137188411Y-92461390D01*
X137431632Y-92298875D01*
X137638475Y-92092032D01*
X137755000Y-91917640D01*
X137871525Y-92092032D01*
X138078368Y-92298875D01*
X138321589Y-92461390D01*
X138591842Y-92573332D01*
X138878740Y-92630400D01*
X139171260Y-92630400D01*
X139458158Y-92573332D01*
X139728411Y-92461390D01*
X139971632Y-92298875D01*
X140178475Y-92092032D01*
X140340990Y-91848811D01*
X140452932Y-91578558D01*
X140510000Y-91291660D01*
X140510000Y-91071666D01*
X140513276Y-91082466D01*
X140604740Y-91253584D01*
X140727830Y-91403570D01*
X140765415Y-91434415D01*
X141340000Y-92009000D01*
X140100000Y-93249000D01*
X133254192Y-93249000D01*
X133223000Y-93245928D01*
X131923000Y-93245928D01*
X131798518Y-93258188D01*
X131678820Y-93294498D01*
X131568506Y-93353463D01*
X131471815Y-93432815D01*
X131392463Y-93529506D01*
X131333498Y-93639820D01*
X131297188Y-93759518D01*
X131284928Y-93884000D01*
X131284928Y-93939177D01*
X131264802Y-93890588D01*
X131112684Y-93662926D01*
X130919074Y-93469316D01*
X130691412Y-93317198D01*
X130599194Y-93279000D01*
X130691412Y-93240802D01*
X130919074Y-93088684D01*
X131112684Y-92895074D01*
X131264802Y-92667412D01*
X131369583Y-92414448D01*
X131423000Y-92145903D01*
X131423000Y-91872097D01*
X131369583Y-91603552D01*
X131264802Y-91350588D01*
X131112684Y-91122926D01*
X130919074Y-90929316D01*
X130691412Y-90777198D01*
X130599194Y-90739000D01*
X130691412Y-90700802D01*
X130919074Y-90548684D01*
X131112684Y-90355074D01*
X131264802Y-90127412D01*
X131369583Y-89874448D01*
X131423000Y-89605903D01*
X131423000Y-89332097D01*
X131369583Y-89063552D01*
X131264802Y-88810588D01*
X131112684Y-88582926D01*
X130919074Y-88389316D01*
X130691412Y-88237198D01*
X130599194Y-88199000D01*
X130691412Y-88160802D01*
X130919074Y-88008684D01*
X131112684Y-87815074D01*
X131264802Y-87587412D01*
X131369583Y-87334448D01*
X131423000Y-87065903D01*
X131423000Y-86792097D01*
X131369583Y-86523552D01*
X131264802Y-86270588D01*
X131112684Y-86042926D01*
X130919074Y-85849316D01*
X130793000Y-85765077D01*
X130793000Y-85552923D01*
X130919074Y-85468684D01*
X131112684Y-85275074D01*
X131264802Y-85047412D01*
X131369583Y-84794448D01*
X131423000Y-84525903D01*
X131423000Y-84252097D01*
X131369583Y-83983552D01*
X131264802Y-83730588D01*
X131112684Y-83502926D01*
X130919074Y-83309316D01*
X130691412Y-83157198D01*
X130599194Y-83119000D01*
X130691412Y-83080802D01*
X130919074Y-82928684D01*
X131112684Y-82735074D01*
X131216660Y-82579462D01*
X133185001Y-84547803D01*
G37*
X133185001Y-84547803D02*
X133185000Y-87327221D01*
X132998368Y-87451925D01*
X132791525Y-87658768D01*
X132629010Y-87901989D01*
X132517068Y-88172242D01*
X132460000Y-88459140D01*
X132460000Y-88751660D01*
X132517068Y-89038558D01*
X132629010Y-89308811D01*
X132791525Y-89552032D01*
X132923380Y-89683887D01*
X132850820Y-89705898D01*
X132740506Y-89764863D01*
X132643815Y-89844215D01*
X132564463Y-89940906D01*
X132505498Y-90051220D01*
X132469188Y-90170918D01*
X132456928Y-90295400D01*
X132456928Y-91995400D01*
X132469188Y-92119882D01*
X132505498Y-92239580D01*
X132564463Y-92349894D01*
X132643815Y-92446585D01*
X132740506Y-92525937D01*
X132850820Y-92584902D01*
X132970518Y-92621212D01*
X133095000Y-92633472D01*
X134795000Y-92633472D01*
X134919482Y-92621212D01*
X135039180Y-92584902D01*
X135149494Y-92525937D01*
X135246185Y-92446585D01*
X135325537Y-92349894D01*
X135384502Y-92239580D01*
X135406513Y-92167020D01*
X135538368Y-92298875D01*
X135781589Y-92461390D01*
X136051842Y-92573332D01*
X136338740Y-92630400D01*
X136631260Y-92630400D01*
X136918158Y-92573332D01*
X137188411Y-92461390D01*
X137431632Y-92298875D01*
X137638475Y-92092032D01*
X137755000Y-91917640D01*
X137871525Y-92092032D01*
X138078368Y-92298875D01*
X138321589Y-92461390D01*
X138591842Y-92573332D01*
X138878740Y-92630400D01*
X139171260Y-92630400D01*
X139458158Y-92573332D01*
X139728411Y-92461390D01*
X139971632Y-92298875D01*
X140178475Y-92092032D01*
X140340990Y-91848811D01*
X140452932Y-91578558D01*
X140510000Y-91291660D01*
X140510000Y-91071666D01*
X140513276Y-91082466D01*
X140604740Y-91253584D01*
X140727830Y-91403570D01*
X140765415Y-91434415D01*
X141340000Y-92009000D01*
X140100000Y-93249000D01*
X133254192Y-93249000D01*
X133223000Y-93245928D01*
X131923000Y-93245928D01*
X131798518Y-93258188D01*
X131678820Y-93294498D01*
X131568506Y-93353463D01*
X131471815Y-93432815D01*
X131392463Y-93529506D01*
X131333498Y-93639820D01*
X131297188Y-93759518D01*
X131284928Y-93884000D01*
X131284928Y-93939177D01*
X131264802Y-93890588D01*
X131112684Y-93662926D01*
X130919074Y-93469316D01*
X130691412Y-93317198D01*
X130599194Y-93279000D01*
X130691412Y-93240802D01*
X130919074Y-93088684D01*
X131112684Y-92895074D01*
X131264802Y-92667412D01*
X131369583Y-92414448D01*
X131423000Y-92145903D01*
X131423000Y-91872097D01*
X131369583Y-91603552D01*
X131264802Y-91350588D01*
X131112684Y-91122926D01*
X130919074Y-90929316D01*
X130691412Y-90777198D01*
X130599194Y-90739000D01*
X130691412Y-90700802D01*
X130919074Y-90548684D01*
X131112684Y-90355074D01*
X131264802Y-90127412D01*
X131369583Y-89874448D01*
X131423000Y-89605903D01*
X131423000Y-89332097D01*
X131369583Y-89063552D01*
X131264802Y-88810588D01*
X131112684Y-88582926D01*
X130919074Y-88389316D01*
X130691412Y-88237198D01*
X130599194Y-88199000D01*
X130691412Y-88160802D01*
X130919074Y-88008684D01*
X131112684Y-87815074D01*
X131264802Y-87587412D01*
X131369583Y-87334448D01*
X131423000Y-87065903D01*
X131423000Y-86792097D01*
X131369583Y-86523552D01*
X131264802Y-86270588D01*
X131112684Y-86042926D01*
X130919074Y-85849316D01*
X130793000Y-85765077D01*
X130793000Y-85552923D01*
X130919074Y-85468684D01*
X131112684Y-85275074D01*
X131264802Y-85047412D01*
X131369583Y-84794448D01*
X131423000Y-84525903D01*
X131423000Y-84252097D01*
X131369583Y-83983552D01*
X131264802Y-83730588D01*
X131112684Y-83502926D01*
X130919074Y-83309316D01*
X130691412Y-83157198D01*
X130599194Y-83119000D01*
X130691412Y-83080802D01*
X130919074Y-82928684D01*
X131112684Y-82735074D01*
X131216660Y-82579462D01*
X133185001Y-84547803D01*
G36*
X139289000Y-67868532D02*
G01*
X139155479Y-68002053D01*
X139004000Y-68228757D01*
X138852521Y-68002053D01*
X138651947Y-67801479D01*
X138416096Y-67643888D01*
X138154033Y-67535338D01*
X137875828Y-67480000D01*
X137592172Y-67480000D01*
X137313967Y-67535338D01*
X137051904Y-67643888D01*
X136816053Y-67801479D01*
X136615479Y-68002053D01*
X136464000Y-68228757D01*
X136312521Y-68002053D01*
X136111947Y-67801479D01*
X135876096Y-67643888D01*
X135614033Y-67535338D01*
X135335828Y-67480000D01*
X135052172Y-67480000D01*
X134773967Y-67535338D01*
X134511904Y-67643888D01*
X134276053Y-67801479D01*
X134075479Y-68002053D01*
X133924000Y-68228757D01*
X133772521Y-68002053D01*
X133571947Y-67801479D01*
X133336096Y-67643888D01*
X133074033Y-67535338D01*
X132795828Y-67480000D01*
X132512172Y-67480000D01*
X132233967Y-67535338D01*
X131971904Y-67643888D01*
X131736053Y-67801479D01*
X131535479Y-68002053D01*
X131377888Y-68237904D01*
X131269338Y-68499967D01*
X131214000Y-68778172D01*
X131214000Y-69061828D01*
X131269338Y-69340033D01*
X131377888Y-69602096D01*
X131535479Y-69837947D01*
X131736053Y-70038521D01*
X131971904Y-70196112D01*
X132233967Y-70304662D01*
X132512172Y-70360000D01*
X132795828Y-70360000D01*
X133074033Y-70304662D01*
X133336096Y-70196112D01*
X133571947Y-70038521D01*
X133772521Y-69837947D01*
X133924000Y-69611243D01*
X134075479Y-69837947D01*
X134276053Y-70038521D01*
X134511904Y-70196112D01*
X134773967Y-70304662D01*
X135052172Y-70360000D01*
X135335828Y-70360000D01*
X135614033Y-70304662D01*
X135876096Y-70196112D01*
X136111947Y-70038521D01*
X136312521Y-69837947D01*
X136464000Y-69611243D01*
X136615479Y-69837947D01*
X136816053Y-70038521D01*
X137051904Y-70196112D01*
X137313967Y-70304662D01*
X137592172Y-70360000D01*
X137875828Y-70360000D01*
X138154033Y-70304662D01*
X138416096Y-70196112D01*
X138651947Y-70038521D01*
X138852521Y-69837947D01*
X139004000Y-69611243D01*
X139155479Y-69837947D01*
X139356053Y-70038521D01*
X139591904Y-70196112D01*
X139853967Y-70304662D01*
X140132172Y-70360000D01*
X140321000Y-70360000D01*
X141091700Y-71130701D01*
X141091701Y-71632899D01*
X140765411Y-71959189D01*
X140727831Y-71990030D01*
X140604741Y-72140016D01*
X140576987Y-72191940D01*
X140513276Y-72311134D01*
X140456953Y-72496807D01*
X140437935Y-72689900D01*
X140442701Y-72738290D01*
X140442700Y-88147540D01*
X140340990Y-87901989D01*
X140178475Y-87658768D01*
X139971632Y-87451925D01*
X139728411Y-87289410D01*
X139458158Y-87177468D01*
X139171260Y-87120400D01*
X138878740Y-87120400D01*
X138591842Y-87177468D01*
X138321589Y-87289410D01*
X138078368Y-87451925D01*
X137871525Y-87658768D01*
X137755000Y-87833160D01*
X137638475Y-87658768D01*
X137431632Y-87451925D01*
X137245000Y-87327222D01*
X137245000Y-85798323D01*
X137248676Y-85761000D01*
X137245000Y-85723677D01*
X137245000Y-85723667D01*
X137234003Y-85612014D01*
X137190546Y-85468753D01*
X137151653Y-85395990D01*
X137119974Y-85336723D01*
X137048799Y-85249997D01*
X137025001Y-85220999D01*
X136996003Y-85197201D01*
X131393419Y-79594618D01*
X131423000Y-79445903D01*
X131423000Y-79172097D01*
X131369583Y-78903552D01*
X131264802Y-78650588D01*
X131112684Y-78422926D01*
X130919074Y-78229316D01*
X130691412Y-78077198D01*
X130599194Y-78039000D01*
X130691412Y-78000802D01*
X130919074Y-77848684D01*
X131112684Y-77655074D01*
X131196923Y-77529000D01*
X132255978Y-77529000D01*
X132293300Y-77532676D01*
X132330622Y-77529000D01*
X132330633Y-77529000D01*
X132442286Y-77518003D01*
X132585547Y-77474546D01*
X132717576Y-77403974D01*
X132833301Y-77309001D01*
X132857104Y-77279997D01*
X133083997Y-77053104D01*
X133113001Y-77029301D01*
X133207974Y-76913576D01*
X133270052Y-76797438D01*
X133347482Y-76789812D01*
X133467180Y-76753502D01*
X133577494Y-76694537D01*
X133674185Y-76615185D01*
X133753537Y-76518494D01*
X133812502Y-76408180D01*
X133848812Y-76288482D01*
X133861072Y-76164000D01*
X133861072Y-75464000D01*
X133848812Y-75339518D01*
X133812502Y-75219820D01*
X133753537Y-75109506D01*
X133674185Y-75012815D01*
X133577494Y-74933463D01*
X133467180Y-74874498D01*
X133432573Y-74864000D01*
X133467180Y-74853502D01*
X133577494Y-74794537D01*
X133674185Y-74715185D01*
X133753537Y-74618494D01*
X133812502Y-74508180D01*
X133848812Y-74388482D01*
X133861072Y-74264000D01*
X133861072Y-74050612D01*
X134515783Y-74050612D01*
X134557213Y-74330230D01*
X134652397Y-74596392D01*
X134719329Y-74721614D01*
X134963298Y-74793197D01*
X135776395Y-73980100D01*
X134963298Y-73167003D01*
X134719329Y-73238586D01*
X134598429Y-73494096D01*
X134529700Y-73768284D01*
X134515783Y-74050612D01*
X133861072Y-74050612D01*
X133861072Y-73564000D01*
X133848812Y-73439518D01*
X133812502Y-73319820D01*
X133753537Y-73209506D01*
X133674185Y-73112815D01*
X133577494Y-73033463D01*
X133561652Y-73024995D01*
X133562765Y-73013699D01*
X133560175Y-72987398D01*
X135142903Y-72987398D01*
X135956000Y-73800495D01*
X135970143Y-73786353D01*
X136149748Y-73965958D01*
X136135605Y-73980100D01*
X136149748Y-73994243D01*
X135970143Y-74173848D01*
X135956000Y-74159705D01*
X135142903Y-74972802D01*
X135214486Y-75216771D01*
X135469996Y-75337671D01*
X135744184Y-75406400D01*
X136026512Y-75420317D01*
X136306130Y-75378887D01*
X136572292Y-75283703D01*
X136697514Y-75216771D01*
X136769097Y-74972804D01*
X136885370Y-75089077D01*
X136960476Y-75013972D01*
X137041241Y-75094737D01*
X137276273Y-75251780D01*
X137537426Y-75359953D01*
X137814665Y-75415100D01*
X138097335Y-75415100D01*
X138374574Y-75359953D01*
X138635727Y-75251780D01*
X138870759Y-75094737D01*
X139070637Y-74894859D01*
X139227680Y-74659827D01*
X139335853Y-74398674D01*
X139391000Y-74121435D01*
X139391000Y-73838765D01*
X139335853Y-73561526D01*
X139227680Y-73300373D01*
X139070637Y-73065341D01*
X138870759Y-72865463D01*
X138635727Y-72708420D01*
X138374574Y-72600247D01*
X138097335Y-72545100D01*
X137814665Y-72545100D01*
X137537426Y-72600247D01*
X137276273Y-72708420D01*
X137041241Y-72865463D01*
X136960476Y-72946229D01*
X136885370Y-72871123D01*
X136769097Y-72987396D01*
X136697514Y-72743429D01*
X136442004Y-72622529D01*
X136167816Y-72553800D01*
X135885488Y-72539883D01*
X135605870Y-72581313D01*
X135339708Y-72676497D01*
X135214486Y-72743429D01*
X135142903Y-72987398D01*
X133560175Y-72987398D01*
X133543747Y-72820606D01*
X133487424Y-72634933D01*
X133474098Y-72610002D01*
X133395960Y-72463816D01*
X133272870Y-72313830D01*
X133235284Y-72282984D01*
X129473216Y-68520916D01*
X129442370Y-68483330D01*
X129292384Y-68360240D01*
X129121267Y-68268776D01*
X128935594Y-68212453D01*
X128790880Y-68198200D01*
X128742500Y-68193435D01*
X128694120Y-68198200D01*
X125302302Y-68198200D01*
X125215081Y-68067665D01*
X124969935Y-67822519D01*
X124694100Y-67638211D01*
X124694100Y-61818727D01*
X124833135Y-61853223D01*
X125108017Y-61866110D01*
X125380133Y-61825122D01*
X125639023Y-61731836D01*
X125754980Y-61669856D01*
X125821960Y-61429765D01*
X125036000Y-60643805D01*
X125021858Y-60657948D01*
X124842253Y-60478343D01*
X124856395Y-60464200D01*
X125215605Y-60464200D01*
X126001565Y-61250160D01*
X126241656Y-61183180D01*
X126358756Y-60934152D01*
X126425023Y-60667065D01*
X126437910Y-60392183D01*
X126396922Y-60120067D01*
X126303636Y-59861177D01*
X126241656Y-59745220D01*
X126001565Y-59678240D01*
X125215605Y-60464200D01*
X124856395Y-60464200D01*
X124842253Y-60450058D01*
X125021858Y-60270453D01*
X125036000Y-60284595D01*
X125821960Y-59498635D01*
X125754980Y-59258544D01*
X125624356Y-59197121D01*
X125639023Y-59191836D01*
X125754980Y-59129856D01*
X125821960Y-58889765D01*
X125036000Y-58103805D01*
X125021858Y-58117948D01*
X124842253Y-57938343D01*
X124856395Y-57924200D01*
X125215605Y-57924200D01*
X126001565Y-58710160D01*
X126241656Y-58643180D01*
X126358756Y-58394152D01*
X126425023Y-58127065D01*
X126437910Y-57852183D01*
X126396922Y-57580067D01*
X126303636Y-57321177D01*
X126241656Y-57205220D01*
X126001565Y-57138240D01*
X125215605Y-57924200D01*
X124856395Y-57924200D01*
X124842253Y-57910058D01*
X125021858Y-57730453D01*
X125036000Y-57744595D01*
X125821960Y-56958635D01*
X125754980Y-56718544D01*
X125505952Y-56601444D01*
X125238865Y-56535177D01*
X124963983Y-56522290D01*
X124694100Y-56562942D01*
X124694100Y-56332300D01*
X127780600Y-53245800D01*
X139289001Y-53245800D01*
X139289000Y-67868532D01*
G37*
X139289000Y-67868532D02*
X139155479Y-68002053D01*
X139004000Y-68228757D01*
X138852521Y-68002053D01*
X138651947Y-67801479D01*
X138416096Y-67643888D01*
X138154033Y-67535338D01*
X137875828Y-67480000D01*
X137592172Y-67480000D01*
X137313967Y-67535338D01*
X137051904Y-67643888D01*
X136816053Y-67801479D01*
X136615479Y-68002053D01*
X136464000Y-68228757D01*
X136312521Y-68002053D01*
X136111947Y-67801479D01*
X135876096Y-67643888D01*
X135614033Y-67535338D01*
X135335828Y-67480000D01*
X135052172Y-67480000D01*
X134773967Y-67535338D01*
X134511904Y-67643888D01*
X134276053Y-67801479D01*
X134075479Y-68002053D01*
X133924000Y-68228757D01*
X133772521Y-68002053D01*
X133571947Y-67801479D01*
X133336096Y-67643888D01*
X133074033Y-67535338D01*
X132795828Y-67480000D01*
X132512172Y-67480000D01*
X132233967Y-67535338D01*
X131971904Y-67643888D01*
X131736053Y-67801479D01*
X131535479Y-68002053D01*
X131377888Y-68237904D01*
X131269338Y-68499967D01*
X131214000Y-68778172D01*
X131214000Y-69061828D01*
X131269338Y-69340033D01*
X131377888Y-69602096D01*
X131535479Y-69837947D01*
X131736053Y-70038521D01*
X131971904Y-70196112D01*
X132233967Y-70304662D01*
X132512172Y-70360000D01*
X132795828Y-70360000D01*
X133074033Y-70304662D01*
X133336096Y-70196112D01*
X133571947Y-70038521D01*
X133772521Y-69837947D01*
X133924000Y-69611243D01*
X134075479Y-69837947D01*
X134276053Y-70038521D01*
X134511904Y-70196112D01*
X134773967Y-70304662D01*
X135052172Y-70360000D01*
X135335828Y-70360000D01*
X135614033Y-70304662D01*
X135876096Y-70196112D01*
X136111947Y-70038521D01*
X136312521Y-69837947D01*
X136464000Y-69611243D01*
X136615479Y-69837947D01*
X136816053Y-70038521D01*
X137051904Y-70196112D01*
X137313967Y-70304662D01*
X137592172Y-70360000D01*
X137875828Y-70360000D01*
X138154033Y-70304662D01*
X138416096Y-70196112D01*
X138651947Y-70038521D01*
X138852521Y-69837947D01*
X139004000Y-69611243D01*
X139155479Y-69837947D01*
X139356053Y-70038521D01*
X139591904Y-70196112D01*
X139853967Y-70304662D01*
X140132172Y-70360000D01*
X140321000Y-70360000D01*
X141091700Y-71130701D01*
X141091701Y-71632899D01*
X140765411Y-71959189D01*
X140727831Y-71990030D01*
X140604741Y-72140016D01*
X140576987Y-72191940D01*
X140513276Y-72311134D01*
X140456953Y-72496807D01*
X140437935Y-72689900D01*
X140442701Y-72738290D01*
X140442700Y-88147540D01*
X140340990Y-87901989D01*
X140178475Y-87658768D01*
X139971632Y-87451925D01*
X139728411Y-87289410D01*
X139458158Y-87177468D01*
X139171260Y-87120400D01*
X138878740Y-87120400D01*
X138591842Y-87177468D01*
X138321589Y-87289410D01*
X138078368Y-87451925D01*
X137871525Y-87658768D01*
X137755000Y-87833160D01*
X137638475Y-87658768D01*
X137431632Y-87451925D01*
X137245000Y-87327222D01*
X137245000Y-85798323D01*
X137248676Y-85761000D01*
X137245000Y-85723677D01*
X137245000Y-85723667D01*
X137234003Y-85612014D01*
X137190546Y-85468753D01*
X137151653Y-85395990D01*
X137119974Y-85336723D01*
X137048799Y-85249997D01*
X137025001Y-85220999D01*
X136996003Y-85197201D01*
X131393419Y-79594618D01*
X131423000Y-79445903D01*
X131423000Y-79172097D01*
X131369583Y-78903552D01*
X131264802Y-78650588D01*
X131112684Y-78422926D01*
X130919074Y-78229316D01*
X130691412Y-78077198D01*
X130599194Y-78039000D01*
X130691412Y-78000802D01*
X130919074Y-77848684D01*
X131112684Y-77655074D01*
X131196923Y-77529000D01*
X132255978Y-77529000D01*
X132293300Y-77532676D01*
X132330622Y-77529000D01*
X132330633Y-77529000D01*
X132442286Y-77518003D01*
X132585547Y-77474546D01*
X132717576Y-77403974D01*
X132833301Y-77309001D01*
X132857104Y-77279997D01*
X133083997Y-77053104D01*
X133113001Y-77029301D01*
X133207974Y-76913576D01*
X133270052Y-76797438D01*
X133347482Y-76789812D01*
X133467180Y-76753502D01*
X133577494Y-76694537D01*
X133674185Y-76615185D01*
X133753537Y-76518494D01*
X133812502Y-76408180D01*
X133848812Y-76288482D01*
X133861072Y-76164000D01*
X133861072Y-75464000D01*
X133848812Y-75339518D01*
X133812502Y-75219820D01*
X133753537Y-75109506D01*
X133674185Y-75012815D01*
X133577494Y-74933463D01*
X133467180Y-74874498D01*
X133432573Y-74864000D01*
X133467180Y-74853502D01*
X133577494Y-74794537D01*
X133674185Y-74715185D01*
X133753537Y-74618494D01*
X133812502Y-74508180D01*
X133848812Y-74388482D01*
X133861072Y-74264000D01*
X133861072Y-74050612D01*
X134515783Y-74050612D01*
X134557213Y-74330230D01*
X134652397Y-74596392D01*
X134719329Y-74721614D01*
X134963298Y-74793197D01*
X135776395Y-73980100D01*
X134963298Y-73167003D01*
X134719329Y-73238586D01*
X134598429Y-73494096D01*
X134529700Y-73768284D01*
X134515783Y-74050612D01*
X133861072Y-74050612D01*
X133861072Y-73564000D01*
X133848812Y-73439518D01*
X133812502Y-73319820D01*
X133753537Y-73209506D01*
X133674185Y-73112815D01*
X133577494Y-73033463D01*
X133561652Y-73024995D01*
X133562765Y-73013699D01*
X133560175Y-72987398D01*
X135142903Y-72987398D01*
X135956000Y-73800495D01*
X135970143Y-73786353D01*
X136149748Y-73965958D01*
X136135605Y-73980100D01*
X136149748Y-73994243D01*
X135970143Y-74173848D01*
X135956000Y-74159705D01*
X135142903Y-74972802D01*
X135214486Y-75216771D01*
X135469996Y-75337671D01*
X135744184Y-75406400D01*
X136026512Y-75420317D01*
X136306130Y-75378887D01*
X136572292Y-75283703D01*
X136697514Y-75216771D01*
X136769097Y-74972804D01*
X136885370Y-75089077D01*
X136960476Y-75013972D01*
X137041241Y-75094737D01*
X137276273Y-75251780D01*
X137537426Y-75359953D01*
X137814665Y-75415100D01*
X138097335Y-75415100D01*
X138374574Y-75359953D01*
X138635727Y-75251780D01*
X138870759Y-75094737D01*
X139070637Y-74894859D01*
X139227680Y-74659827D01*
X139335853Y-74398674D01*
X139391000Y-74121435D01*
X139391000Y-73838765D01*
X139335853Y-73561526D01*
X139227680Y-73300373D01*
X139070637Y-73065341D01*
X138870759Y-72865463D01*
X138635727Y-72708420D01*
X138374574Y-72600247D01*
X138097335Y-72545100D01*
X137814665Y-72545100D01*
X137537426Y-72600247D01*
X137276273Y-72708420D01*
X137041241Y-72865463D01*
X136960476Y-72946229D01*
X136885370Y-72871123D01*
X136769097Y-72987396D01*
X136697514Y-72743429D01*
X136442004Y-72622529D01*
X136167816Y-72553800D01*
X135885488Y-72539883D01*
X135605870Y-72581313D01*
X135339708Y-72676497D01*
X135214486Y-72743429D01*
X135142903Y-72987398D01*
X133560175Y-72987398D01*
X133543747Y-72820606D01*
X133487424Y-72634933D01*
X133474098Y-72610002D01*
X133395960Y-72463816D01*
X133272870Y-72313830D01*
X133235284Y-72282984D01*
X129473216Y-68520916D01*
X129442370Y-68483330D01*
X129292384Y-68360240D01*
X129121267Y-68268776D01*
X128935594Y-68212453D01*
X128790880Y-68198200D01*
X128742500Y-68193435D01*
X128694120Y-68198200D01*
X125302302Y-68198200D01*
X125215081Y-68067665D01*
X124969935Y-67822519D01*
X124694100Y-67638211D01*
X124694100Y-61818727D01*
X124833135Y-61853223D01*
X125108017Y-61866110D01*
X125380133Y-61825122D01*
X125639023Y-61731836D01*
X125754980Y-61669856D01*
X125821960Y-61429765D01*
X125036000Y-60643805D01*
X125021858Y-60657948D01*
X124842253Y-60478343D01*
X124856395Y-60464200D01*
X125215605Y-60464200D01*
X126001565Y-61250160D01*
X126241656Y-61183180D01*
X126358756Y-60934152D01*
X126425023Y-60667065D01*
X126437910Y-60392183D01*
X126396922Y-60120067D01*
X126303636Y-59861177D01*
X126241656Y-59745220D01*
X126001565Y-59678240D01*
X125215605Y-60464200D01*
X124856395Y-60464200D01*
X124842253Y-60450058D01*
X125021858Y-60270453D01*
X125036000Y-60284595D01*
X125821960Y-59498635D01*
X125754980Y-59258544D01*
X125624356Y-59197121D01*
X125639023Y-59191836D01*
X125754980Y-59129856D01*
X125821960Y-58889765D01*
X125036000Y-58103805D01*
X125021858Y-58117948D01*
X124842253Y-57938343D01*
X124856395Y-57924200D01*
X125215605Y-57924200D01*
X126001565Y-58710160D01*
X126241656Y-58643180D01*
X126358756Y-58394152D01*
X126425023Y-58127065D01*
X126437910Y-57852183D01*
X126396922Y-57580067D01*
X126303636Y-57321177D01*
X126241656Y-57205220D01*
X126001565Y-57138240D01*
X125215605Y-57924200D01*
X124856395Y-57924200D01*
X124842253Y-57910058D01*
X125021858Y-57730453D01*
X125036000Y-57744595D01*
X125821960Y-56958635D01*
X125754980Y-56718544D01*
X125505952Y-56601444D01*
X125238865Y-56535177D01*
X124963983Y-56522290D01*
X124694100Y-56562942D01*
X124694100Y-56332300D01*
X127780600Y-53245800D01*
X139289001Y-53245800D01*
X139289000Y-67868532D01*
G36*
X159563748Y-74291058D02*
G01*
X159549605Y-74305200D01*
X159563748Y-74319343D01*
X159384143Y-74498948D01*
X159370000Y-74484805D01*
X159355858Y-74498948D01*
X159176253Y-74319343D01*
X159190395Y-74305200D01*
X159176253Y-74291058D01*
X159355858Y-74111453D01*
X159370000Y-74125595D01*
X159384143Y-74111453D01*
X159563748Y-74291058D01*
G37*
X159563748Y-74291058D02*
X159549605Y-74305200D01*
X159563748Y-74319343D01*
X159384143Y-74498948D01*
X159370000Y-74484805D01*
X159355858Y-74498948D01*
X159176253Y-74319343D01*
X159190395Y-74305200D01*
X159176253Y-74291058D01*
X159355858Y-74111453D01*
X159370000Y-74125595D01*
X159384143Y-74111453D01*
X159563748Y-74291058D01*
G36*
X144024151Y-73711948D02*
G01*
X143994011Y-73628421D01*
X143932943Y-73514171D01*
X143693566Y-73448039D01*
X142912605Y-74229000D01*
X142926748Y-74243143D01*
X142747143Y-74422748D01*
X142733000Y-74408605D01*
X142718858Y-74422748D01*
X142539253Y-74243143D01*
X142553395Y-74229000D01*
X142539253Y-74214858D01*
X142718858Y-74035253D01*
X142733000Y-74049395D01*
X143513961Y-73268434D01*
X143447829Y-73029057D01*
X143441107Y-73025900D01*
X144710199Y-73025900D01*
X144024151Y-73711948D01*
G37*
X144024151Y-73711948D02*
X143994011Y-73628421D01*
X143932943Y-73514171D01*
X143693566Y-73448039D01*
X142912605Y-74229000D01*
X142926748Y-74243143D01*
X142747143Y-74422748D01*
X142733000Y-74408605D01*
X142718858Y-74422748D01*
X142539253Y-74243143D01*
X142553395Y-74229000D01*
X142539253Y-74214858D01*
X142718858Y-74035253D01*
X142733000Y-74049395D01*
X143513961Y-73268434D01*
X143447829Y-73029057D01*
X143441107Y-73025900D01*
X144710199Y-73025900D01*
X144024151Y-73711948D01*
G36*
X158301888Y-69602096D02*
G01*
X158459479Y-69837947D01*
X158660053Y-70038521D01*
X158895904Y-70196112D01*
X159157967Y-70304662D01*
X159436172Y-70360000D01*
X159719828Y-70360000D01*
X159998033Y-70304662D01*
X160088000Y-70267396D01*
X160088001Y-73116738D01*
X160084829Y-73105257D01*
X159836997Y-72988858D01*
X159571218Y-72923045D01*
X159297706Y-72910346D01*
X159026973Y-72951252D01*
X158769421Y-73044189D01*
X158655171Y-73105257D01*
X158589040Y-73344632D01*
X158472604Y-73228196D01*
X158389487Y-73311313D01*
X158372586Y-73270511D01*
X158270262Y-73117372D01*
X158247800Y-73094910D01*
X158247800Y-69471516D01*
X158301888Y-69602096D01*
G37*
X158301888Y-69602096D02*
X158459479Y-69837947D01*
X158660053Y-70038521D01*
X158895904Y-70196112D01*
X159157967Y-70304662D01*
X159436172Y-70360000D01*
X159719828Y-70360000D01*
X159998033Y-70304662D01*
X160088000Y-70267396D01*
X160088001Y-73116738D01*
X160084829Y-73105257D01*
X159836997Y-72988858D01*
X159571218Y-72923045D01*
X159297706Y-72910346D01*
X159026973Y-72951252D01*
X158769421Y-73044189D01*
X158655171Y-73105257D01*
X158589040Y-73344632D01*
X158472604Y-73228196D01*
X158389487Y-73311313D01*
X158372586Y-73270511D01*
X158270262Y-73117372D01*
X158247800Y-73094910D01*
X158247800Y-69471516D01*
X158301888Y-69602096D01*
G36*
X152615591Y-48423459D02*
G01*
X152613928Y-48729000D01*
X152621467Y-48805546D01*
X152844717Y-63324000D01*
X147946035Y-63324000D01*
X147843389Y-63255414D01*
X147673229Y-63184932D01*
X147492589Y-63149000D01*
X147308411Y-63149000D01*
X147127771Y-63184932D01*
X146957611Y-63255414D01*
X146804472Y-63357738D01*
X146674238Y-63487972D01*
X146571914Y-63641111D01*
X146501432Y-63811271D01*
X146465500Y-63991911D01*
X146465500Y-64176089D01*
X146501432Y-64356729D01*
X146571914Y-64526889D01*
X146674238Y-64680028D01*
X146804472Y-64810262D01*
X146957611Y-64912586D01*
X147127771Y-64983068D01*
X147308411Y-65019000D01*
X147492589Y-65019000D01*
X147673229Y-64983068D01*
X147843389Y-64912586D01*
X147946035Y-64844000D01*
X152677799Y-64844000D01*
X154827698Y-66993900D01*
X152508222Y-66993900D01*
X152470899Y-66990224D01*
X152433576Y-66993900D01*
X152433567Y-66993900D01*
X152321914Y-67004897D01*
X152178653Y-67048354D01*
X152046624Y-67118926D01*
X151930899Y-67213899D01*
X151907100Y-67242898D01*
X151349893Y-67800106D01*
X151116096Y-67643888D01*
X150854033Y-67535338D01*
X150575828Y-67480000D01*
X150292172Y-67480000D01*
X150013967Y-67535338D01*
X149751904Y-67643888D01*
X149516053Y-67801479D01*
X149315479Y-68002053D01*
X149164000Y-68228757D01*
X149012521Y-68002053D01*
X148811947Y-67801479D01*
X148576096Y-67643888D01*
X148314033Y-67535338D01*
X148035828Y-67480000D01*
X147868802Y-67480000D01*
X148775402Y-66573400D01*
X150992065Y-66573400D01*
X151094711Y-66641986D01*
X151264871Y-66712468D01*
X151445511Y-66748400D01*
X151629689Y-66748400D01*
X151810329Y-66712468D01*
X151980489Y-66641986D01*
X152133628Y-66539662D01*
X152263862Y-66409428D01*
X152366186Y-66256289D01*
X152436668Y-66086129D01*
X152472600Y-65905489D01*
X152472600Y-65721311D01*
X152436668Y-65540671D01*
X152366186Y-65370511D01*
X152263862Y-65217372D01*
X152133628Y-65087138D01*
X151980489Y-64984814D01*
X151810329Y-64914332D01*
X151629689Y-64878400D01*
X151445511Y-64878400D01*
X151264871Y-64914332D01*
X151094711Y-64984814D01*
X150992065Y-65053400D01*
X148497923Y-65053400D01*
X148460600Y-65049724D01*
X148423277Y-65053400D01*
X148423267Y-65053400D01*
X148311614Y-65064397D01*
X148168353Y-65107854D01*
X148036324Y-65178426D01*
X147920599Y-65273399D01*
X147896801Y-65302397D01*
X145682139Y-67517059D01*
X145495828Y-67480000D01*
X145212172Y-67480000D01*
X144933967Y-67535338D01*
X144671904Y-67643888D01*
X144436053Y-67801479D01*
X144235479Y-68002053D01*
X144084000Y-68228757D01*
X143932521Y-68002053D01*
X143731947Y-67801479D01*
X143496096Y-67643888D01*
X143234033Y-67535338D01*
X142955828Y-67480000D01*
X142672172Y-67480000D01*
X142393967Y-67535338D01*
X142131904Y-67643888D01*
X141896053Y-67801479D01*
X141695479Y-68002053D01*
X141544000Y-68228757D01*
X141392521Y-68002053D01*
X141259000Y-67868532D01*
X141259000Y-57786608D01*
X141639000Y-57786608D01*
X141639000Y-58061792D01*
X141692686Y-58331690D01*
X141797995Y-58585927D01*
X141950880Y-58814735D01*
X142051001Y-58914856D01*
X142051000Y-59473545D01*
X141950880Y-59573665D01*
X141797995Y-59802473D01*
X141692686Y-60056710D01*
X141639000Y-60326608D01*
X141639000Y-60601792D01*
X141692686Y-60871690D01*
X141797995Y-61125927D01*
X141950880Y-61354735D01*
X142145465Y-61549320D01*
X142374273Y-61702205D01*
X142628510Y-61807514D01*
X142898408Y-61861200D01*
X143173592Y-61861200D01*
X143443490Y-61807514D01*
X143697727Y-61702205D01*
X143926535Y-61549320D01*
X144121120Y-61354735D01*
X144274005Y-61125927D01*
X144379314Y-60871690D01*
X144433000Y-60601792D01*
X144433000Y-60326608D01*
X144379314Y-60056710D01*
X144274005Y-59802473D01*
X144121120Y-59573665D01*
X144021000Y-59473545D01*
X144021000Y-58914855D01*
X144121120Y-58814735D01*
X144274005Y-58585927D01*
X144379314Y-58331690D01*
X144433000Y-58061792D01*
X144433000Y-57786608D01*
X144379314Y-57516710D01*
X144274005Y-57262473D01*
X144121120Y-57033665D01*
X143926535Y-56839080D01*
X143697727Y-56686195D01*
X143443490Y-56580886D01*
X143173592Y-56527200D01*
X142898408Y-56527200D01*
X142628510Y-56580886D01*
X142374273Y-56686195D01*
X142145465Y-56839080D01*
X141950880Y-57033665D01*
X141797995Y-57262473D01*
X141692686Y-57516710D01*
X141639000Y-57786608D01*
X141259000Y-57786608D01*
X141259000Y-53075786D01*
X141399270Y-52960670D01*
X141430116Y-52923084D01*
X143032000Y-51321200D01*
X143173592Y-51321200D01*
X143443490Y-51267514D01*
X143697727Y-51162205D01*
X143926535Y-51009320D01*
X144121120Y-50814735D01*
X144274005Y-50585927D01*
X144379314Y-50331690D01*
X144433000Y-50061792D01*
X144433000Y-49786608D01*
X144379314Y-49516710D01*
X144274005Y-49262473D01*
X144121120Y-49033665D01*
X144021000Y-48933545D01*
X144021000Y-48374855D01*
X144121120Y-48274735D01*
X144274005Y-48045927D01*
X144379314Y-47791690D01*
X144433000Y-47521792D01*
X144433000Y-47380200D01*
X146929200Y-44884000D01*
X152561165Y-44884000D01*
X152615591Y-48423459D01*
G37*
X152615591Y-48423459D02*
X152613928Y-48729000D01*
X152621467Y-48805546D01*
X152844717Y-63324000D01*
X147946035Y-63324000D01*
X147843389Y-63255414D01*
X147673229Y-63184932D01*
X147492589Y-63149000D01*
X147308411Y-63149000D01*
X147127771Y-63184932D01*
X146957611Y-63255414D01*
X146804472Y-63357738D01*
X146674238Y-63487972D01*
X146571914Y-63641111D01*
X146501432Y-63811271D01*
X146465500Y-63991911D01*
X146465500Y-64176089D01*
X146501432Y-64356729D01*
X146571914Y-64526889D01*
X146674238Y-64680028D01*
X146804472Y-64810262D01*
X146957611Y-64912586D01*
X147127771Y-64983068D01*
X147308411Y-65019000D01*
X147492589Y-65019000D01*
X147673229Y-64983068D01*
X147843389Y-64912586D01*
X147946035Y-64844000D01*
X152677799Y-64844000D01*
X154827698Y-66993900D01*
X152508222Y-66993900D01*
X152470899Y-66990224D01*
X152433576Y-66993900D01*
X152433567Y-66993900D01*
X152321914Y-67004897D01*
X152178653Y-67048354D01*
X152046624Y-67118926D01*
X151930899Y-67213899D01*
X151907100Y-67242898D01*
X151349893Y-67800106D01*
X151116096Y-67643888D01*
X150854033Y-67535338D01*
X150575828Y-67480000D01*
X150292172Y-67480000D01*
X150013967Y-67535338D01*
X149751904Y-67643888D01*
X149516053Y-67801479D01*
X149315479Y-68002053D01*
X149164000Y-68228757D01*
X149012521Y-68002053D01*
X148811947Y-67801479D01*
X148576096Y-67643888D01*
X148314033Y-67535338D01*
X148035828Y-67480000D01*
X147868802Y-67480000D01*
X148775402Y-66573400D01*
X150992065Y-66573400D01*
X151094711Y-66641986D01*
X151264871Y-66712468D01*
X151445511Y-66748400D01*
X151629689Y-66748400D01*
X151810329Y-66712468D01*
X151980489Y-66641986D01*
X152133628Y-66539662D01*
X152263862Y-66409428D01*
X152366186Y-66256289D01*
X152436668Y-66086129D01*
X152472600Y-65905489D01*
X152472600Y-65721311D01*
X152436668Y-65540671D01*
X152366186Y-65370511D01*
X152263862Y-65217372D01*
X152133628Y-65087138D01*
X151980489Y-64984814D01*
X151810329Y-64914332D01*
X151629689Y-64878400D01*
X151445511Y-64878400D01*
X151264871Y-64914332D01*
X151094711Y-64984814D01*
X150992065Y-65053400D01*
X148497923Y-65053400D01*
X148460600Y-65049724D01*
X148423277Y-65053400D01*
X148423267Y-65053400D01*
X148311614Y-65064397D01*
X148168353Y-65107854D01*
X148036324Y-65178426D01*
X147920599Y-65273399D01*
X147896801Y-65302397D01*
X145682139Y-67517059D01*
X145495828Y-67480000D01*
X145212172Y-67480000D01*
X144933967Y-67535338D01*
X144671904Y-67643888D01*
X144436053Y-67801479D01*
X144235479Y-68002053D01*
X144084000Y-68228757D01*
X143932521Y-68002053D01*
X143731947Y-67801479D01*
X143496096Y-67643888D01*
X143234033Y-67535338D01*
X142955828Y-67480000D01*
X142672172Y-67480000D01*
X142393967Y-67535338D01*
X142131904Y-67643888D01*
X141896053Y-67801479D01*
X141695479Y-68002053D01*
X141544000Y-68228757D01*
X141392521Y-68002053D01*
X141259000Y-67868532D01*
X141259000Y-57786608D01*
X141639000Y-57786608D01*
X141639000Y-58061792D01*
X141692686Y-58331690D01*
X141797995Y-58585927D01*
X141950880Y-58814735D01*
X142051001Y-58914856D01*
X142051000Y-59473545D01*
X141950880Y-59573665D01*
X141797995Y-59802473D01*
X141692686Y-60056710D01*
X141639000Y-60326608D01*
X141639000Y-60601792D01*
X141692686Y-60871690D01*
X141797995Y-61125927D01*
X141950880Y-61354735D01*
X142145465Y-61549320D01*
X142374273Y-61702205D01*
X142628510Y-61807514D01*
X142898408Y-61861200D01*
X143173592Y-61861200D01*
X143443490Y-61807514D01*
X143697727Y-61702205D01*
X143926535Y-61549320D01*
X144121120Y-61354735D01*
X144274005Y-61125927D01*
X144379314Y-60871690D01*
X144433000Y-60601792D01*
X144433000Y-60326608D01*
X144379314Y-60056710D01*
X144274005Y-59802473D01*
X144121120Y-59573665D01*
X144021000Y-59473545D01*
X144021000Y-58914855D01*
X144121120Y-58814735D01*
X144274005Y-58585927D01*
X144379314Y-58331690D01*
X144433000Y-58061792D01*
X144433000Y-57786608D01*
X144379314Y-57516710D01*
X144274005Y-57262473D01*
X144121120Y-57033665D01*
X143926535Y-56839080D01*
X143697727Y-56686195D01*
X143443490Y-56580886D01*
X143173592Y-56527200D01*
X142898408Y-56527200D01*
X142628510Y-56580886D01*
X142374273Y-56686195D01*
X142145465Y-56839080D01*
X141950880Y-57033665D01*
X141797995Y-57262473D01*
X141692686Y-57516710D01*
X141639000Y-57786608D01*
X141259000Y-57786608D01*
X141259000Y-53075786D01*
X141399270Y-52960670D01*
X141430116Y-52923084D01*
X143032000Y-51321200D01*
X143173592Y-51321200D01*
X143443490Y-51267514D01*
X143697727Y-51162205D01*
X143926535Y-51009320D01*
X144121120Y-50814735D01*
X144274005Y-50585927D01*
X144379314Y-50331690D01*
X144433000Y-50061792D01*
X144433000Y-49786608D01*
X144379314Y-49516710D01*
X144274005Y-49262473D01*
X144121120Y-49033665D01*
X144021000Y-48933545D01*
X144021000Y-48374855D01*
X144121120Y-48274735D01*
X144274005Y-48045927D01*
X144379314Y-47791690D01*
X144433000Y-47521792D01*
X144433000Y-47380200D01*
X146929200Y-44884000D01*
X152561165Y-44884000D01*
X152615591Y-48423459D01*
%TD*%
M02*
