# Created by FreeCAD <http://www.freecadweb.org>
v 26.049999 14.950000 0.000000
v -26.049999 14.950000 0.000000
v -26.049999 14.950000 7.000000
v 26.049999 14.950000 7.000000
v -26.049999 -14.950000 0.000000
v -26.049999 -14.950000 7.000000
v 26.049999 -14.950000 0.000000
v 26.049999 -14.950000 7.000000
v 25.049999 14.100000 0.000000
v 25.049999 -14.100000 0.000000
v -25.049999 -14.100000 0.000000
v -25.049999 14.100000 0.000000
v 3.000000 7.600000 7.000000
v 3.000000 -7.600000 7.000000
v -3.000000 -7.600000 7.000000
v -3.000000 7.600000 7.000000
v 1.050000 -14.950000 2.950000
v 1.050000 -14.950000 1.850000
v -1.050000 -14.950000 2.950000
v -1.050000 -14.950000 1.850000
v -25.049999 14.100000 6.000000
v -25.049999 -14.100000 6.000000
v 25.049999 14.100000 6.000000
v 25.049999 -14.100000 6.000000
v -1.050000 -14.100000 2.950000
v -1.050000 -14.100000 1.850000
v 1.050000 -14.100000 2.950000
v 1.050000 -14.100000 1.850000
v -3.000000 7.600000 6.000000
v -3.000000 -7.600000 6.000000
v 3.000000 -7.600000 6.000000
v 3.000000 7.600000 6.000000
vn 0.000000 1.000000 0.000000
vn 0.000000 1.000000 -0.000000
vn -1.000000 0.000000 0.000000
vn -1.000000 0.000000 0.000000
vn 1.000000 0.000000 0.000000
vn 1.000000 0.000000 0.000000
vn 0.000000 0.000000 -1.000000
vn 0.000000 0.000000 -1.000000
vn 0.000000 0.000000 -1.000000
vn 0.000000 0.000000 -1.000000
vn 0.000000 -0.000000 -1.000000
vn 0.000000 0.000000 -1.000000
vn 0.000000 0.000000 -1.000000
vn 0.000000 0.000000 -1.000000
vn 0.000000 0.000000 1.000000
vn 0.000000 0.000000 1.000000
vn -0.000000 0.000000 1.000000
vn 0.000000 0.000000 1.000000
vn 0.000000 0.000000 1.000000
vn 0.000000 0.000000 1.000000
vn 0.000000 0.000000 1.000000
vn 0.000000 0.000000 1.000000
vn 0.000000 -1.000000 0.000000
vn 0.000000 -1.000000 0.000000
vn 0.000000 -1.000000 0.000000
vn 0.000000 -1.000000 0.000000
vn 0.000000 -1.000000 0.000000
vn 0.000000 -1.000000 0.000000
vn 0.000000 -1.000000 0.000000
vn 0.000000 -1.000000 0.000000
vn 1.000000 0.000000 0.000000
vn 1.000000 0.000000 0.000000
vn 0.000000 -1.000000 0.000000
vn 0.000000 -1.000000 0.000000
vn -1.000000 0.000000 0.000000
vn -1.000000 0.000000 0.000000
vn 0.000000 1.000000 0.000000
vn 0.000000 1.000000 -0.000000
vn 0.000000 1.000000 0.000000
vn 0.000000 1.000000 0.000000
vn 0.000000 1.000000 0.000000
vn 0.000000 1.000000 -0.000000
vn 0.000000 1.000000 0.000000
vn 0.000000 1.000000 0.000000
vn 1.000000 -0.000000 0.000000
vn 1.000000 0.000000 0.000000
vn 0.000000 1.000000 0.000000
vn 0.000000 1.000000 -0.000000
vn -1.000000 -0.000000 0.000000
vn -1.000000 0.000000 0.000000
vn 0.000000 -1.000000 0.000000
vn 0.000000 -1.000000 0.000000
vn 1.000000 -0.000000 0.000000
vn 1.000000 0.000000 0.000000
vn 0.000000 0.000000 1.000000
vn 0.000000 0.000000 1.000000
vn -1.000000 0.000000 0.000000
vn -1.000000 0.000000 0.000000
vn 0.000000 0.000000 -1.000000
vn 0.000000 0.000000 -1.000000
vn 0.000000 0.000000 -1.000000
vn 0.000000 0.000000 -1.000000
vn -0.000000 -0.000000 -1.000000
vn 0.000000 -0.000000 -1.000000
vn 0.000000 0.000000 -1.000000
vn 0.000000 0.000000 -1.000000
vn 0.000000 0.000000 -1.000000
vn 0.000000 0.000000 -1.000000
f 1//1 2//1 3//1
f 1//2 3//2 4//2
f 2//3 5//3 6//3
f 2//4 6//4 3//4
f 7//5 1//5 4//5
f 7//6 4//6 8//6
f 9//7 1//7 7//7
f 9//8 7//8 10//8
f 5//9 11//9 10//9
f 5//10 10//10 7//10
f 12//11 11//11 5//11
f 2//12 12//12 5//12
f 2//13 1//13 9//13
f 2//14 9//14 12//14
f 4//15 13//15 8//15
f 8//16 13//16 14//16
f 15//17 6//17 14//17
f 14//18 6//18 8//18
f 16//19 3//19 15//19
f 15//20 3//20 6//20
f 4//21 3//21 13//21
f 13//22 3//22 16//22
f 17//23 7//23 8//23
f 18//24 7//24 17//24
f 6//25 19//25 17//25
f 6//26 17//26 8//26
f 5//27 20//27 19//27
f 5//28 19//28 6//28
f 5//29 7//29 18//29
f 5//30 18//30 20//30
f 11//31 12//31 21//31
f 11//32 21//32 22//32
f 12//33 9//33 23//33
f 12//34 23//34 21//34
f 9//35 10//35 24//35
f 9//36 24//36 23//36
f 25//37 11//37 22//37
f 26//38 11//38 25//38
f 24//39 27//39 25//39
f 24//40 25//40 22//40
f 10//41 28//41 27//41
f 10//42 27//42 24//42
f 10//43 11//43 26//43
f 10//44 26//44 28//44
f 15//45 29//45 16//45
f 30//46 29//46 15//46
f 14//47 30//47 15//47
f 31//48 30//48 14//48
f 13//49 31//49 14//49
f 32//50 31//50 13//50
f 16//51 32//51 13//51
f 29//52 32//52 16//52
f 19//53 26//53 25//53
f 19//54 20//54 26//54
f 20//55 28//55 26//55
f 20//56 18//56 28//56
f 18//57 27//57 28//57
f 18//58 17//58 27//58
f 17//59 25//59 27//59
f 17//60 19//60 25//60
f 21//61 29//61 22//61
f 22//62 29//62 30//62
f 31//63 24//63 30//63
f 30//64 24//64 22//64
f 32//65 23//65 31//65
f 31//66 23//66 24//66
f 21//67 23//67 29//67
f 29//68 23//68 32//68
