# Created by FreeCAD <http://www.freecadweb.org>
v -10.000000 10.000000 0.000000
v -10.000000 10.000000 4.500000
v -6.000000 10.000000 4.500000
v 10.000000 10.000000 0.000000
v 10.000000 10.000000 4.500000
v -10.000000 -10.000000 0.000000
v -10.000000 -10.000000 4.500000
v -10.000000 -9.972413 4.500000
v 10.000000 -10.000000 0.000000
v 10.000000 -10.000000 4.500000
v 0.965710 -1.399073 0.000000
v 1.272468 -1.127308 0.000000
v 1.505275 -0.790029 0.000000
v 0.602828 -1.589528 0.000000
v 1.650601 -0.406837 0.000000
v 0.204912 -1.687605 0.000000
v 1.700000 0.000000 0.000000
v 1.650601 0.406837 0.000000
v 1.505275 0.790029 0.000000
v 1.272468 1.127308 0.000000
v -0.965710 -1.399073 0.000000
v -0.602828 -1.589528 0.000000
v -0.204912 -1.687605 0.000000
v -1.272468 -1.127308 0.000000
v 0.965710 1.399073 0.000000
v -1.505275 -0.790029 0.000000
v 0.602828 1.589528 0.000000
v -1.650601 -0.406837 0.000000
v 0.204912 1.687605 0.000000
v -1.700000 0.000000 0.000000
v -0.204912 1.687605 0.000000
v -0.602828 1.589528 0.000000
v -0.965710 1.399073 0.000000
v -1.272468 1.127308 0.000000
v -1.505275 0.790029 0.000000
v -1.650601 0.406837 0.000000
v -10.000000 10.000000 19.500000
v -6.000000 10.000000 19.500000
v 0.337503 2.779585 4.500000
v -6.000000 -9.972413 4.500000
v -2.800000 0.000000 4.500000
v -2.718637 -0.670084 4.500000
v -2.479277 -1.301225 4.500000
v 2.095830 -1.856743 4.500000
v 1.590581 -2.304355 4.500000
v 2.479277 -1.301225 4.500000
v 0.992894 -2.618046 4.500000
v 2.718637 -0.670084 4.500000
v 0.337503 -2.779585 4.500000
v 2.800000 0.000000 4.500000
v -0.337503 -2.779585 4.500000
v -0.992894 -2.618046 4.500000
v -1.590581 -2.304355 4.500000
v 2.718637 0.670084 4.500000
v 2.479277 1.301225 4.500000
v 2.095830 1.856743 4.500000
v -2.095830 -1.856743 4.500000
v 1.590581 2.304355 4.500000
v 0.992894 2.618046 4.500000
v -0.337503 2.779585 4.500000
v -0.992894 2.618046 4.500000
v -1.590581 2.304355 4.500000
v -2.095830 1.856743 4.500000
v -2.479277 1.301225 4.500000
v -2.718637 0.670084 4.500000
v -10.000000 -9.972413 19.500000
v -0.965710 -1.399073 1.800000
v -0.602828 -1.589528 1.800000
v -0.204912 -1.687605 1.800000
v 1.650601 0.406837 1.800000
v 0.204912 -1.687605 1.800000
v 1.700000 0.000000 1.800000
v 1.505275 0.790029 1.800000
v 0.602828 -1.589528 1.800000
v 1.272468 1.127308 1.800000
v 0.965710 -1.399073 1.800000
v 0.965710 1.399073 1.800000
v 1.272468 -1.127308 1.800000
v 0.602828 1.589528 1.800000
v 1.505275 -0.790029 1.800000
v 1.650601 -0.406837 1.800000
v 0.204912 1.687605 1.800000
v -0.204912 1.687605 1.800000
v -0.602828 1.589528 1.800000
v -0.965710 1.399073 1.800000
v -1.272468 1.127308 1.800000
v -1.505275 0.790029 1.800000
v -1.650601 0.406837 1.800000
v -1.700000 0.000000 1.800000
v -1.650601 -0.406837 1.800000
v -1.505275 -0.790029 1.800000
v -1.272468 -1.127308 1.800000
v -6.000000 -9.972413 19.500000
v -1.590581 -2.304355 1.800000
v -0.992894 -2.618046 1.800000
v -0.337503 -2.779585 1.800000
v 2.800000 0.000000 1.800000
v 2.718637 0.670084 1.800000
v 0.337503 -2.779585 1.800000
v 2.479277 1.301225 1.800000
v 0.992894 -2.618046 1.800000
v 2.095830 1.856743 1.800000
v 1.590581 -2.304355 1.800000
v 1.590581 2.304355 1.800000
v 2.095830 -1.856743 1.800000
v 0.992894 2.618046 1.800000
v 2.479277 -1.301225 1.800000
v 2.718637 -0.670084 1.800000
v 0.337503 2.779585 1.800000
v -0.337503 2.779585 1.800000
v -0.992894 2.618046 1.800000
v -1.590581 2.304355 1.800000
v -2.095830 1.856743 1.800000
v -2.479277 1.301225 1.800000
v -2.718637 0.670084 1.800000
v -2.800000 0.000000 1.800000
v -2.718637 -0.670084 1.800000
v -2.479277 -1.301225 1.800000
v -2.095830 -1.856743 1.800000
vn 0.000000 1.000000 0.000000
vn 0.000000 1.000000 -0.000000
vn 0.000000 1.000000 0.000000
vn -1.000000 0.000000 0.000000
vn -1.000000 0.000000 0.000000
vn -1.000000 0.000000 0.000000
vn 1.000000 0.000000 0.000000
vn 1.000000 0.000000 0.000000
vn 0.000000 0.000000 -1.000000
vn 0.000000 -0.000000 -1.000000
vn 0.000000 0.000000 -1.000000
vn 0.000000 -0.000000 -1.000000
vn 0.000000 0.000000 -1.000000
vn 0.000000 -0.000000 -1.000000
vn 0.000000 0.000000 -1.000000
vn 0.000000 0.000000 -1.000000
vn 0.000000 0.000000 -1.000000
vn 0.000000 -0.000000 -1.000000
vn 0.000000 0.000000 -1.000000
vn 0.000000 0.000000 -1.000000
vn 0.000000 0.000000 -1.000000
vn 0.000000 0.000000 -1.000000
vn 0.000000 -0.000000 -1.000000
vn 0.000000 0.000000 -1.000000
vn 0.000000 -0.000000 -1.000000
vn 0.000000 0.000000 -1.000000
vn 0.000000 -0.000000 -1.000000
vn 0.000000 0.000000 -1.000000
vn 0.000000 -0.000000 -1.000000
vn 0.000000 0.000000 -1.000000
vn 0.000000 0.000000 -1.000000
vn 0.000000 0.000000 -1.000000
vn 0.000000 0.000000 -1.000000
vn 0.000000 0.000000 -1.000000
vn 0.000000 0.000000 -1.000000
vn 0.000000 0.000000 -1.000000
vn 0.000000 0.000000 -1.000000
vn 0.000000 0.000000 -1.000000
vn 0.000000 1.000000 0.000000
vn 0.000000 1.000000 -0.000000
vn 0.000000 0.000000 1.000000
vn 0.000000 0.000000 1.000000
vn 0.000000 0.000000 1.000000
vn 0.000000 0.000000 1.000000
vn 0.000000 0.000000 1.000000
vn 0.000000 0.000000 1.000000
vn 0.000000 0.000000 1.000000
vn 0.000000 0.000000 1.000000
vn 0.000000 0.000000 1.000000
vn 0.000000 0.000000 1.000000
vn 0.000000 0.000000 1.000000
vn 0.000000 0.000000 1.000000
vn 0.000000 0.000000 1.000000
vn 0.000000 0.000000 1.000000
vn 0.000000 0.000000 1.000000
vn 0.000000 -0.000000 1.000000
vn 0.000000 -0.000000 1.000000
vn 0.000000 -0.000000 1.000000
vn 0.000000 -0.000000 1.000000
vn 0.000000 0.000000 1.000000
vn 0.000000 0.000000 1.000000
vn 0.000000 0.000000 1.000000
vn 0.000000 0.000000 1.000000
vn 0.000000 0.000000 1.000000
vn 0.000000 0.000000 1.000000
vn 0.000000 0.000000 1.000000
vn 0.000000 0.000000 1.000000
vn 0.000000 0.000000 1.000000
vn 0.000000 0.000000 1.000000
vn 0.000000 0.000000 1.000000
vn 0.000000 0.000000 1.000000
vn 0.000000 0.000000 1.000000
vn 0.000000 -1.000000 0.000000
vn 0.000000 -1.000000 0.000000
vn -1.000000 0.000000 0.000000
vn -1.000000 0.000000 0.000000
vn 0.464723 0.885456 0.000000
vn 0.464723 0.885456 0.000000
vn 0.239316 0.970942 0.000000
vn 0.239316 0.970942 0.000000
vn -0.992709 -0.120537 0.000000
vn -0.000000 1.000000 0.000000
vn -0.992709 -0.120537 -0.000000
vn 0.000000 1.000000 0.000000
vn -0.935016 -0.354605 0.000000
vn -0.239316 0.970942 0.000000
vn -0.935016 -0.354605 -0.000000
vn -0.239316 0.970942 0.000000
vn -0.822984 -0.568065 0.000000
vn -0.464723 0.885456 0.000000
vn -0.464723 0.885456 0.000000
vn -0.822984 -0.568065 -0.000000
vn -0.663122 -0.748511 0.000000
vn -0.663122 0.748511 0.000000
vn -0.663122 0.748511 0.000000
vn -0.663122 -0.748511 -0.000000
vn -0.464723 -0.885456 0.000000
vn -0.822984 0.568065 0.000000
vn -0.464723 -0.885456 -0.000000
vn -0.822984 0.568065 0.000000
vn -0.935016 0.354605 0.000000
vn -0.239316 -0.970942 0.000000
vn -0.935016 0.354605 0.000000
vn -0.992709 0.120537 0.000000
vn -0.239316 -0.970942 -0.000000
vn -0.992709 0.120537 0.000000
vn 0.000000 -1.000000 0.000000
vn -0.000000 -1.000000 -0.000000
vn 0.239316 -0.970942 0.000000
vn 0.239316 -0.970942 0.000000
vn 0.464723 -0.885456 0.000000
vn 0.464723 -0.885456 0.000000
vn 0.663122 -0.748511 0.000000
vn 0.663122 -0.748511 0.000000
vn 0.822984 -0.568065 0.000000
vn 0.822984 -0.568065 0.000000
vn 0.935016 -0.354605 0.000000
vn 0.935016 -0.354605 0.000000
vn 0.992709 -0.120537 0.000000
vn 0.992709 -0.120537 0.000000
vn 0.992709 0.120537 0.000000
vn 0.992709 0.120537 0.000000
vn 0.935016 0.354605 0.000000
vn 0.935016 0.354605 0.000000
vn 0.822984 0.568065 0.000000
vn 0.822984 0.568065 0.000000
vn 0.663122 0.748511 0.000000
vn 0.663122 0.748511 0.000000
vn 1.000000 0.000000 0.000000
vn 1.000000 0.000000 0.000000
vn 0.000000 0.000000 1.000000
vn 0.000000 0.000000 1.000000
vn 0.000000 -1.000000 0.000000
vn 0.000000 -1.000000 0.000000
vn 0.464723 0.885456 0.000000
vn 0.464723 0.885456 0.000000
vn 0.239316 0.970942 0.000000
vn 0.239316 0.970942 0.000000
vn -0.992709 -0.120537 -0.000000
vn -0.992709 -0.120537 0.000000
vn -0.000000 1.000000 0.000000
vn 0.000000 1.000000 0.000000
vn -0.935016 -0.354605 0.000000
vn -0.239316 0.970942 0.000000
vn -0.935016 -0.354605 -0.000000
vn -0.239316 0.970942 0.000000
vn -0.822984 -0.568065 0.000000
vn -0.464723 0.885456 0.000000
vn -0.464723 0.885456 0.000000
vn -0.822984 -0.568065 -0.000000
vn -0.663123 -0.748511 0.000000
vn -0.663123 0.748511 0.000000
vn -0.663123 0.748511 0.000000
vn -0.663123 -0.748511 -0.000000
vn -0.464723 -0.885456 0.000000
vn -0.822984 0.568065 0.000000
vn -0.822984 0.568065 0.000000
vn -0.464723 -0.885456 -0.000000
vn -0.935016 0.354605 0.000000
vn -0.935016 0.354605 0.000000
vn -0.239316 -0.970942 0.000000
vn -0.992709 0.120537 0.000000
vn -0.239316 -0.970942 -0.000000
vn -0.992709 0.120537 0.000000
vn 0.000000 -1.000000 0.000000
vn -0.000000 -1.000000 -0.000000
vn 0.239316 -0.970942 0.000000
vn 0.239316 -0.970942 0.000000
vn 0.464723 -0.885456 0.000000
vn 0.464723 -0.885456 0.000000
vn 0.663123 -0.748511 0.000000
vn 0.663123 -0.748511 0.000000
vn 0.822984 -0.568065 0.000000
vn 0.822984 -0.568065 0.000000
vn 0.935016 -0.354605 0.000000
vn 0.935016 -0.354605 0.000000
vn 0.992709 -0.120537 0.000000
vn 0.992709 -0.120537 0.000000
vn 0.992709 0.120537 0.000000
vn 0.992709 0.120537 0.000000
vn 0.935016 0.354605 0.000000
vn 0.935016 0.354605 0.000000
vn 0.822984 0.568065 0.000000
vn 0.822984 0.568065 0.000000
vn 0.663123 0.748511 0.000000
vn 0.663123 0.748511 0.000000
vn 0.000000 0.000000 1.000000
vn 0.000000 0.000000 1.000000
vn 0.000000 0.000000 1.000000
vn 0.000000 0.000000 1.000000
vn 0.000000 0.000000 1.000000
vn 0.000000 0.000000 1.000000
vn 0.000000 0.000000 1.000000
vn 0.000000 0.000000 1.000000
vn 0.000000 0.000000 1.000000
vn 0.000000 0.000000 1.000000
vn 0.000000 0.000000 1.000000
vn 0.000000 0.000000 1.000000
vn 0.000000 0.000000 1.000000
vn 0.000000 0.000000 1.000000
vn 0.000000 0.000000 1.000000
vn 0.000000 0.000000 1.000000
vn 0.000000 0.000000 1.000000
vn 0.000000 0.000000 1.000000
vn 0.000000 0.000000 1.000000
vn 0.000000 0.000000 1.000000
vn 0.000000 0.000000 1.000000
vn 0.000000 0.000000 1.000000
vn 0.000000 0.000000 1.000000
vn 0.000000 0.000000 1.000000
vn 0.000000 0.000000 1.000000
vn 0.000000 0.000000 1.000000
vn 0.000000 0.000000 1.000000
vn 0.000000 0.000000 1.000000
vn 0.000000 0.000000 1.000000
vn 0.000000 0.000000 1.000000
vn 0.000000 0.000000 1.000000
vn 0.000000 0.000000 1.000000
vn 0.000000 0.000000 1.000000
vn 0.000000 0.000000 1.000000
vn 0.000000 0.000000 1.000000
vn 0.000000 0.000000 1.000000
vn 0.000000 0.000000 1.000000
vn 0.000000 0.000000 1.000000
vn 0.000000 0.000000 1.000000
vn 0.000000 0.000000 1.000000
vn 0.000000 0.000000 1.000000
vn 0.000000 0.000000 1.000000
vn 0.000000 0.000000 1.000000
vn 0.000000 0.000000 1.000000
vn 0.000000 0.000000 1.000000
vn 0.000000 0.000000 1.000000
vn 0.000000 0.000000 1.000000
vn 0.000000 0.000000 1.000000
vn 0.000000 0.000000 1.000000
vn 0.000000 0.000000 1.000000
vn 0.000000 0.000000 1.000000
vn 0.000000 0.000000 1.000000
f 1//1 2//1 3//1
f 4//2 3//2 5//2
f 4//3 1//3 3//3
f 6//4 7//4 8//4
f 1//5 8//5 2//5
f 1//6 6//6 8//6
f 9//7 4//7 5//7
f 9//8 5//8 10//8
f 11//9 12//9 9//9
f 13//10 9//10 12//10
f 14//11 11//11 9//11
f 15//12 9//12 13//12
f 16//13 14//13 9//13
f 17//14 9//14 15//14
f 4//15 17//15 18//15
f 4//16 18//16 19//16
f 4//17 19//17 20//17
f 4//18 9//18 17//18
f 6//19 21//19 22//19
f 6//20 22//20 23//20
f 6//21 23//21 16//21
f 6//22 16//22 9//22
f 24//23 21//23 6//23
f 25//24 4//24 20//24
f 26//25 24//25 6//25
f 27//26 4//26 25//26
f 28//27 26//27 6//27
f 29//28 4//28 27//28
f 30//29 28//29 6//29
f 1//30 29//30 31//30
f 1//31 31//31 32//31
f 1//32 32//32 33//32
f 1//33 33//33 34//33
f 1//34 34//34 35//34
f 1//35 35//35 36//35
f 1//36 36//36 30//36
f 1//37 30//37 6//37
f 1//38 4//38 29//38
f 3//39 2//39 37//39
f 3//40 37//40 38//40
f 5//41 3//41 39//41
f 3//42 40//42 41//42
f 41//43 40//43 42//43
f 42//44 40//44 43//44
f 7//45 10//45 40//45
f 44//46 45//46 10//46
f 10//47 46//47 44//47
f 45//48 47//48 10//48
f 10//49 48//49 46//49
f 10//50 49//50 40//50
f 47//51 49//51 10//51
f 10//52 50//52 48//52
f 49//53 51//53 40//53
f 51//54 52//54 40//54
f 52//55 53//55 40//55
f 50//56 5//56 54//56
f 54//57 5//57 55//57
f 55//58 5//58 56//58
f 10//59 5//59 50//59
f 40//60 8//60 7//60
f 53//61 57//61 40//61
f 5//62 58//62 56//62
f 57//63 43//63 40//63
f 5//64 59//64 58//64
f 5//65 39//65 59//65
f 39//66 3//66 60//66
f 60//67 3//67 61//67
f 61//68 3//68 62//68
f 62//69 3//69 63//69
f 63//70 3//70 64//70
f 64//71 3//71 65//71
f 65//72 3//72 41//72
f 6//73 9//73 10//73
f 6//74 10//74 7//74
f 2//75 8//75 66//75
f 2//76 66//76 37//76
f 67//77 68//77 21//77
f 21//78 68//78 22//78
f 68//79 69//79 22//79
f 22//80 69//80 23//80
f 17//81 70//81 18//81
f 69//82 71//82 23//82
f 72//83 70//83 17//83
f 23//84 71//84 16//84
f 18//85 73//85 19//85
f 71//86 74//86 16//86
f 70//87 73//87 18//87
f 16//88 74//88 14//88
f 19//89 75//89 20//89
f 74//90 76//90 14//90
f 14//91 76//91 11//91
f 73//92 75//92 19//92
f 20//93 77//93 25//93
f 76//94 78//94 11//94
f 11//95 78//95 12//95
f 75//96 77//96 20//96
f 25//97 79//97 27//97
f 12//98 80//98 13//98
f 77//99 79//99 25//99
f 78//100 80//100 12//100
f 13//101 81//101 15//101
f 27//102 82//102 29//102
f 80//103 81//103 13//103
f 15//104 72//104 17//104
f 79//105 82//105 27//105
f 81//106 72//106 15//106
f 29//107 83//107 31//107
f 82//108 83//108 29//108
f 31//109 84//109 32//109
f 83//110 84//110 31//110
f 32//111 85//111 33//111
f 84//112 85//112 32//112
f 33//113 86//113 34//113
f 85//114 86//114 33//114
f 34//115 87//115 35//115
f 86//116 87//116 34//116
f 87//117 88//117 35//117
f 35//118 88//118 36//118
f 88//119 89//119 36//119
f 36//120 89//120 30//120
f 89//121 90//121 30//121
f 30//122 90//122 28//122
f 90//123 91//123 28//123
f 28//124 91//124 26//124
f 91//125 92//125 26//125
f 26//126 92//126 24//126
f 92//127 67//127 24//127
f 24//128 67//128 21//128
f 40//129 3//129 38//129
f 40//130 38//130 93//130
f 38//131 37//131 93//131
f 93//132 37//132 66//132
f 8//133 40//133 93//133
f 8//134 93//134 66//134
f 53//135 52//135 94//135
f 94//136 52//136 95//136
f 52//137 51//137 95//137
f 95//138 51//138 96//138
f 50//139 54//139 97//139
f 97//140 54//140 98//140
f 51//141 49//141 96//141
f 96//142 49//142 99//142
f 98//143 55//143 100//143
f 49//144 47//144 99//144
f 54//145 55//145 98//145
f 99//146 47//146 101//146
f 100//147 56//147 102//147
f 47//148 45//148 101//148
f 101//149 45//149 103//149
f 55//150 56//150 100//150
f 102//151 58//151 104//151
f 45//152 44//152 103//152
f 103//153 44//153 105//153
f 56//154 58//154 102//154
f 104//155 59//155 106//155
f 105//156 46//156 107//156
f 44//157 46//157 105//157
f 58//158 59//158 104//158
f 107//159 48//159 108//159
f 46//160 48//160 107//160
f 106//161 39//161 109//161
f 48//162 50//162 108//162
f 59//163 39//163 106//163
f 108//164 50//164 97//164
f 109//165 60//165 110//165
f 39//166 60//166 109//166
f 110//167 61//167 111//167
f 60//168 61//168 110//168
f 111//169 62//169 112//169
f 61//170 62//170 111//170
f 112//171 63//171 113//171
f 62//172 63//172 112//172
f 113//173 64//173 114//173
f 63//174 64//174 113//174
f 64//175 65//175 114//175
f 114//176 65//176 115//176
f 65//177 41//177 115//177
f 115//178 41//178 116//178
f 41//179 42//179 116//179
f 116//180 42//180 117//180
f 42//181 43//181 117//181
f 117//182 43//182 118//182
f 43//183 57//183 118//183
f 118//184 57//184 119//184
f 57//185 53//185 119//185
f 119//186 53//186 94//186
f 107//187 80//187 105//187
f 111//188 112//188 84//188
f 108//189 80//189 107//189
f 108//190 81//190 80//190
f 67//191 119//191 94//191
f 67//192 92//192 119//192
f 91//193 118//193 119//193
f 91//194 119//194 92//194
f 68//195 94//195 95//195
f 68//196 67//196 94//196
f 90//197 117//197 118//197
f 90//198 118//198 91//198
f 110//199 111//199 84//199
f 69//200 95//200 96//200
f 110//201 84//201 83//201
f 69//202 68//202 95//202
f 89//203 116//203 117//203
f 97//204 81//204 108//204
f 97//205 72//205 81//205
f 89//206 117//206 90//206
f 109//207 83//207 82//207
f 71//208 96//208 99//208
f 109//209 110//209 83//209
f 98//210 70//210 72//210
f 71//211 69//211 96//211
f 98//212 72//212 97//212
f 88//213 115//213 116//213
f 88//214 116//214 89//214
f 106//215 82//215 79//215
f 106//216 109//216 82//216
f 100//217 73//217 70//217
f 74//218 99//218 101//218
f 100//219 70//219 98//219
f 74//220 71//220 99//220
f 104//221 79//221 77//221
f 87//222 114//222 115//222
f 104//223 106//223 79//223
f 102//224 73//224 100//224
f 102//225 75//225 73//225
f 102//226 77//226 75//226
f 102//227 104//227 77//227
f 87//228 115//228 88//228
f 76//229 101//229 103//229
f 76//230 74//230 101//230
f 86//231 113//231 114//231
f 86//232 114//232 87//232
f 78//233 76//233 103//233
f 105//234 78//234 103//234
f 112//235 113//235 86//235
f 112//236 86//236 85//236
f 80//237 78//237 105//237
f 84//238 112//238 85//238
