# Created by FreeCAD <http://www.freecadweb.org>
v -5.000000 -10.000000 0.000000
v -5.000000 -10.000000 11.500000
v -5.000000 -4.700000 6.500000
v -5.000000 -4.700000 1.000000
v -5.000000 -5.700000 -0.000000
v -5.000000 -5.266116 0.099031
v -5.000000 -5.477479 0.025072
v -5.000000 -4.799031 0.566116
v -5.000000 -4.725072 0.777479
v -5.000000 -4.918169 0.376510
v -5.000000 -5.076510 0.218169
v -5.000000 7.000000 11.500000
v -5.000000 7.000000 16.000000
v -5.000000 10.000000 16.000000
v -5.000000 4.700000 6.500000
v -5.000000 4.799031 0.566116
v -5.000000 4.725072 0.777479
v -5.000000 4.700000 1.000000
v -5.000000 5.266116 0.099031
v -5.000000 4.918169 0.376510
v -5.000000 5.076510 0.218169
v -5.000000 5.700000 -0.000000
v -5.000000 5.477479 0.025072
v -5.000000 10.000000 0.000000
v 5.000000 4.700000 1.000000
v 5.000000 4.700000 6.500000
v 5.000000 4.725072 0.777479
v 5.000000 4.799031 0.566116
v 5.000000 4.918169 0.376510
v 5.000000 5.076510 0.218169
v 5.000000 5.266116 0.099031
v 5.000000 5.477479 0.025072
v 5.000000 5.700000 -0.000000
v -0.295088 1.687605 6.500000
v 0.102828 1.589528 6.500000
v 0.465710 1.399073 6.500000
v 0.772468 1.127308 6.500000
v 1.005275 0.790029 6.500000
v 1.150601 0.406837 6.500000
v 1.200000 0.000000 6.500000
v -1.772468 -1.127308 6.500000
v -1.465710 -1.399073 6.500000
v -2.005275 -0.790029 6.500000
v 5.000000 -4.700000 6.500000
v -1.102828 -1.589528 6.500000
v -2.150601 -0.406837 6.500000
v -0.704912 -1.687605 6.500000
v -2.200000 -0.000000 6.500000
v -0.295088 -1.687605 6.500000
v -2.150601 0.406837 6.500000
v -2.005275 0.790029 6.500000
v -1.772468 1.127308 6.500000
v -1.465710 1.399073 6.500000
v 1.005275 -0.790029 6.500000
v 0.772468 -1.127308 6.500000
v 0.465710 -1.399073 6.500000
v 0.102828 -1.589528 6.500000
v -1.102828 1.589528 6.500000
v 1.150601 -0.406837 6.500000
v -0.704912 1.687605 6.500000
v 5.000000 10.000000 0.000000
v 5.000000 -4.700000 1.000000
v 5.000000 10.000000 16.000000
v 5.000000 -5.700000 -0.000000
v 5.000000 -5.477479 0.025072
v 5.000000 -5.266116 0.099031
v 5.000000 -5.076510 0.218169
v 5.000000 -4.918169 0.376510
v 5.000000 -4.799031 0.566116
v 5.000000 -4.725072 0.777479
v 5.000000 7.000000 16.000000
v 5.000000 -10.000000 0.000000
v 5.000000 7.000000 11.500000
v 5.000000 -10.000000 11.500000
v 1.595830 -1.856743 11.500000
v 1.090581 -2.304355 11.500000
v 1.979277 -1.301225 11.500000
v 0.492894 -2.618046 11.500000
v 2.218637 -0.670084 11.500000
v -0.162497 -2.779585 11.500000
v 2.300000 0.000000 11.500000
v -0.837503 -2.779585 11.500000
v -1.492894 -2.618046 11.500000
v -2.090581 -2.304355 11.500000
v -2.595830 -1.856743 11.500000
v -2.979277 -1.301225 11.500000
v 2.218637 0.670084 11.500000
v 1.979277 1.301225 11.500000
v 1.595830 1.856743 11.500000
v 1.090581 2.304355 11.500000
v 0.492894 2.618046 11.500000
v -3.218637 -0.670084 11.500000
v -0.162497 2.779585 11.500000
v -3.300000 0.000000 11.500000
v -0.837503 2.779585 11.500000
v -1.492894 2.618046 11.500000
v -2.090581 2.304355 11.500000
v -2.595830 1.856743 11.500000
v -2.979277 1.301225 11.500000
v -3.218637 0.670084 11.500000
v -1.465710 1.399073 8.500000
v -1.102828 1.589528 8.500000
v -0.704912 1.687605 8.500000
v 1.200000 0.000000 8.500000
v 1.150601 -0.406837 8.500000
v -0.295088 1.687605 8.500000
v 1.005275 -0.790029 8.500000
v 0.102828 1.589528 8.500000
v 0.772468 -1.127308 8.500000
v 0.465710 1.399073 8.500000
v 0.465710 -1.399073 8.500000
v 0.772468 1.127308 8.500000
v 0.102828 -1.589528 8.500000
v 1.005275 0.790029 8.500000
v 1.150601 0.406837 8.500000
v -0.295088 -1.687605 8.500000
v -0.704912 -1.687605 8.500000
v -1.102828 -1.589528 8.500000
v -1.465710 -1.399073 8.500000
v -1.772468 -1.127308 8.500000
v -2.005275 -0.790029 8.500000
v -2.150601 -0.406837 8.500000
v -2.200000 -0.000000 8.500000
v -2.150601 0.406837 8.500000
v -2.005275 0.790029 8.500000
v -1.772468 1.127308 8.500000
v -1.492894 -2.618046 8.500000
v -0.837503 -2.779585 8.500000
v -0.162497 -2.779585 8.500000
v 2.300000 0.000000 8.500000
v 2.218637 0.670084 8.500000
v 0.492894 -2.618046 8.500000
v 1.979277 1.301225 8.500000
v 1.090581 -2.304355 8.500000
v 1.595830 -1.856743 8.500000
v 1.595830 1.856743 8.500000
v 1.979277 -1.301225 8.500000
v 1.090581 2.304355 8.500000
v 2.218637 -0.670084 8.500000
v 0.492894 2.618046 8.500000
v -0.162497 2.779585 8.500000
v -0.837503 2.779585 8.500000
v -1.492894 2.618046 8.500000
v -2.090581 2.304355 8.500000
v -2.595830 1.856743 8.500000
v -2.979277 1.301225 8.500000
v -3.218637 0.670084 8.500000
v -3.300000 0.000000 8.500000
v -3.218637 -0.670084 8.500000
v -2.979277 -1.301225 8.500000
v -2.595830 -1.856743 8.500000
v -2.090581 -2.304355 8.500000
vn -1.000000 0.000000 0.000000
vn -1.000000 -0.000000 0.000000
vn -1.000000 0.000000 0.000000
vn -1.000000 0.000000 0.000000
vn -1.000000 0.000000 0.000000
vn -1.000000 -0.000000 0.000000
vn -1.000000 0.000000 0.000000
vn -1.000000 0.000000 0.000000
vn -1.000000 -0.000000 0.000000
vn -1.000000 0.000000 0.000000
vn -1.000000 0.000000 0.000000
vn -1.000000 0.000000 0.000000
vn -1.000000 0.000000 0.000000
vn -1.000000 0.000000 0.000000
vn -1.000000 0.000000 0.000000
vn -1.000000 0.000000 0.000000
vn -1.000000 0.000000 0.000000
vn -1.000000 0.000000 0.000000
vn -1.000000 0.000000 0.000000
vn -1.000000 0.000000 0.000000
vn -1.000000 -0.000000 0.000000
vn -1.000000 0.000000 0.000000
vn 0.000000 -1.000000 0.000000
vn 0.000000 -1.000000 0.000000
vn 0.000000 -0.993712 -0.111965
vn 0.000000 -0.993712 -0.111965
vn 0.000000 -0.943883 -0.330280
vn 0.000000 -0.943883 -0.330280
vn 0.000000 -0.846724 -0.532032
vn 0.000000 -0.846724 -0.532032
vn 0.000000 -0.707106 -0.707107
vn 0.000000 -0.707106 -0.707107
vn 0.000000 -0.532033 -0.846724
vn 0.000000 -0.532033 -0.846724
vn 0.000000 -0.330279 -0.943883
vn 0.000000 -0.330279 -0.943883
vn 0.000000 -0.111965 -0.993712
vn 0.000000 -0.111965 -0.993712
vn 0.000000 0.000000 -1.000000
vn 0.000000 0.000000 -1.000000
vn 0.000000 0.000000 -1.000000
vn 0.000000 0.000000 -1.000000
vn 0.000000 0.000000 -1.000000
vn 0.000000 0.000000 -1.000000
vn 0.000000 -0.000000 -1.000000
vn 0.000000 0.000000 -1.000000
vn 0.000000 0.000000 -1.000000
vn 0.000000 0.000000 -1.000000
vn 0.000000 -0.000000 -1.000000
vn 0.000000 0.000000 -1.000000
vn 0.000000 -0.000000 -1.000000
vn 0.000000 0.000000 -1.000000
vn 0.000000 -0.000000 -1.000000
vn 0.000000 0.000000 -1.000000
vn 0.000000 0.000000 -1.000000
vn 0.000000 0.000000 -1.000000
vn 0.000000 0.000000 -1.000000
vn 0.000000 0.000000 -1.000000
vn 0.000000 -0.000000 -1.000000
vn 0.000000 -0.000000 -1.000000
vn 0.000000 -0.000000 -1.000000
vn 0.000000 -0.000000 -1.000000
vn 0.000000 -0.000000 -1.000000
vn 0.000000 0.000000 -1.000000
vn 0.000000 0.000000 -1.000000
vn 0.000000 0.000000 -1.000000
vn 0.000000 0.000000 -1.000000
vn 0.000000 0.000000 -1.000000
vn 0.000000 0.000000 -1.000000
vn 0.000000 0.000000 -1.000000
vn 0.000000 1.000000 0.000000
vn 0.000000 1.000000 -0.000000
vn 0.000000 1.000000 0.000000
vn 0.000000 1.000000 -0.000000
vn 0.000000 0.111965 -0.993712
vn 0.000000 0.330279 -0.943883
vn 0.000000 0.111965 -0.993712
vn 0.000000 0.532033 -0.846724
vn 0.000000 0.330279 -0.943883
vn 0.000000 0.707106 -0.707107
vn 0.000000 0.532033 -0.846724
vn 0.000000 0.846724 -0.532032
vn 0.000000 0.707106 -0.707107
vn 0.000000 0.943883 -0.330280
vn 0.000000 0.846724 -0.532032
vn 0.000000 0.993712 -0.111965
vn 0.000000 0.943883 -0.330280
vn 0.000000 0.993712 -0.111965
vn 0.000000 0.000000 1.000000
vn 0.000000 0.000000 1.000000
vn 0.000000 -0.000000 -1.000000
vn 0.000000 -0.000000 -1.000000
vn -0.000000 -1.000000 0.000000
vn 0.000000 -1.000000 -0.000000
vn 0.000000 -1.000000 0.000000
vn 0.000000 -1.000000 0.000000
vn 0.000000 0.000000 1.000000
vn 0.000000 0.000000 1.000000
vn 0.000000 0.000000 1.000000
vn 0.000000 0.000000 1.000000
vn 0.000000 0.000000 1.000000
vn 0.000000 0.000000 1.000000
vn 0.000000 0.000000 1.000000
vn 0.000000 0.000000 1.000000
vn 0.000000 0.000000 1.000000
vn 0.000000 0.000000 1.000000
vn 0.000000 0.000000 1.000000
vn 0.000000 0.000000 1.000000
vn 0.000000 -0.000000 1.000000
vn 0.000000 -0.000000 1.000000
vn 0.000000 -0.000000 1.000000
vn 0.000000 -0.000000 1.000000
vn 0.000000 -0.000000 1.000000
vn 0.000000 0.000000 1.000000
vn 0.000000 0.000000 1.000000
vn 0.000000 0.000000 1.000000
vn 0.000000 0.000000 1.000000
vn 0.000000 0.000000 1.000000
vn 0.000000 0.000000 1.000000
vn 0.000000 0.000000 1.000000
vn 0.000000 0.000000 1.000000
vn 0.000000 0.000000 1.000000
vn 0.000000 0.000000 1.000000
vn 0.000000 0.000000 1.000000
vn 0.000000 0.000000 1.000000
vn 0.000000 0.000000 1.000000
vn 1.000000 0.000000 0.000000
vn 1.000000 0.000000 -0.000000
vn 1.000000 0.000000 0.000000
vn 1.000000 0.000000 0.000000
vn 1.000000 -0.000000 0.000000
vn 1.000000 0.000000 0.000000
vn 1.000000 0.000000 0.000000
vn 1.000000 -0.000000 -0.000000
vn 1.000000 0.000000 0.000000
vn 1.000000 0.000000 0.000000
vn 1.000000 -0.000000 -0.000000
vn 1.000000 0.000000 0.000000
vn 1.000000 0.000000 0.000000
vn 1.000000 0.000000 0.000000
vn 1.000000 0.000000 0.000000
vn 1.000000 0.000000 0.000000
vn 1.000000 0.000000 0.000000
vn 1.000000 0.000000 0.000000
vn 1.000000 0.000000 0.000000
vn 1.000000 -0.000000 0.000000
vn 1.000000 0.000000 0.000000
vn 1.000000 0.000000 0.000000
vn 0.464723 -0.885456 0.000000
vn 0.464723 -0.885456 0.000000
vn 0.239316 -0.970942 0.000000
vn 0.239316 -0.970942 0.000000
vn -0.992709 0.120537 0.000000
vn 0.000000 -1.000000 0.000000
vn -0.992709 0.120537 0.000000
vn 0.000000 -1.000000 0.000000
vn -0.935016 0.354605 0.000000
vn -0.239316 -0.970942 0.000000
vn -0.935016 0.354605 0.000000
vn -0.239316 -0.970942 0.000000
vn -0.822984 0.568065 0.000000
vn -0.464723 -0.885456 0.000000
vn -0.464723 -0.885456 0.000000
vn -0.822984 0.568065 0.000000
vn -0.663123 0.748511 0.000000
vn -0.663123 -0.748511 0.000000
vn -0.663123 -0.748511 0.000000
vn -0.663123 0.748511 0.000000
vn -0.464723 0.885456 0.000000
vn -0.822984 -0.568065 0.000000
vn -0.464723 0.885456 0.000000
vn -0.822984 -0.568065 0.000000
vn -0.935016 -0.354605 0.000000
vn -0.239316 0.970942 0.000000
vn -0.935016 -0.354605 0.000000
vn -0.992709 -0.120537 0.000000
vn -0.239316 0.970942 0.000000
vn -0.992709 -0.120537 0.000000
vn 0.000000 1.000000 0.000000
vn 0.000000 1.000000 -0.000000
vn 0.239316 0.970942 0.000000
vn 0.239316 0.970942 -0.000000
vn 0.464723 0.885456 0.000000
vn 0.464723 0.885456 -0.000000
vn 0.663123 0.748511 0.000000
vn 0.663123 0.748511 -0.000000
vn 0.822984 0.568065 0.000000
vn 0.822984 0.568065 -0.000000
vn 0.935016 0.354605 -0.000000
vn 0.935016 0.354605 0.000000
vn 0.992709 0.120537 -0.000000
vn 0.992709 0.120537 0.000000
vn 0.992709 -0.120537 0.000000
vn 0.992709 -0.120537 0.000000
vn 0.935016 -0.354605 0.000000
vn 0.935016 -0.354605 0.000000
vn 0.822984 -0.568065 0.000000
vn 0.822984 -0.568065 0.000000
vn 0.663123 -0.748511 0.000000
vn 0.663123 -0.748511 0.000000
vn 0.239316 0.970942 0.000000
vn 0.239316 0.970942 0.000000
vn -0.000000 1.000000 0.000000
vn 0.000000 1.000000 0.000000
vn -0.992709 -0.120537 -0.000000
vn -0.239316 0.970942 0.000000
vn -0.992709 -0.120537 0.000000
vn -0.239316 0.970942 0.000000
vn -0.464723 0.885456 0.000000
vn -0.935016 -0.354605 0.000000
vn -0.464723 0.885456 0.000000
vn -0.935016 -0.354605 -0.000000
vn -0.663123 0.748511 0.000000
vn -0.663123 0.748511 0.000000
vn -0.822984 -0.568065 0.000000
vn -0.822984 -0.568065 -0.000000
vn -0.822984 0.568065 0.000000
vn -0.822984 0.568065 0.000000
vn -0.663123 -0.748511 0.000000
vn -0.663123 -0.748511 -0.000000
vn -0.935016 0.354605 0.000000
vn -0.935016 0.354605 0.000000
vn -0.464723 -0.885456 0.000000
vn -0.992709 0.120537 0.000000
vn -0.464723 -0.885456 -0.000000
vn -0.992709 0.120537 0.000000
vn -0.239316 -0.970942 0.000000
vn -0.239316 -0.970942 -0.000000
vn 0.000000 -1.000000 0.000000
vn -0.000000 -1.000000 -0.000000
vn 0.239316 -0.970942 0.000000
vn 0.239316 -0.970942 0.000000
vn 0.464723 -0.885456 0.000000
vn 0.464723 -0.885456 0.000000
vn 0.663123 -0.748511 0.000000
vn 0.663123 -0.748511 0.000000
vn 0.822984 -0.568065 0.000000
vn 0.822984 -0.568065 0.000000
vn 0.935016 -0.354605 0.000000
vn 0.935016 -0.354605 0.000000
vn 0.992709 -0.120537 0.000000
vn 0.992709 -0.120537 0.000000
vn 0.992709 0.120537 0.000000
vn 0.992709 0.120537 0.000000
vn 0.935016 0.354605 0.000000
vn 0.935016 0.354605 0.000000
vn 0.822984 0.568065 0.000000
vn 0.822984 0.568065 0.000000
vn 0.663123 0.748511 0.000000
vn 0.663123 0.748511 0.000000
vn 0.464723 0.885456 0.000000
vn 0.464723 0.885456 0.000000
vn 0.000000 0.000000 1.000000
vn 0.000000 0.000000 1.000000
vn 0.000000 0.000000 1.000000
vn 0.000000 0.000000 1.000000
vn 0.000000 0.000000 1.000000
vn 0.000000 0.000000 1.000000
vn 0.000000 0.000000 1.000000
vn 0.000000 0.000000 1.000000
vn 0.000000 0.000000 1.000000
vn 0.000000 0.000000 1.000000
vn 0.000000 0.000000 1.000000
vn 0.000000 0.000000 1.000000
vn 0.000000 0.000000 1.000000
vn 0.000000 0.000000 1.000000
vn 0.000000 0.000000 1.000000
vn 0.000000 0.000000 1.000000
vn 0.000000 0.000000 1.000000
vn 0.000000 0.000000 1.000000
vn 0.000000 0.000000 1.000000
vn 0.000000 0.000000 1.000000
vn 0.000000 0.000000 1.000000
vn 0.000000 0.000000 1.000000
vn 0.000000 0.000000 1.000000
vn 0.000000 0.000000 1.000000
vn 0.000000 0.000000 1.000000
vn 0.000000 0.000000 1.000000
vn 0.000000 0.000000 1.000000
vn 0.000000 0.000000 1.000000
vn 0.000000 0.000000 1.000000
vn 0.000000 0.000000 1.000000
vn 0.000000 0.000000 1.000000
vn 0.000000 0.000000 1.000000
vn 0.000000 0.000000 1.000000
vn 0.000000 0.000000 1.000000
vn 0.000000 0.000000 1.000000
vn 0.000000 0.000000 1.000000
vn 0.000000 0.000000 1.000000
vn 0.000000 0.000000 1.000000
vn 0.000000 0.000000 1.000000
vn 0.000000 0.000000 1.000000
vn 0.000000 0.000000 1.000000
vn 0.000000 0.000000 1.000000
vn 0.000000 0.000000 1.000000
vn 0.000000 0.000000 1.000000
vn 0.000000 0.000000 1.000000
vn 0.000000 0.000000 1.000000
vn 0.000000 0.000000 1.000000
vn 0.000000 0.000000 1.000000
vn 0.000000 0.000000 1.000000
vn 0.000000 0.000000 1.000000
vn 0.000000 0.000000 1.000000
vn 0.000000 0.000000 1.000000
f 1//1 2//1 3//1
f 4//2 1//2 3//2
f 5//3 1//3 4//3
f 6//4 7//4 5//4
f 8//5 4//5 9//5
f 10//6 5//6 4//6
f 10//7 4//7 8//7
f 11//8 6//8 5//8
f 11//9 5//9 10//9
f 12//10 13//10 14//10
f 15//11 3//11 12//11
f 16//12 17//12 18//12
f 19//13 20//13 16//13
f 19//14 21//14 20//14
f 22//15 23//15 19//15
f 22//16 16//16 18//16
f 22//17 19//17 16//17
f 24//18 18//18 15//18
f 24//19 12//19 14//19
f 24//20 15//20 12//20
f 24//21 22//21 18//21
f 2//22 12//22 3//22
f 15//23 25//23 26//23
f 18//24 25//24 15//24
f 25//25 17//25 27//25
f 18//26 17//26 25//26
f 27//27 16//27 28//27
f 17//28 16//28 27//28
f 28//29 20//29 29//29
f 16//30 20//30 28//30
f 29//31 21//31 30//31
f 20//32 21//32 29//32
f 30//33 19//33 31//33
f 21//34 19//34 30//34
f 31//35 23//35 32//35
f 19//36 23//36 31//36
f 32//37 22//37 33//37
f 23//38 22//38 32//38
f 34//39 26//39 35//39
f 35//40 26//40 36//40
f 36//41 26//41 37//41
f 37//42 26//42 38//42
f 38//43 26//43 39//43
f 39//44 26//44 40//44
f 41//45 42//45 3//45
f 3//46 43//46 41//46
f 40//47 26//47 44//47
f 15//48 26//48 34//48
f 42//49 45//49 3//49
f 3//50 46//50 43//50
f 45//51 47//51 3//51
f 3//52 48//52 46//52
f 47//53 49//53 3//53
f 48//54 15//54 50//54
f 50//55 15//55 51//55
f 51//56 15//56 52//56
f 3//57 15//57 48//57
f 15//58 53//58 52//58
f 54//59 44//59 55//59
f 55//60 44//60 56//60
f 56//61 44//61 57//61
f 57//62 44//62 49//62
f 49//63 44//63 3//63
f 15//64 58//64 53//64
f 54//65 59//65 44//65
f 15//66 60//66 58//66
f 59//67 40//67 44//67
f 15//68 34//68 60//68
f 24//69 33//69 22//69
f 24//70 61//70 33//70
f 44//71 4//71 3//71
f 62//72 4//72 44//72
f 24//73 14//73 63//73
f 61//74 24//74 63//74
f 64//75 5//75 7//75
f 65//76 7//76 6//76
f 65//77 64//77 7//77
f 66//78 6//78 11//78
f 66//79 65//79 6//79
f 67//80 11//80 10//80
f 67//81 66//81 11//81
f 68//82 10//82 8//82
f 68//83 67//83 10//83
f 69//84 8//84 9//84
f 69//85 68//85 8//85
f 70//86 9//86 4//86
f 70//87 69//87 9//87
f 62//88 70//88 4//88
f 71//89 14//89 13//89
f 63//90 14//90 71//90
f 5//91 72//91 1//91
f 5//92 64//92 72//92
f 71//93 13//93 12//93
f 71//94 12//94 73//94
f 1//95 74//95 2//95
f 1//96 72//96 74//96
f 75//97 76//97 74//97
f 74//98 77//98 75//98
f 76//99 78//99 74//99
f 74//100 79//100 77//100
f 74//101 80//101 2//101
f 78//102 80//102 74//102
f 74//103 81//103 79//103
f 80//104 82//104 2//104
f 82//105 83//105 2//105
f 83//106 84//106 2//106
f 84//107 85//107 2//107
f 85//108 86//108 2//108
f 81//109 73//109 87//109
f 87//110 73//110 88//110
f 88//111 73//111 89//111
f 89//112 73//112 90//112
f 74//113 73//113 81//113
f 73//114 91//114 90//114
f 86//115 92//115 2//115
f 73//116 93//116 91//116
f 92//117 94//117 2//117
f 93//118 12//118 95//118
f 95//119 12//119 96//119
f 96//120 12//120 97//120
f 97//121 12//121 98//121
f 98//122 12//122 99//122
f 99//123 12//123 100//123
f 100//124 12//124 94//124
f 73//125 12//125 93//125
f 12//126 2//126 94//126
f 73//127 63//127 71//127
f 61//128 63//128 73//128
f 61//129 73//129 26//129
f 25//130 33//130 61//130
f 25//131 61//131 26//131
f 31//132 32//132 33//132
f 28//133 25//133 27//133
f 29//134 33//134 25//134
f 29//135 25//135 28//135
f 30//136 31//136 33//136
f 30//137 33//137 29//137
f 44//138 26//138 73//138
f 69//139 70//139 62//139
f 66//140 67//140 68//140
f 66//141 68//141 69//141
f 64//142 65//142 66//142
f 64//143 69//143 62//143
f 64//144 66//144 69//144
f 72//145 62//145 44//145
f 72//146 64//146 62//146
f 72//147 44//147 74//147
f 73//148 74//148 44//148
f 53//149 58//149 101//149
f 101//150 58//150 102//150
f 58//151 60//151 102//151
f 102//152 60//152 103//152
f 104//153 59//153 105//153
f 60//154 34//154 103//154
f 40//155 59//155 104//155
f 103//156 34//156 106//156
f 105//157 54//157 107//157
f 34//158 35//158 106//158
f 59//159 54//159 105//159
f 106//160 35//160 108//160
f 107//161 55//161 109//161
f 35//162 36//162 108//162
f 108//163 36//163 110//163
f 54//164 55//164 107//164
f 109//165 56//165 111//165
f 36//166 37//166 110//166
f 110//167 37//167 112//167
f 55//168 56//168 109//168
f 111//169 57//169 113//169
f 112//170 38//170 114//170
f 56//171 57//171 111//171
f 37//172 38//172 112//172
f 114//173 39//173 115//173
f 113//174 49//174 116//174
f 38//175 39//175 114//175
f 115//176 40//176 104//176
f 57//177 49//177 113//177
f 39//178 40//178 115//178
f 116//179 47//179 117//179
f 49//180 47//180 116//180
f 117//181 45//181 118//181
f 47//182 45//182 117//182
f 118//183 42//183 119//183
f 45//184 42//184 118//184
f 119//185 41//185 120//185
f 42//186 41//186 119//186
f 120//187 43//187 121//187
f 41//188 43//188 120//188
f 43//189 46//189 121//189
f 121//190 46//190 122//190
f 46//191 48//191 122//191
f 122//192 48//192 123//192
f 48//193 50//193 123//193
f 123//194 50//194 124//194
f 50//195 51//195 124//195
f 124//196 51//196 125//196
f 51//197 52//197 125//197
f 125//198 52//198 126//198
f 52//199 53//199 126//199
f 126//200 53//200 101//200
f 83//201 82//201 127//201
f 127//202 82//202 128//202
f 82//203 80//203 128//203
f 128//204 80//204 129//204
f 81//205 87//205 130//205
f 80//206 78//206 129//206
f 130//207 87//207 131//207
f 129//208 78//208 132//208
f 78//209 76//209 132//209
f 131//210 88//210 133//210
f 132//211 76//211 134//211
f 87//212 88//212 131//212
f 134//213 75//213 135//213
f 76//214 75//214 134//214
f 133//215 89//215 136//215
f 88//216 89//216 133//216
f 75//217 77//217 135//217
f 135//218 77//218 137//218
f 136//219 90//219 138//219
f 89//220 90//220 136//220
f 137//221 79//221 139//221
f 77//222 79//222 137//222
f 138//223 91//223 140//223
f 139//224 81//224 130//224
f 90//225 91//225 138//225
f 79//226 81//226 139//226
f 140//227 93//227 141//227
f 91//228 93//228 140//228
f 141//229 95//229 142//229
f 93//230 95//230 141//230
f 142//231 96//231 143//231
f 95//232 96//232 142//232
f 143//233 97//233 144//233
f 96//234 97//234 143//234
f 144//235 98//235 145//235
f 97//236 98//236 144//236
f 98//237 99//237 145//237
f 145//238 99//238 146//238
f 99//239 100//239 146//239
f 146//240 100//240 147//240
f 100//241 94//241 147//241
f 147//242 94//242 148//242
f 94//243 92//243 148//243
f 148//244 92//244 149//244
f 92//245 86//245 149//245
f 149//246 86//246 150//246
f 86//247 85//247 150//247
f 150//248 85//248 151//248
f 85//249 84//249 151//249
f 151//250 84//250 152//250
f 84//251 83//251 152//251
f 152//252 83//252 127//252
f 137//253 109//253 135//253
f 137//254 107//254 109//254
f 143//255 144//255 102//255
f 143//256 102//256 103//256
f 139//257 107//257 137//257
f 139//258 105//258 107//258
f 120//259 151//259 152//259
f 119//260 152//260 127//260
f 119//261 120//261 152//261
f 121//262 150//262 151//262
f 121//263 151//263 120//263
f 118//264 127//264 128//264
f 118//265 119//265 127//265
f 122//266 149//266 150//266
f 122//267 150//267 121//267
f 117//268 128//268 129//268
f 117//269 118//269 128//269
f 142//270 143//270 103//270
f 142//271 103//271 106//271
f 123//272 148//272 149//272
f 130//273 104//273 105//273
f 130//274 105//274 139//274
f 123//275 149//275 122//275
f 116//276 129//276 132//276
f 141//277 142//277 106//277
f 141//278 106//278 108//278
f 116//279 117//279 129//279
f 131//280 104//280 130//280
f 124//281 147//281 148//281
f 131//282 115//282 104//282
f 124//283 148//283 123//283
f 140//284 108//284 110//284
f 140//285 141//285 108//285
f 133//286 115//286 131//286
f 133//287 114//287 115//287
f 113//288 116//288 132//288
f 138//289 110//289 112//289
f 125//290 146//290 147//290
f 138//291 140//291 110//291
f 136//292 112//292 114//292
f 136//293 114//293 133//293
f 125//294 147//294 124//294
f 136//295 138//295 112//295
f 134//296 113//296 132//296
f 111//297 113//297 134//297
f 126//298 145//298 146//298
f 126//299 146//299 125//299
f 135//300 109//300 111//300
f 135//301 111//301 134//301
f 101//302 145//302 126//302
f 144//303 145//303 101//303
f 102//304 144//304 101//304
