# Created by FreeCAD <http://www.freecadweb.org>
v 5.000000 5.000000 2.000000
v -5.000000 5.000000 0.000000
v -5.000000 5.000000 2.000000
v 5.000000 5.000000 0.000000
v -5.000000 -5.000000 0.000000
v -5.000000 -5.000000 2.000000
v 5.000000 -5.000000 2.000000
v 5.000000 -5.000000 0.000000
v -1.136129 1.645968 0.000000
v -1.497022 1.326245 0.000000
v -1.770912 0.929446 0.000000
v -1.941884 0.478631 0.000000
v -2.000000 0.000000 0.000000
v 0.241073 1.985418 0.000000
v 1.136129 -1.645968 0.000000
v 1.497022 -1.326245 0.000000
v 1.770912 -0.929446 0.000000
v 0.709210 -1.870032 0.000000
v 1.941884 -0.478631 0.000000
v 0.241073 -1.985418 0.000000
v 2.000000 0.000000 0.000000
v 1.941884 0.478631 0.000000
v 1.770912 0.929446 0.000000
v 1.497022 1.326245 0.000000
v -1.136129 -1.645968 0.000000
v -0.709210 -1.870032 0.000000
v -0.241073 -1.985418 0.000000
v -1.497022 -1.326245 0.000000
v 1.136129 1.645968 0.000000
v -1.770912 -0.929446 0.000000
v 0.709210 1.870032 0.000000
v -1.941884 -0.478631 0.000000
v -0.241073 1.985418 0.000000
v -0.709210 1.870032 0.000000
v 2.786326 -2.118110 2.000000
v 2.265852 -2.667567 2.000000
v 1.639430 -3.092292 2.000000
v -0.566237 3.453893 2.000000
v -1.295484 3.251419 2.000000
v -1.964155 2.896911 2.000000
v -2.540984 2.406948 2.000000
v -2.999000 1.804438 2.000000
v 3.176514 -1.469612 2.000000
v -3.316786 1.117555 2.000000
v -3.479483 0.378417 2.000000
v 0.189486 3.494867 2.000000
v 0.936349 -3.372425 2.000000
v 3.418172 -0.752397 2.000000
v 0.189486 -3.494867 2.000000
v 3.500000 0.000000 2.000000
v 3.418172 0.752397 2.000000
v 3.176514 1.469612 2.000000
v 2.786326 2.118110 2.000000
v -1.964155 -2.896911 2.000000
v -1.295484 -3.251419 2.000000
v -0.566237 -3.453893 2.000000
v -2.540984 -2.406948 2.000000
v 2.265852 2.667567 2.000000
v -2.999000 -1.804438 2.000000
v 1.639430 3.092292 2.000000
v -3.316786 -1.117555 2.000000
v 0.936349 3.372425 2.000000
v -3.479483 -0.378417 2.000000
v -0.709210 -1.870032 6.000000
v -0.241073 -1.985418 6.000000
v 0.241073 -1.985418 6.000000
v 2.000000 0.000000 6.000000
v 1.941884 0.478631 6.000000
v 0.709210 -1.870032 6.000000
v 1.136129 -1.645968 6.000000
v 1.770912 0.929446 6.000000
v 1.497022 -1.326245 6.000000
v 1.497022 1.326245 6.000000
v 1.770912 -0.929446 6.000000
v 1.136129 1.645968 6.000000
v 1.941884 -0.478631 6.000000
v 0.709210 1.870032 6.000000
v 0.241073 1.985418 6.000000
v -0.241073 1.985418 6.000000
v -0.709210 1.870032 6.000000
v -1.136129 1.645968 6.000000
v -1.497022 1.326245 6.000000
v -1.770912 0.929446 6.000000
v -1.941884 0.478631 6.000000
v -2.000000 0.000000 6.000000
v -1.941884 -0.478631 6.000000
v -1.770912 -0.929446 6.000000
v -1.497022 -1.326245 6.000000
v -1.136129 -1.645968 6.000000
v -2.540984 -2.406948 6.000000
v -1.964155 -2.896911 6.000000
v -1.295484 -3.251419 6.000000
v 3.500000 0.000000 6.000000
v -0.566237 -3.453893 6.000000
v 3.418172 0.752397 6.000000
v 0.189486 -3.494867 6.000000
v 3.176514 1.469612 6.000000
v 0.936349 -3.372425 6.000000
v 2.786326 2.118110 6.000000
v 1.639430 -3.092292 6.000000
v 2.265852 2.667567 6.000000
v 2.265852 -2.667567 6.000000
v 1.639430 3.092292 6.000000
v 2.786326 -2.118110 6.000000
v 0.936349 3.372425 6.000000
v 3.176514 -1.469612 6.000000
v 0.189486 3.494867 6.000000
v 3.418172 -0.752397 6.000000
v -0.566237 3.453893 6.000000
v -1.295484 3.251419 6.000000
v -1.964155 2.896911 6.000000
v -2.540984 2.406948 6.000000
v -2.999000 1.804438 6.000000
v -3.316786 1.117555 6.000000
v -3.479483 0.378417 6.000000
v -3.479483 -0.378417 6.000000
v -3.316786 -1.117555 6.000000
v -2.999000 -1.804438 6.000000
vn 0.000000 1.000000 0.000000
vn 0.000000 1.000000 -0.000000
vn -1.000000 -0.000000 0.000000
vn -1.000000 0.000000 0.000000
vn 1.000000 -0.000000 0.000000
vn 1.000000 0.000000 0.000000
vn 0.000000 0.000000 -1.000000
vn 0.000000 0.000000 -1.000000
vn 0.000000 0.000000 -1.000000
vn 0.000000 0.000000 -1.000000
vn 0.000000 0.000000 -1.000000
vn 0.000000 0.000000 -1.000000
vn 0.000000 0.000000 -1.000000
vn 0.000000 -0.000000 -1.000000
vn 0.000000 0.000000 -1.000000
vn 0.000000 -0.000000 -1.000000
vn 0.000000 0.000000 -1.000000
vn 0.000000 -0.000000 -1.000000
vn 0.000000 0.000000 -1.000000
vn 0.000000 0.000000 -1.000000
vn 0.000000 0.000000 -1.000000
vn 0.000000 -0.000000 -1.000000
vn 0.000000 0.000000 -1.000000
vn 0.000000 0.000000 -1.000000
vn 0.000000 0.000000 -1.000000
vn 0.000000 0.000000 -1.000000
vn 0.000000 -0.000000 -1.000000
vn 0.000000 0.000000 -1.000000
vn 0.000000 -0.000000 -1.000000
vn 0.000000 0.000000 -1.000000
vn 0.000000 -0.000000 -1.000000
vn 0.000000 0.000000 -1.000000
vn 0.000000 -0.000000 -1.000000
vn 0.000000 0.000000 -1.000000
vn 0.000000 0.000000 -1.000000
vn 0.000000 0.000000 -1.000000
vn 0.000000 0.000000 1.000000
vn 0.000000 0.000000 1.000000
vn 0.000000 0.000000 1.000000
vn 0.000000 0.000000 1.000000
vn 0.000000 0.000000 1.000000
vn 0.000000 0.000000 1.000000
vn 0.000000 0.000000 1.000000
vn 0.000000 0.000000 1.000000
vn 0.000000 0.000000 1.000000
vn 0.000000 0.000000 1.000000
vn 0.000000 0.000000 1.000000
vn 0.000000 0.000000 1.000000
vn 0.000000 0.000000 1.000000
vn 0.000000 0.000000 1.000000
vn 0.000000 0.000000 1.000000
vn 0.000000 0.000000 1.000000
vn 0.000000 -0.000000 1.000000
vn 0.000000 -0.000000 1.000000
vn 0.000000 -0.000000 1.000000
vn 0.000000 -0.000000 1.000000
vn 0.000000 0.000000 1.000000
vn 0.000000 0.000000 1.000000
vn 0.000000 0.000000 1.000000
vn 0.000000 0.000000 1.000000
vn 0.000000 0.000000 1.000000
vn 0.000000 0.000000 1.000000
vn 0.000000 0.000000 1.000000
vn 0.000000 0.000000 1.000000
vn 0.000000 0.000000 1.000000
vn 0.000000 0.000000 1.000000
vn 0.000000 0.000000 1.000000
vn 0.000000 0.000000 1.000000
vn 0.000000 -0.000000 1.000000
vn 0.000000 -1.000000 0.000000
vn 0.000000 -1.000000 0.000000
vn 0.239316 0.970942 0.000000
vn 0.239316 0.970942 0.000000
vn -0.000000 1.000000 0.000000
vn 0.000000 1.000000 0.000000
vn -0.992709 -0.120537 -0.000000
vn -0.239316 0.970942 0.000000
vn -0.992709 -0.120537 0.000000
vn -0.239316 0.970942 0.000000
vn -0.464723 0.885456 0.000000
vn -0.935016 -0.354605 0.000000
vn -0.464723 0.885456 0.000000
vn -0.935016 -0.354605 -0.000000
vn -0.663123 0.748511 0.000000
vn -0.663123 0.748511 0.000000
vn -0.822984 -0.568065 0.000000
vn -0.822984 -0.568065 -0.000000
vn -0.822984 0.568065 0.000000
vn -0.822984 0.568065 0.000000
vn -0.663123 -0.748511 0.000000
vn -0.663123 -0.748511 -0.000000
vn -0.935016 0.354605 0.000000
vn -0.935016 0.354605 0.000000
vn -0.464723 -0.885456 0.000000
vn -0.992709 0.120537 0.000000
vn -0.464723 -0.885456 -0.000000
vn -0.992709 0.120537 0.000000
vn -0.239316 -0.970942 0.000000
vn -0.239316 -0.970942 -0.000000
vn 0.000000 -1.000000 0.000000
vn -0.000000 -1.000000 -0.000000
vn 0.239316 -0.970942 0.000000
vn 0.239316 -0.970942 0.000000
vn 0.464723 -0.885456 0.000000
vn 0.464723 -0.885456 0.000000
vn 0.663123 -0.748511 0.000000
vn 0.663123 -0.748511 0.000000
vn 0.822984 -0.568065 0.000000
vn 0.822984 -0.568065 0.000000
vn 0.935016 -0.354605 0.000000
vn 0.935016 -0.354605 0.000000
vn 0.992709 -0.120537 0.000000
vn 0.992709 -0.120537 0.000000
vn 0.992709 0.120537 0.000000
vn 0.992709 0.120537 0.000000
vn 0.935016 0.354605 0.000000
vn 0.935016 0.354605 0.000000
vn 0.822984 0.568065 0.000000
vn 0.822984 0.568065 0.000000
vn 0.663123 0.748511 0.000000
vn 0.663123 0.748511 0.000000
vn 0.464723 0.885456 0.000000
vn 0.464723 0.885456 0.000000
vn -0.647386 -0.762162 0.000000
vn -0.468409 -0.883512 0.000000
vn -0.468409 -0.883512 0.000000
vn -0.267528 -0.963550 0.000000
vn 0.994138 0.108119 -0.000000
vn -0.267528 -0.963550 0.000000
vn 0.994138 0.108119 0.000000
vn -0.054139 -0.998533 0.000000
vn -0.054139 -0.998533 0.000000
vn 0.947653 0.319301 0.000000
vn 0.947653 0.319301 -0.000000
vn 0.161782 -0.986827 0.000000
vn 0.161782 -0.986827 0.000000
vn 0.856857 0.515554 0.000000
vn 0.856857 0.515554 -0.000000
vn 0.370138 -0.928977 0.000000
vn 0.725996 0.687699 0.000000
vn 0.370138 -0.928977 0.000000
vn 0.725996 0.687699 -0.000000
vn 0.561187 -0.827689 0.000000
vn 0.561187 -0.827689 0.000000
vn 0.561187 0.827689 0.000000
vn 0.561187 0.827689 -0.000000
vn 0.725996 -0.687699 0.000000
vn 0.370138 0.928977 0.000000
vn 0.725996 -0.687699 0.000000
vn 0.370138 0.928977 -0.000000
vn 0.856857 -0.515554 0.000000
vn 0.856857 -0.515554 0.000000
vn 0.161782 0.986827 0.000000
vn 0.161782 0.986827 -0.000000
vn 0.947653 -0.319301 0.000000
vn 0.947653 -0.319301 0.000000
vn -0.054139 0.998533 0.000000
vn 0.994138 -0.108119 0.000000
vn -0.054139 0.998533 0.000000
vn 0.994138 -0.108119 0.000000
vn -0.267528 0.963550 0.000000
vn -0.267528 0.963550 0.000000
vn -0.468409 0.883512 0.000000
vn -0.468409 0.883512 0.000000
vn -0.647386 0.762162 0.000000
vn -0.647386 0.762162 0.000000
vn -0.796093 0.605174 0.000000
vn -0.796093 0.605174 0.000000
vn -0.907575 0.419889 0.000000
vn -0.907575 0.419889 0.000000
vn -0.976621 0.214971 0.000000
vn -0.976621 0.214971 0.000000
vn -1.000000 0.000000 0.000000
vn -1.000000 -0.000000 0.000000
vn -0.976621 -0.214971 0.000000
vn -0.976621 -0.214971 0.000000
vn -0.907575 -0.419889 0.000000
vn -0.907575 -0.419889 0.000000
vn -0.796093 -0.605174 0.000000
vn -0.796093 -0.605174 0.000000
vn -0.647386 -0.762162 0.000000
vn 0.000000 0.000000 1.000000
vn 0.000000 0.000000 1.000000
vn 0.000000 0.000000 1.000000
vn 0.000000 0.000000 1.000000
vn 0.000000 0.000000 1.000000
vn 0.000000 0.000000 1.000000
vn 0.000000 0.000000 1.000000
vn 0.000000 0.000000 1.000000
vn 0.000000 0.000000 1.000000
vn 0.000000 0.000000 1.000000
vn 0.000000 0.000000 1.000000
vn 0.000000 0.000000 1.000000
vn 0.000000 0.000000 1.000000
vn 0.000000 0.000000 1.000000
vn 0.000000 0.000000 1.000000
vn 0.000000 0.000000 1.000000
vn 0.000000 0.000000 1.000000
vn 0.000000 0.000000 1.000000
vn 0.000000 0.000000 1.000000
vn 0.000000 0.000000 1.000000
vn 0.000000 0.000000 1.000000
vn 0.000000 0.000000 1.000000
vn 0.000000 0.000000 1.000000
vn 0.000000 0.000000 1.000000
vn 0.000000 0.000000 1.000000
vn 0.000000 0.000000 1.000000
vn 0.000000 0.000000 1.000000
vn 0.000000 0.000000 1.000000
vn 0.000000 0.000000 1.000000
vn 0.000000 0.000000 1.000000
vn 0.000000 0.000000 1.000000
vn 0.000000 0.000000 1.000000
vn 0.000000 0.000000 1.000000
vn 0.000000 0.000000 1.000000
vn 0.000000 0.000000 1.000000
vn 0.000000 0.000000 1.000000
vn 0.000000 0.000000 1.000000
vn 0.000000 0.000000 1.000000
vn 0.000000 0.000000 1.000000
vn 0.000000 0.000000 1.000000
vn 0.000000 0.000000 1.000000
vn 0.000000 0.000000 1.000000
vn 0.000000 0.000000 1.000000
vn 0.000000 0.000000 1.000000
vn 0.000000 0.000000 1.000000
vn 0.000000 0.000000 1.000000
vn 0.000000 0.000000 1.000000
vn 0.000000 0.000000 1.000000
vn 0.000000 0.000000 1.000000
vn 0.000000 0.000000 1.000000
vn 0.000000 0.000000 1.000000
vn 0.000000 0.000000 1.000000
vn 0.000000 0.000000 1.000000
vn 0.000000 0.000000 1.000000
vn 0.000000 0.000000 1.000000
f 1//1 2//1 3//1
f 4//2 2//2 1//2
f 3//3 5//3 6//3
f 2//4 5//4 3//4
f 7//5 4//5 1//5
f 8//6 4//6 7//6
f 2//7 9//7 10//7
f 2//8 10//8 11//8
f 2//9 11//9 12//9
f 2//10 12//10 13//10
f 2//11 4//11 14//11
f 2//12 13//12 5//12
f 15//13 16//13 8//13
f 17//14 8//14 16//14
f 18//15 15//15 8//15
f 19//16 8//16 17//16
f 20//17 18//17 8//17
f 21//18 8//18 19//18
f 4//19 21//19 22//19
f 4//20 22//20 23//20
f 4//21 23//21 24//21
f 4//22 8//22 21//22
f 5//23 25//23 26//23
f 5//24 26//24 27//24
f 5//25 27//25 20//25
f 5//26 20//26 8//26
f 28//27 25//27 5//27
f 29//28 4//28 24//28
f 30//29 28//29 5//29
f 31//30 4//30 29//30
f 32//31 30//31 5//31
f 14//32 4//32 31//32
f 13//33 32//33 5//33
f 2//34 14//34 33//34
f 2//35 33//35 34//35
f 2//36 34//36 9//36
f 7//37 35//37 36//37
f 36//38 37//38 7//38
f 38//39 3//39 39//39
f 39//40 3//40 40//40
f 40//41 3//41 41//41
f 41//42 3//42 42//42
f 7//43 43//43 35//43
f 42//44 3//44 44//44
f 44//45 3//45 45//45
f 45//46 3//46 6//46
f 1//47 3//47 46//47
f 37//48 47//48 7//48
f 46//49 3//49 38//49
f 7//50 48//50 43//50
f 47//51 49//51 7//51
f 7//52 50//52 48//52
f 50//53 1//53 51//53
f 51//54 1//54 52//54
f 52//55 1//55 53//55
f 7//56 1//56 50//56
f 54//57 6//57 55//57
f 55//58 6//58 56//58
f 56//59 6//59 49//59
f 49//60 6//60 7//60
f 54//61 57//61 6//61
f 1//62 58//62 53//62
f 57//63 59//63 6//63
f 1//64 60//64 58//64
f 59//65 61//65 6//65
f 1//66 62//66 60//66
f 61//67 63//67 6//67
f 1//68 46//68 62//68
f 63//69 45//69 6//69
f 6//70 8//70 7//70
f 5//71 8//71 6//71
f 64//72 65//72 26//72
f 26//73 65//73 27//73
f 65//74 66//74 27//74
f 27//75 66//75 20//75
f 67//76 68//76 21//76
f 66//77 69//77 20//77
f 21//78 68//78 22//78
f 20//79 69//79 18//79
f 69//80 70//80 18//80
f 22//81 71//81 23//81
f 18//82 70//82 15//82
f 68//83 71//83 22//83
f 15//84 72//84 16//84
f 70//85 72//85 15//85
f 23//86 73//86 24//86
f 71//87 73//87 23//87
f 72//88 74//88 16//88
f 16//89 74//89 17//89
f 24//90 75//90 29//90
f 73//91 75//91 24//91
f 17//92 76//92 19//92
f 74//93 76//93 17//93
f 29//94 77//94 31//94
f 19//95 67//95 21//95
f 75//96 77//96 29//96
f 76//97 67//97 19//97
f 31//98 78//98 14//98
f 77//99 78//99 31//99
f 14//100 79//100 33//100
f 78//101 79//101 14//101
f 33//102 80//102 34//102
f 79//103 80//103 33//103
f 34//104 81//104 9//104
f 80//105 81//105 34//105
f 9//106 82//106 10//106
f 81//107 82//107 9//107
f 82//108 83//108 10//108
f 10//109 83//109 11//109
f 83//110 84//110 11//110
f 11//111 84//111 12//111
f 84//112 85//112 12//112
f 12//113 85//113 13//113
f 85//114 86//114 13//114
f 13//115 86//115 32//115
f 86//116 87//116 32//116
f 32//117 87//117 30//117
f 87//118 88//118 30//118
f 30//119 88//119 28//119
f 88//120 89//120 28//120
f 28//121 89//121 25//121
f 89//122 64//122 25//122
f 25//123 64//123 26//123
f 90//124 54//124 91//124
f 54//125 55//125 91//125
f 91//126 55//126 92//126
f 55//127 56//127 92//127
f 50//128 51//128 93//128
f 92//129 56//129 94//129
f 93//130 51//130 95//130
f 94//131 49//131 96//131
f 56//132 49//132 94//132
f 95//133 52//133 97//133
f 51//134 52//134 95//134
f 49//135 47//135 96//135
f 96//136 47//136 98//136
f 97//137 53//137 99//137
f 52//138 53//138 97//138
f 98//139 37//139 100//139
f 99//140 58//140 101//140
f 47//141 37//141 98//141
f 53//142 58//142 99//142
f 100//143 36//143 102//143
f 37//144 36//144 100//144
f 101//145 60//145 103//145
f 58//146 60//146 101//146
f 102//147 35//147 104//147
f 103//148 62//148 105//148
f 36//149 35//149 102//149
f 60//150 62//150 103//150
f 104//151 43//151 106//151
f 35//152 43//152 104//152
f 105//153 46//153 107//153
f 62//154 46//154 105//154
f 106//155 48//155 108//155
f 43//156 48//156 106//156
f 107//157 38//157 109//157
f 108//158 50//158 93//158
f 46//159 38//159 107//159
f 48//160 50//160 108//160
f 109//161 39//161 110//161
f 38//162 39//162 109//162
f 39//163 40//163 110//163
f 110//164 40//164 111//164
f 40//165 41//165 111//165
f 111//166 41//166 112//166
f 41//167 42//167 112//167
f 112//168 42//168 113//168
f 42//169 44//169 113//169
f 113//170 44//170 114//170
f 44//171 45//171 114//171
f 114//172 45//172 115//172
f 45//173 63//173 115//173
f 115//174 63//174 116//174
f 63//175 61//175 116//175
f 116//176 61//176 117//176
f 61//177 59//177 117//177
f 117//178 59//178 118//178
f 59//179 57//179 118//179
f 118//180 57//180 90//180
f 57//181 54//181 90//181
f 104//182 72//182 102//182
f 74//183 72//183 104//183
f 111//184 112//184 81//184
f 106//185 74//185 104//185
f 106//186 76//186 74//186
f 110//187 111//187 81//187
f 110//188 81//188 80//188
f 88//189 118//189 90//189
f 89//190 90//190 91//190
f 89//191 91//191 92//191
f 89//192 88//192 90//192
f 87//193 117//193 118//193
f 87//194 118//194 88//194
f 64//195 92//195 94//195
f 64//196 89//196 92//196
f 108//197 76//197 106//197
f 108//198 67//198 76//198
f 86//199 116//199 117//199
f 86//200 117//200 87//200
f 65//201 94//201 96//201
f 65//202 64//202 94//202
f 109//203 110//203 80//203
f 85//204 115//204 116//204
f 109//205 80//205 79//205
f 85//206 116//206 86//206
f 66//207 96//207 98//207
f 93//208 67//208 108//208
f 107//209 79//209 78//209
f 66//210 65//210 96//210
f 107//211 109//211 79//211
f 84//212 114//212 115//212
f 95//213 68//213 67//213
f 84//214 115//214 85//214
f 95//215 67//215 93//215
f 105//216 78//216 77//216
f 105//217 107//217 78//217
f 69//218 98//218 100//218
f 97//219 71//219 68//219
f 97//220 68//220 95//220
f 69//221 66//221 98//221
f 83//222 113//222 114//222
f 103//223 77//223 75//223
f 103//224 105//224 77//224
f 83//225 114//225 84//225
f 70//226 69//226 100//226
f 99//227 73//227 71//227
f 99//228 71//228 97//228
f 101//229 103//229 75//229
f 101//230 75//230 73//230
f 101//231 73//231 99//231
f 102//232 70//232 100//232
f 82//233 113//233 83//233
f 112//234 113//234 82//234
f 72//235 70//235 102//235
f 81//236 112//236 82//236
