<?xml version="1.0"?>
<!DOCTYPE svg PUBLIC "-//W3C//DTD SVG 1.1//EN" "http://www.w3.org/Graphics/SVG/1.1/DTD/svg11.dtd">
<svg width="61.2mm" height="131.2mm" viewBox="0 0 61.2 131.2" xmlns="http://www.w3.org/2000/svg" version="1.1">
<g id="Pad" transform="translate(30.600000,65.495162) scale(1,-1)">
<path id="Pad_f0000"  d="M 3.490575 -8.104836303688543 L -3.490575 -8.104836303688543 L -3.4905749999999998 -8.104836303688543 L 3.490575 -8.104836303688543 L 3.490575 -8.104836303688543 Z " stroke="#191919" stroke-width="0.35 px" style="stroke-width:0.35;stroke-miterlimit:4;stroke-dasharray:none;fill:#cccccc;fill-opacity:1.0;fill-rule: evenodd "/>
<path id="Pad_f0001"  d="M -3.4905749999999998 -8.104836303688543 L -11.999999999999998 -8.104836303688543 L -11.999999999999998 -8.104836303688543 L -3.4905749999999998 -8.104836303688543 L -3.4905749999999998 -8.104836303688543 Z " stroke="#191919" stroke-width="0.35 px" style="stroke-width:0.35;stroke-miterlimit:4;stroke-dasharray:none;fill:#cccccc;fill-opacity:1.0;fill-rule: evenodd "/>
<path id="Pad_f0002"  d="M -11.999999999999998 -8.104836303688543 L -11.999999999999998 39.89516369631146 L -11.999999999999998 39.89516369631146 L -11.999999999999998 -8.104836303688543 L -11.999999999999998 -8.104836303688543 Z " stroke="#191919" stroke-width="0.35 px" style="stroke-width:0.35;stroke-miterlimit:4;stroke-dasharray:none;fill:#cccccc;fill-opacity:1.0;fill-rule: evenodd "/>
<path id="Pad_f0003"  d="M -11.999999999999998 39.89516369631146 L -15.710509396248264 39.89516369631146 L -15.710509396248264 39.89516369631146 L -11.999999999999998 39.89516369631146 L -11.999999999999998 39.89516369631146 Z " stroke="#191919" stroke-width="0.35 px" style="stroke-width:0.35;stroke-miterlimit:4;stroke-dasharray:none;fill:#cccccc;fill-opacity:1.0;fill-rule: evenodd "/>
<path id="Pad_f0004"  d="M -15.710509396248264 39.89516369631146 L -15.710509396248264 39.89516369631146 A 6.28949 6.28949 0 0 1 -28.2895 39.8952L -28.289490603751737 39.89516369631146 A 6.28949 6.28949 0 1 0 -15.7105 39.8952Z " stroke="#191919" stroke-width="0.35 px" style="stroke-width:0.35;stroke-miterlimit:4;stroke-dasharray:none;fill:#cccccc;fill-opacity:1.0;fill-rule: evenodd "/>
<path id="Pad_f0005"  d="M -28.289490603751737 39.89516369631146 L -28.289490603751737 39.89516369631146 L -30.0 39.89516369631146 L -30.0 39.89516369631146 L -28.289490603751737 39.89516369631146 Z " stroke="#191919" stroke-width="0.35 px" style="stroke-width:0.35;stroke-miterlimit:4;stroke-dasharray:none;fill:#cccccc;fill-opacity:1.0;fill-rule: evenodd "/>
<path id="Pad_f0006"  d="M -30.0 39.89516369631146 L -30.0 39.89516369631146 L -30.0 64.89516232460599 L -30.0 64.89516232460599 L -30.0 39.89516369631146 Z " stroke="#191919" stroke-width="0.35 px" style="stroke-width:0.35;stroke-miterlimit:4;stroke-dasharray:none;fill:#cccccc;fill-opacity:1.0;fill-rule: evenodd "/>
<path id="Pad_f0007"  d="M -30.0 64.89516232460599 L -30.0 64.89516232460599 L 30.0 64.89516232460599 L 30.0 64.89516232460599 L -30.0 64.89516232460599 Z " stroke="#191919" stroke-width="0.35 px" style="stroke-width:0.35;stroke-miterlimit:4;stroke-dasharray:none;fill:#cccccc;fill-opacity:1.0;fill-rule: evenodd "/>
<path id="Pad_f0008"  d="M 30.0 64.89516232460599 L 30.0 33.89516232460599 L 30.0 33.89516232460599 L 30.0 64.89516232460599 L 30.0 64.89516232460599 Z " stroke="#191919" stroke-width="0.35 px" style="stroke-width:0.35;stroke-miterlimit:4;stroke-dasharray:none;fill:#cccccc;fill-opacity:1.0;fill-rule: evenodd "/>
<path id="Pad_f0009"  d="M 30.0 33.89516232460599 L 30.0 33.89516232460599 L 18.0 33.89516232460599 L 18.0 33.89516232460599 L 30.0 33.89516232460599 Z " stroke="#191919" stroke-width="0.35 px" style="stroke-width:0.35;stroke-miterlimit:4;stroke-dasharray:none;fill:#cccccc;fill-opacity:1.0;fill-rule: evenodd "/>
<path id="Pad_f0010"  d="M 18.0 33.89516232460599 L 18.0 33.89516232460599 L 18.0 15.895162324605991 L 18.0 15.895162324605991 L 18.0 33.89516232460599 Z " stroke="#191919" stroke-width="0.35 px" style="stroke-width:0.35;stroke-miterlimit:4;stroke-dasharray:none;fill:#cccccc;fill-opacity:1.0;fill-rule: evenodd "/>
<path id="Pad_f0011"  d="M 18.0 15.895162324605991 L 18.0 15.895162324605991 L 30.0 15.895162324605991 L 30.0 15.895162324605991 L 18.0 15.895162324605991 Z " stroke="#191919" stroke-width="0.35 px" style="stroke-width:0.35;stroke-miterlimit:4;stroke-dasharray:none;fill:#cccccc;fill-opacity:1.0;fill-rule: evenodd "/>
<path id="Pad_f0012"  d="M 30.0 15.895162324605991 L 30.0 15.895162324605991 L 30.0 -65.10483767539401 L 30.0 -65.10483767539401 L 30.0 15.895162324605991 Z " stroke="#191919" stroke-width="0.35 px" style="stroke-width:0.35;stroke-miterlimit:4;stroke-dasharray:none;fill:#cccccc;fill-opacity:1.0;fill-rule: evenodd "/>
<path id="Pad_f0013"  d="M 30.0 -65.10483767539401 L 30.0 -65.10483767539401 L -4.592425496802574e-16 -65.10483767539401 L -4.592425496802574e-16 -65.10483767539401 L 30.0 -65.10483767539401 Z " stroke="#191919" stroke-width="0.35 px" style="stroke-width:0.35;stroke-miterlimit:4;stroke-dasharray:none;fill:#cccccc;fill-opacity:1.0;fill-rule: evenodd "/>
<path id="Pad_f0014"  d="M -4.592425496802574e-16 -65.10483767539401 L -4.592425496802574e-16 -65.10483767539401 L -11.999999999999986 -65.10483767539401 L -11.999999999999986 -65.10483767539401 L 0.0 -65.10483767539401 Z " stroke="#191919" stroke-width="0.35 px" style="stroke-width:0.35;stroke-miterlimit:4;stroke-dasharray:none;fill:#cccccc;fill-opacity:1.0;fill-rule: evenodd "/>
<path id="Pad_f0015"  d="M -11.999999999999986 -65.10483767539401 L -11.999999999999986 -49.414836303688546 L -11.999999999999986 -49.414836303688546 L -11.999999999999986 -65.10483767539401 L -11.999999999999986 -65.10483767539401 Z " stroke="#191919" stroke-width="0.35 px" style="stroke-width:0.35;stroke-miterlimit:4;stroke-dasharray:none;fill:#cccccc;fill-opacity:1.0;fill-rule: evenodd "/>
<path id="Pad_f0016"  d="M -11.999999999999986 -49.414836303688546 L 23.000000000000014 -49.414836303688546 L 23.000000000000014 -49.414836303688546 L -11.999999999999986 -49.414836303688546 L -11.999999999999986 -49.414836303688546 Z " stroke="#191919" stroke-width="0.35 px" style="stroke-width:0.35;stroke-miterlimit:4;stroke-dasharray:none;fill:#cccccc;fill-opacity:1.0;fill-rule: evenodd "/>
<path id="Pad_f0017"  d="M 23.000000000000014 -49.414836303688546 L 23.000000000000014 -8.104836303688543 L 23.000000000000014 -8.104836303688543 L 23.000000000000014 -49.414836303688546 L 23.000000000000014 -49.414836303688546 Z " stroke="#191919" stroke-width="0.35 px" style="stroke-width:0.35;stroke-miterlimit:4;stroke-dasharray:none;fill:#cccccc;fill-opacity:1.0;fill-rule: evenodd "/>
<path id="Pad_f0018"  d="M 23.000000000000014 -8.104836303688543 L 3.490575 -8.104836303688543 L 3.490575 -8.104836303688543 L 23.000000000000014 -8.104836303688543 L 23.000000000000014 -8.104836303688543 Z " stroke="#191919" stroke-width="0.35 px" style="stroke-width:0.35;stroke-miterlimit:4;stroke-dasharray:none;fill:#cccccc;fill-opacity:1.0;fill-rule: evenodd "/>
<circle cx="0.0" cy="39.89516369631146" r="8.0" stroke="#191919" stroke-width="0.35 px" style="stroke-width:0.35;stroke-miterlimit:4;stroke-dasharray:none;fill:#cccccc"/>
<path id="Pad_f0020"  d="M 5.0 -60.104837675394016 L 5.0 -60.104837675394016 A 5 5 0 1 1 -9.18485e-16 -65.1048L -4.592425496802574e-16 -65.10483767539401 A 5 5 0 1 0 5 -60.1048Z " stroke="#191919" stroke-width="0.35 px" style="stroke-width:0.35;stroke-miterlimit:4;stroke-dasharray:none;fill:#cccccc;fill-opacity:1.0;fill-rule: evenodd "/>
<path id="Pad_f0021"  d="M -4.592425496802574e-16 -65.10483767539401 L -4.592425496802574e-16 -65.10483767539401 A 5 5 0 0 1 5 -60.1048L 5.0 -60.104837675394016 A 5 5 0 0 0 3.06162e-16 -65.1048Z " stroke="#191919" stroke-width="0.35 px" style="stroke-width:0.35;stroke-miterlimit:4;stroke-dasharray:none;fill:#cccccc;fill-opacity:1.0;fill-rule: evenodd "/>
<circle cx="22.0" cy="39.89516369631146" r="3.2" stroke="#191919" stroke-width="0.35 px" style="stroke-width:0.35;stroke-miterlimit:4;stroke-dasharray:none;fill:#cccccc"/>
<circle cx="-24.999999999999996" cy="59.89516232460599" r="1.8" stroke="#191919" stroke-width="0.35 px" style="stroke-width:0.35;stroke-miterlimit:4;stroke-dasharray:none;fill:#cccccc"/>
<circle cx="25.0" cy="59.895163696311464" r="1.8" stroke="#191919" stroke-width="0.35 px" style="stroke-width:0.35;stroke-miterlimit:4;stroke-dasharray:none;fill:#cccccc"/>
<circle cx="25.000000000000007" cy="-54.49483767539402" r="1.8" stroke="#191919" stroke-width="0.35 px" style="stroke-width:0.35;stroke-miterlimit:4;stroke-dasharray:none;fill:#cccccc"/>
<circle cx="0.0" cy="39.89516369631146" r="8.0" stroke="#191919" stroke-width="0.35 px" style="stroke-width:0.35;stroke-miterlimit:4;stroke-dasharray:none;fill:#cccccc"/>
<circle cx="0.0" cy="39.89516369631146" r="8.0" stroke="#191919" stroke-width="0.35 px" style="stroke-width:0.35;stroke-miterlimit:4;stroke-dasharray:none;fill:#cccccc"/>
<title>b'Pad'</title>
</g>
</svg>