%TF.GenerationSoftware,KiCad,Pcbnew,5.1.6-c6e7f7d~87~ubuntu20.04.1*%
%TF.CreationDate,2022-02-26T19:36:22+01:00*%
%TF.ProjectId,pick_n_place_head,7069636b-5f6e-45f7-906c-6163655f6865,rev?*%
%TF.SameCoordinates,PX5f36538PY5a45498*%
%TF.FileFunction,Copper,L2,Bot*%
%TF.FilePolarity,Positive*%
%FSLAX46Y46*%
G04 Gerber Fmt 4.6, Leading zero omitted, Abs format (unit mm)*
G04 Created by KiCad (PCBNEW 5.1.6-c6e7f7d~87~ubuntu20.04.1) date 2022-02-26 19:36:22*
%MOMM*%
%LPD*%
G01*
G04 APERTURE LIST*
%TA.AperFunction,ComponentPad*%
%ADD10O,1.700000X1.700000*%
%TD*%
%TA.AperFunction,ComponentPad*%
%ADD11R,1.700000X1.700000*%
%TD*%
%TA.AperFunction,ComponentPad*%
%ADD12C,1.524000*%
%TD*%
%TA.AperFunction,Conductor*%
%ADD13C,0.400000*%
%TD*%
%TA.AperFunction,NonConductor*%
%ADD14C,0.254000*%
%TD*%
G04 APERTURE END LIST*
D10*
%TO.P,Amot1,4*%
%TO.N,A2B*%
X-9565640Y28285440D03*
%TO.P,Amot1,3*%
%TO.N,A1B*%
X-9565640Y30825440D03*
%TO.P,Amot1,2*%
%TO.N,A2A*%
X-9565640Y33365440D03*
D11*
%TO.P,Amot1,1*%
%TO.N,A1A*%
X-9565640Y35905440D03*
%TD*%
D12*
%TO.P,M1,1*%
%TO.N,Z1A*%
X4962760Y16734240D03*
%TO.P,M1,2*%
%TO.N,Z2A*%
X4962760Y14534240D03*
%TO.P,M1,3*%
%TO.N,Z1B*%
X4962760Y12334240D03*
%TO.P,M1,4*%
%TO.N,Z2B*%
X4962760Y10134240D03*
%TO.P,M1,5*%
%TO.N,+3V3*%
X4962760Y7934240D03*
%TD*%
%TO.P,M2,5*%
%TO.N,pwm*%
X45729760Y8061240D03*
%TO.P,M2,4*%
%TO.N,SCL*%
X45729760Y10261240D03*
%TO.P,M2,3*%
%TO.N,limZ*%
X45729760Y12461240D03*
%TO.P,M2,2*%
%TO.N,GND*%
X45729760Y14661240D03*
%TO.P,M2,1*%
%TO.N,SDA*%
X45729760Y16861240D03*
%TD*%
%TO.P,M3,1*%
%TO.N,+12V*%
X29479760Y30495240D03*
%TO.P,M3,2*%
%TO.N,A2B*%
X27279760Y30495240D03*
%TO.P,M3,3*%
%TO.N,A1B*%
X25079760Y30495240D03*
%TO.P,M3,4*%
%TO.N,A2A*%
X22879760Y30495240D03*
%TO.P,M3,5*%
%TO.N,A1A*%
X20679760Y30495240D03*
%TD*%
D11*
%TO.P,Zmot1,1*%
%TO.N,Z1A*%
X-9718040Y21275040D03*
D10*
%TO.P,Zmot1,2*%
%TO.N,Z2A*%
X-9718040Y18735040D03*
%TO.P,Zmot1,3*%
%TO.N,Z1B*%
X-9718040Y16195040D03*
%TO.P,Zmot1,4*%
%TO.N,Z2B*%
X-9718040Y13655040D03*
%TD*%
D13*
%TO.N,A1B*%
X-9565640Y30825440D02*
X-8215340Y30825440D01*
X25079760Y30495240D02*
X23783060Y31791940D01*
X23783060Y31791940D02*
X-7248840Y31791940D01*
X-7248840Y31791940D02*
X-8215340Y30825440D01*
%TO.N,Z2B*%
X-9718040Y13655040D02*
X-8367740Y13655040D01*
X-8367740Y13655040D02*
X-6855140Y15167640D01*
X-6855140Y15167640D02*
X460960Y15167640D01*
X460960Y15167640D02*
X2453960Y13174640D01*
X2453960Y13174640D02*
X2453960Y12643040D01*
X2453960Y12643040D02*
X4962760Y10134240D01*
%TD*%
D14*
G36*
X-5522240Y35704781D02*
G01*
X-5522240Y34689287D01*
X-5525554Y34655640D01*
X-5512328Y34521357D01*
X-5473159Y34392234D01*
X-5409552Y34273233D01*
X-5342862Y34191971D01*
X-5292477Y33767046D01*
X-5287136Y33742729D01*
X-5277154Y33719922D01*
X-5262914Y33699500D01*
X-5244964Y33682248D01*
X-5223993Y33668830D01*
X-5200807Y33659761D01*
X-5165782Y33655001D01*
X49398553Y33903343D01*
X49564925Y457628D01*
X1270758Y619350D01*
X847760Y12794720D01*
X847760Y13599972D01*
X1618960Y12828771D01*
X1618960Y12684058D01*
X1614920Y12643040D01*
X1618960Y12602022D01*
X1618960Y12602021D01*
X1631042Y12479351D01*
X1678788Y12321953D01*
X1720233Y12244417D01*
X1729485Y12227108D01*
X1756325Y12176894D01*
X1860670Y12049749D01*
X1892534Y12023599D01*
X3578791Y10337342D01*
X3565760Y10271832D01*
X3565760Y9996648D01*
X3619446Y9726750D01*
X3724755Y9472513D01*
X3877640Y9243705D01*
X4072225Y9049120D01*
X4094494Y9034240D01*
X4072225Y9019360D01*
X3877640Y8824775D01*
X3724755Y8595967D01*
X3619446Y8341730D01*
X3565760Y8071832D01*
X3565760Y7796648D01*
X3619446Y7526750D01*
X3724755Y7272513D01*
X3877640Y7043705D01*
X4072225Y6849120D01*
X4301033Y6696235D01*
X4555270Y6590926D01*
X4825168Y6537240D01*
X5100352Y6537240D01*
X5370250Y6590926D01*
X5624487Y6696235D01*
X5853295Y6849120D01*
X6047880Y7043705D01*
X6200765Y7272513D01*
X6248930Y7388794D01*
X16575601Y7388794D01*
X16575601Y6662486D01*
X16717296Y5950135D01*
X16995242Y5279115D01*
X17398756Y4675213D01*
X17912333Y4161636D01*
X18516235Y3758122D01*
X19187255Y3480176D01*
X19899606Y3338481D01*
X20625914Y3338481D01*
X21338265Y3480176D01*
X22009285Y3758122D01*
X22613187Y4161636D01*
X23126764Y4675213D01*
X23530278Y5279115D01*
X23808224Y5950135D01*
X23949919Y6662486D01*
X23949919Y7388794D01*
X26575601Y7388794D01*
X26575601Y6662486D01*
X26717296Y5950135D01*
X26995242Y5279115D01*
X27398756Y4675213D01*
X27912333Y4161636D01*
X28516235Y3758122D01*
X29187255Y3480176D01*
X29899606Y3338481D01*
X30625914Y3338481D01*
X31338265Y3480176D01*
X32009285Y3758122D01*
X32613187Y4161636D01*
X33126764Y4675213D01*
X33530278Y5279115D01*
X33808224Y5950135D01*
X33949919Y6662486D01*
X33949919Y7388794D01*
X33808224Y8101145D01*
X33530278Y8772165D01*
X33126764Y9376067D01*
X32613187Y9889644D01*
X32009285Y10293158D01*
X31338265Y10571104D01*
X30625914Y10712799D01*
X29899606Y10712799D01*
X29187255Y10571104D01*
X28516235Y10293158D01*
X27912333Y9889644D01*
X27398756Y9376067D01*
X26995242Y8772165D01*
X26717296Y8101145D01*
X26575601Y7388794D01*
X23949919Y7388794D01*
X23808224Y8101145D01*
X23530278Y8772165D01*
X23126764Y9376067D01*
X22613187Y9889644D01*
X22009285Y10293158D01*
X21338265Y10571104D01*
X20625914Y10712799D01*
X19899606Y10712799D01*
X19187255Y10571104D01*
X18516235Y10293158D01*
X17912333Y9889644D01*
X17398756Y9376067D01*
X16995242Y8772165D01*
X16717296Y8101145D01*
X16575601Y7388794D01*
X6248930Y7388794D01*
X6306074Y7526750D01*
X6359760Y7796648D01*
X6359760Y8071832D01*
X6306074Y8341730D01*
X6200765Y8595967D01*
X6047880Y8824775D01*
X5853295Y9019360D01*
X5831026Y9034240D01*
X5853295Y9049120D01*
X6047880Y9243705D01*
X6200765Y9472513D01*
X6306074Y9726750D01*
X6359760Y9996648D01*
X6359760Y10271832D01*
X6306074Y10541730D01*
X6200765Y10795967D01*
X6047880Y11024775D01*
X5853295Y11219360D01*
X5831026Y11234240D01*
X5853295Y11249120D01*
X6047880Y11443705D01*
X6200765Y11672513D01*
X6306074Y11926750D01*
X6359760Y12196648D01*
X6359760Y12471832D01*
X6306074Y12741730D01*
X6200765Y12995967D01*
X6047880Y13224775D01*
X5853295Y13419360D01*
X5831026Y13434240D01*
X5853295Y13449120D01*
X6047880Y13643705D01*
X6200765Y13872513D01*
X6306074Y14126750D01*
X6359760Y14396648D01*
X6359760Y14671832D01*
X6306074Y14941730D01*
X6200765Y15195967D01*
X6047880Y15424775D01*
X5853295Y15619360D01*
X5831026Y15634240D01*
X5853295Y15649120D01*
X6047880Y15843705D01*
X6200765Y16072513D01*
X6306074Y16326750D01*
X6359760Y16596648D01*
X6359760Y16871832D01*
X6306074Y17141730D01*
X6200765Y17395967D01*
X6047880Y17624775D01*
X5853295Y17819360D01*
X5624487Y17972245D01*
X5370250Y18077554D01*
X5100352Y18131240D01*
X4825168Y18131240D01*
X4555270Y18077554D01*
X4301033Y17972245D01*
X4072225Y17819360D01*
X3877640Y17624775D01*
X3724755Y17395967D01*
X3619446Y17141730D01*
X3565760Y16871832D01*
X3565760Y16596648D01*
X3619446Y16326750D01*
X3724755Y16072513D01*
X3877640Y15843705D01*
X4072225Y15649120D01*
X4094494Y15634240D01*
X4072225Y15619360D01*
X3877640Y15424775D01*
X3724755Y15195967D01*
X3619446Y14941730D01*
X3565760Y14671832D01*
X3565760Y14396648D01*
X3619446Y14126750D01*
X3724755Y13872513D01*
X3877640Y13643705D01*
X4072225Y13449120D01*
X4094494Y13434240D01*
X4072225Y13419360D01*
X3877640Y13224775D01*
X3724755Y12995967D01*
X3619446Y12741730D01*
X3605624Y12672243D01*
X3288960Y12988907D01*
X3288960Y13133622D01*
X3293000Y13174640D01*
X3281024Y13296235D01*
X3276878Y13338329D01*
X3229132Y13495727D01*
X3151596Y13640786D01*
X3103620Y13699245D01*
X3073399Y13736070D01*
X3073397Y13736072D01*
X3047251Y13767931D01*
X3015393Y13794076D01*
X1080406Y15729061D01*
X1054251Y15760931D01*
X927106Y15865276D01*
X782047Y15942812D01*
X624649Y15990558D01*
X501979Y16002640D01*
X501978Y16002640D01*
X460960Y16006680D01*
X419942Y16002640D01*
X-6814133Y16002640D01*
X-6855141Y16006679D01*
X-6896149Y16002640D01*
X-6896159Y16002640D01*
X-7018829Y15990558D01*
X-7176227Y15942812D01*
X-7321286Y15865276D01*
X-7448431Y15760931D01*
X-7474581Y15729066D01*
X-8583270Y14620377D01*
X-8771408Y14808515D01*
X-8945800Y14925040D01*
X-8771408Y15041565D01*
X-8564565Y15248408D01*
X-8402050Y15491629D01*
X-8290108Y15761882D01*
X-8233040Y16048780D01*
X-8233040Y16341300D01*
X-8290108Y16628198D01*
X-8402050Y16898451D01*
X-8564565Y17141672D01*
X-8771408Y17348515D01*
X-8945800Y17465040D01*
X-8771408Y17581565D01*
X-8564565Y17788408D01*
X-8402050Y18031629D01*
X-8290108Y18301882D01*
X-8233040Y18588780D01*
X-8233040Y18881300D01*
X-8290108Y19168198D01*
X-8402050Y19438451D01*
X-8422324Y19468794D01*
X13575601Y19468794D01*
X13575601Y18742486D01*
X13717296Y18030135D01*
X13995242Y17359115D01*
X14398756Y16755213D01*
X14912333Y16241636D01*
X15516235Y15838122D01*
X16187255Y15560176D01*
X16899606Y15418481D01*
X17625914Y15418481D01*
X18338265Y15560176D01*
X19009285Y15838122D01*
X19613187Y16241636D01*
X20126764Y16755213D01*
X20530278Y17359115D01*
X20808224Y18030135D01*
X20949919Y18742486D01*
X20949919Y19468794D01*
X29575601Y19468794D01*
X29575601Y18742486D01*
X29717296Y18030135D01*
X29995242Y17359115D01*
X30398756Y16755213D01*
X30912333Y16241636D01*
X31516235Y15838122D01*
X32187255Y15560176D01*
X32899606Y15418481D01*
X33625914Y15418481D01*
X34338265Y15560176D01*
X35009285Y15838122D01*
X35613187Y16241636D01*
X36126764Y16755213D01*
X36289544Y16998832D01*
X44332760Y16998832D01*
X44332760Y16723648D01*
X44386446Y16453750D01*
X44491755Y16199513D01*
X44644640Y15970705D01*
X44839225Y15776120D01*
X44861494Y15761240D01*
X44839225Y15746360D01*
X44644640Y15551775D01*
X44491755Y15322967D01*
X44386446Y15068730D01*
X44332760Y14798832D01*
X44332760Y14523648D01*
X44386446Y14253750D01*
X44491755Y13999513D01*
X44644640Y13770705D01*
X44839225Y13576120D01*
X44861494Y13561240D01*
X44839225Y13546360D01*
X44644640Y13351775D01*
X44491755Y13122967D01*
X44386446Y12868730D01*
X44332760Y12598832D01*
X44332760Y12323648D01*
X44386446Y12053750D01*
X44491755Y11799513D01*
X44644640Y11570705D01*
X44839225Y11376120D01*
X44861494Y11361240D01*
X44839225Y11346360D01*
X44644640Y11151775D01*
X44491755Y10922967D01*
X44386446Y10668730D01*
X44332760Y10398832D01*
X44332760Y10123648D01*
X44386446Y9853750D01*
X44491755Y9599513D01*
X44644640Y9370705D01*
X44839225Y9176120D01*
X44861494Y9161240D01*
X44839225Y9146360D01*
X44644640Y8951775D01*
X44491755Y8722967D01*
X44386446Y8468730D01*
X44332760Y8198832D01*
X44332760Y7923648D01*
X44386446Y7653750D01*
X44491755Y7399513D01*
X44644640Y7170705D01*
X44839225Y6976120D01*
X45068033Y6823235D01*
X45322270Y6717926D01*
X45592168Y6664240D01*
X45867352Y6664240D01*
X46137250Y6717926D01*
X46391487Y6823235D01*
X46620295Y6976120D01*
X46814880Y7170705D01*
X46967765Y7399513D01*
X47073074Y7653750D01*
X47126760Y7923648D01*
X47126760Y8198832D01*
X47073074Y8468730D01*
X46967765Y8722967D01*
X46814880Y8951775D01*
X46620295Y9146360D01*
X46598026Y9161240D01*
X46620295Y9176120D01*
X46814880Y9370705D01*
X46967765Y9599513D01*
X47073074Y9853750D01*
X47126760Y10123648D01*
X47126760Y10398832D01*
X47073074Y10668730D01*
X46967765Y10922967D01*
X46814880Y11151775D01*
X46620295Y11346360D01*
X46598026Y11361240D01*
X46620295Y11376120D01*
X46814880Y11570705D01*
X46967765Y11799513D01*
X47073074Y12053750D01*
X47126760Y12323648D01*
X47126760Y12598832D01*
X47073074Y12868730D01*
X46967765Y13122967D01*
X46814880Y13351775D01*
X46620295Y13546360D01*
X46598026Y13561240D01*
X46620295Y13576120D01*
X46814880Y13770705D01*
X46967765Y13999513D01*
X47073074Y14253750D01*
X47126760Y14523648D01*
X47126760Y14798832D01*
X47073074Y15068730D01*
X46967765Y15322967D01*
X46814880Y15551775D01*
X46620295Y15746360D01*
X46598026Y15761240D01*
X46620295Y15776120D01*
X46814880Y15970705D01*
X46967765Y16199513D01*
X47073074Y16453750D01*
X47126760Y16723648D01*
X47126760Y16998832D01*
X47073074Y17268730D01*
X46967765Y17522967D01*
X46814880Y17751775D01*
X46620295Y17946360D01*
X46391487Y18099245D01*
X46137250Y18204554D01*
X45867352Y18258240D01*
X45592168Y18258240D01*
X45322270Y18204554D01*
X45068033Y18099245D01*
X44839225Y17946360D01*
X44644640Y17751775D01*
X44491755Y17522967D01*
X44386446Y17268730D01*
X44332760Y16998832D01*
X36289544Y16998832D01*
X36530278Y17359115D01*
X36808224Y18030135D01*
X36949919Y18742486D01*
X36949919Y19468794D01*
X36808224Y20181145D01*
X36530278Y20852165D01*
X36126764Y21456067D01*
X35613187Y21969644D01*
X35009285Y22373158D01*
X34338265Y22651104D01*
X33625914Y22792799D01*
X32899606Y22792799D01*
X32187255Y22651104D01*
X31516235Y22373158D01*
X30912333Y21969644D01*
X30398756Y21456067D01*
X29995242Y20852165D01*
X29717296Y20181145D01*
X29575601Y19468794D01*
X20949919Y19468794D01*
X20808224Y20181145D01*
X20530278Y20852165D01*
X20126764Y21456067D01*
X19613187Y21969644D01*
X19009285Y22373158D01*
X18338265Y22651104D01*
X17625914Y22792799D01*
X16899606Y22792799D01*
X16187255Y22651104D01*
X15516235Y22373158D01*
X14912333Y21969644D01*
X14398756Y21456067D01*
X13995242Y20852165D01*
X13717296Y20181145D01*
X13575601Y19468794D01*
X-8422324Y19468794D01*
X-8564565Y19681672D01*
X-8696420Y19813527D01*
X-8623860Y19835538D01*
X-8513546Y19894503D01*
X-8416855Y19973855D01*
X-8337503Y20070546D01*
X-8278538Y20180860D01*
X-8242228Y20300558D01*
X-8229968Y20425040D01*
X-8229968Y22125040D01*
X-8242228Y22249522D01*
X-8278538Y22369220D01*
X-8337503Y22479534D01*
X-8416855Y22576225D01*
X-8513546Y22655577D01*
X-8623860Y22714542D01*
X-8743558Y22750852D01*
X-8868040Y22763112D01*
X-10568040Y22763112D01*
X-10692522Y22750852D01*
X-10812220Y22714542D01*
X-10922534Y22655577D01*
X-11019225Y22576225D01*
X-11098577Y22479534D01*
X-11157542Y22369220D01*
X-11193852Y22249522D01*
X-11206112Y22125040D01*
X-11206112Y20425040D01*
X-11193852Y20300558D01*
X-11157542Y20180860D01*
X-11098577Y20070546D01*
X-11019225Y19973855D01*
X-10922534Y19894503D01*
X-10812220Y19835538D01*
X-10739660Y19813527D01*
X-10871515Y19681672D01*
X-11034030Y19438451D01*
X-11145972Y19168198D01*
X-11203040Y18881300D01*
X-11203040Y18588780D01*
X-11145972Y18301882D01*
X-11034030Y18031629D01*
X-10871515Y17788408D01*
X-10664672Y17581565D01*
X-10490280Y17465040D01*
X-10664672Y17348515D01*
X-10871515Y17141672D01*
X-11034030Y16898451D01*
X-11145972Y16628198D01*
X-11203040Y16341300D01*
X-11203040Y16048780D01*
X-11145972Y15761882D01*
X-11034030Y15491629D01*
X-10871515Y15248408D01*
X-10664672Y15041565D01*
X-10490280Y14925040D01*
X-10664672Y14808515D01*
X-10871515Y14601672D01*
X-11034030Y14358451D01*
X-11145972Y14088198D01*
X-11203040Y13801300D01*
X-11203040Y13508780D01*
X-11145972Y13221882D01*
X-11034030Y12951629D01*
X-10871515Y12708408D01*
X-10664672Y12501565D01*
X-10421451Y12339050D01*
X-10151198Y12227108D01*
X-9864300Y12170040D01*
X-9571780Y12170040D01*
X-9284882Y12227108D01*
X-9014629Y12339050D01*
X-8771408Y12501565D01*
X-8564565Y12708408D01*
X-8489975Y12820040D01*
X-8408758Y12820040D01*
X-8367740Y12816000D01*
X-8326722Y12820040D01*
X-8326721Y12820040D01*
X-8204051Y12832122D01*
X-8046653Y12879868D01*
X-7901594Y12957404D01*
X-7774449Y13061749D01*
X-7748294Y13093619D01*
X-6509272Y14332640D01*
X-5856989Y14332640D01*
X-5704834Y10537991D01*
X-12152240Y10389454D01*
X-12152240Y36755440D01*
X-11053712Y36755440D01*
X-11053712Y35055440D01*
X-11041452Y34930958D01*
X-11005142Y34811260D01*
X-10946177Y34700946D01*
X-10866825Y34604255D01*
X-10770134Y34524903D01*
X-10659820Y34465938D01*
X-10587260Y34443927D01*
X-10719115Y34312072D01*
X-10881630Y34068851D01*
X-10993572Y33798598D01*
X-11050640Y33511700D01*
X-11050640Y33219180D01*
X-10993572Y32932282D01*
X-10881630Y32662029D01*
X-10719115Y32418808D01*
X-10512272Y32211965D01*
X-10337880Y32095440D01*
X-10512272Y31978915D01*
X-10719115Y31772072D01*
X-10881630Y31528851D01*
X-10993572Y31258598D01*
X-11050640Y30971700D01*
X-11050640Y30679180D01*
X-10993572Y30392282D01*
X-10881630Y30122029D01*
X-10719115Y29878808D01*
X-10512272Y29671965D01*
X-10337880Y29555440D01*
X-10512272Y29438915D01*
X-10719115Y29232072D01*
X-10881630Y28988851D01*
X-10993572Y28718598D01*
X-11050640Y28431700D01*
X-11050640Y28139180D01*
X-10993572Y27852282D01*
X-10881630Y27582029D01*
X-10719115Y27338808D01*
X-10512272Y27131965D01*
X-10269051Y26969450D01*
X-9998798Y26857508D01*
X-9711900Y26800440D01*
X-9419380Y26800440D01*
X-9132482Y26857508D01*
X-8862229Y26969450D01*
X-8619008Y27131965D01*
X-8412165Y27338808D01*
X-8249650Y27582029D01*
X-8137708Y27852282D01*
X-8080640Y28139180D01*
X-8080640Y28431700D01*
X-8137708Y28718598D01*
X-8249650Y28988851D01*
X-8412165Y29232072D01*
X-8619008Y29438915D01*
X-8793400Y29555440D01*
X-8619008Y29671965D01*
X-8412165Y29878808D01*
X-8337575Y29990440D01*
X-8256358Y29990440D01*
X-8215340Y29986400D01*
X-8174322Y29990440D01*
X-8174321Y29990440D01*
X-8051651Y30002522D01*
X-7894253Y30050268D01*
X-7749194Y30127804D01*
X-7622049Y30232149D01*
X-7595894Y30264019D01*
X-6902972Y30956940D01*
X19358901Y30956940D01*
X19336446Y30902730D01*
X19282760Y30632832D01*
X19282760Y30357648D01*
X19336446Y30087750D01*
X19441755Y29833513D01*
X19594640Y29604705D01*
X19789225Y29410120D01*
X20018033Y29257235D01*
X20272270Y29151926D01*
X20542168Y29098240D01*
X20817352Y29098240D01*
X21087250Y29151926D01*
X21341487Y29257235D01*
X21570295Y29410120D01*
X21764880Y29604705D01*
X21779760Y29626974D01*
X21794640Y29604705D01*
X21989225Y29410120D01*
X22218033Y29257235D01*
X22472270Y29151926D01*
X22742168Y29098240D01*
X23017352Y29098240D01*
X23287250Y29151926D01*
X23541487Y29257235D01*
X23770295Y29410120D01*
X23964880Y29604705D01*
X23979760Y29626974D01*
X23994640Y29604705D01*
X24189225Y29410120D01*
X24418033Y29257235D01*
X24672270Y29151926D01*
X24942168Y29098240D01*
X25217352Y29098240D01*
X25487250Y29151926D01*
X25741487Y29257235D01*
X25970295Y29410120D01*
X26164880Y29604705D01*
X26179760Y29626974D01*
X26194640Y29604705D01*
X26389225Y29410120D01*
X26618033Y29257235D01*
X26872270Y29151926D01*
X27142168Y29098240D01*
X27417352Y29098240D01*
X27687250Y29151926D01*
X27941487Y29257235D01*
X28170295Y29410120D01*
X28364880Y29604705D01*
X28379760Y29626974D01*
X28394640Y29604705D01*
X28589225Y29410120D01*
X28818033Y29257235D01*
X29072270Y29151926D01*
X29342168Y29098240D01*
X29617352Y29098240D01*
X29887250Y29151926D01*
X30141487Y29257235D01*
X30370295Y29410120D01*
X30564880Y29604705D01*
X30717765Y29833513D01*
X30823074Y30087750D01*
X30876760Y30357648D01*
X30876760Y30632832D01*
X30823074Y30902730D01*
X30717765Y31156967D01*
X30564880Y31385775D01*
X30370295Y31580360D01*
X30141487Y31733245D01*
X29887250Y31838554D01*
X29617352Y31892240D01*
X29342168Y31892240D01*
X29072270Y31838554D01*
X28818033Y31733245D01*
X28589225Y31580360D01*
X28394640Y31385775D01*
X28379760Y31363506D01*
X28364880Y31385775D01*
X28170295Y31580360D01*
X27941487Y31733245D01*
X27687250Y31838554D01*
X27417352Y31892240D01*
X27142168Y31892240D01*
X26872270Y31838554D01*
X26618033Y31733245D01*
X26389225Y31580360D01*
X26194640Y31385775D01*
X26179760Y31363506D01*
X26164880Y31385775D01*
X25970295Y31580360D01*
X25741487Y31733245D01*
X25487250Y31838554D01*
X25217352Y31892240D01*
X24942168Y31892240D01*
X24876658Y31879209D01*
X24402506Y32353362D01*
X24376351Y32385231D01*
X24249206Y32489576D01*
X24104147Y32567112D01*
X23946749Y32614858D01*
X23824079Y32626940D01*
X23824078Y32626940D01*
X23783060Y32630980D01*
X23742042Y32626940D01*
X-7207833Y32626940D01*
X-7248841Y32630979D01*
X-7289849Y32626940D01*
X-7289859Y32626940D01*
X-7412529Y32614858D01*
X-7569927Y32567112D01*
X-7714986Y32489576D01*
X-7842131Y32385231D01*
X-7868282Y32353366D01*
X-8430870Y31790777D01*
X-8619008Y31978915D01*
X-8793400Y32095440D01*
X-8619008Y32211965D01*
X-8412165Y32418808D01*
X-8249650Y32662029D01*
X-8137708Y32932282D01*
X-8080640Y33219180D01*
X-8080640Y33511700D01*
X-8137708Y33798598D01*
X-8249650Y34068851D01*
X-8412165Y34312072D01*
X-8544020Y34443927D01*
X-8471460Y34465938D01*
X-8361146Y34524903D01*
X-8264455Y34604255D01*
X-8185103Y34700946D01*
X-8126138Y34811260D01*
X-8089828Y34930958D01*
X-8077568Y35055440D01*
X-8077568Y36755440D01*
X-8089828Y36879922D01*
X-8126138Y36999620D01*
X-8185103Y37109934D01*
X-8264455Y37206625D01*
X-8361146Y37285977D01*
X-8471460Y37344942D01*
X-8591158Y37381252D01*
X-8715640Y37393512D01*
X-10415640Y37393512D01*
X-10540122Y37381252D01*
X-10659820Y37344942D01*
X-10770134Y37285977D01*
X-10866825Y37206625D01*
X-10946177Y37109934D01*
X-11005142Y36999620D01*
X-11041452Y36879922D01*
X-11053712Y36755440D01*
X-12152240Y36755440D01*
X-12152240Y38182727D01*
X-5852563Y38490606D01*
X-5522240Y35704781D01*
G37*
X-5522240Y35704781D02*
X-5522240Y34689287D01*
X-5525554Y34655640D01*
X-5512328Y34521357D01*
X-5473159Y34392234D01*
X-5409552Y34273233D01*
X-5342862Y34191971D01*
X-5292477Y33767046D01*
X-5287136Y33742729D01*
X-5277154Y33719922D01*
X-5262914Y33699500D01*
X-5244964Y33682248D01*
X-5223993Y33668830D01*
X-5200807Y33659761D01*
X-5165782Y33655001D01*
X49398553Y33903343D01*
X49564925Y457628D01*
X1270758Y619350D01*
X847760Y12794720D01*
X847760Y13599972D01*
X1618960Y12828771D01*
X1618960Y12684058D01*
X1614920Y12643040D01*
X1618960Y12602022D01*
X1618960Y12602021D01*
X1631042Y12479351D01*
X1678788Y12321953D01*
X1720233Y12244417D01*
X1729485Y12227108D01*
X1756325Y12176894D01*
X1860670Y12049749D01*
X1892534Y12023599D01*
X3578791Y10337342D01*
X3565760Y10271832D01*
X3565760Y9996648D01*
X3619446Y9726750D01*
X3724755Y9472513D01*
X3877640Y9243705D01*
X4072225Y9049120D01*
X4094494Y9034240D01*
X4072225Y9019360D01*
X3877640Y8824775D01*
X3724755Y8595967D01*
X3619446Y8341730D01*
X3565760Y8071832D01*
X3565760Y7796648D01*
X3619446Y7526750D01*
X3724755Y7272513D01*
X3877640Y7043705D01*
X4072225Y6849120D01*
X4301033Y6696235D01*
X4555270Y6590926D01*
X4825168Y6537240D01*
X5100352Y6537240D01*
X5370250Y6590926D01*
X5624487Y6696235D01*
X5853295Y6849120D01*
X6047880Y7043705D01*
X6200765Y7272513D01*
X6248930Y7388794D01*
X16575601Y7388794D01*
X16575601Y6662486D01*
X16717296Y5950135D01*
X16995242Y5279115D01*
X17398756Y4675213D01*
X17912333Y4161636D01*
X18516235Y3758122D01*
X19187255Y3480176D01*
X19899606Y3338481D01*
X20625914Y3338481D01*
X21338265Y3480176D01*
X22009285Y3758122D01*
X22613187Y4161636D01*
X23126764Y4675213D01*
X23530278Y5279115D01*
X23808224Y5950135D01*
X23949919Y6662486D01*
X23949919Y7388794D01*
X26575601Y7388794D01*
X26575601Y6662486D01*
X26717296Y5950135D01*
X26995242Y5279115D01*
X27398756Y4675213D01*
X27912333Y4161636D01*
X28516235Y3758122D01*
X29187255Y3480176D01*
X29899606Y3338481D01*
X30625914Y3338481D01*
X31338265Y3480176D01*
X32009285Y3758122D01*
X32613187Y4161636D01*
X33126764Y4675213D01*
X33530278Y5279115D01*
X33808224Y5950135D01*
X33949919Y6662486D01*
X33949919Y7388794D01*
X33808224Y8101145D01*
X33530278Y8772165D01*
X33126764Y9376067D01*
X32613187Y9889644D01*
X32009285Y10293158D01*
X31338265Y10571104D01*
X30625914Y10712799D01*
X29899606Y10712799D01*
X29187255Y10571104D01*
X28516235Y10293158D01*
X27912333Y9889644D01*
X27398756Y9376067D01*
X26995242Y8772165D01*
X26717296Y8101145D01*
X26575601Y7388794D01*
X23949919Y7388794D01*
X23808224Y8101145D01*
X23530278Y8772165D01*
X23126764Y9376067D01*
X22613187Y9889644D01*
X22009285Y10293158D01*
X21338265Y10571104D01*
X20625914Y10712799D01*
X19899606Y10712799D01*
X19187255Y10571104D01*
X18516235Y10293158D01*
X17912333Y9889644D01*
X17398756Y9376067D01*
X16995242Y8772165D01*
X16717296Y8101145D01*
X16575601Y7388794D01*
X6248930Y7388794D01*
X6306074Y7526750D01*
X6359760Y7796648D01*
X6359760Y8071832D01*
X6306074Y8341730D01*
X6200765Y8595967D01*
X6047880Y8824775D01*
X5853295Y9019360D01*
X5831026Y9034240D01*
X5853295Y9049120D01*
X6047880Y9243705D01*
X6200765Y9472513D01*
X6306074Y9726750D01*
X6359760Y9996648D01*
X6359760Y10271832D01*
X6306074Y10541730D01*
X6200765Y10795967D01*
X6047880Y11024775D01*
X5853295Y11219360D01*
X5831026Y11234240D01*
X5853295Y11249120D01*
X6047880Y11443705D01*
X6200765Y11672513D01*
X6306074Y11926750D01*
X6359760Y12196648D01*
X6359760Y12471832D01*
X6306074Y12741730D01*
X6200765Y12995967D01*
X6047880Y13224775D01*
X5853295Y13419360D01*
X5831026Y13434240D01*
X5853295Y13449120D01*
X6047880Y13643705D01*
X6200765Y13872513D01*
X6306074Y14126750D01*
X6359760Y14396648D01*
X6359760Y14671832D01*
X6306074Y14941730D01*
X6200765Y15195967D01*
X6047880Y15424775D01*
X5853295Y15619360D01*
X5831026Y15634240D01*
X5853295Y15649120D01*
X6047880Y15843705D01*
X6200765Y16072513D01*
X6306074Y16326750D01*
X6359760Y16596648D01*
X6359760Y16871832D01*
X6306074Y17141730D01*
X6200765Y17395967D01*
X6047880Y17624775D01*
X5853295Y17819360D01*
X5624487Y17972245D01*
X5370250Y18077554D01*
X5100352Y18131240D01*
X4825168Y18131240D01*
X4555270Y18077554D01*
X4301033Y17972245D01*
X4072225Y17819360D01*
X3877640Y17624775D01*
X3724755Y17395967D01*
X3619446Y17141730D01*
X3565760Y16871832D01*
X3565760Y16596648D01*
X3619446Y16326750D01*
X3724755Y16072513D01*
X3877640Y15843705D01*
X4072225Y15649120D01*
X4094494Y15634240D01*
X4072225Y15619360D01*
X3877640Y15424775D01*
X3724755Y15195967D01*
X3619446Y14941730D01*
X3565760Y14671832D01*
X3565760Y14396648D01*
X3619446Y14126750D01*
X3724755Y13872513D01*
X3877640Y13643705D01*
X4072225Y13449120D01*
X4094494Y13434240D01*
X4072225Y13419360D01*
X3877640Y13224775D01*
X3724755Y12995967D01*
X3619446Y12741730D01*
X3605624Y12672243D01*
X3288960Y12988907D01*
X3288960Y13133622D01*
X3293000Y13174640D01*
X3281024Y13296235D01*
X3276878Y13338329D01*
X3229132Y13495727D01*
X3151596Y13640786D01*
X3103620Y13699245D01*
X3073399Y13736070D01*
X3073397Y13736072D01*
X3047251Y13767931D01*
X3015393Y13794076D01*
X1080406Y15729061D01*
X1054251Y15760931D01*
X927106Y15865276D01*
X782047Y15942812D01*
X624649Y15990558D01*
X501979Y16002640D01*
X501978Y16002640D01*
X460960Y16006680D01*
X419942Y16002640D01*
X-6814133Y16002640D01*
X-6855141Y16006679D01*
X-6896149Y16002640D01*
X-6896159Y16002640D01*
X-7018829Y15990558D01*
X-7176227Y15942812D01*
X-7321286Y15865276D01*
X-7448431Y15760931D01*
X-7474581Y15729066D01*
X-8583270Y14620377D01*
X-8771408Y14808515D01*
X-8945800Y14925040D01*
X-8771408Y15041565D01*
X-8564565Y15248408D01*
X-8402050Y15491629D01*
X-8290108Y15761882D01*
X-8233040Y16048780D01*
X-8233040Y16341300D01*
X-8290108Y16628198D01*
X-8402050Y16898451D01*
X-8564565Y17141672D01*
X-8771408Y17348515D01*
X-8945800Y17465040D01*
X-8771408Y17581565D01*
X-8564565Y17788408D01*
X-8402050Y18031629D01*
X-8290108Y18301882D01*
X-8233040Y18588780D01*
X-8233040Y18881300D01*
X-8290108Y19168198D01*
X-8402050Y19438451D01*
X-8422324Y19468794D01*
X13575601Y19468794D01*
X13575601Y18742486D01*
X13717296Y18030135D01*
X13995242Y17359115D01*
X14398756Y16755213D01*
X14912333Y16241636D01*
X15516235Y15838122D01*
X16187255Y15560176D01*
X16899606Y15418481D01*
X17625914Y15418481D01*
X18338265Y15560176D01*
X19009285Y15838122D01*
X19613187Y16241636D01*
X20126764Y16755213D01*
X20530278Y17359115D01*
X20808224Y18030135D01*
X20949919Y18742486D01*
X20949919Y19468794D01*
X29575601Y19468794D01*
X29575601Y18742486D01*
X29717296Y18030135D01*
X29995242Y17359115D01*
X30398756Y16755213D01*
X30912333Y16241636D01*
X31516235Y15838122D01*
X32187255Y15560176D01*
X32899606Y15418481D01*
X33625914Y15418481D01*
X34338265Y15560176D01*
X35009285Y15838122D01*
X35613187Y16241636D01*
X36126764Y16755213D01*
X36289544Y16998832D01*
X44332760Y16998832D01*
X44332760Y16723648D01*
X44386446Y16453750D01*
X44491755Y16199513D01*
X44644640Y15970705D01*
X44839225Y15776120D01*
X44861494Y15761240D01*
X44839225Y15746360D01*
X44644640Y15551775D01*
X44491755Y15322967D01*
X44386446Y15068730D01*
X44332760Y14798832D01*
X44332760Y14523648D01*
X44386446Y14253750D01*
X44491755Y13999513D01*
X44644640Y13770705D01*
X44839225Y13576120D01*
X44861494Y13561240D01*
X44839225Y13546360D01*
X44644640Y13351775D01*
X44491755Y13122967D01*
X44386446Y12868730D01*
X44332760Y12598832D01*
X44332760Y12323648D01*
X44386446Y12053750D01*
X44491755Y11799513D01*
X44644640Y11570705D01*
X44839225Y11376120D01*
X44861494Y11361240D01*
X44839225Y11346360D01*
X44644640Y11151775D01*
X44491755Y10922967D01*
X44386446Y10668730D01*
X44332760Y10398832D01*
X44332760Y10123648D01*
X44386446Y9853750D01*
X44491755Y9599513D01*
X44644640Y9370705D01*
X44839225Y9176120D01*
X44861494Y9161240D01*
X44839225Y9146360D01*
X44644640Y8951775D01*
X44491755Y8722967D01*
X44386446Y8468730D01*
X44332760Y8198832D01*
X44332760Y7923648D01*
X44386446Y7653750D01*
X44491755Y7399513D01*
X44644640Y7170705D01*
X44839225Y6976120D01*
X45068033Y6823235D01*
X45322270Y6717926D01*
X45592168Y6664240D01*
X45867352Y6664240D01*
X46137250Y6717926D01*
X46391487Y6823235D01*
X46620295Y6976120D01*
X46814880Y7170705D01*
X46967765Y7399513D01*
X47073074Y7653750D01*
X47126760Y7923648D01*
X47126760Y8198832D01*
X47073074Y8468730D01*
X46967765Y8722967D01*
X46814880Y8951775D01*
X46620295Y9146360D01*
X46598026Y9161240D01*
X46620295Y9176120D01*
X46814880Y9370705D01*
X46967765Y9599513D01*
X47073074Y9853750D01*
X47126760Y10123648D01*
X47126760Y10398832D01*
X47073074Y10668730D01*
X46967765Y10922967D01*
X46814880Y11151775D01*
X46620295Y11346360D01*
X46598026Y11361240D01*
X46620295Y11376120D01*
X46814880Y11570705D01*
X46967765Y11799513D01*
X47073074Y12053750D01*
X47126760Y12323648D01*
X47126760Y12598832D01*
X47073074Y12868730D01*
X46967765Y13122967D01*
X46814880Y13351775D01*
X46620295Y13546360D01*
X46598026Y13561240D01*
X46620295Y13576120D01*
X46814880Y13770705D01*
X46967765Y13999513D01*
X47073074Y14253750D01*
X47126760Y14523648D01*
X47126760Y14798832D01*
X47073074Y15068730D01*
X46967765Y15322967D01*
X46814880Y15551775D01*
X46620295Y15746360D01*
X46598026Y15761240D01*
X46620295Y15776120D01*
X46814880Y15970705D01*
X46967765Y16199513D01*
X47073074Y16453750D01*
X47126760Y16723648D01*
X47126760Y16998832D01*
X47073074Y17268730D01*
X46967765Y17522967D01*
X46814880Y17751775D01*
X46620295Y17946360D01*
X46391487Y18099245D01*
X46137250Y18204554D01*
X45867352Y18258240D01*
X45592168Y18258240D01*
X45322270Y18204554D01*
X45068033Y18099245D01*
X44839225Y17946360D01*
X44644640Y17751775D01*
X44491755Y17522967D01*
X44386446Y17268730D01*
X44332760Y16998832D01*
X36289544Y16998832D01*
X36530278Y17359115D01*
X36808224Y18030135D01*
X36949919Y18742486D01*
X36949919Y19468794D01*
X36808224Y20181145D01*
X36530278Y20852165D01*
X36126764Y21456067D01*
X35613187Y21969644D01*
X35009285Y22373158D01*
X34338265Y22651104D01*
X33625914Y22792799D01*
X32899606Y22792799D01*
X32187255Y22651104D01*
X31516235Y22373158D01*
X30912333Y21969644D01*
X30398756Y21456067D01*
X29995242Y20852165D01*
X29717296Y20181145D01*
X29575601Y19468794D01*
X20949919Y19468794D01*
X20808224Y20181145D01*
X20530278Y20852165D01*
X20126764Y21456067D01*
X19613187Y21969644D01*
X19009285Y22373158D01*
X18338265Y22651104D01*
X17625914Y22792799D01*
X16899606Y22792799D01*
X16187255Y22651104D01*
X15516235Y22373158D01*
X14912333Y21969644D01*
X14398756Y21456067D01*
X13995242Y20852165D01*
X13717296Y20181145D01*
X13575601Y19468794D01*
X-8422324Y19468794D01*
X-8564565Y19681672D01*
X-8696420Y19813527D01*
X-8623860Y19835538D01*
X-8513546Y19894503D01*
X-8416855Y19973855D01*
X-8337503Y20070546D01*
X-8278538Y20180860D01*
X-8242228Y20300558D01*
X-8229968Y20425040D01*
X-8229968Y22125040D01*
X-8242228Y22249522D01*
X-8278538Y22369220D01*
X-8337503Y22479534D01*
X-8416855Y22576225D01*
X-8513546Y22655577D01*
X-8623860Y22714542D01*
X-8743558Y22750852D01*
X-8868040Y22763112D01*
X-10568040Y22763112D01*
X-10692522Y22750852D01*
X-10812220Y22714542D01*
X-10922534Y22655577D01*
X-11019225Y22576225D01*
X-11098577Y22479534D01*
X-11157542Y22369220D01*
X-11193852Y22249522D01*
X-11206112Y22125040D01*
X-11206112Y20425040D01*
X-11193852Y20300558D01*
X-11157542Y20180860D01*
X-11098577Y20070546D01*
X-11019225Y19973855D01*
X-10922534Y19894503D01*
X-10812220Y19835538D01*
X-10739660Y19813527D01*
X-10871515Y19681672D01*
X-11034030Y19438451D01*
X-11145972Y19168198D01*
X-11203040Y18881300D01*
X-11203040Y18588780D01*
X-11145972Y18301882D01*
X-11034030Y18031629D01*
X-10871515Y17788408D01*
X-10664672Y17581565D01*
X-10490280Y17465040D01*
X-10664672Y17348515D01*
X-10871515Y17141672D01*
X-11034030Y16898451D01*
X-11145972Y16628198D01*
X-11203040Y16341300D01*
X-11203040Y16048780D01*
X-11145972Y15761882D01*
X-11034030Y15491629D01*
X-10871515Y15248408D01*
X-10664672Y15041565D01*
X-10490280Y14925040D01*
X-10664672Y14808515D01*
X-10871515Y14601672D01*
X-11034030Y14358451D01*
X-11145972Y14088198D01*
X-11203040Y13801300D01*
X-11203040Y13508780D01*
X-11145972Y13221882D01*
X-11034030Y12951629D01*
X-10871515Y12708408D01*
X-10664672Y12501565D01*
X-10421451Y12339050D01*
X-10151198Y12227108D01*
X-9864300Y12170040D01*
X-9571780Y12170040D01*
X-9284882Y12227108D01*
X-9014629Y12339050D01*
X-8771408Y12501565D01*
X-8564565Y12708408D01*
X-8489975Y12820040D01*
X-8408758Y12820040D01*
X-8367740Y12816000D01*
X-8326722Y12820040D01*
X-8326721Y12820040D01*
X-8204051Y12832122D01*
X-8046653Y12879868D01*
X-7901594Y12957404D01*
X-7774449Y13061749D01*
X-7748294Y13093619D01*
X-6509272Y14332640D01*
X-5856989Y14332640D01*
X-5704834Y10537991D01*
X-12152240Y10389454D01*
X-12152240Y36755440D01*
X-11053712Y36755440D01*
X-11053712Y35055440D01*
X-11041452Y34930958D01*
X-11005142Y34811260D01*
X-10946177Y34700946D01*
X-10866825Y34604255D01*
X-10770134Y34524903D01*
X-10659820Y34465938D01*
X-10587260Y34443927D01*
X-10719115Y34312072D01*
X-10881630Y34068851D01*
X-10993572Y33798598D01*
X-11050640Y33511700D01*
X-11050640Y33219180D01*
X-10993572Y32932282D01*
X-10881630Y32662029D01*
X-10719115Y32418808D01*
X-10512272Y32211965D01*
X-10337880Y32095440D01*
X-10512272Y31978915D01*
X-10719115Y31772072D01*
X-10881630Y31528851D01*
X-10993572Y31258598D01*
X-11050640Y30971700D01*
X-11050640Y30679180D01*
X-10993572Y30392282D01*
X-10881630Y30122029D01*
X-10719115Y29878808D01*
X-10512272Y29671965D01*
X-10337880Y29555440D01*
X-10512272Y29438915D01*
X-10719115Y29232072D01*
X-10881630Y28988851D01*
X-10993572Y28718598D01*
X-11050640Y28431700D01*
X-11050640Y28139180D01*
X-10993572Y27852282D01*
X-10881630Y27582029D01*
X-10719115Y27338808D01*
X-10512272Y27131965D01*
X-10269051Y26969450D01*
X-9998798Y26857508D01*
X-9711900Y26800440D01*
X-9419380Y26800440D01*
X-9132482Y26857508D01*
X-8862229Y26969450D01*
X-8619008Y27131965D01*
X-8412165Y27338808D01*
X-8249650Y27582029D01*
X-8137708Y27852282D01*
X-8080640Y28139180D01*
X-8080640Y28431700D01*
X-8137708Y28718598D01*
X-8249650Y28988851D01*
X-8412165Y29232072D01*
X-8619008Y29438915D01*
X-8793400Y29555440D01*
X-8619008Y29671965D01*
X-8412165Y29878808D01*
X-8337575Y29990440D01*
X-8256358Y29990440D01*
X-8215340Y29986400D01*
X-8174322Y29990440D01*
X-8174321Y29990440D01*
X-8051651Y30002522D01*
X-7894253Y30050268D01*
X-7749194Y30127804D01*
X-7622049Y30232149D01*
X-7595894Y30264019D01*
X-6902972Y30956940D01*
X19358901Y30956940D01*
X19336446Y30902730D01*
X19282760Y30632832D01*
X19282760Y30357648D01*
X19336446Y30087750D01*
X19441755Y29833513D01*
X19594640Y29604705D01*
X19789225Y29410120D01*
X20018033Y29257235D01*
X20272270Y29151926D01*
X20542168Y29098240D01*
X20817352Y29098240D01*
X21087250Y29151926D01*
X21341487Y29257235D01*
X21570295Y29410120D01*
X21764880Y29604705D01*
X21779760Y29626974D01*
X21794640Y29604705D01*
X21989225Y29410120D01*
X22218033Y29257235D01*
X22472270Y29151926D01*
X22742168Y29098240D01*
X23017352Y29098240D01*
X23287250Y29151926D01*
X23541487Y29257235D01*
X23770295Y29410120D01*
X23964880Y29604705D01*
X23979760Y29626974D01*
X23994640Y29604705D01*
X24189225Y29410120D01*
X24418033Y29257235D01*
X24672270Y29151926D01*
X24942168Y29098240D01*
X25217352Y29098240D01*
X25487250Y29151926D01*
X25741487Y29257235D01*
X25970295Y29410120D01*
X26164880Y29604705D01*
X26179760Y29626974D01*
X26194640Y29604705D01*
X26389225Y29410120D01*
X26618033Y29257235D01*
X26872270Y29151926D01*
X27142168Y29098240D01*
X27417352Y29098240D01*
X27687250Y29151926D01*
X27941487Y29257235D01*
X28170295Y29410120D01*
X28364880Y29604705D01*
X28379760Y29626974D01*
X28394640Y29604705D01*
X28589225Y29410120D01*
X28818033Y29257235D01*
X29072270Y29151926D01*
X29342168Y29098240D01*
X29617352Y29098240D01*
X29887250Y29151926D01*
X30141487Y29257235D01*
X30370295Y29410120D01*
X30564880Y29604705D01*
X30717765Y29833513D01*
X30823074Y30087750D01*
X30876760Y30357648D01*
X30876760Y30632832D01*
X30823074Y30902730D01*
X30717765Y31156967D01*
X30564880Y31385775D01*
X30370295Y31580360D01*
X30141487Y31733245D01*
X29887250Y31838554D01*
X29617352Y31892240D01*
X29342168Y31892240D01*
X29072270Y31838554D01*
X28818033Y31733245D01*
X28589225Y31580360D01*
X28394640Y31385775D01*
X28379760Y31363506D01*
X28364880Y31385775D01*
X28170295Y31580360D01*
X27941487Y31733245D01*
X27687250Y31838554D01*
X27417352Y31892240D01*
X27142168Y31892240D01*
X26872270Y31838554D01*
X26618033Y31733245D01*
X26389225Y31580360D01*
X26194640Y31385775D01*
X26179760Y31363506D01*
X26164880Y31385775D01*
X25970295Y31580360D01*
X25741487Y31733245D01*
X25487250Y31838554D01*
X25217352Y31892240D01*
X24942168Y31892240D01*
X24876658Y31879209D01*
X24402506Y32353362D01*
X24376351Y32385231D01*
X24249206Y32489576D01*
X24104147Y32567112D01*
X23946749Y32614858D01*
X23824079Y32626940D01*
X23824078Y32626940D01*
X23783060Y32630980D01*
X23742042Y32626940D01*
X-7207833Y32626940D01*
X-7248841Y32630979D01*
X-7289849Y32626940D01*
X-7289859Y32626940D01*
X-7412529Y32614858D01*
X-7569927Y32567112D01*
X-7714986Y32489576D01*
X-7842131Y32385231D01*
X-7868282Y32353366D01*
X-8430870Y31790777D01*
X-8619008Y31978915D01*
X-8793400Y32095440D01*
X-8619008Y32211965D01*
X-8412165Y32418808D01*
X-8249650Y32662029D01*
X-8137708Y32932282D01*
X-8080640Y33219180D01*
X-8080640Y33511700D01*
X-8137708Y33798598D01*
X-8249650Y34068851D01*
X-8412165Y34312072D01*
X-8544020Y34443927D01*
X-8471460Y34465938D01*
X-8361146Y34524903D01*
X-8264455Y34604255D01*
X-8185103Y34700946D01*
X-8126138Y34811260D01*
X-8089828Y34930958D01*
X-8077568Y35055440D01*
X-8077568Y36755440D01*
X-8089828Y36879922D01*
X-8126138Y36999620D01*
X-8185103Y37109934D01*
X-8264455Y37206625D01*
X-8361146Y37285977D01*
X-8471460Y37344942D01*
X-8591158Y37381252D01*
X-8715640Y37393512D01*
X-10415640Y37393512D01*
X-10540122Y37381252D01*
X-10659820Y37344942D01*
X-10770134Y37285977D01*
X-10866825Y37206625D01*
X-10946177Y37109934D01*
X-11005142Y36999620D01*
X-11041452Y36879922D01*
X-11053712Y36755440D01*
X-12152240Y36755440D01*
X-12152240Y38182727D01*
X-5852563Y38490606D01*
X-5522240Y35704781D01*
M02*
