%TF.GenerationSoftware,KiCad,Pcbnew,5.1.6-c6e7f7d~87~ubuntu20.04.1*%
%TF.CreationDate,2022-02-26T19:36:22+01:00*%
%TF.ProjectId,pick_n_place_head,7069636b-5f6e-45f7-906c-6163655f6865,rev?*%
%TF.SameCoordinates,PX5f36538PY5a45498*%
%TF.FileFunction,Soldermask,Top*%
%TF.FilePolarity,Negative*%
%FSLAX46Y46*%
G04 Gerber Fmt 4.6, Leading zero omitted, Abs format (unit mm)*
G04 Created by KiCad (PCBNEW 5.1.6-c6e7f7d~87~ubuntu20.04.1) date 2022-02-26 19:36:22*
%MOMM*%
%LPD*%
G01*
G04 APERTURE LIST*
%ADD10O,1.800000X1.800000*%
%ADD11R,1.800000X1.800000*%
%ADD12C,1.624000*%
%ADD13R,1.160000X0.750000*%
G04 APERTURE END LIST*
D10*
%TO.C,Amot1*%
X-9565640Y28285440D03*
X-9565640Y30825440D03*
X-9565640Y33365440D03*
D11*
X-9565640Y35905440D03*
%TD*%
%TO.C,blue1*%
G36*
G01*
X44951760Y25232040D02*
X44951760Y23922040D01*
G75*
G02*
X44681760Y23652040I-270000J0D01*
G01*
X43871760Y23652040D01*
G75*
G02*
X43601760Y23922040I0J270000D01*
G01*
X43601760Y25232040D01*
G75*
G02*
X43871760Y25502040I270000J0D01*
G01*
X44681760Y25502040D01*
G75*
G02*
X44951760Y25232040I0J-270000D01*
G01*
G37*
G36*
G01*
X47751760Y25232040D02*
X47751760Y23922040D01*
G75*
G02*
X47481760Y23652040I-270000J0D01*
G01*
X46671760Y23652040D01*
G75*
G02*
X46401760Y23922040I0J270000D01*
G01*
X46401760Y25232040D01*
G75*
G02*
X46671760Y25502040I270000J0D01*
G01*
X47481760Y25502040D01*
G75*
G02*
X47751760Y25232040I0J-270000D01*
G01*
G37*
%TD*%
%TO.C,green1*%
G36*
G01*
X47728760Y30439040D02*
X47728760Y29129040D01*
G75*
G02*
X47458760Y28859040I-270000J0D01*
G01*
X46648760Y28859040D01*
G75*
G02*
X46378760Y29129040I0J270000D01*
G01*
X46378760Y30439040D01*
G75*
G02*
X46648760Y30709040I270000J0D01*
G01*
X47458760Y30709040D01*
G75*
G02*
X47728760Y30439040I0J-270000D01*
G01*
G37*
G36*
G01*
X44928760Y30439040D02*
X44928760Y29129040D01*
G75*
G02*
X44658760Y28859040I-270000J0D01*
G01*
X43848760Y28859040D01*
G75*
G02*
X43578760Y29129040I0J270000D01*
G01*
X43578760Y30439040D01*
G75*
G02*
X43848760Y30709040I270000J0D01*
G01*
X44658760Y30709040D01*
G75*
G02*
X44928760Y30439040I0J-270000D01*
G01*
G37*
%TD*%
D12*
%TO.C,M1*%
X4962760Y16734240D03*
X4962760Y14534240D03*
X4962760Y12334240D03*
X4962760Y10134240D03*
X4962760Y7934240D03*
%TD*%
%TO.C,M2*%
X45729760Y8061240D03*
X45729760Y10261240D03*
X45729760Y12461240D03*
X45729760Y14661240D03*
X45729760Y16861240D03*
%TD*%
%TO.C,M3*%
X29479760Y30495240D03*
X27279760Y30495240D03*
X25079760Y30495240D03*
X22879760Y30495240D03*
X20679760Y30495240D03*
%TD*%
%TO.C,R1*%
G36*
G01*
X38207760Y24095790D02*
X38207760Y25058290D01*
G75*
G02*
X38476510Y25327040I268750J0D01*
G01*
X39014010Y25327040D01*
G75*
G02*
X39282760Y25058290I0J-268750D01*
G01*
X39282760Y24095790D01*
G75*
G02*
X39014010Y23827040I-268750J0D01*
G01*
X38476510Y23827040D01*
G75*
G02*
X38207760Y24095790I0J268750D01*
G01*
G37*
G36*
G01*
X36332760Y24095790D02*
X36332760Y25058290D01*
G75*
G02*
X36601510Y25327040I268750J0D01*
G01*
X37139010Y25327040D01*
G75*
G02*
X37407760Y25058290I0J-268750D01*
G01*
X37407760Y24095790D01*
G75*
G02*
X37139010Y23827040I-268750J0D01*
G01*
X36601510Y23827040D01*
G75*
G02*
X36332760Y24095790I0J268750D01*
G01*
G37*
%TD*%
%TO.C,R2*%
G36*
G01*
X36228760Y29150390D02*
X36228760Y30112890D01*
G75*
G02*
X36497510Y30381640I268750J0D01*
G01*
X37035010Y30381640D01*
G75*
G02*
X37303760Y30112890I0J-268750D01*
G01*
X37303760Y29150390D01*
G75*
G02*
X37035010Y28881640I-268750J0D01*
G01*
X36497510Y28881640D01*
G75*
G02*
X36228760Y29150390I0J268750D01*
G01*
G37*
G36*
G01*
X38103760Y29150390D02*
X38103760Y30112890D01*
G75*
G02*
X38372510Y30381640I268750J0D01*
G01*
X38910010Y30381640D01*
G75*
G02*
X39178760Y30112890I0J-268750D01*
G01*
X39178760Y29150390D01*
G75*
G02*
X38910010Y28881640I-268750J0D01*
G01*
X38372510Y28881640D01*
G75*
G02*
X38103760Y29150390I0J268750D01*
G01*
G37*
%TD*%
D13*
%TO.C,U1*%
X41775760Y17200840D03*
X41775760Y18150840D03*
X41775760Y19100840D03*
X39575760Y19100840D03*
X39575760Y17200840D03*
%TD*%
D11*
%TO.C,Zmot1*%
X-9718040Y21275040D03*
D10*
X-9718040Y18735040D03*
X-9718040Y16195040D03*
X-9718040Y13655040D03*
%TD*%
M02*
