M48
; DRILL file {KiCad 5.1.6-c6e7f7d~87~ubuntu20.04.1} date Sat Feb 26 19:36:25 2022
; FORMAT={-:-/ absolute / metric / decimal}
; #@! TF.CreationDate,2022-02-26T19:36:25+01:00
; #@! TF.GenerationSoftware,Kicad,Pcbnew,5.1.6-c6e7f7d~87~ubuntu20.04.1
; #@! TF.FileFunction,Plated,1,2,PTH
FMAT,2
METRIC
T1C0.762
T2C1.000
%
G90
G05
T1
X4.963Y16.734
X4.963Y14.534
X4.963Y12.334
X4.963Y10.134
X4.963Y7.934
X20.68Y30.495
X22.88Y30.495
X25.08Y30.495
X27.28Y30.495
X29.48Y30.495
X45.73Y16.861
X45.73Y14.661
X45.73Y12.461
X45.73Y10.261
X45.73Y8.061
T2
X-9.566Y35.905
X-9.566Y33.365
X-9.566Y30.825
X-9.566Y28.285
X-9.718Y21.275
X-9.718Y18.735
X-9.718Y16.195
X-9.718Y13.655
T0
M30
