%TF.GenerationSoftware,KiCad,Pcbnew,5.1.6-c6e7f7d~87~ubuntu20.04.1*%
%TF.CreationDate,2022-02-26T19:36:22+01:00*%
%TF.ProjectId,pick_n_place_head,7069636b-5f6e-45f7-906c-6163655f6865,rev?*%
%TF.SameCoordinates,PX5f36538PY5a45498*%
%TF.FileFunction,Legend,Top*%
%TF.FilePolarity,Positive*%
%FSLAX46Y46*%
G04 Gerber Fmt 4.6, Leading zero omitted, Abs format (unit mm)*
G04 Created by KiCad (PCBNEW 5.1.6-c6e7f7d~87~ubuntu20.04.1) date 2022-02-26 19:36:22*
%MOMM*%
%LPD*%
G01*
G04 APERTURE LIST*
%ADD10C,0.120000*%
%ADD11C,0.150000*%
G04 APERTURE END LIST*
D10*
%TO.C,Amot1*%
X-10895640Y37235440D02*
X-9565640Y37235440D01*
X-10895640Y35905440D02*
X-10895640Y37235440D01*
X-10895640Y34635440D02*
X-8235640Y34635440D01*
X-8235640Y34635440D02*
X-8235640Y26955440D01*
X-10895640Y34635440D02*
X-10895640Y26955440D01*
X-10895640Y26955440D02*
X-8235640Y26955440D01*
%TO.C,blue1*%
X47961760Y25712040D02*
X44076760Y25712040D01*
X47961760Y23442040D02*
X47961760Y25712040D01*
X44076760Y23442040D02*
X47961760Y23442040D01*
%TO.C,green1*%
X44053760Y28649040D02*
X47938760Y28649040D01*
X47938760Y28649040D02*
X47938760Y30919040D01*
X47938760Y30919040D02*
X44053760Y30919040D01*
%TO.C,M1*%
X2162760Y21834240D02*
X2162760Y2834240D01*
X7762760Y2834240D02*
X7762760Y21834240D01*
X2162760Y21834240D02*
G75*
G02*
X7762760Y21834240I2800000J0D01*
G01*
X7762760Y2834240D02*
G75*
G02*
X2162760Y2834240I-2800000J0D01*
G01*
%TO.C,M2*%
X48529760Y2961240D02*
X48529760Y21961240D01*
X42929760Y21961240D02*
X42929760Y2961240D01*
X48529760Y2961240D02*
G75*
G02*
X42929760Y2961240I-2800000J0D01*
G01*
X42929760Y21961240D02*
G75*
G02*
X48529760Y21961240I2800000J0D01*
G01*
%TO.C,M3*%
X34579760Y33295240D02*
X15579760Y33295240D01*
X15579760Y27695240D02*
X34579760Y27695240D01*
X34579760Y33295240D02*
G75*
G02*
X34579760Y27695240I0J-2800000D01*
G01*
X15579760Y27695240D02*
G75*
G02*
X15579760Y33295240I0J2800000D01*
G01*
%TO.C,R1*%
X37549182Y23867040D02*
X38066338Y23867040D01*
X37549182Y25287040D02*
X38066338Y25287040D01*
%TO.C,R2*%
X37445182Y30341640D02*
X37962338Y30341640D01*
X37445182Y28921640D02*
X37962338Y28921640D01*
%TO.C,U1*%
X41575760Y19760840D02*
X39775760Y19760840D01*
X39775760Y16540840D02*
X42225760Y16540840D01*
%TO.C,Zmot1*%
X-11048040Y12325040D02*
X-8388040Y12325040D01*
X-11048040Y20005040D02*
X-11048040Y12325040D01*
X-8388040Y20005040D02*
X-8388040Y12325040D01*
X-11048040Y20005040D02*
X-8388040Y20005040D01*
X-11048040Y21275040D02*
X-11048040Y22605040D01*
X-11048040Y22605040D02*
X-9718040Y22605040D01*
%TO.C,Amot1*%
D11*
X-11684688Y38068774D02*
X-11208498Y38068774D01*
X-11779926Y37783060D02*
X-11446593Y38783060D01*
X-11113260Y37783060D01*
X-10779926Y37783060D02*
X-10779926Y38449726D01*
X-10779926Y38354488D02*
X-10732307Y38402107D01*
X-10637069Y38449726D01*
X-10494212Y38449726D01*
X-10398974Y38402107D01*
X-10351355Y38306869D01*
X-10351355Y37783060D01*
X-10351355Y38306869D02*
X-10303736Y38402107D01*
X-10208498Y38449726D01*
X-10065640Y38449726D01*
X-9970402Y38402107D01*
X-9922783Y38306869D01*
X-9922783Y37783060D01*
X-9303736Y37783060D02*
X-9398974Y37830679D01*
X-9446593Y37878298D01*
X-9494212Y37973536D01*
X-9494212Y38259250D01*
X-9446593Y38354488D01*
X-9398974Y38402107D01*
X-9303736Y38449726D01*
X-9160879Y38449726D01*
X-9065640Y38402107D01*
X-9018021Y38354488D01*
X-8970402Y38259250D01*
X-8970402Y37973536D01*
X-9018021Y37878298D01*
X-9065640Y37830679D01*
X-9160879Y37783060D01*
X-9303736Y37783060D01*
X-8684688Y38449726D02*
X-8303736Y38449726D01*
X-8541831Y38783060D02*
X-8541831Y37925917D01*
X-8494212Y37830679D01*
X-8398974Y37783060D01*
X-8303736Y37783060D01*
X-7446593Y37783060D02*
X-8018021Y37783060D01*
X-7732307Y37783060D02*
X-7732307Y38783060D01*
X-7827545Y38640202D01*
X-7922783Y38544964D01*
X-8018021Y38497345D01*
%TO.C,blue1*%
X43843426Y22304660D02*
X43843426Y23304660D01*
X43843426Y22923707D02*
X43938664Y22971326D01*
X44129140Y22971326D01*
X44224379Y22923707D01*
X44271998Y22876088D01*
X44319617Y22780850D01*
X44319617Y22495136D01*
X44271998Y22399898D01*
X44224379Y22352279D01*
X44129140Y22304660D01*
X43938664Y22304660D01*
X43843426Y22352279D01*
X44891045Y22304660D02*
X44795807Y22352279D01*
X44748188Y22447517D01*
X44748188Y23304660D01*
X45700569Y22971326D02*
X45700569Y22304660D01*
X45271998Y22971326D02*
X45271998Y22447517D01*
X45319617Y22352279D01*
X45414855Y22304660D01*
X45557712Y22304660D01*
X45652950Y22352279D01*
X45700569Y22399898D01*
X46557712Y22352279D02*
X46462474Y22304660D01*
X46271998Y22304660D01*
X46176760Y22352279D01*
X46129140Y22447517D01*
X46129140Y22828469D01*
X46176760Y22923707D01*
X46271998Y22971326D01*
X46462474Y22971326D01*
X46557712Y22923707D01*
X46605331Y22828469D01*
X46605331Y22733231D01*
X46129140Y22637993D01*
X47557712Y22304660D02*
X46986283Y22304660D01*
X47271998Y22304660D02*
X47271998Y23304660D01*
X47176760Y23161802D01*
X47081521Y23066564D01*
X46986283Y23018945D01*
%TO.C,green1*%
X43772807Y28178326D02*
X43772807Y27368802D01*
X43725188Y27273564D01*
X43677569Y27225945D01*
X43582331Y27178326D01*
X43439474Y27178326D01*
X43344236Y27225945D01*
X43772807Y27559279D02*
X43677569Y27511660D01*
X43487093Y27511660D01*
X43391855Y27559279D01*
X43344236Y27606898D01*
X43296617Y27702136D01*
X43296617Y27987850D01*
X43344236Y28083088D01*
X43391855Y28130707D01*
X43487093Y28178326D01*
X43677569Y28178326D01*
X43772807Y28130707D01*
X44248998Y27511660D02*
X44248998Y28178326D01*
X44248998Y27987850D02*
X44296617Y28083088D01*
X44344236Y28130707D01*
X44439474Y28178326D01*
X44534712Y28178326D01*
X45248998Y27559279D02*
X45153760Y27511660D01*
X44963283Y27511660D01*
X44868045Y27559279D01*
X44820426Y27654517D01*
X44820426Y28035469D01*
X44868045Y28130707D01*
X44963283Y28178326D01*
X45153760Y28178326D01*
X45248998Y28130707D01*
X45296617Y28035469D01*
X45296617Y27940231D01*
X44820426Y27844993D01*
X46106140Y27559279D02*
X46010902Y27511660D01*
X45820426Y27511660D01*
X45725188Y27559279D01*
X45677569Y27654517D01*
X45677569Y28035469D01*
X45725188Y28130707D01*
X45820426Y28178326D01*
X46010902Y28178326D01*
X46106140Y28130707D01*
X46153760Y28035469D01*
X46153760Y27940231D01*
X45677569Y27844993D01*
X46582331Y28178326D02*
X46582331Y27511660D01*
X46582331Y28083088D02*
X46629950Y28130707D01*
X46725188Y28178326D01*
X46868045Y28178326D01*
X46963283Y28130707D01*
X47010902Y28035469D01*
X47010902Y27511660D01*
X48010902Y27511660D02*
X47439474Y27511660D01*
X47725188Y27511660D02*
X47725188Y28511660D01*
X47629950Y28368802D01*
X47534712Y28273564D01*
X47439474Y28225945D01*
%TO.C,M1*%
X4254836Y18993860D02*
X4254836Y19993860D01*
X4588169Y19279574D01*
X4921502Y19993860D01*
X4921502Y18993860D01*
X5921502Y18993860D02*
X5350074Y18993860D01*
X5635788Y18993860D02*
X5635788Y19993860D01*
X5540550Y19851002D01*
X5445312Y19755764D01*
X5350074Y19708145D01*
%TO.C,M2*%
X44945636Y4820660D02*
X44945636Y5820660D01*
X45278969Y5106374D01*
X45612302Y5820660D01*
X45612302Y4820660D01*
X46040874Y5725421D02*
X46088493Y5773040D01*
X46183731Y5820660D01*
X46421826Y5820660D01*
X46517064Y5773040D01*
X46564683Y5725421D01*
X46612302Y5630183D01*
X46612302Y5534945D01*
X46564683Y5392088D01*
X45993255Y4820660D01*
X46612302Y4820660D01*
%TO.C,M3*%
X24549636Y26131260D02*
X24549636Y27131260D01*
X24882969Y26416974D01*
X25216302Y27131260D01*
X25216302Y26131260D01*
X25597255Y27131260D02*
X26216302Y27131260D01*
X25882969Y26750307D01*
X26025826Y26750307D01*
X26121064Y26702688D01*
X26168683Y26655069D01*
X26216302Y26559831D01*
X26216302Y26321736D01*
X26168683Y26226498D01*
X26121064Y26178879D01*
X26025826Y26131260D01*
X25740112Y26131260D01*
X25644874Y26178879D01*
X25597255Y26226498D01*
%TO.C,R1*%
X37641093Y25774660D02*
X37307760Y26250850D01*
X37069664Y25774660D02*
X37069664Y26774660D01*
X37450617Y26774660D01*
X37545855Y26727040D01*
X37593474Y26679421D01*
X37641093Y26584183D01*
X37641093Y26441326D01*
X37593474Y26346088D01*
X37545855Y26298469D01*
X37450617Y26250850D01*
X37069664Y26250850D01*
X38593474Y25774660D02*
X38022045Y25774660D01*
X38307760Y25774660D02*
X38307760Y26774660D01*
X38212521Y26631802D01*
X38117283Y26536564D01*
X38022045Y26488945D01*
%TO.C,R2*%
X37537093Y30829260D02*
X37203760Y31305450D01*
X36965664Y30829260D02*
X36965664Y31829260D01*
X37346617Y31829260D01*
X37441855Y31781640D01*
X37489474Y31734021D01*
X37537093Y31638783D01*
X37537093Y31495926D01*
X37489474Y31400688D01*
X37441855Y31353069D01*
X37346617Y31305450D01*
X36965664Y31305450D01*
X37918045Y31734021D02*
X37965664Y31781640D01*
X38060902Y31829260D01*
X38298998Y31829260D01*
X38394236Y31781640D01*
X38441855Y31734021D01*
X38489474Y31638783D01*
X38489474Y31543545D01*
X38441855Y31400688D01*
X37870426Y30829260D01*
X38489474Y30829260D01*
%TO.C,U1*%
X39913855Y15798460D02*
X39913855Y14988936D01*
X39961474Y14893698D01*
X40009093Y14846079D01*
X40104331Y14798460D01*
X40294807Y14798460D01*
X40390045Y14846079D01*
X40437664Y14893698D01*
X40485283Y14988936D01*
X40485283Y15798460D01*
X41485283Y14798460D02*
X40913855Y14798460D01*
X41199569Y14798460D02*
X41199569Y15798460D01*
X41104331Y15655602D01*
X41009093Y15560364D01*
X40913855Y15512745D01*
%TO.C,Zmot1*%
X-11932326Y24152660D02*
X-11265660Y24152660D01*
X-11932326Y23152660D01*
X-11265660Y23152660D01*
X-10884707Y23152660D02*
X-10884707Y23819326D01*
X-10884707Y23724088D02*
X-10837088Y23771707D01*
X-10741850Y23819326D01*
X-10598993Y23819326D01*
X-10503755Y23771707D01*
X-10456136Y23676469D01*
X-10456136Y23152660D01*
X-10456136Y23676469D02*
X-10408517Y23771707D01*
X-10313279Y23819326D01*
X-10170421Y23819326D01*
X-10075183Y23771707D01*
X-10027564Y23676469D01*
X-10027564Y23152660D01*
X-9408517Y23152660D02*
X-9503755Y23200279D01*
X-9551374Y23247898D01*
X-9598993Y23343136D01*
X-9598993Y23628850D01*
X-9551374Y23724088D01*
X-9503755Y23771707D01*
X-9408517Y23819326D01*
X-9265660Y23819326D01*
X-9170421Y23771707D01*
X-9122802Y23724088D01*
X-9075183Y23628850D01*
X-9075183Y23343136D01*
X-9122802Y23247898D01*
X-9170421Y23200279D01*
X-9265660Y23152660D01*
X-9408517Y23152660D01*
X-8789469Y23819326D02*
X-8408517Y23819326D01*
X-8646612Y24152660D02*
X-8646612Y23295517D01*
X-8598993Y23200279D01*
X-8503755Y23152660D01*
X-8408517Y23152660D01*
X-7551374Y23152660D02*
X-8122802Y23152660D01*
X-7837088Y23152660D02*
X-7837088Y24152660D01*
X-7932326Y24009802D01*
X-8027564Y23914564D01*
X-8122802Y23866945D01*
%TD*%
M02*
